<?xml version="1.0" encoding="utf-8" standalone="no"?>
<!DOCTYPE svg PUBLIC "-//W3C//DTD SVG 1.1//EN"
  "http://www.w3.org/Graphics/SVG/1.1/DTD/svg11.dtd">
<svg xmlns:xlink="http://www.w3.org/1999/xlink" width="439.740312pt" height="308.932625pt" viewBox="0 0 439.740312 308.932625" xmlns="http://www.w3.org/2000/svg" version="1.1">
 <metadata>
  <rdf:RDF xmlns:dc="http://purl.org/dc/elements/1.1/" xmlns:cc="http://creativecommons.org/ns#" xmlns:rdf="http://www.w3.org/1999/02/22-rdf-syntax-ns#">
   <cc:Work>
    <dc:type rdf:resource="http://purl.org/dc/dcmitype/StillImage"/>
    <dc:date>2025-07-25T11:23:18.476954</dc:date>
    <dc:format>image/svg+xml</dc:format>
    <dc:creator>
     <cc:Agent>
      <dc:title>Matplotlib v3.10.3, https://matplotlib.org/</dc:title>
     </cc:Agent>
    </dc:creator>
   </cc:Work>
  </rdf:RDF>
 </metadata>
 <defs>
  <style type="text/css">*{stroke-linejoin: round; stroke-linecap: butt}</style>
 </defs>
 <g id="figure_1">
  <g id="patch_1">
   <path d="M 0 308.932625 
L 439.740312 308.932625 
L 439.740312 0 
L 0 0 
z
" style="fill: #ffffff"/>
  </g>
  <g id="axes_1">
   <g id="patch_2">
    <path d="M 75.420312 273.312 
L 432.540313 273.312 
L 432.540313 7.2 
L 75.420312 7.2 
z
" style="fill: #ffffff"/>
   </g>
   <g id="matplotlib.axis_1">
    <g id="xtick_1">
     <g id="line2d_1">
      <defs>
       <path id="m2bbc3c3503" d="M 0 0 
L 0 3.5 
" style="stroke: #000000; stroke-width: 0.8"/>
      </defs>
      <g>
       <use xlink:href="#m2bbc3c3503" x="91.65304" y="273.312" style="stroke: #000000; stroke-width: 0.8"/>
      </g>
     </g>
     <g id="text_1">
      <!-- 0 -->
      <g transform="translate(88.789915 287.150594) scale(0.09 -0.09)">
       <defs>
        <path id="DejaVuSans-30" d="M 2034 4250 
Q 1547 4250 1301 3770 
Q 1056 3291 1056 2328 
Q 1056 1369 1301 889 
Q 1547 409 2034 409 
Q 2525 409 2770 889 
Q 3016 1369 3016 2328 
Q 3016 3291 2770 3770 
Q 2525 4250 2034 4250 
z
M 2034 4750 
Q 2819 4750 3233 4129 
Q 3647 3509 3647 2328 
Q 3647 1150 3233 529 
Q 2819 -91 2034 -91 
Q 1250 -91 836 529 
Q 422 1150 422 2328 
Q 422 3509 836 4129 
Q 1250 4750 2034 4750 
z
" transform="scale(0.015625)"/>
       </defs>
       <use xlink:href="#DejaVuSans-30"/>
      </g>
     </g>
    </g>
    <g id="xtick_2">
     <g id="line2d_2">
      <g>
       <use xlink:href="#m2bbc3c3503" x="172.952175" y="273.312" style="stroke: #000000; stroke-width: 0.8"/>
      </g>
     </g>
     <g id="text_2">
      <!-- 30 -->
      <g transform="translate(167.225925 287.150594) scale(0.09 -0.09)">
       <defs>
        <path id="DejaVuSans-33" d="M 2597 2516 
Q 3050 2419 3304 2112 
Q 3559 1806 3559 1356 
Q 3559 666 3084 287 
Q 2609 -91 1734 -91 
Q 1441 -91 1130 -33 
Q 819 25 488 141 
L 488 750 
Q 750 597 1062 519 
Q 1375 441 1716 441 
Q 2309 441 2620 675 
Q 2931 909 2931 1356 
Q 2931 1769 2642 2001 
Q 2353 2234 1838 2234 
L 1294 2234 
L 1294 2753 
L 1863 2753 
Q 2328 2753 2575 2939 
Q 2822 3125 2822 3475 
Q 2822 3834 2567 4026 
Q 2313 4219 1838 4219 
Q 1578 4219 1281 4162 
Q 984 4106 628 3988 
L 628 4550 
Q 988 4650 1302 4700 
Q 1616 4750 1894 4750 
Q 2613 4750 3031 4423 
Q 3450 4097 3450 3541 
Q 3450 3153 3228 2886 
Q 3006 2619 2597 2516 
z
" transform="scale(0.015625)"/>
       </defs>
       <use xlink:href="#DejaVuSans-33"/>
       <use xlink:href="#DejaVuSans-30" transform="translate(63.623047 0)"/>
      </g>
     </g>
    </g>
    <g id="xtick_3">
     <g id="line2d_3">
      <g>
       <use xlink:href="#m2bbc3c3503" x="254.25131" y="273.312" style="stroke: #000000; stroke-width: 0.8"/>
      </g>
     </g>
     <g id="text_3">
      <!-- 60 -->
      <g transform="translate(248.52506 287.150594) scale(0.09 -0.09)">
       <defs>
        <path id="DejaVuSans-36" d="M 2113 2584 
Q 1688 2584 1439 2293 
Q 1191 2003 1191 1497 
Q 1191 994 1439 701 
Q 1688 409 2113 409 
Q 2538 409 2786 701 
Q 3034 994 3034 1497 
Q 3034 2003 2786 2293 
Q 2538 2584 2113 2584 
z
M 3366 4563 
L 3366 3988 
Q 3128 4100 2886 4159 
Q 2644 4219 2406 4219 
Q 1781 4219 1451 3797 
Q 1122 3375 1075 2522 
Q 1259 2794 1537 2939 
Q 1816 3084 2150 3084 
Q 2853 3084 3261 2657 
Q 3669 2231 3669 1497 
Q 3669 778 3244 343 
Q 2819 -91 2113 -91 
Q 1303 -91 875 529 
Q 447 1150 447 2328 
Q 447 3434 972 4092 
Q 1497 4750 2381 4750 
Q 2619 4750 2861 4703 
Q 3103 4656 3366 4563 
z
" transform="scale(0.015625)"/>
       </defs>
       <use xlink:href="#DejaVuSans-36"/>
       <use xlink:href="#DejaVuSans-30" transform="translate(63.623047 0)"/>
      </g>
     </g>
    </g>
    <g id="xtick_4">
     <g id="line2d_4">
      <g>
       <use xlink:href="#m2bbc3c3503" x="335.550445" y="273.312" style="stroke: #000000; stroke-width: 0.8"/>
      </g>
     </g>
     <g id="text_4">
      <!-- 90 -->
      <g transform="translate(329.824195 287.150594) scale(0.09 -0.09)">
       <defs>
        <path id="DejaVuSans-39" d="M 703 97 
L 703 672 
Q 941 559 1184 500 
Q 1428 441 1663 441 
Q 2288 441 2617 861 
Q 2947 1281 2994 2138 
Q 2813 1869 2534 1725 
Q 2256 1581 1919 1581 
Q 1219 1581 811 2004 
Q 403 2428 403 3163 
Q 403 3881 828 4315 
Q 1253 4750 1959 4750 
Q 2769 4750 3195 4129 
Q 3622 3509 3622 2328 
Q 3622 1225 3098 567 
Q 2575 -91 1691 -91 
Q 1453 -91 1209 -44 
Q 966 3 703 97 
z
M 1959 2075 
Q 2384 2075 2632 2365 
Q 2881 2656 2881 3163 
Q 2881 3666 2632 3958 
Q 2384 4250 1959 4250 
Q 1534 4250 1286 3958 
Q 1038 3666 1038 3163 
Q 1038 2656 1286 2365 
Q 1534 2075 1959 2075 
z
" transform="scale(0.015625)"/>
       </defs>
       <use xlink:href="#DejaVuSans-39"/>
       <use xlink:href="#DejaVuSans-30" transform="translate(63.623047 0)"/>
      </g>
     </g>
    </g>
    <g id="xtick_5">
     <g id="line2d_5">
      <g>
       <use xlink:href="#m2bbc3c3503" x="416.849579" y="273.312" style="stroke: #000000; stroke-width: 0.8"/>
      </g>
     </g>
     <g id="text_5">
      <!-- 120 -->
      <g transform="translate(408.260204 287.150594) scale(0.09 -0.09)">
       <defs>
        <path id="DejaVuSans-31" d="M 794 531 
L 1825 531 
L 1825 4091 
L 703 3866 
L 703 4441 
L 1819 4666 
L 2450 4666 
L 2450 531 
L 3481 531 
L 3481 0 
L 794 0 
L 794 531 
z
" transform="scale(0.015625)"/>
        <path id="DejaVuSans-32" d="M 1228 531 
L 3431 531 
L 3431 0 
L 469 0 
L 469 531 
Q 828 903 1448 1529 
Q 2069 2156 2228 2338 
Q 2531 2678 2651 2914 
Q 2772 3150 2772 3378 
Q 2772 3750 2511 3984 
Q 2250 4219 1831 4219 
Q 1534 4219 1204 4116 
Q 875 4013 500 3803 
L 500 4441 
Q 881 4594 1212 4672 
Q 1544 4750 1819 4750 
Q 2544 4750 2975 4387 
Q 3406 4025 3406 3419 
Q 3406 3131 3298 2873 
Q 3191 2616 2906 2266 
Q 2828 2175 2409 1742 
Q 1991 1309 1228 531 
z
" transform="scale(0.015625)"/>
       </defs>
       <use xlink:href="#DejaVuSans-31"/>
       <use xlink:href="#DejaVuSans-32" transform="translate(63.623047 0)"/>
       <use xlink:href="#DejaVuSans-30" transform="translate(127.246094 0)"/>
      </g>
     </g>
    </g>
    <g id="text_6">
     <!-- ORN rate (sp/s) -->
     <g transform="translate(219.371094 299.860906) scale(0.09 -0.09)">
      <defs>
       <path id="DejaVuSans-4f" d="M 2522 4238 
Q 1834 4238 1429 3725 
Q 1025 3213 1025 2328 
Q 1025 1447 1429 934 
Q 1834 422 2522 422 
Q 3209 422 3611 934 
Q 4013 1447 4013 2328 
Q 4013 3213 3611 3725 
Q 3209 4238 2522 4238 
z
M 2522 4750 
Q 3503 4750 4090 4092 
Q 4678 3434 4678 2328 
Q 4678 1225 4090 567 
Q 3503 -91 2522 -91 
Q 1538 -91 948 565 
Q 359 1222 359 2328 
Q 359 3434 948 4092 
Q 1538 4750 2522 4750 
z
" transform="scale(0.015625)"/>
       <path id="DejaVuSans-52" d="M 2841 2188 
Q 3044 2119 3236 1894 
Q 3428 1669 3622 1275 
L 4263 0 
L 3584 0 
L 2988 1197 
Q 2756 1666 2539 1819 
Q 2322 1972 1947 1972 
L 1259 1972 
L 1259 0 
L 628 0 
L 628 4666 
L 2053 4666 
Q 2853 4666 3247 4331 
Q 3641 3997 3641 3322 
Q 3641 2881 3436 2590 
Q 3231 2300 2841 2188 
z
M 1259 4147 
L 1259 2491 
L 2053 2491 
Q 2509 2491 2742 2702 
Q 2975 2913 2975 3322 
Q 2975 3731 2742 3939 
Q 2509 4147 2053 4147 
L 1259 4147 
z
" transform="scale(0.015625)"/>
       <path id="DejaVuSans-4e" d="M 628 4666 
L 1478 4666 
L 3547 763 
L 3547 4666 
L 4159 4666 
L 4159 0 
L 3309 0 
L 1241 3903 
L 1241 0 
L 628 0 
L 628 4666 
z
" transform="scale(0.015625)"/>
       <path id="DejaVuSans-20" transform="scale(0.015625)"/>
       <path id="DejaVuSans-72" d="M 2631 2963 
Q 2534 3019 2420 3045 
Q 2306 3072 2169 3072 
Q 1681 3072 1420 2755 
Q 1159 2438 1159 1844 
L 1159 0 
L 581 0 
L 581 3500 
L 1159 3500 
L 1159 2956 
Q 1341 3275 1631 3429 
Q 1922 3584 2338 3584 
Q 2397 3584 2469 3576 
Q 2541 3569 2628 3553 
L 2631 2963 
z
" transform="scale(0.015625)"/>
       <path id="DejaVuSans-61" d="M 2194 1759 
Q 1497 1759 1228 1600 
Q 959 1441 959 1056 
Q 959 750 1161 570 
Q 1363 391 1709 391 
Q 2188 391 2477 730 
Q 2766 1069 2766 1631 
L 2766 1759 
L 2194 1759 
z
M 3341 1997 
L 3341 0 
L 2766 0 
L 2766 531 
Q 2569 213 2275 61 
Q 1981 -91 1556 -91 
Q 1019 -91 701 211 
Q 384 513 384 1019 
Q 384 1609 779 1909 
Q 1175 2209 1959 2209 
L 2766 2209 
L 2766 2266 
Q 2766 2663 2505 2880 
Q 2244 3097 1772 3097 
Q 1472 3097 1187 3025 
Q 903 2953 641 2809 
L 641 3341 
Q 956 3463 1253 3523 
Q 1550 3584 1831 3584 
Q 2591 3584 2966 3190 
Q 3341 2797 3341 1997 
z
" transform="scale(0.015625)"/>
       <path id="DejaVuSans-74" d="M 1172 4494 
L 1172 3500 
L 2356 3500 
L 2356 3053 
L 1172 3053 
L 1172 1153 
Q 1172 725 1289 603 
Q 1406 481 1766 481 
L 2356 481 
L 2356 0 
L 1766 0 
Q 1100 0 847 248 
Q 594 497 594 1153 
L 594 3053 
L 172 3053 
L 172 3500 
L 594 3500 
L 594 4494 
L 1172 4494 
z
" transform="scale(0.015625)"/>
       <path id="DejaVuSans-65" d="M 3597 1894 
L 3597 1613 
L 953 1613 
Q 991 1019 1311 708 
Q 1631 397 2203 397 
Q 2534 397 2845 478 
Q 3156 559 3463 722 
L 3463 178 
Q 3153 47 2828 -22 
Q 2503 -91 2169 -91 
Q 1331 -91 842 396 
Q 353 884 353 1716 
Q 353 2575 817 3079 
Q 1281 3584 2069 3584 
Q 2775 3584 3186 3129 
Q 3597 2675 3597 1894 
z
M 3022 2063 
Q 3016 2534 2758 2815 
Q 2500 3097 2075 3097 
Q 1594 3097 1305 2825 
Q 1016 2553 972 2059 
L 3022 2063 
z
" transform="scale(0.015625)"/>
       <path id="DejaVuSans-28" d="M 1984 4856 
Q 1566 4138 1362 3434 
Q 1159 2731 1159 2009 
Q 1159 1288 1364 580 
Q 1569 -128 1984 -844 
L 1484 -844 
Q 1016 -109 783 600 
Q 550 1309 550 2009 
Q 550 2706 781 3412 
Q 1013 4119 1484 4856 
L 1984 4856 
z
" transform="scale(0.015625)"/>
       <path id="DejaVuSans-73" d="M 2834 3397 
L 2834 2853 
Q 2591 2978 2328 3040 
Q 2066 3103 1784 3103 
Q 1356 3103 1142 2972 
Q 928 2841 928 2578 
Q 928 2378 1081 2264 
Q 1234 2150 1697 2047 
L 1894 2003 
Q 2506 1872 2764 1633 
Q 3022 1394 3022 966 
Q 3022 478 2636 193 
Q 2250 -91 1575 -91 
Q 1294 -91 989 -36 
Q 684 19 347 128 
L 347 722 
Q 666 556 975 473 
Q 1284 391 1588 391 
Q 1994 391 2212 530 
Q 2431 669 2431 922 
Q 2431 1156 2273 1281 
Q 2116 1406 1581 1522 
L 1381 1569 
Q 847 1681 609 1914 
Q 372 2147 372 2553 
Q 372 3047 722 3315 
Q 1072 3584 1716 3584 
Q 2034 3584 2315 3537 
Q 2597 3491 2834 3397 
z
" transform="scale(0.015625)"/>
       <path id="DejaVuSans-70" d="M 1159 525 
L 1159 -1331 
L 581 -1331 
L 581 3500 
L 1159 3500 
L 1159 2969 
Q 1341 3281 1617 3432 
Q 1894 3584 2278 3584 
Q 2916 3584 3314 3078 
Q 3713 2572 3713 1747 
Q 3713 922 3314 415 
Q 2916 -91 2278 -91 
Q 1894 -91 1617 61 
Q 1341 213 1159 525 
z
M 3116 1747 
Q 3116 2381 2855 2742 
Q 2594 3103 2138 3103 
Q 1681 3103 1420 2742 
Q 1159 2381 1159 1747 
Q 1159 1113 1420 752 
Q 1681 391 2138 391 
Q 2594 391 2855 752 
Q 3116 1113 3116 1747 
z
" transform="scale(0.015625)"/>
       <path id="DejaVuSans-2f" d="M 1625 4666 
L 2156 4666 
L 531 -594 
L 0 -594 
L 1625 4666 
z
" transform="scale(0.015625)"/>
       <path id="DejaVuSans-29" d="M 513 4856 
L 1013 4856 
Q 1481 4119 1714 3412 
Q 1947 2706 1947 2009 
Q 1947 1309 1714 600 
Q 1481 -109 1013 -844 
L 513 -844 
Q 928 -128 1133 580 
Q 1338 1288 1338 2009 
Q 1338 2731 1133 3434 
Q 928 4138 513 4856 
z
" transform="scale(0.015625)"/>
      </defs>
      <use xlink:href="#DejaVuSans-4f"/>
      <use xlink:href="#DejaVuSans-52" transform="translate(78.710938 0)"/>
      <use xlink:href="#DejaVuSans-4e" transform="translate(148.193359 0)"/>
      <use xlink:href="#DejaVuSans-20" transform="translate(222.998047 0)"/>
      <use xlink:href="#DejaVuSans-72" transform="translate(254.785156 0)"/>
      <use xlink:href="#DejaVuSans-61" transform="translate(295.898438 0)"/>
      <use xlink:href="#DejaVuSans-74" transform="translate(357.177734 0)"/>
      <use xlink:href="#DejaVuSans-65" transform="translate(396.386719 0)"/>
      <use xlink:href="#DejaVuSans-20" transform="translate(457.910156 0)"/>
      <use xlink:href="#DejaVuSans-28" transform="translate(489.697266 0)"/>
      <use xlink:href="#DejaVuSans-73" transform="translate(528.710938 0)"/>
      <use xlink:href="#DejaVuSans-70" transform="translate(580.810547 0)"/>
      <use xlink:href="#DejaVuSans-2f" transform="translate(644.287109 0)"/>
      <use xlink:href="#DejaVuSans-73" transform="translate(677.978516 0)"/>
      <use xlink:href="#DejaVuSans-29" transform="translate(730.078125 0)"/>
     </g>
    </g>
   </g>
   <g id="matplotlib.axis_2">
    <g id="ytick_1">
     <g id="line2d_6">
      <defs>
       <path id="m6eaa1b959b" d="M 0 0 
L -3.5 0 
" style="stroke: #000000; stroke-width: 0.8"/>
      </defs>
      <g>
       <use xlink:href="#m6eaa1b959b" x="75.420312" y="261.216" style="stroke: #000000; stroke-width: 0.8"/>
      </g>
     </g>
     <g id="text_7">
      <!-- $0$ -->
      <g transform="translate(62.660312 264.635297) scale(0.09 -0.09)">
       <use xlink:href="#DejaVuSans-30" transform="translate(0 0.78125)"/>
      </g>
     </g>
    </g>
    <g id="ytick_2">
     <g id="line2d_7">
      <g>
       <use xlink:href="#m6eaa1b959b" x="75.420312" y="200.236461" style="stroke: #000000; stroke-width: 0.8"/>
      </g>
     </g>
     <g id="text_8">
      <!-- $R_{max}/4$ -->
      <g transform="translate(39.350312 203.655758) scale(0.09 -0.09)">
       <defs>
        <path id="DejaVuSans-Oblique-52" d="M 1613 4147 
L 1294 2491 
L 2106 2491 
Q 2584 2491 2879 2755 
Q 3175 3019 3175 3444 
Q 3175 3784 2976 3965 
Q 2778 4147 2406 4147 
L 1613 4147 
z
M 2772 2241 
Q 2972 2194 3105 2009 
Q 3238 1825 3413 1275 
L 3809 0 
L 3144 0 
L 2778 1197 
Q 2638 1659 2453 1815 
Q 2269 1972 1888 1972 
L 1191 1972 
L 806 0 
L 172 0 
L 1081 4666 
L 2503 4666 
Q 3150 4666 3495 4373 
Q 3841 4081 3841 3531 
Q 3841 3044 3547 2687 
Q 3253 2331 2772 2241 
z
" transform="scale(0.015625)"/>
        <path id="DejaVuSans-Oblique-6d" d="M 5747 2113 
L 5338 0 
L 4763 0 
L 5166 2094 
Q 5191 2228 5203 2325 
Q 5216 2422 5216 2491 
Q 5216 2772 5059 2928 
Q 4903 3084 4622 3084 
Q 4203 3084 3875 2770 
Q 3547 2456 3450 1953 
L 3066 0 
L 2491 0 
L 2900 2094 
Q 2925 2209 2937 2307 
Q 2950 2406 2950 2484 
Q 2950 2769 2794 2926 
Q 2638 3084 2363 3084 
Q 1938 3084 1609 2770 
Q 1281 2456 1184 1953 
L 800 0 
L 225 0 
L 909 3500 
L 1484 3500 
L 1375 2956 
Q 1609 3263 1923 3423 
Q 2238 3584 2597 3584 
Q 2978 3584 3223 3384 
Q 3469 3184 3519 2828 
Q 3781 3197 4126 3390 
Q 4472 3584 4856 3584 
Q 5306 3584 5551 3325 
Q 5797 3066 5797 2591 
Q 5797 2488 5784 2364 
Q 5772 2241 5747 2113 
z
" transform="scale(0.015625)"/>
        <path id="DejaVuSans-Oblique-61" d="M 3438 1997 
L 3047 0 
L 2472 0 
L 2578 531 
Q 2325 219 2001 64 
Q 1678 -91 1281 -91 
Q 834 -91 548 182 
Q 263 456 263 884 
Q 263 1497 752 1853 
Q 1241 2209 2100 2209 
L 2900 2209 
L 2931 2363 
Q 2938 2388 2941 2417 
Q 2944 2447 2944 2509 
Q 2944 2788 2717 2942 
Q 2491 3097 2081 3097 
Q 1800 3097 1504 3025 
Q 1209 2953 897 2809 
L 997 3341 
Q 1322 3463 1633 3523 
Q 1944 3584 2234 3584 
Q 2853 3584 3176 3315 
Q 3500 3047 3500 2534 
Q 3500 2431 3484 2292 
Q 3469 2153 3438 1997 
z
M 2816 1759 
L 2241 1759 
Q 1534 1759 1195 1570 
Q 856 1381 856 984 
Q 856 709 1029 553 
Q 1203 397 1509 397 
Q 1978 397 2328 733 
Q 2678 1069 2791 1631 
L 2816 1759 
z
" transform="scale(0.015625)"/>
        <path id="DejaVuSans-Oblique-78" d="M 3841 3500 
L 2234 1784 
L 3219 0 
L 2559 0 
L 1819 1388 
L 531 0 
L -166 0 
L 1556 1844 
L 641 3500 
L 1300 3500 
L 1972 2234 
L 3144 3500 
L 3841 3500 
z
" transform="scale(0.015625)"/>
        <path id="DejaVuSans-34" d="M 2419 4116 
L 825 1625 
L 2419 1625 
L 2419 4116 
z
M 2253 4666 
L 3047 4666 
L 3047 1625 
L 3713 1625 
L 3713 1100 
L 3047 1100 
L 3047 0 
L 2419 0 
L 2419 1100 
L 313 1100 
L 313 1709 
L 2253 4666 
z
" transform="scale(0.015625)"/>
       </defs>
       <use xlink:href="#DejaVuSans-Oblique-52" transform="translate(0 0.09375)"/>
       <use xlink:href="#DejaVuSans-Oblique-6d" transform="translate(69.482422 -16.3125) scale(0.7)"/>
       <use xlink:href="#DejaVuSans-Oblique-61" transform="translate(137.670898 -16.3125) scale(0.7)"/>
       <use xlink:href="#DejaVuSans-Oblique-78" transform="translate(180.566406 -16.3125) scale(0.7)"/>
       <use xlink:href="#DejaVuSans-2f" transform="translate(224.726562 0.09375)"/>
       <use xlink:href="#DejaVuSans-34" transform="translate(258.417969 0.09375)"/>
      </g>
     </g>
    </g>
    <g id="ytick_3">
     <g id="line2d_8">
      <g>
       <use xlink:href="#m6eaa1b959b" x="75.420312" y="139.256922" style="stroke: #000000; stroke-width: 0.8"/>
      </g>
     </g>
     <g id="text_9">
      <!-- $R_{max}/2$ -->
      <g transform="translate(39.710313 142.676219) scale(0.09 -0.09)">
       <use xlink:href="#DejaVuSans-Oblique-52" transform="translate(0 0.78125)"/>
       <use xlink:href="#DejaVuSans-Oblique-6d" transform="translate(69.482422 -15.625) scale(0.7)"/>
       <use xlink:href="#DejaVuSans-Oblique-61" transform="translate(137.670898 -15.625) scale(0.7)"/>
       <use xlink:href="#DejaVuSans-Oblique-78" transform="translate(180.566406 -15.625) scale(0.7)"/>
       <use xlink:href="#DejaVuSans-2f" transform="translate(224.726562 0.78125)"/>
       <use xlink:href="#DejaVuSans-32" transform="translate(254.792969 0.78125)"/>
      </g>
     </g>
    </g>
    <g id="ytick_4">
     <g id="line2d_9">
      <g>
       <use xlink:href="#m6eaa1b959b" x="75.420312" y="78.277383" style="stroke: #000000; stroke-width: 0.8"/>
      </g>
     </g>
     <g id="text_10">
      <!-- $3R_{max}/4$ -->
      <g transform="translate(33.680312 81.69668) scale(0.09 -0.09)">
       <use xlink:href="#DejaVuSans-33" transform="translate(0 0.78125)"/>
       <use xlink:href="#DejaVuSans-Oblique-52" transform="translate(63.623047 0.78125)"/>
       <use xlink:href="#DejaVuSans-Oblique-6d" transform="translate(133.105469 -15.625) scale(0.7)"/>
       <use xlink:href="#DejaVuSans-Oblique-61" transform="translate(201.293945 -15.625) scale(0.7)"/>
       <use xlink:href="#DejaVuSans-Oblique-78" transform="translate(244.189453 -15.625) scale(0.7)"/>
       <use xlink:href="#DejaVuSans-2f" transform="translate(288.349609 0.78125)"/>
       <use xlink:href="#DejaVuSans-34" transform="translate(322.041016 0.78125)"/>
      </g>
     </g>
    </g>
    <g id="ytick_5">
     <g id="line2d_10">
      <g>
       <use xlink:href="#m6eaa1b959b" x="75.420312" y="17.297844" style="stroke: #000000; stroke-width: 0.8"/>
      </g>
     </g>
     <g id="text_11">
      <!-- $R_{max}=165$ -->
      <g transform="translate(19.910312 20.717141) scale(0.09 -0.09)">
       <defs>
        <path id="DejaVuSans-3d" d="M 678 2906 
L 4684 2906 
L 4684 2381 
L 678 2381 
L 678 2906 
z
M 678 1631 
L 4684 1631 
L 4684 1100 
L 678 1100 
L 678 1631 
z
" transform="scale(0.015625)"/>
        <path id="DejaVuSans-35" d="M 691 4666 
L 3169 4666 
L 3169 4134 
L 1269 4134 
L 1269 2991 
Q 1406 3038 1543 3061 
Q 1681 3084 1819 3084 
Q 2600 3084 3056 2656 
Q 3513 2228 3513 1497 
Q 3513 744 3044 326 
Q 2575 -91 1722 -91 
Q 1428 -91 1123 -41 
Q 819 9 494 109 
L 494 744 
Q 775 591 1075 516 
Q 1375 441 1709 441 
Q 2250 441 2565 725 
Q 2881 1009 2881 1497 
Q 2881 1984 2565 2268 
Q 2250 2553 1709 2553 
Q 1456 2553 1204 2497 
Q 953 2441 691 2322 
L 691 4666 
z
" transform="scale(0.015625)"/>
       </defs>
       <use xlink:href="#DejaVuSans-Oblique-52" transform="translate(0 0.78125)"/>
       <use xlink:href="#DejaVuSans-Oblique-6d" transform="translate(69.482422 -15.625) scale(0.7)"/>
       <use xlink:href="#DejaVuSans-Oblique-61" transform="translate(137.670898 -15.625) scale(0.7)"/>
       <use xlink:href="#DejaVuSans-Oblique-78" transform="translate(180.566406 -15.625) scale(0.7)"/>
       <use xlink:href="#DejaVuSans-3d" transform="translate(244.208984 0.78125)"/>
       <use xlink:href="#DejaVuSans-31" transform="translate(347.480469 0.78125)"/>
       <use xlink:href="#DejaVuSans-36" transform="translate(411.103516 0.78125)"/>
       <use xlink:href="#DejaVuSans-35" transform="translate(474.726562 0.78125)"/>
      </g>
     </g>
    </g>
    <g id="text_12">
     <!-- PN rate(sp/s) -->
     <g transform="translate(14.038594 169.479281) rotate(-90) scale(0.09 -0.09)">
      <defs>
       <path id="DejaVuSans-50" d="M 1259 4147 
L 1259 2394 
L 2053 2394 
Q 2494 2394 2734 2622 
Q 2975 2850 2975 3272 
Q 2975 3691 2734 3919 
Q 2494 4147 2053 4147 
L 1259 4147 
z
M 628 4666 
L 2053 4666 
Q 2838 4666 3239 4311 
Q 3641 3956 3641 3272 
Q 3641 2581 3239 2228 
Q 2838 1875 2053 1875 
L 1259 1875 
L 1259 0 
L 628 0 
L 628 4666 
z
" transform="scale(0.015625)"/>
      </defs>
      <use xlink:href="#DejaVuSans-50"/>
      <use xlink:href="#DejaVuSans-4e" transform="translate(60.302734 0)"/>
      <use xlink:href="#DejaVuSans-20" transform="translate(135.107422 0)"/>
      <use xlink:href="#DejaVuSans-72" transform="translate(166.894531 0)"/>
      <use xlink:href="#DejaVuSans-61" transform="translate(208.007812 0)"/>
      <use xlink:href="#DejaVuSans-74" transform="translate(269.287109 0)"/>
      <use xlink:href="#DejaVuSans-65" transform="translate(308.496094 0)"/>
      <use xlink:href="#DejaVuSans-28" transform="translate(370.019531 0)"/>
      <use xlink:href="#DejaVuSans-73" transform="translate(409.033203 0)"/>
      <use xlink:href="#DejaVuSans-70" transform="translate(461.132812 0)"/>
      <use xlink:href="#DejaVuSans-2f" transform="translate(524.609375 0)"/>
      <use xlink:href="#DejaVuSans-73" transform="translate(558.300781 0)"/>
      <use xlink:href="#DejaVuSans-29" transform="translate(610.400391 0)"/>
     </g>
    </g>
   </g>
   <g id="line2d_11">
    <path d="M 91.65304 261.216 
L 92.737028 261.059928 
L 94.363011 260.600236 
L 96.530988 259.734251 
L 99.240959 258.357555 
L 101.95093 256.727295 
L 105.202896 254.504043 
L 108.996855 251.614454 
L 113.332809 248.004181 
L 118.210757 243.641779 
L 124.172694 237.997138 
L 131.760613 230.494583 
L 147.478446 214.542168 
L 159.944313 202.061738 
L 169.158215 193.146086 
L 177.830123 185.07222 
L 185.960036 177.81662 
L 193.547956 171.334022 
L 201.135875 165.136844 
L 208.723794 159.225357 
L 216.311713 153.595743 
L 223.899633 148.241237 
L 231.487552 143.153018 
L 239.075471 138.320898 
L 247.205385 133.415267 
L 255.335298 128.776818 
L 263.465212 124.39124 
L 272.137119 119.976026 
L 280.809027 115.815578 
L 289.480935 111.89372 
L 298.694837 107.970925 
L 307.908739 104.282572 
L 317.664635 100.614572 
L 327.962525 96.987961 
L 338.260416 93.593777 
L 349.1003 90.25213 
L 360.482179 86.977786 
L 372.406052 83.783217 
L 384.87192 80.678682 
L 397.879781 77.672349 
L 411.429637 74.77045 
L 416.307585 73.77884 
L 416.307585 73.77884 
" clip-path="url(#pfdac15ecbf)" style="fill: none; stroke: #888888; stroke-width: 1.5; stroke-linecap: square"/>
   </g>
   <g id="line2d_12">
    <path d="M 91.65304 261.216 
L 93.821017 261.048547 
L 97.072982 260.555423 
L 100.866942 259.756621 
L 105.202896 258.625557 
L 110.080844 257.13292 
L 115.500786 255.252113 
L 122.004717 252.743161 
L 129.050642 249.773825 
L 137.180555 246.090235 
L 146.394457 241.659648 
L 157.234342 236.196532 
L 171.868186 228.552956 
L 228.235586 198.848804 
L 243.411425 191.234296 
L 257.503275 184.403713 
L 271.053131 178.073997 
L 284.602987 171.988864 
L 298.152842 166.153443 
L 311.702698 160.568478 
L 325.252554 155.23141 
L 338.80241 150.137241 
L 352.352266 145.279218 
L 366.444116 140.468795 
L 380.535966 135.895268 
L 395.16981 131.385385 
L 409.803654 127.107745 
L 416.307585 125.277977 
L 416.307585 125.277977 
" clip-path="url(#pfdac15ecbf)" style="fill: none; stroke: #aaaaaa; stroke-width: 1.5; stroke-linecap: square"/>
   </g>
   <g id="line2d_13">
    <path d="M 91.65304 261.216 
L 92.195034 259.218097 
L 92.737028 255.648459 
L 93.821017 246.099499 
L 95.446999 228.857909 
L 99.240959 187.559504 
L 101.408936 166.878238 
L 103.034919 153.204249 
L 104.660901 141.05138 
L 106.286884 130.294164 
L 107.912867 120.783973 
L 109.538849 112.37144 
L 111.164832 104.917161 
L 112.790815 98.296027 
L 114.416798 92.39822 
L 116.584774 85.497095 
L 118.752751 79.524607 
L 120.920728 74.326398 
L 123.088705 69.776947 
L 125.256682 65.774004 
L 127.424659 62.233986 
L 129.592636 59.088262 
L 131.760613 56.280202 
L 134.470584 53.174165 
L 137.180555 50.44787 
L 139.890526 48.041042 
L 142.600498 45.904861 
L 145.852463 43.643113 
L 149.104428 41.658417 
L 152.898388 39.634291 
L 156.692348 37.871057 
L 161.028302 36.119253 
L 165.364255 34.599254 
L 170.242204 33.116521 
L 175.662146 31.699556 
L 181.624082 30.367461 
L 188.670007 29.037113 
L 196.257927 27.837414 
L 204.929834 26.696326 
L 214.685731 25.638364 
L 226.06761 24.63291 
L 239.075471 23.708778 
L 254.793304 22.825451 
L 273.221108 22.021538 
L 295.442871 21.282646 
L 322.542583 20.611348 
L 356.68822 19.998956 
L 400.047758 19.454676 
L 416.307585 19.296 
L 416.307585 19.296 
" clip-path="url(#pfdac15ecbf)" style="fill: none; stroke: #d9218f; stroke-width: 1.5; stroke-linecap: square"/>
   </g>
   <g id="line2d_14">
    <path d="M 91.65304 261.216 
L 92.195034 260.454217 
L 92.737028 259.073585 
L 93.821017 255.252113 
L 94.905005 250.479396 
L 96.530988 242.192566 
L 99.240959 226.829527 
L 105.202896 192.575271 
L 107.912867 178.322542 
L 110.622838 165.24305 
L 113.332809 153.369848 
L 116.04278 142.658938 
L 118.752751 133.027992 
L 121.462723 124.379079 
L 124.172694 116.611511 
L 126.882665 109.628705 
L 129.592636 103.341524 
L 132.302607 97.669569 
L 135.012578 92.541342 
L 137.72255 87.893811 
L 140.432521 83.671704 
L 143.142492 79.826688 
L 145.852463 76.316555 
L 149.104428 72.494886 
L 152.356394 69.04767 
L 155.608359 65.92809 
L 158.860325 63.096164 
L 162.654284 60.110415 
L 166.448244 57.423619 
L 170.242204 54.996938 
L 174.578157 52.500239 
L 178.914111 50.259447 
L 183.792059 48.001956 
L 188.670007 45.984528 
L 194.08995 43.983956 
L 200.051886 42.033068 
L 206.555817 40.15692 
L 213.601742 38.373378 
L 221.189661 36.69402 
L 229.319575 35.125181 
L 238.533477 33.584522 
L 248.289373 32.178238 
L 259.129258 30.836049 
L 271.595125 29.523147 
L 285.686975 28.274654 
L 301.404808 27.112944 
L 319.290618 26.019734 
L 339.886398 24.990609 
L 363.734145 24.028996 
L 391.375851 23.14143 
L 416.307585 22.495454 
L 416.307585 22.495454 
" clip-path="url(#pfdac15ecbf)" style="fill: none; stroke: #d48db3; stroke-width: 1.5; stroke-linecap: square"/>
   </g>
   <g id="patch_3">
    <path d="M 75.420312 273.312 
L 75.420312 7.2 
" style="fill: none; stroke: #000000; stroke-width: 0.8; stroke-linejoin: miter; stroke-linecap: square"/>
   </g>
   <g id="patch_4">
    <path d="M 75.420312 273.312 
L 432.540312 273.312 
" style="fill: none; stroke: #000000; stroke-width: 0.8; stroke-linejoin: miter; stroke-linecap: square"/>
   </g>
   <g id="legend_1">
    <g id="line2d_15">
     <path d="M 247.980312 226.352 
L 255.980312 226.352 
L 263.980312 226.352 
" style="fill: none; stroke: #888888; stroke-width: 1.5; stroke-linecap: square"/>
    </g>
    <g id="text_13">
     <!-- $CO_{2}$ + average background -->
     <g transform="translate(270.380313 229.152) scale(0.08 -0.08)">
      <defs>
       <path id="DejaVuSans-Oblique-43" d="M 4447 4306 
L 4319 3641 
Q 4019 3944 3683 4091 
Q 3347 4238 2956 4238 
Q 2422 4238 2017 3981 
Q 1613 3725 1319 3200 
Q 1131 2863 1032 2486 
Q 934 2109 934 1728 
Q 934 1091 1264 756 
Q 1594 422 2222 422 
Q 2656 422 3056 561 
Q 3456 700 3834 978 
L 3688 231 
Q 3316 72 2936 -9 
Q 2556 -91 2175 -91 
Q 1278 -91 773 396 
Q 269 884 269 1753 
Q 269 2309 461 2846 
Q 653 3384 1013 3828 
Q 1394 4300 1883 4525 
Q 2372 4750 3022 4750 
Q 3422 4750 3780 4639 
Q 4138 4528 4447 4306 
z
" transform="scale(0.015625)"/>
       <path id="DejaVuSans-Oblique-4f" d="M 2919 4238 
Q 2400 4238 2003 3986 
Q 1606 3734 1313 3219 
Q 1125 2891 1026 2522 
Q 928 2153 928 1778 
Q 928 1128 1239 775 
Q 1550 422 2119 422 
Q 2631 422 3032 676 
Q 3434 931 3719 1434 
Q 3909 1772 4009 2142 
Q 4109 2513 4109 2881 
Q 4109 3528 3796 3883 
Q 3484 4238 2919 4238 
z
M 2100 -91 
Q 1241 -91 748 418 
Q 256 928 256 1813 
Q 256 2319 448 2847 
Q 641 3375 978 3788 
Q 1375 4272 1862 4511 
Q 2350 4750 2938 4750 
Q 3794 4750 4287 4245 
Q 4781 3741 4781 2869 
Q 4781 2331 4593 1812 
Q 4406 1294 4056 872 
Q 3656 384 3173 146 
Q 2691 -91 2100 -91 
z
" transform="scale(0.015625)"/>
       <path id="DejaVuSans-2b" d="M 2944 4013 
L 2944 2272 
L 4684 2272 
L 4684 1741 
L 2944 1741 
L 2944 0 
L 2419 0 
L 2419 1741 
L 678 1741 
L 678 2272 
L 2419 2272 
L 2419 4013 
L 2944 4013 
z
" transform="scale(0.015625)"/>
       <path id="DejaVuSans-76" d="M 191 3500 
L 800 3500 
L 1894 563 
L 2988 3500 
L 3597 3500 
L 2284 0 
L 1503 0 
L 191 3500 
z
" transform="scale(0.015625)"/>
       <path id="DejaVuSans-67" d="M 2906 1791 
Q 2906 2416 2648 2759 
Q 2391 3103 1925 3103 
Q 1463 3103 1205 2759 
Q 947 2416 947 1791 
Q 947 1169 1205 825 
Q 1463 481 1925 481 
Q 2391 481 2648 825 
Q 2906 1169 2906 1791 
z
M 3481 434 
Q 3481 -459 3084 -895 
Q 2688 -1331 1869 -1331 
Q 1566 -1331 1297 -1286 
Q 1028 -1241 775 -1147 
L 775 -588 
Q 1028 -725 1275 -790 
Q 1522 -856 1778 -856 
Q 2344 -856 2625 -561 
Q 2906 -266 2906 331 
L 2906 616 
Q 2728 306 2450 153 
Q 2172 0 1784 0 
Q 1141 0 747 490 
Q 353 981 353 1791 
Q 353 2603 747 3093 
Q 1141 3584 1784 3584 
Q 2172 3584 2450 3431 
Q 2728 3278 2906 2969 
L 2906 3500 
L 3481 3500 
L 3481 434 
z
" transform="scale(0.015625)"/>
       <path id="DejaVuSans-62" d="M 3116 1747 
Q 3116 2381 2855 2742 
Q 2594 3103 2138 3103 
Q 1681 3103 1420 2742 
Q 1159 2381 1159 1747 
Q 1159 1113 1420 752 
Q 1681 391 2138 391 
Q 2594 391 2855 752 
Q 3116 1113 3116 1747 
z
M 1159 2969 
Q 1341 3281 1617 3432 
Q 1894 3584 2278 3584 
Q 2916 3584 3314 3078 
Q 3713 2572 3713 1747 
Q 3713 922 3314 415 
Q 2916 -91 2278 -91 
Q 1894 -91 1617 61 
Q 1341 213 1159 525 
L 1159 0 
L 581 0 
L 581 4863 
L 1159 4863 
L 1159 2969 
z
" transform="scale(0.015625)"/>
       <path id="DejaVuSans-63" d="M 3122 3366 
L 3122 2828 
Q 2878 2963 2633 3030 
Q 2388 3097 2138 3097 
Q 1578 3097 1268 2742 
Q 959 2388 959 1747 
Q 959 1106 1268 751 
Q 1578 397 2138 397 
Q 2388 397 2633 464 
Q 2878 531 3122 666 
L 3122 134 
Q 2881 22 2623 -34 
Q 2366 -91 2075 -91 
Q 1284 -91 818 406 
Q 353 903 353 1747 
Q 353 2603 823 3093 
Q 1294 3584 2113 3584 
Q 2378 3584 2631 3529 
Q 2884 3475 3122 3366 
z
" transform="scale(0.015625)"/>
       <path id="DejaVuSans-6b" d="M 581 4863 
L 1159 4863 
L 1159 1991 
L 2875 3500 
L 3609 3500 
L 1753 1863 
L 3688 0 
L 2938 0 
L 1159 1709 
L 1159 0 
L 581 0 
L 581 4863 
z
" transform="scale(0.015625)"/>
       <path id="DejaVuSans-6f" d="M 1959 3097 
Q 1497 3097 1228 2736 
Q 959 2375 959 1747 
Q 959 1119 1226 758 
Q 1494 397 1959 397 
Q 2419 397 2687 759 
Q 2956 1122 2956 1747 
Q 2956 2369 2687 2733 
Q 2419 3097 1959 3097 
z
M 1959 3584 
Q 2709 3584 3137 3096 
Q 3566 2609 3566 1747 
Q 3566 888 3137 398 
Q 2709 -91 1959 -91 
Q 1206 -91 779 398 
Q 353 888 353 1747 
Q 353 2609 779 3096 
Q 1206 3584 1959 3584 
z
" transform="scale(0.015625)"/>
       <path id="DejaVuSans-75" d="M 544 1381 
L 544 3500 
L 1119 3500 
L 1119 1403 
Q 1119 906 1312 657 
Q 1506 409 1894 409 
Q 2359 409 2629 706 
Q 2900 1003 2900 1516 
L 2900 3500 
L 3475 3500 
L 3475 0 
L 2900 0 
L 2900 538 
Q 2691 219 2414 64 
Q 2138 -91 1772 -91 
Q 1169 -91 856 284 
Q 544 659 544 1381 
z
M 1991 3584 
L 1991 3584 
z
" transform="scale(0.015625)"/>
       <path id="DejaVuSans-6e" d="M 3513 2113 
L 3513 0 
L 2938 0 
L 2938 2094 
Q 2938 2591 2744 2837 
Q 2550 3084 2163 3084 
Q 1697 3084 1428 2787 
Q 1159 2491 1159 1978 
L 1159 0 
L 581 0 
L 581 3500 
L 1159 3500 
L 1159 2956 
Q 1366 3272 1645 3428 
Q 1925 3584 2291 3584 
Q 2894 3584 3203 3211 
Q 3513 2838 3513 2113 
z
" transform="scale(0.015625)"/>
       <path id="DejaVuSans-64" d="M 2906 2969 
L 2906 4863 
L 3481 4863 
L 3481 0 
L 2906 0 
L 2906 525 
Q 2725 213 2448 61 
Q 2172 -91 1784 -91 
Q 1150 -91 751 415 
Q 353 922 353 1747 
Q 353 2572 751 3078 
Q 1150 3584 1784 3584 
Q 2172 3584 2448 3432 
Q 2725 3281 2906 2969 
z
M 947 1747 
Q 947 1113 1208 752 
Q 1469 391 1925 391 
Q 2381 391 2643 752 
Q 2906 1113 2906 1747 
Q 2906 2381 2643 2742 
Q 2381 3103 1925 3103 
Q 1469 3103 1208 2742 
Q 947 2381 947 1747 
z
" transform="scale(0.015625)"/>
      </defs>
      <use xlink:href="#DejaVuSans-Oblique-43" transform="translate(0 0.015625)"/>
      <use xlink:href="#DejaVuSans-Oblique-4f" transform="translate(69.824219 0.015625)"/>
      <use xlink:href="#DejaVuSans-32" transform="translate(148.535156 -16.390625) scale(0.7)"/>
      <use xlink:href="#DejaVuSans-20" transform="translate(195.805664 0.015625)"/>
      <use xlink:href="#DejaVuSans-2b" transform="translate(227.592773 0.015625)"/>
      <use xlink:href="#DejaVuSans-20" transform="translate(311.381836 0.015625)"/>
      <use xlink:href="#DejaVuSans-61" transform="translate(343.168945 0.015625)"/>
      <use xlink:href="#DejaVuSans-76" transform="translate(404.448242 0.015625)"/>
      <use xlink:href="#DejaVuSans-65" transform="translate(463.62793 0.015625)"/>
      <use xlink:href="#DejaVuSans-72" transform="translate(525.151367 0.015625)"/>
      <use xlink:href="#DejaVuSans-61" transform="translate(566.264648 0.015625)"/>
      <use xlink:href="#DejaVuSans-67" transform="translate(627.543945 0.015625)"/>
      <use xlink:href="#DejaVuSans-65" transform="translate(691.020508 0.015625)"/>
      <use xlink:href="#DejaVuSans-20" transform="translate(752.543945 0.015625)"/>
      <use xlink:href="#DejaVuSans-62" transform="translate(784.331055 0.015625)"/>
      <use xlink:href="#DejaVuSans-61" transform="translate(847.807617 0.015625)"/>
      <use xlink:href="#DejaVuSans-63" transform="translate(909.086914 0.015625)"/>
      <use xlink:href="#DejaVuSans-6b" transform="translate(964.067383 0.015625)"/>
      <use xlink:href="#DejaVuSans-67" transform="translate(1021.977539 0.015625)"/>
      <use xlink:href="#DejaVuSans-72" transform="translate(1085.454102 0.015625)"/>
      <use xlink:href="#DejaVuSans-6f" transform="translate(1126.567383 0.015625)"/>
      <use xlink:href="#DejaVuSans-75" transform="translate(1187.749023 0.015625)"/>
      <use xlink:href="#DejaVuSans-6e" transform="translate(1251.12793 0.015625)"/>
      <use xlink:href="#DejaVuSans-64" transform="translate(1314.506836 0.015625)"/>
     </g>
    </g>
    <g id="line2d_16">
     <path d="M 247.980312 238.112 
L 255.980312 238.112 
L 263.980312 238.112 
" style="fill: none; stroke: #aaaaaa; stroke-width: 1.5; stroke-linecap: square"/>
    </g>
    <g id="text_14">
     <!-- $CO_{2}$ + strong background -->
     <g transform="translate(270.380313 240.912) scale(0.08 -0.08)">
      <use xlink:href="#DejaVuSans-Oblique-43" transform="translate(0 0.015625)"/>
      <use xlink:href="#DejaVuSans-Oblique-4f" transform="translate(69.824219 0.015625)"/>
      <use xlink:href="#DejaVuSans-32" transform="translate(148.535156 -16.390625) scale(0.7)"/>
      <use xlink:href="#DejaVuSans-20" transform="translate(195.805664 0.015625)"/>
      <use xlink:href="#DejaVuSans-2b" transform="translate(227.592773 0.015625)"/>
      <use xlink:href="#DejaVuSans-20" transform="translate(311.381836 0.015625)"/>
      <use xlink:href="#DejaVuSans-73" transform="translate(343.168945 0.015625)"/>
      <use xlink:href="#DejaVuSans-74" transform="translate(395.268555 0.015625)"/>
      <use xlink:href="#DejaVuSans-72" transform="translate(434.477539 0.015625)"/>
      <use xlink:href="#DejaVuSans-6f" transform="translate(475.59082 0.015625)"/>
      <use xlink:href="#DejaVuSans-6e" transform="translate(536.772461 0.015625)"/>
      <use xlink:href="#DejaVuSans-67" transform="translate(600.151367 0.015625)"/>
      <use xlink:href="#DejaVuSans-20" transform="translate(663.62793 0.015625)"/>
      <use xlink:href="#DejaVuSans-62" transform="translate(695.415039 0.015625)"/>
      <use xlink:href="#DejaVuSans-61" transform="translate(758.891602 0.015625)"/>
      <use xlink:href="#DejaVuSans-63" transform="translate(820.170898 0.015625)"/>
      <use xlink:href="#DejaVuSans-6b" transform="translate(875.151367 0.015625)"/>
      <use xlink:href="#DejaVuSans-67" transform="translate(933.061523 0.015625)"/>
      <use xlink:href="#DejaVuSans-72" transform="translate(996.538086 0.015625)"/>
      <use xlink:href="#DejaVuSans-6f" transform="translate(1037.651367 0.015625)"/>
      <use xlink:href="#DejaVuSans-75" transform="translate(1098.833008 0.015625)"/>
      <use xlink:href="#DejaVuSans-6e" transform="translate(1162.211914 0.015625)"/>
      <use xlink:href="#DejaVuSans-64" transform="translate(1225.59082 0.015625)"/>
     </g>
    </g>
    <g id="line2d_17">
     <path d="M 247.980312 249.872 
L 255.980312 249.872 
L 263.980312 249.872 
" style="fill: none; stroke: #d9218f; stroke-width: 1.5; stroke-linecap: square"/>
    </g>
    <g id="text_15">
     <!-- reciprocal, $CO_{2}$ + average background -->
     <g transform="translate(270.380313 252.672) scale(0.08 -0.08)">
      <defs>
       <path id="DejaVuSans-69" d="M 603 3500 
L 1178 3500 
L 1178 0 
L 603 0 
L 603 3500 
z
M 603 4863 
L 1178 4863 
L 1178 4134 
L 603 4134 
L 603 4863 
z
" transform="scale(0.015625)"/>
       <path id="DejaVuSans-6c" d="M 603 4863 
L 1178 4863 
L 1178 0 
L 603 0 
L 603 4863 
z
" transform="scale(0.015625)"/>
       <path id="DejaVuSans-2c" d="M 750 794 
L 1409 794 
L 1409 256 
L 897 -744 
L 494 -744 
L 750 256 
L 750 794 
z
" transform="scale(0.015625)"/>
      </defs>
      <use xlink:href="#DejaVuSans-72" transform="translate(0 0.015625)"/>
      <use xlink:href="#DejaVuSans-65" transform="translate(41.113281 0.015625)"/>
      <use xlink:href="#DejaVuSans-63" transform="translate(102.636719 0.015625)"/>
      <use xlink:href="#DejaVuSans-69" transform="translate(157.617188 0.015625)"/>
      <use xlink:href="#DejaVuSans-70" transform="translate(185.400391 0.015625)"/>
      <use xlink:href="#DejaVuSans-72" transform="translate(248.876953 0.015625)"/>
      <use xlink:href="#DejaVuSans-6f" transform="translate(289.990234 0.015625)"/>
      <use xlink:href="#DejaVuSans-63" transform="translate(351.171875 0.015625)"/>
      <use xlink:href="#DejaVuSans-61" transform="translate(406.152344 0.015625)"/>
      <use xlink:href="#DejaVuSans-6c" transform="translate(467.431641 0.015625)"/>
      <use xlink:href="#DejaVuSans-2c" transform="translate(495.214844 0.015625)"/>
      <use xlink:href="#DejaVuSans-20" transform="translate(527.001953 0.015625)"/>
      <use xlink:href="#DejaVuSans-Oblique-43" transform="translate(558.789062 0.015625)"/>
      <use xlink:href="#DejaVuSans-Oblique-4f" transform="translate(628.613281 0.015625)"/>
      <use xlink:href="#DejaVuSans-32" transform="translate(707.324219 -16.390625) scale(0.7)"/>
      <use xlink:href="#DejaVuSans-20" transform="translate(754.594727 0.015625)"/>
      <use xlink:href="#DejaVuSans-2b" transform="translate(786.381836 0.015625)"/>
      <use xlink:href="#DejaVuSans-20" transform="translate(870.170898 0.015625)"/>
      <use xlink:href="#DejaVuSans-61" transform="translate(901.958008 0.015625)"/>
      <use xlink:href="#DejaVuSans-76" transform="translate(963.237305 0.015625)"/>
      <use xlink:href="#DejaVuSans-65" transform="translate(1022.416992 0.015625)"/>
      <use xlink:href="#DejaVuSans-72" transform="translate(1083.94043 0.015625)"/>
      <use xlink:href="#DejaVuSans-61" transform="translate(1125.053711 0.015625)"/>
      <use xlink:href="#DejaVuSans-67" transform="translate(1186.333008 0.015625)"/>
      <use xlink:href="#DejaVuSans-65" transform="translate(1249.80957 0.015625)"/>
      <use xlink:href="#DejaVuSans-20" transform="translate(1311.333008 0.015625)"/>
      <use xlink:href="#DejaVuSans-62" transform="translate(1343.120117 0.015625)"/>
      <use xlink:href="#DejaVuSans-61" transform="translate(1406.59668 0.015625)"/>
      <use xlink:href="#DejaVuSans-63" transform="translate(1467.875977 0.015625)"/>
      <use xlink:href="#DejaVuSans-6b" transform="translate(1522.856445 0.015625)"/>
      <use xlink:href="#DejaVuSans-67" transform="translate(1580.766602 0.015625)"/>
      <use xlink:href="#DejaVuSans-72" transform="translate(1644.243164 0.015625)"/>
      <use xlink:href="#DejaVuSans-6f" transform="translate(1685.356445 0.015625)"/>
      <use xlink:href="#DejaVuSans-75" transform="translate(1746.538086 0.015625)"/>
      <use xlink:href="#DejaVuSans-6e" transform="translate(1809.916992 0.015625)"/>
      <use xlink:href="#DejaVuSans-64" transform="translate(1873.295898 0.015625)"/>
     </g>
    </g>
    <g id="line2d_18">
     <path d="M 247.980312 261.632 
L 255.980312 261.632 
L 263.980312 261.632 
" style="fill: none; stroke: #d48db3; stroke-width: 1.5; stroke-linecap: square"/>
    </g>
    <g id="text_16">
     <!-- reciprocal, $CO_{2}$ + strong background -->
     <g transform="translate(270.380313 264.432) scale(0.08 -0.08)">
      <use xlink:href="#DejaVuSans-72" transform="translate(0 0.015625)"/>
      <use xlink:href="#DejaVuSans-65" transform="translate(41.113281 0.015625)"/>
      <use xlink:href="#DejaVuSans-63" transform="translate(102.636719 0.015625)"/>
      <use xlink:href="#DejaVuSans-69" transform="translate(157.617188 0.015625)"/>
      <use xlink:href="#DejaVuSans-70" transform="translate(185.400391 0.015625)"/>
      <use xlink:href="#DejaVuSans-72" transform="translate(248.876953 0.015625)"/>
      <use xlink:href="#DejaVuSans-6f" transform="translate(289.990234 0.015625)"/>
      <use xlink:href="#DejaVuSans-63" transform="translate(351.171875 0.015625)"/>
      <use xlink:href="#DejaVuSans-61" transform="translate(406.152344 0.015625)"/>
      <use xlink:href="#DejaVuSans-6c" transform="translate(467.431641 0.015625)"/>
      <use xlink:href="#DejaVuSans-2c" transform="translate(495.214844 0.015625)"/>
      <use xlink:href="#DejaVuSans-20" transform="translate(527.001953 0.015625)"/>
      <use xlink:href="#DejaVuSans-Oblique-43" transform="translate(558.789062 0.015625)"/>
      <use xlink:href="#DejaVuSans-Oblique-4f" transform="translate(628.613281 0.015625)"/>
      <use xlink:href="#DejaVuSans-32" transform="translate(707.324219 -16.390625) scale(0.7)"/>
      <use xlink:href="#DejaVuSans-20" transform="translate(754.594727 0.015625)"/>
      <use xlink:href="#DejaVuSans-2b" transform="translate(786.381836 0.015625)"/>
      <use xlink:href="#DejaVuSans-20" transform="translate(870.170898 0.015625)"/>
      <use xlink:href="#DejaVuSans-73" transform="translate(901.958008 0.015625)"/>
      <use xlink:href="#DejaVuSans-74" transform="translate(954.057617 0.015625)"/>
      <use xlink:href="#DejaVuSans-72" transform="translate(993.266602 0.015625)"/>
      <use xlink:href="#DejaVuSans-6f" transform="translate(1034.379883 0.015625)"/>
      <use xlink:href="#DejaVuSans-6e" transform="translate(1095.561523 0.015625)"/>
      <use xlink:href="#DejaVuSans-67" transform="translate(1158.94043 0.015625)"/>
      <use xlink:href="#DejaVuSans-20" transform="translate(1222.416992 0.015625)"/>
      <use xlink:href="#DejaVuSans-62" transform="translate(1254.204102 0.015625)"/>
      <use xlink:href="#DejaVuSans-61" transform="translate(1317.680664 0.015625)"/>
      <use xlink:href="#DejaVuSans-63" transform="translate(1378.959961 0.015625)"/>
      <use xlink:href="#DejaVuSans-6b" transform="translate(1433.94043 0.015625)"/>
      <use xlink:href="#DejaVuSans-67" transform="translate(1491.850586 0.015625)"/>
      <use xlink:href="#DejaVuSans-72" transform="translate(1555.327148 0.015625)"/>
      <use xlink:href="#DejaVuSans-6f" transform="translate(1596.44043 0.015625)"/>
      <use xlink:href="#DejaVuSans-75" transform="translate(1657.62207 0.015625)"/>
      <use xlink:href="#DejaVuSans-6e" transform="translate(1721.000977 0.015625)"/>
      <use xlink:href="#DejaVuSans-64" transform="translate(1784.379883 0.015625)"/>
     </g>
    </g>
   </g>
  </g>
 </g>
 <defs>
  <clipPath id="pfdac15ecbf">
   <rect x="75.420312" y="7.2" width="357.12" height="266.112"/>
  </clipPath>
 </defs>
</svg>
