<?xml version="1.0" encoding="utf-8" standalone="no"?>
<!DOCTYPE svg PUBLIC "-//W3C//DTD SVG 1.1//EN"
  "http://www.w3.org/Graphics/SVG/1.1/DTD/svg11.dtd">
<svg xmlns:xlink="http://www.w3.org/1999/xlink" width="432pt" height="288pt" viewBox="0 0 432 288" xmlns="http://www.w3.org/2000/svg" version="1.1">
 <metadata>
  <rdf:RDF xmlns:dc="http://purl.org/dc/elements/1.1/" xmlns:cc="http://creativecommons.org/ns#" xmlns:rdf="http://www.w3.org/1999/02/22-rdf-syntax-ns#">
   <cc:Work>
    <dc:type rdf:resource="http://purl.org/dc/dcmitype/StillImage"/>
    <dc:date>2024-01-28T08:33:47.561735</dc:date>
    <dc:format>image/svg+xml</dc:format>
    <dc:creator>
     <cc:Agent>
      <dc:title>Matplotlib v3.5.1, https://matplotlib.org/</dc:title>
     </cc:Agent>
    </dc:creator>
   </cc:Work>
  </rdf:RDF>
 </metadata>
 <defs>
  <style type="text/css">*{stroke-linejoin: round; stroke-linecap: butt}</style>
 </defs>
 <g id="figure_1">
  <g id="patch_1">
   <path d="M 0 288 
L 432 288 
L 432 0 
L 0 0 
L 0 288 
z
" style="fill: none"/>
  </g>
  <g id="axes_1">
   <g id="patch_2">
    <path d="M 174.805714 252 
L 267.994286 252 
L 267.994286 34.56 
L 174.805714 34.56 
z
" style="fill: #ffffff"/>
   </g>
   <g id="PolyCollection_1">
    <defs>
     <path id="m60a7f1513e" d="M 191.275649 -124.439177 
L 189.398637 -124.439177 
L 189.361392 -125.521315 
L 189.322825 -126.603453 
L 189.282797 -127.685592 
L 189.241165 -128.76773 
L 189.197791 -129.849868 
L 189.152541 -130.932006 
L 189.105289 -132.014144 
L 189.055922 -133.096282 
L 189.004343 -134.178421 
L 188.950474 -135.260559 
L 188.894262 -136.342697 
L 188.835677 -137.424835 
L 188.774721 -138.506973 
L 188.711427 -139.589111 
L 188.64586 -140.67125 
L 188.578122 -141.753388 
L 188.508348 -142.835526 
L 188.436712 -143.917664 
L 188.363422 -144.999802 
L 188.288719 -146.08194 
L 188.212879 -147.164079 
L 188.136206 -148.246217 
L 188.059032 -149.328355 
L 187.981713 -150.410493 
L 187.904621 -151.492631 
L 187.828147 -152.574769 
L 187.752689 -153.656908 
L 187.678649 -154.739046 
L 187.606429 -155.821184 
L 187.536425 -156.903322 
L 187.469022 -157.98546 
L 187.404587 -159.067598 
L 187.343465 -160.149737 
L 187.285978 -161.231875 
L 187.232415 -162.314013 
L 187.183032 -163.396151 
L 187.13805 -164.478289 
L 187.097649 -165.560427 
L 187.061969 -166.642566 
L 187.031111 -167.724704 
L 187.005132 -168.806842 
L 186.984048 -169.88898 
L 186.967835 -170.971118 
L 186.956433 -172.053256 
L 186.949744 -173.135395 
L 186.947637 -174.217533 
L 186.949952 -175.299671 
L 186.956501 -176.381809 
L 186.967078 -177.463947 
L 186.981453 -178.546085 
L 186.999385 -179.628224 
L 187.020625 -180.710362 
L 187.044913 -181.7925 
L 187.071991 -182.874638 
L 187.101601 -183.956776 
L 187.13349 -185.038914 
L 187.167413 -186.121053 
L 187.203135 -187.203191 
L 187.240436 -188.285329 
L 187.279109 -189.367467 
L 187.318963 -190.449605 
L 187.359823 -191.531743 
L 187.401535 -192.613882 
L 187.443959 -193.69602 
L 187.486975 -194.778158 
L 187.530479 -195.860296 
L 187.574383 -196.942434 
L 187.618616 -198.024572 
L 187.663118 -199.106711 
L 187.707845 -200.188849 
L 187.752764 -201.270987 
L 187.797849 -202.353125 
L 187.843087 -203.435263 
L 187.888468 -204.517401 
L 187.933991 -205.59954 
L 187.979658 -206.681678 
L 188.025475 -207.763816 
L 188.071448 -208.845954 
L 188.117589 -209.928092 
L 188.163905 -211.01023 
L 188.210408 -212.092369 
L 188.257104 -213.174507 
L 188.304001 -214.256645 
L 188.351104 -215.338783 
L 188.398417 -216.420921 
L 188.445938 -217.503059 
L 188.493666 -218.585198 
L 188.541595 -219.667336 
L 188.589716 -220.749474 
L 188.638016 -221.831612 
L 188.686478 -222.91375 
L 188.735084 -223.995888 
L 188.783807 -225.078027 
L 188.832621 -226.160165 
L 188.881491 -227.242303 
L 188.930381 -228.324441 
L 188.97925 -229.406579 
L 189.028051 -230.488717 
L 189.076733 -231.570856 
L 191.597553 -231.570856 
L 191.597553 -231.570856 
L 191.646235 -230.488717 
L 191.695036 -229.406579 
L 191.743904 -228.324441 
L 191.792795 -227.242303 
L 191.841665 -226.160165 
L 191.890479 -225.078027 
L 191.939202 -223.995888 
L 191.987807 -222.91375 
L 192.03627 -221.831612 
L 192.08457 -220.749474 
L 192.132691 -219.667336 
L 192.18062 -218.585198 
L 192.228348 -217.503059 
L 192.275869 -216.420921 
L 192.323181 -215.338783 
L 192.370285 -214.256645 
L 192.417182 -213.174507 
L 192.463878 -212.092369 
L 192.51038 -211.01023 
L 192.556697 -209.928092 
L 192.602837 -208.845954 
L 192.648811 -207.763816 
L 192.694628 -206.681678 
L 192.740295 -205.59954 
L 192.785818 -204.517401 
L 192.831199 -203.435263 
L 192.876437 -202.353125 
L 192.921522 -201.270987 
L 192.96644 -200.188849 
L 193.011168 -199.106711 
L 193.05567 -198.024572 
L 193.099902 -196.942434 
L 193.143807 -195.860296 
L 193.18731 -194.778158 
L 193.230326 -193.69602 
L 193.272751 -192.613882 
L 193.314462 -191.531743 
L 193.355323 -190.449605 
L 193.395177 -189.367467 
L 193.433849 -188.285329 
L 193.47115 -187.203191 
L 193.506873 -186.121053 
L 193.540796 -185.038914 
L 193.572685 -183.956776 
L 193.602295 -182.874638 
L 193.629373 -181.7925 
L 193.653661 -180.710362 
L 193.6749 -179.628224 
L 193.692833 -178.546085 
L 193.707208 -177.463947 
L 193.717784 -176.381809 
L 193.724334 -175.299671 
L 193.726649 -174.217533 
L 193.724542 -173.135395 
L 193.717852 -172.053256 
L 193.70645 -170.971118 
L 193.690238 -169.88898 
L 193.669154 -168.806842 
L 193.643175 -167.724704 
L 193.612316 -166.642566 
L 193.576637 -165.560427 
L 193.536236 -164.478289 
L 193.491254 -163.396151 
L 193.441871 -162.314013 
L 193.388308 -161.231875 
L 193.33082 -160.149737 
L 193.269699 -159.067598 
L 193.205264 -157.98546 
L 193.13786 -156.903322 
L 193.067857 -155.821184 
L 192.995637 -154.739046 
L 192.921597 -153.656908 
L 192.846138 -152.574769 
L 192.769664 -151.492631 
L 192.692573 -150.410493 
L 192.615254 -149.328355 
L 192.53808 -148.246217 
L 192.461407 -147.164079 
L 192.385567 -146.08194 
L 192.310864 -144.999802 
L 192.237573 -143.917664 
L 192.165937 -142.835526 
L 192.096164 -141.753388 
L 192.028425 -140.67125 
L 191.962858 -139.589111 
L 191.899564 -138.506973 
L 191.838609 -137.424835 
L 191.780024 -136.342697 
L 191.723812 -135.260559 
L 191.669943 -134.178421 
L 191.618364 -133.096282 
L 191.568997 -132.014144 
L 191.521745 -130.932006 
L 191.476495 -129.849868 
L 191.433121 -128.76773 
L 191.391489 -127.685592 
L 191.35146 -126.603453 
L 191.312893 -125.521315 
L 191.275649 -124.439177 
z
" style="stroke: #ee82ee; stroke-width: 1.5"/>
    </defs>
    <g clip-path="url(#p0a690828ec)">
     <use xlink:href="#m60a7f1513e" x="0" y="288" style="fill: #ffffff; stroke: #ee82ee; stroke-width: 1.5"/>
    </g>
   </g>
   <g id="PolyCollection_2">
    <defs>
     <path id="m2c3c0aa148" d="M 224.32089 -67.959904 
L 218.47911 -67.959904 
L 218.37539 -68.279205 
L 218.268232 -68.598506 
L 218.157119 -68.917808 
L 218.041513 -69.237109 
L 217.920867 -69.55641 
L 217.794633 -69.875712 
L 217.662273 -70.195013 
L 217.523273 -70.514314 
L 217.377152 -70.833615 
L 217.223478 -71.152917 
L 217.061873 -71.472218 
L 216.892029 -71.791519 
L 216.713719 -72.11082 
L 216.526801 -72.430122 
L 216.331231 -72.749423 
L 216.127067 -73.068724 
L 215.914474 -73.388025 
L 215.69373 -73.707327 
L 215.465224 -74.026628 
L 215.229457 -74.345929 
L 214.98704 -74.665231 
L 214.73869 -74.984532 
L 214.485224 -75.303833 
L 214.227552 -75.623134 
L 213.966668 -75.942436 
L 213.703637 -76.261737 
L 213.43959 -76.581038 
L 213.175707 -76.900339 
L 212.913202 -77.219641 
L 212.653319 -77.538942 
L 212.397308 -77.858243 
L 212.14642 -78.177544 
L 211.90189 -78.496846 
L 211.664926 -78.816147 
L 211.436698 -79.135448 
L 211.218325 -79.45475 
L 211.010869 -79.774051 
L 210.815324 -80.093352 
L 210.632607 -80.412653 
L 210.463557 -80.731955 
L 210.308924 -81.051256 
L 210.169368 -81.370557 
L 210.045453 -81.689858 
L 209.937651 -82.00916 
L 209.846334 -82.328461 
L 209.771775 -82.647762 
L 209.714152 -82.967063 
L 209.673544 -83.286365 
L 209.649935 -83.605666 
L 209.643215 -83.924967 
L 209.653181 -84.244268 
L 209.679541 -84.56357 
L 209.721917 -84.882871 
L 209.779846 -85.202172 
L 209.852787 -85.521474 
L 209.94012 -85.840775 
L 210.041155 -86.160076 
L 210.155137 -86.479377 
L 210.281246 -86.798679 
L 210.418609 -87.11798 
L 210.566305 -87.437281 
L 210.72337 -87.756582 
L 210.88881 -88.075884 
L 211.061603 -88.395185 
L 211.240715 -88.714486 
L 211.425105 -89.033787 
L 211.613738 -89.353089 
L 211.805595 -89.67239 
L 211.999682 -89.991691 
L 212.195042 -90.310993 
L 212.390767 -90.630294 
L 212.586003 -90.949595 
L 212.779967 -91.268896 
L 212.971946 -91.588198 
L 213.161315 -91.907499 
L 213.347532 -92.2268 
L 213.530153 -92.546101 
L 213.708829 -92.865403 
L 213.883309 -93.184704 
L 214.05344 -93.504005 
L 214.219168 -93.823306 
L 214.380529 -94.142608 
L 214.537648 -94.461909 
L 214.690731 -94.78121 
L 214.840058 -95.100512 
L 214.985969 -95.419813 
L 215.128861 -95.739114 
L 215.26917 -96.058415 
L 215.407362 -96.377717 
L 215.543922 -96.697018 
L 215.679339 -97.016319 
L 215.814096 -97.33562 
L 215.948657 -97.654922 
L 216.083459 -97.974223 
L 216.218899 -98.293524 
L 216.355327 -98.612825 
L 216.493038 -98.932127 
L 216.632267 -99.251428 
L 216.773183 -99.570729 
L 226.026817 -99.570729 
L 226.026817 -99.570729 
L 226.167733 -99.251428 
L 226.306962 -98.932127 
L 226.444673 -98.612825 
L 226.581101 -98.293524 
L 226.716541 -97.974223 
L 226.851343 -97.654922 
L 226.985904 -97.33562 
L 227.120661 -97.016319 
L 227.256078 -96.697018 
L 227.392638 -96.377717 
L 227.53083 -96.058415 
L 227.671139 -95.739114 
L 227.814031 -95.419813 
L 227.959942 -95.100512 
L 228.109269 -94.78121 
L 228.262352 -94.461909 
L 228.419471 -94.142608 
L 228.580832 -93.823306 
L 228.74656 -93.504005 
L 228.916691 -93.184704 
L 229.091171 -92.865403 
L 229.269847 -92.546101 
L 229.452468 -92.2268 
L 229.638685 -91.907499 
L 229.828054 -91.588198 
L 230.020033 -91.268896 
L 230.213997 -90.949595 
L 230.409233 -90.630294 
L 230.604958 -90.310993 
L 230.800318 -89.991691 
L 230.994405 -89.67239 
L 231.186262 -89.353089 
L 231.374895 -89.033787 
L 231.559285 -88.714486 
L 231.738397 -88.395185 
L 231.91119 -88.075884 
L 232.07663 -87.756582 
L 232.233695 -87.437281 
L 232.381391 -87.11798 
L 232.518754 -86.798679 
L 232.644863 -86.479377 
L 232.758845 -86.160076 
L 232.85988 -85.840775 
L 232.947213 -85.521474 
L 233.020154 -85.202172 
L 233.078083 -84.882871 
L 233.120459 -84.56357 
L 233.146819 -84.244268 
L 233.156785 -83.924967 
L 233.150065 -83.605666 
L 233.126456 -83.286365 
L 233.085848 -82.967063 
L 233.028225 -82.647762 
L 232.953666 -82.328461 
L 232.862349 -82.00916 
L 232.754547 -81.689858 
L 232.630632 -81.370557 
L 232.491076 -81.051256 
L 232.336443 -80.731955 
L 232.167393 -80.412653 
L 231.984676 -80.093352 
L 231.789131 -79.774051 
L 231.581675 -79.45475 
L 231.363302 -79.135448 
L 231.135074 -78.816147 
L 230.89811 -78.496846 
L 230.65358 -78.177544 
L 230.402692 -77.858243 
L 230.146681 -77.538942 
L 229.886798 -77.219641 
L 229.624293 -76.900339 
L 229.36041 -76.581038 
L 229.096363 -76.261737 
L 228.833332 -75.942436 
L 228.572448 -75.623134 
L 228.314776 -75.303833 
L 228.06131 -74.984532 
L 227.81296 -74.665231 
L 227.570543 -74.345929 
L 227.334776 -74.026628 
L 227.10627 -73.707327 
L 226.885526 -73.388025 
L 226.672933 -73.068724 
L 226.468769 -72.749423 
L 226.273199 -72.430122 
L 226.086281 -72.11082 
L 225.907971 -71.791519 
L 225.738127 -71.472218 
L 225.576522 -71.152917 
L 225.422848 -70.833615 
L 225.276727 -70.514314 
L 225.137727 -70.195013 
L 225.005367 -69.875712 
L 224.879133 -69.55641 
L 224.758487 -69.237109 
L 224.642881 -68.917808 
L 224.531768 -68.598506 
L 224.42461 -68.279205 
L 224.32089 -67.959904 
z
" style="stroke: #0000ff; stroke-width: 1.5"/>
    </defs>
    <g clip-path="url(#p0a690828ec)">
     <use xlink:href="#m2c3c0aa148" x="0" y="288" style="fill: #ffffff; stroke: #0000ff; stroke-width: 1.5"/>
    </g>
   </g>
   <g id="PolyCollection_3">
    <defs>
     <path id="m65593b1a7b" d="M 259.76367 -69.376722 
L 245.162044 -69.376722 
L 244.966566 -69.630624 
L 244.774275 -69.884526 
L 244.585245 -70.138428 
L 244.399508 -70.39233 
L 244.217066 -70.646232 
L 244.03789 -70.900134 
L 243.861926 -71.154036 
L 243.689098 -71.407938 
L 243.519319 -71.66184 
L 243.352489 -71.915742 
L 243.188506 -72.169644 
L 243.02727 -72.423546 
L 242.86869 -72.677448 
L 242.712689 -72.93135 
L 242.559207 -73.185252 
L 242.408213 -73.439154 
L 242.259699 -73.693055 
L 242.113695 -73.946957 
L 241.970264 -74.200859 
L 241.829508 -74.454761 
L 241.691571 -74.708663 
L 241.556637 -74.962565 
L 241.42493 -75.216467 
L 241.296718 -75.470369 
L 241.172306 -75.724271 
L 241.052034 -75.978173 
L 240.936279 -76.232075 
L 240.825446 -76.485977 
L 240.719965 -76.739879 
L 240.620286 -76.993781 
L 240.526874 -77.247683 
L 240.440202 -77.501585 
L 240.360746 -77.755487 
L 240.288979 -78.009389 
L 240.22536 -78.263291 
L 240.170335 -78.517193 
L 240.124326 -78.771095 
L 240.087722 -79.024997 
L 240.060883 -79.278899 
L 240.044123 -79.532801 
L 240.037714 -79.786703 
L 240.041878 -80.040605 
L 240.056783 -80.294507 
L 240.082542 -80.548409 
L 240.119207 -80.802311 
L 240.166774 -81.056212 
L 240.225174 -81.310114 
L 240.29428 -81.564016 
L 240.373904 -81.817918 
L 240.463799 -82.07182 
L 240.563662 -82.325722 
L 240.673135 -82.579624 
L 240.791812 -82.833526 
L 240.919239 -83.087428 
L 241.054919 -83.34133 
L 241.198321 -83.595232 
L 241.34888 -83.849134 
L 241.506006 -84.103036 
L 241.669089 -84.356938 
L 241.837503 -84.61084 
L 242.010616 -84.864742 
L 242.187791 -85.118644 
L 242.368397 -85.372546 
L 242.551809 -85.626448 
L 242.73742 -85.88035 
L 242.924641 -86.134252 
L 243.112906 -86.388154 
L 243.30168 -86.642056 
L 243.49046 -86.895958 
L 243.678779 -87.14986 
L 243.86621 -87.403762 
L 244.052365 -87.657664 
L 244.236902 -87.911566 
L 244.419521 -88.165468 
L 244.599968 -88.419369 
L 244.778035 -88.673271 
L 244.953557 -88.927173 
L 245.126412 -89.181075 
L 245.296522 -89.434977 
L 245.463847 -89.688879 
L 245.628385 -89.942781 
L 245.790169 -90.196683 
L 245.949263 -90.450585 
L 246.105759 -90.704487 
L 246.259773 -90.958389 
L 246.41144 -91.212291 
L 246.560914 -91.466193 
L 246.708358 -91.720095 
L 246.853945 -91.973997 
L 246.99785 -92.227899 
L 247.140249 -92.481801 
L 247.281315 -92.735703 
L 247.421212 -92.989605 
L 247.560093 -93.243507 
L 247.698097 -93.497409 
L 247.835347 -93.751311 
L 247.971947 -94.005213 
L 248.107979 -94.259115 
L 248.243505 -94.513017 
L 256.682209 -94.513017 
L 256.682209 -94.513017 
L 256.817735 -94.259115 
L 256.953768 -94.005213 
L 257.090368 -93.751311 
L 257.227618 -93.497409 
L 257.365622 -93.243507 
L 257.504502 -92.989605 
L 257.644399 -92.735703 
L 257.785465 -92.481801 
L 257.927865 -92.227899 
L 258.07177 -91.973997 
L 258.217356 -91.720095 
L 258.3648 -91.466193 
L 258.514274 -91.212291 
L 258.665941 -90.958389 
L 258.819955 -90.704487 
L 258.976451 -90.450585 
L 259.135545 -90.196683 
L 259.297329 -89.942781 
L 259.461867 -89.688879 
L 259.629192 -89.434977 
L 259.799302 -89.181075 
L 259.972158 -88.927173 
L 260.147679 -88.673271 
L 260.325746 -88.419369 
L 260.506194 -88.165468 
L 260.688813 -87.911566 
L 260.873349 -87.657664 
L 261.059505 -87.403762 
L 261.246935 -87.14986 
L 261.435254 -86.895958 
L 261.624034 -86.642056 
L 261.812808 -86.388154 
L 262.001074 -86.134252 
L 262.188294 -85.88035 
L 262.373905 -85.626448 
L 262.557318 -85.372546 
L 262.737923 -85.118644 
L 262.915099 -84.864742 
L 263.088211 -84.61084 
L 263.256626 -84.356938 
L 263.419708 -84.103036 
L 263.576834 -83.849134 
L 263.727394 -83.595232 
L 263.870795 -83.34133 
L 264.006476 -83.087428 
L 264.133902 -82.833526 
L 264.252579 -82.579624 
L 264.362052 -82.325722 
L 264.461915 -82.07182 
L 264.55181 -81.817918 
L 264.631434 -81.564016 
L 264.70054 -81.310114 
L 264.75894 -81.056212 
L 264.806507 -80.802311 
L 264.843172 -80.548409 
L 264.868931 -80.294507 
L 264.883836 -80.040605 
L 264.888 -79.786703 
L 264.881591 -79.532801 
L 264.864832 -79.278899 
L 264.837992 -79.024997 
L 264.801389 -78.771095 
L 264.755379 -78.517193 
L 264.700354 -78.263291 
L 264.636736 -78.009389 
L 264.564968 -77.755487 
L 264.485512 -77.501585 
L 264.398841 -77.247683 
L 264.305428 -76.993781 
L 264.205749 -76.739879 
L 264.100268 -76.485977 
L 263.989435 -76.232075 
L 263.87368 -75.978173 
L 263.753409 -75.724271 
L 263.628996 -75.470369 
L 263.500784 -75.216467 
L 263.369077 -74.962565 
L 263.234143 -74.708663 
L 263.096206 -74.454761 
L 262.955451 -74.200859 
L 262.812019 -73.946957 
L 262.666015 -73.693055 
L 262.517502 -73.439154 
L 262.366507 -73.185252 
L 262.213026 -72.93135 
L 262.057024 -72.677448 
L 261.898444 -72.423546 
L 261.737209 -72.169644 
L 261.573225 -71.915742 
L 261.406395 -71.66184 
L 261.236616 -71.407938 
L 261.063789 -71.154036 
L 260.887824 -70.900134 
L 260.708648 -70.646232 
L 260.526206 -70.39233 
L 260.340469 -70.138428 
L 260.151439 -69.884526 
L 259.959149 -69.630624 
L 259.76367 -69.376722 
z
" style="stroke: #00fa9a; stroke-width: 1.5"/>
    </defs>
    <g clip-path="url(#p0a690828ec)">
     <use xlink:href="#m65593b1a7b" x="0" y="288" style="fill: #ffffff; stroke: #00fa9a; stroke-width: 1.5"/>
    </g>
   </g>
   <g id="matplotlib.axis_1">
    <g id="xtick_1">
     <g id="text_1">
      <!-- 1 -->
      <g transform="translate(187.155893 266.598437)scale(0.1 -0.1)">
       <defs>
        <path id="DejaVuSans-31" d="M 794 531 
L 1825 531 
L 1825 4091 
L 703 3866 
L 703 4441 
L 1819 4666 
L 2450 4666 
L 2450 531 
L 3481 531 
L 3481 0 
L 794 0 
L 794 531 
z
" transform="scale(0.015625)"/>
       </defs>
       <use xlink:href="#DejaVuSans-31"/>
      </g>
     </g>
    </g>
    <g id="xtick_2">
     <g id="text_2">
      <!-- 2 -->
      <g transform="translate(218.21875 266.598437)scale(0.1 -0.1)">
       <defs>
        <path id="DejaVuSans-32" d="M 1228 531 
L 3431 531 
L 3431 0 
L 469 0 
L 469 531 
Q 828 903 1448 1529 
Q 2069 2156 2228 2338 
Q 2531 2678 2651 2914 
Q 2772 3150 2772 3378 
Q 2772 3750 2511 3984 
Q 2250 4219 1831 4219 
Q 1534 4219 1204 4116 
Q 875 4013 500 3803 
L 500 4441 
Q 881 4594 1212 4672 
Q 1544 4750 1819 4750 
Q 2544 4750 2975 4387 
Q 3406 4025 3406 3419 
Q 3406 3131 3298 2873 
Q 3191 2616 2906 2266 
Q 2828 2175 2409 1742 
Q 1991 1309 1228 531 
z
" transform="scale(0.015625)"/>
       </defs>
       <use xlink:href="#DejaVuSans-32"/>
      </g>
     </g>
    </g>
    <g id="xtick_3">
     <g id="text_3">
      <!-- 3 -->
      <g transform="translate(249.281607 266.598437)scale(0.1 -0.1)">
       <defs>
        <path id="DejaVuSans-33" d="M 2597 2516 
Q 3050 2419 3304 2112 
Q 3559 1806 3559 1356 
Q 3559 666 3084 287 
Q 2609 -91 1734 -91 
Q 1441 -91 1130 -33 
Q 819 25 488 141 
L 488 750 
Q 750 597 1062 519 
Q 1375 441 1716 441 
Q 2309 441 2620 675 
Q 2931 909 2931 1356 
Q 2931 1769 2642 2001 
Q 2353 2234 1838 2234 
L 1294 2234 
L 1294 2753 
L 1863 2753 
Q 2328 2753 2575 2939 
Q 2822 3125 2822 3475 
Q 2822 3834 2567 4026 
Q 2313 4219 1838 4219 
Q 1578 4219 1281 4162 
Q 984 4106 628 3988 
L 628 4550 
Q 988 4650 1302 4700 
Q 1616 4750 1894 4750 
Q 2613 4750 3031 4423 
Q 3450 4097 3450 3541 
Q 3450 3153 3228 2886 
Q 3006 2619 2597 2516 
z
" transform="scale(0.015625)"/>
       </defs>
       <use xlink:href="#DejaVuSans-33"/>
      </g>
     </g>
    </g>
    <g id="text_4">
     <!-- Glomerulus -->
     <g transform="translate(187.0125 281.79625)scale(0.12 -0.12)">
      <defs>
       <path id="DejaVuSans-47" d="M 3809 666 
L 3809 1919 
L 2778 1919 
L 2778 2438 
L 4434 2438 
L 4434 434 
Q 4069 175 3628 42 
Q 3188 -91 2688 -91 
Q 1594 -91 976 548 
Q 359 1188 359 2328 
Q 359 3472 976 4111 
Q 1594 4750 2688 4750 
Q 3144 4750 3555 4637 
Q 3966 4525 4313 4306 
L 4313 3634 
Q 3963 3931 3569 4081 
Q 3175 4231 2741 4231 
Q 1884 4231 1454 3753 
Q 1025 3275 1025 2328 
Q 1025 1384 1454 906 
Q 1884 428 2741 428 
Q 3075 428 3337 486 
Q 3600 544 3809 666 
z
" transform="scale(0.015625)"/>
       <path id="DejaVuSans-6c" d="M 603 4863 
L 1178 4863 
L 1178 0 
L 603 0 
L 603 4863 
z
" transform="scale(0.015625)"/>
       <path id="DejaVuSans-6f" d="M 1959 3097 
Q 1497 3097 1228 2736 
Q 959 2375 959 1747 
Q 959 1119 1226 758 
Q 1494 397 1959 397 
Q 2419 397 2687 759 
Q 2956 1122 2956 1747 
Q 2956 2369 2687 2733 
Q 2419 3097 1959 3097 
z
M 1959 3584 
Q 2709 3584 3137 3096 
Q 3566 2609 3566 1747 
Q 3566 888 3137 398 
Q 2709 -91 1959 -91 
Q 1206 -91 779 398 
Q 353 888 353 1747 
Q 353 2609 779 3096 
Q 1206 3584 1959 3584 
z
" transform="scale(0.015625)"/>
       <path id="DejaVuSans-6d" d="M 3328 2828 
Q 3544 3216 3844 3400 
Q 4144 3584 4550 3584 
Q 5097 3584 5394 3201 
Q 5691 2819 5691 2113 
L 5691 0 
L 5113 0 
L 5113 2094 
Q 5113 2597 4934 2840 
Q 4756 3084 4391 3084 
Q 3944 3084 3684 2787 
Q 3425 2491 3425 1978 
L 3425 0 
L 2847 0 
L 2847 2094 
Q 2847 2600 2669 2842 
Q 2491 3084 2119 3084 
Q 1678 3084 1418 2786 
Q 1159 2488 1159 1978 
L 1159 0 
L 581 0 
L 581 3500 
L 1159 3500 
L 1159 2956 
Q 1356 3278 1631 3431 
Q 1906 3584 2284 3584 
Q 2666 3584 2933 3390 
Q 3200 3197 3328 2828 
z
" transform="scale(0.015625)"/>
       <path id="DejaVuSans-65" d="M 3597 1894 
L 3597 1613 
L 953 1613 
Q 991 1019 1311 708 
Q 1631 397 2203 397 
Q 2534 397 2845 478 
Q 3156 559 3463 722 
L 3463 178 
Q 3153 47 2828 -22 
Q 2503 -91 2169 -91 
Q 1331 -91 842 396 
Q 353 884 353 1716 
Q 353 2575 817 3079 
Q 1281 3584 2069 3584 
Q 2775 3584 3186 3129 
Q 3597 2675 3597 1894 
z
M 3022 2063 
Q 3016 2534 2758 2815 
Q 2500 3097 2075 3097 
Q 1594 3097 1305 2825 
Q 1016 2553 972 2059 
L 3022 2063 
z
" transform="scale(0.015625)"/>
       <path id="DejaVuSans-72" d="M 2631 2963 
Q 2534 3019 2420 3045 
Q 2306 3072 2169 3072 
Q 1681 3072 1420 2755 
Q 1159 2438 1159 1844 
L 1159 0 
L 581 0 
L 581 3500 
L 1159 3500 
L 1159 2956 
Q 1341 3275 1631 3429 
Q 1922 3584 2338 3584 
Q 2397 3584 2469 3576 
Q 2541 3569 2628 3553 
L 2631 2963 
z
" transform="scale(0.015625)"/>
       <path id="DejaVuSans-75" d="M 544 1381 
L 544 3500 
L 1119 3500 
L 1119 1403 
Q 1119 906 1312 657 
Q 1506 409 1894 409 
Q 2359 409 2629 706 
Q 2900 1003 2900 1516 
L 2900 3500 
L 3475 3500 
L 3475 0 
L 2900 0 
L 2900 538 
Q 2691 219 2414 64 
Q 2138 -91 1772 -91 
Q 1169 -91 856 284 
Q 544 659 544 1381 
z
M 1991 3584 
L 1991 3584 
z
" transform="scale(0.015625)"/>
       <path id="DejaVuSans-73" d="M 2834 3397 
L 2834 2853 
Q 2591 2978 2328 3040 
Q 2066 3103 1784 3103 
Q 1356 3103 1142 2972 
Q 928 2841 928 2578 
Q 928 2378 1081 2264 
Q 1234 2150 1697 2047 
L 1894 2003 
Q 2506 1872 2764 1633 
Q 3022 1394 3022 966 
Q 3022 478 2636 193 
Q 2250 -91 1575 -91 
Q 1294 -91 989 -36 
Q 684 19 347 128 
L 347 722 
Q 666 556 975 473 
Q 1284 391 1588 391 
Q 1994 391 2212 530 
Q 2431 669 2431 922 
Q 2431 1156 2273 1281 
Q 2116 1406 1581 1522 
L 1381 1569 
Q 847 1681 609 1914 
Q 372 2147 372 2553 
Q 372 3047 722 3315 
Q 1072 3584 1716 3584 
Q 2034 3584 2315 3537 
Q 2597 3491 2834 3397 
z
" transform="scale(0.015625)"/>
      </defs>
      <use xlink:href="#DejaVuSans-47"/>
      <use xlink:href="#DejaVuSans-6c" x="77.490234"/>
      <use xlink:href="#DejaVuSans-6f" x="105.273438"/>
      <use xlink:href="#DejaVuSans-6d" x="166.455078"/>
      <use xlink:href="#DejaVuSans-65" x="263.867188"/>
      <use xlink:href="#DejaVuSans-72" x="325.390625"/>
      <use xlink:href="#DejaVuSans-75" x="366.503906"/>
      <use xlink:href="#DejaVuSans-6c" x="429.882812"/>
      <use xlink:href="#DejaVuSans-75" x="457.666016"/>
      <use xlink:href="#DejaVuSans-73" x="521.044922"/>
     </g>
    </g>
   </g>
   <g id="matplotlib.axis_2">
    <g id="ytick_1">
     <g id="line2d_1">
      <defs>
       <path id="m2c506df8fd" d="M 0 0 
L -3.5 0 
" style="stroke: #000000; stroke-width: 0.8"/>
      </defs>
      <g>
       <use xlink:href="#m2c506df8fd" x="174.805714" y="252" style="stroke: #000000; stroke-width: 0.8"/>
      </g>
     </g>
     <g id="text_5">
      <!-- 0 -->
      <g transform="translate(161.443214 255.799219)scale(0.1 -0.1)">
       <defs>
        <path id="DejaVuSans-30" d="M 2034 4250 
Q 1547 4250 1301 3770 
Q 1056 3291 1056 2328 
Q 1056 1369 1301 889 
Q 1547 409 2034 409 
Q 2525 409 2770 889 
Q 3016 1369 3016 2328 
Q 3016 3291 2770 3770 
Q 2525 4250 2034 4250 
z
M 2034 4750 
Q 2819 4750 3233 4129 
Q 3647 3509 3647 2328 
Q 3647 1150 3233 529 
Q 2819 -91 2034 -91 
Q 1250 -91 836 529 
Q 422 1150 422 2328 
Q 422 3509 836 4129 
Q 1250 4750 2034 4750 
z
" transform="scale(0.015625)"/>
       </defs>
       <use xlink:href="#DejaVuSans-30"/>
      </g>
     </g>
    </g>
    <g id="ytick_2">
     <g id="line2d_2">
      <g>
       <use xlink:href="#m2c506df8fd" x="174.805714" y="220.937143" style="stroke: #000000; stroke-width: 0.8"/>
      </g>
     </g>
     <g id="text_6">
      <!-- 100 -->
      <g transform="translate(148.718214 224.736362)scale(0.1 -0.1)">
       <use xlink:href="#DejaVuSans-31"/>
       <use xlink:href="#DejaVuSans-30" x="63.623047"/>
       <use xlink:href="#DejaVuSans-30" x="127.246094"/>
      </g>
     </g>
    </g>
    <g id="ytick_3">
     <g id="line2d_3">
      <g>
       <use xlink:href="#m2c506df8fd" x="174.805714" y="189.874286" style="stroke: #000000; stroke-width: 0.8"/>
      </g>
     </g>
     <g id="text_7">
      <!-- 200 -->
      <g transform="translate(148.718214 193.673504)scale(0.1 -0.1)">
       <use xlink:href="#DejaVuSans-32"/>
       <use xlink:href="#DejaVuSans-30" x="63.623047"/>
       <use xlink:href="#DejaVuSans-30" x="127.246094"/>
      </g>
     </g>
    </g>
    <g id="ytick_4">
     <g id="line2d_4">
      <g>
       <use xlink:href="#m2c506df8fd" x="174.805714" y="158.811429" style="stroke: #000000; stroke-width: 0.8"/>
      </g>
     </g>
     <g id="text_8">
      <!-- 300 -->
      <g transform="translate(148.718214 162.610647)scale(0.1 -0.1)">
       <use xlink:href="#DejaVuSans-33"/>
       <use xlink:href="#DejaVuSans-30" x="63.623047"/>
       <use xlink:href="#DejaVuSans-30" x="127.246094"/>
      </g>
     </g>
    </g>
    <g id="ytick_5">
     <g id="line2d_5">
      <g>
       <use xlink:href="#m2c506df8fd" x="174.805714" y="127.748571" style="stroke: #000000; stroke-width: 0.8"/>
      </g>
     </g>
     <g id="text_9">
      <!-- 400 -->
      <g transform="translate(148.718214 131.54779)scale(0.1 -0.1)">
       <defs>
        <path id="DejaVuSans-34" d="M 2419 4116 
L 825 1625 
L 2419 1625 
L 2419 4116 
z
M 2253 4666 
L 3047 4666 
L 3047 1625 
L 3713 1625 
L 3713 1100 
L 3047 1100 
L 3047 0 
L 2419 0 
L 2419 1100 
L 313 1100 
L 313 1709 
L 2253 4666 
z
" transform="scale(0.015625)"/>
       </defs>
       <use xlink:href="#DejaVuSans-34"/>
       <use xlink:href="#DejaVuSans-30" x="63.623047"/>
       <use xlink:href="#DejaVuSans-30" x="127.246094"/>
      </g>
     </g>
    </g>
    <g id="ytick_6">
     <g id="line2d_6">
      <g>
       <use xlink:href="#m2c506df8fd" x="174.805714" y="96.685714" style="stroke: #000000; stroke-width: 0.8"/>
      </g>
     </g>
     <g id="text_10">
      <!-- 500 -->
      <g transform="translate(148.718214 100.484933)scale(0.1 -0.1)">
       <defs>
        <path id="DejaVuSans-35" d="M 691 4666 
L 3169 4666 
L 3169 4134 
L 1269 4134 
L 1269 2991 
Q 1406 3038 1543 3061 
Q 1681 3084 1819 3084 
Q 2600 3084 3056 2656 
Q 3513 2228 3513 1497 
Q 3513 744 3044 326 
Q 2575 -91 1722 -91 
Q 1428 -91 1123 -41 
Q 819 9 494 109 
L 494 744 
Q 775 591 1075 516 
Q 1375 441 1709 441 
Q 2250 441 2565 725 
Q 2881 1009 2881 1497 
Q 2881 1984 2565 2268 
Q 2250 2553 1709 2553 
Q 1456 2553 1204 2497 
Q 953 2441 691 2322 
L 691 4666 
z
" transform="scale(0.015625)"/>
       </defs>
       <use xlink:href="#DejaVuSans-35"/>
       <use xlink:href="#DejaVuSans-30" x="63.623047"/>
       <use xlink:href="#DejaVuSans-30" x="127.246094"/>
      </g>
     </g>
    </g>
    <g id="ytick_7">
     <g id="line2d_7">
      <g>
       <use xlink:href="#m2c506df8fd" x="174.805714" y="65.622857" style="stroke: #000000; stroke-width: 0.8"/>
      </g>
     </g>
     <g id="text_11">
      <!-- 600 -->
      <g transform="translate(148.718214 69.422076)scale(0.1 -0.1)">
       <defs>
        <path id="DejaVuSans-36" d="M 2113 2584 
Q 1688 2584 1439 2293 
Q 1191 2003 1191 1497 
Q 1191 994 1439 701 
Q 1688 409 2113 409 
Q 2538 409 2786 701 
Q 3034 994 3034 1497 
Q 3034 2003 2786 2293 
Q 2538 2584 2113 2584 
z
M 3366 4563 
L 3366 3988 
Q 3128 4100 2886 4159 
Q 2644 4219 2406 4219 
Q 1781 4219 1451 3797 
Q 1122 3375 1075 2522 
Q 1259 2794 1537 2939 
Q 1816 3084 2150 3084 
Q 2853 3084 3261 2657 
Q 3669 2231 3669 1497 
Q 3669 778 3244 343 
Q 2819 -91 2113 -91 
Q 1303 -91 875 529 
Q 447 1150 447 2328 
Q 447 3434 972 4092 
Q 1497 4750 2381 4750 
Q 2619 4750 2861 4703 
Q 3103 4656 3366 4563 
z
" transform="scale(0.015625)"/>
       </defs>
       <use xlink:href="#DejaVuSans-36"/>
       <use xlink:href="#DejaVuSans-30" x="63.623047"/>
       <use xlink:href="#DejaVuSans-30" x="127.246094"/>
      </g>
     </g>
    </g>
    <g id="ytick_8">
     <g id="line2d_8">
      <g>
       <use xlink:href="#m2c506df8fd" x="174.805714" y="34.56" style="stroke: #000000; stroke-width: 0.8"/>
      </g>
     </g>
     <g id="text_12">
      <!-- 700 -->
      <g transform="translate(148.718214 38.359219)scale(0.1 -0.1)">
       <defs>
        <path id="DejaVuSans-37" d="M 525 4666 
L 3525 4666 
L 3525 4397 
L 1831 0 
L 1172 0 
L 2766 4134 
L 525 4134 
L 525 4666 
z
" transform="scale(0.015625)"/>
       </defs>
       <use xlink:href="#DejaVuSans-37"/>
       <use xlink:href="#DejaVuSans-30" x="63.623047"/>
       <use xlink:href="#DejaVuSans-30" x="127.246094"/>
      </g>
     </g>
    </g>
    <g id="text_13">
     <!-- OSN cable length in glomerulus (µm) -->
     <g transform="translate(142.222589 254.464687)rotate(-90)scale(0.12 -0.12)">
      <defs>
       <path id="DejaVuSans-4f" d="M 2522 4238 
Q 1834 4238 1429 3725 
Q 1025 3213 1025 2328 
Q 1025 1447 1429 934 
Q 1834 422 2522 422 
Q 3209 422 3611 934 
Q 4013 1447 4013 2328 
Q 4013 3213 3611 3725 
Q 3209 4238 2522 4238 
z
M 2522 4750 
Q 3503 4750 4090 4092 
Q 4678 3434 4678 2328 
Q 4678 1225 4090 567 
Q 3503 -91 2522 -91 
Q 1538 -91 948 565 
Q 359 1222 359 2328 
Q 359 3434 948 4092 
Q 1538 4750 2522 4750 
z
" transform="scale(0.015625)"/>
       <path id="DejaVuSans-53" d="M 3425 4513 
L 3425 3897 
Q 3066 4069 2747 4153 
Q 2428 4238 2131 4238 
Q 1616 4238 1336 4038 
Q 1056 3838 1056 3469 
Q 1056 3159 1242 3001 
Q 1428 2844 1947 2747 
L 2328 2669 
Q 3034 2534 3370 2195 
Q 3706 1856 3706 1288 
Q 3706 609 3251 259 
Q 2797 -91 1919 -91 
Q 1588 -91 1214 -16 
Q 841 59 441 206 
L 441 856 
Q 825 641 1194 531 
Q 1563 422 1919 422 
Q 2459 422 2753 634 
Q 3047 847 3047 1241 
Q 3047 1584 2836 1778 
Q 2625 1972 2144 2069 
L 1759 2144 
Q 1053 2284 737 2584 
Q 422 2884 422 3419 
Q 422 4038 858 4394 
Q 1294 4750 2059 4750 
Q 2388 4750 2728 4690 
Q 3069 4631 3425 4513 
z
" transform="scale(0.015625)"/>
       <path id="DejaVuSans-4e" d="M 628 4666 
L 1478 4666 
L 3547 763 
L 3547 4666 
L 4159 4666 
L 4159 0 
L 3309 0 
L 1241 3903 
L 1241 0 
L 628 0 
L 628 4666 
z
" transform="scale(0.015625)"/>
       <path id="DejaVuSans-20" transform="scale(0.015625)"/>
       <path id="DejaVuSans-63" d="M 3122 3366 
L 3122 2828 
Q 2878 2963 2633 3030 
Q 2388 3097 2138 3097 
Q 1578 3097 1268 2742 
Q 959 2388 959 1747 
Q 959 1106 1268 751 
Q 1578 397 2138 397 
Q 2388 397 2633 464 
Q 2878 531 3122 666 
L 3122 134 
Q 2881 22 2623 -34 
Q 2366 -91 2075 -91 
Q 1284 -91 818 406 
Q 353 903 353 1747 
Q 353 2603 823 3093 
Q 1294 3584 2113 3584 
Q 2378 3584 2631 3529 
Q 2884 3475 3122 3366 
z
" transform="scale(0.015625)"/>
       <path id="DejaVuSans-61" d="M 2194 1759 
Q 1497 1759 1228 1600 
Q 959 1441 959 1056 
Q 959 750 1161 570 
Q 1363 391 1709 391 
Q 2188 391 2477 730 
Q 2766 1069 2766 1631 
L 2766 1759 
L 2194 1759 
z
M 3341 1997 
L 3341 0 
L 2766 0 
L 2766 531 
Q 2569 213 2275 61 
Q 1981 -91 1556 -91 
Q 1019 -91 701 211 
Q 384 513 384 1019 
Q 384 1609 779 1909 
Q 1175 2209 1959 2209 
L 2766 2209 
L 2766 2266 
Q 2766 2663 2505 2880 
Q 2244 3097 1772 3097 
Q 1472 3097 1187 3025 
Q 903 2953 641 2809 
L 641 3341 
Q 956 3463 1253 3523 
Q 1550 3584 1831 3584 
Q 2591 3584 2966 3190 
Q 3341 2797 3341 1997 
z
" transform="scale(0.015625)"/>
       <path id="DejaVuSans-62" d="M 3116 1747 
Q 3116 2381 2855 2742 
Q 2594 3103 2138 3103 
Q 1681 3103 1420 2742 
Q 1159 2381 1159 1747 
Q 1159 1113 1420 752 
Q 1681 391 2138 391 
Q 2594 391 2855 752 
Q 3116 1113 3116 1747 
z
M 1159 2969 
Q 1341 3281 1617 3432 
Q 1894 3584 2278 3584 
Q 2916 3584 3314 3078 
Q 3713 2572 3713 1747 
Q 3713 922 3314 415 
Q 2916 -91 2278 -91 
Q 1894 -91 1617 61 
Q 1341 213 1159 525 
L 1159 0 
L 581 0 
L 581 4863 
L 1159 4863 
L 1159 2969 
z
" transform="scale(0.015625)"/>
       <path id="DejaVuSans-6e" d="M 3513 2113 
L 3513 0 
L 2938 0 
L 2938 2094 
Q 2938 2591 2744 2837 
Q 2550 3084 2163 3084 
Q 1697 3084 1428 2787 
Q 1159 2491 1159 1978 
L 1159 0 
L 581 0 
L 581 3500 
L 1159 3500 
L 1159 2956 
Q 1366 3272 1645 3428 
Q 1925 3584 2291 3584 
Q 2894 3584 3203 3211 
Q 3513 2838 3513 2113 
z
" transform="scale(0.015625)"/>
       <path id="DejaVuSans-67" d="M 2906 1791 
Q 2906 2416 2648 2759 
Q 2391 3103 1925 3103 
Q 1463 3103 1205 2759 
Q 947 2416 947 1791 
Q 947 1169 1205 825 
Q 1463 481 1925 481 
Q 2391 481 2648 825 
Q 2906 1169 2906 1791 
z
M 3481 434 
Q 3481 -459 3084 -895 
Q 2688 -1331 1869 -1331 
Q 1566 -1331 1297 -1286 
Q 1028 -1241 775 -1147 
L 775 -588 
Q 1028 -725 1275 -790 
Q 1522 -856 1778 -856 
Q 2344 -856 2625 -561 
Q 2906 -266 2906 331 
L 2906 616 
Q 2728 306 2450 153 
Q 2172 0 1784 0 
Q 1141 0 747 490 
Q 353 981 353 1791 
Q 353 2603 747 3093 
Q 1141 3584 1784 3584 
Q 2172 3584 2450 3431 
Q 2728 3278 2906 2969 
L 2906 3500 
L 3481 3500 
L 3481 434 
z
" transform="scale(0.015625)"/>
       <path id="DejaVuSans-74" d="M 1172 4494 
L 1172 3500 
L 2356 3500 
L 2356 3053 
L 1172 3053 
L 1172 1153 
Q 1172 725 1289 603 
Q 1406 481 1766 481 
L 2356 481 
L 2356 0 
L 1766 0 
Q 1100 0 847 248 
Q 594 497 594 1153 
L 594 3053 
L 172 3053 
L 172 3500 
L 594 3500 
L 594 4494 
L 1172 4494 
z
" transform="scale(0.015625)"/>
       <path id="DejaVuSans-68" d="M 3513 2113 
L 3513 0 
L 2938 0 
L 2938 2094 
Q 2938 2591 2744 2837 
Q 2550 3084 2163 3084 
Q 1697 3084 1428 2787 
Q 1159 2491 1159 1978 
L 1159 0 
L 581 0 
L 581 4863 
L 1159 4863 
L 1159 2956 
Q 1366 3272 1645 3428 
Q 1925 3584 2291 3584 
Q 2894 3584 3203 3211 
Q 3513 2838 3513 2113 
z
" transform="scale(0.015625)"/>
       <path id="DejaVuSans-69" d="M 603 3500 
L 1178 3500 
L 1178 0 
L 603 0 
L 603 3500 
z
M 603 4863 
L 1178 4863 
L 1178 4134 
L 603 4134 
L 603 4863 
z
" transform="scale(0.015625)"/>
       <path id="DejaVuSans-28" d="M 1984 4856 
Q 1566 4138 1362 3434 
Q 1159 2731 1159 2009 
Q 1159 1288 1364 580 
Q 1569 -128 1984 -844 
L 1484 -844 
Q 1016 -109 783 600 
Q 550 1309 550 2009 
Q 550 2706 781 3412 
Q 1013 4119 1484 4856 
L 1984 4856 
z
" transform="scale(0.015625)"/>
       <path id="DejaVuSans-b5" d="M 544 -1331 
L 544 3500 
L 1119 3500 
L 1119 1325 
Q 1119 872 1334 640 
Q 1550 409 1972 409 
Q 2434 409 2667 671 
Q 2900 934 2900 1459 
L 2900 3500 
L 3475 3500 
L 3475 806 
Q 3475 619 3529 530 
Q 3584 441 3700 441 
Q 3728 441 3778 458 
Q 3828 475 3916 513 
L 3916 50 
Q 3788 -22 3673 -56 
Q 3559 -91 3450 -91 
Q 3234 -91 3106 31 
Q 2978 153 2931 403 
Q 2775 156 2548 32 
Q 2322 -91 2016 -91 
Q 1697 -91 1473 31 
Q 1250 153 1119 397 
L 1119 -1331 
L 544 -1331 
z
" transform="scale(0.015625)"/>
       <path id="DejaVuSans-29" d="M 513 4856 
L 1013 4856 
Q 1481 4119 1714 3412 
Q 1947 2706 1947 2009 
Q 1947 1309 1714 600 
Q 1481 -109 1013 -844 
L 513 -844 
Q 928 -128 1133 580 
Q 1338 1288 1338 2009 
Q 1338 2731 1133 3434 
Q 928 4138 513 4856 
z
" transform="scale(0.015625)"/>
      </defs>
      <use xlink:href="#DejaVuSans-4f"/>
      <use xlink:href="#DejaVuSans-53" x="78.710938"/>
      <use xlink:href="#DejaVuSans-4e" x="142.1875"/>
      <use xlink:href="#DejaVuSans-20" x="216.992188"/>
      <use xlink:href="#DejaVuSans-63" x="248.779297"/>
      <use xlink:href="#DejaVuSans-61" x="303.759766"/>
      <use xlink:href="#DejaVuSans-62" x="365.039062"/>
      <use xlink:href="#DejaVuSans-6c" x="428.515625"/>
      <use xlink:href="#DejaVuSans-65" x="456.298828"/>
      <use xlink:href="#DejaVuSans-20" x="517.822266"/>
      <use xlink:href="#DejaVuSans-6c" x="549.609375"/>
      <use xlink:href="#DejaVuSans-65" x="577.392578"/>
      <use xlink:href="#DejaVuSans-6e" x="638.916016"/>
      <use xlink:href="#DejaVuSans-67" x="702.294922"/>
      <use xlink:href="#DejaVuSans-74" x="765.771484"/>
      <use xlink:href="#DejaVuSans-68" x="804.980469"/>
      <use xlink:href="#DejaVuSans-20" x="868.359375"/>
      <use xlink:href="#DejaVuSans-69" x="900.146484"/>
      <use xlink:href="#DejaVuSans-6e" x="927.929688"/>
      <use xlink:href="#DejaVuSans-20" x="991.308594"/>
      <use xlink:href="#DejaVuSans-67" x="1023.095703"/>
      <use xlink:href="#DejaVuSans-6c" x="1086.572266"/>
      <use xlink:href="#DejaVuSans-6f" x="1114.355469"/>
      <use xlink:href="#DejaVuSans-6d" x="1175.537109"/>
      <use xlink:href="#DejaVuSans-65" x="1272.949219"/>
      <use xlink:href="#DejaVuSans-72" x="1334.472656"/>
      <use xlink:href="#DejaVuSans-75" x="1375.585938"/>
      <use xlink:href="#DejaVuSans-6c" x="1438.964844"/>
      <use xlink:href="#DejaVuSans-75" x="1466.748047"/>
      <use xlink:href="#DejaVuSans-73" x="1530.126953"/>
      <use xlink:href="#DejaVuSans-20" x="1582.226562"/>
      <use xlink:href="#DejaVuSans-28" x="1614.013672"/>
      <use xlink:href="#DejaVuSans-b5" x="1653.027344"/>
      <use xlink:href="#DejaVuSans-6d" x="1716.650391"/>
      <use xlink:href="#DejaVuSans-29" x="1814.0625"/>
     </g>
    </g>
   </g>
   <g id="line2d_9">
    <path d="M 187.032763 108.072616 
L 193.641523 108.072616 
" clip-path="url(#p0a690828ec)" style="fill: none; stroke: #000000; stroke-width: 1.5; stroke-linecap: square"/>
   </g>
   <g id="line2d_10">
    <path d="M 209.838698 203.055106 
L 232.961302 203.055106 
" clip-path="url(#p0a690828ec)" style="fill: none; stroke: #000000; stroke-width: 1.5; stroke-linecap: square"/>
   </g>
   <g id="line2d_11">
    <path d="M 240.180844 207.806417 
L 264.74487 207.806417 
" clip-path="url(#p0a690828ec)" style="fill: none; stroke: #000000; stroke-width: 1.5; stroke-linecap: square"/>
   </g>
   <g id="patch_3">
    <path d="M 174.805714 252 
L 174.805714 34.56 
" style="fill: none; stroke: #000000; stroke-width: 0.8; stroke-linejoin: miter; stroke-linecap: square"/>
   </g>
   <g id="PathCollection_1">
    <defs>
     <path id="C0_0_1a2bf8893f" d="M 0 2.5 
C 0.663008 2.5 1.29895 2.236584 1.767767 1.767767 
C 2.236584 1.29895 2.5 0.663008 2.5 -0 
C 2.5 -0.663008 2.236584 -1.29895 1.767767 -1.767767 
C 1.29895 -2.236584 0.663008 -2.5 0 -2.5 
C -0.663008 -2.5 -1.29895 -2.236584 -1.767767 -1.767767 
C -2.236584 -1.29895 -2.5 -0.663008 -2.5 0 
C -2.5 0.663008 -2.236584 1.29895 -1.767767 1.767767 
C -1.29895 2.236584 -0.663008 2.5 0 2.5 
z
"/>
    </defs>
    <g clip-path="url(#p0a690828ec)">
     <use xlink:href="#C0_0_1a2bf8893f" x="191.71902" y="111.073894" style="fill: #ee82ee"/>
    </g>
    <g clip-path="url(#p0a690828ec)">
     <use xlink:href="#C0_0_1a2bf8893f" x="191.214383" y="125.641947" style="fill: #ee82ee"/>
    </g>
    <g clip-path="url(#p0a690828ec)">
     <use xlink:href="#C0_0_1a2bf8893f" x="192.400834" y="75.113298" style="fill: #ee82ee"/>
    </g>
    <g clip-path="url(#p0a690828ec)">
     <use xlink:href="#C0_0_1a2bf8893f" x="188.039754" y="113.510911" style="fill: #ee82ee"/>
    </g>
    <g clip-path="url(#p0a690828ec)">
     <use xlink:href="#C0_0_1a2bf8893f" x="191.652722" y="94.781872" style="fill: #ee82ee"/>
    </g>
    <g clip-path="url(#p0a690828ec)">
     <use xlink:href="#C0_0_1a2bf8893f" x="189.090764" y="130.459097" style="fill: #ee82ee"/>
    </g>
    <g clip-path="url(#p0a690828ec)">
     <use xlink:href="#C0_0_1a2bf8893f" x="187.898812" y="122.749005" style="fill: #ee82ee"/>
    </g>
    <g clip-path="url(#p0a690828ec)">
     <use xlink:href="#C0_0_1a2bf8893f" x="191.972503" y="87.406171" style="fill: #ee82ee"/>
    </g>
    <g clip-path="url(#p0a690828ec)">
     <use xlink:href="#C0_0_1a2bf8893f" x="190.362713" y="163.560823" style="fill: #ee82ee"/>
    </g>
    <g clip-path="url(#p0a690828ec)">
     <use xlink:href="#C0_0_1a2bf8893f" x="193.399495" y="56.429144" style="fill: #ee82ee"/>
    </g>
   </g>
   <g id="PathCollection_2">
    <defs>
     <path id="C1_0_5cb0e481d5" d="M 0 2.5 
C 0.663008 2.5 1.29895 2.236584 1.767767 1.767767 
C 2.236584 1.29895 2.5 0.663008 2.5 -0 
C 2.5 -0.663008 2.236584 -1.29895 1.767767 -1.767767 
C 1.29895 -2.236584 0.663008 -2.5 0 -2.5 
C -0.663008 -2.5 -1.29895 -2.236584 -1.767767 -1.767767 
C -2.236584 -1.29895 -2.5 -0.663008 -2.5 0 
C -2.5 0.663008 -2.236584 1.29895 -1.767767 1.767767 
C -1.29895 2.236584 -0.663008 2.5 0 2.5 
z
"/>
    </defs>
    <g clip-path="url(#p0a690828ec)">
     <use xlink:href="#C1_0_5cb0e481d5" x="224.219332" y="188.429271" style="fill: #0000ff"/>
    </g>
    <g clip-path="url(#p0a690828ec)">
     <use xlink:href="#C1_0_5cb0e481d5" x="221.331664" y="208.045232" style="fill: #0000ff"/>
    </g>
    <g clip-path="url(#p0a690828ec)">
     <use xlink:href="#C1_0_5cb0e481d5" x="224.137858" y="208.935911" style="fill: #0000ff"/>
    </g>
    <g clip-path="url(#p0a690828ec)">
     <use xlink:href="#C1_0_5cb0e481d5" x="222.935774" y="204.530324" style="fill: #0000ff"/>
    </g>
    <g clip-path="url(#p0a690828ec)">
     <use xlink:href="#C1_0_5cb0e481d5" x="219.49255" y="199.843788" style="fill: #0000ff"/>
    </g>
    <g clip-path="url(#p0a690828ec)">
     <use xlink:href="#C1_0_5cb0e481d5" x="224.027934" y="208.378837" style="fill: #0000ff"/>
    </g>
    <g clip-path="url(#p0a690828ec)">
     <use xlink:href="#C1_0_5cb0e481d5" x="221.937624" y="220.040096" style="fill: #0000ff"/>
    </g>
    <g clip-path="url(#p0a690828ec)">
     <use xlink:href="#C1_0_5cb0e481d5" x="223.182413" y="191.253952" style="fill: #0000ff"/>
    </g>
    <g clip-path="url(#p0a690828ec)">
     <use xlink:href="#C1_0_5cb0e481d5" x="220.843317" y="201.053177" style="fill: #0000ff"/>
    </g>
    <g clip-path="url(#p0a690828ec)">
     <use xlink:href="#C1_0_5cb0e481d5" x="222.423404" y="200.04047" style="fill: #0000ff"/>
    </g>
   </g>
   <g id="PathCollection_3">
    <defs>
     <path id="C2_0_25e9f1fb83" d="M 0 2.5 
C 0.663008 2.5 1.29895 2.236584 1.767767 1.767767 
C 2.236584 1.29895 2.5 0.663008 2.5 -0 
C 2.5 -0.663008 2.236584 -1.29895 1.767767 -1.767767 
C 1.29895 -2.236584 0.663008 -2.5 0 -2.5 
C -0.663008 -2.5 -1.29895 -2.236584 -1.767767 -1.767767 
C -2.236584 -1.29895 -2.5 -0.663008 -2.5 0 
C -2.5 0.663008 -2.236584 1.29895 -1.767767 1.767767 
C -1.29895 2.236584 -0.663008 2.5 0 2.5 
z
"/>
    </defs>
    <g clip-path="url(#p0a690828ec)">
     <use xlink:href="#C2_0_25e9f1fb83" x="252.023879" y="198.886853" style="fill: #00fa9a"/>
    </g>
    <g clip-path="url(#p0a690828ec)">
     <use xlink:href="#C2_0_25e9f1fb83" x="253.989337" y="205.345137" style="fill: #00fa9a"/>
    </g>
    <g clip-path="url(#p0a690828ec)">
     <use xlink:href="#C2_0_25e9f1fb83" x="249.792323" y="203.314058" style="fill: #00fa9a"/>
    </g>
    <g clip-path="url(#p0a690828ec)">
     <use xlink:href="#C2_0_25e9f1fb83" x="254.744144" y="193.486983" style="fill: #00fa9a"/>
    </g>
    <g clip-path="url(#p0a690828ec)">
     <use xlink:href="#C2_0_25e9f1fb83" x="253.807144" y="210.512904" style="fill: #00fa9a"/>
    </g>
    <g clip-path="url(#p0a690828ec)">
     <use xlink:href="#C2_0_25e9f1fb83" x="249.377217" y="208.984223" style="fill: #00fa9a"/>
    </g>
    <g clip-path="url(#p0a690828ec)">
     <use xlink:href="#C2_0_25e9f1fb83" x="253.727971" y="218.354606" style="fill: #00fa9a"/>
    </g>
    <g clip-path="url(#p0a690828ec)">
     <use xlink:href="#C2_0_25e9f1fb83" x="253.798516" y="207.039883" style="fill: #00fa9a"/>
    </g>
    <g clip-path="url(#p0a690828ec)">
     <use xlink:href="#C2_0_25e9f1fb83" x="255.521766" y="218.623278" style="fill: #00fa9a"/>
    </g>
    <g clip-path="url(#p0a690828ec)">
     <use xlink:href="#C2_0_25e9f1fb83" x="255.088776" y="213.516241" style="fill: #00fa9a"/>
    </g>
   </g>
  </g>
 </g>
 <defs>
  <clipPath id="p0a690828ec">
   <rect x="174.805714" y="34.56" width="93.188571" height="217.44"/>
  </clipPath>
 </defs>
</svg>
