<?xml version="1.0" encoding="utf-8" standalone="no"?>
<!DOCTYPE svg PUBLIC "-//W3C//DTD SVG 1.1//EN"
  "http://www.w3.org/Graphics/SVG/1.1/DTD/svg11.dtd">
<svg xmlns:xlink="http://www.w3.org/1999/xlink" width="432pt" height="288pt" viewBox="0 0 432 288" xmlns="http://www.w3.org/2000/svg" version="1.1">
 <metadata>
  <rdf:RDF xmlns:dc="http://purl.org/dc/elements/1.1/" xmlns:cc="http://creativecommons.org/ns#" xmlns:rdf="http://www.w3.org/1999/02/22-rdf-syntax-ns#">
   <cc:Work>
    <dc:type rdf:resource="http://purl.org/dc/dcmitype/StillImage"/>
    <dc:date>2024-01-28T09:25:36.681426</dc:date>
    <dc:format>image/svg+xml</dc:format>
    <dc:creator>
     <cc:Agent>
      <dc:title>Matplotlib v3.5.1, https://matplotlib.org/</dc:title>
     </cc:Agent>
    </dc:creator>
   </cc:Work>
  </rdf:RDF>
 </metadata>
 <defs>
  <style type="text/css">*{stroke-linejoin: round; stroke-linecap: butt}</style>
 </defs>
 <g id="figure_1">
  <g id="patch_1">
   <path d="M 0 288 
L 432 288 
L 432 0 
L 0 0 
L 0 288 
z
" style="fill: none"/>
  </g>
  <g id="axes_1">
   <g id="patch_2">
    <path d="M 159.274286 252 
L 283.525714 252 
L 283.525714 34.56 
L 159.274286 34.56 
z
" style="fill: #ffffff"/>
   </g>
   <g id="PolyCollection_1">
    <defs>
     <path id="m0780364c88" d="M 180.871955 -142.243195 
L 179.093759 -142.243195 
L 179.067009 -143.287046 
L 179.039822 -144.330897 
L 179.012064 -145.374748 
L 178.983587 -146.418599 
L 178.954239 -147.46245 
L 178.923862 -148.506301 
L 178.892294 -149.550152 
L 178.859377 -150.594003 
L 178.824954 -151.637854 
L 178.788879 -152.681705 
L 178.751016 -153.725555 
L 178.71124 -154.769406 
L 178.669449 -155.813257 
L 178.625557 -156.857108 
L 178.579502 -157.900959 
L 178.531247 -158.94481 
L 178.480785 -159.988661 
L 178.428132 -161.032512 
L 178.373338 -162.076363 
L 178.316481 -163.120214 
L 178.257668 -164.164065 
L 178.197037 -165.207916 
L 178.13475 -166.251766 
L 178.070999 -167.295617 
L 178.005997 -168.339468 
L 177.939977 -169.383319 
L 177.873189 -170.42717 
L 177.805899 -171.471021 
L 177.73838 -172.514872 
L 177.670911 -173.558723 
L 177.603774 -174.602574 
L 177.537246 -175.646425 
L 177.471597 -176.690276 
L 177.407086 -177.734127 
L 177.343957 -178.777978 
L 177.282437 -179.821828 
L 177.222728 -180.865679 
L 177.16501 -181.90953 
L 177.109439 -182.953381 
L 177.056141 -183.997232 
L 177.005216 -185.041083 
L 176.956736 -186.084934 
L 176.910745 -187.128785 
L 176.867263 -188.172636 
L 176.826286 -189.216487 
L 176.787788 -190.260338 
L 176.751726 -191.304189 
L 176.718042 -192.348039 
L 176.686668 -193.39189 
L 176.657529 -194.435741 
L 176.630547 -195.479592 
L 176.605644 -196.523443 
L 176.582752 -197.567294 
L 176.561806 -198.611145 
L 176.542759 -199.654996 
L 176.525576 -200.698847 
L 176.510242 -201.742698 
L 176.49676 -202.786549 
L 176.485155 -203.8304 
L 176.475473 -204.874251 
L 176.467782 -205.918101 
L 176.462169 -206.961952 
L 176.458741 -208.005803 
L 176.45762 -209.049654 
L 176.458942 -210.093505 
L 176.462855 -211.137356 
L 176.469511 -212.181207 
L 176.479069 -213.225058 
L 176.491682 -214.268909 
L 176.5075 -215.31276 
L 176.526663 -216.356611 
L 176.549298 -217.400462 
L 176.575512 -218.444312 
L 176.605394 -219.488163 
L 176.639008 -220.532014 
L 176.67639 -221.575865 
L 176.717551 -222.619716 
L 176.76247 -223.663567 
L 176.811097 -224.707418 
L 176.86335 -225.751269 
L 176.91912 -226.79512 
L 176.978266 -227.838971 
L 177.040623 -228.882822 
L 177.105999 -229.926673 
L 177.174181 -230.970524 
L 177.244935 -232.014374 
L 177.318012 -233.058225 
L 177.393148 -234.102076 
L 177.47007 -235.145927 
L 177.548499 -236.189778 
L 177.628152 -237.233629 
L 177.708746 -238.27748 
L 177.79 -239.321331 
L 177.87164 -240.365182 
L 177.953399 -241.409033 
L 178.03502 -242.452884 
L 178.116259 -243.496735 
L 178.196883 -244.540585 
L 178.276675 -245.584436 
L 181.689039 -245.584436 
L 181.689039 -245.584436 
L 181.768832 -244.540585 
L 181.849456 -243.496735 
L 181.930694 -242.452884 
L 182.012315 -241.409033 
L 182.094074 -240.365182 
L 182.175714 -239.321331 
L 182.256969 -238.27748 
L 182.337562 -237.233629 
L 182.417215 -236.189778 
L 182.495644 -235.145927 
L 182.572567 -234.102076 
L 182.647703 -233.058225 
L 182.720779 -232.014374 
L 182.791533 -230.970524 
L 182.859715 -229.926673 
L 182.925091 -228.882822 
L 182.987448 -227.838971 
L 183.046595 -226.79512 
L 183.102364 -225.751269 
L 183.154617 -224.707418 
L 183.203244 -223.663567 
L 183.248163 -222.619716 
L 183.289324 -221.575865 
L 183.326707 -220.532014 
L 183.36032 -219.488163 
L 183.390202 -218.444312 
L 183.416417 -217.400462 
L 183.439051 -216.356611 
L 183.458215 -215.31276 
L 183.474033 -214.268909 
L 183.486646 -213.225058 
L 183.496203 -212.181207 
L 183.50286 -211.137356 
L 183.506772 -210.093505 
L 183.508095 -209.049654 
L 183.506973 -208.005803 
L 183.503545 -206.961952 
L 183.497932 -205.918101 
L 183.490241 -204.874251 
L 183.480559 -203.8304 
L 183.468955 -202.786549 
L 183.455473 -201.742698 
L 183.440138 -200.698847 
L 183.422955 -199.654996 
L 183.403908 -198.611145 
L 183.382963 -197.567294 
L 183.36007 -196.523443 
L 183.335168 -195.479592 
L 183.308185 -194.435741 
L 183.279046 -193.39189 
L 183.247672 -192.348039 
L 183.213989 -191.304189 
L 183.177927 -190.260338 
L 183.139429 -189.216487 
L 183.098451 -188.172636 
L 183.054969 -187.128785 
L 183.008978 -186.084934 
L 182.960498 -185.041083 
L 182.909573 -183.997232 
L 182.856275 -182.953381 
L 182.800704 -181.90953 
L 182.742987 -180.865679 
L 182.683278 -179.821828 
L 182.621757 -178.777978 
L 182.558628 -177.734127 
L 182.494118 -176.690276 
L 182.428469 -175.646425 
L 182.36194 -174.602574 
L 182.294803 -173.558723 
L 182.227335 -172.514872 
L 182.159816 -171.471021 
L 182.092525 -170.42717 
L 182.025738 -169.383319 
L 181.959717 -168.339468 
L 181.894715 -167.295617 
L 181.830964 -166.251766 
L 181.768678 -165.207916 
L 181.708046 -164.164065 
L 181.649234 -163.120214 
L 181.592376 -162.076363 
L 181.537582 -161.032512 
L 181.48493 -159.988661 
L 181.434467 -158.94481 
L 181.386213 -157.900959 
L 181.340158 -156.857108 
L 181.296265 -155.813257 
L 181.254474 -154.769406 
L 181.214699 -153.725555 
L 181.176835 -152.681705 
L 181.14076 -151.637854 
L 181.106338 -150.594003 
L 181.07342 -149.550152 
L 181.041852 -148.506301 
L 181.011475 -147.46245 
L 180.982127 -146.418599 
L 180.953651 -145.374748 
L 180.925892 -144.330897 
L 180.898705 -143.287046 
L 180.871955 -142.243195 
z
" style="stroke: #ee82ee; stroke-width: 1.5"/>
    </defs>
    <g clip-path="url(#p0a768e2a98)">
     <use xlink:href="#m0780364c88" x="0" y="288" style="fill: #ffffff; stroke: #ee82ee; stroke-width: 1.5"/>
    </g>
   </g>
   <g id="PolyCollection_2">
    <defs>
     <path id="mf3dd4ae8c4" d="M 224.955833 -97.520154 
L 217.844167 -97.520154 
L 217.754531 -97.770228 
L 217.665485 -98.020302 
L 217.576621 -98.270377 
L 217.487479 -98.520451 
L 217.397554 -98.770525 
L 217.306306 -99.020599 
L 217.213162 -99.270673 
L 217.117532 -99.520747 
L 217.018813 -99.770821 
L 216.916399 -100.020895 
L 216.809693 -100.27097 
L 216.698116 -100.521044 
L 216.581112 -100.771118 
L 216.458164 -101.021192 
L 216.328796 -101.271266 
L 216.192582 -101.52134 
L 216.049156 -101.771414 
L 215.898211 -102.021488 
L 215.739509 -102.271563 
L 215.572883 -102.521637 
L 215.398235 -102.771711 
L 215.215542 -103.021785 
L 215.024853 -103.271859 
L 214.826288 -103.521933 
L 214.620033 -103.772007 
L 214.40634 -104.022081 
L 214.185521 -104.272155 
L 213.957943 -104.52223 
L 213.724021 -104.772304 
L 213.484212 -105.022378 
L 213.239012 -105.272452 
L 212.988945 -105.522526 
L 212.734558 -105.7726 
L 212.476415 -106.022674 
L 212.215094 -106.272748 
L 211.951176 -106.522823 
L 211.685246 -106.772897 
L 211.417886 -107.022971 
L 211.149671 -107.273045 
L 210.881173 -107.523119 
L 210.612951 -107.773193 
L 210.345558 -108.023267 
L 210.07954 -108.273341 
L 209.815434 -108.523416 
L 209.553774 -108.77349 
L 209.295094 -109.023564 
L 209.039929 -109.273638 
L 208.788821 -109.523712 
L 208.542321 -109.773786 
L 208.300996 -110.02386 
L 208.065432 -110.273934 
L 207.836236 -110.524008 
L 207.614039 -110.774083 
L 207.399503 -111.024157 
L 207.193318 -111.274231 
L 206.996202 -111.524305 
L 206.808905 -111.774379 
L 206.632205 -112.024453 
L 206.466903 -112.274527 
L 206.313821 -112.524601 
L 206.173796 -112.774676 
L 206.047673 -113.02475 
L 205.936297 -113.274824 
L 205.840502 -113.524898 
L 205.761106 -113.774972 
L 205.698895 -114.025046 
L 205.654615 -114.27512 
L 205.628958 -114.525194 
L 205.622555 -114.775269 
L 205.635961 -115.025343 
L 205.669645 -115.275417 
L 205.723982 -115.525491 
L 205.799243 -115.775565 
L 205.895587 -116.025639 
L 206.013055 -116.275713 
L 206.151567 -116.525787 
L 206.310916 -116.775861 
L 206.490771 -117.025936 
L 206.690674 -117.27601 
L 206.910044 -117.526084 
L 207.14818 -117.776158 
L 207.404269 -118.026232 
L 207.677393 -118.276306 
L 207.966536 -118.52638 
L 208.270594 -118.776454 
L 208.58839 -119.026529 
L 208.918679 -119.276603 
L 209.260168 -119.526677 
L 209.611521 -119.776751 
L 209.971379 -120.026825 
L 210.338366 -120.276899 
L 210.711105 -120.526973 
L 211.088229 -120.777047 
L 211.468391 -121.027122 
L 211.850276 -121.277196 
L 212.232607 -121.52727 
L 212.614157 -121.777344 
L 212.993751 -122.027418 
L 213.370279 -122.277492 
L 229.429721 -122.277492 
L 229.429721 -122.277492 
L 229.806249 -122.027418 
L 230.185843 -121.777344 
L 230.567393 -121.52727 
L 230.949724 -121.277196 
L 231.331609 -121.027122 
L 231.711771 -120.777047 
L 232.088895 -120.526973 
L 232.461634 -120.276899 
L 232.828621 -120.026825 
L 233.188479 -119.776751 
L 233.539832 -119.526677 
L 233.881321 -119.276603 
L 234.21161 -119.026529 
L 234.529406 -118.776454 
L 234.833464 -118.52638 
L 235.122607 -118.276306 
L 235.395731 -118.026232 
L 235.65182 -117.776158 
L 235.889956 -117.526084 
L 236.109326 -117.27601 
L 236.309229 -117.025936 
L 236.489084 -116.775861 
L 236.648433 -116.525787 
L 236.786945 -116.275713 
L 236.904413 -116.025639 
L 237.000757 -115.775565 
L 237.076018 -115.525491 
L 237.130355 -115.275417 
L 237.164039 -115.025343 
L 237.177445 -114.775269 
L 237.171042 -114.525194 
L 237.145385 -114.27512 
L 237.101105 -114.025046 
L 237.038894 -113.774972 
L 236.959498 -113.524898 
L 236.863703 -113.274824 
L 236.752327 -113.02475 
L 236.626204 -112.774676 
L 236.486179 -112.524601 
L 236.333097 -112.274527 
L 236.167795 -112.024453 
L 235.991095 -111.774379 
L 235.803798 -111.524305 
L 235.606682 -111.274231 
L 235.400497 -111.024157 
L 235.185961 -110.774083 
L 234.963764 -110.524008 
L 234.734568 -110.273934 
L 234.499004 -110.02386 
L 234.257679 -109.773786 
L 234.011179 -109.523712 
L 233.760071 -109.273638 
L 233.504906 -109.023564 
L 233.246226 -108.77349 
L 232.984566 -108.523416 
L 232.72046 -108.273341 
L 232.454442 -108.023267 
L 232.187049 -107.773193 
L 231.918827 -107.523119 
L 231.650329 -107.273045 
L 231.382114 -107.022971 
L 231.114754 -106.772897 
L 230.848824 -106.522823 
L 230.584906 -106.272748 
L 230.323585 -106.022674 
L 230.065442 -105.7726 
L 229.811055 -105.522526 
L 229.560988 -105.272452 
L 229.315788 -105.022378 
L 229.075979 -104.772304 
L 228.842057 -104.52223 
L 228.614479 -104.272155 
L 228.39366 -104.022081 
L 228.179967 -103.772007 
L 227.973712 -103.521933 
L 227.775147 -103.271859 
L 227.584458 -103.021785 
L 227.401765 -102.771711 
L 227.227117 -102.521637 
L 227.060491 -102.271563 
L 226.901789 -102.021488 
L 226.750844 -101.771414 
L 226.607418 -101.52134 
L 226.471204 -101.271266 
L 226.341836 -101.021192 
L 226.218888 -100.771118 
L 226.101884 -100.521044 
L 225.990307 -100.27097 
L 225.883601 -100.020895 
L 225.781187 -99.770821 
L 225.682468 -99.520747 
L 225.586838 -99.270673 
L 225.493694 -99.020599 
L 225.402446 -98.770525 
L 225.312521 -98.520451 
L 225.223379 -98.270377 
L 225.134515 -98.020302 
L 225.045469 -97.770228 
L 224.955833 -97.520154 
z
" style="stroke: #0000ff; stroke-width: 1.5"/>
    </defs>
    <g clip-path="url(#p0a768e2a98)">
     <use xlink:href="#mf3dd4ae8c4" x="0" y="288" style="fill: #ffffff; stroke: #0000ff; stroke-width: 1.5"/>
    </g>
   </g>
   <g id="PolyCollection_3">
    <defs>
     <path id="mf92b049223" d="M 269.106928 -92.485974 
L 256.527358 -92.485974 
L 256.264407 -92.744591 
L 255.998593 -93.003207 
L 255.729906 -93.261823 
L 255.458301 -93.520439 
L 255.183708 -93.779055 
L 254.906035 -94.037672 
L 254.625181 -94.296288 
L 254.341043 -94.554904 
L 254.053529 -94.81352 
L 253.762568 -95.072137 
L 253.468123 -95.330753 
L 253.170205 -95.589369 
L 252.868883 -95.847985 
L 252.564296 -96.106602 
L 252.256668 -96.365218 
L 251.946314 -96.623834 
L 251.63365 -96.88245 
L 251.319203 -97.141067 
L 251.003615 -97.399683 
L 250.687644 -97.658299 
L 250.37217 -97.916915 
L 250.058192 -98.175531 
L 249.746824 -98.434148 
L 249.43929 -98.692764 
L 249.136915 -98.95138 
L 248.841118 -99.209996 
L 248.553393 -99.468613 
L 248.275301 -99.727229 
L 248.00845 -99.985845 
L 247.754478 -100.244461 
L 247.515035 -100.503078 
L 247.29176 -100.761694 
L 247.086264 -101.02031 
L 246.90011 -101.278926 
L 246.734788 -101.537543 
L 246.5917 -101.796159 
L 246.472139 -102.054775 
L 246.377273 -102.313391 
L 246.308125 -102.572007 
L 246.265563 -102.830624 
L 246.250286 -103.08924 
L 246.262811 -103.347856 
L 246.303471 -103.606472 
L 246.372402 -103.865089 
L 246.469545 -104.123705 
L 246.594644 -104.382321 
L 246.747244 -104.640937 
L 246.926699 -104.899554 
L 247.132177 -105.15817 
L 247.362664 -105.416786 
L 247.616981 -105.675402 
L 247.893787 -105.934019 
L 248.191597 -106.192635 
L 248.508796 -106.451251 
L 248.843653 -106.709867 
L 249.194338 -106.968484 
L 249.558937 -107.2271 
L 249.935472 -107.485716 
L 250.321919 -107.744332 
L 250.716222 -108.002948 
L 251.116316 -108.261565 
L 251.52014 -108.520181 
L 251.925661 -108.778797 
L 252.330882 -109.037413 
L 252.733867 -109.29603 
L 253.132752 -109.554646 
L 253.525762 -109.813262 
L 253.911224 -110.071878 
L 254.287581 -110.330495 
L 254.653403 -110.589111 
L 255.007397 -110.847727 
L 255.34842 -111.106343 
L 255.675482 -111.36496 
L 255.987754 -111.623576 
L 256.284573 -111.882192 
L 256.565445 -112.140808 
L 256.830043 -112.399424 
L 257.078212 -112.658041 
L 257.309958 -112.916657 
L 257.525451 -113.175273 
L 257.725014 -113.433889 
L 257.909115 -113.692506 
L 258.078359 -113.951122 
L 258.233472 -114.209738 
L 258.375294 -114.468354 
L 258.504758 -114.726971 
L 258.622879 -114.985587 
L 258.730736 -115.244203 
L 258.829455 -115.502819 
L 258.920191 -115.761436 
L 259.004113 -116.020052 
L 259.082384 -116.278668 
L 259.156146 -116.537284 
L 259.226503 -116.7959 
L 259.294509 -117.054517 
L 259.361153 -117.313133 
L 259.427344 -117.571749 
L 259.493906 -117.830365 
L 259.561567 -118.088982 
L 266.072718 -118.088982 
L 266.072718 -118.088982 
L 266.14038 -117.830365 
L 266.206942 -117.571749 
L 266.273133 -117.313133 
L 266.339776 -117.054517 
L 266.407783 -116.7959 
L 266.47814 -116.537284 
L 266.551902 -116.278668 
L 266.630172 -116.020052 
L 266.714094 -115.761436 
L 266.804831 -115.502819 
L 266.903549 -115.244203 
L 267.011407 -114.985587 
L 267.129528 -114.726971 
L 267.258992 -114.468354 
L 267.400813 -114.209738 
L 267.555927 -113.951122 
L 267.72517 -113.692506 
L 267.909272 -113.433889 
L 268.108835 -113.175273 
L 268.324328 -112.916657 
L 268.556074 -112.658041 
L 268.804243 -112.399424 
L 269.068841 -112.140808 
L 269.349713 -111.882192 
L 269.646532 -111.623576 
L 269.958803 -111.36496 
L 270.285865 -111.106343 
L 270.626888 -110.847727 
L 270.980883 -110.589111 
L 271.346705 -110.330495 
L 271.723062 -110.071878 
L 272.108524 -109.813262 
L 272.501534 -109.554646 
L 272.900419 -109.29603 
L 273.303404 -109.037413 
L 273.708625 -108.778797 
L 274.114145 -108.520181 
L 274.51797 -108.261565 
L 274.918064 -108.002948 
L 275.312367 -107.744332 
L 275.698813 -107.485716 
L 276.075349 -107.2271 
L 276.439948 -106.968484 
L 276.790632 -106.709867 
L 277.12549 -106.451251 
L 277.442689 -106.192635 
L 277.740499 -105.934019 
L 278.017305 -105.675402 
L 278.271621 -105.416786 
L 278.502109 -105.15817 
L 278.707587 -104.899554 
L 278.887042 -104.640937 
L 279.039642 -104.382321 
L 279.16474 -104.123705 
L 279.261884 -103.865089 
L 279.330815 -103.606472 
L 279.371474 -103.347856 
L 279.384 -103.08924 
L 279.368723 -102.830624 
L 279.326161 -102.572007 
L 279.257013 -102.313391 
L 279.162146 -102.054775 
L 279.042586 -101.796159 
L 278.899498 -101.537543 
L 278.734176 -101.278926 
L 278.548022 -101.02031 
L 278.342526 -100.761694 
L 278.119251 -100.503078 
L 277.879807 -100.244461 
L 277.625836 -99.985845 
L 277.358985 -99.727229 
L 277.080893 -99.468613 
L 276.793168 -99.209996 
L 276.49737 -98.95138 
L 276.194996 -98.692764 
L 275.887461 -98.434148 
L 275.576093 -98.175531 
L 275.262115 -97.916915 
L 274.946642 -97.658299 
L 274.630671 -97.399683 
L 274.315082 -97.141067 
L 274.000636 -96.88245 
L 273.687972 -96.623834 
L 273.377617 -96.365218 
L 273.069989 -96.106602 
L 272.765403 -95.847985 
L 272.46408 -95.589369 
L 272.166162 -95.330753 
L 271.871718 -95.072137 
L 271.580757 -94.81352 
L 271.293243 -94.554904 
L 271.009105 -94.296288 
L 270.728251 -94.037672 
L 270.450578 -93.779055 
L 270.175985 -93.520439 
L 269.90438 -93.261823 
L 269.635692 -93.003207 
L 269.369879 -92.744591 
L 269.106928 -92.485974 
z
" style="stroke: #00fa9a; stroke-width: 1.5"/>
    </defs>
    <g clip-path="url(#p0a768e2a98)">
     <use xlink:href="#mf92b049223" x="0" y="288" style="fill: #ffffff; stroke: #00fa9a; stroke-width: 1.5"/>
    </g>
   </g>
   <g id="matplotlib.axis_1">
    <g id="xtick_1">
     <g id="text_1">
      <!-- 1 -->
      <g transform="translate(176.483482 267.358281)scale(0.11 -0.11)">
       <defs>
        <path id="DejaVuSans-31" d="M 794 531 
L 1825 531 
L 1825 4091 
L 703 3866 
L 703 4441 
L 1819 4666 
L 2450 4666 
L 2450 531 
L 3481 531 
L 3481 0 
L 794 0 
L 794 531 
z
" transform="scale(0.015625)"/>
       </defs>
       <use xlink:href="#DejaVuSans-31"/>
      </g>
     </g>
    </g>
    <g id="xtick_2">
     <g id="text_2">
      <!-- 2 -->
      <g transform="translate(217.900625 267.358281)scale(0.11 -0.11)">
       <defs>
        <path id="DejaVuSans-32" d="M 1228 531 
L 3431 531 
L 3431 0 
L 469 0 
L 469 531 
Q 828 903 1448 1529 
Q 2069 2156 2228 2338 
Q 2531 2678 2651 2914 
Q 2772 3150 2772 3378 
Q 2772 3750 2511 3984 
Q 2250 4219 1831 4219 
Q 1534 4219 1204 4116 
Q 875 4013 500 3803 
L 500 4441 
Q 881 4594 1212 4672 
Q 1544 4750 1819 4750 
Q 2544 4750 2975 4387 
Q 3406 4025 3406 3419 
Q 3406 3131 3298 2873 
Q 3191 2616 2906 2266 
Q 2828 2175 2409 1742 
Q 1991 1309 1228 531 
z
" transform="scale(0.015625)"/>
       </defs>
       <use xlink:href="#DejaVuSans-32"/>
      </g>
     </g>
    </g>
    <g id="xtick_3">
     <g id="text_3">
      <!-- 3 -->
      <g transform="translate(259.317768 267.358281)scale(0.11 -0.11)">
       <defs>
        <path id="DejaVuSans-33" d="M 2597 2516 
Q 3050 2419 3304 2112 
Q 3559 1806 3559 1356 
Q 3559 666 3084 287 
Q 2609 -91 1734 -91 
Q 1441 -91 1130 -33 
Q 819 25 488 141 
L 488 750 
Q 750 597 1062 519 
Q 1375 441 1716 441 
Q 2309 441 2620 675 
Q 2931 909 2931 1356 
Q 2931 1769 2642 2001 
Q 2353 2234 1838 2234 
L 1294 2234 
L 1294 2753 
L 1863 2753 
Q 2328 2753 2575 2939 
Q 2822 3125 2822 3475 
Q 2822 3834 2567 4026 
Q 2313 4219 1838 4219 
Q 1578 4219 1281 4162 
Q 984 4106 628 3988 
L 628 4550 
Q 988 4650 1302 4700 
Q 1616 4750 1894 4750 
Q 2613 4750 3031 4423 
Q 3450 4097 3450 3541 
Q 3450 3153 3228 2886 
Q 3006 2619 2597 2516 
z
" transform="scale(0.015625)"/>
       </defs>
       <use xlink:href="#DejaVuSans-33"/>
      </g>
     </g>
    </g>
    <g id="text_4">
     <!-- Glomerulus -->
     <g transform="translate(187.0125 282.764063)scale(0.12 -0.12)">
      <defs>
       <path id="DejaVuSans-47" d="M 3809 666 
L 3809 1919 
L 2778 1919 
L 2778 2438 
L 4434 2438 
L 4434 434 
Q 4069 175 3628 42 
Q 3188 -91 2688 -91 
Q 1594 -91 976 548 
Q 359 1188 359 2328 
Q 359 3472 976 4111 
Q 1594 4750 2688 4750 
Q 3144 4750 3555 4637 
Q 3966 4525 4313 4306 
L 4313 3634 
Q 3963 3931 3569 4081 
Q 3175 4231 2741 4231 
Q 1884 4231 1454 3753 
Q 1025 3275 1025 2328 
Q 1025 1384 1454 906 
Q 1884 428 2741 428 
Q 3075 428 3337 486 
Q 3600 544 3809 666 
z
" transform="scale(0.015625)"/>
       <path id="DejaVuSans-6c" d="M 603 4863 
L 1178 4863 
L 1178 0 
L 603 0 
L 603 4863 
z
" transform="scale(0.015625)"/>
       <path id="DejaVuSans-6f" d="M 1959 3097 
Q 1497 3097 1228 2736 
Q 959 2375 959 1747 
Q 959 1119 1226 758 
Q 1494 397 1959 397 
Q 2419 397 2687 759 
Q 2956 1122 2956 1747 
Q 2956 2369 2687 2733 
Q 2419 3097 1959 3097 
z
M 1959 3584 
Q 2709 3584 3137 3096 
Q 3566 2609 3566 1747 
Q 3566 888 3137 398 
Q 2709 -91 1959 -91 
Q 1206 -91 779 398 
Q 353 888 353 1747 
Q 353 2609 779 3096 
Q 1206 3584 1959 3584 
z
" transform="scale(0.015625)"/>
       <path id="DejaVuSans-6d" d="M 3328 2828 
Q 3544 3216 3844 3400 
Q 4144 3584 4550 3584 
Q 5097 3584 5394 3201 
Q 5691 2819 5691 2113 
L 5691 0 
L 5113 0 
L 5113 2094 
Q 5113 2597 4934 2840 
Q 4756 3084 4391 3084 
Q 3944 3084 3684 2787 
Q 3425 2491 3425 1978 
L 3425 0 
L 2847 0 
L 2847 2094 
Q 2847 2600 2669 2842 
Q 2491 3084 2119 3084 
Q 1678 3084 1418 2786 
Q 1159 2488 1159 1978 
L 1159 0 
L 581 0 
L 581 3500 
L 1159 3500 
L 1159 2956 
Q 1356 3278 1631 3431 
Q 1906 3584 2284 3584 
Q 2666 3584 2933 3390 
Q 3200 3197 3328 2828 
z
" transform="scale(0.015625)"/>
       <path id="DejaVuSans-65" d="M 3597 1894 
L 3597 1613 
L 953 1613 
Q 991 1019 1311 708 
Q 1631 397 2203 397 
Q 2534 397 2845 478 
Q 3156 559 3463 722 
L 3463 178 
Q 3153 47 2828 -22 
Q 2503 -91 2169 -91 
Q 1331 -91 842 396 
Q 353 884 353 1716 
Q 353 2575 817 3079 
Q 1281 3584 2069 3584 
Q 2775 3584 3186 3129 
Q 3597 2675 3597 1894 
z
M 3022 2063 
Q 3016 2534 2758 2815 
Q 2500 3097 2075 3097 
Q 1594 3097 1305 2825 
Q 1016 2553 972 2059 
L 3022 2063 
z
" transform="scale(0.015625)"/>
       <path id="DejaVuSans-72" d="M 2631 2963 
Q 2534 3019 2420 3045 
Q 2306 3072 2169 3072 
Q 1681 3072 1420 2755 
Q 1159 2438 1159 1844 
L 1159 0 
L 581 0 
L 581 3500 
L 1159 3500 
L 1159 2956 
Q 1341 3275 1631 3429 
Q 1922 3584 2338 3584 
Q 2397 3584 2469 3576 
Q 2541 3569 2628 3553 
L 2631 2963 
z
" transform="scale(0.015625)"/>
       <path id="DejaVuSans-75" d="M 544 1381 
L 544 3500 
L 1119 3500 
L 1119 1403 
Q 1119 906 1312 657 
Q 1506 409 1894 409 
Q 2359 409 2629 706 
Q 2900 1003 2900 1516 
L 2900 3500 
L 3475 3500 
L 3475 0 
L 2900 0 
L 2900 538 
Q 2691 219 2414 64 
Q 2138 -91 1772 -91 
Q 1169 -91 856 284 
Q 544 659 544 1381 
z
M 1991 3584 
L 1991 3584 
z
" transform="scale(0.015625)"/>
       <path id="DejaVuSans-73" d="M 2834 3397 
L 2834 2853 
Q 2591 2978 2328 3040 
Q 2066 3103 1784 3103 
Q 1356 3103 1142 2972 
Q 928 2841 928 2578 
Q 928 2378 1081 2264 
Q 1234 2150 1697 2047 
L 1894 2003 
Q 2506 1872 2764 1633 
Q 3022 1394 3022 966 
Q 3022 478 2636 193 
Q 2250 -91 1575 -91 
Q 1294 -91 989 -36 
Q 684 19 347 128 
L 347 722 
Q 666 556 975 473 
Q 1284 391 1588 391 
Q 1994 391 2212 530 
Q 2431 669 2431 922 
Q 2431 1156 2273 1281 
Q 2116 1406 1581 1522 
L 1381 1569 
Q 847 1681 609 1914 
Q 372 2147 372 2553 
Q 372 3047 722 3315 
Q 1072 3584 1716 3584 
Q 2034 3584 2315 3537 
Q 2597 3491 2834 3397 
z
" transform="scale(0.015625)"/>
      </defs>
      <use xlink:href="#DejaVuSans-47"/>
      <use xlink:href="#DejaVuSans-6c" x="77.490234"/>
      <use xlink:href="#DejaVuSans-6f" x="105.273438"/>
      <use xlink:href="#DejaVuSans-6d" x="166.455078"/>
      <use xlink:href="#DejaVuSans-65" x="263.867188"/>
      <use xlink:href="#DejaVuSans-72" x="325.390625"/>
      <use xlink:href="#DejaVuSans-75" x="366.503906"/>
      <use xlink:href="#DejaVuSans-6c" x="429.882812"/>
      <use xlink:href="#DejaVuSans-75" x="457.666016"/>
      <use xlink:href="#DejaVuSans-73" x="521.044922"/>
     </g>
    </g>
   </g>
   <g id="matplotlib.axis_2">
    <g id="ytick_1">
     <g id="line2d_1">
      <defs>
       <path id="m51e9709097" d="M 0 0 
L -3.5 0 
" style="stroke: #000000; stroke-width: 0.8"/>
      </defs>
      <g>
       <use xlink:href="#m51e9709097" x="159.274286" y="252" style="stroke: #000000; stroke-width: 0.8"/>
      </g>
     </g>
     <g id="text_5">
      <!-- 0 -->
      <g transform="translate(145.275536 256.179141)scale(0.11 -0.11)">
       <defs>
        <path id="DejaVuSans-30" d="M 2034 4250 
Q 1547 4250 1301 3770 
Q 1056 3291 1056 2328 
Q 1056 1369 1301 889 
Q 1547 409 2034 409 
Q 2525 409 2770 889 
Q 3016 1369 3016 2328 
Q 3016 3291 2770 3770 
Q 2525 4250 2034 4250 
z
M 2034 4750 
Q 2819 4750 3233 4129 
Q 3647 3509 3647 2328 
Q 3647 1150 3233 529 
Q 2819 -91 2034 -91 
Q 1250 -91 836 529 
Q 422 1150 422 2328 
Q 422 3509 836 4129 
Q 1250 4750 2034 4750 
z
" transform="scale(0.015625)"/>
       </defs>
       <use xlink:href="#DejaVuSans-30"/>
      </g>
     </g>
    </g>
    <g id="ytick_2">
     <g id="line2d_2">
      <g>
       <use xlink:href="#m51e9709097" x="159.274286" y="223.008" style="stroke: #000000; stroke-width: 0.8"/>
      </g>
     </g>
     <g id="text_6">
      <!-- 100 -->
      <g transform="translate(131.278036 227.187141)scale(0.11 -0.11)">
       <use xlink:href="#DejaVuSans-31"/>
       <use xlink:href="#DejaVuSans-30" x="63.623047"/>
       <use xlink:href="#DejaVuSans-30" x="127.246094"/>
      </g>
     </g>
    </g>
    <g id="ytick_3">
     <g id="line2d_3">
      <g>
       <use xlink:href="#m51e9709097" x="159.274286" y="194.016" style="stroke: #000000; stroke-width: 0.8"/>
      </g>
     </g>
     <g id="text_7">
      <!-- 200 -->
      <g transform="translate(131.278036 198.195141)scale(0.11 -0.11)">
       <use xlink:href="#DejaVuSans-32"/>
       <use xlink:href="#DejaVuSans-30" x="63.623047"/>
       <use xlink:href="#DejaVuSans-30" x="127.246094"/>
      </g>
     </g>
    </g>
    <g id="ytick_4">
     <g id="line2d_4">
      <g>
       <use xlink:href="#m51e9709097" x="159.274286" y="165.024" style="stroke: #000000; stroke-width: 0.8"/>
      </g>
     </g>
     <g id="text_8">
      <!-- 300 -->
      <g transform="translate(131.278036 169.203141)scale(0.11 -0.11)">
       <use xlink:href="#DejaVuSans-33"/>
       <use xlink:href="#DejaVuSans-30" x="63.623047"/>
       <use xlink:href="#DejaVuSans-30" x="127.246094"/>
      </g>
     </g>
    </g>
    <g id="ytick_5">
     <g id="line2d_5">
      <g>
       <use xlink:href="#m51e9709097" x="159.274286" y="136.032" style="stroke: #000000; stroke-width: 0.8"/>
      </g>
     </g>
     <g id="text_9">
      <!-- 400 -->
      <g transform="translate(131.278036 140.211141)scale(0.11 -0.11)">
       <defs>
        <path id="DejaVuSans-34" d="M 2419 4116 
L 825 1625 
L 2419 1625 
L 2419 4116 
z
M 2253 4666 
L 3047 4666 
L 3047 1625 
L 3713 1625 
L 3713 1100 
L 3047 1100 
L 3047 0 
L 2419 0 
L 2419 1100 
L 313 1100 
L 313 1709 
L 2253 4666 
z
" transform="scale(0.015625)"/>
       </defs>
       <use xlink:href="#DejaVuSans-34"/>
       <use xlink:href="#DejaVuSans-30" x="63.623047"/>
       <use xlink:href="#DejaVuSans-30" x="127.246094"/>
      </g>
     </g>
    </g>
    <g id="ytick_6">
     <g id="line2d_6">
      <g>
       <use xlink:href="#m51e9709097" x="159.274286" y="107.04" style="stroke: #000000; stroke-width: 0.8"/>
      </g>
     </g>
     <g id="text_10">
      <!-- 500 -->
      <g transform="translate(131.278036 111.219141)scale(0.11 -0.11)">
       <defs>
        <path id="DejaVuSans-35" d="M 691 4666 
L 3169 4666 
L 3169 4134 
L 1269 4134 
L 1269 2991 
Q 1406 3038 1543 3061 
Q 1681 3084 1819 3084 
Q 2600 3084 3056 2656 
Q 3513 2228 3513 1497 
Q 3513 744 3044 326 
Q 2575 -91 1722 -91 
Q 1428 -91 1123 -41 
Q 819 9 494 109 
L 494 744 
Q 775 591 1075 516 
Q 1375 441 1709 441 
Q 2250 441 2565 725 
Q 2881 1009 2881 1497 
Q 2881 1984 2565 2268 
Q 2250 2553 1709 2553 
Q 1456 2553 1204 2497 
Q 953 2441 691 2322 
L 691 4666 
z
" transform="scale(0.015625)"/>
       </defs>
       <use xlink:href="#DejaVuSans-35"/>
       <use xlink:href="#DejaVuSans-30" x="63.623047"/>
       <use xlink:href="#DejaVuSans-30" x="127.246094"/>
      </g>
     </g>
    </g>
    <g id="ytick_7">
     <g id="line2d_7">
      <g>
       <use xlink:href="#m51e9709097" x="159.274286" y="78.048" style="stroke: #000000; stroke-width: 0.8"/>
      </g>
     </g>
     <g id="text_11">
      <!-- 600 -->
      <g transform="translate(131.278036 82.227141)scale(0.11 -0.11)">
       <defs>
        <path id="DejaVuSans-36" d="M 2113 2584 
Q 1688 2584 1439 2293 
Q 1191 2003 1191 1497 
Q 1191 994 1439 701 
Q 1688 409 2113 409 
Q 2538 409 2786 701 
Q 3034 994 3034 1497 
Q 3034 2003 2786 2293 
Q 2538 2584 2113 2584 
z
M 3366 4563 
L 3366 3988 
Q 3128 4100 2886 4159 
Q 2644 4219 2406 4219 
Q 1781 4219 1451 3797 
Q 1122 3375 1075 2522 
Q 1259 2794 1537 2939 
Q 1816 3084 2150 3084 
Q 2853 3084 3261 2657 
Q 3669 2231 3669 1497 
Q 3669 778 3244 343 
Q 2819 -91 2113 -91 
Q 1303 -91 875 529 
Q 447 1150 447 2328 
Q 447 3434 972 4092 
Q 1497 4750 2381 4750 
Q 2619 4750 2861 4703 
Q 3103 4656 3366 4563 
z
" transform="scale(0.015625)"/>
       </defs>
       <use xlink:href="#DejaVuSans-36"/>
       <use xlink:href="#DejaVuSans-30" x="63.623047"/>
       <use xlink:href="#DejaVuSans-30" x="127.246094"/>
      </g>
     </g>
    </g>
    <g id="ytick_8">
     <g id="line2d_8">
      <g>
       <use xlink:href="#m51e9709097" x="159.274286" y="49.056" style="stroke: #000000; stroke-width: 0.8"/>
      </g>
     </g>
     <g id="text_12">
      <!-- 700 -->
      <g transform="translate(131.278036 53.235141)scale(0.11 -0.11)">
       <defs>
        <path id="DejaVuSans-37" d="M 525 4666 
L 3525 4666 
L 3525 4397 
L 1831 0 
L 1172 0 
L 2766 4134 
L 525 4134 
L 525 4666 
z
" transform="scale(0.015625)"/>
       </defs>
       <use xlink:href="#DejaVuSans-37"/>
       <use xlink:href="#DejaVuSans-30" x="63.623047"/>
       <use xlink:href="#DejaVuSans-30" x="127.246094"/>
      </g>
     </g>
    </g>
    <g id="text_13">
     <!-- OSN cable length (µm) -->
     <g transform="translate(124.782411 211.634062)rotate(-90)scale(0.12 -0.12)">
      <defs>
       <path id="DejaVuSans-4f" d="M 2522 4238 
Q 1834 4238 1429 3725 
Q 1025 3213 1025 2328 
Q 1025 1447 1429 934 
Q 1834 422 2522 422 
Q 3209 422 3611 934 
Q 4013 1447 4013 2328 
Q 4013 3213 3611 3725 
Q 3209 4238 2522 4238 
z
M 2522 4750 
Q 3503 4750 4090 4092 
Q 4678 3434 4678 2328 
Q 4678 1225 4090 567 
Q 3503 -91 2522 -91 
Q 1538 -91 948 565 
Q 359 1222 359 2328 
Q 359 3434 948 4092 
Q 1538 4750 2522 4750 
z
" transform="scale(0.015625)"/>
       <path id="DejaVuSans-53" d="M 3425 4513 
L 3425 3897 
Q 3066 4069 2747 4153 
Q 2428 4238 2131 4238 
Q 1616 4238 1336 4038 
Q 1056 3838 1056 3469 
Q 1056 3159 1242 3001 
Q 1428 2844 1947 2747 
L 2328 2669 
Q 3034 2534 3370 2195 
Q 3706 1856 3706 1288 
Q 3706 609 3251 259 
Q 2797 -91 1919 -91 
Q 1588 -91 1214 -16 
Q 841 59 441 206 
L 441 856 
Q 825 641 1194 531 
Q 1563 422 1919 422 
Q 2459 422 2753 634 
Q 3047 847 3047 1241 
Q 3047 1584 2836 1778 
Q 2625 1972 2144 2069 
L 1759 2144 
Q 1053 2284 737 2584 
Q 422 2884 422 3419 
Q 422 4038 858 4394 
Q 1294 4750 2059 4750 
Q 2388 4750 2728 4690 
Q 3069 4631 3425 4513 
z
" transform="scale(0.015625)"/>
       <path id="DejaVuSans-4e" d="M 628 4666 
L 1478 4666 
L 3547 763 
L 3547 4666 
L 4159 4666 
L 4159 0 
L 3309 0 
L 1241 3903 
L 1241 0 
L 628 0 
L 628 4666 
z
" transform="scale(0.015625)"/>
       <path id="DejaVuSans-20" transform="scale(0.015625)"/>
       <path id="DejaVuSans-63" d="M 3122 3366 
L 3122 2828 
Q 2878 2963 2633 3030 
Q 2388 3097 2138 3097 
Q 1578 3097 1268 2742 
Q 959 2388 959 1747 
Q 959 1106 1268 751 
Q 1578 397 2138 397 
Q 2388 397 2633 464 
Q 2878 531 3122 666 
L 3122 134 
Q 2881 22 2623 -34 
Q 2366 -91 2075 -91 
Q 1284 -91 818 406 
Q 353 903 353 1747 
Q 353 2603 823 3093 
Q 1294 3584 2113 3584 
Q 2378 3584 2631 3529 
Q 2884 3475 3122 3366 
z
" transform="scale(0.015625)"/>
       <path id="DejaVuSans-61" d="M 2194 1759 
Q 1497 1759 1228 1600 
Q 959 1441 959 1056 
Q 959 750 1161 570 
Q 1363 391 1709 391 
Q 2188 391 2477 730 
Q 2766 1069 2766 1631 
L 2766 1759 
L 2194 1759 
z
M 3341 1997 
L 3341 0 
L 2766 0 
L 2766 531 
Q 2569 213 2275 61 
Q 1981 -91 1556 -91 
Q 1019 -91 701 211 
Q 384 513 384 1019 
Q 384 1609 779 1909 
Q 1175 2209 1959 2209 
L 2766 2209 
L 2766 2266 
Q 2766 2663 2505 2880 
Q 2244 3097 1772 3097 
Q 1472 3097 1187 3025 
Q 903 2953 641 2809 
L 641 3341 
Q 956 3463 1253 3523 
Q 1550 3584 1831 3584 
Q 2591 3584 2966 3190 
Q 3341 2797 3341 1997 
z
" transform="scale(0.015625)"/>
       <path id="DejaVuSans-62" d="M 3116 1747 
Q 3116 2381 2855 2742 
Q 2594 3103 2138 3103 
Q 1681 3103 1420 2742 
Q 1159 2381 1159 1747 
Q 1159 1113 1420 752 
Q 1681 391 2138 391 
Q 2594 391 2855 752 
Q 3116 1113 3116 1747 
z
M 1159 2969 
Q 1341 3281 1617 3432 
Q 1894 3584 2278 3584 
Q 2916 3584 3314 3078 
Q 3713 2572 3713 1747 
Q 3713 922 3314 415 
Q 2916 -91 2278 -91 
Q 1894 -91 1617 61 
Q 1341 213 1159 525 
L 1159 0 
L 581 0 
L 581 4863 
L 1159 4863 
L 1159 2969 
z
" transform="scale(0.015625)"/>
       <path id="DejaVuSans-6e" d="M 3513 2113 
L 3513 0 
L 2938 0 
L 2938 2094 
Q 2938 2591 2744 2837 
Q 2550 3084 2163 3084 
Q 1697 3084 1428 2787 
Q 1159 2491 1159 1978 
L 1159 0 
L 581 0 
L 581 3500 
L 1159 3500 
L 1159 2956 
Q 1366 3272 1645 3428 
Q 1925 3584 2291 3584 
Q 2894 3584 3203 3211 
Q 3513 2838 3513 2113 
z
" transform="scale(0.015625)"/>
       <path id="DejaVuSans-67" d="M 2906 1791 
Q 2906 2416 2648 2759 
Q 2391 3103 1925 3103 
Q 1463 3103 1205 2759 
Q 947 2416 947 1791 
Q 947 1169 1205 825 
Q 1463 481 1925 481 
Q 2391 481 2648 825 
Q 2906 1169 2906 1791 
z
M 3481 434 
Q 3481 -459 3084 -895 
Q 2688 -1331 1869 -1331 
Q 1566 -1331 1297 -1286 
Q 1028 -1241 775 -1147 
L 775 -588 
Q 1028 -725 1275 -790 
Q 1522 -856 1778 -856 
Q 2344 -856 2625 -561 
Q 2906 -266 2906 331 
L 2906 616 
Q 2728 306 2450 153 
Q 2172 0 1784 0 
Q 1141 0 747 490 
Q 353 981 353 1791 
Q 353 2603 747 3093 
Q 1141 3584 1784 3584 
Q 2172 3584 2450 3431 
Q 2728 3278 2906 2969 
L 2906 3500 
L 3481 3500 
L 3481 434 
z
" transform="scale(0.015625)"/>
       <path id="DejaVuSans-74" d="M 1172 4494 
L 1172 3500 
L 2356 3500 
L 2356 3053 
L 1172 3053 
L 1172 1153 
Q 1172 725 1289 603 
Q 1406 481 1766 481 
L 2356 481 
L 2356 0 
L 1766 0 
Q 1100 0 847 248 
Q 594 497 594 1153 
L 594 3053 
L 172 3053 
L 172 3500 
L 594 3500 
L 594 4494 
L 1172 4494 
z
" transform="scale(0.015625)"/>
       <path id="DejaVuSans-68" d="M 3513 2113 
L 3513 0 
L 2938 0 
L 2938 2094 
Q 2938 2591 2744 2837 
Q 2550 3084 2163 3084 
Q 1697 3084 1428 2787 
Q 1159 2491 1159 1978 
L 1159 0 
L 581 0 
L 581 4863 
L 1159 4863 
L 1159 2956 
Q 1366 3272 1645 3428 
Q 1925 3584 2291 3584 
Q 2894 3584 3203 3211 
Q 3513 2838 3513 2113 
z
" transform="scale(0.015625)"/>
       <path id="DejaVuSans-28" d="M 1984 4856 
Q 1566 4138 1362 3434 
Q 1159 2731 1159 2009 
Q 1159 1288 1364 580 
Q 1569 -128 1984 -844 
L 1484 -844 
Q 1016 -109 783 600 
Q 550 1309 550 2009 
Q 550 2706 781 3412 
Q 1013 4119 1484 4856 
L 1984 4856 
z
" transform="scale(0.015625)"/>
       <path id="DejaVuSans-b5" d="M 544 -1331 
L 544 3500 
L 1119 3500 
L 1119 1325 
Q 1119 872 1334 640 
Q 1550 409 1972 409 
Q 2434 409 2667 671 
Q 2900 934 2900 1459 
L 2900 3500 
L 3475 3500 
L 3475 806 
Q 3475 619 3529 530 
Q 3584 441 3700 441 
Q 3728 441 3778 458 
Q 3828 475 3916 513 
L 3916 50 
Q 3788 -22 3673 -56 
Q 3559 -91 3450 -91 
Q 3234 -91 3106 31 
Q 2978 153 2931 403 
Q 2775 156 2548 32 
Q 2322 -91 2016 -91 
Q 1697 -91 1473 31 
Q 1250 153 1119 397 
L 1119 -1331 
L 544 -1331 
z
" transform="scale(0.015625)"/>
       <path id="DejaVuSans-29" d="M 513 4856 
L 1013 4856 
Q 1481 4119 1714 3412 
Q 1947 2706 1947 2009 
Q 1947 1309 1714 600 
Q 1481 -109 1013 -844 
L 513 -844 
Q 928 -128 1133 580 
Q 1338 1288 1338 2009 
Q 1338 2731 1133 3434 
Q 928 4138 513 4856 
z
" transform="scale(0.015625)"/>
      </defs>
      <use xlink:href="#DejaVuSans-4f"/>
      <use xlink:href="#DejaVuSans-53" x="78.710938"/>
      <use xlink:href="#DejaVuSans-4e" x="142.1875"/>
      <use xlink:href="#DejaVuSans-20" x="216.992188"/>
      <use xlink:href="#DejaVuSans-63" x="248.779297"/>
      <use xlink:href="#DejaVuSans-61" x="303.759766"/>
      <use xlink:href="#DejaVuSans-62" x="365.039062"/>
      <use xlink:href="#DejaVuSans-6c" x="428.515625"/>
      <use xlink:href="#DejaVuSans-65" x="456.298828"/>
      <use xlink:href="#DejaVuSans-20" x="517.822266"/>
      <use xlink:href="#DejaVuSans-6c" x="549.609375"/>
      <use xlink:href="#DejaVuSans-65" x="577.392578"/>
      <use xlink:href="#DejaVuSans-6e" x="638.916016"/>
      <use xlink:href="#DejaVuSans-67" x="702.294922"/>
      <use xlink:href="#DejaVuSans-74" x="765.771484"/>
      <use xlink:href="#DejaVuSans-68" x="804.980469"/>
      <use xlink:href="#DejaVuSans-20" x="868.359375"/>
      <use xlink:href="#DejaVuSans-28" x="900.146484"/>
      <use xlink:href="#DejaVuSans-b5" x="939.160156"/>
      <use xlink:href="#DejaVuSans-6d" x="1002.783203"/>
      <use xlink:href="#DejaVuSans-29" x="1100.195312"/>
     </g>
    </g>
   </g>
   <g id="line2d_9">
    <path d="M 176.560149 87.039682 
L 183.405565 87.039682 
" clip-path="url(#p0a768e2a98)" style="fill: none; stroke: #000000; stroke-width: 1.5; stroke-linecap: square"/>
   </g>
   <g id="line2d_10">
    <path d="M 206.616234 175.741818 
L 236.183766 175.741818 
" clip-path="url(#p0a768e2a98)" style="fill: none; stroke: #000000; stroke-width: 1.5; stroke-linecap: square"/>
   </g>
   <g id="line2d_11">
    <path d="M 246.428355 184.553775 
L 279.205931 184.553775 
" clip-path="url(#p0a768e2a98)" style="fill: none; stroke: #000000; stroke-width: 1.5; stroke-linecap: square"/>
   </g>
   <g id="patch_3">
    <path d="M 159.274286 252 
L 159.274286 34.56 
" style="fill: none; stroke: #000000; stroke-width: 0.8; stroke-linejoin: miter; stroke-linecap: square"/>
   </g>
   <g id="PathCollection_1">
    <defs>
     <path id="C0_0_94f8650743" d="M 0 2.5 
C 0.663008 2.5 1.29895 2.236584 1.767767 1.767767 
C 2.236584 1.29895 2.5 0.663008 2.5 -0 
C 2.5 -0.663008 2.236584 -1.29895 1.767767 -1.767767 
C 1.29895 -2.236584 0.663008 -2.5 0 -2.5 
C -0.663008 -2.5 -1.29895 -2.236584 -1.767767 -1.767767 
C -2.236584 -1.29895 -2.5 -0.663008 -2.5 0 
C -2.5 0.663008 -2.236584 1.29895 -1.767767 1.767767 
C -1.29895 2.236584 -0.663008 2.5 0 2.5 
z
"/>
    </defs>
    <g clip-path="url(#p0a768e2a98)">
     <use xlink:href="#C0_0_94f8650743" x="183.275678" y="63.973236" style="fill: #ee82ee"/>
    </g>
    <g clip-path="url(#p0a768e2a98)">
     <use xlink:href="#C0_0_94f8650743" x="177.118151" y="102.146603" style="fill: #ee82ee"/>
    </g>
    <g clip-path="url(#p0a768e2a98)">
     <use xlink:href="#C0_0_94f8650743" x="183.207877" y="64.969727" style="fill: #ee82ee"/>
    </g>
    <g clip-path="url(#p0a768e2a98)">
     <use xlink:href="#C0_0_94f8650743" x="183.441132" y="97.102883" style="fill: #ee82ee"/>
    </g>
    <g clip-path="url(#p0a768e2a98)">
     <use xlink:href="#C0_0_94f8650743" x="181.789011" y="72.452073" style="fill: #ee82ee"/>
    </g>
    <g clip-path="url(#p0a768e2a98)">
     <use xlink:href="#C0_0_94f8650743" x="177.703927" y="96.497458" style="fill: #ee82ee"/>
    </g>
    <g clip-path="url(#p0a768e2a98)">
     <use xlink:href="#C0_0_94f8650743" x="182.665054" y="113.607811" style="fill: #ee82ee"/>
    </g>
    <g clip-path="url(#p0a768e2a98)">
     <use xlink:href="#C0_0_94f8650743" x="180.844405" y="71.474662" style="fill: #ee82ee"/>
    </g>
    <g clip-path="url(#p0a768e2a98)">
     <use xlink:href="#C0_0_94f8650743" x="178.647074" y="145.756805" style="fill: #ee82ee"/>
    </g>
    <g clip-path="url(#p0a768e2a98)">
     <use xlink:href="#C0_0_94f8650743" x="182.646077" y="42.415564" style="fill: #ee82ee"/>
    </g>
   </g>
   <g id="PathCollection_2">
    <defs>
     <path id="C1_0_6ccff1ceb2" d="M 0 2.5 
C 0.663008 2.5 1.29895 2.236584 1.767767 1.767767 
C 2.236584 1.29895 2.5 0.663008 2.5 -0 
C 2.5 -0.663008 2.236584 -1.29895 1.767767 -1.767767 
C 1.29895 -2.236584 0.663008 -2.5 0 -2.5 
C -0.663008 -2.5 -1.29895 -2.236584 -1.767767 -1.767767 
C -2.236584 -1.29895 -2.5 -0.663008 -2.5 0 
C -2.5 0.663008 -2.236584 1.29895 -1.767767 1.767767 
C -1.29895 2.236584 -0.663008 2.5 0 2.5 
z
"/>
    </defs>
    <g clip-path="url(#p0a768e2a98)">
     <use xlink:href="#C1_0_6ccff1ceb2" x="219.596379" y="165.722508" style="fill: #0000ff"/>
    </g>
    <g clip-path="url(#p0a768e2a98)">
     <use xlink:href="#C1_0_6ccff1ceb2" x="221.149684" y="170.933621" style="fill: #0000ff"/>
    </g>
    <g clip-path="url(#p0a768e2a98)">
     <use xlink:href="#C1_0_6ccff1ceb2" x="223.162899" y="178.090414" style="fill: #0000ff"/>
    </g>
    <g clip-path="url(#p0a768e2a98)">
     <use xlink:href="#C1_0_6ccff1ceb2" x="217.727052" y="175.275299" style="fill: #0000ff"/>
    </g>
    <g clip-path="url(#p0a768e2a98)">
     <use xlink:href="#C1_0_6ccff1ceb2" x="224.811942" y="170.029523" style="fill: #0000ff"/>
    </g>
    <g clip-path="url(#p0a768e2a98)">
     <use xlink:href="#C1_0_6ccff1ceb2" x="224.843311" y="182.892309" style="fill: #0000ff"/>
    </g>
    <g clip-path="url(#p0a768e2a98)">
     <use xlink:href="#C1_0_6ccff1ceb2" x="223.571832" y="190.479846" style="fill: #0000ff"/>
    </g>
    <g clip-path="url(#p0a768e2a98)">
     <use xlink:href="#C1_0_6ccff1ceb2" x="219.892573" y="171.857106" style="fill: #0000ff"/>
    </g>
    <g clip-path="url(#p0a768e2a98)">
     <use xlink:href="#C1_0_6ccff1ceb2" x="221.807068" y="172.946336" style="fill: #0000ff"/>
    </g>
    <g clip-path="url(#p0a768e2a98)">
     <use xlink:href="#C1_0_6ccff1ceb2" x="220.033225" y="179.191222" style="fill: #0000ff"/>
    </g>
   </g>
   <g id="PathCollection_3">
    <defs>
     <path id="C2_0_4c57b3ff4f" d="M 0 2.5 
C 0.663008 2.5 1.29895 2.236584 1.767767 1.767767 
C 2.236584 1.29895 2.5 0.663008 2.5 -0 
C 2.5 -0.663008 2.236584 -1.29895 1.767767 -1.767767 
C 1.29895 -2.236584 0.663008 -2.5 0 -2.5 
C -0.663008 -2.5 -1.29895 -2.236584 -1.767767 -1.767767 
C -2.236584 -1.29895 -2.5 -0.663008 -2.5 0 
C -2.5 0.663008 -2.236584 1.29895 -1.767767 1.767767 
C -1.29895 2.236584 -0.663008 2.5 0 2.5 
z
"/>
    </defs>
    <g clip-path="url(#p0a768e2a98)">
     <use xlink:href="#C2_0_4c57b3ff4f" x="264.735161" y="178.875309" style="fill: #00fa9a"/>
    </g>
    <g clip-path="url(#p0a768e2a98)">
     <use xlink:href="#C2_0_4c57b3ff4f" x="261.013898" y="185.136915" style="fill: #00fa9a"/>
    </g>
    <g clip-path="url(#p0a768e2a98)">
     <use xlink:href="#C2_0_4c57b3ff4f" x="263.383912" y="183.107126" style="fill: #00fa9a"/>
    </g>
    <g clip-path="url(#p0a768e2a98)">
     <use xlink:href="#C2_0_4c57b3ff4f" x="263.877551" y="169.911018" style="fill: #00fa9a"/>
    </g>
    <g clip-path="url(#p0a768e2a98)">
     <use xlink:href="#C2_0_4c57b3ff4f" x="263.897011" y="188.235987" style="fill: #00fa9a"/>
    </g>
    <g clip-path="url(#p0a768e2a98)">
     <use xlink:href="#C2_0_4c57b3ff4f" x="266.33047" y="181.420811" style="fill: #00fa9a"/>
    </g>
    <g clip-path="url(#p0a768e2a98)">
     <use xlink:href="#C2_0_4c57b3ff4f" x="261.816398" y="195.514026" style="fill: #00fa9a"/>
    </g>
    <g clip-path="url(#p0a768e2a98)">
     <use xlink:href="#C2_0_4c57b3ff4f" x="262.480104" y="186.783402" style="fill: #00fa9a"/>
    </g>
    <g clip-path="url(#p0a768e2a98)">
     <use xlink:href="#C2_0_4c57b3ff4f" x="260.653247" y="184.487775" style="fill: #00fa9a"/>
    </g>
    <g clip-path="url(#p0a768e2a98)">
     <use xlink:href="#C2_0_4c57b3ff4f" x="264.988432" y="192.065387" style="fill: #00fa9a"/>
    </g>
   </g>
  </g>
 </g>
 <defs>
  <clipPath id="p0a768e2a98">
   <rect x="159.274286" y="34.56" width="124.251429" height="217.44"/>
  </clipPath>
 </defs>
</svg>
