<?xml version="1.0" encoding="utf-8" standalone="no"?>
<!DOCTYPE svg PUBLIC "-//W3C//DTD SVG 1.1//EN"
  "http://www.w3.org/Graphics/SVG/1.1/DTD/svg11.dtd">
<svg xmlns:xlink="http://www.w3.org/1999/xlink" width="432pt" height="432pt" viewBox="0 0 432 432" xmlns="http://www.w3.org/2000/svg" version="1.1">
 <metadata>
  <rdf:RDF xmlns:dc="http://purl.org/dc/elements/1.1/" xmlns:cc="http://creativecommons.org/ns#" xmlns:rdf="http://www.w3.org/1999/02/22-rdf-syntax-ns#">
   <cc:Work>
    <dc:type rdf:resource="http://purl.org/dc/dcmitype/StillImage"/>
    <dc:date>2024-01-28T10:01:40.344238</dc:date>
    <dc:format>image/svg+xml</dc:format>
    <dc:creator>
     <cc:Agent>
      <dc:title>Matplotlib v3.5.1, https://matplotlib.org/</dc:title>
     </cc:Agent>
    </dc:creator>
   </cc:Work>
  </rdf:RDF>
 </metadata>
 <defs>
  <style type="text/css">*{stroke-linejoin: round; stroke-linecap: butt}</style>
 </defs>
 <g id="figure_1">
  <g id="patch_1">
   <path d="M 0 432 
L 432 432 
L 432 0 
L 0 0 
L 0 432 
z
" style="fill: none"/>
  </g>
  <g id="axes_1">
   <g id="patch_2">
    <path d="M 127.315385 378 
L 315.484615 378 
L 315.484615 51.84 
L 127.315385 51.84 
z
" style="fill: #ffffff"/>
   </g>
   <g id="PolyCollection_1">
    <defs>
     <path id="mccf765dfcc" d="M 167.742085 -140.193406 
L 149.611761 -140.193406 
L 148.902986 -140.578965 
L 148.173931 -140.964523 
L 147.427572 -141.350081 
L 146.667175 -141.735639 
L 145.896265 -142.121197 
L 145.118588 -142.506755 
L 144.338065 -142.892314 
L 143.558744 -143.277872 
L 142.784747 -143.66343 
L 142.020218 -144.048988 
L 141.269265 -144.434546 
L 140.535911 -144.820104 
L 139.824046 -145.205663 
L 139.137379 -145.591221 
L 138.479402 -145.976779 
L 137.853365 -146.362337 
L 137.262244 -146.747895 
L 136.708733 -147.133453 
L 136.195233 -147.519011 
L 135.723852 -147.90457 
L 135.296408 -148.290128 
L 134.914435 -148.675686 
L 134.579193 -149.061244 
L 134.291681 -149.446802 
L 134.052642 -149.83236 
L 133.862578 -150.217919 
L 133.72175 -150.603477 
L 133.630189 -150.989035 
L 133.587692 -151.374593 
L 133.593832 -151.760151 
L 133.647952 -152.145709 
L 133.749173 -152.531268 
L 133.896392 -152.916826 
L 134.088298 -153.302384 
L 134.323375 -153.687942 
L 134.599921 -154.0735 
L 134.916068 -154.459058 
L 135.269804 -154.844617 
L 135.659001 -155.230175 
L 136.08144 -155.615733 
L 136.534842 -156.001291 
L 137.016894 -156.386849 
L 137.525272 -156.772407 
L 138.057658 -157.157966 
L 138.611758 -157.543524 
L 139.185301 -157.929082 
L 139.776042 -158.31464 
L 140.381756 -158.700198 
L 141.000221 -159.085756 
L 141.629201 -159.471315 
L 142.266427 -159.856873 
L 142.909575 -160.242431 
L 143.556247 -160.627989 
L 144.203953 -161.013547 
L 144.850103 -161.399105 
L 145.492003 -161.784664 
L 146.126862 -162.170222 
L 146.751805 -162.55578 
L 147.363896 -162.941338 
L 147.960175 -163.326896 
L 148.537694 -163.712454 
L 149.093568 -164.098013 
L 149.625022 -164.483571 
L 150.129449 -164.869129 
L 150.604464 -165.254687 
L 151.047955 -165.640245 
L 151.458135 -166.025803 
L 151.833583 -166.411362 
L 152.173283 -166.79692 
L 152.476649 -167.182478 
L 152.743545 -167.568036 
L 152.974295 -167.953594 
L 153.16968 -168.339152 
L 153.33093 -168.724711 
L 153.459699 -169.110269 
L 153.558041 -169.495827 
L 153.628372 -169.881385 
L 153.673423 -170.266943 
L 153.6962 -170.652501 
L 153.699922 -171.03806 
L 153.687968 -171.423618 
L 153.663824 -171.809176 
L 153.631015 -172.194734 
L 153.593054 -172.580292 
L 153.553379 -172.96585 
L 153.515301 -173.351409 
L 153.48195 -173.736967 
L 153.45623 -174.122525 
L 153.440769 -174.508083 
L 153.437885 -174.893641 
L 153.449554 -175.279199 
L 153.477382 -175.664758 
L 153.522588 -176.050316 
L 153.585991 -176.435874 
L 153.668007 -176.821432 
L 153.768658 -177.20699 
L 153.887577 -177.592548 
L 154.024035 -177.978107 
L 154.176964 -178.363665 
L 163.176882 -178.363665 
L 163.176882 -178.363665 
L 163.329811 -177.978107 
L 163.466269 -177.592548 
L 163.585188 -177.20699 
L 163.685839 -176.821432 
L 163.767855 -176.435874 
L 163.831258 -176.050316 
L 163.876464 -175.664758 
L 163.904292 -175.279199 
L 163.915961 -174.893641 
L 163.913077 -174.508083 
L 163.897616 -174.122525 
L 163.871896 -173.736967 
L 163.838545 -173.351409 
L 163.800467 -172.96585 
L 163.760792 -172.580292 
L 163.722831 -172.194734 
L 163.690022 -171.809176 
L 163.665878 -171.423618 
L 163.653925 -171.03806 
L 163.657646 -170.652501 
L 163.680423 -170.266943 
L 163.725475 -169.881385 
L 163.795805 -169.495827 
L 163.894147 -169.110269 
L 164.022916 -168.724711 
L 164.184166 -168.339152 
L 164.379552 -167.953594 
L 164.610302 -167.568036 
L 164.877198 -167.182478 
L 165.180563 -166.79692 
L 165.520263 -166.411362 
L 165.895711 -166.025803 
L 166.305891 -165.640245 
L 166.749383 -165.254687 
L 167.224397 -164.869129 
L 167.728824 -164.483571 
L 168.260278 -164.098013 
L 168.816152 -163.712454 
L 169.393671 -163.326896 
L 169.98995 -162.941338 
L 170.602042 -162.55578 
L 171.226984 -162.170222 
L 171.861843 -161.784664 
L 172.503743 -161.399105 
L 173.149893 -161.013547 
L 173.797599 -160.627989 
L 174.444271 -160.242431 
L 175.087419 -159.856873 
L 175.724646 -159.471315 
L 176.353626 -159.085756 
L 176.97209 -158.700198 
L 177.577804 -158.31464 
L 178.168546 -157.929082 
L 178.742088 -157.543524 
L 179.296188 -157.157966 
L 179.828574 -156.772407 
L 180.336952 -156.386849 
L 180.819004 -156.001291 
L 181.272406 -155.615733 
L 181.694845 -155.230175 
L 182.084042 -154.844617 
L 182.437778 -154.459058 
L 182.753925 -154.0735 
L 183.030471 -153.687942 
L 183.265548 -153.302384 
L 183.457454 -152.916826 
L 183.604673 -152.531268 
L 183.705894 -152.145709 
L 183.760014 -151.760151 
L 183.766154 -151.374593 
L 183.723657 -150.989035 
L 183.632096 -150.603477 
L 183.491268 -150.217919 
L 183.301204 -149.83236 
L 183.062166 -149.446802 
L 182.774653 -149.061244 
L 182.439411 -148.675686 
L 182.057438 -148.290128 
L 181.629994 -147.90457 
L 181.158613 -147.519011 
L 180.645114 -147.133453 
L 180.091602 -146.747895 
L 179.500481 -146.362337 
L 178.874444 -145.976779 
L 178.216468 -145.591221 
L 177.5298 -145.205663 
L 176.817935 -144.820104 
L 176.084582 -144.434546 
L 175.333629 -144.048988 
L 174.569099 -143.66343 
L 173.795102 -143.277872 
L 173.015781 -142.892314 
L 172.235258 -142.506755 
L 171.457581 -142.121197 
L 170.686671 -141.735639 
L 169.926274 -141.350081 
L 169.179915 -140.964523 
L 168.45086 -140.578965 
L 167.742085 -140.193406 
z
" style="stroke: #4b0082; stroke-width: 1.5"/>
    </defs>
    <g clip-path="url(#pf2964147c8)">
     <use xlink:href="#mccf765dfcc" x="0" y="432" style="fill: #ffffff; stroke: #4b0082; stroke-width: 1.5"/>
    </g>
   </g>
   <g id="PolyCollection_2">
    <defs>
     <path id="m27357ad473" d="M 224.657674 -104.654971 
L 218.142326 -104.654971 
L 217.994856 -105.283925 
L 217.849367 -105.91288 
L 217.705418 -106.541835 
L 217.562331 -107.170789 
L 217.41921 -107.799744 
L 217.274955 -108.428699 
L 217.12829 -109.057653 
L 216.977798 -109.686608 
L 216.821963 -110.315562 
L 216.659219 -110.944517 
L 216.488 -111.573472 
L 216.306795 -112.202426 
L 216.114202 -112.831381 
L 215.908982 -113.460335 
L 215.690109 -114.08929 
L 215.456814 -114.718245 
L 215.208623 -115.347199 
L 214.945387 -115.976154 
L 214.667303 -116.605109 
L 214.374922 -117.234063 
L 214.069156 -117.863018 
L 213.751259 -118.491972 
L 213.422817 -119.120927 
L 213.085711 -119.749882 
L 212.742087 -120.378836 
L 212.394308 -121.007791 
L 212.04491 -121.636745 
L 211.696544 -122.2657 
L 211.351926 -122.894655 
L 211.01378 -123.523609 
L 210.684786 -124.152564 
L 210.367529 -124.781519 
L 210.064448 -125.410473 
L 209.777799 -126.039428 
L 209.509618 -126.668382 
L 209.261692 -127.297337 
L 209.035536 -127.926292 
L 208.832383 -128.555246 
L 208.653175 -129.184201 
L 208.498566 -129.813155 
L 208.368932 -130.44211 
L 208.264384 -131.071065 
L 208.184788 -131.700019 
L 208.129793 -132.328974 
L 208.098854 -132.957929 
L 208.091267 -133.586883 
L 208.106195 -134.215838 
L 208.142696 -134.844792 
L 208.199754 -135.473747 
L 208.2763 -136.102702 
L 208.371231 -136.731656 
L 208.483426 -137.360611 
L 208.611755 -137.989566 
L 208.755087 -138.61852 
L 208.912288 -139.247475 
L 209.082221 -139.876429 
L 209.263736 -140.505384 
L 209.45567 -141.134339 
L 209.656836 -141.763293 
L 209.866016 -142.392248 
L 210.08196 -143.021202 
L 210.303385 -143.650157 
L 210.528978 -144.279112 
L 210.757408 -144.908066 
L 210.987335 -145.537021 
L 211.217432 -146.165976 
L 211.446409 -146.79493 
L 211.673035 -147.423885 
L 211.896171 -148.052839 
L 212.114798 -148.681794 
L 212.328044 -149.310749 
L 212.535215 -149.939703 
L 212.735812 -150.568658 
L 212.929555 -151.197612 
L 213.11639 -151.826567 
L 213.296494 -152.455522 
L 213.470274 -153.084476 
L 213.638352 -153.713431 
L 213.801548 -154.342386 
L 213.960854 -154.97134 
L 214.1174 -155.600295 
L 214.272418 -156.229249 
L 214.427197 -156.858204 
L 214.583042 -157.487159 
L 214.741231 -158.116113 
L 214.902966 -158.745068 
L 215.069337 -159.374022 
L 215.241284 -160.002977 
L 215.419564 -160.631932 
L 215.604725 -161.260886 
L 215.797091 -161.889841 
L 215.99675 -162.518796 
L 216.20355 -163.14775 
L 216.417101 -163.776705 
L 216.636796 -164.405659 
L 216.861817 -165.034614 
L 217.091171 -165.663569 
L 217.32371 -166.292523 
L 217.558169 -166.921478 
L 225.241831 -166.921478 
L 225.241831 -166.921478 
L 225.47629 -166.292523 
L 225.708829 -165.663569 
L 225.938183 -165.034614 
L 226.163204 -164.405659 
L 226.382899 -163.776705 
L 226.59645 -163.14775 
L 226.80325 -162.518796 
L 227.002909 -161.889841 
L 227.195275 -161.260886 
L 227.380436 -160.631932 
L 227.558716 -160.002977 
L 227.730663 -159.374022 
L 227.897034 -158.745068 
L 228.058769 -158.116113 
L 228.216958 -157.487159 
L 228.372803 -156.858204 
L 228.527582 -156.229249 
L 228.6826 -155.600295 
L 228.839146 -154.97134 
L 228.998452 -154.342386 
L 229.161648 -153.713431 
L 229.329726 -153.084476 
L 229.503506 -152.455522 
L 229.68361 -151.826567 
L 229.870445 -151.197612 
L 230.064188 -150.568658 
L 230.264785 -149.939703 
L 230.471956 -149.310749 
L 230.685202 -148.681794 
L 230.903829 -148.052839 
L 231.126965 -147.423885 
L 231.353591 -146.79493 
L 231.582568 -146.165976 
L 231.812665 -145.537021 
L 232.042592 -144.908066 
L 232.271022 -144.279112 
L 232.496615 -143.650157 
L 232.71804 -143.021202 
L 232.933984 -142.392248 
L 233.143164 -141.763293 
L 233.34433 -141.134339 
L 233.536264 -140.505384 
L 233.717779 -139.876429 
L 233.887712 -139.247475 
L 234.044913 -138.61852 
L 234.188245 -137.989566 
L 234.316574 -137.360611 
L 234.428769 -136.731656 
L 234.5237 -136.102702 
L 234.600246 -135.473747 
L 234.657304 -134.844792 
L 234.693805 -134.215838 
L 234.708733 -133.586883 
L 234.701146 -132.957929 
L 234.670207 -132.328974 
L 234.615212 -131.700019 
L 234.535616 -131.071065 
L 234.431068 -130.44211 
L 234.301434 -129.813155 
L 234.146825 -129.184201 
L 233.967617 -128.555246 
L 233.764464 -127.926292 
L 233.538308 -127.297337 
L 233.290382 -126.668382 
L 233.022201 -126.039428 
L 232.735552 -125.410473 
L 232.432471 -124.781519 
L 232.115214 -124.152564 
L 231.78622 -123.523609 
L 231.448074 -122.894655 
L 231.103456 -122.2657 
L 230.75509 -121.636745 
L 230.405692 -121.007791 
L 230.057913 -120.378836 
L 229.714289 -119.749882 
L 229.377183 -119.120927 
L 229.048741 -118.491972 
L 228.730844 -117.863018 
L 228.425078 -117.234063 
L 228.132697 -116.605109 
L 227.854613 -115.976154 
L 227.591377 -115.347199 
L 227.343186 -114.718245 
L 227.109891 -114.08929 
L 226.891018 -113.460335 
L 226.685798 -112.831381 
L 226.493205 -112.202426 
L 226.312 -111.573472 
L 226.140781 -110.944517 
L 225.978037 -110.315562 
L 225.822202 -109.686608 
L 225.67171 -109.057653 
L 225.525045 -108.428699 
L 225.38079 -107.799744 
L 225.237669 -107.170789 
L 225.094582 -106.541835 
L 224.950633 -105.91288 
L 224.805144 -105.283925 
L 224.657674 -104.654971 
z
" style="stroke: #ff8c00; stroke-width: 1.5"/>
    </defs>
    <g clip-path="url(#pf2964147c8)">
     <use xlink:href="#m27357ad473" x="0" y="432" style="fill: #ffffff; stroke: #ff8c00; stroke-width: 1.5"/>
    </g>
   </g>
   <g id="PolyCollection_3">
    <defs>
     <path id="m17dcde3179" d="M 285.286405 -196.863286 
L 282.959749 -196.863286 
L 282.913583 -198.611355 
L 282.865777 -200.359425 
L 282.816159 -202.107494 
L 282.764555 -203.855563 
L 282.71079 -205.603633 
L 282.6547 -207.351702 
L 282.596129 -209.099771 
L 282.534936 -210.847841 
L 282.471001 -212.59591 
L 282.404228 -214.343979 
L 282.33455 -216.092049 
L 282.261931 -217.840118 
L 282.186373 -219.588188 
L 282.107917 -221.336257 
L 282.026643 -223.084326 
L 281.942678 -224.832396 
L 281.85619 -226.580465 
L 281.767393 -228.328534 
L 281.676546 -230.076604 
L 281.583947 -231.824673 
L 281.489939 -233.572742 
L 281.394899 -235.320812 
L 281.299239 -237.068881 
L 281.203397 -238.81695 
L 281.107839 -240.56502 
L 281.013045 -242.313089 
L 280.91951 -244.061158 
L 280.827733 -245.809228 
L 280.738213 -247.557297 
L 280.65144 -249.305366 
L 280.56789 -251.053436 
L 280.488019 -252.801505 
L 280.412256 -254.549574 
L 280.340997 -256.297644 
L 280.274603 -258.045713 
L 280.213391 -259.793782 
L 280.157632 -261.541852 
L 280.107553 -263.289921 
L 280.063327 -265.03799 
L 280.025076 -266.78606 
L 279.992874 -268.534129 
L 279.966739 -270.282199 
L 279.946643 -272.030268 
L 279.932509 -273.778337 
L 279.924218 -275.526407 
L 279.921606 -277.274476 
L 279.924475 -279.022545 
L 279.932594 -280.770615 
L 279.945703 -282.518684 
L 279.963522 -284.266753 
L 279.985751 -286.014823 
L 280.012078 -287.762892 
L 280.042185 -289.510961 
L 280.075749 -291.259031 
L 280.112452 -293.0071 
L 280.15198 -294.755169 
L 280.194029 -296.503239 
L 280.23831 -298.251308 
L 280.284546 -299.999377 
L 280.332483 -301.747447 
L 280.381884 -303.495516 
L 280.432533 -305.243585 
L 280.484237 -306.991655 
L 280.536824 -308.739724 
L 280.590144 -310.487793 
L 280.644069 -312.235863 
L 280.698491 -313.983932 
L 280.753319 -315.732002 
L 280.808482 -317.480071 
L 280.863924 -319.22814 
L 280.919603 -320.97621 
L 280.975488 -322.724279 
L 281.031563 -324.472348 
L 281.087815 -326.220418 
L 281.144244 -327.968487 
L 281.20085 -329.716556 
L 281.257642 -331.464626 
L 281.314629 -333.212695 
L 281.371823 -334.960764 
L 281.429235 -336.708834 
L 281.486877 -338.456903 
L 281.544759 -340.204972 
L 281.60289 -341.953042 
L 281.661277 -343.701111 
L 281.719923 -345.44918 
L 281.778829 -347.19725 
L 281.83799 -348.945319 
L 281.897401 -350.693388 
L 281.957049 -352.441458 
L 282.016919 -354.189527 
L 282.076991 -355.937596 
L 282.13724 -357.685666 
L 282.197635 -359.433735 
L 282.258142 -361.181804 
L 282.31872 -362.929874 
L 282.379322 -364.677943 
L 282.439897 -366.426013 
L 282.500388 -368.174082 
L 282.560733 -369.922151 
L 285.685421 -369.922151 
L 285.685421 -369.922151 
L 285.745766 -368.174082 
L 285.806257 -366.426013 
L 285.866832 -364.677943 
L 285.927434 -362.929874 
L 285.988012 -361.181804 
L 286.048518 -359.433735 
L 286.108914 -357.685666 
L 286.169163 -355.937596 
L 286.229235 -354.189527 
L 286.289105 -352.441458 
L 286.348753 -350.693388 
L 286.408163 -348.945319 
L 286.467325 -347.19725 
L 286.52623 -345.44918 
L 286.584876 -343.701111 
L 286.643263 -341.953042 
L 286.701395 -340.204972 
L 286.759277 -338.456903 
L 286.816919 -336.708834 
L 286.874331 -334.960764 
L 286.931525 -333.212695 
L 286.988512 -331.464626 
L 287.045304 -329.716556 
L 287.10191 -327.968487 
L 287.158338 -326.220418 
L 287.214591 -324.472348 
L 287.270665 -322.724279 
L 287.326551 -320.97621 
L 287.38223 -319.22814 
L 287.437671 -317.480071 
L 287.492835 -315.732002 
L 287.547663 -313.983932 
L 287.602084 -312.235863 
L 287.65601 -310.487793 
L 287.70933 -308.739724 
L 287.761917 -306.991655 
L 287.813621 -305.243585 
L 287.86427 -303.495516 
L 287.913671 -301.747447 
L 287.961608 -299.999377 
L 288.007844 -298.251308 
L 288.052125 -296.503239 
L 288.094174 -294.755169 
L 288.133702 -293.0071 
L 288.170405 -291.259031 
L 288.203969 -289.510961 
L 288.234076 -287.762892 
L 288.260403 -286.014823 
L 288.282632 -284.266753 
L 288.30045 -282.518684 
L 288.31356 -280.770615 
L 288.321679 -279.022545 
L 288.324548 -277.274476 
L 288.321936 -275.526407 
L 288.313644 -273.778337 
L 288.299511 -272.030268 
L 288.279415 -270.282199 
L 288.25328 -268.534129 
L 288.221077 -266.78606 
L 288.182827 -265.03799 
L 288.138601 -263.289921 
L 288.088521 -261.541852 
L 288.032763 -259.793782 
L 287.971551 -258.045713 
L 287.905156 -256.297644 
L 287.833898 -254.549574 
L 287.758135 -252.801505 
L 287.678264 -251.053436 
L 287.594714 -249.305366 
L 287.507941 -247.557297 
L 287.41842 -245.809228 
L 287.326644 -244.061158 
L 287.233109 -242.313089 
L 287.138315 -240.56502 
L 287.042757 -238.81695 
L 286.946915 -237.068881 
L 286.851254 -235.320812 
L 286.756214 -233.572742 
L 286.662206 -231.824673 
L 286.569608 -230.076604 
L 286.478761 -228.328534 
L 286.389964 -226.580465 
L 286.303476 -224.832396 
L 286.219511 -223.084326 
L 286.138237 -221.336257 
L 286.059781 -219.588188 
L 285.984223 -217.840118 
L 285.911604 -216.092049 
L 285.841926 -214.343979 
L 285.775153 -212.59591 
L 285.711218 -210.847841 
L 285.650025 -209.099771 
L 285.591453 -207.351702 
L 285.535363 -205.603633 
L 285.481599 -203.855563 
L 285.429995 -202.107494 
L 285.380377 -200.359425 
L 285.332571 -198.611355 
L 285.286405 -196.863286 
z
" style="stroke: #ee82ee; stroke-width: 1.5"/>
    </defs>
    <g clip-path="url(#pf2964147c8)">
     <use xlink:href="#m17dcde3179" x="0" y="432" style="fill: #ffffff; stroke: #ee82ee; stroke-width: 1.5"/>
    </g>
   </g>
   <g id="matplotlib.axis_1">
    <g id="xtick_1">
     <g id="text_1">
      <!-- V -->
      <g transform="translate(153.888486 395.637812)scale(0.14 -0.14)">
       <defs>
        <path id="DejaVuSans-56" d="M 1831 0 
L 50 4666 
L 709 4666 
L 2188 738 
L 3669 4666 
L 4325 4666 
L 2547 0 
L 1831 0 
z
" transform="scale(0.015625)"/>
       </defs>
       <use xlink:href="#DejaVuSans-56"/>
      </g>
     </g>
    </g>
    <g id="xtick_2">
     <g id="text_2">
      <!-- DM1 -->
      <g transform="translate(205.516562 395.637812)scale(0.14 -0.14)">
       <defs>
        <path id="DejaVuSans-44" d="M 1259 4147 
L 1259 519 
L 2022 519 
Q 2988 519 3436 956 
Q 3884 1394 3884 2338 
Q 3884 3275 3436 3711 
Q 2988 4147 2022 4147 
L 1259 4147 
z
M 628 4666 
L 1925 4666 
Q 3281 4666 3915 4102 
Q 4550 3538 4550 2338 
Q 4550 1131 3912 565 
Q 3275 0 1925 0 
L 628 0 
L 628 4666 
z
" transform="scale(0.015625)"/>
        <path id="DejaVuSans-4d" d="M 628 4666 
L 1569 4666 
L 2759 1491 
L 3956 4666 
L 4897 4666 
L 4897 0 
L 4281 0 
L 4281 4097 
L 3078 897 
L 2444 897 
L 1241 4097 
L 1241 0 
L 628 0 
L 628 4666 
z
" transform="scale(0.015625)"/>
        <path id="DejaVuSans-31" d="M 794 531 
L 1825 531 
L 1825 4091 
L 703 3866 
L 703 4441 
L 1819 4666 
L 2450 4666 
L 2450 531 
L 3481 531 
L 3481 0 
L 794 0 
L 794 531 
z
" transform="scale(0.015625)"/>
       </defs>
       <use xlink:href="#DejaVuSans-44"/>
       <use xlink:href="#DejaVuSans-4d" x="77.001953"/>
       <use xlink:href="#DejaVuSans-31" x="163.28125"/>
      </g>
     </g>
    </g>
    <g id="xtick_3">
     <g id="text_3">
      <!-- Glomerulus 1 -->
      <g transform="translate(237.325889 395.637812)scale(0.14 -0.14)">
       <defs>
        <path id="DejaVuSans-47" d="M 3809 666 
L 3809 1919 
L 2778 1919 
L 2778 2438 
L 4434 2438 
L 4434 434 
Q 4069 175 3628 42 
Q 3188 -91 2688 -91 
Q 1594 -91 976 548 
Q 359 1188 359 2328 
Q 359 3472 976 4111 
Q 1594 4750 2688 4750 
Q 3144 4750 3555 4637 
Q 3966 4525 4313 4306 
L 4313 3634 
Q 3963 3931 3569 4081 
Q 3175 4231 2741 4231 
Q 1884 4231 1454 3753 
Q 1025 3275 1025 2328 
Q 1025 1384 1454 906 
Q 1884 428 2741 428 
Q 3075 428 3337 486 
Q 3600 544 3809 666 
z
" transform="scale(0.015625)"/>
        <path id="DejaVuSans-6c" d="M 603 4863 
L 1178 4863 
L 1178 0 
L 603 0 
L 603 4863 
z
" transform="scale(0.015625)"/>
        <path id="DejaVuSans-6f" d="M 1959 3097 
Q 1497 3097 1228 2736 
Q 959 2375 959 1747 
Q 959 1119 1226 758 
Q 1494 397 1959 397 
Q 2419 397 2687 759 
Q 2956 1122 2956 1747 
Q 2956 2369 2687 2733 
Q 2419 3097 1959 3097 
z
M 1959 3584 
Q 2709 3584 3137 3096 
Q 3566 2609 3566 1747 
Q 3566 888 3137 398 
Q 2709 -91 1959 -91 
Q 1206 -91 779 398 
Q 353 888 353 1747 
Q 353 2609 779 3096 
Q 1206 3584 1959 3584 
z
" transform="scale(0.015625)"/>
        <path id="DejaVuSans-6d" d="M 3328 2828 
Q 3544 3216 3844 3400 
Q 4144 3584 4550 3584 
Q 5097 3584 5394 3201 
Q 5691 2819 5691 2113 
L 5691 0 
L 5113 0 
L 5113 2094 
Q 5113 2597 4934 2840 
Q 4756 3084 4391 3084 
Q 3944 3084 3684 2787 
Q 3425 2491 3425 1978 
L 3425 0 
L 2847 0 
L 2847 2094 
Q 2847 2600 2669 2842 
Q 2491 3084 2119 3084 
Q 1678 3084 1418 2786 
Q 1159 2488 1159 1978 
L 1159 0 
L 581 0 
L 581 3500 
L 1159 3500 
L 1159 2956 
Q 1356 3278 1631 3431 
Q 1906 3584 2284 3584 
Q 2666 3584 2933 3390 
Q 3200 3197 3328 2828 
z
" transform="scale(0.015625)"/>
        <path id="DejaVuSans-65" d="M 3597 1894 
L 3597 1613 
L 953 1613 
Q 991 1019 1311 708 
Q 1631 397 2203 397 
Q 2534 397 2845 478 
Q 3156 559 3463 722 
L 3463 178 
Q 3153 47 2828 -22 
Q 2503 -91 2169 -91 
Q 1331 -91 842 396 
Q 353 884 353 1716 
Q 353 2575 817 3079 
Q 1281 3584 2069 3584 
Q 2775 3584 3186 3129 
Q 3597 2675 3597 1894 
z
M 3022 2063 
Q 3016 2534 2758 2815 
Q 2500 3097 2075 3097 
Q 1594 3097 1305 2825 
Q 1016 2553 972 2059 
L 3022 2063 
z
" transform="scale(0.015625)"/>
        <path id="DejaVuSans-72" d="M 2631 2963 
Q 2534 3019 2420 3045 
Q 2306 3072 2169 3072 
Q 1681 3072 1420 2755 
Q 1159 2438 1159 1844 
L 1159 0 
L 581 0 
L 581 3500 
L 1159 3500 
L 1159 2956 
Q 1341 3275 1631 3429 
Q 1922 3584 2338 3584 
Q 2397 3584 2469 3576 
Q 2541 3569 2628 3553 
L 2631 2963 
z
" transform="scale(0.015625)"/>
        <path id="DejaVuSans-75" d="M 544 1381 
L 544 3500 
L 1119 3500 
L 1119 1403 
Q 1119 906 1312 657 
Q 1506 409 1894 409 
Q 2359 409 2629 706 
Q 2900 1003 2900 1516 
L 2900 3500 
L 3475 3500 
L 3475 0 
L 2900 0 
L 2900 538 
Q 2691 219 2414 64 
Q 2138 -91 1772 -91 
Q 1169 -91 856 284 
Q 544 659 544 1381 
z
M 1991 3584 
L 1991 3584 
z
" transform="scale(0.015625)"/>
        <path id="DejaVuSans-73" d="M 2834 3397 
L 2834 2853 
Q 2591 2978 2328 3040 
Q 2066 3103 1784 3103 
Q 1356 3103 1142 2972 
Q 928 2841 928 2578 
Q 928 2378 1081 2264 
Q 1234 2150 1697 2047 
L 1894 2003 
Q 2506 1872 2764 1633 
Q 3022 1394 3022 966 
Q 3022 478 2636 193 
Q 2250 -91 1575 -91 
Q 1294 -91 989 -36 
Q 684 19 347 128 
L 347 722 
Q 666 556 975 473 
Q 1284 391 1588 391 
Q 1994 391 2212 530 
Q 2431 669 2431 922 
Q 2431 1156 2273 1281 
Q 2116 1406 1581 1522 
L 1381 1569 
Q 847 1681 609 1914 
Q 372 2147 372 2553 
Q 372 3047 722 3315 
Q 1072 3584 1716 3584 
Q 2034 3584 2315 3537 
Q 2597 3491 2834 3397 
z
" transform="scale(0.015625)"/>
        <path id="DejaVuSans-20" transform="scale(0.015625)"/>
       </defs>
       <use xlink:href="#DejaVuSans-47"/>
       <use xlink:href="#DejaVuSans-6c" x="77.490234"/>
       <use xlink:href="#DejaVuSans-6f" x="105.273438"/>
       <use xlink:href="#DejaVuSans-6d" x="166.455078"/>
       <use xlink:href="#DejaVuSans-65" x="263.867188"/>
       <use xlink:href="#DejaVuSans-72" x="325.390625"/>
       <use xlink:href="#DejaVuSans-75" x="366.503906"/>
       <use xlink:href="#DejaVuSans-6c" x="429.882812"/>
       <use xlink:href="#DejaVuSans-75" x="457.666016"/>
       <use xlink:href="#DejaVuSans-73" x="521.044922"/>
       <use xlink:href="#DejaVuSans-20" x="573.144531"/>
       <use xlink:href="#DejaVuSans-31" x="604.931641"/>
      </g>
     </g>
    </g>
    <g id="text_4">
     <!-- Glomerulus -->
     <g transform="translate(175.55 414.706875)scale(0.16 -0.16)">
      <use xlink:href="#DejaVuSans-47"/>
      <use xlink:href="#DejaVuSans-6c" x="77.490234"/>
      <use xlink:href="#DejaVuSans-6f" x="105.273438"/>
      <use xlink:href="#DejaVuSans-6d" x="166.455078"/>
      <use xlink:href="#DejaVuSans-65" x="263.867188"/>
      <use xlink:href="#DejaVuSans-72" x="325.390625"/>
      <use xlink:href="#DejaVuSans-75" x="366.503906"/>
      <use xlink:href="#DejaVuSans-6c" x="429.882812"/>
      <use xlink:href="#DejaVuSans-75" x="457.666016"/>
      <use xlink:href="#DejaVuSans-73" x="521.044922"/>
     </g>
    </g>
   </g>
   <g id="matplotlib.axis_2">
    <g id="ytick_1">
     <g id="line2d_1">
      <defs>
       <path id="md9fe3c5426" d="M 0 0 
L -3.5 0 
" style="stroke: #000000; stroke-width: 0.8"/>
      </defs>
      <g>
       <use xlink:href="#md9fe3c5426" x="127.315385" y="378" style="stroke: #000000; stroke-width: 0.8"/>
      </g>
     </g>
     <g id="text_5">
      <!-- 0 -->
      <g transform="translate(111.407885 383.318906)scale(0.14 -0.14)">
       <defs>
        <path id="DejaVuSans-30" d="M 2034 4250 
Q 1547 4250 1301 3770 
Q 1056 3291 1056 2328 
Q 1056 1369 1301 889 
Q 1547 409 2034 409 
Q 2525 409 2770 889 
Q 3016 1369 3016 2328 
Q 3016 3291 2770 3770 
Q 2525 4250 2034 4250 
z
M 2034 4750 
Q 2819 4750 3233 4129 
Q 3647 3509 3647 2328 
Q 3647 1150 3233 529 
Q 2819 -91 2034 -91 
Q 1250 -91 836 529 
Q 422 1150 422 2328 
Q 422 3509 836 4129 
Q 1250 4750 2034 4750 
z
" transform="scale(0.015625)"/>
       </defs>
       <use xlink:href="#DejaVuSans-30"/>
      </g>
     </g>
    </g>
    <g id="ytick_2">
     <g id="line2d_2">
      <g>
       <use xlink:href="#md9fe3c5426" x="127.315385" y="327.821538" style="stroke: #000000; stroke-width: 0.8"/>
      </g>
     </g>
     <g id="text_6">
      <!-- 100 -->
      <g transform="translate(93.592885 333.140445)scale(0.14 -0.14)">
       <use xlink:href="#DejaVuSans-31"/>
       <use xlink:href="#DejaVuSans-30" x="63.623047"/>
       <use xlink:href="#DejaVuSans-30" x="127.246094"/>
      </g>
     </g>
    </g>
    <g id="ytick_3">
     <g id="line2d_3">
      <g>
       <use xlink:href="#md9fe3c5426" x="127.315385" y="277.643077" style="stroke: #000000; stroke-width: 0.8"/>
      </g>
     </g>
     <g id="text_7">
      <!-- 200 -->
      <g transform="translate(93.592885 282.961983)scale(0.14 -0.14)">
       <defs>
        <path id="DejaVuSans-32" d="M 1228 531 
L 3431 531 
L 3431 0 
L 469 0 
L 469 531 
Q 828 903 1448 1529 
Q 2069 2156 2228 2338 
Q 2531 2678 2651 2914 
Q 2772 3150 2772 3378 
Q 2772 3750 2511 3984 
Q 2250 4219 1831 4219 
Q 1534 4219 1204 4116 
Q 875 4013 500 3803 
L 500 4441 
Q 881 4594 1212 4672 
Q 1544 4750 1819 4750 
Q 2544 4750 2975 4387 
Q 3406 4025 3406 3419 
Q 3406 3131 3298 2873 
Q 3191 2616 2906 2266 
Q 2828 2175 2409 1742 
Q 1991 1309 1228 531 
z
" transform="scale(0.015625)"/>
       </defs>
       <use xlink:href="#DejaVuSans-32"/>
       <use xlink:href="#DejaVuSans-30" x="63.623047"/>
       <use xlink:href="#DejaVuSans-30" x="127.246094"/>
      </g>
     </g>
    </g>
    <g id="ytick_4">
     <g id="line2d_4">
      <g>
       <use xlink:href="#md9fe3c5426" x="127.315385" y="227.464615" style="stroke: #000000; stroke-width: 0.8"/>
      </g>
     </g>
     <g id="text_8">
      <!-- 300 -->
      <g transform="translate(93.592885 232.783522)scale(0.14 -0.14)">
       <defs>
        <path id="DejaVuSans-33" d="M 2597 2516 
Q 3050 2419 3304 2112 
Q 3559 1806 3559 1356 
Q 3559 666 3084 287 
Q 2609 -91 1734 -91 
Q 1441 -91 1130 -33 
Q 819 25 488 141 
L 488 750 
Q 750 597 1062 519 
Q 1375 441 1716 441 
Q 2309 441 2620 675 
Q 2931 909 2931 1356 
Q 2931 1769 2642 2001 
Q 2353 2234 1838 2234 
L 1294 2234 
L 1294 2753 
L 1863 2753 
Q 2328 2753 2575 2939 
Q 2822 3125 2822 3475 
Q 2822 3834 2567 4026 
Q 2313 4219 1838 4219 
Q 1578 4219 1281 4162 
Q 984 4106 628 3988 
L 628 4550 
Q 988 4650 1302 4700 
Q 1616 4750 1894 4750 
Q 2613 4750 3031 4423 
Q 3450 4097 3450 3541 
Q 3450 3153 3228 2886 
Q 3006 2619 2597 2516 
z
" transform="scale(0.015625)"/>
       </defs>
       <use xlink:href="#DejaVuSans-33"/>
       <use xlink:href="#DejaVuSans-30" x="63.623047"/>
       <use xlink:href="#DejaVuSans-30" x="127.246094"/>
      </g>
     </g>
    </g>
    <g id="ytick_5">
     <g id="line2d_5">
      <g>
       <use xlink:href="#md9fe3c5426" x="127.315385" y="177.286154" style="stroke: #000000; stroke-width: 0.8"/>
      </g>
     </g>
     <g id="text_9">
      <!-- 400 -->
      <g transform="translate(93.592885 182.60506)scale(0.14 -0.14)">
       <defs>
        <path id="DejaVuSans-34" d="M 2419 4116 
L 825 1625 
L 2419 1625 
L 2419 4116 
z
M 2253 4666 
L 3047 4666 
L 3047 1625 
L 3713 1625 
L 3713 1100 
L 3047 1100 
L 3047 0 
L 2419 0 
L 2419 1100 
L 313 1100 
L 313 1709 
L 2253 4666 
z
" transform="scale(0.015625)"/>
       </defs>
       <use xlink:href="#DejaVuSans-34"/>
       <use xlink:href="#DejaVuSans-30" x="63.623047"/>
       <use xlink:href="#DejaVuSans-30" x="127.246094"/>
      </g>
     </g>
    </g>
    <g id="ytick_6">
     <g id="line2d_6">
      <g>
       <use xlink:href="#md9fe3c5426" x="127.315385" y="127.107692" style="stroke: #000000; stroke-width: 0.8"/>
      </g>
     </g>
     <g id="text_10">
      <!-- 500 -->
      <g transform="translate(93.592885 132.426599)scale(0.14 -0.14)">
       <defs>
        <path id="DejaVuSans-35" d="M 691 4666 
L 3169 4666 
L 3169 4134 
L 1269 4134 
L 1269 2991 
Q 1406 3038 1543 3061 
Q 1681 3084 1819 3084 
Q 2600 3084 3056 2656 
Q 3513 2228 3513 1497 
Q 3513 744 3044 326 
Q 2575 -91 1722 -91 
Q 1428 -91 1123 -41 
Q 819 9 494 109 
L 494 744 
Q 775 591 1075 516 
Q 1375 441 1709 441 
Q 2250 441 2565 725 
Q 2881 1009 2881 1497 
Q 2881 1984 2565 2268 
Q 2250 2553 1709 2553 
Q 1456 2553 1204 2497 
Q 953 2441 691 2322 
L 691 4666 
z
" transform="scale(0.015625)"/>
       </defs>
       <use xlink:href="#DejaVuSans-35"/>
       <use xlink:href="#DejaVuSans-30" x="63.623047"/>
       <use xlink:href="#DejaVuSans-30" x="127.246094"/>
      </g>
     </g>
    </g>
    <g id="ytick_7">
     <g id="line2d_7">
      <g>
       <use xlink:href="#md9fe3c5426" x="127.315385" y="76.929231" style="stroke: #000000; stroke-width: 0.8"/>
      </g>
     </g>
     <g id="text_11">
      <!-- 600 -->
      <g transform="translate(93.592885 82.248137)scale(0.14 -0.14)">
       <defs>
        <path id="DejaVuSans-36" d="M 2113 2584 
Q 1688 2584 1439 2293 
Q 1191 2003 1191 1497 
Q 1191 994 1439 701 
Q 1688 409 2113 409 
Q 2538 409 2786 701 
Q 3034 994 3034 1497 
Q 3034 2003 2786 2293 
Q 2538 2584 2113 2584 
z
M 3366 4563 
L 3366 3988 
Q 3128 4100 2886 4159 
Q 2644 4219 2406 4219 
Q 1781 4219 1451 3797 
Q 1122 3375 1075 2522 
Q 1259 2794 1537 2939 
Q 1816 3084 2150 3084 
Q 2853 3084 3261 2657 
Q 3669 2231 3669 1497 
Q 3669 778 3244 343 
Q 2819 -91 2113 -91 
Q 1303 -91 875 529 
Q 447 1150 447 2328 
Q 447 3434 972 4092 
Q 1497 4750 2381 4750 
Q 2619 4750 2861 4703 
Q 3103 4656 3366 4563 
z
" transform="scale(0.015625)"/>
       </defs>
       <use xlink:href="#DejaVuSans-36"/>
       <use xlink:href="#DejaVuSans-30" x="63.623047"/>
       <use xlink:href="#DejaVuSans-30" x="127.246094"/>
      </g>
     </g>
    </g>
    <g id="text_12">
     <!-- OSN cable length in glomerulus (µm) -->
     <g transform="translate(86.265385 363.16625)rotate(-90)scale(0.16 -0.16)">
      <defs>
       <path id="DejaVuSans-4f" d="M 2522 4238 
Q 1834 4238 1429 3725 
Q 1025 3213 1025 2328 
Q 1025 1447 1429 934 
Q 1834 422 2522 422 
Q 3209 422 3611 934 
Q 4013 1447 4013 2328 
Q 4013 3213 3611 3725 
Q 3209 4238 2522 4238 
z
M 2522 4750 
Q 3503 4750 4090 4092 
Q 4678 3434 4678 2328 
Q 4678 1225 4090 567 
Q 3503 -91 2522 -91 
Q 1538 -91 948 565 
Q 359 1222 359 2328 
Q 359 3434 948 4092 
Q 1538 4750 2522 4750 
z
" transform="scale(0.015625)"/>
       <path id="DejaVuSans-53" d="M 3425 4513 
L 3425 3897 
Q 3066 4069 2747 4153 
Q 2428 4238 2131 4238 
Q 1616 4238 1336 4038 
Q 1056 3838 1056 3469 
Q 1056 3159 1242 3001 
Q 1428 2844 1947 2747 
L 2328 2669 
Q 3034 2534 3370 2195 
Q 3706 1856 3706 1288 
Q 3706 609 3251 259 
Q 2797 -91 1919 -91 
Q 1588 -91 1214 -16 
Q 841 59 441 206 
L 441 856 
Q 825 641 1194 531 
Q 1563 422 1919 422 
Q 2459 422 2753 634 
Q 3047 847 3047 1241 
Q 3047 1584 2836 1778 
Q 2625 1972 2144 2069 
L 1759 2144 
Q 1053 2284 737 2584 
Q 422 2884 422 3419 
Q 422 4038 858 4394 
Q 1294 4750 2059 4750 
Q 2388 4750 2728 4690 
Q 3069 4631 3425 4513 
z
" transform="scale(0.015625)"/>
       <path id="DejaVuSans-4e" d="M 628 4666 
L 1478 4666 
L 3547 763 
L 3547 4666 
L 4159 4666 
L 4159 0 
L 3309 0 
L 1241 3903 
L 1241 0 
L 628 0 
L 628 4666 
z
" transform="scale(0.015625)"/>
       <path id="DejaVuSans-63" d="M 3122 3366 
L 3122 2828 
Q 2878 2963 2633 3030 
Q 2388 3097 2138 3097 
Q 1578 3097 1268 2742 
Q 959 2388 959 1747 
Q 959 1106 1268 751 
Q 1578 397 2138 397 
Q 2388 397 2633 464 
Q 2878 531 3122 666 
L 3122 134 
Q 2881 22 2623 -34 
Q 2366 -91 2075 -91 
Q 1284 -91 818 406 
Q 353 903 353 1747 
Q 353 2603 823 3093 
Q 1294 3584 2113 3584 
Q 2378 3584 2631 3529 
Q 2884 3475 3122 3366 
z
" transform="scale(0.015625)"/>
       <path id="DejaVuSans-61" d="M 2194 1759 
Q 1497 1759 1228 1600 
Q 959 1441 959 1056 
Q 959 750 1161 570 
Q 1363 391 1709 391 
Q 2188 391 2477 730 
Q 2766 1069 2766 1631 
L 2766 1759 
L 2194 1759 
z
M 3341 1997 
L 3341 0 
L 2766 0 
L 2766 531 
Q 2569 213 2275 61 
Q 1981 -91 1556 -91 
Q 1019 -91 701 211 
Q 384 513 384 1019 
Q 384 1609 779 1909 
Q 1175 2209 1959 2209 
L 2766 2209 
L 2766 2266 
Q 2766 2663 2505 2880 
Q 2244 3097 1772 3097 
Q 1472 3097 1187 3025 
Q 903 2953 641 2809 
L 641 3341 
Q 956 3463 1253 3523 
Q 1550 3584 1831 3584 
Q 2591 3584 2966 3190 
Q 3341 2797 3341 1997 
z
" transform="scale(0.015625)"/>
       <path id="DejaVuSans-62" d="M 3116 1747 
Q 3116 2381 2855 2742 
Q 2594 3103 2138 3103 
Q 1681 3103 1420 2742 
Q 1159 2381 1159 1747 
Q 1159 1113 1420 752 
Q 1681 391 2138 391 
Q 2594 391 2855 752 
Q 3116 1113 3116 1747 
z
M 1159 2969 
Q 1341 3281 1617 3432 
Q 1894 3584 2278 3584 
Q 2916 3584 3314 3078 
Q 3713 2572 3713 1747 
Q 3713 922 3314 415 
Q 2916 -91 2278 -91 
Q 1894 -91 1617 61 
Q 1341 213 1159 525 
L 1159 0 
L 581 0 
L 581 4863 
L 1159 4863 
L 1159 2969 
z
" transform="scale(0.015625)"/>
       <path id="DejaVuSans-6e" d="M 3513 2113 
L 3513 0 
L 2938 0 
L 2938 2094 
Q 2938 2591 2744 2837 
Q 2550 3084 2163 3084 
Q 1697 3084 1428 2787 
Q 1159 2491 1159 1978 
L 1159 0 
L 581 0 
L 581 3500 
L 1159 3500 
L 1159 2956 
Q 1366 3272 1645 3428 
Q 1925 3584 2291 3584 
Q 2894 3584 3203 3211 
Q 3513 2838 3513 2113 
z
" transform="scale(0.015625)"/>
       <path id="DejaVuSans-67" d="M 2906 1791 
Q 2906 2416 2648 2759 
Q 2391 3103 1925 3103 
Q 1463 3103 1205 2759 
Q 947 2416 947 1791 
Q 947 1169 1205 825 
Q 1463 481 1925 481 
Q 2391 481 2648 825 
Q 2906 1169 2906 1791 
z
M 3481 434 
Q 3481 -459 3084 -895 
Q 2688 -1331 1869 -1331 
Q 1566 -1331 1297 -1286 
Q 1028 -1241 775 -1147 
L 775 -588 
Q 1028 -725 1275 -790 
Q 1522 -856 1778 -856 
Q 2344 -856 2625 -561 
Q 2906 -266 2906 331 
L 2906 616 
Q 2728 306 2450 153 
Q 2172 0 1784 0 
Q 1141 0 747 490 
Q 353 981 353 1791 
Q 353 2603 747 3093 
Q 1141 3584 1784 3584 
Q 2172 3584 2450 3431 
Q 2728 3278 2906 2969 
L 2906 3500 
L 3481 3500 
L 3481 434 
z
" transform="scale(0.015625)"/>
       <path id="DejaVuSans-74" d="M 1172 4494 
L 1172 3500 
L 2356 3500 
L 2356 3053 
L 1172 3053 
L 1172 1153 
Q 1172 725 1289 603 
Q 1406 481 1766 481 
L 2356 481 
L 2356 0 
L 1766 0 
Q 1100 0 847 248 
Q 594 497 594 1153 
L 594 3053 
L 172 3053 
L 172 3500 
L 594 3500 
L 594 4494 
L 1172 4494 
z
" transform="scale(0.015625)"/>
       <path id="DejaVuSans-68" d="M 3513 2113 
L 3513 0 
L 2938 0 
L 2938 2094 
Q 2938 2591 2744 2837 
Q 2550 3084 2163 3084 
Q 1697 3084 1428 2787 
Q 1159 2491 1159 1978 
L 1159 0 
L 581 0 
L 581 4863 
L 1159 4863 
L 1159 2956 
Q 1366 3272 1645 3428 
Q 1925 3584 2291 3584 
Q 2894 3584 3203 3211 
Q 3513 2838 3513 2113 
z
" transform="scale(0.015625)"/>
       <path id="DejaVuSans-69" d="M 603 3500 
L 1178 3500 
L 1178 0 
L 603 0 
L 603 3500 
z
M 603 4863 
L 1178 4863 
L 1178 4134 
L 603 4134 
L 603 4863 
z
" transform="scale(0.015625)"/>
       <path id="DejaVuSans-28" d="M 1984 4856 
Q 1566 4138 1362 3434 
Q 1159 2731 1159 2009 
Q 1159 1288 1364 580 
Q 1569 -128 1984 -844 
L 1484 -844 
Q 1016 -109 783 600 
Q 550 1309 550 2009 
Q 550 2706 781 3412 
Q 1013 4119 1484 4856 
L 1984 4856 
z
" transform="scale(0.015625)"/>
       <path id="DejaVuSans-b5" d="M 544 -1331 
L 544 3500 
L 1119 3500 
L 1119 1325 
Q 1119 872 1334 640 
Q 1550 409 1972 409 
Q 2434 409 2667 671 
Q 2900 934 2900 1459 
L 2900 3500 
L 3475 3500 
L 3475 806 
Q 3475 619 3529 530 
Q 3584 441 3700 441 
Q 3728 441 3778 458 
Q 3828 475 3916 513 
L 3916 50 
Q 3788 -22 3673 -56 
Q 3559 -91 3450 -91 
Q 3234 -91 3106 31 
Q 2978 153 2931 403 
Q 2775 156 2548 32 
Q 2322 -91 2016 -91 
Q 1697 -91 1473 31 
Q 1250 153 1119 397 
L 1119 -1331 
L 544 -1331 
z
" transform="scale(0.015625)"/>
       <path id="DejaVuSans-29" d="M 513 4856 
L 1013 4856 
Q 1481 4119 1714 3412 
Q 1947 2706 1947 2009 
Q 1947 1309 1714 600 
Q 1481 -109 1013 -844 
L 513 -844 
Q 928 -128 1133 580 
Q 1338 1288 1338 2009 
Q 1338 2731 1133 3434 
Q 928 4138 513 4856 
z
" transform="scale(0.015625)"/>
      </defs>
      <use xlink:href="#DejaVuSans-4f"/>
      <use xlink:href="#DejaVuSans-53" x="78.710938"/>
      <use xlink:href="#DejaVuSans-4e" x="142.1875"/>
      <use xlink:href="#DejaVuSans-20" x="216.992188"/>
      <use xlink:href="#DejaVuSans-63" x="248.779297"/>
      <use xlink:href="#DejaVuSans-61" x="303.759766"/>
      <use xlink:href="#DejaVuSans-62" x="365.039062"/>
      <use xlink:href="#DejaVuSans-6c" x="428.515625"/>
      <use xlink:href="#DejaVuSans-65" x="456.298828"/>
      <use xlink:href="#DejaVuSans-20" x="517.822266"/>
      <use xlink:href="#DejaVuSans-6c" x="549.609375"/>
      <use xlink:href="#DejaVuSans-65" x="577.392578"/>
      <use xlink:href="#DejaVuSans-6e" x="638.916016"/>
      <use xlink:href="#DejaVuSans-67" x="702.294922"/>
      <use xlink:href="#DejaVuSans-74" x="765.771484"/>
      <use xlink:href="#DejaVuSans-68" x="804.980469"/>
      <use xlink:href="#DejaVuSans-20" x="868.359375"/>
      <use xlink:href="#DejaVuSans-69" x="900.146484"/>
      <use xlink:href="#DejaVuSans-6e" x="927.929688"/>
      <use xlink:href="#DejaVuSans-20" x="991.308594"/>
      <use xlink:href="#DejaVuSans-67" x="1023.095703"/>
      <use xlink:href="#DejaVuSans-6c" x="1086.572266"/>
      <use xlink:href="#DejaVuSans-6f" x="1114.355469"/>
      <use xlink:href="#DejaVuSans-6d" x="1175.537109"/>
      <use xlink:href="#DejaVuSans-65" x="1272.949219"/>
      <use xlink:href="#DejaVuSans-72" x="1334.472656"/>
      <use xlink:href="#DejaVuSans-75" x="1375.585938"/>
      <use xlink:href="#DejaVuSans-6c" x="1438.964844"/>
      <use xlink:href="#DejaVuSans-75" x="1466.748047"/>
      <use xlink:href="#DejaVuSans-73" x="1530.126953"/>
      <use xlink:href="#DejaVuSans-20" x="1582.226562"/>
      <use xlink:href="#DejaVuSans-28" x="1614.013672"/>
      <use xlink:href="#DejaVuSans-b5" x="1653.027344"/>
      <use xlink:href="#DejaVuSans-6d" x="1716.650391"/>
      <use xlink:href="#DejaVuSans-29" x="1814.0625"/>
     </g>
    </g>
   </g>
   <g id="line2d_8">
    <path d="M 135.503875 277.139704 
L 181.849971 277.139704 
" clip-path="url(#pf2964147c8)" style="fill: none; stroke: #000000; stroke-width: 1.5; stroke-linecap: square"/>
   </g>
   <g id="line2d_9">
    <path d="M 208.407537 295.846205 
L 234.392463 295.846205 
" clip-path="url(#pf2964147c8)" style="fill: none; stroke: #000000; stroke-width: 1.5; stroke-linecap: square"/>
   </g>
   <g id="line2d_10">
    <path d="M 280.027124 145.501918 
L 288.21903 145.501918 
" clip-path="url(#pf2964147c8)" style="fill: none; stroke: #000000; stroke-width: 1.5; stroke-linecap: square"/>
   </g>
   <g id="patch_3">
    <path d="M 127.315385 378 
L 127.315385 51.84 
" style="fill: none; stroke: #000000; stroke-width: 0.8; stroke-linejoin: miter; stroke-linecap: square"/>
   </g>
   <g id="PathCollection_1">
    <defs>
     <path id="C0_0_33c42d0353" d="M 0 2.5 
C 0.663008 2.5 1.29895 2.236584 1.767767 1.767767 
C 2.236584 1.29895 2.5 0.663008 2.5 -0 
C 2.5 -0.663008 2.236584 -1.29895 1.767767 -1.767767 
C 1.29895 -2.236584 0.663008 -2.5 0 -2.5 
C -0.663008 -2.5 -1.29895 -2.236584 -1.767767 -1.767767 
C -2.236584 -1.29895 -2.5 -0.663008 -2.5 0 
C -2.5 0.663008 -2.236584 1.29895 -1.767767 1.767767 
C -1.29895 2.236584 -0.663008 2.5 0 2.5 
z
"/>
    </defs>
    <g clip-path="url(#pf2964147c8)">
     <use xlink:href="#C0_0_33c42d0353" x="164.044507" y="272.421013" style="fill: #4b0082"/>
    </g>
    <g clip-path="url(#pf2964147c8)">
     <use xlink:href="#C0_0_33c42d0353" x="162.572854" y="279.978098" style="fill: #4b0082"/>
    </g>
    <g clip-path="url(#pf2964147c8)">
     <use xlink:href="#C0_0_33c42d0353" x="160.347544" y="283.84275" style="fill: #4b0082"/>
    </g>
    <g clip-path="url(#pf2964147c8)">
     <use xlink:href="#C0_0_33c42d0353" x="160.933037" y="271.866407" style="fill: #4b0082"/>
    </g>
    <g clip-path="url(#pf2964147c8)">
     <use xlink:href="#C0_0_33c42d0353" x="164.264224" y="279.525039" style="fill: #4b0082"/>
    </g>
    <g clip-path="url(#pf2964147c8)">
     <use xlink:href="#C0_0_33c42d0353" x="161.262912" y="277.882714" style="fill: #4b0082"/>
    </g>
    <g clip-path="url(#pf2964147c8)">
     <use xlink:href="#C0_0_33c42d0353" x="162.314682" y="286.999032" style="fill: #4b0082"/>
    </g>
    <g clip-path="url(#pf2964147c8)">
     <use xlink:href="#C0_0_33c42d0353" x="155.26494" y="290.705234" style="fill: #4b0082"/>
    </g>
    <g clip-path="url(#pf2964147c8)">
     <use xlink:href="#C0_0_33c42d0353" x="159.951313" y="276.094007" style="fill: #4b0082"/>
    </g>
    <g clip-path="url(#pf2964147c8)">
     <use xlink:href="#C0_0_33c42d0353" x="164.726956" y="278.675383" style="fill: #4b0082"/>
    </g>
    <g clip-path="url(#pf2964147c8)">
     <use xlink:href="#C0_0_33c42d0353" x="154.656957" y="260.087118" style="fill: #4b0082"/>
    </g>
    <g clip-path="url(#pf2964147c8)">
     <use xlink:href="#C0_0_33c42d0353" x="157.122122" y="276.993147" style="fill: #4b0082"/>
    </g>
    <g clip-path="url(#pf2964147c8)">
     <use xlink:href="#C0_0_33c42d0353" x="158.088627" y="257.560031" style="fill: #4b0082"/>
    </g>
    <g clip-path="url(#pf2964147c8)">
     <use xlink:href="#C0_0_33c42d0353" x="162.210028" y="285.607137" style="fill: #4b0082"/>
    </g>
    <g clip-path="url(#pf2964147c8)">
     <use xlink:href="#C0_0_33c42d0353" x="158.982889" y="287.447641" style="fill: #4b0082"/>
    </g>
    <g clip-path="url(#pf2964147c8)">
     <use xlink:href="#C0_0_33c42d0353" x="159.413762" y="273.637202" style="fill: #4b0082"/>
    </g>
    <g clip-path="url(#pf2964147c8)">
     <use xlink:href="#C0_0_33c42d0353" x="156.146564" y="280.030787" style="fill: #4b0082"/>
    </g>
    <g clip-path="url(#pf2964147c8)">
     <use xlink:href="#C0_0_33c42d0353" x="163.332833" y="270.589915" style="fill: #4b0082"/>
    </g>
    <g clip-path="url(#pf2964147c8)">
     <use xlink:href="#C0_0_33c42d0353" x="155.306192" y="282.36321" style="fill: #4b0082"/>
    </g>
    <g clip-path="url(#pf2964147c8)">
     <use xlink:href="#C0_0_33c42d0353" x="158.177471" y="291.806594" style="fill: #4b0082"/>
    </g>
    <g clip-path="url(#pf2964147c8)">
     <use xlink:href="#C0_0_33c42d0353" x="159.441188" y="278.7926" style="fill: #4b0082"/>
    </g>
    <g clip-path="url(#pf2964147c8)">
     <use xlink:href="#C0_0_33c42d0353" x="161.501145" y="283.84275" style="fill: #4b0082"/>
    </g>
    <g clip-path="url(#pf2964147c8)">
     <use xlink:href="#C0_0_33c42d0353" x="156.216945" y="284.78439" style="fill: #4b0082"/>
    </g>
    <g clip-path="url(#pf2964147c8)">
     <use xlink:href="#C0_0_33c42d0353" x="162.926037" y="254.518243" style="fill: #4b0082"/>
    </g>
    <g clip-path="url(#pf2964147c8)">
     <use xlink:href="#C0_0_33c42d0353" x="164.477459" y="272.468763" style="fill: #4b0082"/>
    </g>
    <g clip-path="url(#pf2964147c8)">
     <use xlink:href="#C0_0_33c42d0353" x="153.631426" y="266.772714" style="fill: #4b0082"/>
    </g>
    <g clip-path="url(#pf2964147c8)">
     <use xlink:href="#C0_0_33c42d0353" x="156.816234" y="253.636335" style="fill: #4b0082"/>
    </g>
    <g clip-path="url(#pf2964147c8)">
     <use xlink:href="#C0_0_33c42d0353" x="160.946056" y="285.123853" style="fill: #4b0082"/>
    </g>
    <g clip-path="url(#pf2964147c8)">
     <use xlink:href="#C0_0_33c42d0353" x="156.720844" y="276.762101" style="fill: #4b0082"/>
    </g>
    <g clip-path="url(#pf2964147c8)">
     <use xlink:href="#C0_0_33c42d0353" x="154.74302" y="270.780024" style="fill: #4b0082"/>
    </g>
    <g clip-path="url(#pf2964147c8)">
     <use xlink:href="#C0_0_33c42d0353" x="162.733166" y="287.118329" style="fill: #4b0082"/>
    </g>
    <g clip-path="url(#pf2964147c8)">
     <use xlink:href="#C0_0_33c42d0353" x="155.438788" y="284.499542" style="fill: #4b0082"/>
    </g>
    <g clip-path="url(#pf2964147c8)">
     <use xlink:href="#C0_0_33c42d0353" x="153.985371" y="280.936728" style="fill: #4b0082"/>
    </g>
    <g clip-path="url(#pf2964147c8)">
     <use xlink:href="#C0_0_33c42d0353" x="160.326511" y="278.601088" style="fill: #4b0082"/>
    </g>
   </g>
   <g id="PathCollection_2">
    <defs>
     <path id="C1_0_43139c0a93" d="M 0 2.5 
C 0.663008 2.5 1.29895 2.236584 1.767767 1.767767 
C 2.236584 1.29895 2.5 0.663008 2.5 -0 
C 2.5 -0.663008 2.236584 -1.29895 1.767767 -1.767767 
C 1.29895 -2.236584 0.663008 -2.5 0 -2.5 
C -0.663008 -2.5 -1.29895 -2.236584 -1.767767 -1.767767 
C -2.236584 -1.29895 -2.5 -0.663008 -2.5 0 
C -2.5 0.663008 -2.236584 1.29895 -1.767767 1.767767 
C -1.29895 2.236584 -0.663008 2.5 0 2.5 
z
"/>
    </defs>
    <g clip-path="url(#pf2964147c8)">
     <use xlink:href="#C1_0_43139c0a93" x="227.630035" y="309.989288" style="fill: #ff8c00"/>
    </g>
    <g clip-path="url(#pf2964147c8)">
     <use xlink:href="#C1_0_43139c0a93" x="215.868929" y="310.107805" style="fill: #ff8c00"/>
    </g>
    <g clip-path="url(#pf2964147c8)">
     <use xlink:href="#C1_0_43139c0a93" x="225.845969" y="286.986561" style="fill: #ff8c00"/>
    </g>
    <g clip-path="url(#pf2964147c8)">
     <use xlink:href="#C1_0_43139c0a93" x="224.437238" y="300.773406" style="fill: #ff8c00"/>
    </g>
    <g clip-path="url(#pf2964147c8)">
     <use xlink:href="#C1_0_43139c0a93" x="225.264891" y="302.386544" style="fill: #ff8c00"/>
    </g>
    <g clip-path="url(#pf2964147c8)">
     <use xlink:href="#C1_0_43139c0a93" x="223.704295" y="302.386544" style="fill: #ff8c00"/>
    </g>
    <g clip-path="url(#pf2964147c8)">
     <use xlink:href="#C1_0_43139c0a93" x="219.742744" y="320.418309" style="fill: #ff8c00"/>
    </g>
    <g clip-path="url(#pf2964147c8)">
     <use xlink:href="#C1_0_43139c0a93" x="220.433526" y="306.710209" style="fill: #ff8c00"/>
    </g>
    <g clip-path="url(#pf2964147c8)">
     <use xlink:href="#C1_0_43139c0a93" x="220.243197" y="268.571896" style="fill: #ff8c00"/>
    </g>
    <g clip-path="url(#pf2964147c8)">
     <use xlink:href="#C1_0_43139c0a93" x="226.327829" y="298.960365" style="fill: #ff8c00"/>
    </g>
    <g clip-path="url(#pf2964147c8)">
     <use xlink:href="#C1_0_43139c0a93" x="223.934158" y="279.784133" style="fill: #ff8c00"/>
    </g>
    <g clip-path="url(#pf2964147c8)">
     <use xlink:href="#C1_0_43139c0a93" x="224.4455" y="289.034894" style="fill: #ff8c00"/>
    </g>
    <g clip-path="url(#pf2964147c8)">
     <use xlink:href="#C1_0_43139c0a93" x="225.605599" y="289.481133" style="fill: #ff8c00"/>
    </g>
    <g clip-path="url(#pf2964147c8)">
     <use xlink:href="#C1_0_43139c0a93" x="220.821657" y="292.298348" style="fill: #ff8c00"/>
    </g>
    <g clip-path="url(#pf2964147c8)">
     <use xlink:href="#C1_0_43139c0a93" x="224.152706" y="294.489983" style="fill: #ff8c00"/>
    </g>
    <g clip-path="url(#pf2964147c8)">
     <use xlink:href="#C1_0_43139c0a93" x="216.022184" y="278.865909" style="fill: #ff8c00"/>
    </g>
    <g clip-path="url(#pf2964147c8)">
     <use xlink:href="#C1_0_43139c0a93" x="226.445433" y="304.689411" style="fill: #ff8c00"/>
    </g>
    <g clip-path="url(#pf2964147c8)">
     <use xlink:href="#C1_0_43139c0a93" x="223.2074" y="295.199109" style="fill: #ff8c00"/>
    </g>
    <g clip-path="url(#pf2964147c8)">
     <use xlink:href="#C1_0_43139c0a93" x="220.565591" y="294.949764" style="fill: #ff8c00"/>
    </g>
    <g clip-path="url(#pf2964147c8)">
     <use xlink:href="#C1_0_43139c0a93" x="221.000474" y="311.036757" style="fill: #ff8c00"/>
    </g>
    <g clip-path="url(#pf2964147c8)">
     <use xlink:href="#C1_0_43139c0a93" x="220.486713" y="298.766423" style="fill: #ff8c00"/>
    </g>
    <g clip-path="url(#pf2964147c8)">
     <use xlink:href="#C1_0_43139c0a93" x="226.510786" y="272.087748" style="fill: #ff8c00"/>
    </g>
    <g clip-path="url(#pf2964147c8)">
     <use xlink:href="#C1_0_43139c0a93" x="226.057018" y="321.811681" style="fill: #ff8c00"/>
    </g>
    <g clip-path="url(#pf2964147c8)">
     <use xlink:href="#C1_0_43139c0a93" x="216.812266" y="265.078522" style="fill: #ff8c00"/>
    </g>
    <g clip-path="url(#pf2964147c8)">
     <use xlink:href="#C1_0_43139c0a93" x="218.082925" y="287.691591" style="fill: #ff8c00"/>
    </g>
    <g clip-path="url(#pf2964147c8)">
     <use xlink:href="#C1_0_43139c0a93" x="217.811732" y="327.345029" style="fill: #ff8c00"/>
    </g>
    <g clip-path="url(#pf2964147c8)">
     <use xlink:href="#C1_0_43139c0a93" x="227.251452" y="301.802116" style="fill: #ff8c00"/>
    </g>
    <g clip-path="url(#pf2964147c8)">
     <use xlink:href="#C1_0_43139c0a93" x="223.131376" y="310.107805" style="fill: #ff8c00"/>
    </g>
    <g clip-path="url(#pf2964147c8)">
     <use xlink:href="#C1_0_43139c0a93" x="223.519545" y="272.027418" style="fill: #ff8c00"/>
    </g>
    <g clip-path="url(#pf2964147c8)">
     <use xlink:href="#C1_0_43139c0a93" x="227.55011" y="278.724283" style="fill: #ff8c00"/>
    </g>
    <g clip-path="url(#pf2964147c8)">
     <use xlink:href="#C1_0_43139c0a93" x="225.055688" y="287.691591" style="fill: #ff8c00"/>
    </g>
    <g clip-path="url(#pf2964147c8)">
     <use xlink:href="#C1_0_43139c0a93" x="225.600232" y="327.345029" style="fill: #ff8c00"/>
    </g>
    <g clip-path="url(#pf2964147c8)">
     <use xlink:href="#C1_0_43139c0a93" x="226.847217" y="298.960365" style="fill: #ff8c00"/>
    </g>
    <g clip-path="url(#pf2964147c8)">
     <use xlink:href="#C1_0_43139c0a93" x="218.011927" y="287.186586" style="fill: #ff8c00"/>
    </g>
    <g clip-path="url(#pf2964147c8)">
     <use xlink:href="#C1_0_43139c0a93" x="223.525066" y="272.027418" style="fill: #ff8c00"/>
    </g>
    <g clip-path="url(#pf2964147c8)">
     <use xlink:href="#C1_0_43139c0a93" x="226.989178" y="304.689411" style="fill: #ff8c00"/>
    </g>
   </g>
   <g id="PathCollection_3">
    <defs>
     <path id="C2_0_0de6921565" d="M 0 2.5 
C 0.663008 2.5 1.29895 2.236584 1.767767 1.767767 
C 2.236584 1.29895 2.5 0.663008 2.5 -0 
C 2.5 -0.663008 2.236584 -1.29895 1.767767 -1.767767 
C 1.29895 -2.236584 0.663008 -2.5 0 -2.5 
C -0.663008 -2.5 -1.29895 -2.236584 -1.767767 -1.767767 
C -2.236584 -1.29895 -2.5 -0.663008 -2.5 0 
C -2.5 0.663008 -2.236584 1.29895 -1.767767 1.767767 
C -1.29895 2.236584 -0.663008 2.5 0 2.5 
z
"/>
    </defs>
    <g clip-path="url(#pf2964147c8)">
     <use xlink:href="#C2_0_0de6921565" x="282.794404" y="150.350136" style="fill: #ee82ee"/>
    </g>
    <g clip-path="url(#pf2964147c8)">
     <use xlink:href="#C2_0_0de6921565" x="282.640237" y="173.883145" style="fill: #ee82ee"/>
    </g>
    <g clip-path="url(#pf2964147c8)">
     <use xlink:href="#C2_0_0de6921565" x="283.607593" y="92.259943" style="fill: #ee82ee"/>
    </g>
    <g clip-path="url(#pf2964147c8)">
     <use xlink:href="#C2_0_0de6921565" x="287.175404" y="154.286856" style="fill: #ee82ee"/>
    </g>
    <g clip-path="url(#pf2964147c8)">
     <use xlink:href="#C2_0_0de6921565" x="279.785404" y="124.032254" style="fill: #ee82ee"/>
    </g>
    <g clip-path="url(#pf2964147c8)">
     <use xlink:href="#C2_0_0de6921565" x="277.915374" y="181.664695" style="fill: #ee82ee"/>
    </g>
    <g clip-path="url(#pf2964147c8)">
     <use xlink:href="#C2_0_0de6921565" x="281.08239" y="169.20993" style="fill: #ee82ee"/>
    </g>
    <g clip-path="url(#pf2964147c8)">
     <use xlink:href="#C2_0_0de6921565" x="282.168757" y="112.117661" style="fill: #ee82ee"/>
    </g>
    <g clip-path="url(#pf2964147c8)">
     <use xlink:href="#C2_0_0de6921565" x="280.762259" y="235.136714" style="fill: #ee82ee"/>
    </g>
    <g clip-path="url(#pf2964147c8)">
     <use xlink:href="#C2_0_0de6921565" x="284.663154" y="62.077849" style="fill: #ee82ee"/>
    </g>
   </g>
  </g>
 </g>
 <defs>
  <clipPath id="pf2964147c8">
   <rect x="127.315385" y="51.84" width="188.169231" height="326.16"/>
  </clipPath>
 </defs>
</svg>
