<?xml version="1.0" encoding="utf-8" standalone="no"?>
<!DOCTYPE svg PUBLIC "-//W3C//DTD SVG 1.1//EN"
  "http://www.w3.org/Graphics/SVG/1.1/DTD/svg11.dtd">
<svg xmlns:xlink="http://www.w3.org/1999/xlink" width="432pt" height="288pt" viewBox="0 0 432 288" xmlns="http://www.w3.org/2000/svg" version="1.1">
 <metadata>
  <rdf:RDF xmlns:dc="http://purl.org/dc/elements/1.1/" xmlns:cc="http://creativecommons.org/ns#" xmlns:rdf="http://www.w3.org/1999/02/22-rdf-syntax-ns#">
   <cc:Work>
    <dc:type rdf:resource="http://purl.org/dc/dcmitype/StillImage"/>
    <dc:date>2024-01-28T08:35:33.645097</dc:date>
    <dc:format>image/svg+xml</dc:format>
    <dc:creator>
     <cc:Agent>
      <dc:title>Matplotlib v3.5.1, https://matplotlib.org/</dc:title>
     </cc:Agent>
    </dc:creator>
   </cc:Work>
  </rdf:RDF>
 </metadata>
 <defs>
  <style type="text/css">*{stroke-linejoin: round; stroke-linecap: butt}</style>
 </defs>
 <g id="figure_1">
  <g id="patch_1">
   <path d="M 0 288 
L 432 288 
L 432 0 
L 0 0 
L 0 288 
z
" style="fill: none"/>
  </g>
  <g id="axes_1">
   <g id="patch_2">
    <path d="M 164.178947 252 
L 278.621053 252 
L 278.621053 34.56 
L 164.178947 34.56 
z
" style="fill: #ffffff"/>
   </g>
   <g id="PolyCollection_1">
    <defs>
     <path id="mfa75c48849" d="M 185.579447 -137.853474 
L 180.925816 -137.853474 
L 180.836018 -138.916976 
L 180.745535 -139.980478 
L 180.654465 -141.043981 
L 180.562909 -142.107483 
L 180.470971 -143.170986 
L 180.378762 -144.234488 
L 180.286395 -145.29799 
L 180.193991 -146.361493 
L 180.101672 -147.424995 
L 180.009568 -148.488498 
L 179.91781 -149.552 
L 179.826531 -150.615502 
L 179.735868 -151.679005 
L 179.645956 -152.742507 
L 179.556928 -153.80601 
L 179.468913 -154.869512 
L 179.382036 -155.933014 
L 179.296411 -156.996517 
L 179.212147 -158.060019 
L 179.129334 -159.123522 
L 179.048055 -160.187024 
L 178.968372 -161.250526 
L 178.890332 -162.314029 
L 178.813963 -163.377531 
L 178.739273 -164.441033 
L 178.66625 -165.504536 
L 178.594864 -166.568038 
L 178.525065 -167.631541 
L 178.456784 -168.695043 
L 178.389937 -169.758545 
L 178.324427 -170.822048 
L 178.260144 -171.88555 
L 178.196972 -172.949053 
L 178.134789 -174.012555 
L 178.073475 -175.076057 
L 178.012913 -176.13956 
L 177.952994 -177.203062 
L 177.893624 -178.266565 
L 177.834727 -179.330067 
L 177.776246 -180.393569 
L 177.718153 -181.457072 
L 177.66045 -182.520574 
L 177.603171 -183.584077 
L 177.546386 -184.647579 
L 177.490203 -185.711081 
L 177.434769 -186.774584 
L 177.380272 -187.838086 
L 177.326936 -188.901589 
L 177.275027 -189.965091 
L 177.224844 -191.028593 
L 177.176721 -192.092096 
L 177.131019 -193.155598 
L 177.088128 -194.2191 
L 177.048454 -195.282603 
L 177.01242 -196.346105 
L 176.980455 -197.409608 
L 176.952991 -198.47311 
L 176.930456 -199.536612 
L 176.913265 -200.600115 
L 176.901813 -201.663617 
L 176.896473 -202.72712 
L 176.897585 -203.790622 
L 176.905451 -204.854124 
L 176.920332 -205.917627 
L 176.942442 -206.981129 
L 176.971944 -208.044632 
L 177.008946 -209.108134 
L 177.053501 -210.171636 
L 177.105603 -211.235139 
L 177.165192 -212.298641 
L 177.232147 -213.362144 
L 177.306293 -214.425646 
L 177.387403 -215.489148 
L 177.475198 -216.552651 
L 177.569355 -217.616153 
L 177.669509 -218.679656 
L 177.775256 -219.743158 
L 177.886165 -220.80666 
L 178.001778 -221.870163 
L 178.121618 -222.933665 
L 178.245195 -223.997167 
L 178.372011 -225.06067 
L 178.501568 -226.124172 
L 178.633372 -227.187675 
L 178.766939 -228.251177 
L 178.901797 -229.314679 
L 179.037493 -230.378182 
L 179.173598 -231.441684 
L 179.309706 -232.505187 
L 179.445437 -233.568689 
L 179.580443 -234.632191 
L 179.714403 -235.695694 
L 179.847028 -236.759196 
L 179.978059 -237.822699 
L 180.107267 -238.886201 
L 180.234451 -239.949703 
L 180.359438 -241.013206 
L 180.482079 -242.076708 
L 180.602249 -243.140211 
L 185.903014 -243.140211 
L 185.903014 -243.140211 
L 186.023185 -242.076708 
L 186.145825 -241.013206 
L 186.270812 -239.949703 
L 186.397996 -238.886201 
L 186.527204 -237.822699 
L 186.658235 -236.759196 
L 186.79086 -235.695694 
L 186.92482 -234.632191 
L 187.059826 -233.568689 
L 187.195557 -232.505187 
L 187.331665 -231.441684 
L 187.46777 -230.378182 
L 187.603467 -229.314679 
L 187.738324 -228.251177 
L 187.871891 -227.187675 
L 188.003695 -226.124172 
L 188.133252 -225.06067 
L 188.260069 -223.997167 
L 188.383645 -222.933665 
L 188.503485 -221.870163 
L 188.619098 -220.80666 
L 188.730007 -219.743158 
L 188.835755 -218.679656 
L 188.935908 -217.616153 
L 189.030065 -216.552651 
L 189.11786 -215.489148 
L 189.19897 -214.425646 
L 189.273117 -213.362144 
L 189.340071 -212.298641 
L 189.39966 -211.235139 
L 189.451763 -210.171636 
L 189.496317 -209.108134 
L 189.533319 -208.044632 
L 189.562821 -206.981129 
L 189.584931 -205.917627 
L 189.599812 -204.854124 
L 189.607679 -203.790622 
L 189.60879 -202.72712 
L 189.60345 -201.663617 
L 189.591998 -200.600115 
L 189.574807 -199.536612 
L 189.552272 -198.47311 
L 189.524808 -197.409608 
L 189.492844 -196.346105 
L 189.456809 -195.282603 
L 189.417135 -194.2191 
L 189.374244 -193.155598 
L 189.328543 -192.092096 
L 189.280419 -191.028593 
L 189.230236 -189.965091 
L 189.178327 -188.901589 
L 189.124992 -187.838086 
L 189.070494 -186.774584 
L 189.01506 -185.711081 
L 188.958877 -184.647579 
L 188.902092 -183.584077 
L 188.844813 -182.520574 
L 188.78711 -181.457072 
L 188.729017 -180.393569 
L 188.670537 -179.330067 
L 188.611639 -178.266565 
L 188.552269 -177.203062 
L 188.49235 -176.13956 
L 188.431788 -175.076057 
L 188.370474 -174.012555 
L 188.308291 -172.949053 
L 188.245119 -171.88555 
L 188.180836 -170.822048 
L 188.115326 -169.758545 
L 188.048479 -168.695043 
L 187.980198 -167.631541 
L 187.910399 -166.568038 
L 187.839013 -165.504536 
L 187.765991 -164.441033 
L 187.6913 -163.377531 
L 187.614931 -162.314029 
L 187.536891 -161.250526 
L 187.457208 -160.187024 
L 187.375929 -159.123522 
L 187.293117 -158.060019 
L 187.208852 -156.996517 
L 187.123228 -155.933014 
L 187.03635 -154.869512 
L 186.948336 -153.80601 
L 186.859307 -152.742507 
L 186.769395 -151.679005 
L 186.678732 -150.615502 
L 186.587454 -149.552 
L 186.495695 -148.488498 
L 186.403591 -147.424995 
L 186.311273 -146.361493 
L 186.218868 -145.29799 
L 186.126501 -144.234488 
L 186.034292 -143.170986 
L 185.942354 -142.107483 
L 185.850798 -141.043981 
L 185.759728 -139.980478 
L 185.669245 -138.916976 
L 185.579447 -137.853474 
z
" style="stroke: #ee82ee; stroke-width: 1.5"/>
    </defs>
    <g clip-path="url(#pa2a4725ede)">
     <use xlink:href="#mfa75c48849" x="0" y="288" style="fill: #ffffff; stroke: #ee82ee; stroke-width: 1.5"/>
    </g>
   </g>
   <g id="PolyCollection_2">
    <defs>
     <path id="m0d01b639be" d="M 223.162615 -94.365474 
L 219.637385 -94.365474 
L 219.637515 -95.128421 
L 219.642747 -95.891368 
L 219.652929 -96.654316 
L 219.667849 -97.417263 
L 219.687235 -98.180211 
L 219.710755 -98.943158 
L 219.738025 -99.706105 
L 219.768611 -100.469053 
L 219.802029 -101.232 
L 219.837754 -101.994947 
L 219.875224 -102.757895 
L 219.913844 -103.520842 
L 219.95299 -104.283789 
L 219.99202 -105.046737 
L 220.030273 -105.809684 
L 220.067076 -106.572632 
L 220.101751 -107.335579 
L 220.13362 -108.098526 
L 220.162005 -108.861474 
L 220.186237 -109.624421 
L 220.205656 -110.387368 
L 220.219616 -111.150316 
L 220.227489 -111.913263 
L 220.228663 -112.676211 
L 220.222548 -113.439158 
L 220.208575 -114.202105 
L 220.186198 -114.965053 
L 220.154896 -115.728 
L 220.114173 -116.490947 
L 220.063556 -117.253895 
L 220.002599 -118.016842 
L 219.930884 -118.779789 
L 219.848016 -119.542737 
L 219.753632 -120.305684 
L 219.647394 -121.068632 
L 219.528997 -121.831579 
L 219.398167 -122.594526 
L 219.254665 -123.357474 
L 219.098286 -124.120421 
L 218.928868 -124.883368 
L 218.746293 -125.646316 
L 218.550487 -126.409263 
L 218.341433 -127.172211 
L 218.119168 -127.935158 
L 217.883794 -128.698105 
L 217.635482 -129.461053 
L 217.374473 -130.224 
L 217.101095 -130.986947 
L 216.815755 -131.749895 
L 216.518957 -132.512842 
L 216.211299 -133.275789 
L 215.893479 -134.038737 
L 215.566301 -134.801684 
L 215.230676 -135.564632 
L 214.887625 -136.327579 
L 214.538277 -137.090526 
L 214.183869 -137.853474 
L 213.825744 -138.616421 
L 213.465345 -139.379368 
L 213.104211 -140.142316 
L 212.743967 -140.905263 
L 212.386315 -141.668211 
L 212.033023 -142.431158 
L 211.685911 -143.194105 
L 211.346838 -143.957053 
L 211.017684 -144.72 
L 210.700333 -145.482947 
L 210.396657 -146.245895 
L 210.108496 -147.008842 
L 209.837638 -147.771789 
L 209.585802 -148.534737 
L 209.354617 -149.297684 
L 209.145606 -150.060632 
L 208.960167 -150.823579 
L 208.799558 -151.586526 
L 208.664883 -152.349474 
L 208.557076 -153.112421 
L 208.476895 -153.875368 
L 208.42491 -154.638316 
L 208.4015 -155.401263 
L 208.406843 -156.164211 
L 208.440921 -156.927158 
L 208.50352 -157.690105 
L 208.594228 -158.453053 
L 208.712448 -159.216 
L 208.857401 -159.978947 
L 209.028136 -160.741895 
L 209.223545 -161.504842 
L 209.442372 -162.267789 
L 209.683231 -163.030737 
L 209.944618 -163.793684 
L 210.22493 -164.556632 
L 210.522482 -165.319579 
L 210.835523 -166.082526 
L 211.162252 -166.845474 
L 211.500839 -167.608421 
L 211.849439 -168.371368 
L 212.206207 -169.134316 
L 212.569316 -169.897263 
L 230.230684 -169.897263 
L 230.230684 -169.897263 
L 230.593793 -169.134316 
L 230.950561 -168.371368 
L 231.299161 -167.608421 
L 231.637748 -166.845474 
L 231.964477 -166.082526 
L 232.277518 -165.319579 
L 232.57507 -164.556632 
L 232.855382 -163.793684 
L 233.116769 -163.030737 
L 233.357628 -162.267789 
L 233.576455 -161.504842 
L 233.771864 -160.741895 
L 233.942599 -159.978947 
L 234.087552 -159.216 
L 234.205772 -158.453053 
L 234.29648 -157.690105 
L 234.359079 -156.927158 
L 234.393157 -156.164211 
L 234.3985 -155.401263 
L 234.37509 -154.638316 
L 234.323105 -153.875368 
L 234.242924 -153.112421 
L 234.135117 -152.349474 
L 234.000442 -151.586526 
L 233.839833 -150.823579 
L 233.654394 -150.060632 
L 233.445383 -149.297684 
L 233.214198 -148.534737 
L 232.962362 -147.771789 
L 232.691504 -147.008842 
L 232.403343 -146.245895 
L 232.099667 -145.482947 
L 231.782316 -144.72 
L 231.453162 -143.957053 
L 231.114089 -143.194105 
L 230.766977 -142.431158 
L 230.413685 -141.668211 
L 230.056033 -140.905263 
L 229.695789 -140.142316 
L 229.334655 -139.379368 
L 228.974256 -138.616421 
L 228.616131 -137.853474 
L 228.261723 -137.090526 
L 227.912375 -136.327579 
L 227.569324 -135.564632 
L 227.233699 -134.801684 
L 226.906521 -134.038737 
L 226.588701 -133.275789 
L 226.281043 -132.512842 
L 225.984245 -131.749895 
L 225.698905 -130.986947 
L 225.425527 -130.224 
L 225.164518 -129.461053 
L 224.916206 -128.698105 
L 224.680832 -127.935158 
L 224.458567 -127.172211 
L 224.249513 -126.409263 
L 224.053707 -125.646316 
L 223.871132 -124.883368 
L 223.701714 -124.120421 
L 223.545335 -123.357474 
L 223.401833 -122.594526 
L 223.271003 -121.831579 
L 223.152606 -121.068632 
L 223.046368 -120.305684 
L 222.951984 -119.542737 
L 222.869116 -118.779789 
L 222.797401 -118.016842 
L 222.736444 -117.253895 
L 222.685827 -116.490947 
L 222.645104 -115.728 
L 222.613802 -114.965053 
L 222.591425 -114.202105 
L 222.577452 -113.439158 
L 222.571337 -112.676211 
L 222.572511 -111.913263 
L 222.580384 -111.150316 
L 222.594344 -110.387368 
L 222.613763 -109.624421 
L 222.637995 -108.861474 
L 222.66638 -108.098526 
L 222.698249 -107.335579 
L 222.732924 -106.572632 
L 222.769727 -105.809684 
L 222.80798 -105.046737 
L 222.84701 -104.283789 
L 222.886156 -103.520842 
L 222.924776 -102.757895 
L 222.962246 -101.994947 
L 222.997971 -101.232 
L 223.031389 -100.469053 
L 223.061975 -99.706105 
L 223.089245 -98.943158 
L 223.112765 -98.180211 
L 223.132151 -97.417263 
L 223.147071 -96.654316 
L 223.157253 -95.891368 
L 223.162485 -95.128421 
L 223.162615 -94.365474 
z
" style="stroke: #0000ff; stroke-width: 1.5"/>
    </defs>
    <g clip-path="url(#pa2a4725ede)">
     <use xlink:href="#m0d01b639be" x="0" y="288" style="fill: #ffffff; stroke: #0000ff; stroke-width: 1.5"/>
    </g>
   </g>
   <g id="PolyCollection_3">
    <defs>
     <path id="mbc1256fa19" d="M 270.191942 -180.197053 
L 248.902795 -180.197053 
L 248.525487 -180.786603 
L 248.157062 -181.376153 
L 247.798881 -181.965703 
L 247.452254 -182.555254 
L 247.118439 -183.144804 
L 246.798632 -183.734354 
L 246.493969 -184.323904 
L 246.205516 -184.913455 
L 245.934271 -185.503005 
L 245.68116 -186.092555 
L 245.447038 -186.682105 
L 245.23269 -187.271656 
L 245.038828 -187.861206 
L 244.866095 -188.450756 
L 244.715066 -189.040306 
L 244.586248 -189.629856 
L 244.480081 -190.219407 
L 244.396939 -190.808957 
L 244.33713 -191.398507 
L 244.300899 -191.988057 
L 244.288421 -192.577608 
L 244.299807 -193.167158 
L 244.335098 -193.756708 
L 244.394262 -194.346258 
L 244.477195 -194.935809 
L 244.583716 -195.525359 
L 244.713562 -196.114909 
L 244.866387 -196.704459 
L 245.041759 -197.29401 
L 245.239154 -197.88356 
L 245.457956 -198.47311 
L 245.697452 -199.06266 
L 245.956835 -199.652211 
L 246.2352 -200.241761 
L 246.531543 -200.831311 
L 246.844769 -201.420861 
L 247.173688 -202.010411 
L 247.517023 -202.599962 
L 247.873417 -203.189512 
L 248.241435 -203.779062 
L 248.619576 -204.368612 
L 249.006283 -204.958163 
L 249.399949 -205.547713 
L 249.798932 -206.137263 
L 250.201567 -206.726813 
L 250.606178 -207.316364 
L 251.011089 -207.905914 
L 251.414641 -208.495464 
L 251.815202 -209.085014 
L 252.211181 -209.674565 
L 252.601041 -210.264115 
L 252.98331 -210.853665 
L 253.356591 -211.443215 
L 253.719573 -212.032766 
L 254.071041 -212.622316 
L 254.40988 -213.211866 
L 254.735086 -213.801416 
L 255.045767 -214.390967 
L 255.341149 -214.980517 
L 255.620577 -215.570067 
L 255.883517 -216.159617 
L 256.129557 -216.749167 
L 256.358404 -217.338718 
L 256.569883 -217.928268 
L 256.763934 -218.517818 
L 256.940607 -219.107368 
L 257.100058 -219.696919 
L 257.242547 -220.286469 
L 257.368427 -220.876019 
L 257.478143 -221.465569 
L 257.572222 -222.05512 
L 257.65127 -222.64467 
L 257.715963 -223.23422 
L 257.767041 -223.82377 
L 257.805302 -224.413321 
L 257.831596 -225.002871 
L 257.846814 -225.592421 
L 257.851888 -226.181971 
L 257.847778 -226.771522 
L 257.835468 -227.361072 
L 257.81596 -227.950622 
L 257.790264 -228.540172 
L 257.759395 -229.129722 
L 257.724364 -229.719273 
L 257.686168 -230.308823 
L 257.645789 -230.898373 
L 257.604183 -231.487923 
L 257.562275 -232.077474 
L 257.520951 -232.667024 
L 257.481053 -233.256574 
L 257.44337 -233.846124 
L 257.408636 -234.435675 
L 257.377524 -235.025225 
L 257.350637 -235.614775 
L 257.32851 -236.204325 
L 257.311601 -236.793876 
L 257.300295 -237.383426 
L 257.294894 -237.972976 
L 257.295622 -238.562526 
L 261.799115 -238.562526 
L 261.799115 -238.562526 
L 261.799843 -237.972976 
L 261.794442 -237.383426 
L 261.783135 -236.793876 
L 261.766227 -236.204325 
L 261.7441 -235.614775 
L 261.717213 -235.025225 
L 261.686101 -234.435675 
L 261.651367 -233.846124 
L 261.613684 -233.256574 
L 261.573786 -232.667024 
L 261.532462 -232.077474 
L 261.490554 -231.487923 
L 261.448948 -230.898373 
L 261.408569 -230.308823 
L 261.370373 -229.719273 
L 261.335341 -229.129722 
L 261.304473 -228.540172 
L 261.278777 -227.950622 
L 261.259269 -227.361072 
L 261.246959 -226.771522 
L 261.242849 -226.181971 
L 261.247923 -225.592421 
L 261.263141 -225.002871 
L 261.289434 -224.413321 
L 261.327696 -223.82377 
L 261.378774 -223.23422 
L 261.443467 -222.64467 
L 261.522515 -222.05512 
L 261.616594 -221.465569 
L 261.72631 -220.876019 
L 261.85219 -220.286469 
L 261.994679 -219.696919 
L 262.15413 -219.107368 
L 262.330803 -218.517818 
L 262.524853 -217.928268 
L 262.736332 -217.338718 
L 262.96518 -216.749167 
L 263.21122 -216.159617 
L 263.47416 -215.570067 
L 263.753588 -214.980517 
L 264.04897 -214.390967 
L 264.359651 -213.801416 
L 264.684857 -213.211866 
L 265.023696 -212.622316 
L 265.375164 -212.032766 
L 265.738146 -211.443215 
L 266.111427 -210.853665 
L 266.493696 -210.264115 
L 266.883556 -209.674565 
L 267.279535 -209.085014 
L 267.680096 -208.495464 
L 268.083648 -207.905914 
L 268.488559 -207.316364 
L 268.89317 -206.726813 
L 269.295805 -206.137263 
L 269.694788 -205.547713 
L 270.088454 -204.958163 
L 270.47516 -204.368612 
L 270.853302 -203.779062 
L 271.22132 -203.189512 
L 271.577714 -202.599962 
L 271.921049 -202.010411 
L 272.249968 -201.420861 
L 272.563194 -200.831311 
L 272.859537 -200.241761 
L 273.137901 -199.652211 
L 273.397285 -199.06266 
L 273.636781 -198.47311 
L 273.855583 -197.88356 
L 274.052978 -197.29401 
L 274.22835 -196.704459 
L 274.381175 -196.114909 
L 274.511021 -195.525359 
L 274.617542 -194.935809 
L 274.700475 -194.346258 
L 274.759639 -193.756708 
L 274.79493 -193.167158 
L 274.806316 -192.577608 
L 274.793838 -191.988057 
L 274.757607 -191.398507 
L 274.697798 -190.808957 
L 274.614656 -190.219407 
L 274.508489 -189.629856 
L 274.379671 -189.040306 
L 274.228642 -188.450756 
L 274.055909 -187.861206 
L 273.862047 -187.271656 
L 273.647699 -186.682105 
L 273.413577 -186.092555 
L 273.160466 -185.503005 
L 272.88922 -184.913455 
L 272.600767 -184.323904 
L 272.296104 -183.734354 
L 271.976298 -183.144804 
L 271.642483 -182.555254 
L 271.295856 -181.965703 
L 270.937674 -181.376153 
L 270.56925 -180.786603 
L 270.191942 -180.197053 
z
" style="stroke: #00fa9a; stroke-width: 1.5"/>
    </defs>
    <g clip-path="url(#pa2a4725ede)">
     <use xlink:href="#mbc1256fa19" x="0" y="288" style="fill: #ffffff; stroke: #00fa9a; stroke-width: 1.5"/>
    </g>
   </g>
   <g id="matplotlib.axis_1">
    <g id="xtick_1">
     <g id="text_1">
      <!-- 1 -->
      <g transform="translate(180.071382 266.598437)scale(0.1 -0.1)">
       <defs>
        <path id="DejaVuSans-31" d="M 794 531 
L 1825 531 
L 1825 4091 
L 703 3866 
L 703 4441 
L 1819 4666 
L 2450 4666 
L 2450 531 
L 3481 531 
L 3481 0 
L 794 0 
L 794 531 
z
" transform="scale(0.015625)"/>
       </defs>
       <use xlink:href="#DejaVuSans-31"/>
      </g>
     </g>
    </g>
    <g id="xtick_2">
     <g id="text_2">
      <!-- 2 -->
      <g transform="translate(218.21875 266.598437)scale(0.1 -0.1)">
       <defs>
        <path id="DejaVuSans-32" d="M 1228 531 
L 3431 531 
L 3431 0 
L 469 0 
L 469 531 
Q 828 903 1448 1529 
Q 2069 2156 2228 2338 
Q 2531 2678 2651 2914 
Q 2772 3150 2772 3378 
Q 2772 3750 2511 3984 
Q 2250 4219 1831 4219 
Q 1534 4219 1204 4116 
Q 875 4013 500 3803 
L 500 4441 
Q 881 4594 1212 4672 
Q 1544 4750 1819 4750 
Q 2544 4750 2975 4387 
Q 3406 4025 3406 3419 
Q 3406 3131 3298 2873 
Q 3191 2616 2906 2266 
Q 2828 2175 2409 1742 
Q 1991 1309 1228 531 
z
" transform="scale(0.015625)"/>
       </defs>
       <use xlink:href="#DejaVuSans-32"/>
      </g>
     </g>
    </g>
    <g id="xtick_3">
     <g id="text_3">
      <!-- 3 -->
      <g transform="translate(256.366118 266.598437)scale(0.1 -0.1)">
       <defs>
        <path id="DejaVuSans-33" d="M 2597 2516 
Q 3050 2419 3304 2112 
Q 3559 1806 3559 1356 
Q 3559 666 3084 287 
Q 2609 -91 1734 -91 
Q 1441 -91 1130 -33 
Q 819 25 488 141 
L 488 750 
Q 750 597 1062 519 
Q 1375 441 1716 441 
Q 2309 441 2620 675 
Q 2931 909 2931 1356 
Q 2931 1769 2642 2001 
Q 2353 2234 1838 2234 
L 1294 2234 
L 1294 2753 
L 1863 2753 
Q 2328 2753 2575 2939 
Q 2822 3125 2822 3475 
Q 2822 3834 2567 4026 
Q 2313 4219 1838 4219 
Q 1578 4219 1281 4162 
Q 984 4106 628 3988 
L 628 4550 
Q 988 4650 1302 4700 
Q 1616 4750 1894 4750 
Q 2613 4750 3031 4423 
Q 3450 4097 3450 3541 
Q 3450 3153 3228 2886 
Q 3006 2619 2597 2516 
z
" transform="scale(0.015625)"/>
       </defs>
       <use xlink:href="#DejaVuSans-33"/>
      </g>
     </g>
    </g>
    <g id="text_4">
     <!-- Glomerulus -->
     <g transform="translate(187.0125 281.79625)scale(0.12 -0.12)">
      <defs>
       <path id="DejaVuSans-47" d="M 3809 666 
L 3809 1919 
L 2778 1919 
L 2778 2438 
L 4434 2438 
L 4434 434 
Q 4069 175 3628 42 
Q 3188 -91 2688 -91 
Q 1594 -91 976 548 
Q 359 1188 359 2328 
Q 359 3472 976 4111 
Q 1594 4750 2688 4750 
Q 3144 4750 3555 4637 
Q 3966 4525 4313 4306 
L 4313 3634 
Q 3963 3931 3569 4081 
Q 3175 4231 2741 4231 
Q 1884 4231 1454 3753 
Q 1025 3275 1025 2328 
Q 1025 1384 1454 906 
Q 1884 428 2741 428 
Q 3075 428 3337 486 
Q 3600 544 3809 666 
z
" transform="scale(0.015625)"/>
       <path id="DejaVuSans-6c" d="M 603 4863 
L 1178 4863 
L 1178 0 
L 603 0 
L 603 4863 
z
" transform="scale(0.015625)"/>
       <path id="DejaVuSans-6f" d="M 1959 3097 
Q 1497 3097 1228 2736 
Q 959 2375 959 1747 
Q 959 1119 1226 758 
Q 1494 397 1959 397 
Q 2419 397 2687 759 
Q 2956 1122 2956 1747 
Q 2956 2369 2687 2733 
Q 2419 3097 1959 3097 
z
M 1959 3584 
Q 2709 3584 3137 3096 
Q 3566 2609 3566 1747 
Q 3566 888 3137 398 
Q 2709 -91 1959 -91 
Q 1206 -91 779 398 
Q 353 888 353 1747 
Q 353 2609 779 3096 
Q 1206 3584 1959 3584 
z
" transform="scale(0.015625)"/>
       <path id="DejaVuSans-6d" d="M 3328 2828 
Q 3544 3216 3844 3400 
Q 4144 3584 4550 3584 
Q 5097 3584 5394 3201 
Q 5691 2819 5691 2113 
L 5691 0 
L 5113 0 
L 5113 2094 
Q 5113 2597 4934 2840 
Q 4756 3084 4391 3084 
Q 3944 3084 3684 2787 
Q 3425 2491 3425 1978 
L 3425 0 
L 2847 0 
L 2847 2094 
Q 2847 2600 2669 2842 
Q 2491 3084 2119 3084 
Q 1678 3084 1418 2786 
Q 1159 2488 1159 1978 
L 1159 0 
L 581 0 
L 581 3500 
L 1159 3500 
L 1159 2956 
Q 1356 3278 1631 3431 
Q 1906 3584 2284 3584 
Q 2666 3584 2933 3390 
Q 3200 3197 3328 2828 
z
" transform="scale(0.015625)"/>
       <path id="DejaVuSans-65" d="M 3597 1894 
L 3597 1613 
L 953 1613 
Q 991 1019 1311 708 
Q 1631 397 2203 397 
Q 2534 397 2845 478 
Q 3156 559 3463 722 
L 3463 178 
Q 3153 47 2828 -22 
Q 2503 -91 2169 -91 
Q 1331 -91 842 396 
Q 353 884 353 1716 
Q 353 2575 817 3079 
Q 1281 3584 2069 3584 
Q 2775 3584 3186 3129 
Q 3597 2675 3597 1894 
z
M 3022 2063 
Q 3016 2534 2758 2815 
Q 2500 3097 2075 3097 
Q 1594 3097 1305 2825 
Q 1016 2553 972 2059 
L 3022 2063 
z
" transform="scale(0.015625)"/>
       <path id="DejaVuSans-72" d="M 2631 2963 
Q 2534 3019 2420 3045 
Q 2306 3072 2169 3072 
Q 1681 3072 1420 2755 
Q 1159 2438 1159 1844 
L 1159 0 
L 581 0 
L 581 3500 
L 1159 3500 
L 1159 2956 
Q 1341 3275 1631 3429 
Q 1922 3584 2338 3584 
Q 2397 3584 2469 3576 
Q 2541 3569 2628 3553 
L 2631 2963 
z
" transform="scale(0.015625)"/>
       <path id="DejaVuSans-75" d="M 544 1381 
L 544 3500 
L 1119 3500 
L 1119 1403 
Q 1119 906 1312 657 
Q 1506 409 1894 409 
Q 2359 409 2629 706 
Q 2900 1003 2900 1516 
L 2900 3500 
L 3475 3500 
L 3475 0 
L 2900 0 
L 2900 538 
Q 2691 219 2414 64 
Q 2138 -91 1772 -91 
Q 1169 -91 856 284 
Q 544 659 544 1381 
z
M 1991 3584 
L 1991 3584 
z
" transform="scale(0.015625)"/>
       <path id="DejaVuSans-73" d="M 2834 3397 
L 2834 2853 
Q 2591 2978 2328 3040 
Q 2066 3103 1784 3103 
Q 1356 3103 1142 2972 
Q 928 2841 928 2578 
Q 928 2378 1081 2264 
Q 1234 2150 1697 2047 
L 1894 2003 
Q 2506 1872 2764 1633 
Q 3022 1394 3022 966 
Q 3022 478 2636 193 
Q 2250 -91 1575 -91 
Q 1294 -91 989 -36 
Q 684 19 347 128 
L 347 722 
Q 666 556 975 473 
Q 1284 391 1588 391 
Q 1994 391 2212 530 
Q 2431 669 2431 922 
Q 2431 1156 2273 1281 
Q 2116 1406 1581 1522 
L 1381 1569 
Q 847 1681 609 1914 
Q 372 2147 372 2553 
Q 372 3047 722 3315 
Q 1072 3584 1716 3584 
Q 2034 3584 2315 3537 
Q 2597 3491 2834 3397 
z
" transform="scale(0.015625)"/>
      </defs>
      <use xlink:href="#DejaVuSans-47"/>
      <use xlink:href="#DejaVuSans-6c" x="77.490234"/>
      <use xlink:href="#DejaVuSans-6f" x="105.273438"/>
      <use xlink:href="#DejaVuSans-6d" x="166.455078"/>
      <use xlink:href="#DejaVuSans-65" x="263.867188"/>
      <use xlink:href="#DejaVuSans-72" x="325.390625"/>
      <use xlink:href="#DejaVuSans-75" x="366.503906"/>
      <use xlink:href="#DejaVuSans-6c" x="429.882812"/>
      <use xlink:href="#DejaVuSans-75" x="457.666016"/>
      <use xlink:href="#DejaVuSans-73" x="521.044922"/>
     </g>
    </g>
   </g>
   <g id="matplotlib.axis_2">
    <g id="ytick_1">
     <g id="line2d_1">
      <defs>
       <path id="m8f07b69f47" d="M 0 0 
L -3.5 0 
" style="stroke: #000000; stroke-width: 0.8"/>
      </defs>
      <g>
       <use xlink:href="#m8f07b69f47" x="164.178947" y="252" style="stroke: #000000; stroke-width: 0.8"/>
      </g>
     </g>
     <g id="text_5">
      <!-- 0 -->
      <g transform="translate(150.816447 255.799219)scale(0.1 -0.1)">
       <defs>
        <path id="DejaVuSans-30" d="M 2034 4250 
Q 1547 4250 1301 3770 
Q 1056 3291 1056 2328 
Q 1056 1369 1301 889 
Q 1547 409 2034 409 
Q 2525 409 2770 889 
Q 3016 1369 3016 2328 
Q 3016 3291 2770 3770 
Q 2525 4250 2034 4250 
z
M 2034 4750 
Q 2819 4750 3233 4129 
Q 3647 3509 3647 2328 
Q 3647 1150 3233 529 
Q 2819 -91 2034 -91 
Q 1250 -91 836 529 
Q 422 1150 422 2328 
Q 422 3509 836 4129 
Q 1250 4750 2034 4750 
z
" transform="scale(0.015625)"/>
       </defs>
       <use xlink:href="#DejaVuSans-30"/>
      </g>
     </g>
    </g>
    <g id="ytick_2">
     <g id="line2d_2">
      <g>
       <use xlink:href="#m8f07b69f47" x="164.178947" y="223.389474" style="stroke: #000000; stroke-width: 0.8"/>
      </g>
     </g>
     <g id="text_6">
      <!-- 25 -->
      <g transform="translate(144.453947 227.188692)scale(0.1 -0.1)">
       <defs>
        <path id="DejaVuSans-35" d="M 691 4666 
L 3169 4666 
L 3169 4134 
L 1269 4134 
L 1269 2991 
Q 1406 3038 1543 3061 
Q 1681 3084 1819 3084 
Q 2600 3084 3056 2656 
Q 3513 2228 3513 1497 
Q 3513 744 3044 326 
Q 2575 -91 1722 -91 
Q 1428 -91 1123 -41 
Q 819 9 494 109 
L 494 744 
Q 775 591 1075 516 
Q 1375 441 1709 441 
Q 2250 441 2565 725 
Q 2881 1009 2881 1497 
Q 2881 1984 2565 2268 
Q 2250 2553 1709 2553 
Q 1456 2553 1204 2497 
Q 953 2441 691 2322 
L 691 4666 
z
" transform="scale(0.015625)"/>
       </defs>
       <use xlink:href="#DejaVuSans-32"/>
       <use xlink:href="#DejaVuSans-35" x="63.623047"/>
      </g>
     </g>
    </g>
    <g id="ytick_3">
     <g id="line2d_3">
      <g>
       <use xlink:href="#m8f07b69f47" x="164.178947" y="194.778947" style="stroke: #000000; stroke-width: 0.8"/>
      </g>
     </g>
     <g id="text_7">
      <!-- 50 -->
      <g transform="translate(144.453947 198.578166)scale(0.1 -0.1)">
       <use xlink:href="#DejaVuSans-35"/>
       <use xlink:href="#DejaVuSans-30" x="63.623047"/>
      </g>
     </g>
    </g>
    <g id="ytick_4">
     <g id="line2d_4">
      <g>
       <use xlink:href="#m8f07b69f47" x="164.178947" y="166.168421" style="stroke: #000000; stroke-width: 0.8"/>
      </g>
     </g>
     <g id="text_8">
      <!-- 75 -->
      <g transform="translate(144.453947 169.96764)scale(0.1 -0.1)">
       <defs>
        <path id="DejaVuSans-37" d="M 525 4666 
L 3525 4666 
L 3525 4397 
L 1831 0 
L 1172 0 
L 2766 4134 
L 525 4134 
L 525 4666 
z
" transform="scale(0.015625)"/>
       </defs>
       <use xlink:href="#DejaVuSans-37"/>
       <use xlink:href="#DejaVuSans-35" x="63.623047"/>
      </g>
     </g>
    </g>
    <g id="ytick_5">
     <g id="line2d_5">
      <g>
       <use xlink:href="#m8f07b69f47" x="164.178947" y="137.557895" style="stroke: #000000; stroke-width: 0.8"/>
      </g>
     </g>
     <g id="text_9">
      <!-- 100 -->
      <g transform="translate(138.091447 141.357113)scale(0.1 -0.1)">
       <use xlink:href="#DejaVuSans-31"/>
       <use xlink:href="#DejaVuSans-30" x="63.623047"/>
       <use xlink:href="#DejaVuSans-30" x="127.246094"/>
      </g>
     </g>
    </g>
    <g id="ytick_6">
     <g id="line2d_6">
      <g>
       <use xlink:href="#m8f07b69f47" x="164.178947" y="108.947368" style="stroke: #000000; stroke-width: 0.8"/>
      </g>
     </g>
     <g id="text_10">
      <!-- 125 -->
      <g transform="translate(138.091447 112.746587)scale(0.1 -0.1)">
       <use xlink:href="#DejaVuSans-31"/>
       <use xlink:href="#DejaVuSans-32" x="63.623047"/>
       <use xlink:href="#DejaVuSans-35" x="127.246094"/>
      </g>
     </g>
    </g>
    <g id="ytick_7">
     <g id="line2d_7">
      <g>
       <use xlink:href="#m8f07b69f47" x="164.178947" y="80.336842" style="stroke: #000000; stroke-width: 0.8"/>
      </g>
     </g>
     <g id="text_11">
      <!-- 150 -->
      <g transform="translate(138.091447 84.136061)scale(0.1 -0.1)">
       <use xlink:href="#DejaVuSans-31"/>
       <use xlink:href="#DejaVuSans-35" x="63.623047"/>
       <use xlink:href="#DejaVuSans-30" x="127.246094"/>
      </g>
     </g>
    </g>
    <g id="ytick_8">
     <g id="line2d_8">
      <g>
       <use xlink:href="#m8f07b69f47" x="164.178947" y="51.726316" style="stroke: #000000; stroke-width: 0.8"/>
      </g>
     </g>
     <g id="text_12">
      <!-- 175 -->
      <g transform="translate(138.091447 55.525535)scale(0.1 -0.1)">
       <use xlink:href="#DejaVuSans-31"/>
       <use xlink:href="#DejaVuSans-37" x="63.623047"/>
       <use xlink:href="#DejaVuSans-35" x="127.246094"/>
      </g>
     </g>
    </g>
    <g id="text_13">
     <!-- Synpases # in glomerulus -->
     <g transform="translate(131.595822 221.637187)rotate(-90)scale(0.12 -0.12)">
      <defs>
       <path id="DejaVuSans-53" d="M 3425 4513 
L 3425 3897 
Q 3066 4069 2747 4153 
Q 2428 4238 2131 4238 
Q 1616 4238 1336 4038 
Q 1056 3838 1056 3469 
Q 1056 3159 1242 3001 
Q 1428 2844 1947 2747 
L 2328 2669 
Q 3034 2534 3370 2195 
Q 3706 1856 3706 1288 
Q 3706 609 3251 259 
Q 2797 -91 1919 -91 
Q 1588 -91 1214 -16 
Q 841 59 441 206 
L 441 856 
Q 825 641 1194 531 
Q 1563 422 1919 422 
Q 2459 422 2753 634 
Q 3047 847 3047 1241 
Q 3047 1584 2836 1778 
Q 2625 1972 2144 2069 
L 1759 2144 
Q 1053 2284 737 2584 
Q 422 2884 422 3419 
Q 422 4038 858 4394 
Q 1294 4750 2059 4750 
Q 2388 4750 2728 4690 
Q 3069 4631 3425 4513 
z
" transform="scale(0.015625)"/>
       <path id="DejaVuSans-79" d="M 2059 -325 
Q 1816 -950 1584 -1140 
Q 1353 -1331 966 -1331 
L 506 -1331 
L 506 -850 
L 844 -850 
Q 1081 -850 1212 -737 
Q 1344 -625 1503 -206 
L 1606 56 
L 191 3500 
L 800 3500 
L 1894 763 
L 2988 3500 
L 3597 3500 
L 2059 -325 
z
" transform="scale(0.015625)"/>
       <path id="DejaVuSans-6e" d="M 3513 2113 
L 3513 0 
L 2938 0 
L 2938 2094 
Q 2938 2591 2744 2837 
Q 2550 3084 2163 3084 
Q 1697 3084 1428 2787 
Q 1159 2491 1159 1978 
L 1159 0 
L 581 0 
L 581 3500 
L 1159 3500 
L 1159 2956 
Q 1366 3272 1645 3428 
Q 1925 3584 2291 3584 
Q 2894 3584 3203 3211 
Q 3513 2838 3513 2113 
z
" transform="scale(0.015625)"/>
       <path id="DejaVuSans-70" d="M 1159 525 
L 1159 -1331 
L 581 -1331 
L 581 3500 
L 1159 3500 
L 1159 2969 
Q 1341 3281 1617 3432 
Q 1894 3584 2278 3584 
Q 2916 3584 3314 3078 
Q 3713 2572 3713 1747 
Q 3713 922 3314 415 
Q 2916 -91 2278 -91 
Q 1894 -91 1617 61 
Q 1341 213 1159 525 
z
M 3116 1747 
Q 3116 2381 2855 2742 
Q 2594 3103 2138 3103 
Q 1681 3103 1420 2742 
Q 1159 2381 1159 1747 
Q 1159 1113 1420 752 
Q 1681 391 2138 391 
Q 2594 391 2855 752 
Q 3116 1113 3116 1747 
z
" transform="scale(0.015625)"/>
       <path id="DejaVuSans-61" d="M 2194 1759 
Q 1497 1759 1228 1600 
Q 959 1441 959 1056 
Q 959 750 1161 570 
Q 1363 391 1709 391 
Q 2188 391 2477 730 
Q 2766 1069 2766 1631 
L 2766 1759 
L 2194 1759 
z
M 3341 1997 
L 3341 0 
L 2766 0 
L 2766 531 
Q 2569 213 2275 61 
Q 1981 -91 1556 -91 
Q 1019 -91 701 211 
Q 384 513 384 1019 
Q 384 1609 779 1909 
Q 1175 2209 1959 2209 
L 2766 2209 
L 2766 2266 
Q 2766 2663 2505 2880 
Q 2244 3097 1772 3097 
Q 1472 3097 1187 3025 
Q 903 2953 641 2809 
L 641 3341 
Q 956 3463 1253 3523 
Q 1550 3584 1831 3584 
Q 2591 3584 2966 3190 
Q 3341 2797 3341 1997 
z
" transform="scale(0.015625)"/>
       <path id="DejaVuSans-20" transform="scale(0.015625)"/>
       <path id="DejaVuSans-23" d="M 3272 2816 
L 2363 2816 
L 2100 1772 
L 3016 1772 
L 3272 2816 
z
M 2803 4594 
L 2478 3297 
L 3391 3297 
L 3719 4594 
L 4219 4594 
L 3897 3297 
L 4872 3297 
L 4872 2816 
L 3775 2816 
L 3519 1772 
L 4513 1772 
L 4513 1294 
L 3397 1294 
L 3072 0 
L 2572 0 
L 2894 1294 
L 1978 1294 
L 1656 0 
L 1153 0 
L 1478 1294 
L 494 1294 
L 494 1772 
L 1594 1772 
L 1856 2816 
L 850 2816 
L 850 3297 
L 1978 3297 
L 2297 4594 
L 2803 4594 
z
" transform="scale(0.015625)"/>
       <path id="DejaVuSans-69" d="M 603 3500 
L 1178 3500 
L 1178 0 
L 603 0 
L 603 3500 
z
M 603 4863 
L 1178 4863 
L 1178 4134 
L 603 4134 
L 603 4863 
z
" transform="scale(0.015625)"/>
       <path id="DejaVuSans-67" d="M 2906 1791 
Q 2906 2416 2648 2759 
Q 2391 3103 1925 3103 
Q 1463 3103 1205 2759 
Q 947 2416 947 1791 
Q 947 1169 1205 825 
Q 1463 481 1925 481 
Q 2391 481 2648 825 
Q 2906 1169 2906 1791 
z
M 3481 434 
Q 3481 -459 3084 -895 
Q 2688 -1331 1869 -1331 
Q 1566 -1331 1297 -1286 
Q 1028 -1241 775 -1147 
L 775 -588 
Q 1028 -725 1275 -790 
Q 1522 -856 1778 -856 
Q 2344 -856 2625 -561 
Q 2906 -266 2906 331 
L 2906 616 
Q 2728 306 2450 153 
Q 2172 0 1784 0 
Q 1141 0 747 490 
Q 353 981 353 1791 
Q 353 2603 747 3093 
Q 1141 3584 1784 3584 
Q 2172 3584 2450 3431 
Q 2728 3278 2906 2969 
L 2906 3500 
L 3481 3500 
L 3481 434 
z
" transform="scale(0.015625)"/>
      </defs>
      <use xlink:href="#DejaVuSans-53"/>
      <use xlink:href="#DejaVuSans-79" x="63.476562"/>
      <use xlink:href="#DejaVuSans-6e" x="122.65625"/>
      <use xlink:href="#DejaVuSans-70" x="186.035156"/>
      <use xlink:href="#DejaVuSans-61" x="249.511719"/>
      <use xlink:href="#DejaVuSans-73" x="310.791016"/>
      <use xlink:href="#DejaVuSans-65" x="362.890625"/>
      <use xlink:href="#DejaVuSans-73" x="424.414062"/>
      <use xlink:href="#DejaVuSans-20" x="476.513672"/>
      <use xlink:href="#DejaVuSans-23" x="508.300781"/>
      <use xlink:href="#DejaVuSans-20" x="592.089844"/>
      <use xlink:href="#DejaVuSans-69" x="623.876953"/>
      <use xlink:href="#DejaVuSans-6e" x="651.660156"/>
      <use xlink:href="#DejaVuSans-20" x="715.039062"/>
      <use xlink:href="#DejaVuSans-67" x="746.826172"/>
      <use xlink:href="#DejaVuSans-6c" x="810.302734"/>
      <use xlink:href="#DejaVuSans-6f" x="838.085938"/>
      <use xlink:href="#DejaVuSans-6d" x="899.267578"/>
      <use xlink:href="#DejaVuSans-65" x="996.679688"/>
      <use xlink:href="#DejaVuSans-72" x="1058.203125"/>
      <use xlink:href="#DejaVuSans-75" x="1099.316406"/>
      <use xlink:href="#DejaVuSans-6c" x="1162.695312"/>
      <use xlink:href="#DejaVuSans-75" x="1190.478516"/>
      <use xlink:href="#DejaVuSans-73" x="1253.857422"/>
     </g>
    </g>
   </g>
   <g id="line2d_9">
    <path d="M 177.192235 95.214316 
L 189.313028 95.214316 
" clip-path="url(#pa2a4725ede)" style="fill: none; stroke: #000000; stroke-width: 1.5; stroke-linecap: square"/>
   </g>
   <g id="line2d_10">
    <path d="M 209.475071 138.816758 
L 233.324929 138.816758 
" clip-path="url(#pa2a4725ede)" style="fill: none; stroke: #000000; stroke-width: 1.5; stroke-linecap: square"/>
   </g>
   <g id="line2d_11">
    <path d="M 245.186815 90.979958 
L 273.907922 90.979958 
" clip-path="url(#pa2a4725ede)" style="fill: none; stroke: #000000; stroke-width: 1.5; stroke-linecap: square"/>
   </g>
   <g id="patch_3">
    <path d="M 164.178947 252 
L 164.178947 34.56 
" style="fill: none; stroke: #000000; stroke-width: 0.8; stroke-linejoin: miter; stroke-linecap: square"/>
   </g>
   <g id="PathCollection_1">
    <defs>
     <path id="C0_0_d4dd2c9310" d="M 0 2.5 
C 0.663008 2.5 1.29895 2.236584 1.767767 1.767767 
C 2.236584 1.29895 2.5 0.663008 2.5 -0 
C 2.5 -0.663008 2.236584 -1.29895 1.767767 -1.767767 
C 1.29895 -2.236584 0.663008 -2.5 0 -2.5 
C -0.663008 -2.5 -1.29895 -2.236584 -1.767767 -1.767767 
C -2.236584 -1.29895 -2.5 -0.663008 -2.5 0 
C -2.5 0.663008 -2.236584 1.29895 -1.767767 1.767767 
C -1.29895 2.236584 -0.663008 2.5 0 2.5 
z
"/>
    </defs>
    <g clip-path="url(#pa2a4725ede)">
     <use xlink:href="#C0_0_d4dd2c9310" x="182.234979" y="68.892632" style="fill: #ee82ee"/>
    </g>
    <g clip-path="url(#pa2a4725ede)">
     <use xlink:href="#C0_0_d4dd2c9310" x="179.629681" y="73.470316" style="fill: #ee82ee"/>
    </g>
    <g clip-path="url(#pa2a4725ede)">
     <use xlink:href="#C0_0_d4dd2c9310" x="182.871547" y="126.113684" style="fill: #ee82ee"/>
    </g>
    <g clip-path="url(#pa2a4725ede)">
     <use xlink:href="#C0_0_d4dd2c9310" x="184.28172" y="120.391579" style="fill: #ee82ee"/>
    </g>
    <g clip-path="url(#pa2a4725ede)">
     <use xlink:href="#C0_0_d4dd2c9310" x="180.764265" y="79.192421" style="fill: #ee82ee"/>
    </g>
    <g clip-path="url(#pa2a4725ede)">
     <use xlink:href="#C0_0_d4dd2c9310" x="184.236489" y="86.058947" style="fill: #ee82ee"/>
    </g>
    <g clip-path="url(#pa2a4725ede)">
     <use xlink:href="#C0_0_d4dd2c9310" x="185.927774" y="44.859789" style="fill: #ee82ee"/>
    </g>
    <g clip-path="url(#pa2a4725ede)">
     <use xlink:href="#C0_0_d4dd2c9310" x="184.938867" y="92.925474" style="fill: #ee82ee"/>
    </g>
    <g clip-path="url(#pa2a4725ede)">
     <use xlink:href="#C0_0_d4dd2c9310" x="181.660976" y="150.146526" style="fill: #ee82ee"/>
    </g>
    <g clip-path="url(#pa2a4725ede)">
     <use xlink:href="#C0_0_d4dd2c9310" x="181.704474" y="110.091789" style="fill: #ee82ee"/>
    </g>
   </g>
   <g id="PathCollection_2">
    <defs>
     <path id="C1_0_aa160907de" d="M 0 2.5 
C 0.663008 2.5 1.29895 2.236584 1.767767 1.767767 
C 2.236584 1.29895 2.5 0.663008 2.5 -0 
C 2.5 -0.663008 2.236584 -1.29895 1.767767 -1.767767 
C 1.29895 -2.236584 0.663008 -2.5 0 -2.5 
C -0.663008 -2.5 -1.29895 -2.236584 -1.767767 -1.767767 
C -2.236584 -1.29895 -2.5 -0.663008 -2.5 0 
C -2.5 0.663008 -2.236584 1.29895 -1.767767 1.767767 
C -1.29895 2.236584 -0.663008 2.5 0 2.5 
z
"/>
    </defs>
    <g clip-path="url(#pa2a4725ede)">
     <use xlink:href="#C1_0_aa160907de" x="220.067317" y="136.413474" style="fill: #0000ff"/>
    </g>
    <g clip-path="url(#pa2a4725ede)">
     <use xlink:href="#C1_0_aa160907de" x="220.827114" y="134.124632" style="fill: #0000ff"/>
    </g>
    <g clip-path="url(#pa2a4725ede)">
     <use xlink:href="#C1_0_aa160907de" x="219.739358" y="138.702316" style="fill: #0000ff"/>
    </g>
    <g clip-path="url(#pa2a4725ede)">
     <use xlink:href="#C1_0_aa160907de" x="221.224821" y="127.258105" style="fill: #0000ff"/>
    </g>
    <g clip-path="url(#pa2a4725ede)">
     <use xlink:href="#C1_0_aa160907de" x="220.291464" y="151.290947" style="fill: #0000ff"/>
    </g>
    <g clip-path="url(#pa2a4725ede)">
     <use xlink:href="#C1_0_aa160907de" x="218.534824" y="132.980211" style="fill: #0000ff"/>
    </g>
    <g clip-path="url(#pa2a4725ede)">
     <use xlink:href="#C1_0_aa160907de" x="225.148464" y="118.102737" style="fill: #0000ff"/>
    </g>
    <g clip-path="url(#pa2a4725ede)">
     <use xlink:href="#C1_0_aa160907de" x="224.839387" y="134.124632" style="fill: #0000ff"/>
    </g>
    <g clip-path="url(#pa2a4725ede)">
     <use xlink:href="#C1_0_aa160907de" x="224.031059" y="121.536" style="fill: #0000ff"/>
    </g>
    <g clip-path="url(#pa2a4725ede)">
     <use xlink:href="#C1_0_aa160907de" x="220.479358" y="193.634526" style="fill: #0000ff"/>
    </g>
   </g>
   <g id="PathCollection_3">
    <defs>
     <path id="C2_0_b11a7f003a" d="M 0 2.5 
C 0.663008 2.5 1.29895 2.236584 1.767767 1.767767 
C 2.236584 1.29895 2.5 0.663008 2.5 -0 
C 2.5 -0.663008 2.236584 -1.29895 1.767767 -1.767767 
C 1.29895 -2.236584 0.663008 -2.5 0 -2.5 
C -0.663008 -2.5 -1.29895 -2.236584 -1.767767 -1.767767 
C -2.236584 -1.29895 -2.5 -0.663008 -2.5 0 
C -2.5 0.663008 -2.236584 1.29895 -1.767767 1.767767 
C -1.29895 2.236584 -0.663008 2.5 0 2.5 
z
"/>
    </defs>
    <g clip-path="url(#pa2a4725ede)">
     <use xlink:href="#C2_0_b11a7f003a" x="257.107521" y="83.770105" style="fill: #00fa9a"/>
    </g>
    <g clip-path="url(#pa2a4725ede)">
     <use xlink:href="#C2_0_b11a7f003a" x="256.914603" y="104.369684" style="fill: #00fa9a"/>
    </g>
    <g clip-path="url(#pa2a4725ede)">
     <use xlink:href="#C2_0_b11a7f003a" x="257.496609" y="104.369684" style="fill: #00fa9a"/>
    </g>
    <g clip-path="url(#pa2a4725ede)">
     <use xlink:href="#C2_0_b11a7f003a" x="263.266387" y="49.437474" style="fill: #00fa9a"/>
    </g>
    <g clip-path="url(#pa2a4725ede)">
     <use xlink:href="#C2_0_b11a7f003a" x="260.505996" y="97.503158" style="fill: #00fa9a"/>
    </g>
    <g clip-path="url(#pa2a4725ede)">
     <use xlink:href="#C2_0_b11a7f003a" x="262.882465" y="88.347789" style="fill: #00fa9a"/>
    </g>
    <g clip-path="url(#pa2a4725ede)">
     <use xlink:href="#C2_0_b11a7f003a" x="256.364944" y="91.781053" style="fill: #00fa9a"/>
    </g>
    <g clip-path="url(#pa2a4725ede)">
     <use xlink:href="#C2_0_b11a7f003a" x="261.054422" y="86.058947" style="fill: #00fa9a"/>
    </g>
    <g clip-path="url(#pa2a4725ede)">
     <use xlink:href="#C2_0_b11a7f003a" x="258.491836" y="96.358737" style="fill: #00fa9a"/>
    </g>
    <g clip-path="url(#pa2a4725ede)">
     <use xlink:href="#C2_0_b11a7f003a" x="256.073069" y="107.802947" style="fill: #00fa9a"/>
    </g>
   </g>
  </g>
 </g>
 <defs>
  <clipPath id="pa2a4725ede">
   <rect x="164.178947" y="34.56" width="114.442105" height="217.44"/>
  </clipPath>
 </defs>
</svg>
