<?xml version="1.0" encoding="utf-8" standalone="no"?>
<!DOCTYPE svg PUBLIC "-//W3C//DTD SVG 1.1//EN"
  "http://www.w3.org/Graphics/SVG/1.1/DTD/svg11.dtd">
<svg xmlns:xlink="http://www.w3.org/1999/xlink" width="432pt" height="288pt" viewBox="0 0 432 288" xmlns="http://www.w3.org/2000/svg" version="1.1">
 <metadata>
  <rdf:RDF xmlns:dc="http://purl.org/dc/elements/1.1/" xmlns:cc="http://creativecommons.org/ns#" xmlns:rdf="http://www.w3.org/1999/02/22-rdf-syntax-ns#">
   <cc:Work>
    <dc:type rdf:resource="http://purl.org/dc/dcmitype/StillImage"/>
    <dc:date>2024-01-28T08:36:13.014522</dc:date>
    <dc:format>image/svg+xml</dc:format>
    <dc:creator>
     <cc:Agent>
      <dc:title>Matplotlib v3.5.1, https://matplotlib.org/</dc:title>
     </cc:Agent>
    </dc:creator>
   </cc:Work>
  </rdf:RDF>
 </metadata>
 <defs>
  <style type="text/css">*{stroke-linejoin: round; stroke-linecap: butt}</style>
 </defs>
 <g id="figure_1">
  <g id="patch_1">
   <path d="M 0 288 
L 432 288 
L 432 0 
L 0 0 
L 0 288 
z
" style="fill: none"/>
  </g>
  <g id="axes_1">
   <g id="patch_2">
    <path d="M 158.676923 252 
L 284.123077 252 
L 284.123077 34.56 
L 158.676923 34.56 
z
" style="fill: #ffffff"/>
   </g>
   <g id="PolyCollection_1">
    <defs>
     <path id="m22e59bbf2c" d="M 189.795734 -68.309853 
L 169.373496 -68.309853 
L 169.11562 -68.718423 
L 168.862739 -69.126992 
L 168.615039 -69.535562 
L 168.372661 -69.944131 
L 168.13571 -70.352701 
L 167.904257 -70.76127 
L 167.678339 -71.16984 
L 167.457967 -71.57841 
L 167.243126 -71.986979 
L 167.033784 -72.395549 
L 166.829891 -72.804118 
L 166.631386 -73.212688 
L 166.438202 -73.621257 
L 166.250266 -74.029827 
L 166.067505 -74.438396 
L 165.889852 -74.846966 
L 165.717241 -75.255535 
L 165.549618 -75.664105 
L 165.386934 -76.072674 
L 165.229155 -76.481244 
L 165.076255 -76.889813 
L 164.928223 -77.298383 
L 164.785055 -77.706952 
L 164.646762 -78.115522 
L 164.513362 -78.524092 
L 164.384882 -78.932661 
L 164.261356 -79.341231 
L 164.142823 -79.7498 
L 164.029325 -80.15837 
L 163.920906 -80.566939 
L 163.817609 -80.975509 
L 163.719477 -81.384078 
L 163.626546 -81.792648 
L 163.538851 -82.201217 
L 163.45642 -82.609787 
L 163.379276 -83.018356 
L 163.307436 -83.426926 
L 163.240909 -83.835495 
L 163.179703 -84.244065 
L 163.123819 -84.652634 
L 163.073256 -85.061204 
L 163.028011 -85.469773 
L 162.988083 -85.878343 
L 162.953474 -86.286913 
L 162.924188 -86.695482 
L 162.900241 -87.104052 
L 162.881653 -87.512621 
L 162.86846 -87.921191 
L 162.860708 -88.32976 
L 162.858462 -88.73833 
L 162.861799 -89.146899 
L 162.870819 -89.555469 
L 162.885636 -89.964038 
L 162.906386 -90.372608 
L 162.93322 -90.781177 
L 162.96631 -91.189747 
L 163.005842 -91.598316 
L 163.052017 -92.006886 
L 163.105051 -92.415455 
L 163.165165 -92.824025 
L 163.232589 -93.232595 
L 163.307558 -93.641164 
L 163.390303 -94.049734 
L 163.481051 -94.458303 
L 163.580022 -94.866873 
L 163.687422 -95.275442 
L 163.80344 -95.684012 
L 163.928243 -96.092581 
L 164.061976 -96.501151 
L 164.204752 -96.90972 
L 164.356655 -97.31829 
L 164.517732 -97.726859 
L 164.687994 -98.135429 
L 164.867413 -98.543998 
L 165.05592 -98.952568 
L 165.253404 -99.361137 
L 165.459713 -99.769707 
L 165.674652 -100.178277 
L 165.897985 -100.586846 
L 166.129436 -100.995416 
L 166.368692 -101.403985 
L 166.615399 -101.812555 
L 166.869174 -102.221124 
L 167.129599 -102.629694 
L 167.396229 -103.038263 
L 167.668594 -103.446833 
L 167.9462 -103.855402 
L 168.228536 -104.263972 
L 168.515076 -104.672541 
L 168.805282 -105.081111 
L 169.098607 -105.48968 
L 169.394498 -105.89825 
L 169.692403 -106.306819 
L 169.991767 -106.715389 
L 170.292042 -107.123958 
L 170.592683 -107.532528 
L 170.893156 -107.941098 
L 171.192934 -108.349667 
L 171.491507 -108.758237 
L 187.677724 -108.758237 
L 187.677724 -108.758237 
L 187.976297 -108.349667 
L 188.276075 -107.941098 
L 188.576548 -107.532528 
L 188.877189 -107.123958 
L 189.177463 -106.715389 
L 189.476828 -106.306819 
L 189.774732 -105.89825 
L 190.070624 -105.48968 
L 190.363949 -105.081111 
L 190.654154 -104.672541 
L 190.940695 -104.263972 
L 191.223031 -103.855402 
L 191.500637 -103.446833 
L 191.773001 -103.038263 
L 192.039632 -102.629694 
L 192.300057 -102.221124 
L 192.553832 -101.812555 
L 192.800539 -101.403985 
L 193.039794 -100.995416 
L 193.271246 -100.586846 
L 193.494579 -100.178277 
L 193.709518 -99.769707 
L 193.915827 -99.361137 
L 194.113311 -98.952568 
L 194.301818 -98.543998 
L 194.481237 -98.135429 
L 194.651499 -97.726859 
L 194.812576 -97.31829 
L 194.964478 -96.90972 
L 195.107255 -96.501151 
L 195.240987 -96.092581 
L 195.365791 -95.684012 
L 195.481809 -95.275442 
L 195.589209 -94.866873 
L 195.68818 -94.458303 
L 195.778928 -94.049734 
L 195.861673 -93.641164 
L 195.936641 -93.232595 
L 196.004066 -92.824025 
L 196.06418 -92.415455 
L 196.117213 -92.006886 
L 196.163389 -91.598316 
L 196.202921 -91.189747 
L 196.236011 -90.781177 
L 196.262845 -90.372608 
L 196.283595 -89.964038 
L 196.298412 -89.555469 
L 196.307431 -89.146899 
L 196.310769 -88.73833 
L 196.308523 -88.32976 
L 196.300771 -87.921191 
L 196.287578 -87.512621 
L 196.26899 -87.104052 
L 196.245042 -86.695482 
L 196.215757 -86.286913 
L 196.181148 -85.878343 
L 196.14122 -85.469773 
L 196.095975 -85.061204 
L 196.045412 -84.652634 
L 195.989528 -84.244065 
L 195.928322 -83.835495 
L 195.861795 -83.426926 
L 195.789955 -83.018356 
L 195.712811 -82.609787 
L 195.63038 -82.201217 
L 195.542685 -81.792648 
L 195.449754 -81.384078 
L 195.351621 -80.975509 
L 195.248325 -80.566939 
L 195.139906 -80.15837 
L 195.026408 -79.7498 
L 194.907875 -79.341231 
L 194.784349 -78.932661 
L 194.655869 -78.524092 
L 194.522469 -78.115522 
L 194.384175 -77.706952 
L 194.241008 -77.298383 
L 194.092975 -76.889813 
L 193.940076 -76.481244 
L 193.782297 -76.072674 
L 193.619613 -75.664105 
L 193.45199 -75.255535 
L 193.279379 -74.846966 
L 193.101725 -74.438396 
L 192.918965 -74.029827 
L 192.731029 -73.621257 
L 192.537844 -73.212688 
L 192.33934 -72.804118 
L 192.135447 -72.395549 
L 191.926105 -71.986979 
L 191.711264 -71.57841 
L 191.490892 -71.16984 
L 191.264974 -70.76127 
L 191.033521 -70.352701 
L 190.79657 -69.944131 
L 190.554192 -69.535562 
L 190.306491 -69.126992 
L 190.053611 -68.718423 
L 189.795734 -68.309853 
z
" style="stroke: #ee82ee; stroke-width: 1.5"/>
    </defs>
    <g clip-path="url(#p089ec65826)">
     <use xlink:href="#m22e59bbf2c" x="0" y="288" style="fill: #ffffff; stroke: #ee82ee; stroke-width: 1.5"/>
    </g>
   </g>
   <g id="PolyCollection_2">
    <defs>
     <path id="md8e49a0a36" d="M 223.899065 -86.996744 
L 218.900935 -86.996744 
L 218.778189 -88.40287 
L 218.652391 -89.808996 
L 218.523557 -91.215122 
L 218.39172 -92.621248 
L 218.256927 -94.027374 
L 218.119242 -95.4335 
L 217.978752 -96.839626 
L 217.835562 -98.245752 
L 217.689804 -99.651879 
L 217.541631 -101.058005 
L 217.391221 -102.464131 
L 217.238773 -103.870257 
L 217.084512 -105.276383 
L 216.928684 -106.682509 
L 216.771555 -108.088635 
L 216.613411 -109.494761 
L 216.454558 -110.900887 
L 216.295318 -112.307014 
L 216.136031 -113.71314 
L 215.977055 -115.119266 
L 215.818765 -116.525392 
L 215.661554 -117.931518 
L 215.505836 -119.337644 
L 215.352045 -120.74377 
L 215.20064 -122.149896 
L 215.052108 -123.556022 
L 214.906965 -124.962148 
L 214.765758 -126.368275 
L 214.62907 -127.774401 
L 214.49752 -129.180527 
L 214.371765 -130.586653 
L 214.252498 -131.992779 
L 214.14045 -133.398905 
L 214.036382 -134.805031 
L 213.941085 -136.211157 
L 213.855372 -137.617283 
L 213.780068 -139.02341 
L 213.716001 -140.429536 
L 213.663992 -141.835662 
L 213.624838 -143.241788 
L 213.5993 -144.647914 
L 213.588086 -146.05404 
L 213.591836 -147.460166 
L 213.611105 -148.866292 
L 213.646347 -150.272418 
L 213.6979 -151.678544 
L 213.765973 -153.084671 
L 213.850632 -154.490797 
L 213.951791 -155.896923 
L 214.069205 -157.303049 
L 214.202466 -158.709175 
L 214.351 -160.115301 
L 214.514069 -161.521427 
L 214.690779 -162.927553 
L 214.880083 -164.333679 
L 215.080797 -165.739805 
L 215.291612 -167.145932 
L 215.511111 -168.552058 
L 215.737788 -169.958184 
L 215.970071 -171.36431 
L 216.206338 -172.770436 
L 216.444948 -174.176562 
L 216.684258 -175.582688 
L 216.922646 -176.988814 
L 217.158539 -178.39494 
L 217.390427 -179.801067 
L 217.616885 -181.207193 
L 217.836594 -182.613319 
L 218.048352 -184.019445 
L 218.251087 -185.425571 
L 218.44387 -186.831697 
L 218.625924 -188.237823 
L 218.796622 -189.643949 
L 218.955499 -191.050075 
L 219.102242 -192.456201 
L 219.236697 -193.862328 
L 219.358857 -195.268454 
L 219.468857 -196.67458 
L 219.566967 -198.080706 
L 219.653579 -199.486832 
L 219.729198 -200.892958 
L 219.794428 -202.299084 
L 219.849957 -203.70521 
L 219.896546 -205.111336 
L 219.935011 -206.517463 
L 219.966212 -207.923589 
L 219.991037 -209.329715 
L 220.010389 -210.735841 
L 220.02517 -212.141967 
L 220.036272 -213.548093 
L 220.044562 -214.954219 
L 220.050873 -216.360345 
L 220.055994 -217.766471 
L 220.060661 -219.172597 
L 220.06555 -220.578724 
L 220.07127 -221.98485 
L 220.078357 -223.390976 
L 220.087277 -224.797102 
L 220.098414 -226.203228 
L 222.701586 -226.203228 
L 222.701586 -226.203228 
L 222.712723 -224.797102 
L 222.721643 -223.390976 
L 222.72873 -221.98485 
L 222.73445 -220.578724 
L 222.739339 -219.172597 
L 222.744006 -217.766471 
L 222.749127 -216.360345 
L 222.755438 -214.954219 
L 222.763728 -213.548093 
L 222.77483 -212.141967 
L 222.789611 -210.735841 
L 222.808963 -209.329715 
L 222.833788 -207.923589 
L 222.864989 -206.517463 
L 222.903454 -205.111336 
L 222.950043 -203.70521 
L 223.005572 -202.299084 
L 223.070802 -200.892958 
L 223.146421 -199.486832 
L 223.233033 -198.080706 
L 223.331143 -196.67458 
L 223.441143 -195.268454 
L 223.563303 -193.862328 
L 223.697758 -192.456201 
L 223.844501 -191.050075 
L 224.003378 -189.643949 
L 224.174076 -188.237823 
L 224.35613 -186.831697 
L 224.548913 -185.425571 
L 224.751648 -184.019445 
L 224.963406 -182.613319 
L 225.183115 -181.207193 
L 225.409573 -179.801067 
L 225.641461 -178.39494 
L 225.877354 -176.988814 
L 226.115742 -175.582688 
L 226.355052 -174.176562 
L 226.593662 -172.770436 
L 226.829929 -171.36431 
L 227.062212 -169.958184 
L 227.288889 -168.552058 
L 227.508388 -167.145932 
L 227.719203 -165.739805 
L 227.919917 -164.333679 
L 228.109221 -162.927553 
L 228.285931 -161.521427 
L 228.449 -160.115301 
L 228.597534 -158.709175 
L 228.730795 -157.303049 
L 228.848209 -155.896923 
L 228.949368 -154.490797 
L 229.034027 -153.084671 
L 229.1021 -151.678544 
L 229.153653 -150.272418 
L 229.188895 -148.866292 
L 229.208164 -147.460166 
L 229.211914 -146.05404 
L 229.2007 -144.647914 
L 229.175162 -143.241788 
L 229.136008 -141.835662 
L 229.083999 -140.429536 
L 229.019932 -139.02341 
L 228.944628 -137.617283 
L 228.858915 -136.211157 
L 228.763618 -134.805031 
L 228.65955 -133.398905 
L 228.547502 -131.992779 
L 228.428235 -130.586653 
L 228.30248 -129.180527 
L 228.17093 -127.774401 
L 228.034242 -126.368275 
L 227.893035 -124.962148 
L 227.747892 -123.556022 
L 227.59936 -122.149896 
L 227.447955 -120.74377 
L 227.294164 -119.337644 
L 227.138446 -117.931518 
L 226.981235 -116.525392 
L 226.822945 -115.119266 
L 226.663969 -113.71314 
L 226.504682 -112.307014 
L 226.345442 -110.900887 
L 226.186589 -109.494761 
L 226.028445 -108.088635 
L 225.871316 -106.682509 
L 225.715488 -105.276383 
L 225.561227 -103.870257 
L 225.408779 -102.464131 
L 225.258369 -101.058005 
L 225.110196 -99.651879 
L 224.964438 -98.245752 
L 224.821248 -96.839626 
L 224.680758 -95.4335 
L 224.543073 -94.027374 
L 224.40828 -92.621248 
L 224.276443 -91.215122 
L 224.147609 -89.808996 
L 224.021811 -88.40287 
L 223.899065 -86.996744 
z
" style="stroke: #0000ff; stroke-width: 1.5"/>
    </defs>
    <g clip-path="url(#p089ec65826)">
     <use xlink:href="#md8e49a0a36" x="0" y="288" style="fill: #ffffff; stroke: #0000ff; stroke-width: 1.5"/>
    </g>
   </g>
   <g id="PolyCollection_3">
    <defs>
     <path id="m3bd02a0884" d="M 270.079298 -173.665025 
L 256.351471 -173.665025 
L 256.153311 -174.458229 
L 255.958397 -175.251432 
L 255.767089 -176.044635 
L 255.579731 -176.837838 
L 255.396653 -177.631041 
L 255.218166 -178.424245 
L 255.044571 -179.217448 
L 254.876155 -180.010651 
L 254.713192 -180.803854 
L 254.55595 -181.597057 
L 254.404686 -182.390261 
L 254.259655 -183.183464 
L 254.121105 -183.976667 
L 253.989284 -184.76987 
L 253.864439 -185.563073 
L 253.74682 -186.356277 
L 253.636676 -187.14948 
L 253.534263 -187.942683 
L 253.439839 -188.735886 
L 253.353664 -189.529089 
L 253.276002 -190.322293 
L 253.207122 -191.115496 
L 253.147288 -191.908699 
L 253.096765 -192.701902 
L 253.055815 -193.495105 
L 253.024689 -194.288308 
L 253.003631 -195.081512 
L 252.992867 -195.874715 
L 252.992604 -196.667918 
L 253.003028 -197.461121 
L 253.024295 -198.254324 
L 253.056526 -199.047528 
L 253.099807 -199.840731 
L 253.154182 -200.633934 
L 253.219647 -201.427137 
L 253.296146 -202.22034 
L 253.38357 -203.013544 
L 253.481754 -203.806747 
L 253.590469 -204.59995 
L 253.709428 -205.393153 
L 253.838278 -206.186356 
L 253.976603 -206.97956 
L 254.123924 -207.772763 
L 254.279701 -208.565966 
L 254.443332 -209.359169 
L 254.614159 -210.152372 
L 254.791472 -210.945576 
L 254.974512 -211.738779 
L 255.162476 -212.531982 
L 255.354524 -213.325185 
L 255.549786 -214.118388 
L 255.74737 -214.911592 
L 255.946367 -215.704795 
L 256.14586 -216.497998 
L 256.344934 -217.291201 
L 256.542682 -218.084404 
L 256.738215 -218.877608 
L 256.93067 -219.670811 
L 257.119216 -220.464014 
L 257.303066 -221.257217 
L 257.48148 -222.05042 
L 257.653775 -222.843624 
L 257.819329 -223.636827 
L 257.977588 -224.43003 
L 258.12807 -225.223233 
L 258.270369 -226.016436 
L 258.40416 -226.80964 
L 258.529198 -227.602843 
L 258.645322 -228.396046 
L 258.752455 -229.189249 
L 258.850603 -229.982452 
L 258.939851 -230.775656 
L 259.020367 -231.568859 
L 259.092394 -232.362062 
L 259.156246 -233.155265 
L 259.212308 -233.948468 
L 259.261025 -234.741672 
L 259.302898 -235.534875 
L 259.33848 -236.328078 
L 259.368368 -237.121281 
L 259.393192 -237.914484 
L 259.413614 -238.707688 
L 259.430315 -239.500891 
L 259.44399 -240.294094 
L 259.45534 -241.087297 
L 259.465063 -241.8805 
L 259.47385 -242.673703 
L 259.482374 -243.466907 
L 259.491286 -244.26011 
L 259.501206 -245.053313 
L 259.512721 -245.846516 
L 259.526377 -246.639719 
L 259.542675 -247.432923 
L 259.562068 -248.226126 
L 259.584955 -249.019329 
L 259.611682 -249.812532 
L 259.642538 -250.605735 
L 259.677754 -251.398939 
L 259.717501 -252.192142 
L 266.713268 -252.192142 
L 266.713268 -252.192142 
L 266.753016 -251.398939 
L 266.788231 -250.605735 
L 266.819087 -249.812532 
L 266.845814 -249.019329 
L 266.868702 -248.226126 
L 266.888094 -247.432923 
L 266.904392 -246.639719 
L 266.918048 -245.846516 
L 266.929563 -245.053313 
L 266.939484 -244.26011 
L 266.948395 -243.466907 
L 266.956919 -242.673703 
L 266.965706 -241.8805 
L 266.975429 -241.087297 
L 266.986779 -240.294094 
L 267.000454 -239.500891 
L 267.017155 -238.707688 
L 267.037577 -237.914484 
L 267.062401 -237.121281 
L 267.092289 -236.328078 
L 267.127871 -235.534875 
L 267.169745 -234.741672 
L 267.218461 -233.948468 
L 267.274523 -233.155265 
L 267.338375 -232.362062 
L 267.410402 -231.568859 
L 267.490918 -230.775656 
L 267.580167 -229.982452 
L 267.678314 -229.189249 
L 267.785447 -228.396046 
L 267.901571 -227.602843 
L 268.02661 -226.80964 
L 268.1604 -226.016436 
L 268.3027 -225.223233 
L 268.453181 -224.43003 
L 268.61144 -223.636827 
L 268.776994 -222.843624 
L 268.949289 -222.05042 
L 269.127703 -221.257217 
L 269.311553 -220.464014 
L 269.500099 -219.670811 
L 269.692554 -218.877608 
L 269.888087 -218.084404 
L 270.085835 -217.291201 
L 270.284909 -216.497998 
L 270.484402 -215.704795 
L 270.683399 -214.911592 
L 270.880983 -214.118388 
L 271.076246 -213.325185 
L 271.268294 -212.531982 
L 271.456257 -211.738779 
L 271.639297 -210.945576 
L 271.81661 -210.152372 
L 271.987437 -209.359169 
L 272.151068 -208.565966 
L 272.306845 -207.772763 
L 272.454166 -206.97956 
L 272.592491 -206.186356 
L 272.721341 -205.393153 
L 272.8403 -204.59995 
L 272.949016 -203.806747 
L 273.047199 -203.013544 
L 273.134624 -202.22034 
L 273.211123 -201.427137 
L 273.276587 -200.633934 
L 273.330962 -199.840731 
L 273.374243 -199.047528 
L 273.406475 -198.254324 
L 273.427741 -197.461121 
L 273.438165 -196.667918 
L 273.437902 -195.874715 
L 273.427138 -195.081512 
L 273.40608 -194.288308 
L 273.374955 -193.495105 
L 273.334004 -192.701902 
L 273.283482 -191.908699 
L 273.223648 -191.115496 
L 273.154767 -190.322293 
L 273.077106 -189.529089 
L 272.990931 -188.735886 
L 272.896506 -187.942683 
L 272.794093 -187.14948 
L 272.68395 -186.356277 
L 272.56633 -185.563073 
L 272.441486 -184.76987 
L 272.309665 -183.976667 
L 272.171114 -183.183464 
L 272.026083 -182.390261 
L 271.874819 -181.597057 
L 271.717577 -180.803854 
L 271.554614 -180.010651 
L 271.386198 -179.217448 
L 271.212603 -178.424245 
L 271.034117 -177.631041 
L 270.851038 -176.837838 
L 270.66368 -176.044635 
L 270.472373 -175.251432 
L 270.277458 -174.458229 
L 270.079298 -173.665025 
z
" style="stroke: #00fa9a; stroke-width: 1.5"/>
    </defs>
    <g clip-path="url(#p089ec65826)">
     <use xlink:href="#m3bd02a0884" x="0" y="288" style="fill: #ffffff; stroke: #00fa9a; stroke-width: 1.5"/>
    </g>
   </g>
   <g id="matplotlib.axis_1">
    <g id="xtick_1">
     <g id="text_1">
      <!-- 1 -->
      <g transform="translate(176.403365 266.598437)scale(0.1 -0.1)">
       <defs>
        <path id="DejaVuSans-31" d="M 794 531 
L 1825 531 
L 1825 4091 
L 703 3866 
L 703 4441 
L 1819 4666 
L 2450 4666 
L 2450 531 
L 3481 531 
L 3481 0 
L 794 0 
L 794 531 
z
" transform="scale(0.015625)"/>
       </defs>
       <use xlink:href="#DejaVuSans-31"/>
      </g>
     </g>
    </g>
    <g id="xtick_2">
     <g id="text_2">
      <!-- 2 -->
      <g transform="translate(218.21875 266.598437)scale(0.1 -0.1)">
       <defs>
        <path id="DejaVuSans-32" d="M 1228 531 
L 3431 531 
L 3431 0 
L 469 0 
L 469 531 
Q 828 903 1448 1529 
Q 2069 2156 2228 2338 
Q 2531 2678 2651 2914 
Q 2772 3150 2772 3378 
Q 2772 3750 2511 3984 
Q 2250 4219 1831 4219 
Q 1534 4219 1204 4116 
Q 875 4013 500 3803 
L 500 4441 
Q 881 4594 1212 4672 
Q 1544 4750 1819 4750 
Q 2544 4750 2975 4387 
Q 3406 4025 3406 3419 
Q 3406 3131 3298 2873 
Q 3191 2616 2906 2266 
Q 2828 2175 2409 1742 
Q 1991 1309 1228 531 
z
" transform="scale(0.015625)"/>
       </defs>
       <use xlink:href="#DejaVuSans-32"/>
      </g>
     </g>
    </g>
    <g id="xtick_3">
     <g id="text_3">
      <!-- 3 -->
      <g transform="translate(260.034135 266.598437)scale(0.1 -0.1)">
       <defs>
        <path id="DejaVuSans-33" d="M 2597 2516 
Q 3050 2419 3304 2112 
Q 3559 1806 3559 1356 
Q 3559 666 3084 287 
Q 2609 -91 1734 -91 
Q 1441 -91 1130 -33 
Q 819 25 488 141 
L 488 750 
Q 750 597 1062 519 
Q 1375 441 1716 441 
Q 2309 441 2620 675 
Q 2931 909 2931 1356 
Q 2931 1769 2642 2001 
Q 2353 2234 1838 2234 
L 1294 2234 
L 1294 2753 
L 1863 2753 
Q 2328 2753 2575 2939 
Q 2822 3125 2822 3475 
Q 2822 3834 2567 4026 
Q 2313 4219 1838 4219 
Q 1578 4219 1281 4162 
Q 984 4106 628 3988 
L 628 4550 
Q 988 4650 1302 4700 
Q 1616 4750 1894 4750 
Q 2613 4750 3031 4423 
Q 3450 4097 3450 3541 
Q 3450 3153 3228 2886 
Q 3006 2619 2597 2516 
z
" transform="scale(0.015625)"/>
       </defs>
       <use xlink:href="#DejaVuSans-33"/>
      </g>
     </g>
    </g>
    <g id="text_4">
     <!-- Glomerulus -->
     <g transform="translate(187.0125 281.79625)scale(0.12 -0.12)">
      <defs>
       <path id="DejaVuSans-47" d="M 3809 666 
L 3809 1919 
L 2778 1919 
L 2778 2438 
L 4434 2438 
L 4434 434 
Q 4069 175 3628 42 
Q 3188 -91 2688 -91 
Q 1594 -91 976 548 
Q 359 1188 359 2328 
Q 359 3472 976 4111 
Q 1594 4750 2688 4750 
Q 3144 4750 3555 4637 
Q 3966 4525 4313 4306 
L 4313 3634 
Q 3963 3931 3569 4081 
Q 3175 4231 2741 4231 
Q 1884 4231 1454 3753 
Q 1025 3275 1025 2328 
Q 1025 1384 1454 906 
Q 1884 428 2741 428 
Q 3075 428 3337 486 
Q 3600 544 3809 666 
z
" transform="scale(0.015625)"/>
       <path id="DejaVuSans-6c" d="M 603 4863 
L 1178 4863 
L 1178 0 
L 603 0 
L 603 4863 
z
" transform="scale(0.015625)"/>
       <path id="DejaVuSans-6f" d="M 1959 3097 
Q 1497 3097 1228 2736 
Q 959 2375 959 1747 
Q 959 1119 1226 758 
Q 1494 397 1959 397 
Q 2419 397 2687 759 
Q 2956 1122 2956 1747 
Q 2956 2369 2687 2733 
Q 2419 3097 1959 3097 
z
M 1959 3584 
Q 2709 3584 3137 3096 
Q 3566 2609 3566 1747 
Q 3566 888 3137 398 
Q 2709 -91 1959 -91 
Q 1206 -91 779 398 
Q 353 888 353 1747 
Q 353 2609 779 3096 
Q 1206 3584 1959 3584 
z
" transform="scale(0.015625)"/>
       <path id="DejaVuSans-6d" d="M 3328 2828 
Q 3544 3216 3844 3400 
Q 4144 3584 4550 3584 
Q 5097 3584 5394 3201 
Q 5691 2819 5691 2113 
L 5691 0 
L 5113 0 
L 5113 2094 
Q 5113 2597 4934 2840 
Q 4756 3084 4391 3084 
Q 3944 3084 3684 2787 
Q 3425 2491 3425 1978 
L 3425 0 
L 2847 0 
L 2847 2094 
Q 2847 2600 2669 2842 
Q 2491 3084 2119 3084 
Q 1678 3084 1418 2786 
Q 1159 2488 1159 1978 
L 1159 0 
L 581 0 
L 581 3500 
L 1159 3500 
L 1159 2956 
Q 1356 3278 1631 3431 
Q 1906 3584 2284 3584 
Q 2666 3584 2933 3390 
Q 3200 3197 3328 2828 
z
" transform="scale(0.015625)"/>
       <path id="DejaVuSans-65" d="M 3597 1894 
L 3597 1613 
L 953 1613 
Q 991 1019 1311 708 
Q 1631 397 2203 397 
Q 2534 397 2845 478 
Q 3156 559 3463 722 
L 3463 178 
Q 3153 47 2828 -22 
Q 2503 -91 2169 -91 
Q 1331 -91 842 396 
Q 353 884 353 1716 
Q 353 2575 817 3079 
Q 1281 3584 2069 3584 
Q 2775 3584 3186 3129 
Q 3597 2675 3597 1894 
z
M 3022 2063 
Q 3016 2534 2758 2815 
Q 2500 3097 2075 3097 
Q 1594 3097 1305 2825 
Q 1016 2553 972 2059 
L 3022 2063 
z
" transform="scale(0.015625)"/>
       <path id="DejaVuSans-72" d="M 2631 2963 
Q 2534 3019 2420 3045 
Q 2306 3072 2169 3072 
Q 1681 3072 1420 2755 
Q 1159 2438 1159 1844 
L 1159 0 
L 581 0 
L 581 3500 
L 1159 3500 
L 1159 2956 
Q 1341 3275 1631 3429 
Q 1922 3584 2338 3584 
Q 2397 3584 2469 3576 
Q 2541 3569 2628 3553 
L 2631 2963 
z
" transform="scale(0.015625)"/>
       <path id="DejaVuSans-75" d="M 544 1381 
L 544 3500 
L 1119 3500 
L 1119 1403 
Q 1119 906 1312 657 
Q 1506 409 1894 409 
Q 2359 409 2629 706 
Q 2900 1003 2900 1516 
L 2900 3500 
L 3475 3500 
L 3475 0 
L 2900 0 
L 2900 538 
Q 2691 219 2414 64 
Q 2138 -91 1772 -91 
Q 1169 -91 856 284 
Q 544 659 544 1381 
z
M 1991 3584 
L 1991 3584 
z
" transform="scale(0.015625)"/>
       <path id="DejaVuSans-73" d="M 2834 3397 
L 2834 2853 
Q 2591 2978 2328 3040 
Q 2066 3103 1784 3103 
Q 1356 3103 1142 2972 
Q 928 2841 928 2578 
Q 928 2378 1081 2264 
Q 1234 2150 1697 2047 
L 1894 2003 
Q 2506 1872 2764 1633 
Q 3022 1394 3022 966 
Q 3022 478 2636 193 
Q 2250 -91 1575 -91 
Q 1294 -91 989 -36 
Q 684 19 347 128 
L 347 722 
Q 666 556 975 473 
Q 1284 391 1588 391 
Q 1994 391 2212 530 
Q 2431 669 2431 922 
Q 2431 1156 2273 1281 
Q 2116 1406 1581 1522 
L 1381 1569 
Q 847 1681 609 1914 
Q 372 2147 372 2553 
Q 372 3047 722 3315 
Q 1072 3584 1716 3584 
Q 2034 3584 2315 3537 
Q 2597 3491 2834 3397 
z
" transform="scale(0.015625)"/>
      </defs>
      <use xlink:href="#DejaVuSans-47"/>
      <use xlink:href="#DejaVuSans-6c" x="77.490234"/>
      <use xlink:href="#DejaVuSans-6f" x="105.273438"/>
      <use xlink:href="#DejaVuSans-6d" x="166.455078"/>
      <use xlink:href="#DejaVuSans-65" x="263.867188"/>
      <use xlink:href="#DejaVuSans-72" x="325.390625"/>
      <use xlink:href="#DejaVuSans-75" x="366.503906"/>
      <use xlink:href="#DejaVuSans-6c" x="429.882812"/>
      <use xlink:href="#DejaVuSans-75" x="457.666016"/>
      <use xlink:href="#DejaVuSans-73" x="521.044922"/>
     </g>
    </g>
   </g>
   <g id="matplotlib.axis_2">
    <g id="ytick_1">
     <g id="line2d_1">
      <defs>
       <path id="m95d882a905" d="M 0 0 
L -3.5 0 
" style="stroke: #000000; stroke-width: 0.8"/>
      </defs>
      <g>
       <use xlink:href="#m95d882a905" x="158.676923" y="252" style="stroke: #000000; stroke-width: 0.8"/>
      </g>
     </g>
     <g id="text_5">
      <!-- 0.0 -->
      <g transform="translate(135.773798 255.799219)scale(0.1 -0.1)">
       <defs>
        <path id="DejaVuSans-30" d="M 2034 4250 
Q 1547 4250 1301 3770 
Q 1056 3291 1056 2328 
Q 1056 1369 1301 889 
Q 1547 409 2034 409 
Q 2525 409 2770 889 
Q 3016 1369 3016 2328 
Q 3016 3291 2770 3770 
Q 2525 4250 2034 4250 
z
M 2034 4750 
Q 2819 4750 3233 4129 
Q 3647 3509 3647 2328 
Q 3647 1150 3233 529 
Q 2819 -91 2034 -91 
Q 1250 -91 836 529 
Q 422 1150 422 2328 
Q 422 3509 836 4129 
Q 1250 4750 2034 4750 
z
" transform="scale(0.015625)"/>
        <path id="DejaVuSans-2e" d="M 684 794 
L 1344 794 
L 1344 0 
L 684 0 
L 684 794 
z
" transform="scale(0.015625)"/>
       </defs>
       <use xlink:href="#DejaVuSans-30"/>
       <use xlink:href="#DejaVuSans-2e" x="63.623047"/>
       <use xlink:href="#DejaVuSans-30" x="95.410156"/>
      </g>
     </g>
    </g>
    <g id="ytick_2">
     <g id="line2d_2">
      <g>
       <use xlink:href="#m95d882a905" x="158.676923" y="218.547692" style="stroke: #000000; stroke-width: 0.8"/>
      </g>
     </g>
     <g id="text_6">
      <!-- 0.2 -->
      <g transform="translate(135.773798 222.346911)scale(0.1 -0.1)">
       <use xlink:href="#DejaVuSans-30"/>
       <use xlink:href="#DejaVuSans-2e" x="63.623047"/>
       <use xlink:href="#DejaVuSans-32" x="95.410156"/>
      </g>
     </g>
    </g>
    <g id="ytick_3">
     <g id="line2d_3">
      <g>
       <use xlink:href="#m95d882a905" x="158.676923" y="185.095385" style="stroke: #000000; stroke-width: 0.8"/>
      </g>
     </g>
     <g id="text_7">
      <!-- 0.4 -->
      <g transform="translate(135.773798 188.894603)scale(0.1 -0.1)">
       <defs>
        <path id="DejaVuSans-34" d="M 2419 4116 
L 825 1625 
L 2419 1625 
L 2419 4116 
z
M 2253 4666 
L 3047 4666 
L 3047 1625 
L 3713 1625 
L 3713 1100 
L 3047 1100 
L 3047 0 
L 2419 0 
L 2419 1100 
L 313 1100 
L 313 1709 
L 2253 4666 
z
" transform="scale(0.015625)"/>
       </defs>
       <use xlink:href="#DejaVuSans-30"/>
       <use xlink:href="#DejaVuSans-2e" x="63.623047"/>
       <use xlink:href="#DejaVuSans-34" x="95.410156"/>
      </g>
     </g>
    </g>
    <g id="ytick_4">
     <g id="line2d_4">
      <g>
       <use xlink:href="#m95d882a905" x="158.676923" y="151.643077" style="stroke: #000000; stroke-width: 0.8"/>
      </g>
     </g>
     <g id="text_8">
      <!-- 0.6 -->
      <g transform="translate(135.773798 155.442296)scale(0.1 -0.1)">
       <defs>
        <path id="DejaVuSans-36" d="M 2113 2584 
Q 1688 2584 1439 2293 
Q 1191 2003 1191 1497 
Q 1191 994 1439 701 
Q 1688 409 2113 409 
Q 2538 409 2786 701 
Q 3034 994 3034 1497 
Q 3034 2003 2786 2293 
Q 2538 2584 2113 2584 
z
M 3366 4563 
L 3366 3988 
Q 3128 4100 2886 4159 
Q 2644 4219 2406 4219 
Q 1781 4219 1451 3797 
Q 1122 3375 1075 2522 
Q 1259 2794 1537 2939 
Q 1816 3084 2150 3084 
Q 2853 3084 3261 2657 
Q 3669 2231 3669 1497 
Q 3669 778 3244 343 
Q 2819 -91 2113 -91 
Q 1303 -91 875 529 
Q 447 1150 447 2328 
Q 447 3434 972 4092 
Q 1497 4750 2381 4750 
Q 2619 4750 2861 4703 
Q 3103 4656 3366 4563 
z
" transform="scale(0.015625)"/>
       </defs>
       <use xlink:href="#DejaVuSans-30"/>
       <use xlink:href="#DejaVuSans-2e" x="63.623047"/>
       <use xlink:href="#DejaVuSans-36" x="95.410156"/>
      </g>
     </g>
    </g>
    <g id="ytick_5">
     <g id="line2d_5">
      <g>
       <use xlink:href="#m95d882a905" x="158.676923" y="118.190769" style="stroke: #000000; stroke-width: 0.8"/>
      </g>
     </g>
     <g id="text_9">
      <!-- 0.8 -->
      <g transform="translate(135.773798 121.989988)scale(0.1 -0.1)">
       <defs>
        <path id="DejaVuSans-38" d="M 2034 2216 
Q 1584 2216 1326 1975 
Q 1069 1734 1069 1313 
Q 1069 891 1326 650 
Q 1584 409 2034 409 
Q 2484 409 2743 651 
Q 3003 894 3003 1313 
Q 3003 1734 2745 1975 
Q 2488 2216 2034 2216 
z
M 1403 2484 
Q 997 2584 770 2862 
Q 544 3141 544 3541 
Q 544 4100 942 4425 
Q 1341 4750 2034 4750 
Q 2731 4750 3128 4425 
Q 3525 4100 3525 3541 
Q 3525 3141 3298 2862 
Q 3072 2584 2669 2484 
Q 3125 2378 3379 2068 
Q 3634 1759 3634 1313 
Q 3634 634 3220 271 
Q 2806 -91 2034 -91 
Q 1263 -91 848 271 
Q 434 634 434 1313 
Q 434 1759 690 2068 
Q 947 2378 1403 2484 
z
M 1172 3481 
Q 1172 3119 1398 2916 
Q 1625 2713 2034 2713 
Q 2441 2713 2670 2916 
Q 2900 3119 2900 3481 
Q 2900 3844 2670 4047 
Q 2441 4250 2034 4250 
Q 1625 4250 1398 4047 
Q 1172 3844 1172 3481 
z
" transform="scale(0.015625)"/>
       </defs>
       <use xlink:href="#DejaVuSans-30"/>
       <use xlink:href="#DejaVuSans-2e" x="63.623047"/>
       <use xlink:href="#DejaVuSans-38" x="95.410156"/>
      </g>
     </g>
    </g>
    <g id="ytick_6">
     <g id="line2d_6">
      <g>
       <use xlink:href="#m95d882a905" x="158.676923" y="84.738462" style="stroke: #000000; stroke-width: 0.8"/>
      </g>
     </g>
     <g id="text_10">
      <!-- 1.0 -->
      <g transform="translate(135.773798 88.53768)scale(0.1 -0.1)">
       <use xlink:href="#DejaVuSans-31"/>
       <use xlink:href="#DejaVuSans-2e" x="63.623047"/>
       <use xlink:href="#DejaVuSans-30" x="95.410156"/>
      </g>
     </g>
    </g>
    <g id="ytick_7">
     <g id="line2d_7">
      <g>
       <use xlink:href="#m95d882a905" x="158.676923" y="51.286154" style="stroke: #000000; stroke-width: 0.8"/>
      </g>
     </g>
     <g id="text_11">
      <!-- 1.2 -->
      <g transform="translate(135.773798 55.085373)scale(0.1 -0.1)">
       <use xlink:href="#DejaVuSans-31"/>
       <use xlink:href="#DejaVuSans-2e" x="63.623047"/>
       <use xlink:href="#DejaVuSans-32" x="95.410156"/>
      </g>
     </g>
    </g>
    <g id="text_12">
     <!-- Synapses density (synapses/µm) -->
     <g transform="translate(129.278173 241.958438)rotate(-90)scale(0.12 -0.12)">
      <defs>
       <path id="DejaVuSans-53" d="M 3425 4513 
L 3425 3897 
Q 3066 4069 2747 4153 
Q 2428 4238 2131 4238 
Q 1616 4238 1336 4038 
Q 1056 3838 1056 3469 
Q 1056 3159 1242 3001 
Q 1428 2844 1947 2747 
L 2328 2669 
Q 3034 2534 3370 2195 
Q 3706 1856 3706 1288 
Q 3706 609 3251 259 
Q 2797 -91 1919 -91 
Q 1588 -91 1214 -16 
Q 841 59 441 206 
L 441 856 
Q 825 641 1194 531 
Q 1563 422 1919 422 
Q 2459 422 2753 634 
Q 3047 847 3047 1241 
Q 3047 1584 2836 1778 
Q 2625 1972 2144 2069 
L 1759 2144 
Q 1053 2284 737 2584 
Q 422 2884 422 3419 
Q 422 4038 858 4394 
Q 1294 4750 2059 4750 
Q 2388 4750 2728 4690 
Q 3069 4631 3425 4513 
z
" transform="scale(0.015625)"/>
       <path id="DejaVuSans-79" d="M 2059 -325 
Q 1816 -950 1584 -1140 
Q 1353 -1331 966 -1331 
L 506 -1331 
L 506 -850 
L 844 -850 
Q 1081 -850 1212 -737 
Q 1344 -625 1503 -206 
L 1606 56 
L 191 3500 
L 800 3500 
L 1894 763 
L 2988 3500 
L 3597 3500 
L 2059 -325 
z
" transform="scale(0.015625)"/>
       <path id="DejaVuSans-6e" d="M 3513 2113 
L 3513 0 
L 2938 0 
L 2938 2094 
Q 2938 2591 2744 2837 
Q 2550 3084 2163 3084 
Q 1697 3084 1428 2787 
Q 1159 2491 1159 1978 
L 1159 0 
L 581 0 
L 581 3500 
L 1159 3500 
L 1159 2956 
Q 1366 3272 1645 3428 
Q 1925 3584 2291 3584 
Q 2894 3584 3203 3211 
Q 3513 2838 3513 2113 
z
" transform="scale(0.015625)"/>
       <path id="DejaVuSans-61" d="M 2194 1759 
Q 1497 1759 1228 1600 
Q 959 1441 959 1056 
Q 959 750 1161 570 
Q 1363 391 1709 391 
Q 2188 391 2477 730 
Q 2766 1069 2766 1631 
L 2766 1759 
L 2194 1759 
z
M 3341 1997 
L 3341 0 
L 2766 0 
L 2766 531 
Q 2569 213 2275 61 
Q 1981 -91 1556 -91 
Q 1019 -91 701 211 
Q 384 513 384 1019 
Q 384 1609 779 1909 
Q 1175 2209 1959 2209 
L 2766 2209 
L 2766 2266 
Q 2766 2663 2505 2880 
Q 2244 3097 1772 3097 
Q 1472 3097 1187 3025 
Q 903 2953 641 2809 
L 641 3341 
Q 956 3463 1253 3523 
Q 1550 3584 1831 3584 
Q 2591 3584 2966 3190 
Q 3341 2797 3341 1997 
z
" transform="scale(0.015625)"/>
       <path id="DejaVuSans-70" d="M 1159 525 
L 1159 -1331 
L 581 -1331 
L 581 3500 
L 1159 3500 
L 1159 2969 
Q 1341 3281 1617 3432 
Q 1894 3584 2278 3584 
Q 2916 3584 3314 3078 
Q 3713 2572 3713 1747 
Q 3713 922 3314 415 
Q 2916 -91 2278 -91 
Q 1894 -91 1617 61 
Q 1341 213 1159 525 
z
M 3116 1747 
Q 3116 2381 2855 2742 
Q 2594 3103 2138 3103 
Q 1681 3103 1420 2742 
Q 1159 2381 1159 1747 
Q 1159 1113 1420 752 
Q 1681 391 2138 391 
Q 2594 391 2855 752 
Q 3116 1113 3116 1747 
z
" transform="scale(0.015625)"/>
       <path id="DejaVuSans-20" transform="scale(0.015625)"/>
       <path id="DejaVuSans-64" d="M 2906 2969 
L 2906 4863 
L 3481 4863 
L 3481 0 
L 2906 0 
L 2906 525 
Q 2725 213 2448 61 
Q 2172 -91 1784 -91 
Q 1150 -91 751 415 
Q 353 922 353 1747 
Q 353 2572 751 3078 
Q 1150 3584 1784 3584 
Q 2172 3584 2448 3432 
Q 2725 3281 2906 2969 
z
M 947 1747 
Q 947 1113 1208 752 
Q 1469 391 1925 391 
Q 2381 391 2643 752 
Q 2906 1113 2906 1747 
Q 2906 2381 2643 2742 
Q 2381 3103 1925 3103 
Q 1469 3103 1208 2742 
Q 947 2381 947 1747 
z
" transform="scale(0.015625)"/>
       <path id="DejaVuSans-69" d="M 603 3500 
L 1178 3500 
L 1178 0 
L 603 0 
L 603 3500 
z
M 603 4863 
L 1178 4863 
L 1178 4134 
L 603 4134 
L 603 4863 
z
" transform="scale(0.015625)"/>
       <path id="DejaVuSans-74" d="M 1172 4494 
L 1172 3500 
L 2356 3500 
L 2356 3053 
L 1172 3053 
L 1172 1153 
Q 1172 725 1289 603 
Q 1406 481 1766 481 
L 2356 481 
L 2356 0 
L 1766 0 
Q 1100 0 847 248 
Q 594 497 594 1153 
L 594 3053 
L 172 3053 
L 172 3500 
L 594 3500 
L 594 4494 
L 1172 4494 
z
" transform="scale(0.015625)"/>
       <path id="DejaVuSans-28" d="M 1984 4856 
Q 1566 4138 1362 3434 
Q 1159 2731 1159 2009 
Q 1159 1288 1364 580 
Q 1569 -128 1984 -844 
L 1484 -844 
Q 1016 -109 783 600 
Q 550 1309 550 2009 
Q 550 2706 781 3412 
Q 1013 4119 1484 4856 
L 1984 4856 
z
" transform="scale(0.015625)"/>
       <path id="DejaVuSans-2f" d="M 1625 4666 
L 2156 4666 
L 531 -594 
L 0 -594 
L 1625 4666 
z
" transform="scale(0.015625)"/>
       <path id="DejaVuSans-b5" d="M 544 -1331 
L 544 3500 
L 1119 3500 
L 1119 1325 
Q 1119 872 1334 640 
Q 1550 409 1972 409 
Q 2434 409 2667 671 
Q 2900 934 2900 1459 
L 2900 3500 
L 3475 3500 
L 3475 806 
Q 3475 619 3529 530 
Q 3584 441 3700 441 
Q 3728 441 3778 458 
Q 3828 475 3916 513 
L 3916 50 
Q 3788 -22 3673 -56 
Q 3559 -91 3450 -91 
Q 3234 -91 3106 31 
Q 2978 153 2931 403 
Q 2775 156 2548 32 
Q 2322 -91 2016 -91 
Q 1697 -91 1473 31 
Q 1250 153 1119 397 
L 1119 -1331 
L 544 -1331 
z
" transform="scale(0.015625)"/>
       <path id="DejaVuSans-29" d="M 513 4856 
L 1013 4856 
Q 1481 4119 1714 3412 
Q 1947 2706 1947 2009 
Q 1947 1309 1714 600 
Q 1481 -109 1013 -844 
L 513 -844 
Q 928 -128 1133 580 
Q 1338 1288 1338 2009 
Q 1338 2731 1133 3434 
Q 928 4138 513 4856 
z
" transform="scale(0.015625)"/>
      </defs>
      <use xlink:href="#DejaVuSans-53"/>
      <use xlink:href="#DejaVuSans-79" x="63.476562"/>
      <use xlink:href="#DejaVuSans-6e" x="122.65625"/>
      <use xlink:href="#DejaVuSans-61" x="186.035156"/>
      <use xlink:href="#DejaVuSans-70" x="247.314453"/>
      <use xlink:href="#DejaVuSans-73" x="310.791016"/>
      <use xlink:href="#DejaVuSans-65" x="362.890625"/>
      <use xlink:href="#DejaVuSans-73" x="424.414062"/>
      <use xlink:href="#DejaVuSans-20" x="476.513672"/>
      <use xlink:href="#DejaVuSans-64" x="508.300781"/>
      <use xlink:href="#DejaVuSans-65" x="571.777344"/>
      <use xlink:href="#DejaVuSans-6e" x="633.300781"/>
      <use xlink:href="#DejaVuSans-73" x="696.679688"/>
      <use xlink:href="#DejaVuSans-69" x="748.779297"/>
      <use xlink:href="#DejaVuSans-74" x="776.5625"/>
      <use xlink:href="#DejaVuSans-79" x="815.771484"/>
      <use xlink:href="#DejaVuSans-20" x="874.951172"/>
      <use xlink:href="#DejaVuSans-28" x="906.738281"/>
      <use xlink:href="#DejaVuSans-73" x="945.751953"/>
      <use xlink:href="#DejaVuSans-79" x="997.851562"/>
      <use xlink:href="#DejaVuSans-6e" x="1057.03125"/>
      <use xlink:href="#DejaVuSans-61" x="1120.410156"/>
      <use xlink:href="#DejaVuSans-70" x="1181.689453"/>
      <use xlink:href="#DejaVuSans-73" x="1245.166016"/>
      <use xlink:href="#DejaVuSans-65" x="1297.265625"/>
      <use xlink:href="#DejaVuSans-73" x="1358.789062"/>
      <use xlink:href="#DejaVuSans-2f" x="1410.888672"/>
      <use xlink:href="#DejaVuSans-b5" x="1444.580078"/>
      <use xlink:href="#DejaVuSans-6d" x="1508.203125"/>
      <use xlink:href="#DejaVuSans-29" x="1605.615234"/>
     </g>
    </g>
   </g>
   <g id="line2d_8">
    <path d="M 163.067084 200.766416 
L 196.102146 200.766416 
" clip-path="url(#p089ec65826)" style="fill: none; stroke: #000000; stroke-width: 1.5; stroke-linecap: square"/>
   </g>
   <g id="line2d_9">
    <path d="M 213.666205 141.986952 
L 229.133795 141.986952 
" clip-path="url(#p089ec65826)" style="fill: none; stroke: #000000; stroke-width: 1.5; stroke-linecap: square"/>
   </g>
   <g id="line2d_10">
    <path d="M 253.686718 83.03538 
L 272.744051 83.03538 
" clip-path="url(#p089ec65826)" style="fill: none; stroke: #000000; stroke-width: 1.5; stroke-linecap: square"/>
   </g>
   <g id="patch_3">
    <path d="M 158.676923 252 
L 158.676923 34.56 
" style="fill: none; stroke: #000000; stroke-width: 0.8; stroke-linejoin: miter; stroke-linecap: square"/>
   </g>
   <g id="PathCollection_1">
    <defs>
     <path id="C0_0_ac175039a6" d="M 0 2.5 
C 0.663008 2.5 1.29895 2.236584 1.767767 1.767767 
C 2.236584 1.29895 2.5 0.663008 2.5 -0 
C 2.5 -0.663008 2.236584 -1.29895 1.767767 -1.767767 
C 1.29895 -2.236584 0.663008 -2.5 0 -2.5 
C -0.663008 -2.5 -1.29895 -2.236584 -1.767767 -1.767767 
C -2.236584 -1.29895 -2.5 -0.663008 -2.5 0 
C -2.5 0.663008 -2.236584 1.29895 -1.767767 1.767767 
C -1.29895 2.236584 -0.663008 2.5 0 2.5 
z
"/>
    </defs>
    <g clip-path="url(#p089ec65826)">
     <use xlink:href="#C0_0_ac175039a6" x="180.642415" y="193.011681" style="fill: #ee82ee"/>
    </g>
    <g clip-path="url(#p089ec65826)">
     <use xlink:href="#C0_0_ac175039a6" x="180.820117" y="187.855539" style="fill: #ee82ee"/>
    </g>
    <g clip-path="url(#p089ec65826)">
     <use xlink:href="#C0_0_ac175039a6" x="175.897682" y="219.690147" style="fill: #ee82ee"/>
    </g>
    <g clip-path="url(#p089ec65826)">
     <use xlink:href="#C0_0_ac175039a6" x="175.856003" y="208.856064" style="fill: #ee82ee"/>
    </g>
    <g clip-path="url(#p089ec65826)">
     <use xlink:href="#C0_0_ac175039a6" x="181.607492" y="202.098705" style="fill: #ee82ee"/>
    </g>
    <g clip-path="url(#p089ec65826)">
     <use xlink:href="#C0_0_ac175039a6" x="181.045681" y="190.01551" style="fill: #ee82ee"/>
    </g>
    <g clip-path="url(#p089ec65826)">
     <use xlink:href="#C0_0_ac175039a6" x="183.611044" y="179.241763" style="fill: #ee82ee"/>
    </g>
    <g clip-path="url(#p089ec65826)">
     <use xlink:href="#C0_0_ac175039a6" x="183.443291" y="208.122817" style="fill: #ee82ee"/>
    </g>
    <g clip-path="url(#p089ec65826)">
     <use xlink:href="#C0_0_ac175039a6" x="176.075807" y="199.714315" style="fill: #ee82ee"/>
    </g>
    <g clip-path="url(#p089ec65826)">
     <use xlink:href="#C0_0_ac175039a6" x="182.415438" y="219.057615" style="fill: #ee82ee"/>
    </g>
   </g>
   <g id="PathCollection_2">
    <defs>
     <path id="C1_0_eb0272d01c" d="M 0 2.5 
C 0.663008 2.5 1.29895 2.236584 1.767767 1.767767 
C 2.236584 1.29895 2.5 0.663008 2.5 -0 
C 2.5 -0.663008 2.236584 -1.29895 1.767767 -1.767767 
C 1.29895 -2.236584 0.663008 -2.5 0 -2.5 
C -0.663008 -2.5 -1.29895 -2.236584 -1.767767 -1.767767 
C -2.236584 -1.29895 -2.5 -0.663008 -2.5 0 
C -2.5 0.663008 -2.236584 1.29895 -1.767767 1.767767 
C -1.29895 2.236584 -0.663008 2.5 0 2.5 
z
"/>
    </defs>
    <g clip-path="url(#p089ec65826)">
     <use xlink:href="#C1_0_eb0272d01c" x="217.889679" y="169.452929" style="fill: #0000ff"/>
    </g>
    <g clip-path="url(#p089ec65826)">
     <use xlink:href="#C1_0_eb0272d01c" x="223.09028" y="130.25007" style="fill: #0000ff"/>
    </g>
    <g clip-path="url(#p089ec65826)">
     <use xlink:href="#C1_0_eb0272d01c" x="222.862006" y="132.557904" style="fill: #0000ff"/>
    </g>
    <g clip-path="url(#p089ec65826)">
     <use xlink:href="#C1_0_eb0272d01c" x="224.240035" y="132.698002" style="fill: #0000ff"/>
    </g>
    <g clip-path="url(#p089ec65826)">
     <use xlink:href="#C1_0_eb0272d01c" x="223.293899" y="164.337446" style="fill: #0000ff"/>
    </g>
    <g clip-path="url(#p089ec65826)">
     <use xlink:href="#C1_0_eb0272d01c" x="225.436044" y="128.127875" style="fill: #0000ff"/>
    </g>
    <g clip-path="url(#p089ec65826)">
     <use xlink:href="#C1_0_eb0272d01c" x="219.266145" y="61.796772" style="fill: #0000ff"/>
    </g>
    <g clip-path="url(#p089ec65826)">
     <use xlink:href="#C1_0_eb0272d01c" x="223.960456" y="163.9039" style="fill: #0000ff"/>
    </g>
    <g clip-path="url(#p089ec65826)">
     <use xlink:href="#C1_0_eb0272d01c" x="219.501875" y="135.741362" style="fill: #0000ff"/>
    </g>
    <g clip-path="url(#p089ec65826)">
     <use xlink:href="#C1_0_eb0272d01c" x="225.218477" y="201.003256" style="fill: #0000ff"/>
    </g>
   </g>
   <g id="PathCollection_3">
    <defs>
     <path id="C2_0_c408970f34" d="M 0 2.5 
C 0.663008 2.5 1.29895 2.236584 1.767767 1.767767 
C 2.236584 1.29895 2.5 0.663008 2.5 -0 
C 2.5 -0.663008 2.236584 -1.29895 1.767767 -1.767767 
C 1.29895 -2.236584 0.663008 -2.5 0 -2.5 
C -0.663008 -2.5 -1.29895 -2.236584 -1.767767 -1.767767 
C -2.236584 -1.29895 -2.5 -0.663008 -2.5 0 
C -2.5 0.663008 -2.236584 1.29895 -1.767767 1.767767 
C -1.29895 2.236584 -0.663008 2.5 0 2.5 
z
"/>
    </defs>
    <g clip-path="url(#p089ec65826)">
     <use xlink:href="#C2_0_c408970f34" x="265.14505" y="108.202019" style="fill: #00fa9a"/>
    </g>
    <g clip-path="url(#p089ec65826)">
     <use xlink:href="#C2_0_c408970f34" x="266.651684" y="108.341847" style="fill: #00fa9a"/>
    </g>
    <g clip-path="url(#p089ec65826)">
     <use xlink:href="#C2_0_c408970f34" x="264.37234" y="114.334975" style="fill: #00fa9a"/>
    </g>
    <g clip-path="url(#p089ec65826)">
     <use xlink:href="#C2_0_c408970f34" x="267.05111" y="94.834122" style="fill: #00fa9a"/>
    </g>
    <g clip-path="url(#p089ec65826)">
     <use xlink:href="#C2_0_c408970f34" x="261.190495" y="82.933243" style="fill: #00fa9a"/>
    </g>
    <g clip-path="url(#p089ec65826)">
     <use xlink:href="#C2_0_c408970f34" x="261.830244" y="79.278757" style="fill: #00fa9a"/>
    </g>
    <g clip-path="url(#p089ec65826)">
     <use xlink:href="#C2_0_c408970f34" x="265.534333" y="35.807858" style="fill: #00fa9a"/>
    </g>
    <g clip-path="url(#p089ec65826)">
     <use xlink:href="#C2_0_c408970f34" x="264.075713" y="84.437029" style="fill: #00fa9a"/>
    </g>
    <g clip-path="url(#p089ec65826)">
     <use xlink:href="#C2_0_c408970f34" x="259.19309" y="40.294222" style="fill: #00fa9a"/>
    </g>
    <g clip-path="url(#p089ec65826)">
     <use xlink:href="#C2_0_c408970f34" x="266.326443" y="81.889726" style="fill: #00fa9a"/>
    </g>
   </g>
  </g>
 </g>
 <defs>
  <clipPath id="p089ec65826">
   <rect x="158.676923" y="34.56" width="125.446154" height="217.44"/>
  </clipPath>
 </defs>
</svg>
