<?xml version="1.0" encoding="utf-8" standalone="no"?>
<!DOCTYPE svg PUBLIC "-//W3C//DTD SVG 1.1//EN"
  "http://www.w3.org/Graphics/SVG/1.1/DTD/svg11.dtd">
<svg xmlns:xlink="http://www.w3.org/1999/xlink" width="432pt" height="288pt" viewBox="0 0 432 288" xmlns="http://www.w3.org/2000/svg" version="1.1">
 <metadata>
  <rdf:RDF xmlns:dc="http://purl.org/dc/elements/1.1/" xmlns:cc="http://creativecommons.org/ns#" xmlns:rdf="http://www.w3.org/1999/02/22-rdf-syntax-ns#">
   <cc:Work>
    <dc:type rdf:resource="http://purl.org/dc/dcmitype/StillImage"/>
    <dc:date>2024-01-28T09:31:58.070684</dc:date>
    <dc:format>image/svg+xml</dc:format>
    <dc:creator>
     <cc:Agent>
      <dc:title>Matplotlib v3.5.1, https://matplotlib.org/</dc:title>
     </cc:Agent>
    </dc:creator>
   </cc:Work>
  </rdf:RDF>
 </metadata>
 <defs>
  <style type="text/css">*{stroke-linejoin: round; stroke-linecap: butt}</style>
 </defs>
 <g id="figure_1">
  <g id="patch_1">
   <path d="M 0 288 
L 432 288 
L 432 0 
L 0 0 
L 0 288 
z
" style="fill: none"/>
  </g>
  <g id="axes_1">
   <g id="patch_2">
    <path d="M 164.178947 252 
L 278.621053 252 
L 278.621053 34.56 
L 164.178947 34.56 
z
" style="fill: #ffffff"/>
   </g>
   <g id="PolyCollection_1">
    <defs>
     <path id="mbaff3e1caf" d="M 185.385255 -137.853474 
L 181.120008 -137.853474 
L 181.042607 -138.951656 
L 180.964952 -140.049837 
L 180.887114 -141.148019 
L 180.80916 -142.246201 
L 180.731161 -143.344383 
L 180.653184 -144.442565 
L 180.5753 -145.540746 
L 180.497576 -146.638928 
L 180.420083 -147.73711 
L 180.34289 -148.835292 
L 180.266065 -149.933474 
L 180.189675 -151.031656 
L 180.113783 -152.129837 
L 180.038447 -153.228019 
L 179.963721 -154.326201 
L 179.889649 -155.424383 
L 179.816266 -156.522565 
L 179.743596 -157.620746 
L 179.671649 -158.718928 
L 179.60042 -159.81711 
L 179.529887 -160.915292 
L 179.460009 -162.013474 
L 179.390728 -163.111656 
L 179.321963 -164.209837 
L 179.253617 -165.308019 
L 179.185571 -166.406201 
L 179.117688 -167.504383 
L 179.049815 -168.602565 
L 178.981785 -169.700746 
L 178.913419 -170.798928 
L 178.84453 -171.89711 
L 178.774928 -172.995292 
L 178.704422 -174.093474 
L 178.632829 -175.191656 
L 178.559977 -176.289837 
L 178.485711 -177.388019 
L 178.409898 -178.486201 
L 178.332435 -179.584383 
L 178.253254 -180.682565 
L 178.172326 -181.780746 
L 178.089665 -182.878928 
L 178.005339 -183.97711 
L 177.919466 -185.075292 
L 177.832221 -186.173474 
L 177.743837 -187.271656 
L 177.654607 -188.369837 
L 177.564883 -189.468019 
L 177.475074 -190.566201 
L 177.385648 -191.664383 
L 177.297122 -192.762565 
L 177.210062 -193.860746 
L 177.125077 -194.958928 
L 177.04281 -196.05711 
L 176.963933 -197.155292 
L 176.889135 -198.253474 
L 176.819118 -199.351656 
L 176.754582 -200.449837 
L 176.696218 -201.548019 
L 176.6447 -202.646201 
L 176.600668 -203.744383 
L 176.564727 -204.842565 
L 176.537429 -205.940746 
L 176.519274 -207.038928 
L 176.510691 -208.13711 
L 176.51204 -209.235292 
L 176.523603 -210.333474 
L 176.545578 -211.431656 
L 176.578076 -212.529837 
L 176.621124 -213.628019 
L 176.674656 -214.726201 
L 176.738521 -215.824383 
L 176.812482 -216.922565 
L 176.896219 -218.020746 
L 176.989337 -219.118928 
L 177.091369 -220.21711 
L 177.201784 -221.315292 
L 177.319995 -222.413474 
L 177.445369 -223.511656 
L 177.577232 -224.609837 
L 177.714882 -225.708019 
L 177.857598 -226.806201 
L 178.004646 -227.904383 
L 178.155295 -229.002565 
L 178.308818 -230.100746 
L 178.464506 -231.198928 
L 178.621671 -232.29711 
L 178.779657 -233.395292 
L 178.937843 -234.493474 
L 179.095647 -235.591656 
L 179.252533 -236.689837 
L 179.408012 -237.788019 
L 179.561641 -238.886201 
L 179.713031 -239.984383 
L 179.861838 -241.082565 
L 180.007768 -242.180746 
L 180.150575 -243.278928 
L 180.290055 -244.37711 
L 180.426046 -245.475292 
L 180.558425 -246.573474 
L 185.946838 -246.573474 
L 185.946838 -246.573474 
L 186.079217 -245.475292 
L 186.215209 -244.37711 
L 186.354689 -243.278928 
L 186.497495 -242.180746 
L 186.643426 -241.082565 
L 186.792232 -239.984383 
L 186.943622 -238.886201 
L 187.097251 -237.788019 
L 187.25273 -236.689837 
L 187.409616 -235.591656 
L 187.56742 -234.493474 
L 187.725606 -233.395292 
L 187.883592 -232.29711 
L 188.040757 -231.198928 
L 188.196445 -230.100746 
L 188.349968 -229.002565 
L 188.500617 -227.904383 
L 188.647666 -226.806201 
L 188.790381 -225.708019 
L 188.928031 -224.609837 
L 189.059894 -223.511656 
L 189.185268 -222.413474 
L 189.303479 -221.315292 
L 189.413894 -220.21711 
L 189.515926 -219.118928 
L 189.609044 -218.020746 
L 189.692781 -216.922565 
L 189.766742 -215.824383 
L 189.830607 -214.726201 
L 189.884139 -213.628019 
L 189.927187 -212.529837 
L 189.959686 -211.431656 
L 189.98166 -210.333474 
L 189.993223 -209.235292 
L 189.994572 -208.13711 
L 189.985989 -207.038928 
L 189.967834 -205.940746 
L 189.940537 -204.842565 
L 189.904595 -203.744383 
L 189.860563 -202.646201 
L 189.809045 -201.548019 
L 189.750682 -200.449837 
L 189.686145 -199.351656 
L 189.616128 -198.253474 
L 189.54133 -197.155292 
L 189.462453 -196.05711 
L 189.380186 -194.958928 
L 189.295201 -193.860746 
L 189.208141 -192.762565 
L 189.119615 -191.664383 
L 189.030189 -190.566201 
L 188.94038 -189.468019 
L 188.850656 -188.369837 
L 188.761426 -187.271656 
L 188.673042 -186.173474 
L 188.585797 -185.075292 
L 188.499924 -183.97711 
L 188.415598 -182.878928 
L 188.332938 -181.780746 
L 188.252009 -180.682565 
L 188.172828 -179.584383 
L 188.095365 -178.486201 
L 188.019552 -177.388019 
L 187.945286 -176.289837 
L 187.872434 -175.191656 
L 187.800841 -174.093474 
L 187.730335 -172.995292 
L 187.660733 -171.89711 
L 187.591844 -170.798928 
L 187.523478 -169.700746 
L 187.455448 -168.602565 
L 187.387575 -167.504383 
L 187.319693 -166.406201 
L 187.251646 -165.308019 
L 187.1833 -164.209837 
L 187.114535 -163.111656 
L 187.045254 -162.013474 
L 186.975376 -160.915292 
L 186.904843 -159.81711 
L 186.833614 -158.718928 
L 186.761667 -157.620746 
L 186.688997 -156.522565 
L 186.615615 -155.424383 
L 186.541543 -154.326201 
L 186.466816 -153.228019 
L 186.391481 -152.129837 
L 186.315588 -151.031656 
L 186.239198 -149.933474 
L 186.162373 -148.835292 
L 186.08518 -147.73711 
L 186.007687 -146.638928 
L 185.929964 -145.540746 
L 185.852079 -144.442565 
L 185.774102 -143.344383 
L 185.696103 -142.246201 
L 185.61815 -141.148019 
L 185.540311 -140.049837 
L 185.462656 -138.951656 
L 185.385255 -137.853474 
z
" style="stroke: #ee82ee; stroke-width: 1.5"/>
    </defs>
    <g clip-path="url(#pedd61771c7)">
     <use xlink:href="#mbaff3e1caf" x="0" y="288" style="fill: #ffffff; stroke: #ee82ee; stroke-width: 1.5"/>
    </g>
   </g>
   <g id="PolyCollection_2">
    <defs>
     <path id="m1b8d3cfb08" d="M 223.135931 -94.365474 
L 219.664069 -94.365474 
L 219.665979 -95.128421 
L 219.672976 -95.891368 
L 219.684958 -96.654316 
L 219.701775 -97.417263 
L 219.723223 -98.180211 
L 219.749053 -98.943158 
L 219.778968 -99.706105 
L 219.812627 -100.469053 
L 219.84965 -101.232 
L 219.88962 -101.994947 
L 219.932085 -102.757895 
L 219.976567 -103.520842 
L 220.022558 -104.283789 
L 220.069534 -105.046737 
L 220.116949 -105.809684 
L 220.164246 -106.572632 
L 220.210855 -107.335579 
L 220.256201 -108.098526 
L 220.299704 -108.861474 
L 220.34078 -109.624421 
L 220.378849 -110.387368 
L 220.41333 -111.150316 
L 220.443647 -111.913263 
L 220.46923 -112.676211 
L 220.489512 -113.439158 
L 220.503934 -114.202105 
L 220.511946 -114.965053 
L 220.513002 -115.728 
L 220.506565 -116.490947 
L 220.49211 -117.253895 
L 220.469116 -118.016842 
L 220.437075 -118.779789 
L 220.39549 -119.542737 
L 220.343875 -120.305684 
L 220.281761 -121.068632 
L 220.208692 -121.831579 
L 220.124234 -122.594526 
L 220.027972 -123.357474 
L 219.919519 -124.120421 
L 219.798516 -124.883368 
L 219.664639 -125.646316 
L 219.517601 -126.409263 
L 219.357158 -127.172211 
L 219.183116 -127.935158 
L 218.995333 -128.698105 
L 218.793727 -129.461053 
L 218.578282 -130.224 
L 218.349049 -130.986947 
L 218.106158 -131.749895 
L 217.849815 -132.512842 
L 217.580313 -133.275789 
L 217.298032 -134.038737 
L 217.003445 -134.801684 
L 216.697119 -135.564632 
L 216.379715 -136.327579 
L 216.051996 -137.090526 
L 215.714819 -137.853474 
L 215.36914 -138.616421 
L 215.01601 -139.379368 
L 214.656573 -140.142316 
L 214.292064 -140.905263 
L 213.923802 -141.668211 
L 213.553186 -142.431158 
L 213.181689 -143.194105 
L 212.810848 -143.957053 
L 212.442261 -144.72 
L 212.077574 -145.482947 
L 211.71847 -146.245895 
L 211.366663 -147.008842 
L 211.023882 -147.771789 
L 210.691865 -148.534737 
L 210.372341 -149.297684 
L 210.067018 -150.060632 
L 209.777575 -150.823579 
L 209.505642 -151.586526 
L 209.252793 -152.349474 
L 209.020527 -153.112421 
L 208.810258 -153.875368 
L 208.623301 -154.638316 
L 208.460862 -155.401263 
L 208.324021 -156.164211 
L 208.213724 -156.927158 
L 208.130773 -157.690105 
L 208.075816 -158.453053 
L 208.049338 -159.216 
L 208.051652 -159.978947 
L 208.082901 -160.741895 
L 208.143045 -161.504842 
L 208.231864 -162.267789 
L 208.348958 -163.030737 
L 208.493744 -163.793684 
L 208.665465 -164.556632 
L 208.86319 -165.319579 
L 209.085826 -166.082526 
L 209.332122 -166.845474 
L 209.600683 -167.608421 
L 209.889982 -168.371368 
L 210.198374 -169.134316 
L 210.524109 -169.897263 
L 232.275891 -169.897263 
L 232.275891 -169.897263 
L 232.601626 -169.134316 
L 232.910018 -168.371368 
L 233.199317 -167.608421 
L 233.467878 -166.845474 
L 233.714174 -166.082526 
L 233.93681 -165.319579 
L 234.134535 -164.556632 
L 234.306256 -163.793684 
L 234.451042 -163.030737 
L 234.568136 -162.267789 
L 234.656955 -161.504842 
L 234.717099 -160.741895 
L 234.748348 -159.978947 
L 234.750662 -159.216 
L 234.724184 -158.453053 
L 234.669227 -157.690105 
L 234.586276 -156.927158 
L 234.475979 -156.164211 
L 234.339138 -155.401263 
L 234.176699 -154.638316 
L 233.989742 -153.875368 
L 233.779473 -153.112421 
L 233.547207 -152.349474 
L 233.294358 -151.586526 
L 233.022425 -150.823579 
L 232.732982 -150.060632 
L 232.427659 -149.297684 
L 232.108135 -148.534737 
L 231.776118 -147.771789 
L 231.433337 -147.008842 
L 231.08153 -146.245895 
L 230.722426 -145.482947 
L 230.357739 -144.72 
L 229.989152 -143.957053 
L 229.618311 -143.194105 
L 229.246814 -142.431158 
L 228.876198 -141.668211 
L 228.507936 -140.905263 
L 228.143427 -140.142316 
L 227.78399 -139.379368 
L 227.43086 -138.616421 
L 227.085181 -137.853474 
L 226.748004 -137.090526 
L 226.420285 -136.327579 
L 226.102881 -135.564632 
L 225.796555 -134.801684 
L 225.501968 -134.038737 
L 225.219687 -133.275789 
L 224.950185 -132.512842 
L 224.693842 -131.749895 
L 224.450951 -130.986947 
L 224.221718 -130.224 
L 224.006273 -129.461053 
L 223.804667 -128.698105 
L 223.616884 -127.935158 
L 223.442842 -127.172211 
L 223.282399 -126.409263 
L 223.135361 -125.646316 
L 223.001484 -124.883368 
L 222.880481 -124.120421 
L 222.772028 -123.357474 
L 222.675766 -122.594526 
L 222.591308 -121.831579 
L 222.518239 -121.068632 
L 222.456125 -120.305684 
L 222.40451 -119.542737 
L 222.362925 -118.779789 
L 222.330884 -118.016842 
L 222.30789 -117.253895 
L 222.293435 -116.490947 
L 222.286998 -115.728 
L 222.288054 -114.965053 
L 222.296066 -114.202105 
L 222.310488 -113.439158 
L 222.33077 -112.676211 
L 222.356353 -111.913263 
L 222.38667 -111.150316 
L 222.421151 -110.387368 
L 222.45922 -109.624421 
L 222.500296 -108.861474 
L 222.543799 -108.098526 
L 222.589145 -107.335579 
L 222.635754 -106.572632 
L 222.683051 -105.809684 
L 222.730466 -105.046737 
L 222.777442 -104.283789 
L 222.823433 -103.520842 
L 222.867915 -102.757895 
L 222.91038 -101.994947 
L 222.95035 -101.232 
L 222.987373 -100.469053 
L 223.021032 -99.706105 
L 223.050947 -98.943158 
L 223.076777 -98.180211 
L 223.098225 -97.417263 
L 223.115042 -96.654316 
L 223.127024 -95.891368 
L 223.134021 -95.128421 
L 223.135931 -94.365474 
z
" style="stroke: #0000ff; stroke-width: 1.5"/>
    </defs>
    <g clip-path="url(#pedd61771c7)">
     <use xlink:href="#m1b8d3cfb08" x="0" y="288" style="fill: #ffffff; stroke: #0000ff; stroke-width: 1.5"/>
    </g>
   </g>
   <g id="PolyCollection_3">
    <defs>
     <path id="mf9fff8c290" d="M 269.526666 -196.218947 
L 249.568071 -196.218947 
L 249.196165 -196.68134 
L 248.82971 -197.143732 
L 248.470051 -197.606124 
L 248.118513 -198.068517 
L 247.776396 -198.530909 
L 247.444963 -198.993301 
L 247.125428 -199.455694 
L 246.818946 -199.918086 
L 246.526606 -200.380478 
L 246.249418 -200.842871 
L 245.988309 -201.305263 
L 245.744111 -201.767656 
L 245.517557 -202.230048 
L 245.309276 -202.69244 
L 245.119785 -203.154833 
L 244.949489 -203.617225 
L 244.798676 -204.079617 
L 244.667518 -204.54201 
L 244.556069 -205.004402 
L 244.464268 -205.466794 
L 244.391939 -205.929187 
L 244.338798 -206.391579 
L 244.304455 -206.853971 
L 244.288421 -207.316364 
L 244.290114 -207.778756 
L 244.308869 -208.241148 
L 244.343942 -208.703541 
L 244.394525 -209.165933 
L 244.459751 -209.628325 
L 244.538706 -210.090718 
L 244.630441 -210.55311 
L 244.733982 -211.015502 
L 244.848339 -211.477895 
L 244.972518 -211.940287 
L 245.105533 -212.402679 
L 245.246414 -212.865072 
L 245.394218 -213.327464 
L 245.548037 -213.789856 
L 245.707007 -214.252249 
L 245.870314 -214.714641 
L 246.037202 -215.177033 
L 246.206977 -215.639426 
L 246.379013 -216.101818 
L 246.552752 -216.564211 
L 246.727707 -217.026603 
L 246.903466 -217.488995 
L 247.079684 -217.951388 
L 247.256089 -218.41378 
L 247.432473 -218.876172 
L 247.608692 -219.338565 
L 247.784659 -219.800957 
L 247.960339 -220.263349 
L 248.13574 -220.725742 
L 248.310909 -221.188134 
L 248.485926 -221.650526 
L 248.660889 -222.112919 
L 248.835913 -222.575311 
L 249.01112 -223.037703 
L 249.186632 -223.500096 
L 249.362559 -223.962488 
L 249.539002 -224.42488 
L 249.716037 -224.887273 
L 249.893716 -225.349665 
L 250.072063 -225.812057 
L 250.251068 -226.27445 
L 250.430685 -226.736842 
L 250.610834 -227.199234 
L 250.791398 -227.661627 
L 250.972229 -228.124019 
L 251.153142 -228.586411 
L 251.333927 -229.048804 
L 251.514349 -229.511196 
L 251.694151 -229.973589 
L 251.873063 -230.435981 
L 252.050808 -230.898373 
L 252.227103 -231.360766 
L 252.401671 -231.823158 
L 252.574244 -232.28555 
L 252.744572 -232.747943 
L 252.912423 -233.210335 
L 253.077595 -233.672727 
L 253.239914 -234.13512 
L 253.399241 -234.597512 
L 253.555476 -235.059904 
L 253.708555 -235.522297 
L 253.858456 -235.984689 
L 254.005196 -236.447081 
L 254.148831 -236.909474 
L 254.289452 -237.371866 
L 254.427185 -237.834258 
L 254.562185 -238.296651 
L 254.694633 -238.759043 
L 254.824732 -239.221435 
L 254.952698 -239.683828 
L 255.078759 -240.14622 
L 255.203146 -240.608612 
L 255.326088 -241.071005 
L 255.447807 -241.533397 
L 255.568514 -241.995789 
L 263.526223 -241.995789 
L 263.526223 -241.995789 
L 263.64693 -241.533397 
L 263.768649 -241.071005 
L 263.891591 -240.608612 
L 264.015978 -240.14622 
L 264.142039 -239.683828 
L 264.270005 -239.221435 
L 264.400104 -238.759043 
L 264.532552 -238.296651 
L 264.667552 -237.834258 
L 264.805285 -237.371866 
L 264.945906 -236.909474 
L 265.08954 -236.447081 
L 265.236281 -235.984689 
L 265.386182 -235.522297 
L 265.539261 -235.059904 
L 265.695496 -234.597512 
L 265.854823 -234.13512 
L 266.017142 -233.672727 
L 266.182313 -233.210335 
L 266.350165 -232.747943 
L 266.520493 -232.28555 
L 266.693066 -231.823158 
L 266.867634 -231.360766 
L 267.043929 -230.898373 
L 267.221673 -230.435981 
L 267.400586 -229.973589 
L 267.580388 -229.511196 
L 267.76081 -229.048804 
L 267.941595 -228.586411 
L 268.122508 -228.124019 
L 268.303338 -227.661627 
L 268.483903 -227.199234 
L 268.664052 -226.736842 
L 268.843669 -226.27445 
L 269.022673 -225.812057 
L 269.201021 -225.349665 
L 269.3787 -224.887273 
L 269.555735 -224.42488 
L 269.732178 -223.962488 
L 269.908105 -223.500096 
L 270.083616 -223.037703 
L 270.258824 -222.575311 
L 270.433848 -222.112919 
L 270.608811 -221.650526 
L 270.783828 -221.188134 
L 270.958997 -220.725742 
L 271.134398 -220.263349 
L 271.310077 -219.800957 
L 271.486044 -219.338565 
L 271.662264 -218.876172 
L 271.838648 -218.41378 
L 272.015053 -217.951388 
L 272.191271 -217.488995 
L 272.367029 -217.026603 
L 272.541985 -216.564211 
L 272.715724 -216.101818 
L 272.887759 -215.639426 
L 273.057535 -215.177033 
L 273.224423 -214.714641 
L 273.38773 -214.252249 
L 273.5467 -213.789856 
L 273.700519 -213.327464 
L 273.848323 -212.865072 
L 273.989204 -212.402679 
L 274.122219 -211.940287 
L 274.246398 -211.477895 
L 274.360755 -211.015502 
L 274.464295 -210.55311 
L 274.556031 -210.090718 
L 274.634986 -209.628325 
L 274.700212 -209.165933 
L 274.750794 -208.703541 
L 274.785868 -208.241148 
L 274.804622 -207.778756 
L 274.806316 -207.316364 
L 274.790282 -206.853971 
L 274.755939 -206.391579 
L 274.702798 -205.929187 
L 274.630469 -205.466794 
L 274.538668 -205.004402 
L 274.427219 -204.54201 
L 274.296061 -204.079617 
L 274.145248 -203.617225 
L 273.974952 -203.154833 
L 273.785461 -202.69244 
L 273.57718 -202.230048 
L 273.350626 -201.767656 
L 273.106428 -201.305263 
L 272.845318 -200.842871 
L 272.568131 -200.380478 
L 272.275791 -199.918086 
L 271.969309 -199.455694 
L 271.649774 -198.993301 
L 271.318341 -198.530909 
L 270.976224 -198.068517 
L 270.624686 -197.606124 
L 270.265026 -197.143732 
L 269.898572 -196.68134 
L 269.526666 -196.218947 
z
" style="stroke: #00fa9a; stroke-width: 1.5"/>
    </defs>
    <g clip-path="url(#pedd61771c7)">
     <use xlink:href="#mf9fff8c290" x="0" y="288" style="fill: #ffffff; stroke: #00fa9a; stroke-width: 1.5"/>
    </g>
   </g>
   <g id="matplotlib.axis_1">
    <g id="xtick_1">
     <g id="text_1">
      <!-- 1 -->
      <g transform="translate(180.071382 266.598437)scale(0.1 -0.1)">
       <defs>
        <path id="DejaVuSans-31" d="M 794 531 
L 1825 531 
L 1825 4091 
L 703 3866 
L 703 4441 
L 1819 4666 
L 2450 4666 
L 2450 531 
L 3481 531 
L 3481 0 
L 794 0 
L 794 531 
z
" transform="scale(0.015625)"/>
       </defs>
       <use xlink:href="#DejaVuSans-31"/>
      </g>
     </g>
    </g>
    <g id="xtick_2">
     <g id="text_2">
      <!-- 2 -->
      <g transform="translate(218.21875 266.598437)scale(0.1 -0.1)">
       <defs>
        <path id="DejaVuSans-32" d="M 1228 531 
L 3431 531 
L 3431 0 
L 469 0 
L 469 531 
Q 828 903 1448 1529 
Q 2069 2156 2228 2338 
Q 2531 2678 2651 2914 
Q 2772 3150 2772 3378 
Q 2772 3750 2511 3984 
Q 2250 4219 1831 4219 
Q 1534 4219 1204 4116 
Q 875 4013 500 3803 
L 500 4441 
Q 881 4594 1212 4672 
Q 1544 4750 1819 4750 
Q 2544 4750 2975 4387 
Q 3406 4025 3406 3419 
Q 3406 3131 3298 2873 
Q 3191 2616 2906 2266 
Q 2828 2175 2409 1742 
Q 1991 1309 1228 531 
z
" transform="scale(0.015625)"/>
       </defs>
       <use xlink:href="#DejaVuSans-32"/>
      </g>
     </g>
    </g>
    <g id="xtick_3">
     <g id="text_3">
      <!-- 3 -->
      <g transform="translate(256.366118 266.598437)scale(0.1 -0.1)">
       <defs>
        <path id="DejaVuSans-33" d="M 2597 2516 
Q 3050 2419 3304 2112 
Q 3559 1806 3559 1356 
Q 3559 666 3084 287 
Q 2609 -91 1734 -91 
Q 1441 -91 1130 -33 
Q 819 25 488 141 
L 488 750 
Q 750 597 1062 519 
Q 1375 441 1716 441 
Q 2309 441 2620 675 
Q 2931 909 2931 1356 
Q 2931 1769 2642 2001 
Q 2353 2234 1838 2234 
L 1294 2234 
L 1294 2753 
L 1863 2753 
Q 2328 2753 2575 2939 
Q 2822 3125 2822 3475 
Q 2822 3834 2567 4026 
Q 2313 4219 1838 4219 
Q 1578 4219 1281 4162 
Q 984 4106 628 3988 
L 628 4550 
Q 988 4650 1302 4700 
Q 1616 4750 1894 4750 
Q 2613 4750 3031 4423 
Q 3450 4097 3450 3541 
Q 3450 3153 3228 2886 
Q 3006 2619 2597 2516 
z
" transform="scale(0.015625)"/>
       </defs>
       <use xlink:href="#DejaVuSans-33"/>
      </g>
     </g>
    </g>
    <g id="text_4">
     <!-- Glomerulus -->
     <g transform="translate(187.0125 281.79625)scale(0.12 -0.12)">
      <defs>
       <path id="DejaVuSans-47" d="M 3809 666 
L 3809 1919 
L 2778 1919 
L 2778 2438 
L 4434 2438 
L 4434 434 
Q 4069 175 3628 42 
Q 3188 -91 2688 -91 
Q 1594 -91 976 548 
Q 359 1188 359 2328 
Q 359 3472 976 4111 
Q 1594 4750 2688 4750 
Q 3144 4750 3555 4637 
Q 3966 4525 4313 4306 
L 4313 3634 
Q 3963 3931 3569 4081 
Q 3175 4231 2741 4231 
Q 1884 4231 1454 3753 
Q 1025 3275 1025 2328 
Q 1025 1384 1454 906 
Q 1884 428 2741 428 
Q 3075 428 3337 486 
Q 3600 544 3809 666 
z
" transform="scale(0.015625)"/>
       <path id="DejaVuSans-6c" d="M 603 4863 
L 1178 4863 
L 1178 0 
L 603 0 
L 603 4863 
z
" transform="scale(0.015625)"/>
       <path id="DejaVuSans-6f" d="M 1959 3097 
Q 1497 3097 1228 2736 
Q 959 2375 959 1747 
Q 959 1119 1226 758 
Q 1494 397 1959 397 
Q 2419 397 2687 759 
Q 2956 1122 2956 1747 
Q 2956 2369 2687 2733 
Q 2419 3097 1959 3097 
z
M 1959 3584 
Q 2709 3584 3137 3096 
Q 3566 2609 3566 1747 
Q 3566 888 3137 398 
Q 2709 -91 1959 -91 
Q 1206 -91 779 398 
Q 353 888 353 1747 
Q 353 2609 779 3096 
Q 1206 3584 1959 3584 
z
" transform="scale(0.015625)"/>
       <path id="DejaVuSans-6d" d="M 3328 2828 
Q 3544 3216 3844 3400 
Q 4144 3584 4550 3584 
Q 5097 3584 5394 3201 
Q 5691 2819 5691 2113 
L 5691 0 
L 5113 0 
L 5113 2094 
Q 5113 2597 4934 2840 
Q 4756 3084 4391 3084 
Q 3944 3084 3684 2787 
Q 3425 2491 3425 1978 
L 3425 0 
L 2847 0 
L 2847 2094 
Q 2847 2600 2669 2842 
Q 2491 3084 2119 3084 
Q 1678 3084 1418 2786 
Q 1159 2488 1159 1978 
L 1159 0 
L 581 0 
L 581 3500 
L 1159 3500 
L 1159 2956 
Q 1356 3278 1631 3431 
Q 1906 3584 2284 3584 
Q 2666 3584 2933 3390 
Q 3200 3197 3328 2828 
z
" transform="scale(0.015625)"/>
       <path id="DejaVuSans-65" d="M 3597 1894 
L 3597 1613 
L 953 1613 
Q 991 1019 1311 708 
Q 1631 397 2203 397 
Q 2534 397 2845 478 
Q 3156 559 3463 722 
L 3463 178 
Q 3153 47 2828 -22 
Q 2503 -91 2169 -91 
Q 1331 -91 842 396 
Q 353 884 353 1716 
Q 353 2575 817 3079 
Q 1281 3584 2069 3584 
Q 2775 3584 3186 3129 
Q 3597 2675 3597 1894 
z
M 3022 2063 
Q 3016 2534 2758 2815 
Q 2500 3097 2075 3097 
Q 1594 3097 1305 2825 
Q 1016 2553 972 2059 
L 3022 2063 
z
" transform="scale(0.015625)"/>
       <path id="DejaVuSans-72" d="M 2631 2963 
Q 2534 3019 2420 3045 
Q 2306 3072 2169 3072 
Q 1681 3072 1420 2755 
Q 1159 2438 1159 1844 
L 1159 0 
L 581 0 
L 581 3500 
L 1159 3500 
L 1159 2956 
Q 1341 3275 1631 3429 
Q 1922 3584 2338 3584 
Q 2397 3584 2469 3576 
Q 2541 3569 2628 3553 
L 2631 2963 
z
" transform="scale(0.015625)"/>
       <path id="DejaVuSans-75" d="M 544 1381 
L 544 3500 
L 1119 3500 
L 1119 1403 
Q 1119 906 1312 657 
Q 1506 409 1894 409 
Q 2359 409 2629 706 
Q 2900 1003 2900 1516 
L 2900 3500 
L 3475 3500 
L 3475 0 
L 2900 0 
L 2900 538 
Q 2691 219 2414 64 
Q 2138 -91 1772 -91 
Q 1169 -91 856 284 
Q 544 659 544 1381 
z
M 1991 3584 
L 1991 3584 
z
" transform="scale(0.015625)"/>
       <path id="DejaVuSans-73" d="M 2834 3397 
L 2834 2853 
Q 2591 2978 2328 3040 
Q 2066 3103 1784 3103 
Q 1356 3103 1142 2972 
Q 928 2841 928 2578 
Q 928 2378 1081 2264 
Q 1234 2150 1697 2047 
L 1894 2003 
Q 2506 1872 2764 1633 
Q 3022 1394 3022 966 
Q 3022 478 2636 193 
Q 2250 -91 1575 -91 
Q 1294 -91 989 -36 
Q 684 19 347 128 
L 347 722 
Q 666 556 975 473 
Q 1284 391 1588 391 
Q 1994 391 2212 530 
Q 2431 669 2431 922 
Q 2431 1156 2273 1281 
Q 2116 1406 1581 1522 
L 1381 1569 
Q 847 1681 609 1914 
Q 372 2147 372 2553 
Q 372 3047 722 3315 
Q 1072 3584 1716 3584 
Q 2034 3584 2315 3537 
Q 2597 3491 2834 3397 
z
" transform="scale(0.015625)"/>
      </defs>
      <use xlink:href="#DejaVuSans-47"/>
      <use xlink:href="#DejaVuSans-6c" x="77.490234"/>
      <use xlink:href="#DejaVuSans-6f" x="105.273438"/>
      <use xlink:href="#DejaVuSans-6d" x="166.455078"/>
      <use xlink:href="#DejaVuSans-65" x="263.867188"/>
      <use xlink:href="#DejaVuSans-72" x="325.390625"/>
      <use xlink:href="#DejaVuSans-75" x="366.503906"/>
      <use xlink:href="#DejaVuSans-6c" x="429.882812"/>
      <use xlink:href="#DejaVuSans-75" x="457.666016"/>
      <use xlink:href="#DejaVuSans-73" x="521.044922"/>
     </g>
    </g>
   </g>
   <g id="matplotlib.axis_2">
    <g id="ytick_1">
     <g id="line2d_1">
      <defs>
       <path id="m5a2fd5f0ca" d="M 0 0 
L -3.5 0 
" style="stroke: #000000; stroke-width: 0.8"/>
      </defs>
      <g>
       <use xlink:href="#m5a2fd5f0ca" x="164.178947" y="252" style="stroke: #000000; stroke-width: 0.8"/>
      </g>
     </g>
     <g id="text_5">
      <!-- 0 -->
      <g transform="translate(150.816447 255.799219)scale(0.1 -0.1)">
       <defs>
        <path id="DejaVuSans-30" d="M 2034 4250 
Q 1547 4250 1301 3770 
Q 1056 3291 1056 2328 
Q 1056 1369 1301 889 
Q 1547 409 2034 409 
Q 2525 409 2770 889 
Q 3016 1369 3016 2328 
Q 3016 3291 2770 3770 
Q 2525 4250 2034 4250 
z
M 2034 4750 
Q 2819 4750 3233 4129 
Q 3647 3509 3647 2328 
Q 3647 1150 3233 529 
Q 2819 -91 2034 -91 
Q 1250 -91 836 529 
Q 422 1150 422 2328 
Q 422 3509 836 4129 
Q 1250 4750 2034 4750 
z
" transform="scale(0.015625)"/>
       </defs>
       <use xlink:href="#DejaVuSans-30"/>
      </g>
     </g>
    </g>
    <g id="ytick_2">
     <g id="line2d_2">
      <g>
       <use xlink:href="#m5a2fd5f0ca" x="164.178947" y="223.389474" style="stroke: #000000; stroke-width: 0.8"/>
      </g>
     </g>
     <g id="text_6">
      <!-- 25 -->
      <g transform="translate(144.453947 227.188692)scale(0.1 -0.1)">
       <defs>
        <path id="DejaVuSans-35" d="M 691 4666 
L 3169 4666 
L 3169 4134 
L 1269 4134 
L 1269 2991 
Q 1406 3038 1543 3061 
Q 1681 3084 1819 3084 
Q 2600 3084 3056 2656 
Q 3513 2228 3513 1497 
Q 3513 744 3044 326 
Q 2575 -91 1722 -91 
Q 1428 -91 1123 -41 
Q 819 9 494 109 
L 494 744 
Q 775 591 1075 516 
Q 1375 441 1709 441 
Q 2250 441 2565 725 
Q 2881 1009 2881 1497 
Q 2881 1984 2565 2268 
Q 2250 2553 1709 2553 
Q 1456 2553 1204 2497 
Q 953 2441 691 2322 
L 691 4666 
z
" transform="scale(0.015625)"/>
       </defs>
       <use xlink:href="#DejaVuSans-32"/>
       <use xlink:href="#DejaVuSans-35" x="63.623047"/>
      </g>
     </g>
    </g>
    <g id="ytick_3">
     <g id="line2d_3">
      <g>
       <use xlink:href="#m5a2fd5f0ca" x="164.178947" y="194.778947" style="stroke: #000000; stroke-width: 0.8"/>
      </g>
     </g>
     <g id="text_7">
      <!-- 50 -->
      <g transform="translate(144.453947 198.578166)scale(0.1 -0.1)">
       <use xlink:href="#DejaVuSans-35"/>
       <use xlink:href="#DejaVuSans-30" x="63.623047"/>
      </g>
     </g>
    </g>
    <g id="ytick_4">
     <g id="line2d_4">
      <g>
       <use xlink:href="#m5a2fd5f0ca" x="164.178947" y="166.168421" style="stroke: #000000; stroke-width: 0.8"/>
      </g>
     </g>
     <g id="text_8">
      <!-- 75 -->
      <g transform="translate(144.453947 169.96764)scale(0.1 -0.1)">
       <defs>
        <path id="DejaVuSans-37" d="M 525 4666 
L 3525 4666 
L 3525 4397 
L 1831 0 
L 1172 0 
L 2766 4134 
L 525 4134 
L 525 4666 
z
" transform="scale(0.015625)"/>
       </defs>
       <use xlink:href="#DejaVuSans-37"/>
       <use xlink:href="#DejaVuSans-35" x="63.623047"/>
      </g>
     </g>
    </g>
    <g id="ytick_5">
     <g id="line2d_5">
      <g>
       <use xlink:href="#m5a2fd5f0ca" x="164.178947" y="137.557895" style="stroke: #000000; stroke-width: 0.8"/>
      </g>
     </g>
     <g id="text_9">
      <!-- 100 -->
      <g transform="translate(138.091447 141.357113)scale(0.1 -0.1)">
       <use xlink:href="#DejaVuSans-31"/>
       <use xlink:href="#DejaVuSans-30" x="63.623047"/>
       <use xlink:href="#DejaVuSans-30" x="127.246094"/>
      </g>
     </g>
    </g>
    <g id="ytick_6">
     <g id="line2d_6">
      <g>
       <use xlink:href="#m5a2fd5f0ca" x="164.178947" y="108.947368" style="stroke: #000000; stroke-width: 0.8"/>
      </g>
     </g>
     <g id="text_10">
      <!-- 125 -->
      <g transform="translate(138.091447 112.746587)scale(0.1 -0.1)">
       <use xlink:href="#DejaVuSans-31"/>
       <use xlink:href="#DejaVuSans-32" x="63.623047"/>
       <use xlink:href="#DejaVuSans-35" x="127.246094"/>
      </g>
     </g>
    </g>
    <g id="ytick_7">
     <g id="line2d_7">
      <g>
       <use xlink:href="#m5a2fd5f0ca" x="164.178947" y="80.336842" style="stroke: #000000; stroke-width: 0.8"/>
      </g>
     </g>
     <g id="text_11">
      <!-- 150 -->
      <g transform="translate(138.091447 84.136061)scale(0.1 -0.1)">
       <use xlink:href="#DejaVuSans-31"/>
       <use xlink:href="#DejaVuSans-35" x="63.623047"/>
       <use xlink:href="#DejaVuSans-30" x="127.246094"/>
      </g>
     </g>
    </g>
    <g id="ytick_8">
     <g id="line2d_8">
      <g>
       <use xlink:href="#m5a2fd5f0ca" x="164.178947" y="51.726316" style="stroke: #000000; stroke-width: 0.8"/>
      </g>
     </g>
     <g id="text_12">
      <!-- 175 -->
      <g transform="translate(138.091447 55.525535)scale(0.1 -0.1)">
       <use xlink:href="#DejaVuSans-31"/>
       <use xlink:href="#DejaVuSans-37" x="63.623047"/>
       <use xlink:href="#DejaVuSans-35" x="127.246094"/>
      </g>
     </g>
    </g>
    <g id="text_13">
     <!-- Synapse # (total per OSN) -->
     <g transform="translate(131.595822 222.79125)rotate(-90)scale(0.12 -0.12)">
      <defs>
       <path id="DejaVuSans-53" d="M 3425 4513 
L 3425 3897 
Q 3066 4069 2747 4153 
Q 2428 4238 2131 4238 
Q 1616 4238 1336 4038 
Q 1056 3838 1056 3469 
Q 1056 3159 1242 3001 
Q 1428 2844 1947 2747 
L 2328 2669 
Q 3034 2534 3370 2195 
Q 3706 1856 3706 1288 
Q 3706 609 3251 259 
Q 2797 -91 1919 -91 
Q 1588 -91 1214 -16 
Q 841 59 441 206 
L 441 856 
Q 825 641 1194 531 
Q 1563 422 1919 422 
Q 2459 422 2753 634 
Q 3047 847 3047 1241 
Q 3047 1584 2836 1778 
Q 2625 1972 2144 2069 
L 1759 2144 
Q 1053 2284 737 2584 
Q 422 2884 422 3419 
Q 422 4038 858 4394 
Q 1294 4750 2059 4750 
Q 2388 4750 2728 4690 
Q 3069 4631 3425 4513 
z
" transform="scale(0.015625)"/>
       <path id="DejaVuSans-79" d="M 2059 -325 
Q 1816 -950 1584 -1140 
Q 1353 -1331 966 -1331 
L 506 -1331 
L 506 -850 
L 844 -850 
Q 1081 -850 1212 -737 
Q 1344 -625 1503 -206 
L 1606 56 
L 191 3500 
L 800 3500 
L 1894 763 
L 2988 3500 
L 3597 3500 
L 2059 -325 
z
" transform="scale(0.015625)"/>
       <path id="DejaVuSans-6e" d="M 3513 2113 
L 3513 0 
L 2938 0 
L 2938 2094 
Q 2938 2591 2744 2837 
Q 2550 3084 2163 3084 
Q 1697 3084 1428 2787 
Q 1159 2491 1159 1978 
L 1159 0 
L 581 0 
L 581 3500 
L 1159 3500 
L 1159 2956 
Q 1366 3272 1645 3428 
Q 1925 3584 2291 3584 
Q 2894 3584 3203 3211 
Q 3513 2838 3513 2113 
z
" transform="scale(0.015625)"/>
       <path id="DejaVuSans-61" d="M 2194 1759 
Q 1497 1759 1228 1600 
Q 959 1441 959 1056 
Q 959 750 1161 570 
Q 1363 391 1709 391 
Q 2188 391 2477 730 
Q 2766 1069 2766 1631 
L 2766 1759 
L 2194 1759 
z
M 3341 1997 
L 3341 0 
L 2766 0 
L 2766 531 
Q 2569 213 2275 61 
Q 1981 -91 1556 -91 
Q 1019 -91 701 211 
Q 384 513 384 1019 
Q 384 1609 779 1909 
Q 1175 2209 1959 2209 
L 2766 2209 
L 2766 2266 
Q 2766 2663 2505 2880 
Q 2244 3097 1772 3097 
Q 1472 3097 1187 3025 
Q 903 2953 641 2809 
L 641 3341 
Q 956 3463 1253 3523 
Q 1550 3584 1831 3584 
Q 2591 3584 2966 3190 
Q 3341 2797 3341 1997 
z
" transform="scale(0.015625)"/>
       <path id="DejaVuSans-70" d="M 1159 525 
L 1159 -1331 
L 581 -1331 
L 581 3500 
L 1159 3500 
L 1159 2969 
Q 1341 3281 1617 3432 
Q 1894 3584 2278 3584 
Q 2916 3584 3314 3078 
Q 3713 2572 3713 1747 
Q 3713 922 3314 415 
Q 2916 -91 2278 -91 
Q 1894 -91 1617 61 
Q 1341 213 1159 525 
z
M 3116 1747 
Q 3116 2381 2855 2742 
Q 2594 3103 2138 3103 
Q 1681 3103 1420 2742 
Q 1159 2381 1159 1747 
Q 1159 1113 1420 752 
Q 1681 391 2138 391 
Q 2594 391 2855 752 
Q 3116 1113 3116 1747 
z
" transform="scale(0.015625)"/>
       <path id="DejaVuSans-20" transform="scale(0.015625)"/>
       <path id="DejaVuSans-23" d="M 3272 2816 
L 2363 2816 
L 2100 1772 
L 3016 1772 
L 3272 2816 
z
M 2803 4594 
L 2478 3297 
L 3391 3297 
L 3719 4594 
L 4219 4594 
L 3897 3297 
L 4872 3297 
L 4872 2816 
L 3775 2816 
L 3519 1772 
L 4513 1772 
L 4513 1294 
L 3397 1294 
L 3072 0 
L 2572 0 
L 2894 1294 
L 1978 1294 
L 1656 0 
L 1153 0 
L 1478 1294 
L 494 1294 
L 494 1772 
L 1594 1772 
L 1856 2816 
L 850 2816 
L 850 3297 
L 1978 3297 
L 2297 4594 
L 2803 4594 
z
" transform="scale(0.015625)"/>
       <path id="DejaVuSans-28" d="M 1984 4856 
Q 1566 4138 1362 3434 
Q 1159 2731 1159 2009 
Q 1159 1288 1364 580 
Q 1569 -128 1984 -844 
L 1484 -844 
Q 1016 -109 783 600 
Q 550 1309 550 2009 
Q 550 2706 781 3412 
Q 1013 4119 1484 4856 
L 1984 4856 
z
" transform="scale(0.015625)"/>
       <path id="DejaVuSans-74" d="M 1172 4494 
L 1172 3500 
L 2356 3500 
L 2356 3053 
L 1172 3053 
L 1172 1153 
Q 1172 725 1289 603 
Q 1406 481 1766 481 
L 2356 481 
L 2356 0 
L 1766 0 
Q 1100 0 847 248 
Q 594 497 594 1153 
L 594 3053 
L 172 3053 
L 172 3500 
L 594 3500 
L 594 4494 
L 1172 4494 
z
" transform="scale(0.015625)"/>
       <path id="DejaVuSans-4f" d="M 2522 4238 
Q 1834 4238 1429 3725 
Q 1025 3213 1025 2328 
Q 1025 1447 1429 934 
Q 1834 422 2522 422 
Q 3209 422 3611 934 
Q 4013 1447 4013 2328 
Q 4013 3213 3611 3725 
Q 3209 4238 2522 4238 
z
M 2522 4750 
Q 3503 4750 4090 4092 
Q 4678 3434 4678 2328 
Q 4678 1225 4090 567 
Q 3503 -91 2522 -91 
Q 1538 -91 948 565 
Q 359 1222 359 2328 
Q 359 3434 948 4092 
Q 1538 4750 2522 4750 
z
" transform="scale(0.015625)"/>
       <path id="DejaVuSans-4e" d="M 628 4666 
L 1478 4666 
L 3547 763 
L 3547 4666 
L 4159 4666 
L 4159 0 
L 3309 0 
L 1241 3903 
L 1241 0 
L 628 0 
L 628 4666 
z
" transform="scale(0.015625)"/>
       <path id="DejaVuSans-29" d="M 513 4856 
L 1013 4856 
Q 1481 4119 1714 3412 
Q 1947 2706 1947 2009 
Q 1947 1309 1714 600 
Q 1481 -109 1013 -844 
L 513 -844 
Q 928 -128 1133 580 
Q 1338 1288 1338 2009 
Q 1338 2731 1133 3434 
Q 928 4138 513 4856 
z
" transform="scale(0.015625)"/>
      </defs>
      <use xlink:href="#DejaVuSans-53"/>
      <use xlink:href="#DejaVuSans-79" x="63.476562"/>
      <use xlink:href="#DejaVuSans-6e" x="122.65625"/>
      <use xlink:href="#DejaVuSans-61" x="186.035156"/>
      <use xlink:href="#DejaVuSans-70" x="247.314453"/>
      <use xlink:href="#DejaVuSans-73" x="310.791016"/>
      <use xlink:href="#DejaVuSans-65" x="362.890625"/>
      <use xlink:href="#DejaVuSans-20" x="424.414062"/>
      <use xlink:href="#DejaVuSans-23" x="456.201172"/>
      <use xlink:href="#DejaVuSans-20" x="539.990234"/>
      <use xlink:href="#DejaVuSans-28" x="571.777344"/>
      <use xlink:href="#DejaVuSans-74" x="610.791016"/>
      <use xlink:href="#DejaVuSans-6f" x="650"/>
      <use xlink:href="#DejaVuSans-74" x="711.181641"/>
      <use xlink:href="#DejaVuSans-61" x="750.390625"/>
      <use xlink:href="#DejaVuSans-6c" x="811.669922"/>
      <use xlink:href="#DejaVuSans-20" x="839.453125"/>
      <use xlink:href="#DejaVuSans-70" x="871.240234"/>
      <use xlink:href="#DejaVuSans-65" x="934.716797"/>
      <use xlink:href="#DejaVuSans-72" x="996.240234"/>
      <use xlink:href="#DejaVuSans-20" x="1037.353516"/>
      <use xlink:href="#DejaVuSans-4f" x="1069.140625"/>
      <use xlink:href="#DejaVuSans-53" x="1147.851562"/>
      <use xlink:href="#DejaVuSans-4e" x="1211.328125"/>
      <use xlink:href="#DejaVuSans-29" x="1286.132812"/>
     </g>
    </g>
   </g>
   <g id="line2d_9">
    <path d="M 177.104908 91.552168 
L 189.400355 91.552168 
" clip-path="url(#pedd61771c7)" style="fill: none; stroke: #000000; stroke-width: 1.5; stroke-linecap: square"/>
   </g>
   <g id="line2d_10">
    <path d="M 209.374265 135.497937 
L 233.425735 135.497937 
" clip-path="url(#pedd61771c7)" style="fill: none; stroke: #000000; stroke-width: 1.5; stroke-linecap: square"/>
   </g>
   <g id="line2d_11">
    <path d="M 245.84541 73.813642 
L 273.249326 73.813642 
" clip-path="url(#pedd61771c7)" style="fill: none; stroke: #000000; stroke-width: 1.5; stroke-linecap: square"/>
   </g>
   <g id="patch_3">
    <path d="M 164.178947 252 
L 164.178947 34.56 
" style="fill: none; stroke: #000000; stroke-width: 0.8; stroke-linejoin: miter; stroke-linecap: square"/>
   </g>
   <g id="PathCollection_1">
    <defs>
     <path id="C0_0_2c592cae9b" d="M 0 2.5 
C 0.663008 2.5 1.29895 2.236584 1.767767 1.767767 
C 2.236584 1.29895 2.5 0.663008 2.5 -0 
C 2.5 -0.663008 2.236584 -1.29895 1.767767 -1.767767 
C 1.29895 -2.236584 0.663008 -2.5 0 -2.5 
C -0.663008 -2.5 -1.29895 -2.236584 -1.767767 -1.767767 
C -2.236584 -1.29895 -2.5 -0.663008 -2.5 0 
C -2.5 0.663008 -2.236584 1.29895 -1.767767 1.767767 
C -1.29895 2.236584 -0.663008 2.5 0 2.5 
z
"/>
    </defs>
    <g clip-path="url(#pedd61771c7)">
     <use xlink:href="#C0_0_2c592cae9b" x="181.587556" y="68.892632" style="fill: #ee82ee"/>
    </g>
    <g clip-path="url(#pedd61771c7)">
     <use xlink:href="#C0_0_2c592cae9b" x="179.647313" y="71.181474" style="fill: #ee82ee"/>
    </g>
    <g clip-path="url(#pedd61771c7)">
     <use xlink:href="#C0_0_2c592cae9b" x="183.066889" y="122.680421" style="fill: #ee82ee"/>
    </g>
    <g clip-path="url(#pedd61771c7)">
     <use xlink:href="#C0_0_2c592cae9b" x="180.106094" y="120.391579" style="fill: #ee82ee"/>
    </g>
    <g clip-path="url(#pedd61771c7)">
     <use xlink:href="#C0_0_2c592cae9b" x="180.016457" y="74.614737" style="fill: #ee82ee"/>
    </g>
    <g clip-path="url(#pedd61771c7)">
     <use xlink:href="#C0_0_2c592cae9b" x="183.750203" y="86.058947" style="fill: #ee82ee"/>
    </g>
    <g clip-path="url(#pedd61771c7)">
     <use xlink:href="#C0_0_2c592cae9b" x="184.704171" y="41.426526" style="fill: #ee82ee"/>
    </g>
    <g clip-path="url(#pedd61771c7)">
     <use xlink:href="#C0_0_2c592cae9b" x="184.262087" y="79.192421" style="fill: #ee82ee"/>
    </g>
    <g clip-path="url(#pedd61771c7)">
     <use xlink:href="#C0_0_2c592cae9b" x="181.133156" y="150.146526" style="fill: #ee82ee"/>
    </g>
    <g clip-path="url(#pedd61771c7)">
     <use xlink:href="#C0_0_2c592cae9b" x="181.939621" y="100.936421" style="fill: #ee82ee"/>
    </g>
   </g>
   <g id="PathCollection_2">
    <defs>
     <path id="C1_0_4643ff742a" d="M 0 2.5 
C 0.663008 2.5 1.29895 2.236584 1.767767 1.767767 
C 2.236584 1.29895 2.5 0.663008 2.5 -0 
C 2.5 -0.663008 2.236584 -1.29895 1.767767 -1.767767 
C 1.29895 -2.236584 0.663008 -2.5 0 -2.5 
C -0.663008 -2.5 -1.29895 -2.236584 -1.767767 -1.767767 
C -2.236584 -1.29895 -2.5 -0.663008 -2.5 0 
C -2.5 0.663008 -2.236584 1.29895 -1.767767 1.767767 
C -1.29895 2.236584 -0.663008 2.5 0 2.5 
z
"/>
    </defs>
    <g clip-path="url(#pedd61771c7)">
     <use xlink:href="#C1_0_4643ff742a" x="221.962386" y="134.124632" style="fill: #0000ff"/>
    </g>
    <g clip-path="url(#pedd61771c7)">
     <use xlink:href="#C1_0_4643ff742a" x="219.483362" y="123.824842" style="fill: #0000ff"/>
    </g>
    <g clip-path="url(#pedd61771c7)">
     <use xlink:href="#C1_0_4643ff742a" x="221.748541" y="137.557895" style="fill: #0000ff"/>
    </g>
    <g clip-path="url(#pedd61771c7)">
     <use xlink:href="#C1_0_4643ff742a" x="220.847717" y="124.969263" style="fill: #0000ff"/>
    </g>
    <g clip-path="url(#pedd61771c7)">
     <use xlink:href="#C1_0_4643ff742a" x="221.783251" y="143.28" style="fill: #0000ff"/>
    </g>
    <g clip-path="url(#pedd61771c7)">
     <use xlink:href="#C1_0_4643ff742a" x="217.804658" y="123.824842" style="fill: #0000ff"/>
    </g>
    <g clip-path="url(#pedd61771c7)">
     <use xlink:href="#C1_0_4643ff742a" x="225.1732" y="118.102737" style="fill: #0000ff"/>
    </g>
    <g clip-path="url(#pedd61771c7)">
     <use xlink:href="#C1_0_4643ff742a" x="224.546562" y="134.124632" style="fill: #0000ff"/>
    </g>
    <g clip-path="url(#pedd61771c7)">
     <use xlink:href="#C1_0_4643ff742a" x="224.228394" y="121.536" style="fill: #0000ff"/>
    </g>
    <g clip-path="url(#pedd61771c7)">
     <use xlink:href="#C1_0_4643ff742a" x="218.147443" y="193.634526" style="fill: #0000ff"/>
    </g>
   </g>
   <g id="PathCollection_3">
    <defs>
     <path id="C2_0_625145d1eb" d="M 0 2.5 
C 0.663008 2.5 1.29895 2.236584 1.767767 1.767767 
C 2.236584 1.29895 2.5 0.663008 2.5 -0 
C 2.5 -0.663008 2.236584 -1.29895 1.767767 -1.767767 
C 1.29895 -2.236584 0.663008 -2.5 0 -2.5 
C -0.663008 -2.5 -1.29895 -2.236584 -1.767767 -1.767767 
C -2.236584 -1.29895 -2.5 -0.663008 -2.5 0 
C -2.5 0.663008 -2.236584 1.29895 -1.767767 1.767767 
C -1.29895 2.236584 -0.663008 2.5 0 2.5 
z
"/>
    </defs>
    <g clip-path="url(#pedd61771c7)">
     <use xlink:href="#C2_0_625145d1eb" x="256.944258" y="78.048" style="fill: #00fa9a"/>
    </g>
    <g clip-path="url(#pedd61771c7)">
     <use xlink:href="#C2_0_625145d1eb" x="256.626639" y="62.026105" style="fill: #00fa9a"/>
    </g>
    <g clip-path="url(#pedd61771c7)">
     <use xlink:href="#C2_0_625145d1eb" x="262.372087" y="91.781053" style="fill: #00fa9a"/>
    </g>
    <g clip-path="url(#pedd61771c7)">
     <use xlink:href="#C2_0_625145d1eb" x="258.046595" y="46.004211" style="fill: #00fa9a"/>
    </g>
    <g clip-path="url(#pedd61771c7)">
     <use xlink:href="#C2_0_625145d1eb" x="262.434332" y="84.914526" style="fill: #00fa9a"/>
    </g>
    <g clip-path="url(#pedd61771c7)">
     <use xlink:href="#C2_0_625145d1eb" x="262.561685" y="82.625684" style="fill: #00fa9a"/>
    </g>
    <g clip-path="url(#pedd61771c7)">
     <use xlink:href="#C2_0_625145d1eb" x="260.689298" y="86.058947" style="fill: #00fa9a"/>
    </g>
    <g clip-path="url(#pedd61771c7)">
     <use xlink:href="#C2_0_625145d1eb" x="261.940431" y="70.037053" style="fill: #00fa9a"/>
    </g>
    <g clip-path="url(#pedd61771c7)">
     <use xlink:href="#C2_0_625145d1eb" x="258.364518" y="60.881684" style="fill: #00fa9a"/>
    </g>
    <g clip-path="url(#pedd61771c7)">
     <use xlink:href="#C2_0_625145d1eb" x="262.613688" y="75.759158" style="fill: #00fa9a"/>
    </g>
   </g>
  </g>
 </g>
 <defs>
  <clipPath id="pedd61771c7">
   <rect x="164.178947" y="34.56" width="114.442105" height="217.44"/>
  </clipPath>
 </defs>
</svg>
