<?xml version="1.0" encoding="utf-8" standalone="no"?>
<!DOCTYPE svg PUBLIC "-//W3C//DTD SVG 1.1//EN"
  "http://www.w3.org/Graphics/SVG/1.1/DTD/svg11.dtd">
<svg xmlns:xlink="http://www.w3.org/1999/xlink" width="432pt" height="288pt" viewBox="0 0 432 288" xmlns="http://www.w3.org/2000/svg" version="1.1">
 <metadata>
  <rdf:RDF xmlns:dc="http://purl.org/dc/elements/1.1/" xmlns:cc="http://creativecommons.org/ns#" xmlns:rdf="http://www.w3.org/1999/02/22-rdf-syntax-ns#">
   <cc:Work>
    <dc:type rdf:resource="http://purl.org/dc/dcmitype/StillImage"/>
    <dc:date>2024-01-28T09:39:19.497155</dc:date>
    <dc:format>image/svg+xml</dc:format>
    <dc:creator>
     <cc:Agent>
      <dc:title>Matplotlib v3.5.1, https://matplotlib.org/</dc:title>
     </cc:Agent>
    </dc:creator>
   </cc:Work>
  </rdf:RDF>
 </metadata>
 <defs>
  <style type="text/css">*{stroke-linejoin: round; stroke-linecap: butt}</style>
 </defs>
 <g id="figure_1">
  <g id="patch_1">
   <path d="M 0 288 
L 432 288 
L 432 0 
L 0 0 
L 0 288 
z
" style="fill: none"/>
  </g>
  <g id="axes_1">
   <g id="patch_2">
    <path d="M 163.157143 252 
L 279.642857 252 
L 279.642857 34.56 
L 163.157143 34.56 
z
" style="fill: #ffffff"/>
   </g>
   <g id="PolyCollection_1">
    <defs>
     <path id="m34079b6d41" d="M 188.781478 -85.105355 
L 176.361379 -85.105355 
L 176.090768 -85.307471 
L 175.817976 -85.509587 
L 175.543465 -85.711704 
L 175.267701 -85.91382 
L 174.991152 -86.115936 
L 174.714286 -86.318052 
L 174.437564 -86.520168 
L 174.161441 -86.722284 
L 173.886358 -86.924401 
L 173.612742 -87.126517 
L 173.341002 -87.328633 
L 173.071521 -87.530749 
L 172.804661 -87.732865 
L 172.540751 -87.934982 
L 172.280092 -88.137098 
L 172.022953 -88.339214 
L 171.769569 -88.54133 
L 171.520142 -88.743446 
L 171.274847 -88.945562 
L 171.033828 -89.147679 
L 170.797205 -89.349795 
L 170.56508 -89.551911 
L 170.337543 -89.754027 
L 170.114678 -89.956143 
L 169.896572 -90.15826 
L 169.683326 -90.360376 
L 169.47506 -90.562492 
L 169.27193 -90.764608 
L 169.07413 -90.966724 
L 168.881908 -91.168841 
L 168.69557 -91.370957 
L 168.51549 -91.573073 
L 168.342118 -91.775189 
L 168.175983 -91.977305 
L 168.017693 -92.179421 
L 167.86794 -92.381538 
L 167.727498 -92.583654 
L 167.597215 -92.78577 
L 167.478009 -92.987886 
L 167.370858 -93.190002 
L 167.276789 -93.392119 
L 167.196862 -93.594235 
L 167.132154 -93.796351 
L 167.083743 -93.998467 
L 167.052686 -94.200583 
L 167.04 -94.402699 
L 167.04664 -94.604816 
L 167.073479 -94.806932 
L 167.121287 -95.009048 
L 167.19071 -95.211164 
L 167.282252 -95.41328 
L 167.39626 -95.615397 
L 167.532905 -95.817513 
L 167.692177 -96.019629 
L 167.87387 -96.221745 
L 168.07758 -96.423861 
L 168.3027 -96.625977 
L 168.548425 -96.828094 
L 168.813751 -97.03021 
L 169.097489 -97.232326 
L 169.398273 -97.434442 
L 169.714577 -97.636558 
L 170.044729 -97.838675 
L 170.386935 -98.040791 
L 170.739299 -98.242907 
L 171.099848 -98.445023 
L 171.466556 -98.647139 
L 171.837373 -98.849255 
L 172.21025 -99.051372 
L 172.583162 -99.253488 
L 172.954143 -99.455604 
L 173.321299 -99.65772 
L 173.68284 -99.859836 
L 174.037099 -100.061953 
L 174.38255 -100.264069 
L 174.717824 -100.466185 
L 175.041723 -100.668301 
L 175.353235 -100.870417 
L 175.651532 -101.072533 
L 175.935985 -101.27465 
L 176.206157 -101.476766 
L 176.461804 -101.678882 
L 176.702869 -101.880998 
L 176.929475 -102.083114 
L 177.141914 -102.285231 
L 177.340631 -102.487347 
L 177.526213 -102.689463 
L 177.69937 -102.891579 
L 177.860916 -103.093695 
L 178.01175 -103.295811 
L 178.152837 -103.497928 
L 178.285187 -103.700044 
L 178.409837 -103.90216 
L 178.527826 -104.104276 
L 178.640186 -104.306392 
L 178.747915 -104.508509 
L 178.851967 -104.710625 
L 178.953236 -104.912741 
L 179.052547 -105.114857 
L 186.09031 -105.114857 
L 186.09031 -105.114857 
L 186.189621 -104.912741 
L 186.290891 -104.710625 
L 186.394943 -104.508509 
L 186.502671 -104.306392 
L 186.615031 -104.104276 
L 186.73302 -103.90216 
L 186.85767 -103.700044 
L 186.99002 -103.497928 
L 187.131107 -103.295811 
L 187.281941 -103.093695 
L 187.443487 -102.891579 
L 187.616644 -102.689463 
L 187.802226 -102.487347 
L 188.000944 -102.285231 
L 188.213382 -102.083114 
L 188.439988 -101.880998 
L 188.681053 -101.678882 
L 188.9367 -101.476766 
L 189.206872 -101.27465 
L 189.491325 -101.072533 
L 189.789622 -100.870417 
L 190.101134 -100.668301 
L 190.425034 -100.466185 
L 190.760307 -100.264069 
L 191.105758 -100.061953 
L 191.460017 -99.859836 
L 191.821559 -99.65772 
L 192.188715 -99.455604 
L 192.559695 -99.253488 
L 192.932608 -99.051372 
L 193.305484 -98.849255 
L 193.676301 -98.647139 
L 194.04301 -98.445023 
L 194.403558 -98.242907 
L 194.755922 -98.040791 
L 195.098128 -97.838675 
L 195.42828 -97.636558 
L 195.744584 -97.434442 
L 196.045368 -97.232326 
L 196.329106 -97.03021 
L 196.594432 -96.828094 
L 196.840157 -96.625977 
L 197.065277 -96.423861 
L 197.268987 -96.221745 
L 197.45068 -96.019629 
L 197.609952 -95.817513 
L 197.746598 -95.615397 
L 197.860605 -95.41328 
L 197.952147 -95.211164 
L 198.02157 -95.009048 
L 198.069378 -94.806932 
L 198.096217 -94.604816 
L 198.102857 -94.402699 
L 198.090171 -94.200583 
L 198.059114 -93.998467 
L 198.010703 -93.796351 
L 197.945995 -93.594235 
L 197.866068 -93.392119 
L 197.771999 -93.190002 
L 197.664848 -92.987886 
L 197.545643 -92.78577 
L 197.415359 -92.583654 
L 197.274917 -92.381538 
L 197.125165 -92.179421 
L 196.966874 -91.977305 
L 196.800739 -91.775189 
L 196.627367 -91.573073 
L 196.447288 -91.370957 
L 196.260949 -91.168841 
L 196.068727 -90.966724 
L 195.870927 -90.764608 
L 195.667797 -90.562492 
L 195.459532 -90.360376 
L 195.246285 -90.15826 
L 195.028179 -89.956143 
L 194.805314 -89.754027 
L 194.577777 -89.551911 
L 194.345653 -89.349795 
L 194.10903 -89.147679 
L 193.86801 -88.945562 
L 193.622715 -88.743446 
L 193.373289 -88.54133 
L 193.119904 -88.339214 
L 192.862765 -88.137098 
L 192.602106 -87.934982 
L 192.338196 -87.732865 
L 192.071336 -87.530749 
L 191.801856 -87.328633 
L 191.530115 -87.126517 
L 191.256499 -86.924401 
L 190.981417 -86.722284 
L 190.705293 -86.520168 
L 190.428571 -86.318052 
L 190.151705 -86.115936 
L 189.875157 -85.91382 
L 189.599393 -85.711704 
L 189.324881 -85.509587 
L 189.052089 -85.307471 
L 188.781478 -85.105355 
z
" style="stroke: #ee82ee; stroke-width: 1.5"/>
    </defs>
    <g clip-path="url(#p08ce2daa42)">
     <use xlink:href="#m34079b6d41" x="0" y="288" style="fill: #ffffff; stroke: #ee82ee; stroke-width: 1.5"/>
    </g>
   </g>
   <g id="PolyCollection_2">
    <defs>
     <path id="m5ed6de28a5" d="M 223.193297 -148.417959 
L 219.606703 -148.417959 
L 219.545597 -148.875077 
L 219.483409 -149.332195 
L 219.419851 -149.789313 
L 219.354604 -150.246431 
L 219.287335 -150.703549 
L 219.217693 -151.160667 
L 219.145321 -151.617785 
L 219.06986 -152.074903 
L 218.990955 -152.532021 
L 218.908262 -152.989139 
L 218.821456 -153.446257 
L 218.730234 -153.903375 
L 218.634322 -154.360493 
L 218.53348 -154.817611 
L 218.427507 -155.274729 
L 218.316245 -155.731847 
L 218.19958 -156.188964 
L 218.077449 -156.646082 
L 217.949839 -157.1032 
L 217.816789 -157.560318 
L 217.678394 -158.017436 
L 217.534802 -158.474554 
L 217.386217 -158.931672 
L 217.232897 -159.38879 
L 217.075158 -159.845908 
L 216.91337 -160.303026 
L 216.747958 -160.760144 
L 216.579402 -161.217262 
L 216.408235 -161.67438 
L 216.235045 -162.131498 
L 216.060471 -162.588616 
L 215.885204 -163.045734 
L 215.709983 -163.502852 
L 215.535595 -163.95997 
L 215.362871 -164.417088 
L 215.192684 -164.874206 
L 215.025939 -165.331324 
L 214.863576 -165.788442 
L 214.706557 -166.24556 
L 214.55586 -166.702678 
L 214.412473 -167.159796 
L 214.277382 -167.616913 
L 214.15156 -168.074031 
L 214.035958 -168.531149 
L 213.931493 -168.988267 
L 213.839032 -169.445385 
L 213.759384 -169.902503 
L 213.693287 -170.359621 
L 213.641391 -170.816739 
L 213.604254 -171.273857 
L 213.582326 -171.730975 
L 213.575941 -172.188093 
L 213.585311 -172.645211 
L 213.610519 -173.102329 
L 213.651512 -173.559447 
L 213.708103 -174.016565 
L 213.77997 -174.473683 
L 213.866656 -174.930801 
L 213.967577 -175.387919 
L 214.082025 -175.845037 
L 214.20918 -176.302155 
L 214.348118 -176.759273 
L 214.497826 -177.216391 
L 214.657211 -177.673509 
L 214.825119 -178.130627 
L 215.000352 -178.587744 
L 215.181676 -179.044862 
L 215.367848 -179.50198 
L 215.557624 -179.959098 
L 215.749778 -180.416216 
L 215.943118 -180.873334 
L 216.136497 -181.330452 
L 216.328832 -181.78757 
L 216.519107 -182.244688 
L 216.706392 -182.701806 
L 216.889846 -183.158924 
L 217.068723 -183.616042 
L 217.242381 -184.07316 
L 217.410282 -184.530278 
L 217.571996 -184.987396 
L 217.727198 -185.444514 
L 217.875664 -185.901632 
L 218.017276 -186.35875 
L 218.152005 -186.815868 
L 218.279915 -187.272986 
L 218.40115 -187.730104 
L 218.515928 -188.187222 
L 218.624529 -188.64434 
L 218.727289 -189.101458 
L 218.82459 -189.558575 
L 218.916844 -190.015693 
L 219.004493 -190.472811 
L 219.087988 -190.929929 
L 219.167788 -191.387047 
L 219.244346 -191.844165 
L 219.318103 -192.301283 
L 219.38948 -192.758401 
L 219.45887 -193.215519 
L 219.526634 -193.672637 
L 223.273366 -193.672637 
L 223.273366 -193.672637 
L 223.34113 -193.215519 
L 223.41052 -192.758401 
L 223.481897 -192.301283 
L 223.555654 -191.844165 
L 223.632212 -191.387047 
L 223.712012 -190.929929 
L 223.795507 -190.472811 
L 223.883156 -190.015693 
L 223.97541 -189.558575 
L 224.072711 -189.101458 
L 224.175471 -188.64434 
L 224.284072 -188.187222 
L 224.39885 -187.730104 
L 224.520085 -187.272986 
L 224.647995 -186.815868 
L 224.782724 -186.35875 
L 224.924336 -185.901632 
L 225.072802 -185.444514 
L 225.228004 -184.987396 
L 225.389718 -184.530278 
L 225.557619 -184.07316 
L 225.731277 -183.616042 
L 225.910154 -183.158924 
L 226.093608 -182.701806 
L 226.280893 -182.244688 
L 226.471168 -181.78757 
L 226.663503 -181.330452 
L 226.856882 -180.873334 
L 227.050222 -180.416216 
L 227.242376 -179.959098 
L 227.432152 -179.50198 
L 227.618324 -179.044862 
L 227.799648 -178.587744 
L 227.974881 -178.130627 
L 228.142789 -177.673509 
L 228.302174 -177.216391 
L 228.451882 -176.759273 
L 228.59082 -176.302155 
L 228.717975 -175.845037 
L 228.832423 -175.387919 
L 228.933344 -174.930801 
L 229.02003 -174.473683 
L 229.091897 -174.016565 
L 229.148488 -173.559447 
L 229.189481 -173.102329 
L 229.214689 -172.645211 
L 229.224059 -172.188093 
L 229.217674 -171.730975 
L 229.195746 -171.273857 
L 229.158609 -170.816739 
L 229.106713 -170.359621 
L 229.040616 -169.902503 
L 228.960968 -169.445385 
L 228.868507 -168.988267 
L 228.764042 -168.531149 
L 228.64844 -168.074031 
L 228.522618 -167.616913 
L 228.387527 -167.159796 
L 228.24414 -166.702678 
L 228.093443 -166.24556 
L 227.936424 -165.788442 
L 227.774061 -165.331324 
L 227.607316 -164.874206 
L 227.437129 -164.417088 
L 227.264405 -163.95997 
L 227.090017 -163.502852 
L 226.914796 -163.045734 
L 226.739529 -162.588616 
L 226.564955 -162.131498 
L 226.391765 -161.67438 
L 226.220598 -161.217262 
L 226.052042 -160.760144 
L 225.88663 -160.303026 
L 225.724842 -159.845908 
L 225.567103 -159.38879 
L 225.413783 -158.931672 
L 225.265198 -158.474554 
L 225.121606 -158.017436 
L 224.983211 -157.560318 
L 224.850161 -157.1032 
L 224.722551 -156.646082 
L 224.60042 -156.188964 
L 224.483755 -155.731847 
L 224.372493 -155.274729 
L 224.26652 -154.817611 
L 224.165678 -154.360493 
L 224.069766 -153.903375 
L 223.978544 -153.446257 
L 223.891738 -152.989139 
L 223.809045 -152.532021 
L 223.73014 -152.074903 
L 223.654679 -151.617785 
L 223.582307 -151.160667 
L 223.512665 -150.703549 
L 223.445396 -150.246431 
L 223.380149 -149.789313 
L 223.316591 -149.332195 
L 223.254403 -148.875077 
L 223.193297 -148.417959 
z
" style="stroke: #0000ff; stroke-width: 1.5"/>
    </defs>
    <g clip-path="url(#p08ce2daa42)">
     <use xlink:href="#m5ed6de28a5" x="0" y="288" style="fill: #ffffff; stroke: #0000ff; stroke-width: 1.5"/>
    </g>
   </g>
   <g id="PolyCollection_3">
    <defs>
     <path id="m5495f47fa0" d="M 262.555719 -197.308872 
L 257.901424 -197.308872 
L 257.81874 -197.663688 
L 257.734073 -198.018503 
L 257.647033 -198.373318 
L 257.557205 -198.728134 
L 257.464154 -199.082949 
L 257.367437 -199.437764 
L 257.266609 -199.79258 
L 257.161235 -200.147395 
L 257.050896 -200.50221 
L 256.935206 -200.857026 
L 256.813812 -201.211841 
L 256.686413 -201.566656 
L 256.552762 -201.921472 
L 256.412678 -202.276287 
L 256.266051 -202.631102 
L 256.112848 -202.985918 
L 255.95312 -203.340733 
L 255.787003 -203.695548 
L 255.614719 -204.050364 
L 255.436581 -204.405179 
L 255.252987 -204.759995 
L 255.064418 -205.11481 
L 254.871438 -205.469625 
L 254.674685 -205.824441 
L 254.474864 -206.179256 
L 254.272741 -206.534071 
L 254.069136 -206.888887 
L 253.864911 -207.243702 
L 253.660959 -207.598517 
L 253.458199 -207.953333 
L 253.257561 -208.308148 
L 253.05998 -208.662963 
L 252.866381 -209.017779 
L 252.677674 -209.372594 
L 252.494744 -209.727409 
L 252.318444 -210.082225 
L 252.149584 -210.43704 
L 251.988931 -210.791855 
L 251.837196 -211.146671 
L 251.69504 -211.501486 
L 251.563062 -211.856302 
L 251.441801 -212.211117 
L 251.331735 -212.565932 
L 251.23328 -212.920748 
L 251.146791 -213.275563 
L 251.072565 -213.630378 
L 251.010837 -213.985194 
L 250.961791 -214.340009 
L 250.925555 -214.694824 
L 250.902204 -215.04964 
L 250.891769 -215.404455 
L 250.894232 -215.75927 
L 250.90953 -216.114086 
L 250.937558 -216.468901 
L 250.978171 -216.823716 
L 251.031179 -217.178532 
L 251.096357 -217.533347 
L 251.173435 -217.888162 
L 251.262104 -218.242978 
L 251.362013 -218.597793 
L 251.472771 -218.952609 
L 251.59394 -219.307424 
L 251.725044 -219.662239 
L 251.865558 -220.017055 
L 252.014919 -220.37187 
L 252.172517 -220.726685 
L 252.337704 -221.081501 
L 252.509793 -221.436316 
L 252.688059 -221.791131 
L 252.87175 -222.145947 
L 253.060085 -222.500762 
L 253.252262 -222.855577 
L 253.447469 -223.210393 
L 253.644885 -223.565208 
L 253.843692 -223.920023 
L 254.043085 -224.274839 
L 254.242276 -224.629654 
L 254.440508 -224.984469 
L 254.63706 -225.339285 
L 254.831258 -225.6941 
L 255.022479 -226.048916 
L 255.210163 -226.403731 
L 255.393814 -226.758546 
L 255.573008 -227.113362 
L 255.747394 -227.468177 
L 255.916698 -227.822992 
L 256.08072 -228.177808 
L 256.239337 -228.532623 
L 256.392497 -228.887438 
L 256.540217 -229.242254 
L 256.682578 -229.597069 
L 256.819717 -229.951884 
L 256.951821 -230.3067 
L 257.079119 -230.661515 
L 257.201873 -231.01633 
L 257.320368 -231.371146 
L 257.434907 -231.725961 
L 257.545799 -232.080776 
L 257.653351 -232.435592 
L 262.803791 -232.435592 
L 262.803791 -232.435592 
L 262.911343 -232.080776 
L 263.022235 -231.725961 
L 263.136775 -231.371146 
L 263.25527 -231.01633 
L 263.378024 -230.661515 
L 263.505322 -230.3067 
L 263.637426 -229.951884 
L 263.774565 -229.597069 
L 263.916926 -229.242254 
L 264.064646 -228.887438 
L 264.217806 -228.532623 
L 264.376423 -228.177808 
L 264.540445 -227.822992 
L 264.709749 -227.468177 
L 264.884135 -227.113362 
L 265.063329 -226.758546 
L 265.24698 -226.403731 
L 265.434664 -226.048916 
L 265.625885 -225.6941 
L 265.820082 -225.339285 
L 266.016635 -224.984469 
L 266.214867 -224.629654 
L 266.414058 -224.274839 
L 266.613451 -223.920023 
L 266.812258 -223.565208 
L 267.009674 -223.210393 
L 267.204881 -222.855577 
L 267.397058 -222.500762 
L 267.585393 -222.145947 
L 267.769084 -221.791131 
L 267.94735 -221.436316 
L 268.119439 -221.081501 
L 268.284626 -220.726685 
L 268.442224 -220.37187 
L 268.591584 -220.017055 
L 268.732099 -219.662239 
L 268.863202 -219.307424 
L 268.984372 -218.952609 
L 269.09513 -218.597793 
L 269.195039 -218.242978 
L 269.283708 -217.888162 
L 269.360786 -217.533347 
L 269.425963 -217.178532 
L 269.478972 -216.823716 
L 269.519585 -216.468901 
L 269.547613 -216.114086 
L 269.562911 -215.75927 
L 269.565373 -215.404455 
L 269.554938 -215.04964 
L 269.531588 -214.694824 
L 269.495352 -214.340009 
L 269.446305 -213.985194 
L 269.384578 -213.630378 
L 269.310352 -213.275563 
L 269.223863 -212.920748 
L 269.125408 -212.565932 
L 269.015342 -212.211117 
L 268.894081 -211.856302 
L 268.762103 -211.501486 
L 268.619946 -211.146671 
L 268.468212 -210.791855 
L 268.307558 -210.43704 
L 268.138699 -210.082225 
L 267.962398 -209.727409 
L 267.779469 -209.372594 
L 267.590762 -209.017779 
L 267.397163 -208.662963 
L 267.199582 -208.308148 
L 266.998944 -207.953333 
L 266.796184 -207.598517 
L 266.592232 -207.243702 
L 266.388006 -206.888887 
L 266.184402 -206.534071 
L 265.982279 -206.179256 
L 265.782458 -205.824441 
L 265.585704 -205.469625 
L 265.392725 -205.11481 
L 265.204156 -204.759995 
L 265.020562 -204.405179 
L 264.842424 -204.050364 
L 264.67014 -203.695548 
L 264.504023 -203.340733 
L 264.344295 -202.985918 
L 264.191092 -202.631102 
L 264.044465 -202.276287 
L 263.904381 -201.921472 
L 263.77073 -201.566656 
L 263.643331 -201.211841 
L 263.521937 -200.857026 
L 263.406246 -200.50221 
L 263.295908 -200.147395 
L 263.190534 -199.79258 
L 263.089706 -199.437764 
L 262.992989 -199.082949 
L 262.899938 -198.728134 
L 262.81011 -198.373318 
L 262.72307 -198.018503 
L 262.638403 -197.663688 
L 262.555719 -197.308872 
z
" style="stroke: #00fa9a; stroke-width: 1.5"/>
    </defs>
    <g clip-path="url(#p08ce2daa42)">
     <use xlink:href="#m5495f47fa0" x="0" y="288" style="fill: #ffffff; stroke: #00fa9a; stroke-width: 1.5"/>
    </g>
   </g>
   <g id="matplotlib.axis_1">
    <g id="xtick_1">
     <g id="text_1">
      <!-- 1 -->
      <g transform="translate(179.390179 266.598437)scale(0.1 -0.1)">
       <defs>
        <path id="DejaVuSans-31" d="M 794 531 
L 1825 531 
L 1825 4091 
L 703 3866 
L 703 4441 
L 1819 4666 
L 2450 4666 
L 2450 531 
L 3481 531 
L 3481 0 
L 794 0 
L 794 531 
z
" transform="scale(0.015625)"/>
       </defs>
       <use xlink:href="#DejaVuSans-31"/>
      </g>
     </g>
    </g>
    <g id="xtick_2">
     <g id="text_2">
      <!-- 2 -->
      <g transform="translate(218.21875 266.598437)scale(0.1 -0.1)">
       <defs>
        <path id="DejaVuSans-32" d="M 1228 531 
L 3431 531 
L 3431 0 
L 469 0 
L 469 531 
Q 828 903 1448 1529 
Q 2069 2156 2228 2338 
Q 2531 2678 2651 2914 
Q 2772 3150 2772 3378 
Q 2772 3750 2511 3984 
Q 2250 4219 1831 4219 
Q 1534 4219 1204 4116 
Q 875 4013 500 3803 
L 500 4441 
Q 881 4594 1212 4672 
Q 1544 4750 1819 4750 
Q 2544 4750 2975 4387 
Q 3406 4025 3406 3419 
Q 3406 3131 3298 2873 
Q 3191 2616 2906 2266 
Q 2828 2175 2409 1742 
Q 1991 1309 1228 531 
z
" transform="scale(0.015625)"/>
       </defs>
       <use xlink:href="#DejaVuSans-32"/>
      </g>
     </g>
    </g>
    <g id="xtick_3">
     <g id="text_3">
      <!-- 3 -->
      <g transform="translate(257.047321 266.598437)scale(0.1 -0.1)">
       <defs>
        <path id="DejaVuSans-33" d="M 2597 2516 
Q 3050 2419 3304 2112 
Q 3559 1806 3559 1356 
Q 3559 666 3084 287 
Q 2609 -91 1734 -91 
Q 1441 -91 1130 -33 
Q 819 25 488 141 
L 488 750 
Q 750 597 1062 519 
Q 1375 441 1716 441 
Q 2309 441 2620 675 
Q 2931 909 2931 1356 
Q 2931 1769 2642 2001 
Q 2353 2234 1838 2234 
L 1294 2234 
L 1294 2753 
L 1863 2753 
Q 2328 2753 2575 2939 
Q 2822 3125 2822 3475 
Q 2822 3834 2567 4026 
Q 2313 4219 1838 4219 
Q 1578 4219 1281 4162 
Q 984 4106 628 3988 
L 628 4550 
Q 988 4650 1302 4700 
Q 1616 4750 1894 4750 
Q 2613 4750 3031 4423 
Q 3450 4097 3450 3541 
Q 3450 3153 3228 2886 
Q 3006 2619 2597 2516 
z
" transform="scale(0.015625)"/>
       </defs>
       <use xlink:href="#DejaVuSans-33"/>
      </g>
     </g>
    </g>
    <g id="text_4">
     <!-- Glomerulus -->
     <g transform="translate(187.0125 281.79625)scale(0.12 -0.12)">
      <defs>
       <path id="DejaVuSans-47" d="M 3809 666 
L 3809 1919 
L 2778 1919 
L 2778 2438 
L 4434 2438 
L 4434 434 
Q 4069 175 3628 42 
Q 3188 -91 2688 -91 
Q 1594 -91 976 548 
Q 359 1188 359 2328 
Q 359 3472 976 4111 
Q 1594 4750 2688 4750 
Q 3144 4750 3555 4637 
Q 3966 4525 4313 4306 
L 4313 3634 
Q 3963 3931 3569 4081 
Q 3175 4231 2741 4231 
Q 1884 4231 1454 3753 
Q 1025 3275 1025 2328 
Q 1025 1384 1454 906 
Q 1884 428 2741 428 
Q 3075 428 3337 486 
Q 3600 544 3809 666 
z
" transform="scale(0.015625)"/>
       <path id="DejaVuSans-6c" d="M 603 4863 
L 1178 4863 
L 1178 0 
L 603 0 
L 603 4863 
z
" transform="scale(0.015625)"/>
       <path id="DejaVuSans-6f" d="M 1959 3097 
Q 1497 3097 1228 2736 
Q 959 2375 959 1747 
Q 959 1119 1226 758 
Q 1494 397 1959 397 
Q 2419 397 2687 759 
Q 2956 1122 2956 1747 
Q 2956 2369 2687 2733 
Q 2419 3097 1959 3097 
z
M 1959 3584 
Q 2709 3584 3137 3096 
Q 3566 2609 3566 1747 
Q 3566 888 3137 398 
Q 2709 -91 1959 -91 
Q 1206 -91 779 398 
Q 353 888 353 1747 
Q 353 2609 779 3096 
Q 1206 3584 1959 3584 
z
" transform="scale(0.015625)"/>
       <path id="DejaVuSans-6d" d="M 3328 2828 
Q 3544 3216 3844 3400 
Q 4144 3584 4550 3584 
Q 5097 3584 5394 3201 
Q 5691 2819 5691 2113 
L 5691 0 
L 5113 0 
L 5113 2094 
Q 5113 2597 4934 2840 
Q 4756 3084 4391 3084 
Q 3944 3084 3684 2787 
Q 3425 2491 3425 1978 
L 3425 0 
L 2847 0 
L 2847 2094 
Q 2847 2600 2669 2842 
Q 2491 3084 2119 3084 
Q 1678 3084 1418 2786 
Q 1159 2488 1159 1978 
L 1159 0 
L 581 0 
L 581 3500 
L 1159 3500 
L 1159 2956 
Q 1356 3278 1631 3431 
Q 1906 3584 2284 3584 
Q 2666 3584 2933 3390 
Q 3200 3197 3328 2828 
z
" transform="scale(0.015625)"/>
       <path id="DejaVuSans-65" d="M 3597 1894 
L 3597 1613 
L 953 1613 
Q 991 1019 1311 708 
Q 1631 397 2203 397 
Q 2534 397 2845 478 
Q 3156 559 3463 722 
L 3463 178 
Q 3153 47 2828 -22 
Q 2503 -91 2169 -91 
Q 1331 -91 842 396 
Q 353 884 353 1716 
Q 353 2575 817 3079 
Q 1281 3584 2069 3584 
Q 2775 3584 3186 3129 
Q 3597 2675 3597 1894 
z
M 3022 2063 
Q 3016 2534 2758 2815 
Q 2500 3097 2075 3097 
Q 1594 3097 1305 2825 
Q 1016 2553 972 2059 
L 3022 2063 
z
" transform="scale(0.015625)"/>
       <path id="DejaVuSans-72" d="M 2631 2963 
Q 2534 3019 2420 3045 
Q 2306 3072 2169 3072 
Q 1681 3072 1420 2755 
Q 1159 2438 1159 1844 
L 1159 0 
L 581 0 
L 581 3500 
L 1159 3500 
L 1159 2956 
Q 1341 3275 1631 3429 
Q 1922 3584 2338 3584 
Q 2397 3584 2469 3576 
Q 2541 3569 2628 3553 
L 2631 2963 
z
" transform="scale(0.015625)"/>
       <path id="DejaVuSans-75" d="M 544 1381 
L 544 3500 
L 1119 3500 
L 1119 1403 
Q 1119 906 1312 657 
Q 1506 409 1894 409 
Q 2359 409 2629 706 
Q 2900 1003 2900 1516 
L 2900 3500 
L 3475 3500 
L 3475 0 
L 2900 0 
L 2900 538 
Q 2691 219 2414 64 
Q 2138 -91 1772 -91 
Q 1169 -91 856 284 
Q 544 659 544 1381 
z
M 1991 3584 
L 1991 3584 
z
" transform="scale(0.015625)"/>
       <path id="DejaVuSans-73" d="M 2834 3397 
L 2834 2853 
Q 2591 2978 2328 3040 
Q 2066 3103 1784 3103 
Q 1356 3103 1142 2972 
Q 928 2841 928 2578 
Q 928 2378 1081 2264 
Q 1234 2150 1697 2047 
L 1894 2003 
Q 2506 1872 2764 1633 
Q 3022 1394 3022 966 
Q 3022 478 2636 193 
Q 2250 -91 1575 -91 
Q 1294 -91 989 -36 
Q 684 19 347 128 
L 347 722 
Q 666 556 975 473 
Q 1284 391 1588 391 
Q 1994 391 2212 530 
Q 2431 669 2431 922 
Q 2431 1156 2273 1281 
Q 2116 1406 1581 1522 
L 1381 1569 
Q 847 1681 609 1914 
Q 372 2147 372 2553 
Q 372 3047 722 3315 
Q 1072 3584 1716 3584 
Q 2034 3584 2315 3537 
Q 2597 3491 2834 3397 
z
" transform="scale(0.015625)"/>
      </defs>
      <use xlink:href="#DejaVuSans-47"/>
      <use xlink:href="#DejaVuSans-6c" x="77.490234"/>
      <use xlink:href="#DejaVuSans-6f" x="105.273438"/>
      <use xlink:href="#DejaVuSans-6d" x="166.455078"/>
      <use xlink:href="#DejaVuSans-65" x="263.867188"/>
      <use xlink:href="#DejaVuSans-72" x="325.390625"/>
      <use xlink:href="#DejaVuSans-75" x="366.503906"/>
      <use xlink:href="#DejaVuSans-6c" x="429.882812"/>
      <use xlink:href="#DejaVuSans-75" x="457.666016"/>
      <use xlink:href="#DejaVuSans-73" x="521.044922"/>
     </g>
    </g>
   </g>
   <g id="matplotlib.axis_2">
    <g id="ytick_1">
     <g id="line2d_1">
      <defs>
       <path id="m784b8d0d20" d="M 0 0 
L -3.5 0 
" style="stroke: #000000; stroke-width: 0.8"/>
      </defs>
      <g>
       <use xlink:href="#m784b8d0d20" x="163.157143" y="252" style="stroke: #000000; stroke-width: 0.8"/>
      </g>
     </g>
     <g id="text_5">
      <!-- 0.00 -->
      <g transform="translate(133.891518 255.799219)scale(0.1 -0.1)">
       <defs>
        <path id="DejaVuSans-30" d="M 2034 4250 
Q 1547 4250 1301 3770 
Q 1056 3291 1056 2328 
Q 1056 1369 1301 889 
Q 1547 409 2034 409 
Q 2525 409 2770 889 
Q 3016 1369 3016 2328 
Q 3016 3291 2770 3770 
Q 2525 4250 2034 4250 
z
M 2034 4750 
Q 2819 4750 3233 4129 
Q 3647 3509 3647 2328 
Q 3647 1150 3233 529 
Q 2819 -91 2034 -91 
Q 1250 -91 836 529 
Q 422 1150 422 2328 
Q 422 3509 836 4129 
Q 1250 4750 2034 4750 
z
" transform="scale(0.015625)"/>
        <path id="DejaVuSans-2e" d="M 684 794 
L 1344 794 
L 1344 0 
L 684 0 
L 684 794 
z
" transform="scale(0.015625)"/>
       </defs>
       <use xlink:href="#DejaVuSans-30"/>
       <use xlink:href="#DejaVuSans-2e" x="63.623047"/>
       <use xlink:href="#DejaVuSans-30" x="95.410156"/>
       <use xlink:href="#DejaVuSans-30" x="159.033203"/>
      </g>
     </g>
    </g>
    <g id="ytick_2">
     <g id="line2d_2">
      <g>
       <use xlink:href="#m784b8d0d20" x="163.157143" y="220.937143" style="stroke: #000000; stroke-width: 0.8"/>
      </g>
     </g>
     <g id="text_6">
      <!-- 0.05 -->
      <g transform="translate(133.891518 224.736362)scale(0.1 -0.1)">
       <defs>
        <path id="DejaVuSans-35" d="M 691 4666 
L 3169 4666 
L 3169 4134 
L 1269 4134 
L 1269 2991 
Q 1406 3038 1543 3061 
Q 1681 3084 1819 3084 
Q 2600 3084 3056 2656 
Q 3513 2228 3513 1497 
Q 3513 744 3044 326 
Q 2575 -91 1722 -91 
Q 1428 -91 1123 -41 
Q 819 9 494 109 
L 494 744 
Q 775 591 1075 516 
Q 1375 441 1709 441 
Q 2250 441 2565 725 
Q 2881 1009 2881 1497 
Q 2881 1984 2565 2268 
Q 2250 2553 1709 2553 
Q 1456 2553 1204 2497 
Q 953 2441 691 2322 
L 691 4666 
z
" transform="scale(0.015625)"/>
       </defs>
       <use xlink:href="#DejaVuSans-30"/>
       <use xlink:href="#DejaVuSans-2e" x="63.623047"/>
       <use xlink:href="#DejaVuSans-30" x="95.410156"/>
       <use xlink:href="#DejaVuSans-35" x="159.033203"/>
      </g>
     </g>
    </g>
    <g id="ytick_3">
     <g id="line2d_3">
      <g>
       <use xlink:href="#m784b8d0d20" x="163.157143" y="189.874286" style="stroke: #000000; stroke-width: 0.8"/>
      </g>
     </g>
     <g id="text_7">
      <!-- 0.10 -->
      <g transform="translate(133.891518 193.673504)scale(0.1 -0.1)">
       <use xlink:href="#DejaVuSans-30"/>
       <use xlink:href="#DejaVuSans-2e" x="63.623047"/>
       <use xlink:href="#DejaVuSans-31" x="95.410156"/>
       <use xlink:href="#DejaVuSans-30" x="159.033203"/>
      </g>
     </g>
    </g>
    <g id="ytick_4">
     <g id="line2d_4">
      <g>
       <use xlink:href="#m784b8d0d20" x="163.157143" y="158.811429" style="stroke: #000000; stroke-width: 0.8"/>
      </g>
     </g>
     <g id="text_8">
      <!-- 0.15 -->
      <g transform="translate(133.891518 162.610647)scale(0.1 -0.1)">
       <use xlink:href="#DejaVuSans-30"/>
       <use xlink:href="#DejaVuSans-2e" x="63.623047"/>
       <use xlink:href="#DejaVuSans-31" x="95.410156"/>
       <use xlink:href="#DejaVuSans-35" x="159.033203"/>
      </g>
     </g>
    </g>
    <g id="ytick_5">
     <g id="line2d_5">
      <g>
       <use xlink:href="#m784b8d0d20" x="163.157143" y="127.748571" style="stroke: #000000; stroke-width: 0.8"/>
      </g>
     </g>
     <g id="text_9">
      <!-- 0.20 -->
      <g transform="translate(133.891518 131.54779)scale(0.1 -0.1)">
       <use xlink:href="#DejaVuSans-30"/>
       <use xlink:href="#DejaVuSans-2e" x="63.623047"/>
       <use xlink:href="#DejaVuSans-32" x="95.410156"/>
       <use xlink:href="#DejaVuSans-30" x="159.033203"/>
      </g>
     </g>
    </g>
    <g id="ytick_6">
     <g id="line2d_6">
      <g>
       <use xlink:href="#m784b8d0d20" x="163.157143" y="96.685714" style="stroke: #000000; stroke-width: 0.8"/>
      </g>
     </g>
     <g id="text_10">
      <!-- 0.25 -->
      <g transform="translate(133.891518 100.484933)scale(0.1 -0.1)">
       <use xlink:href="#DejaVuSans-30"/>
       <use xlink:href="#DejaVuSans-2e" x="63.623047"/>
       <use xlink:href="#DejaVuSans-32" x="95.410156"/>
       <use xlink:href="#DejaVuSans-35" x="159.033203"/>
      </g>
     </g>
    </g>
    <g id="ytick_7">
     <g id="line2d_7">
      <g>
       <use xlink:href="#m784b8d0d20" x="163.157143" y="65.622857" style="stroke: #000000; stroke-width: 0.8"/>
      </g>
     </g>
     <g id="text_11">
      <!-- 0.30 -->
      <g transform="translate(133.891518 69.422076)scale(0.1 -0.1)">
       <use xlink:href="#DejaVuSans-30"/>
       <use xlink:href="#DejaVuSans-2e" x="63.623047"/>
       <use xlink:href="#DejaVuSans-33" x="95.410156"/>
       <use xlink:href="#DejaVuSans-30" x="159.033203"/>
      </g>
     </g>
    </g>
    <g id="ytick_8">
     <g id="line2d_8">
      <g>
       <use xlink:href="#m784b8d0d20" x="163.157143" y="34.56" style="stroke: #000000; stroke-width: 0.8"/>
      </g>
     </g>
     <g id="text_12">
      <!-- 0.35 -->
      <g transform="translate(133.891518 38.359219)scale(0.1 -0.1)">
       <use xlink:href="#DejaVuSans-30"/>
       <use xlink:href="#DejaVuSans-2e" x="63.623047"/>
       <use xlink:href="#DejaVuSans-33" x="95.410156"/>
       <use xlink:href="#DejaVuSans-35" x="159.033203"/>
      </g>
     </g>
    </g>
    <g id="text_13">
     <!-- Fraction of total synapses -->
     <g transform="translate(127.395893 220.363125)rotate(-90)scale(0.12 -0.12)">
      <defs>
       <path id="DejaVuSans-46" d="M 628 4666 
L 3309 4666 
L 3309 4134 
L 1259 4134 
L 1259 2759 
L 3109 2759 
L 3109 2228 
L 1259 2228 
L 1259 0 
L 628 0 
L 628 4666 
z
" transform="scale(0.015625)"/>
       <path id="DejaVuSans-61" d="M 2194 1759 
Q 1497 1759 1228 1600 
Q 959 1441 959 1056 
Q 959 750 1161 570 
Q 1363 391 1709 391 
Q 2188 391 2477 730 
Q 2766 1069 2766 1631 
L 2766 1759 
L 2194 1759 
z
M 3341 1997 
L 3341 0 
L 2766 0 
L 2766 531 
Q 2569 213 2275 61 
Q 1981 -91 1556 -91 
Q 1019 -91 701 211 
Q 384 513 384 1019 
Q 384 1609 779 1909 
Q 1175 2209 1959 2209 
L 2766 2209 
L 2766 2266 
Q 2766 2663 2505 2880 
Q 2244 3097 1772 3097 
Q 1472 3097 1187 3025 
Q 903 2953 641 2809 
L 641 3341 
Q 956 3463 1253 3523 
Q 1550 3584 1831 3584 
Q 2591 3584 2966 3190 
Q 3341 2797 3341 1997 
z
" transform="scale(0.015625)"/>
       <path id="DejaVuSans-63" d="M 3122 3366 
L 3122 2828 
Q 2878 2963 2633 3030 
Q 2388 3097 2138 3097 
Q 1578 3097 1268 2742 
Q 959 2388 959 1747 
Q 959 1106 1268 751 
Q 1578 397 2138 397 
Q 2388 397 2633 464 
Q 2878 531 3122 666 
L 3122 134 
Q 2881 22 2623 -34 
Q 2366 -91 2075 -91 
Q 1284 -91 818 406 
Q 353 903 353 1747 
Q 353 2603 823 3093 
Q 1294 3584 2113 3584 
Q 2378 3584 2631 3529 
Q 2884 3475 3122 3366 
z
" transform="scale(0.015625)"/>
       <path id="DejaVuSans-74" d="M 1172 4494 
L 1172 3500 
L 2356 3500 
L 2356 3053 
L 1172 3053 
L 1172 1153 
Q 1172 725 1289 603 
Q 1406 481 1766 481 
L 2356 481 
L 2356 0 
L 1766 0 
Q 1100 0 847 248 
Q 594 497 594 1153 
L 594 3053 
L 172 3053 
L 172 3500 
L 594 3500 
L 594 4494 
L 1172 4494 
z
" transform="scale(0.015625)"/>
       <path id="DejaVuSans-69" d="M 603 3500 
L 1178 3500 
L 1178 0 
L 603 0 
L 603 3500 
z
M 603 4863 
L 1178 4863 
L 1178 4134 
L 603 4134 
L 603 4863 
z
" transform="scale(0.015625)"/>
       <path id="DejaVuSans-6e" d="M 3513 2113 
L 3513 0 
L 2938 0 
L 2938 2094 
Q 2938 2591 2744 2837 
Q 2550 3084 2163 3084 
Q 1697 3084 1428 2787 
Q 1159 2491 1159 1978 
L 1159 0 
L 581 0 
L 581 3500 
L 1159 3500 
L 1159 2956 
Q 1366 3272 1645 3428 
Q 1925 3584 2291 3584 
Q 2894 3584 3203 3211 
Q 3513 2838 3513 2113 
z
" transform="scale(0.015625)"/>
       <path id="DejaVuSans-20" transform="scale(0.015625)"/>
       <path id="DejaVuSans-66" d="M 2375 4863 
L 2375 4384 
L 1825 4384 
Q 1516 4384 1395 4259 
Q 1275 4134 1275 3809 
L 1275 3500 
L 2222 3500 
L 2222 3053 
L 1275 3053 
L 1275 0 
L 697 0 
L 697 3053 
L 147 3053 
L 147 3500 
L 697 3500 
L 697 3744 
Q 697 4328 969 4595 
Q 1241 4863 1831 4863 
L 2375 4863 
z
" transform="scale(0.015625)"/>
       <path id="DejaVuSans-79" d="M 2059 -325 
Q 1816 -950 1584 -1140 
Q 1353 -1331 966 -1331 
L 506 -1331 
L 506 -850 
L 844 -850 
Q 1081 -850 1212 -737 
Q 1344 -625 1503 -206 
L 1606 56 
L 191 3500 
L 800 3500 
L 1894 763 
L 2988 3500 
L 3597 3500 
L 2059 -325 
z
" transform="scale(0.015625)"/>
       <path id="DejaVuSans-70" d="M 1159 525 
L 1159 -1331 
L 581 -1331 
L 581 3500 
L 1159 3500 
L 1159 2969 
Q 1341 3281 1617 3432 
Q 1894 3584 2278 3584 
Q 2916 3584 3314 3078 
Q 3713 2572 3713 1747 
Q 3713 922 3314 415 
Q 2916 -91 2278 -91 
Q 1894 -91 1617 61 
Q 1341 213 1159 525 
z
M 3116 1747 
Q 3116 2381 2855 2742 
Q 2594 3103 2138 3103 
Q 1681 3103 1420 2742 
Q 1159 2381 1159 1747 
Q 1159 1113 1420 752 
Q 1681 391 2138 391 
Q 2594 391 2855 752 
Q 3116 1113 3116 1747 
z
" transform="scale(0.015625)"/>
      </defs>
      <use xlink:href="#DejaVuSans-46"/>
      <use xlink:href="#DejaVuSans-72" x="50.269531"/>
      <use xlink:href="#DejaVuSans-61" x="91.382812"/>
      <use xlink:href="#DejaVuSans-63" x="152.662109"/>
      <use xlink:href="#DejaVuSans-74" x="207.642578"/>
      <use xlink:href="#DejaVuSans-69" x="246.851562"/>
      <use xlink:href="#DejaVuSans-6f" x="274.634766"/>
      <use xlink:href="#DejaVuSans-6e" x="335.816406"/>
      <use xlink:href="#DejaVuSans-20" x="399.195312"/>
      <use xlink:href="#DejaVuSans-6f" x="430.982422"/>
      <use xlink:href="#DejaVuSans-66" x="492.164062"/>
      <use xlink:href="#DejaVuSans-20" x="527.369141"/>
      <use xlink:href="#DejaVuSans-74" x="559.15625"/>
      <use xlink:href="#DejaVuSans-6f" x="598.365234"/>
      <use xlink:href="#DejaVuSans-74" x="659.546875"/>
      <use xlink:href="#DejaVuSans-61" x="698.755859"/>
      <use xlink:href="#DejaVuSans-6c" x="760.035156"/>
      <use xlink:href="#DejaVuSans-20" x="787.818359"/>
      <use xlink:href="#DejaVuSans-73" x="819.605469"/>
      <use xlink:href="#DejaVuSans-79" x="871.705078"/>
      <use xlink:href="#DejaVuSans-6e" x="930.884766"/>
      <use xlink:href="#DejaVuSans-61" x="994.263672"/>
      <use xlink:href="#DejaVuSans-70" x="1055.542969"/>
      <use xlink:href="#DejaVuSans-73" x="1119.019531"/>
      <use xlink:href="#DejaVuSans-65" x="1171.119141"/>
      <use xlink:href="#DejaVuSans-73" x="1232.642578"/>
     </g>
    </g>
   </g>
   <g id="line2d_9">
    <path d="M 167.23862 193.936079 
L 197.904237 193.936079 
" clip-path="url(#p08ce2daa42)" style="fill: none; stroke: #000000; stroke-width: 1.5; stroke-linecap: square"/>
   </g>
   <g id="line2d_10">
    <path d="M 213.682211 116.569366 
L 229.117789 116.569366 
" clip-path="url(#p08ce2daa42)" style="fill: none; stroke: #000000; stroke-width: 1.5; stroke-linecap: square"/>
   </g>
   <g id="line2d_11">
    <path d="M 250.985137 72.70066 
L 269.472005 72.70066 
" clip-path="url(#p08ce2daa42)" style="fill: none; stroke: #000000; stroke-width: 1.5; stroke-linecap: square"/>
   </g>
   <g id="patch_3">
    <path d="M 163.157143 252 
L 163.157143 34.56 
" style="fill: none; stroke: #000000; stroke-width: 0.8; stroke-linejoin: miter; stroke-linecap: square"/>
   </g>
   <g id="PathCollection_1">
    <defs>
     <path id="C0_0_ca91f805f4" d="M 0 2.5 
C 0.663008 2.5 1.29895 2.236584 1.767767 1.767767 
C 2.236584 1.29895 2.5 0.663008 2.5 -0 
C 2.5 -0.663008 2.236584 -1.29895 1.767767 -1.767767 
C 1.29895 -2.236584 0.663008 -2.5 0 -2.5 
C -0.663008 -2.5 -1.29895 -2.236584 -1.767767 -1.767767 
C -2.236584 -1.29895 -2.5 -0.663008 -2.5 0 
C -2.5 0.663008 -2.236584 1.29895 -1.767767 1.767767 
C -1.29895 2.236584 -0.663008 2.5 0 2.5 
z
"/>
    </defs>
    <g clip-path="url(#p08ce2daa42)">
     <use xlink:href="#C0_0_ca91f805f4" x="179.104966" y="198.385576" style="fill: #ee82ee"/>
    </g>
    <g clip-path="url(#p08ce2daa42)">
     <use xlink:href="#C0_0_ca91f805f4" x="179.552298" y="193.292686" style="fill: #ee82ee"/>
    </g>
    <g clip-path="url(#p08ce2daa42)">
     <use xlink:href="#C0_0_ca91f805f4" x="183.787787" y="198.977298" style="fill: #ee82ee"/>
    </g>
    <g clip-path="url(#p08ce2daa42)">
     <use xlink:href="#C0_0_ca91f805f4" x="185.531459" y="196.702344" style="fill: #ee82ee"/>
    </g>
    <g clip-path="url(#p08ce2daa42)">
     <use xlink:href="#C0_0_ca91f805f4" x="180.704489" y="190.821565" style="fill: #ee82ee"/>
    </g>
    <g clip-path="url(#p08ce2daa42)">
     <use xlink:href="#C0_0_ca91f805f4" x="182.383394" y="192.852078" style="fill: #ee82ee"/>
    </g>
    <g clip-path="url(#p08ce2daa42)">
     <use xlink:href="#C0_0_ca91f805f4" x="180.53581" y="189.772828" style="fill: #ee82ee"/>
    </g>
    <g clip-path="url(#p08ce2daa42)">
     <use xlink:href="#C0_0_ca91f805f4" x="179.402796" y="192.776623" style="fill: #ee82ee"/>
    </g>
    <g clip-path="url(#p08ce2daa42)">
     <use xlink:href="#C0_0_ca91f805f4" x="186.054422" y="182.885143" style="fill: #ee82ee"/>
    </g>
    <g clip-path="url(#p08ce2daa42)">
     <use xlink:href="#C0_0_ca91f805f4" x="182.03249" y="202.894645" style="fill: #ee82ee"/>
    </g>
   </g>
   <g id="PathCollection_2">
    <defs>
     <path id="C1_0_086f625baa" d="M 0 2.5 
C 0.663008 2.5 1.29895 2.236584 1.767767 1.767767 
C 2.236584 1.29895 2.5 0.663008 2.5 -0 
C 2.5 -0.663008 2.236584 -1.29895 1.767767 -1.767767 
C 1.29895 -2.236584 0.663008 -2.5 0 -2.5 
C -0.663008 -2.5 -1.29895 -2.236584 -1.767767 -1.767767 
C -2.236584 -1.29895 -2.5 -0.663008 -2.5 0 
C -2.5 0.663008 -2.236584 1.29895 -1.767767 1.767767 
C -1.29895 2.236584 -0.663008 2.5 0 2.5 
z
"/>
    </defs>
    <g clip-path="url(#p08ce2daa42)">
     <use xlink:href="#C1_0_086f625baa" x="223.935821" y="125.538566" style="fill: #0000ff"/>
    </g>
    <g clip-path="url(#p08ce2daa42)">
     <use xlink:href="#C1_0_086f625baa" x="219.563912" y="116.628794" style="fill: #0000ff"/>
    </g>
    <g clip-path="url(#p08ce2daa42)">
     <use xlink:href="#C1_0_086f625baa" x="219.423798" y="105.821849" style="fill: #0000ff"/>
    </g>
    <g clip-path="url(#p08ce2daa42)">
     <use xlink:href="#C1_0_086f625baa" x="222.882473" y="113.804523" style="fill: #0000ff"/>
    </g>
    <g clip-path="url(#p08ce2daa42)">
     <use xlink:href="#C1_0_086f625baa" x="220.861082" y="139.582041" style="fill: #0000ff"/>
    </g>
    <g clip-path="url(#p08ce2daa42)">
     <use xlink:href="#C1_0_086f625baa" x="220.505393" y="112.279518" style="fill: #0000ff"/>
    </g>
    <g clip-path="url(#p08ce2daa42)">
     <use xlink:href="#C1_0_086f625baa" x="221.849331" y="94.327363" style="fill: #0000ff"/>
    </g>
    <g clip-path="url(#p08ce2daa42)">
     <use xlink:href="#C1_0_086f625baa" x="217.917626" y="116.141219" style="fill: #0000ff"/>
    </g>
    <g clip-path="url(#p08ce2daa42)">
     <use xlink:href="#C1_0_086f625baa" x="218.723517" y="115.801319" style="fill: #0000ff"/>
    </g>
    <g clip-path="url(#p08ce2daa42)">
     <use xlink:href="#C1_0_086f625baa" x="221.731895" y="125.768469" style="fill: #0000ff"/>
    </g>
   </g>
   <g id="PathCollection_3">
    <defs>
     <path id="C2_0_38cc8f964e" d="M 0 2.5 
C 0.663008 2.5 1.29895 2.236584 1.767767 1.767767 
C 2.236584 1.29895 2.5 0.663008 2.5 -0 
C 2.5 -0.663008 2.236584 -1.29895 1.767767 -1.767767 
C 1.29895 -2.236584 0.663008 -2.5 0 -2.5 
C -0.663008 -2.5 -1.29895 -2.236584 -1.767767 -1.767767 
C -2.236584 -1.29895 -2.5 -0.663008 -2.5 0 
C -2.5 0.663008 -2.236584 1.29895 -1.767767 1.767767 
C -1.29895 2.236584 -0.663008 2.5 0 2.5 
z
"/>
    </defs>
    <g clip-path="url(#p08ce2daa42)">
     <use xlink:href="#C2_0_38cc8f964e" x="260.433635" y="72.813879" style="fill: #00fa9a"/>
    </g>
    <g clip-path="url(#p08ce2daa42)">
     <use xlink:href="#C2_0_38cc8f964e" x="263.356453" y="55.564408" style="fill: #00fa9a"/>
    </g>
    <g clip-path="url(#p08ce2daa42)">
     <use xlink:href="#C2_0_38cc8f964e" x="262.17988" y="65.356223" style="fill: #00fa9a"/>
    </g>
    <g clip-path="url(#p08ce2daa42)">
     <use xlink:href="#C2_0_38cc8f964e" x="263.634602" y="78.086647" style="fill: #00fa9a"/>
    </g>
    <g clip-path="url(#p08ce2daa42)">
     <use xlink:href="#C2_0_38cc8f964e" x="260.775604" y="75.533963" style="fill: #00fa9a"/>
    </g>
    <g clip-path="url(#p08ce2daa42)">
     <use xlink:href="#C2_0_38cc8f964e" x="261.081555" y="90.691128" style="fill: #00fa9a"/>
    </g>
    <g clip-path="url(#p08ce2daa42)">
     <use xlink:href="#C2_0_38cc8f964e" x="263.153602" y="67.782647" style="fill: #00fa9a"/>
    </g>
    <g clip-path="url(#p08ce2daa42)">
     <use xlink:href="#C2_0_38cc8f964e" x="263.023954" y="80.804358" style="fill: #00fa9a"/>
    </g>
    <g clip-path="url(#p08ce2daa42)">
     <use xlink:href="#C2_0_38cc8f964e" x="260.574292" y="73.42867" style="fill: #00fa9a"/>
    </g>
    <g clip-path="url(#p08ce2daa42)">
     <use xlink:href="#C2_0_38cc8f964e" x="261.119391" y="66.944681" style="fill: #00fa9a"/>
    </g>
   </g>
  </g>
 </g>
 <defs>
  <clipPath id="p08ce2daa42">
   <rect x="163.157143" y="34.56" width="116.485714" height="217.44"/>
  </clipPath>
 </defs>
</svg>
