<?xml version="1.0" encoding="utf-8" standalone="no"?>
<!DOCTYPE svg PUBLIC "-//W3C//DTD SVG 1.1//EN"
  "http://www.w3.org/Graphics/SVG/1.1/DTD/svg11.dtd">
<svg xmlns:xlink="http://www.w3.org/1999/xlink" width="432pt" height="288pt" viewBox="0 0 432 288" xmlns="http://www.w3.org/2000/svg" version="1.1">
 <metadata>
  <rdf:RDF xmlns:dc="http://purl.org/dc/elements/1.1/" xmlns:cc="http://creativecommons.org/ns#" xmlns:rdf="http://www.w3.org/1999/02/22-rdf-syntax-ns#">
   <cc:Work>
    <dc:type rdf:resource="http://purl.org/dc/dcmitype/StillImage"/>
    <dc:date>2024-01-28T09:33:58.644580</dc:date>
    <dc:format>image/svg+xml</dc:format>
    <dc:creator>
     <cc:Agent>
      <dc:title>Matplotlib v3.5.1, https://matplotlib.org/</dc:title>
     </cc:Agent>
    </dc:creator>
   </cc:Work>
  </rdf:RDF>
 </metadata>
 <defs>
  <style type="text/css">*{stroke-linejoin: round; stroke-linecap: butt}</style>
 </defs>
 <g id="figure_1">
  <g id="patch_1">
   <path d="M 0 288 
L 432 288 
L 432 0 
L 0 0 
L 0 288 
z
" style="fill: none"/>
  </g>
  <g id="axes_1">
   <g id="patch_2">
    <path d="M 167.04 252 
L 275.76 252 
L 275.76 34.56 
L 167.04 34.56 
z
" style="fill: #ffffff"/>
   </g>
   <g id="PolyCollection_1">
    <defs>
     <path id="ma1fec98767" d="M 195.509218 -80.777692 
L 174.810782 -80.777692 
L 174.515889 -81.167644 
L 174.228524 -81.557597 
L 173.949465 -81.947549 
L 173.679445 -82.337502 
L 173.41914 -82.727454 
L 173.169171 -83.117407 
L 172.930095 -83.507359 
L 172.702404 -83.897312 
L 172.48652 -84.287264 
L 172.282792 -84.677217 
L 172.091495 -85.067169 
L 171.912831 -85.457122 
L 171.746925 -85.847074 
L 171.593826 -86.237027 
L 171.45351 -86.62698 
L 171.32588 -87.016932 
L 171.210768 -87.406885 
L 171.10794 -87.796837 
L 171.017097 -88.18679 
L 170.937881 -88.576742 
L 170.869878 -88.966695 
L 170.812625 -89.356647 
L 170.765614 -89.7466 
L 170.728297 -90.136552 
L 170.700094 -90.526505 
L 170.680398 -90.916457 
L 170.66858 -91.30641 
L 170.664 -91.696362 
L 170.666006 -92.086315 
L 170.673947 -92.476267 
L 170.687175 -92.86622 
L 170.705053 -93.256172 
L 170.72696 -93.646125 
L 170.752296 -94.036078 
L 170.780487 -94.42603 
L 170.810991 -94.815983 
L 170.843301 -95.205935 
L 170.876948 -95.595888 
L 170.911507 -95.98584 
L 170.946598 -96.375793 
L 170.981886 -96.765745 
L 171.017088 -97.155698 
L 171.05197 -97.54565 
L 171.086349 -97.935603 
L 171.120093 -98.325555 
L 171.15312 -98.715508 
L 171.185399 -99.10546 
L 171.216946 -99.495413 
L 171.247826 -99.885365 
L 171.278144 -100.275318 
L 171.308051 -100.66527 
L 171.337733 -101.055223 
L 171.367414 -101.445176 
L 171.397349 -101.835128 
L 171.42782 -102.225081 
L 171.459136 -102.615033 
L 171.491623 -103.004986 
L 171.525626 -103.394938 
L 171.561502 -103.784891 
L 171.599614 -104.174843 
L 171.640332 -104.564796 
L 171.684027 -104.954748 
L 171.731066 -105.344701 
L 171.781811 -105.734653 
L 171.836613 -106.124606 
L 171.895812 -106.514558 
L 171.959734 -106.904511 
L 172.028687 -107.294463 
L 172.10296 -107.684416 
L 172.18282 -108.074368 
L 172.268513 -108.464321 
L 172.360261 -108.854274 
L 172.45826 -109.244226 
L 172.562681 -109.634179 
L 172.673669 -110.024131 
L 172.791342 -110.414084 
L 172.915792 -110.804036 
L 173.047082 -111.193989 
L 173.18525 -111.583941 
L 173.330305 -111.973894 
L 173.482231 -112.363846 
L 173.640985 -112.753799 
L 173.806497 -113.143751 
L 173.978671 -113.533704 
L 174.157386 -113.923656 
L 174.342496 -114.313609 
L 174.533829 -114.703561 
L 174.731188 -115.093514 
L 174.934353 -115.483466 
L 175.14308 -115.873419 
L 175.3571 -116.263372 
L 175.576124 -116.653324 
L 175.799839 -117.043277 
L 176.02791 -117.433229 
L 176.259986 -117.823182 
L 176.49569 -118.213134 
L 176.734632 -118.603087 
L 176.976402 -118.993039 
L 177.220577 -119.382992 
L 193.099423 -119.382992 
L 193.099423 -119.382992 
L 193.343598 -118.993039 
L 193.585368 -118.603087 
L 193.82431 -118.213134 
L 194.060014 -117.823182 
L 194.29209 -117.433229 
L 194.520161 -117.043277 
L 194.743876 -116.653324 
L 194.9629 -116.263372 
L 195.17692 -115.873419 
L 195.385647 -115.483466 
L 195.588812 -115.093514 
L 195.786171 -114.703561 
L 195.977504 -114.313609 
L 196.162614 -113.923656 
L 196.341329 -113.533704 
L 196.513503 -113.143751 
L 196.679015 -112.753799 
L 196.837769 -112.363846 
L 196.989695 -111.973894 
L 197.13475 -111.583941 
L 197.272918 -111.193989 
L 197.404208 -110.804036 
L 197.528658 -110.414084 
L 197.646331 -110.024131 
L 197.757319 -109.634179 
L 197.86174 -109.244226 
L 197.959739 -108.854274 
L 198.051487 -108.464321 
L 198.13718 -108.074368 
L 198.21704 -107.684416 
L 198.291313 -107.294463 
L 198.360266 -106.904511 
L 198.424188 -106.514558 
L 198.483387 -106.124606 
L 198.538189 -105.734653 
L 198.588934 -105.344701 
L 198.635973 -104.954748 
L 198.679668 -104.564796 
L 198.720386 -104.174843 
L 198.758498 -103.784891 
L 198.794374 -103.394938 
L 198.828377 -103.004986 
L 198.860864 -102.615033 
L 198.89218 -102.225081 
L 198.922651 -101.835128 
L 198.952586 -101.445176 
L 198.982267 -101.055223 
L 199.011949 -100.66527 
L 199.041856 -100.275318 
L 199.072174 -99.885365 
L 199.103054 -99.495413 
L 199.134601 -99.10546 
L 199.16688 -98.715508 
L 199.199907 -98.325555 
L 199.233651 -97.935603 
L 199.26803 -97.54565 
L 199.302912 -97.155698 
L 199.338114 -96.765745 
L 199.373402 -96.375793 
L 199.408493 -95.98584 
L 199.443052 -95.595888 
L 199.476699 -95.205935 
L 199.509009 -94.815983 
L 199.539513 -94.42603 
L 199.567704 -94.036078 
L 199.59304 -93.646125 
L 199.614947 -93.256172 
L 199.632825 -92.86622 
L 199.646053 -92.476267 
L 199.653994 -92.086315 
L 199.656 -91.696362 
L 199.65142 -91.30641 
L 199.639602 -90.916457 
L 199.619906 -90.526505 
L 199.591703 -90.136552 
L 199.554386 -89.7466 
L 199.507375 -89.356647 
L 199.450122 -88.966695 
L 199.382119 -88.576742 
L 199.302903 -88.18679 
L 199.21206 -87.796837 
L 199.109232 -87.406885 
L 198.99412 -87.016932 
L 198.86649 -86.62698 
L 198.726174 -86.237027 
L 198.573075 -85.847074 
L 198.407169 -85.457122 
L 198.228505 -85.067169 
L 198.037208 -84.677217 
L 197.83348 -84.287264 
L 197.617596 -83.897312 
L 197.389905 -83.507359 
L 197.150829 -83.117407 
L 196.90086 -82.727454 
L 196.640555 -82.337502 
L 196.370535 -81.947549 
L 196.091476 -81.557597 
L 195.804111 -81.167644 
L 195.509218 -80.777692 
z
" style="stroke: #ee82ee; stroke-width: 1.5"/>
    </defs>
    <g clip-path="url(#pd1685f4428)">
     <use xlink:href="#ma1fec98767" x="0" y="288" style="fill: #ffffff; stroke: #ee82ee; stroke-width: 1.5"/>
    </g>
   </g>
   <g id="PolyCollection_2">
    <defs>
     <path id="me99f375012" d="M 224.458954 -114.395348 
L 218.341046 -114.395348 
L 218.268455 -115.489336 
L 218.198143 -116.583323 
L 218.130101 -117.677311 
L 218.064285 -118.771298 
L 218.000627 -119.865286 
L 217.939025 -120.959274 
L 217.879355 -122.053261 
L 217.821466 -123.147249 
L 217.765183 -124.241236 
L 217.710313 -125.335224 
L 217.656646 -126.429211 
L 217.603954 -127.523199 
L 217.552001 -128.617187 
L 217.500541 -129.711174 
L 217.449323 -130.805162 
L 217.398094 -131.899149 
L 217.346602 -132.993137 
L 217.2946 -134.087124 
L 217.241848 -135.181112 
L 217.188117 -136.275099 
L 217.133193 -137.369087 
L 217.076877 -138.463075 
L 217.018991 -139.557062 
L 216.959378 -140.65105 
L 216.897906 -141.745037 
L 216.834471 -142.839025 
L 216.768997 -143.933012 
L 216.701439 -145.027 
L 216.631789 -146.120988 
L 216.560068 -147.214975 
L 216.486339 -148.308963 
L 216.410698 -149.40295 
L 216.333282 -150.496938 
L 216.254265 -151.590925 
L 216.173861 -152.684913 
L 216.092323 -153.778901 
L 216.009942 -154.872888 
L 215.927046 -155.966876 
L 215.843998 -157.060863 
L 215.761196 -158.154851 
L 215.679068 -159.248838 
L 215.598072 -160.342826 
L 215.518687 -161.436814 
L 215.441418 -162.530801 
L 215.366782 -163.624789 
L 215.295309 -164.718776 
L 215.227535 -165.812764 
L 215.163996 -166.906751 
L 215.105225 -168.000739 
L 215.051741 -169.094727 
L 215.004046 -170.188714 
L 214.96262 -171.282702 
L 214.927913 -172.376689 
L 214.900338 -173.470677 
L 214.880269 -174.564664 
L 214.868033 -175.658652 
L 214.863909 -176.75264 
L 214.868118 -177.846627 
L 214.880825 -178.940615 
L 214.902135 -180.034602 
L 214.932091 -181.12859 
L 214.970672 -182.222577 
L 215.017795 -183.316565 
L 215.073314 -184.410553 
L 215.137024 -185.50454 
L 215.208659 -186.598528 
L 215.287901 -187.692515 
L 215.374381 -188.786503 
L 215.467684 -189.88049 
L 215.567352 -190.974478 
L 215.672897 -192.068465 
L 215.783797 -193.162453 
L 215.899513 -194.256441 
L 216.019485 -195.350428 
L 216.14315 -196.444416 
L 216.269937 -197.538403 
L 216.399282 -198.632391 
L 216.53063 -199.726378 
L 216.663441 -200.820366 
L 216.797198 -201.914354 
L 216.931407 -203.008341 
L 217.065605 -204.102329 
L 217.199359 -205.196316 
L 217.332276 -206.290304 
L 217.463997 -207.384291 
L 217.594203 -208.478279 
L 217.722614 -209.572267 
L 217.84899 -210.666254 
L 217.973129 -211.760242 
L 218.094866 -212.854229 
L 218.214072 -213.948217 
L 218.330652 -215.042204 
L 218.444541 -216.136192 
L 218.555702 -217.23018 
L 218.664122 -218.324167 
L 218.769811 -219.418155 
L 218.872795 -220.512142 
L 218.973117 -221.60613 
L 219.070829 -222.700117 
L 223.729171 -222.700117 
L 223.729171 -222.700117 
L 223.826883 -221.60613 
L 223.927205 -220.512142 
L 224.030189 -219.418155 
L 224.135878 -218.324167 
L 224.244298 -217.23018 
L 224.355459 -216.136192 
L 224.469348 -215.042204 
L 224.585928 -213.948217 
L 224.705134 -212.854229 
L 224.826871 -211.760242 
L 224.95101 -210.666254 
L 225.077386 -209.572267 
L 225.205797 -208.478279 
L 225.336003 -207.384291 
L 225.467724 -206.290304 
L 225.600641 -205.196316 
L 225.734395 -204.102329 
L 225.868593 -203.008341 
L 226.002802 -201.914354 
L 226.136559 -200.820366 
L 226.26937 -199.726378 
L 226.400718 -198.632391 
L 226.530063 -197.538403 
L 226.65685 -196.444416 
L 226.780515 -195.350428 
L 226.900487 -194.256441 
L 227.016203 -193.162453 
L 227.127103 -192.068465 
L 227.232648 -190.974478 
L 227.332316 -189.88049 
L 227.425619 -188.786503 
L 227.512099 -187.692515 
L 227.591341 -186.598528 
L 227.662976 -185.50454 
L 227.726686 -184.410553 
L 227.782205 -183.316565 
L 227.829328 -182.222577 
L 227.867909 -181.12859 
L 227.897865 -180.034602 
L 227.919175 -178.940615 
L 227.931882 -177.846627 
L 227.936091 -176.75264 
L 227.931967 -175.658652 
L 227.919731 -174.564664 
L 227.899662 -173.470677 
L 227.872087 -172.376689 
L 227.83738 -171.282702 
L 227.795954 -170.188714 
L 227.748259 -169.094727 
L 227.694775 -168.000739 
L 227.636004 -166.906751 
L 227.572465 -165.812764 
L 227.504691 -164.718776 
L 227.433218 -163.624789 
L 227.358582 -162.530801 
L 227.281313 -161.436814 
L 227.201928 -160.342826 
L 227.120932 -159.248838 
L 227.038804 -158.154851 
L 226.956002 -157.060863 
L 226.872954 -155.966876 
L 226.790058 -154.872888 
L 226.707677 -153.778901 
L 226.626139 -152.684913 
L 226.545735 -151.590925 
L 226.466718 -150.496938 
L 226.389302 -149.40295 
L 226.313661 -148.308963 
L 226.239932 -147.214975 
L 226.168211 -146.120988 
L 226.098561 -145.027 
L 226.031003 -143.933012 
L 225.965529 -142.839025 
L 225.902094 -141.745037 
L 225.840622 -140.65105 
L 225.781009 -139.557062 
L 225.723123 -138.463075 
L 225.666807 -137.369087 
L 225.611883 -136.275099 
L 225.558152 -135.181112 
L 225.5054 -134.087124 
L 225.453398 -132.993137 
L 225.401906 -131.899149 
L 225.350677 -130.805162 
L 225.299459 -129.711174 
L 225.247999 -128.617187 
L 225.196046 -127.523199 
L 225.143354 -126.429211 
L 225.089687 -125.335224 
L 225.034817 -124.241236 
L 224.978534 -123.147249 
L 224.920645 -122.053261 
L 224.860975 -120.959274 
L 224.799373 -119.865286 
L 224.735715 -118.771298 
L 224.669899 -117.677311 
L 224.601857 -116.583323 
L 224.531545 -115.489336 
L 224.458954 -114.395348 
z
" style="stroke: #0000ff; stroke-width: 1.5"/>
    </defs>
    <g clip-path="url(#pd1685f4428)">
     <use xlink:href="#me99f375012" x="0" y="288" style="fill: #ffffff; stroke: #0000ff; stroke-width: 1.5"/>
    </g>
   </g>
   <g id="PolyCollection_3">
    <defs>
     <path id="m478844f67b" d="M 262.273451 -157.634962 
L 253.006549 -157.634962 
L 252.817956 -158.464043 
L 252.629247 -159.293125 
L 252.440899 -160.122206 
L 252.253397 -160.951288 
L 252.067233 -161.78037 
L 251.882902 -162.609451 
L 251.700898 -163.438533 
L 251.521714 -164.267614 
L 251.345839 -165.096696 
L 251.173753 -165.925777 
L 251.005926 -166.754859 
L 250.842814 -167.58394 
L 250.68486 -168.413022 
L 250.532483 -169.242103 
L 250.386086 -170.071185 
L 250.246042 -170.900266 
L 250.112702 -171.729348 
L 249.986385 -172.558429 
L 249.867379 -173.387511 
L 249.755941 -174.216592 
L 249.65229 -175.045674 
L 249.556612 -175.874756 
L 249.469052 -176.703837 
L 249.38972 -177.532919 
L 249.318687 -178.362 
L 249.255986 -179.191082 
L 249.201611 -180.020163 
L 249.155521 -180.849245 
L 249.117638 -181.678326 
L 249.087851 -182.507408 
L 249.066016 -183.336489 
L 249.051961 -184.165571 
L 249.045486 -184.994652 
L 249.046366 -185.823734 
L 249.054356 -186.652815 
L 249.069195 -187.481897 
L 249.090606 -188.310978 
L 249.1183 -189.14006 
L 249.151984 -189.969142 
L 249.191358 -190.798223 
L 249.236123 -191.627305 
L 249.285982 -192.456386 
L 249.340643 -193.285468 
L 249.399823 -194.114549 
L 249.463247 -194.943631 
L 249.530654 -195.772712 
L 249.601793 -196.601794 
L 249.676431 -197.430875 
L 249.754347 -198.259957 
L 249.835337 -199.089038 
L 249.919211 -199.91812 
L 250.005794 -200.747201 
L 250.094923 -201.576283 
L 250.18645 -202.405364 
L 250.280234 -203.234446 
L 250.376147 -204.063528 
L 250.474066 -204.892609 
L 250.573874 -205.721691 
L 250.67546 -206.550772 
L 250.778711 -207.379854 
L 250.883518 -208.208935 
L 250.989769 -209.038017 
L 251.097349 -209.867098 
L 251.20614 -210.69618 
L 251.316021 -211.525261 
L 251.426864 -212.354343 
L 251.538536 -213.183424 
L 251.650902 -214.012506 
L 251.763821 -214.841587 
L 251.877148 -215.670669 
L 251.990736 -216.49975 
L 252.104438 -217.328832 
L 252.218109 -218.157914 
L 252.331602 -218.986995 
L 252.444778 -219.816077 
L 252.557504 -220.645158 
L 252.669652 -221.47424 
L 252.781105 -222.303321 
L 252.89176 -223.132403 
L 253.001521 -223.961484 
L 253.110311 -224.790566 
L 253.218064 -225.619647 
L 253.324732 -226.448729 
L 253.430281 -227.27781 
L 253.534693 -228.106892 
L 253.637965 -228.935973 
L 253.740107 -229.765055 
L 253.841145 -230.594136 
L 253.941114 -231.423218 
L 254.04006 -232.252299 
L 254.138038 -233.081381 
L 254.235106 -233.910463 
L 254.331329 -234.739544 
L 254.426772 -235.568626 
L 254.521499 -236.397707 
L 254.61557 -237.226789 
L 254.709039 -238.05587 
L 254.801954 -238.884952 
L 254.894352 -239.714033 
L 260.385648 -239.714033 
L 260.385648 -239.714033 
L 260.478046 -238.884952 
L 260.570961 -238.05587 
L 260.66443 -237.226789 
L 260.758501 -236.397707 
L 260.853228 -235.568626 
L 260.948671 -234.739544 
L 261.044894 -233.910463 
L 261.141962 -233.081381 
L 261.23994 -232.252299 
L 261.338886 -231.423218 
L 261.438855 -230.594136 
L 261.539893 -229.765055 
L 261.642035 -228.935973 
L 261.745307 -228.106892 
L 261.849719 -227.27781 
L 261.955268 -226.448729 
L 262.061936 -225.619647 
L 262.169689 -224.790566 
L 262.278479 -223.961484 
L 262.38824 -223.132403 
L 262.498895 -222.303321 
L 262.610348 -221.47424 
L 262.722496 -220.645158 
L 262.835222 -219.816077 
L 262.948398 -218.986995 
L 263.061891 -218.157914 
L 263.175562 -217.328832 
L 263.289264 -216.49975 
L 263.402852 -215.670669 
L 263.516179 -214.841587 
L 263.629098 -214.012506 
L 263.741464 -213.183424 
L 263.853136 -212.354343 
L 263.963979 -211.525261 
L 264.07386 -210.69618 
L 264.182651 -209.867098 
L 264.290231 -209.038017 
L 264.396482 -208.208935 
L 264.501289 -207.379854 
L 264.60454 -206.550772 
L 264.706126 -205.721691 
L 264.805934 -204.892609 
L 264.903853 -204.063528 
L 264.999766 -203.234446 
L 265.09355 -202.405364 
L 265.185077 -201.576283 
L 265.274206 -200.747201 
L 265.360789 -199.91812 
L 265.444663 -199.089038 
L 265.525653 -198.259957 
L 265.603569 -197.430875 
L 265.678207 -196.601794 
L 265.749346 -195.772712 
L 265.816753 -194.943631 
L 265.880177 -194.114549 
L 265.939357 -193.285468 
L 265.994018 -192.456386 
L 266.043877 -191.627305 
L 266.088642 -190.798223 
L 266.128016 -189.969142 
L 266.1617 -189.14006 
L 266.189394 -188.310978 
L 266.210805 -187.481897 
L 266.225644 -186.652815 
L 266.233634 -185.823734 
L 266.234514 -184.994652 
L 266.228039 -184.165571 
L 266.213984 -183.336489 
L 266.192149 -182.507408 
L 266.162362 -181.678326 
L 266.124479 -180.849245 
L 266.078389 -180.020163 
L 266.024014 -179.191082 
L 265.961313 -178.362 
L 265.89028 -177.532919 
L 265.810948 -176.703837 
L 265.723388 -175.874756 
L 265.62771 -175.045674 
L 265.524059 -174.216592 
L 265.412621 -173.387511 
L 265.293615 -172.558429 
L 265.167298 -171.729348 
L 265.033958 -170.900266 
L 264.893914 -170.071185 
L 264.747517 -169.242103 
L 264.59514 -168.413022 
L 264.437186 -167.58394 
L 264.274074 -166.754859 
L 264.106247 -165.925777 
L 263.934161 -165.096696 
L 263.758286 -164.267614 
L 263.579102 -163.438533 
L 263.397098 -162.609451 
L 263.212767 -161.78037 
L 263.026603 -160.951288 
L 262.839101 -160.122206 
L 262.650753 -159.293125 
L 262.462044 -158.464043 
L 262.273451 -157.634962 
z
" style="stroke: #00fa9a; stroke-width: 1.5"/>
    </defs>
    <g clip-path="url(#pd1685f4428)">
     <use xlink:href="#m478844f67b" x="0" y="288" style="fill: #ffffff; stroke: #00fa9a; stroke-width: 1.5"/>
    </g>
   </g>
   <g id="matplotlib.axis_1">
    <g id="xtick_1">
     <g id="text_1">
      <!-- 1 -->
      <g transform="translate(181.97875 266.598437)scale(0.1 -0.1)">
       <defs>
        <path id="DejaVuSans-31" d="M 794 531 
L 1825 531 
L 1825 4091 
L 703 3866 
L 703 4441 
L 1819 4666 
L 2450 4666 
L 2450 531 
L 3481 531 
L 3481 0 
L 794 0 
L 794 531 
z
" transform="scale(0.015625)"/>
       </defs>
       <use xlink:href="#DejaVuSans-31"/>
      </g>
     </g>
    </g>
    <g id="xtick_2">
     <g id="text_2">
      <!-- 2 -->
      <g transform="translate(218.21875 266.598437)scale(0.1 -0.1)">
       <defs>
        <path id="DejaVuSans-32" d="M 1228 531 
L 3431 531 
L 3431 0 
L 469 0 
L 469 531 
Q 828 903 1448 1529 
Q 2069 2156 2228 2338 
Q 2531 2678 2651 2914 
Q 2772 3150 2772 3378 
Q 2772 3750 2511 3984 
Q 2250 4219 1831 4219 
Q 1534 4219 1204 4116 
Q 875 4013 500 3803 
L 500 4441 
Q 881 4594 1212 4672 
Q 1544 4750 1819 4750 
Q 2544 4750 2975 4387 
Q 3406 4025 3406 3419 
Q 3406 3131 3298 2873 
Q 3191 2616 2906 2266 
Q 2828 2175 2409 1742 
Q 1991 1309 1228 531 
z
" transform="scale(0.015625)"/>
       </defs>
       <use xlink:href="#DejaVuSans-32"/>
      </g>
     </g>
    </g>
    <g id="xtick_3">
     <g id="text_3">
      <!-- 3 -->
      <g transform="translate(254.45875 266.598437)scale(0.1 -0.1)">
       <defs>
        <path id="DejaVuSans-33" d="M 2597 2516 
Q 3050 2419 3304 2112 
Q 3559 1806 3559 1356 
Q 3559 666 3084 287 
Q 2609 -91 1734 -91 
Q 1441 -91 1130 -33 
Q 819 25 488 141 
L 488 750 
Q 750 597 1062 519 
Q 1375 441 1716 441 
Q 2309 441 2620 675 
Q 2931 909 2931 1356 
Q 2931 1769 2642 2001 
Q 2353 2234 1838 2234 
L 1294 2234 
L 1294 2753 
L 1863 2753 
Q 2328 2753 2575 2939 
Q 2822 3125 2822 3475 
Q 2822 3834 2567 4026 
Q 2313 4219 1838 4219 
Q 1578 4219 1281 4162 
Q 984 4106 628 3988 
L 628 4550 
Q 988 4650 1302 4700 
Q 1616 4750 1894 4750 
Q 2613 4750 3031 4423 
Q 3450 4097 3450 3541 
Q 3450 3153 3228 2886 
Q 3006 2619 2597 2516 
z
" transform="scale(0.015625)"/>
       </defs>
       <use xlink:href="#DejaVuSans-33"/>
      </g>
     </g>
    </g>
    <g id="text_4">
     <!-- Glomerulus -->
     <g transform="translate(187.0125 281.79625)scale(0.12 -0.12)">
      <defs>
       <path id="DejaVuSans-47" d="M 3809 666 
L 3809 1919 
L 2778 1919 
L 2778 2438 
L 4434 2438 
L 4434 434 
Q 4069 175 3628 42 
Q 3188 -91 2688 -91 
Q 1594 -91 976 548 
Q 359 1188 359 2328 
Q 359 3472 976 4111 
Q 1594 4750 2688 4750 
Q 3144 4750 3555 4637 
Q 3966 4525 4313 4306 
L 4313 3634 
Q 3963 3931 3569 4081 
Q 3175 4231 2741 4231 
Q 1884 4231 1454 3753 
Q 1025 3275 1025 2328 
Q 1025 1384 1454 906 
Q 1884 428 2741 428 
Q 3075 428 3337 486 
Q 3600 544 3809 666 
z
" transform="scale(0.015625)"/>
       <path id="DejaVuSans-6c" d="M 603 4863 
L 1178 4863 
L 1178 0 
L 603 0 
L 603 4863 
z
" transform="scale(0.015625)"/>
       <path id="DejaVuSans-6f" d="M 1959 3097 
Q 1497 3097 1228 2736 
Q 959 2375 959 1747 
Q 959 1119 1226 758 
Q 1494 397 1959 397 
Q 2419 397 2687 759 
Q 2956 1122 2956 1747 
Q 2956 2369 2687 2733 
Q 2419 3097 1959 3097 
z
M 1959 3584 
Q 2709 3584 3137 3096 
Q 3566 2609 3566 1747 
Q 3566 888 3137 398 
Q 2709 -91 1959 -91 
Q 1206 -91 779 398 
Q 353 888 353 1747 
Q 353 2609 779 3096 
Q 1206 3584 1959 3584 
z
" transform="scale(0.015625)"/>
       <path id="DejaVuSans-6d" d="M 3328 2828 
Q 3544 3216 3844 3400 
Q 4144 3584 4550 3584 
Q 5097 3584 5394 3201 
Q 5691 2819 5691 2113 
L 5691 0 
L 5113 0 
L 5113 2094 
Q 5113 2597 4934 2840 
Q 4756 3084 4391 3084 
Q 3944 3084 3684 2787 
Q 3425 2491 3425 1978 
L 3425 0 
L 2847 0 
L 2847 2094 
Q 2847 2600 2669 2842 
Q 2491 3084 2119 3084 
Q 1678 3084 1418 2786 
Q 1159 2488 1159 1978 
L 1159 0 
L 581 0 
L 581 3500 
L 1159 3500 
L 1159 2956 
Q 1356 3278 1631 3431 
Q 1906 3584 2284 3584 
Q 2666 3584 2933 3390 
Q 3200 3197 3328 2828 
z
" transform="scale(0.015625)"/>
       <path id="DejaVuSans-65" d="M 3597 1894 
L 3597 1613 
L 953 1613 
Q 991 1019 1311 708 
Q 1631 397 2203 397 
Q 2534 397 2845 478 
Q 3156 559 3463 722 
L 3463 178 
Q 3153 47 2828 -22 
Q 2503 -91 2169 -91 
Q 1331 -91 842 396 
Q 353 884 353 1716 
Q 353 2575 817 3079 
Q 1281 3584 2069 3584 
Q 2775 3584 3186 3129 
Q 3597 2675 3597 1894 
z
M 3022 2063 
Q 3016 2534 2758 2815 
Q 2500 3097 2075 3097 
Q 1594 3097 1305 2825 
Q 1016 2553 972 2059 
L 3022 2063 
z
" transform="scale(0.015625)"/>
       <path id="DejaVuSans-72" d="M 2631 2963 
Q 2534 3019 2420 3045 
Q 2306 3072 2169 3072 
Q 1681 3072 1420 2755 
Q 1159 2438 1159 1844 
L 1159 0 
L 581 0 
L 581 3500 
L 1159 3500 
L 1159 2956 
Q 1341 3275 1631 3429 
Q 1922 3584 2338 3584 
Q 2397 3584 2469 3576 
Q 2541 3569 2628 3553 
L 2631 2963 
z
" transform="scale(0.015625)"/>
       <path id="DejaVuSans-75" d="M 544 1381 
L 544 3500 
L 1119 3500 
L 1119 1403 
Q 1119 906 1312 657 
Q 1506 409 1894 409 
Q 2359 409 2629 706 
Q 2900 1003 2900 1516 
L 2900 3500 
L 3475 3500 
L 3475 0 
L 2900 0 
L 2900 538 
Q 2691 219 2414 64 
Q 2138 -91 1772 -91 
Q 1169 -91 856 284 
Q 544 659 544 1381 
z
M 1991 3584 
L 1991 3584 
z
" transform="scale(0.015625)"/>
       <path id="DejaVuSans-73" d="M 2834 3397 
L 2834 2853 
Q 2591 2978 2328 3040 
Q 2066 3103 1784 3103 
Q 1356 3103 1142 2972 
Q 928 2841 928 2578 
Q 928 2378 1081 2264 
Q 1234 2150 1697 2047 
L 1894 2003 
Q 2506 1872 2764 1633 
Q 3022 1394 3022 966 
Q 3022 478 2636 193 
Q 2250 -91 1575 -91 
Q 1294 -91 989 -36 
Q 684 19 347 128 
L 347 722 
Q 666 556 975 473 
Q 1284 391 1588 391 
Q 1994 391 2212 530 
Q 2431 669 2431 922 
Q 2431 1156 2273 1281 
Q 2116 1406 1581 1522 
L 1381 1569 
Q 847 1681 609 1914 
Q 372 2147 372 2553 
Q 372 3047 722 3315 
Q 1072 3584 1716 3584 
Q 2034 3584 2315 3537 
Q 2597 3491 2834 3397 
z
" transform="scale(0.015625)"/>
      </defs>
      <use xlink:href="#DejaVuSans-47"/>
      <use xlink:href="#DejaVuSans-6c" x="77.490234"/>
      <use xlink:href="#DejaVuSans-6f" x="105.273438"/>
      <use xlink:href="#DejaVuSans-6d" x="166.455078"/>
      <use xlink:href="#DejaVuSans-65" x="263.867188"/>
      <use xlink:href="#DejaVuSans-72" x="325.390625"/>
      <use xlink:href="#DejaVuSans-75" x="366.503906"/>
      <use xlink:href="#DejaVuSans-6c" x="429.882812"/>
      <use xlink:href="#DejaVuSans-75" x="457.666016"/>
      <use xlink:href="#DejaVuSans-73" x="521.044922"/>
     </g>
    </g>
   </g>
   <g id="matplotlib.axis_2">
    <g id="ytick_1">
     <g id="line2d_1">
      <defs>
       <path id="m2b6dd23569" d="M 0 0 
L -3.5 0 
" style="stroke: #000000; stroke-width: 0.8"/>
      </defs>
      <g>
       <use xlink:href="#m2b6dd23569" x="167.04" y="252" style="stroke: #000000; stroke-width: 0.8"/>
      </g>
     </g>
     <g id="text_5">
      <!-- 0.0 -->
      <g transform="translate(144.136875 255.799219)scale(0.1 -0.1)">
       <defs>
        <path id="DejaVuSans-30" d="M 2034 4250 
Q 1547 4250 1301 3770 
Q 1056 3291 1056 2328 
Q 1056 1369 1301 889 
Q 1547 409 2034 409 
Q 2525 409 2770 889 
Q 3016 1369 3016 2328 
Q 3016 3291 2770 3770 
Q 2525 4250 2034 4250 
z
M 2034 4750 
Q 2819 4750 3233 4129 
Q 3647 3509 3647 2328 
Q 3647 1150 3233 529 
Q 2819 -91 2034 -91 
Q 1250 -91 836 529 
Q 422 1150 422 2328 
Q 422 3509 836 4129 
Q 1250 4750 2034 4750 
z
" transform="scale(0.015625)"/>
        <path id="DejaVuSans-2e" d="M 684 794 
L 1344 794 
L 1344 0 
L 684 0 
L 684 794 
z
" transform="scale(0.015625)"/>
       </defs>
       <use xlink:href="#DejaVuSans-30"/>
       <use xlink:href="#DejaVuSans-2e" x="63.623047"/>
       <use xlink:href="#DejaVuSans-30" x="95.410156"/>
      </g>
     </g>
    </g>
    <g id="ytick_2">
     <g id="line2d_2">
      <g>
       <use xlink:href="#m2b6dd23569" x="167.04" y="223.008" style="stroke: #000000; stroke-width: 0.8"/>
      </g>
     </g>
     <g id="text_6">
      <!-- 0.2 -->
      <g transform="translate(144.136875 226.807219)scale(0.1 -0.1)">
       <use xlink:href="#DejaVuSans-30"/>
       <use xlink:href="#DejaVuSans-2e" x="63.623047"/>
       <use xlink:href="#DejaVuSans-32" x="95.410156"/>
      </g>
     </g>
    </g>
    <g id="ytick_3">
     <g id="line2d_3">
      <g>
       <use xlink:href="#m2b6dd23569" x="167.04" y="194.016" style="stroke: #000000; stroke-width: 0.8"/>
      </g>
     </g>
     <g id="text_7">
      <!-- 0.4 -->
      <g transform="translate(144.136875 197.815219)scale(0.1 -0.1)">
       <defs>
        <path id="DejaVuSans-34" d="M 2419 4116 
L 825 1625 
L 2419 1625 
L 2419 4116 
z
M 2253 4666 
L 3047 4666 
L 3047 1625 
L 3713 1625 
L 3713 1100 
L 3047 1100 
L 3047 0 
L 2419 0 
L 2419 1100 
L 313 1100 
L 313 1709 
L 2253 4666 
z
" transform="scale(0.015625)"/>
       </defs>
       <use xlink:href="#DejaVuSans-30"/>
       <use xlink:href="#DejaVuSans-2e" x="63.623047"/>
       <use xlink:href="#DejaVuSans-34" x="95.410156"/>
      </g>
     </g>
    </g>
    <g id="ytick_4">
     <g id="line2d_4">
      <g>
       <use xlink:href="#m2b6dd23569" x="167.04" y="165.024" style="stroke: #000000; stroke-width: 0.8"/>
      </g>
     </g>
     <g id="text_8">
      <!-- 0.6 -->
      <g transform="translate(144.136875 168.823219)scale(0.1 -0.1)">
       <defs>
        <path id="DejaVuSans-36" d="M 2113 2584 
Q 1688 2584 1439 2293 
Q 1191 2003 1191 1497 
Q 1191 994 1439 701 
Q 1688 409 2113 409 
Q 2538 409 2786 701 
Q 3034 994 3034 1497 
Q 3034 2003 2786 2293 
Q 2538 2584 2113 2584 
z
M 3366 4563 
L 3366 3988 
Q 3128 4100 2886 4159 
Q 2644 4219 2406 4219 
Q 1781 4219 1451 3797 
Q 1122 3375 1075 2522 
Q 1259 2794 1537 2939 
Q 1816 3084 2150 3084 
Q 2853 3084 3261 2657 
Q 3669 2231 3669 1497 
Q 3669 778 3244 343 
Q 2819 -91 2113 -91 
Q 1303 -91 875 529 
Q 447 1150 447 2328 
Q 447 3434 972 4092 
Q 1497 4750 2381 4750 
Q 2619 4750 2861 4703 
Q 3103 4656 3366 4563 
z
" transform="scale(0.015625)"/>
       </defs>
       <use xlink:href="#DejaVuSans-30"/>
       <use xlink:href="#DejaVuSans-2e" x="63.623047"/>
       <use xlink:href="#DejaVuSans-36" x="95.410156"/>
      </g>
     </g>
    </g>
    <g id="ytick_5">
     <g id="line2d_5">
      <g>
       <use xlink:href="#m2b6dd23569" x="167.04" y="136.032" style="stroke: #000000; stroke-width: 0.8"/>
      </g>
     </g>
     <g id="text_9">
      <!-- 0.8 -->
      <g transform="translate(144.136875 139.831219)scale(0.1 -0.1)">
       <defs>
        <path id="DejaVuSans-38" d="M 2034 2216 
Q 1584 2216 1326 1975 
Q 1069 1734 1069 1313 
Q 1069 891 1326 650 
Q 1584 409 2034 409 
Q 2484 409 2743 651 
Q 3003 894 3003 1313 
Q 3003 1734 2745 1975 
Q 2488 2216 2034 2216 
z
M 1403 2484 
Q 997 2584 770 2862 
Q 544 3141 544 3541 
Q 544 4100 942 4425 
Q 1341 4750 2034 4750 
Q 2731 4750 3128 4425 
Q 3525 4100 3525 3541 
Q 3525 3141 3298 2862 
Q 3072 2584 2669 2484 
Q 3125 2378 3379 2068 
Q 3634 1759 3634 1313 
Q 3634 634 3220 271 
Q 2806 -91 2034 -91 
Q 1263 -91 848 271 
Q 434 634 434 1313 
Q 434 1759 690 2068 
Q 947 2378 1403 2484 
z
M 1172 3481 
Q 1172 3119 1398 2916 
Q 1625 2713 2034 2713 
Q 2441 2713 2670 2916 
Q 2900 3119 2900 3481 
Q 2900 3844 2670 4047 
Q 2441 4250 2034 4250 
Q 1625 4250 1398 4047 
Q 1172 3844 1172 3481 
z
" transform="scale(0.015625)"/>
       </defs>
       <use xlink:href="#DejaVuSans-30"/>
       <use xlink:href="#DejaVuSans-2e" x="63.623047"/>
       <use xlink:href="#DejaVuSans-38" x="95.410156"/>
      </g>
     </g>
    </g>
    <g id="ytick_6">
     <g id="line2d_6">
      <g>
       <use xlink:href="#m2b6dd23569" x="167.04" y="107.04" style="stroke: #000000; stroke-width: 0.8"/>
      </g>
     </g>
     <g id="text_10">
      <!-- 1.0 -->
      <g transform="translate(144.136875 110.839219)scale(0.1 -0.1)">
       <use xlink:href="#DejaVuSans-31"/>
       <use xlink:href="#DejaVuSans-2e" x="63.623047"/>
       <use xlink:href="#DejaVuSans-30" x="95.410156"/>
      </g>
     </g>
    </g>
    <g id="ytick_7">
     <g id="line2d_7">
      <g>
       <use xlink:href="#m2b6dd23569" x="167.04" y="78.048" style="stroke: #000000; stroke-width: 0.8"/>
      </g>
     </g>
     <g id="text_11">
      <!-- 1.2 -->
      <g transform="translate(144.136875 81.847219)scale(0.1 -0.1)">
       <use xlink:href="#DejaVuSans-31"/>
       <use xlink:href="#DejaVuSans-2e" x="63.623047"/>
       <use xlink:href="#DejaVuSans-32" x="95.410156"/>
      </g>
     </g>
    </g>
    <g id="ytick_8">
     <g id="line2d_8">
      <g>
       <use xlink:href="#m2b6dd23569" x="167.04" y="49.056" style="stroke: #000000; stroke-width: 0.8"/>
      </g>
     </g>
     <g id="text_12">
      <!-- 1.4 -->
      <g transform="translate(144.136875 52.855219)scale(0.1 -0.1)">
       <use xlink:href="#DejaVuSans-31"/>
       <use xlink:href="#DejaVuSans-2e" x="63.623047"/>
       <use xlink:href="#DejaVuSans-34" x="95.410156"/>
      </g>
     </g>
    </g>
    <g id="text_13">
     <!-- Synapse density (per µm of cable overlap) -->
     <g transform="translate(137.64125 270.959063)rotate(-90)scale(0.12 -0.12)">
      <defs>
       <path id="DejaVuSans-53" d="M 3425 4513 
L 3425 3897 
Q 3066 4069 2747 4153 
Q 2428 4238 2131 4238 
Q 1616 4238 1336 4038 
Q 1056 3838 1056 3469 
Q 1056 3159 1242 3001 
Q 1428 2844 1947 2747 
L 2328 2669 
Q 3034 2534 3370 2195 
Q 3706 1856 3706 1288 
Q 3706 609 3251 259 
Q 2797 -91 1919 -91 
Q 1588 -91 1214 -16 
Q 841 59 441 206 
L 441 856 
Q 825 641 1194 531 
Q 1563 422 1919 422 
Q 2459 422 2753 634 
Q 3047 847 3047 1241 
Q 3047 1584 2836 1778 
Q 2625 1972 2144 2069 
L 1759 2144 
Q 1053 2284 737 2584 
Q 422 2884 422 3419 
Q 422 4038 858 4394 
Q 1294 4750 2059 4750 
Q 2388 4750 2728 4690 
Q 3069 4631 3425 4513 
z
" transform="scale(0.015625)"/>
       <path id="DejaVuSans-79" d="M 2059 -325 
Q 1816 -950 1584 -1140 
Q 1353 -1331 966 -1331 
L 506 -1331 
L 506 -850 
L 844 -850 
Q 1081 -850 1212 -737 
Q 1344 -625 1503 -206 
L 1606 56 
L 191 3500 
L 800 3500 
L 1894 763 
L 2988 3500 
L 3597 3500 
L 2059 -325 
z
" transform="scale(0.015625)"/>
       <path id="DejaVuSans-6e" d="M 3513 2113 
L 3513 0 
L 2938 0 
L 2938 2094 
Q 2938 2591 2744 2837 
Q 2550 3084 2163 3084 
Q 1697 3084 1428 2787 
Q 1159 2491 1159 1978 
L 1159 0 
L 581 0 
L 581 3500 
L 1159 3500 
L 1159 2956 
Q 1366 3272 1645 3428 
Q 1925 3584 2291 3584 
Q 2894 3584 3203 3211 
Q 3513 2838 3513 2113 
z
" transform="scale(0.015625)"/>
       <path id="DejaVuSans-61" d="M 2194 1759 
Q 1497 1759 1228 1600 
Q 959 1441 959 1056 
Q 959 750 1161 570 
Q 1363 391 1709 391 
Q 2188 391 2477 730 
Q 2766 1069 2766 1631 
L 2766 1759 
L 2194 1759 
z
M 3341 1997 
L 3341 0 
L 2766 0 
L 2766 531 
Q 2569 213 2275 61 
Q 1981 -91 1556 -91 
Q 1019 -91 701 211 
Q 384 513 384 1019 
Q 384 1609 779 1909 
Q 1175 2209 1959 2209 
L 2766 2209 
L 2766 2266 
Q 2766 2663 2505 2880 
Q 2244 3097 1772 3097 
Q 1472 3097 1187 3025 
Q 903 2953 641 2809 
L 641 3341 
Q 956 3463 1253 3523 
Q 1550 3584 1831 3584 
Q 2591 3584 2966 3190 
Q 3341 2797 3341 1997 
z
" transform="scale(0.015625)"/>
       <path id="DejaVuSans-70" d="M 1159 525 
L 1159 -1331 
L 581 -1331 
L 581 3500 
L 1159 3500 
L 1159 2969 
Q 1341 3281 1617 3432 
Q 1894 3584 2278 3584 
Q 2916 3584 3314 3078 
Q 3713 2572 3713 1747 
Q 3713 922 3314 415 
Q 2916 -91 2278 -91 
Q 1894 -91 1617 61 
Q 1341 213 1159 525 
z
M 3116 1747 
Q 3116 2381 2855 2742 
Q 2594 3103 2138 3103 
Q 1681 3103 1420 2742 
Q 1159 2381 1159 1747 
Q 1159 1113 1420 752 
Q 1681 391 2138 391 
Q 2594 391 2855 752 
Q 3116 1113 3116 1747 
z
" transform="scale(0.015625)"/>
       <path id="DejaVuSans-20" transform="scale(0.015625)"/>
       <path id="DejaVuSans-64" d="M 2906 2969 
L 2906 4863 
L 3481 4863 
L 3481 0 
L 2906 0 
L 2906 525 
Q 2725 213 2448 61 
Q 2172 -91 1784 -91 
Q 1150 -91 751 415 
Q 353 922 353 1747 
Q 353 2572 751 3078 
Q 1150 3584 1784 3584 
Q 2172 3584 2448 3432 
Q 2725 3281 2906 2969 
z
M 947 1747 
Q 947 1113 1208 752 
Q 1469 391 1925 391 
Q 2381 391 2643 752 
Q 2906 1113 2906 1747 
Q 2906 2381 2643 2742 
Q 2381 3103 1925 3103 
Q 1469 3103 1208 2742 
Q 947 2381 947 1747 
z
" transform="scale(0.015625)"/>
       <path id="DejaVuSans-69" d="M 603 3500 
L 1178 3500 
L 1178 0 
L 603 0 
L 603 3500 
z
M 603 4863 
L 1178 4863 
L 1178 4134 
L 603 4134 
L 603 4863 
z
" transform="scale(0.015625)"/>
       <path id="DejaVuSans-74" d="M 1172 4494 
L 1172 3500 
L 2356 3500 
L 2356 3053 
L 1172 3053 
L 1172 1153 
Q 1172 725 1289 603 
Q 1406 481 1766 481 
L 2356 481 
L 2356 0 
L 1766 0 
Q 1100 0 847 248 
Q 594 497 594 1153 
L 594 3053 
L 172 3053 
L 172 3500 
L 594 3500 
L 594 4494 
L 1172 4494 
z
" transform="scale(0.015625)"/>
       <path id="DejaVuSans-28" d="M 1984 4856 
Q 1566 4138 1362 3434 
Q 1159 2731 1159 2009 
Q 1159 1288 1364 580 
Q 1569 -128 1984 -844 
L 1484 -844 
Q 1016 -109 783 600 
Q 550 1309 550 2009 
Q 550 2706 781 3412 
Q 1013 4119 1484 4856 
L 1984 4856 
z
" transform="scale(0.015625)"/>
       <path id="DejaVuSans-b5" d="M 544 -1331 
L 544 3500 
L 1119 3500 
L 1119 1325 
Q 1119 872 1334 640 
Q 1550 409 1972 409 
Q 2434 409 2667 671 
Q 2900 934 2900 1459 
L 2900 3500 
L 3475 3500 
L 3475 806 
Q 3475 619 3529 530 
Q 3584 441 3700 441 
Q 3728 441 3778 458 
Q 3828 475 3916 513 
L 3916 50 
Q 3788 -22 3673 -56 
Q 3559 -91 3450 -91 
Q 3234 -91 3106 31 
Q 2978 153 2931 403 
Q 2775 156 2548 32 
Q 2322 -91 2016 -91 
Q 1697 -91 1473 31 
Q 1250 153 1119 397 
L 1119 -1331 
L 544 -1331 
z
" transform="scale(0.015625)"/>
       <path id="DejaVuSans-66" d="M 2375 4863 
L 2375 4384 
L 1825 4384 
Q 1516 4384 1395 4259 
Q 1275 4134 1275 3809 
L 1275 3500 
L 2222 3500 
L 2222 3053 
L 1275 3053 
L 1275 0 
L 697 0 
L 697 3053 
L 147 3053 
L 147 3500 
L 697 3500 
L 697 3744 
Q 697 4328 969 4595 
Q 1241 4863 1831 4863 
L 2375 4863 
z
" transform="scale(0.015625)"/>
       <path id="DejaVuSans-63" d="M 3122 3366 
L 3122 2828 
Q 2878 2963 2633 3030 
Q 2388 3097 2138 3097 
Q 1578 3097 1268 2742 
Q 959 2388 959 1747 
Q 959 1106 1268 751 
Q 1578 397 2138 397 
Q 2388 397 2633 464 
Q 2878 531 3122 666 
L 3122 134 
Q 2881 22 2623 -34 
Q 2366 -91 2075 -91 
Q 1284 -91 818 406 
Q 353 903 353 1747 
Q 353 2603 823 3093 
Q 1294 3584 2113 3584 
Q 2378 3584 2631 3529 
Q 2884 3475 3122 3366 
z
" transform="scale(0.015625)"/>
       <path id="DejaVuSans-62" d="M 3116 1747 
Q 3116 2381 2855 2742 
Q 2594 3103 2138 3103 
Q 1681 3103 1420 2742 
Q 1159 2381 1159 1747 
Q 1159 1113 1420 752 
Q 1681 391 2138 391 
Q 2594 391 2855 752 
Q 3116 1113 3116 1747 
z
M 1159 2969 
Q 1341 3281 1617 3432 
Q 1894 3584 2278 3584 
Q 2916 3584 3314 3078 
Q 3713 2572 3713 1747 
Q 3713 922 3314 415 
Q 2916 -91 2278 -91 
Q 1894 -91 1617 61 
Q 1341 213 1159 525 
L 1159 0 
L 581 0 
L 581 4863 
L 1159 4863 
L 1159 2969 
z
" transform="scale(0.015625)"/>
       <path id="DejaVuSans-76" d="M 191 3500 
L 800 3500 
L 1894 563 
L 2988 3500 
L 3597 3500 
L 2284 0 
L 1503 0 
L 191 3500 
z
" transform="scale(0.015625)"/>
       <path id="DejaVuSans-29" d="M 513 4856 
L 1013 4856 
Q 1481 4119 1714 3412 
Q 1947 2706 1947 2009 
Q 1947 1309 1714 600 
Q 1481 -109 1013 -844 
L 513 -844 
Q 928 -128 1133 580 
Q 1338 1288 1338 2009 
Q 1338 2731 1133 3434 
Q 928 4138 513 4856 
z
" transform="scale(0.015625)"/>
      </defs>
      <use xlink:href="#DejaVuSans-53"/>
      <use xlink:href="#DejaVuSans-79" x="63.476562"/>
      <use xlink:href="#DejaVuSans-6e" x="122.65625"/>
      <use xlink:href="#DejaVuSans-61" x="186.035156"/>
      <use xlink:href="#DejaVuSans-70" x="247.314453"/>
      <use xlink:href="#DejaVuSans-73" x="310.791016"/>
      <use xlink:href="#DejaVuSans-65" x="362.890625"/>
      <use xlink:href="#DejaVuSans-20" x="424.414062"/>
      <use xlink:href="#DejaVuSans-64" x="456.201172"/>
      <use xlink:href="#DejaVuSans-65" x="519.677734"/>
      <use xlink:href="#DejaVuSans-6e" x="581.201172"/>
      <use xlink:href="#DejaVuSans-73" x="644.580078"/>
      <use xlink:href="#DejaVuSans-69" x="696.679688"/>
      <use xlink:href="#DejaVuSans-74" x="724.462891"/>
      <use xlink:href="#DejaVuSans-79" x="763.671875"/>
      <use xlink:href="#DejaVuSans-20" x="822.851562"/>
      <use xlink:href="#DejaVuSans-28" x="854.638672"/>
      <use xlink:href="#DejaVuSans-70" x="893.652344"/>
      <use xlink:href="#DejaVuSans-65" x="957.128906"/>
      <use xlink:href="#DejaVuSans-72" x="1018.652344"/>
      <use xlink:href="#DejaVuSans-20" x="1059.765625"/>
      <use xlink:href="#DejaVuSans-b5" x="1091.552734"/>
      <use xlink:href="#DejaVuSans-6d" x="1155.175781"/>
      <use xlink:href="#DejaVuSans-20" x="1252.587891"/>
      <use xlink:href="#DejaVuSans-6f" x="1284.375"/>
      <use xlink:href="#DejaVuSans-66" x="1345.556641"/>
      <use xlink:href="#DejaVuSans-20" x="1380.761719"/>
      <use xlink:href="#DejaVuSans-63" x="1412.548828"/>
      <use xlink:href="#DejaVuSans-61" x="1467.529297"/>
      <use xlink:href="#DejaVuSans-62" x="1528.808594"/>
      <use xlink:href="#DejaVuSans-6c" x="1592.285156"/>
      <use xlink:href="#DejaVuSans-65" x="1620.068359"/>
      <use xlink:href="#DejaVuSans-20" x="1681.591797"/>
      <use xlink:href="#DejaVuSans-6f" x="1713.378906"/>
      <use xlink:href="#DejaVuSans-76" x="1774.560547"/>
      <use xlink:href="#DejaVuSans-65" x="1833.740234"/>
      <use xlink:href="#DejaVuSans-72" x="1895.263672"/>
      <use xlink:href="#DejaVuSans-6c" x="1936.376953"/>
      <use xlink:href="#DejaVuSans-61" x="1964.160156"/>
      <use xlink:href="#DejaVuSans-70" x="2025.439453"/>
      <use xlink:href="#DejaVuSans-29" x="2088.916016"/>
     </g>
    </g>
   </g>
   <g id="line2d_9">
    <path d="M 171.293188 189.237918 
L 199.026812 189.237918 
" clip-path="url(#pd1685f4428)" style="fill: none; stroke: #000000; stroke-width: 1.5; stroke-linecap: square"/>
   </g>
   <g id="line2d_10">
    <path d="M 215.226357 121.590131 
L 227.573643 121.590131 
" clip-path="url(#pd1685f4428)" style="fill: none; stroke: #000000; stroke-width: 1.5; stroke-linecap: square"/>
   </g>
   <g id="line2d_11">
    <path d="M 249.423637 94.37506 
L 265.856363 94.37506 
" clip-path="url(#pd1685f4428)" style="fill: none; stroke: #000000; stroke-width: 1.5; stroke-linecap: square"/>
   </g>
   <g id="patch_3">
    <path d="M 167.04 252 
L 167.04 34.56 
" style="fill: none; stroke: #000000; stroke-width: 0.8; stroke-linejoin: miter; stroke-linecap: square"/>
   </g>
   <g id="PathCollection_1">
    <defs>
     <path id="C0_0_fd15f49e15" d="M 0 2.5 
C 0.663008 2.5 1.29895 2.236584 1.767767 1.767767 
C 2.236584 1.29895 2.5 0.663008 2.5 -0 
C 2.5 -0.663008 2.236584 -1.29895 1.767767 -1.767767 
C 1.29895 -2.236584 0.663008 -2.5 0 -2.5 
C -0.663008 -2.5 -1.29895 -2.236584 -1.767767 -1.767767 
C -2.236584 -1.29895 -2.5 -0.663008 -2.5 0 
C -2.5 0.663008 -2.236584 1.29895 -1.767767 1.767767 
C -1.29895 2.236584 -0.663008 2.5 0 2.5 
z
"/>
    </defs>
    <g clip-path="url(#pd1685f4428)">
     <use xlink:href="#C0_0_fd15f49e15" x="185.510627" y="196.378064" style="fill: #ee82ee"/>
    </g>
    <g clip-path="url(#pd1685f4428)">
     <use xlink:href="#C0_0_fd15f49e15" x="187.953678" y="180.822937" style="fill: #ee82ee"/>
    </g>
    <g clip-path="url(#pd1685f4428)">
     <use xlink:href="#C0_0_fd15f49e15" x="183.142354" y="207.222308" style="fill: #ee82ee"/>
    </g>
    <g clip-path="url(#pd1685f4428)">
     <use xlink:href="#C0_0_fd15f49e15" x="188.449225" y="202.235323" style="fill: #ee82ee"/>
    </g>
    <g clip-path="url(#pd1685f4428)">
     <use xlink:href="#C0_0_fd15f49e15" x="182.755552" y="193.042899" style="fill: #ee82ee"/>
    </g>
    <g clip-path="url(#pd1685f4428)">
     <use xlink:href="#C0_0_fd15f49e15" x="185.456501" y="180.846047" style="fill: #ee82ee"/>
    </g>
    <g clip-path="url(#pd1685f4428)">
     <use xlink:href="#C0_0_fd15f49e15" x="184.905578" y="168.617008" style="fill: #ee82ee"/>
    </g>
    <g clip-path="url(#pd1685f4428)">
     <use xlink:href="#C0_0_fd15f49e15" x="183.019741" y="187.133107" style="fill: #ee82ee"/>
    </g>
    <g clip-path="url(#pd1685f4428)">
     <use xlink:href="#C0_0_fd15f49e15" x="184.741245" y="173.426408" style="fill: #ee82ee"/>
    </g>
    <g clip-path="url(#pd1685f4428)">
     <use xlink:href="#C0_0_fd15f49e15" x="185.449249" y="202.655073" style="fill: #ee82ee"/>
    </g>
   </g>
   <g id="PathCollection_2">
    <defs>
     <path id="C1_0_b500934bc9" d="M 0 2.5 
C 0.663008 2.5 1.29895 2.236584 1.767767 1.767767 
C 2.236584 1.29895 2.5 0.663008 2.5 -0 
C 2.5 -0.663008 2.236584 -1.29895 1.767767 -1.767767 
C 1.29895 -2.236584 0.663008 -2.5 0 -2.5 
C -0.663008 -2.5 -1.29895 -2.236584 -1.767767 -1.767767 
C -2.236584 -1.29895 -2.5 -0.663008 -2.5 0 
C -2.5 0.663008 -2.236584 1.29895 -1.767767 1.767767 
C -1.29895 2.236584 -0.663008 2.5 0 2.5 
z
"/>
    </defs>
    <g clip-path="url(#pd1685f4428)">
     <use xlink:href="#C1_0_b500934bc9" x="219.698312" y="169.494805" style="fill: #0000ff"/>
    </g>
    <g clip-path="url(#pd1685f4428)">
     <use xlink:href="#C1_0_b500934bc9" x="224.493297" y="142.108346" style="fill: #0000ff"/>
    </g>
    <g clip-path="url(#pd1685f4428)">
     <use xlink:href="#C1_0_b500934bc9" x="223.529686" y="91.114581" style="fill: #0000ff"/>
    </g>
    <g clip-path="url(#pd1685f4428)">
     <use xlink:href="#C1_0_b500934bc9" x="221.933452" y="109.833843" style="fill: #0000ff"/>
    </g>
    <g clip-path="url(#pd1685f4428)">
     <use xlink:href="#C1_0_b500934bc9" x="219.912993" y="137.562689" style="fill: #0000ff"/>
    </g>
    <g clip-path="url(#pd1685f4428)">
     <use xlink:href="#C1_0_b500934bc9" x="217.896737" y="110.420372" style="fill: #0000ff"/>
    </g>
    <g clip-path="url(#pd1685f4428)">
     <use xlink:href="#C1_0_b500934bc9" x="219.509135" y="65.299883" style="fill: #0000ff"/>
    </g>
    <g clip-path="url(#pd1685f4428)">
     <use xlink:href="#C1_0_b500934bc9" x="224.845471" y="106.261031" style="fill: #0000ff"/>
    </g>
    <g clip-path="url(#pd1685f4428)">
     <use xlink:href="#C1_0_b500934bc9" x="220.551591" y="110.201109" style="fill: #0000ff"/>
    </g>
    <g clip-path="url(#pd1685f4428)">
     <use xlink:href="#C1_0_b500934bc9" x="223.390458" y="173.604652" style="fill: #0000ff"/>
    </g>
   </g>
   <g id="PathCollection_3">
    <defs>
     <path id="C2_0_4f1de047bb" d="M 0 2.5 
C 0.663008 2.5 1.29895 2.236584 1.767767 1.767767 
C 2.236584 1.29895 2.5 0.663008 2.5 -0 
C 2.5 -0.663008 2.236584 -1.29895 1.767767 -1.767767 
C 1.29895 -2.236584 0.663008 -2.5 0 -2.5 
C -0.663008 -2.5 -1.29895 -2.236584 -1.767767 -1.767767 
C -2.236584 -1.29895 -2.5 -0.663008 -2.5 0 
C -2.5 0.663008 -2.236584 1.29895 -1.767767 1.767767 
C -1.29895 2.236584 -0.663008 2.5 0 2.5 
z
"/>
    </defs>
    <g clip-path="url(#pd1685f4428)">
     <use xlink:href="#C2_0_4f1de047bb" x="257.625737" y="117.832435" style="fill: #00fa9a"/>
    </g>
    <g clip-path="url(#pd1685f4428)">
     <use xlink:href="#C2_0_4f1de047bb" x="260.60882" y="130.365038" style="fill: #00fa9a"/>
    </g>
    <g clip-path="url(#pd1685f4428)">
     <use xlink:href="#C2_0_4f1de047bb" x="258.306661" y="113.754783" style="fill: #00fa9a"/>
    </g>
    <g clip-path="url(#pd1685f4428)">
     <use xlink:href="#C2_0_4f1de047bb" x="255.654511" y="99.358195" style="fill: #00fa9a"/>
    </g>
    <g clip-path="url(#pd1685f4428)">
     <use xlink:href="#C2_0_4f1de047bb" x="259.943213" y="67.314289" style="fill: #00fa9a"/>
    </g>
    <g clip-path="url(#pd1685f4428)">
     <use xlink:href="#C2_0_4f1de047bb" x="256.994255" y="106.904616" style="fill: #00fa9a"/>
    </g>
    <g clip-path="url(#pd1685f4428)">
     <use xlink:href="#C2_0_4f1de047bb" x="258.666144" y="97.446544" style="fill: #00fa9a"/>
    </g>
    <g clip-path="url(#pd1685f4428)">
     <use xlink:href="#C2_0_4f1de047bb" x="256.257605" y="80.441524" style="fill: #00fa9a"/>
    </g>
    <g clip-path="url(#pd1685f4428)">
     <use xlink:href="#C2_0_4f1de047bb" x="259.652964" y="82.047208" style="fill: #00fa9a"/>
    </g>
    <g clip-path="url(#pd1685f4428)">
     <use xlink:href="#C2_0_4f1de047bb" x="255.41587" y="48.285967" style="fill: #00fa9a"/>
    </g>
   </g>
  </g>
 </g>
 <defs>
  <clipPath id="pd1685f4428">
   <rect x="167.04" y="34.56" width="108.72" height="217.44"/>
  </clipPath>
 </defs>
</svg>
