<?xml version="1.0" encoding="utf-8" standalone="no"?>
<!DOCTYPE svg PUBLIC "-//W3C//DTD SVG 1.1//EN"
  "http://www.w3.org/Graphics/SVG/1.1/DTD/svg11.dtd">
<svg xmlns:xlink="http://www.w3.org/1999/xlink" width="432pt" height="288pt" viewBox="0 0 432 288" xmlns="http://www.w3.org/2000/svg" version="1.1">
 <metadata>
  <rdf:RDF xmlns:dc="http://purl.org/dc/elements/1.1/" xmlns:cc="http://creativecommons.org/ns#" xmlns:rdf="http://www.w3.org/1999/02/22-rdf-syntax-ns#">
   <cc:Work>
    <dc:type rdf:resource="http://purl.org/dc/dcmitype/StillImage"/>
    <dc:date>2024-01-28T09:46:27.989851</dc:date>
    <dc:format>image/svg+xml</dc:format>
    <dc:creator>
     <cc:Agent>
      <dc:title>Matplotlib v3.5.1, https://matplotlib.org/</dc:title>
     </cc:Agent>
    </dc:creator>
   </cc:Work>
  </rdf:RDF>
 </metadata>
 <defs>
  <style type="text/css">*{stroke-linejoin: round; stroke-linecap: butt}</style>
 </defs>
 <g id="figure_1">
  <g id="patch_1">
   <path d="M 0 288 
L 432 288 
L 432 0 
L 0 0 
L 0 288 
z
" style="fill: none"/>
  </g>
  <g id="axes_1">
   <g id="patch_2">
    <path d="M 164.178947 252 
L 278.621053 252 
L 278.621053 34.56 
L 164.178947 34.56 
z
" style="fill: #ffffff"/>
   </g>
   <g id="PolyCollection_1">
    <defs>
     <path id="m81e6dec8bd" d="M 183.743481 -127.553684 
L 182.761782 -127.553684 
L 182.757375 -128.772088 
L 182.753667 -129.990492 
L 182.750579 -131.208896 
L 182.748021 -132.4273 
L 182.745887 -133.645703 
L 182.74406 -134.864107 
L 182.742411 -136.082511 
L 182.740801 -137.300915 
L 182.739083 -138.519319 
L 182.737103 -139.737722 
L 182.7347 -140.956126 
L 182.731713 -142.17453 
L 182.727976 -143.392934 
L 182.723327 -144.611338 
L 182.717604 -145.829742 
L 182.710652 -147.048145 
L 182.702319 -148.266549 
L 182.692463 -149.484953 
L 182.680954 -150.703357 
L 182.667668 -151.921761 
L 182.652499 -153.140165 
L 182.635351 -154.358568 
L 182.616145 -155.576972 
L 182.594815 -156.795376 
L 182.571312 -158.01378 
L 182.545603 -159.232184 
L 182.517671 -160.450588 
L 182.487513 -161.668991 
L 182.455144 -162.887395 
L 182.420592 -164.105799 
L 182.383897 -165.324203 
L 182.345115 -166.542607 
L 182.304311 -167.761011 
L 182.261563 -168.979414 
L 182.216954 -170.197818 
L 182.17058 -171.416222 
L 182.122541 -172.634626 
L 182.072941 -173.85303 
L 182.021893 -175.071433 
L 181.96951 -176.289837 
L 181.915908 -177.508241 
L 181.861205 -178.726645 
L 181.805521 -179.945049 
L 181.748977 -181.163453 
L 181.691694 -182.381856 
L 181.633793 -183.60026 
L 181.575399 -184.818664 
L 181.516634 -186.037068 
L 181.457625 -187.255472 
L 181.398499 -188.473876 
L 181.339387 -189.692279 
L 181.280423 -190.910683 
L 181.221744 -192.129087 
L 181.163493 -193.347491 
L 181.105818 -194.565895 
L 181.048871 -195.784299 
L 180.992814 -197.002702 
L 180.937811 -198.221106 
L 180.884033 -199.43951 
L 180.831659 -200.657914 
L 180.780871 -201.876318 
L 180.731858 -203.094722 
L 180.68481 -204.313125 
L 180.639923 -205.531529 
L 180.597392 -206.749933 
L 180.557413 -207.968337 
L 180.52018 -209.186741 
L 180.485883 -210.405144 
L 180.454709 -211.623548 
L 180.426834 -212.841952 
L 180.402427 -214.060356 
L 180.381647 -215.27876 
L 180.364636 -216.497164 
L 180.351525 -217.715567 
L 180.342428 -218.933971 
L 180.337439 -220.152375 
L 180.336635 -221.370779 
L 180.340071 -222.589183 
L 180.347784 -223.807587 
L 180.359787 -225.02599 
L 180.376072 -226.244394 
L 180.396608 -227.462798 
L 180.421343 -228.681202 
L 180.450206 -229.899606 
L 180.4831 -231.11801 
L 180.519914 -232.336413 
L 180.560512 -233.554817 
L 180.604746 -234.773221 
L 180.652446 -235.991625 
L 180.703431 -237.210029 
L 180.757504 -238.428433 
L 180.814456 -239.646836 
L 180.874068 -240.86524 
L 180.93611 -242.083644 
L 181.000347 -243.302048 
L 181.066536 -244.520452 
L 181.134432 -245.738856 
L 181.203784 -246.957259 
L 181.274341 -248.175663 
L 185.230922 -248.175663 
L 185.230922 -248.175663 
L 185.301479 -246.957259 
L 185.370831 -245.738856 
L 185.438727 -244.520452 
L 185.504916 -243.302048 
L 185.569153 -242.083644 
L 185.631196 -240.86524 
L 185.690807 -239.646836 
L 185.747759 -238.428433 
L 185.801832 -237.210029 
L 185.852817 -235.991625 
L 185.900517 -234.773221 
L 185.944751 -233.554817 
L 185.98535 -232.336413 
L 186.022163 -231.11801 
L 186.055057 -229.899606 
L 186.08392 -228.681202 
L 186.108655 -227.462798 
L 186.129192 -226.244394 
L 186.145476 -225.02599 
L 186.157479 -223.807587 
L 186.165192 -222.589183 
L 186.168628 -221.370779 
L 186.167824 -220.152375 
L 186.162835 -218.933971 
L 186.153738 -217.715567 
L 186.140627 -216.497164 
L 186.123617 -215.27876 
L 186.102836 -214.060356 
L 186.078429 -212.841952 
L 186.050555 -211.623548 
L 186.01938 -210.405144 
L 185.985084 -209.186741 
L 185.94785 -207.968337 
L 185.907871 -206.749933 
L 185.86534 -205.531529 
L 185.820453 -204.313125 
L 185.773405 -203.094722 
L 185.724392 -201.876318 
L 185.673604 -200.657914 
L 185.62123 -199.43951 
L 185.567452 -198.221106 
L 185.512449 -197.002702 
L 185.456392 -195.784299 
L 185.399446 -194.565895 
L 185.34177 -193.347491 
L 185.283519 -192.129087 
L 185.22484 -190.910683 
L 185.165876 -189.692279 
L 185.106764 -188.473876 
L 185.047638 -187.255472 
L 184.988629 -186.037068 
L 184.929864 -184.818664 
L 184.87147 -183.60026 
L 184.813569 -182.381856 
L 184.756286 -181.163453 
L 184.699742 -179.945049 
L 184.644058 -178.726645 
L 184.589356 -177.508241 
L 184.535753 -176.289837 
L 184.48337 -175.071433 
L 184.432322 -173.85303 
L 184.382723 -172.634626 
L 184.334683 -171.416222 
L 184.288309 -170.197818 
L 184.243701 -168.979414 
L 184.200952 -167.761011 
L 184.160148 -166.542607 
L 184.121366 -165.324203 
L 184.084671 -164.105799 
L 184.050119 -162.887395 
L 184.01775 -161.668991 
L 183.987592 -160.450588 
L 183.95966 -159.232184 
L 183.933951 -158.01378 
L 183.910449 -156.795376 
L 183.889118 -155.576972 
L 183.869912 -154.358568 
L 183.852764 -153.140165 
L 183.837595 -151.921761 
L 183.82431 -150.703357 
L 183.8128 -149.484953 
L 183.802944 -148.266549 
L 183.794611 -147.048145 
L 183.787659 -145.829742 
L 183.781936 -144.611338 
L 183.777287 -143.392934 
L 183.77355 -142.17453 
L 183.770563 -140.956126 
L 183.768161 -139.737722 
L 183.76618 -138.519319 
L 183.764462 -137.300915 
L 183.762852 -136.082511 
L 183.761203 -134.864107 
L 183.759376 -133.645703 
L 183.757242 -132.4273 
L 183.754684 -131.208896 
L 183.751596 -129.990492 
L 183.747888 -128.772088 
L 183.743481 -127.553684 
z
" style="stroke: #ee82ee; stroke-width: 1.5"/>
    </defs>
    <g clip-path="url(#pe0f60ce451)">
     <use xlink:href="#m81e6dec8bd" x="0" y="288" style="fill: #ffffff; stroke: #ee82ee; stroke-width: 1.5"/>
    </g>
   </g>
   <g id="PolyCollection_2">
    <defs>
     <path id="m72833e486e" d="M 223.144557 -64.724968 
L 219.655443 -64.724968 
L 219.656585 -65.041707 
L 219.66244 -65.358446 
L 219.672907 -65.675185 
L 219.687835 -65.991923 
L 219.707026 -66.308662 
L 219.730241 -66.625401 
L 219.757196 -66.94214 
L 219.787567 -67.258878 
L 219.820993 -67.575617 
L 219.85708 -67.892356 
L 219.895403 -68.209095 
L 219.935508 -68.525833 
L 219.97692 -68.842572 
L 220.019144 -69.159311 
L 220.061669 -69.47605 
L 220.103972 -69.792789 
L 220.145522 -70.109527 
L 220.185785 -70.426266 
L 220.224222 -70.743005 
L 220.260298 -71.059744 
L 220.293482 -71.376482 
L 220.32325 -71.693221 
L 220.349086 -72.00996 
L 220.370485 -72.326699 
L 220.386954 -72.643437 
L 220.398014 -72.960176 
L 220.403201 -73.276915 
L 220.402065 -73.593654 
L 220.394174 -73.910392 
L 220.379109 -74.227131 
L 220.356471 -74.54387 
L 220.325875 -74.860609 
L 220.286956 -75.177347 
L 220.239362 -75.494086 
L 220.182762 -75.810825 
L 220.116841 -76.127564 
L 220.0413 -76.444302 
L 219.955861 -76.761041 
L 219.860263 -77.07778 
L 219.754264 -77.394519 
L 219.637643 -77.711257 
L 219.510201 -78.027996 
L 219.371761 -78.344735 
L 219.222171 -78.661474 
L 219.061305 -78.978212 
L 218.889065 -79.294951 
L 218.705386 -79.61169 
L 218.510235 -79.928429 
L 218.303614 -80.245167 
L 218.085566 -80.561906 
L 217.856177 -80.878645 
L 217.615578 -81.195384 
L 217.363951 -81.512122 
L 217.101531 -81.828861 
L 216.82861 -82.1456 
L 216.545542 -82.462339 
L 216.252745 -82.779078 
L 215.950707 -83.095816 
L 215.639988 -83.412555 
L 215.321224 -83.729294 
L 214.995127 -84.046033 
L 214.662492 -84.362771 
L 214.324197 -84.67951 
L 213.981202 -84.996249 
L 213.634553 -85.312988 
L 213.28538 -85.629726 
L 212.934894 -85.946465 
L 212.584385 -86.263204 
L 212.235223 -86.579943 
L 211.888845 -86.896681 
L 211.546757 -87.21342 
L 211.210519 -87.530159 
L 210.881742 -87.846898 
L 210.562075 -88.163636 
L 210.253194 -88.480375 
L 209.956791 -88.797114 
L 209.674556 -89.113853 
L 209.40817 -89.430591 
L 209.15928 -89.74733 
L 208.92949 -90.064069 
L 208.720342 -90.380808 
L 208.533299 -90.697546 
L 208.369729 -91.014285 
L 208.230889 -91.331024 
L 208.117907 -91.647763 
L 208.03177 -91.964501 
L 207.973308 -92.28124 
L 207.943184 -92.597979 
L 207.94188 -92.914718 
L 207.969692 -93.231456 
L 208.02672 -93.548195 
L 208.112865 -93.864934 
L 208.227827 -94.181673 
L 208.371105 -94.498411 
L 208.541998 -94.81515 
L 208.739614 -95.131889 
L 208.962875 -95.448628 
L 209.210527 -95.765367 
L 209.481154 -96.082105 
L 233.318846 -96.082105 
L 233.318846 -96.082105 
L 233.589473 -95.765367 
L 233.837125 -95.448628 
L 234.060386 -95.131889 
L 234.258002 -94.81515 
L 234.428895 -94.498411 
L 234.572173 -94.181673 
L 234.687135 -93.864934 
L 234.77328 -93.548195 
L 234.830308 -93.231456 
L 234.85812 -92.914718 
L 234.856816 -92.597979 
L 234.826692 -92.28124 
L 234.76823 -91.964501 
L 234.682093 -91.647763 
L 234.569111 -91.331024 
L 234.430271 -91.014285 
L 234.266701 -90.697546 
L 234.079658 -90.380808 
L 233.87051 -90.064069 
L 233.64072 -89.74733 
L 233.39183 -89.430591 
L 233.125444 -89.113853 
L 232.843209 -88.797114 
L 232.546806 -88.480375 
L 232.237925 -88.163636 
L 231.918258 -87.846898 
L 231.589481 -87.530159 
L 231.253243 -87.21342 
L 230.911155 -86.896681 
L 230.564777 -86.579943 
L 230.215615 -86.263204 
L 229.865106 -85.946465 
L 229.51462 -85.629726 
L 229.165447 -85.312988 
L 228.818798 -84.996249 
L 228.475803 -84.67951 
L 228.137508 -84.362771 
L 227.804873 -84.046033 
L 227.478776 -83.729294 
L 227.160012 -83.412555 
L 226.849293 -83.095816 
L 226.547255 -82.779078 
L 226.254458 -82.462339 
L 225.97139 -82.1456 
L 225.698469 -81.828861 
L 225.436049 -81.512122 
L 225.184422 -81.195384 
L 224.943823 -80.878645 
L 224.714434 -80.561906 
L 224.496386 -80.245167 
L 224.289765 -79.928429 
L 224.094614 -79.61169 
L 223.910935 -79.294951 
L 223.738695 -78.978212 
L 223.577829 -78.661474 
L 223.428239 -78.344735 
L 223.289799 -78.027996 
L 223.162357 -77.711257 
L 223.045736 -77.394519 
L 222.939737 -77.07778 
L 222.844139 -76.761041 
L 222.7587 -76.444302 
L 222.683159 -76.127564 
L 222.617238 -75.810825 
L 222.560638 -75.494086 
L 222.513044 -75.177347 
L 222.474125 -74.860609 
L 222.443529 -74.54387 
L 222.420891 -74.227131 
L 222.405826 -73.910392 
L 222.397935 -73.593654 
L 222.396799 -73.276915 
L 222.401986 -72.960176 
L 222.413046 -72.643437 
L 222.429515 -72.326699 
L 222.450914 -72.00996 
L 222.47675 -71.693221 
L 222.506518 -71.376482 
L 222.539702 -71.059744 
L 222.575778 -70.743005 
L 222.614215 -70.426266 
L 222.654478 -70.109527 
L 222.696028 -69.792789 
L 222.738331 -69.47605 
L 222.780856 -69.159311 
L 222.82308 -68.842572 
L 222.864492 -68.525833 
L 222.904597 -68.209095 
L 222.94292 -67.892356 
L 222.979007 -67.575617 
L 223.012433 -67.258878 
L 223.042804 -66.94214 
L 223.069759 -66.625401 
L 223.092974 -66.308662 
L 223.112165 -65.991923 
L 223.127093 -65.675185 
L 223.13756 -65.358446 
L 223.143415 -65.041707 
L 223.144557 -64.724968 
z
" style="stroke: #0000ff; stroke-width: 1.5"/>
    </defs>
    <g clip-path="url(#pe0f60ce451)">
     <use xlink:href="#m72833e486e" x="0" y="288" style="fill: #ffffff; stroke: #0000ff; stroke-width: 1.5"/>
    </g>
   </g>
   <g id="PolyCollection_3">
    <defs>
     <path id="m0e540351a3" d="M 267.241018 -89.330021 
L 251.853718 -89.330021 
L 251.517388 -89.53463 
L 251.178363 -89.739238 
L 250.837389 -89.943847 
L 250.495256 -90.148456 
L 250.152799 -90.353064 
L 249.810898 -90.557673 
L 249.470476 -90.762281 
L 249.132496 -90.96689 
L 248.797961 -91.171499 
L 248.467905 -91.376107 
L 248.143392 -91.580716 
L 247.825506 -91.785324 
L 247.515345 -91.989933 
L 247.214011 -92.194542 
L 246.9226 -92.39915 
L 246.642193 -92.603759 
L 246.373841 -92.808367 
L 246.118557 -93.012976 
L 245.877298 -93.217585 
L 245.650958 -93.422193 
L 245.440352 -93.626802 
L 245.246205 -93.831411 
L 245.069142 -94.036019 
L 244.90968 -94.240628 
L 244.768215 -94.445236 
L 244.645019 -94.649845 
L 244.540235 -94.854454 
L 244.453877 -95.059062 
L 244.385824 -95.263671 
L 244.335831 -95.468279 
L 244.303525 -95.672888 
L 244.288421 -95.877497 
L 244.289926 -96.082105 
L 244.307352 -96.286714 
L 244.339931 -96.491322 
L 244.386831 -96.695931 
L 244.447169 -96.90054 
L 244.52003 -97.105148 
L 244.604488 -97.309757 
L 244.699618 -97.514366 
L 244.804515 -97.718974 
L 244.918312 -97.923583 
L 245.040194 -98.128191 
L 245.169408 -98.3328 
L 245.305278 -98.537409 
L 245.447208 -98.742017 
L 245.594693 -98.946626 
L 245.74732 -99.151234 
L 245.904766 -99.355843 
L 246.0668 -99.560452 
L 246.233271 -99.76506 
L 246.404107 -99.969669 
L 246.579301 -100.174278 
L 246.758901 -100.378886 
L 246.942992 -100.583495 
L 247.131689 -100.788103 
L 247.325116 -100.992712 
L 247.523394 -101.197321 
L 247.726621 -101.401929 
L 247.934864 -101.606538 
L 248.148142 -101.811146 
L 248.366417 -102.015755 
L 248.589581 -102.220364 
L 248.817452 -102.424972 
L 249.049766 -102.629581 
L 249.286179 -102.834189 
L 249.526263 -103.038798 
L 249.76951 -103.243407 
L 250.015339 -103.448015 
L 250.263101 -103.652624 
L 250.512092 -103.857233 
L 250.761561 -104.061841 
L 251.010725 -104.26645 
L 251.258783 -104.471058 
L 251.504931 -104.675667 
L 251.748374 -104.880276 
L 251.988345 -105.084884 
L 252.224119 -105.289493 
L 252.455022 -105.494101 
L 252.680446 -105.69871 
L 252.899862 -105.903319 
L 253.112823 -106.107927 
L 253.318976 -106.312536 
L 253.518062 -106.517144 
L 253.709924 -106.721753 
L 253.8945 -106.926362 
L 254.071827 -107.13097 
L 254.242031 -107.335579 
L 254.405329 -107.540188 
L 254.562011 -107.744796 
L 254.712441 -107.949405 
L 254.857038 -108.154013 
L 254.996269 -108.358622 
L 255.130638 -108.563231 
L 255.260668 -108.767839 
L 255.386897 -108.972448 
L 255.50986 -109.177056 
L 255.630077 -109.381665 
L 255.748047 -109.586274 
L 263.34669 -109.586274 
L 263.34669 -109.586274 
L 263.46466 -109.381665 
L 263.584877 -109.177056 
L 263.707839 -108.972448 
L 263.834069 -108.767839 
L 263.964099 -108.563231 
L 264.098468 -108.358622 
L 264.237699 -108.154013 
L 264.382296 -107.949405 
L 264.532725 -107.744796 
L 264.689408 -107.540188 
L 264.852705 -107.335579 
L 265.02291 -107.13097 
L 265.200237 -106.926362 
L 265.384813 -106.721753 
L 265.576674 -106.517144 
L 265.775761 -106.312536 
L 265.981914 -106.107927 
L 266.194875 -105.903319 
L 266.414291 -105.69871 
L 266.639715 -105.494101 
L 266.870618 -105.289493 
L 267.106391 -105.084884 
L 267.346363 -104.880276 
L 267.589806 -104.675667 
L 267.835954 -104.471058 
L 268.084012 -104.26645 
L 268.333176 -104.061841 
L 268.582645 -103.857233 
L 268.831636 -103.652624 
L 269.079398 -103.448015 
L 269.325227 -103.243407 
L 269.568474 -103.038798 
L 269.808557 -102.834189 
L 270.04497 -102.629581 
L 270.277285 -102.424972 
L 270.505156 -102.220364 
L 270.72832 -102.015755 
L 270.946594 -101.811146 
L 271.159873 -101.606538 
L 271.368116 -101.401929 
L 271.571343 -101.197321 
L 271.76962 -100.992712 
L 271.963048 -100.788103 
L 272.151745 -100.583495 
L 272.335836 -100.378886 
L 272.515435 -100.174278 
L 272.69063 -99.969669 
L 272.861466 -99.76506 
L 273.027937 -99.560452 
L 273.189971 -99.355843 
L 273.347417 -99.151234 
L 273.500044 -98.946626 
L 273.647529 -98.742017 
L 273.789459 -98.537409 
L 273.925328 -98.3328 
L 274.054543 -98.128191 
L 274.176425 -97.923583 
L 274.290222 -97.718974 
L 274.395119 -97.514366 
L 274.490249 -97.309757 
L 274.574707 -97.105148 
L 274.647568 -96.90054 
L 274.707906 -96.695931 
L 274.754806 -96.491322 
L 274.787385 -96.286714 
L 274.804811 -96.082105 
L 274.806316 -95.877497 
L 274.791212 -95.672888 
L 274.758906 -95.468279 
L 274.708913 -95.263671 
L 274.64086 -95.059062 
L 274.554502 -94.854454 
L 274.449718 -94.649845 
L 274.326522 -94.445236 
L 274.185057 -94.240628 
L 274.025594 -94.036019 
L 273.848532 -93.831411 
L 273.654385 -93.626802 
L 273.443779 -93.422193 
L 273.217439 -93.217585 
L 272.97618 -93.012976 
L 272.720895 -92.808367 
L 272.452544 -92.603759 
L 272.172137 -92.39915 
L 271.880726 -92.194542 
L 271.579392 -91.989933 
L 271.269231 -91.785324 
L 270.951345 -91.580716 
L 270.626832 -91.376107 
L 270.296776 -91.171499 
L 269.962241 -90.96689 
L 269.624261 -90.762281 
L 269.283839 -90.557673 
L 268.941937 -90.353064 
L 268.59948 -90.148456 
L 268.257348 -89.943847 
L 267.916374 -89.739238 
L 267.577349 -89.53463 
L 267.241018 -89.330021 
z
" style="stroke: #00fa9a; stroke-width: 1.5"/>
    </defs>
    <g clip-path="url(#pe0f60ce451)">
     <use xlink:href="#m0e540351a3" x="0" y="288" style="fill: #ffffff; stroke: #00fa9a; stroke-width: 1.5"/>
    </g>
   </g>
   <g id="matplotlib.axis_1">
    <g id="xtick_1">
     <g id="text_1">
      <!-- 1 -->
      <g transform="translate(180.071382 266.598437)scale(0.1 -0.1)">
       <defs>
        <path id="DejaVuSans-31" d="M 794 531 
L 1825 531 
L 1825 4091 
L 703 3866 
L 703 4441 
L 1819 4666 
L 2450 4666 
L 2450 531 
L 3481 531 
L 3481 0 
L 794 0 
L 794 531 
z
" transform="scale(0.015625)"/>
       </defs>
       <use xlink:href="#DejaVuSans-31"/>
      </g>
     </g>
    </g>
    <g id="xtick_2">
     <g id="text_2">
      <!-- 2 -->
      <g transform="translate(218.21875 266.598437)scale(0.1 -0.1)">
       <defs>
        <path id="DejaVuSans-32" d="M 1228 531 
L 3431 531 
L 3431 0 
L 469 0 
L 469 531 
Q 828 903 1448 1529 
Q 2069 2156 2228 2338 
Q 2531 2678 2651 2914 
Q 2772 3150 2772 3378 
Q 2772 3750 2511 3984 
Q 2250 4219 1831 4219 
Q 1534 4219 1204 4116 
Q 875 4013 500 3803 
L 500 4441 
Q 881 4594 1212 4672 
Q 1544 4750 1819 4750 
Q 2544 4750 2975 4387 
Q 3406 4025 3406 3419 
Q 3406 3131 3298 2873 
Q 3191 2616 2906 2266 
Q 2828 2175 2409 1742 
Q 1991 1309 1228 531 
z
" transform="scale(0.015625)"/>
       </defs>
       <use xlink:href="#DejaVuSans-32"/>
      </g>
     </g>
    </g>
    <g id="xtick_3">
     <g id="text_3">
      <!-- 3 -->
      <g transform="translate(256.366118 266.598437)scale(0.1 -0.1)">
       <defs>
        <path id="DejaVuSans-33" d="M 2597 2516 
Q 3050 2419 3304 2112 
Q 3559 1806 3559 1356 
Q 3559 666 3084 287 
Q 2609 -91 1734 -91 
Q 1441 -91 1130 -33 
Q 819 25 488 141 
L 488 750 
Q 750 597 1062 519 
Q 1375 441 1716 441 
Q 2309 441 2620 675 
Q 2931 909 2931 1356 
Q 2931 1769 2642 2001 
Q 2353 2234 1838 2234 
L 1294 2234 
L 1294 2753 
L 1863 2753 
Q 2328 2753 2575 2939 
Q 2822 3125 2822 3475 
Q 2822 3834 2567 4026 
Q 2313 4219 1838 4219 
Q 1578 4219 1281 4162 
Q 984 4106 628 3988 
L 628 4550 
Q 988 4650 1302 4700 
Q 1616 4750 1894 4750 
Q 2613 4750 3031 4423 
Q 3450 4097 3450 3541 
Q 3450 3153 3228 2886 
Q 3006 2619 2597 2516 
z
" transform="scale(0.015625)"/>
       </defs>
       <use xlink:href="#DejaVuSans-33"/>
      </g>
     </g>
    </g>
    <g id="text_4">
     <!-- Glomerulus -->
     <g transform="translate(187.0125 281.79625)scale(0.12 -0.12)">
      <defs>
       <path id="DejaVuSans-47" d="M 3809 666 
L 3809 1919 
L 2778 1919 
L 2778 2438 
L 4434 2438 
L 4434 434 
Q 4069 175 3628 42 
Q 3188 -91 2688 -91 
Q 1594 -91 976 548 
Q 359 1188 359 2328 
Q 359 3472 976 4111 
Q 1594 4750 2688 4750 
Q 3144 4750 3555 4637 
Q 3966 4525 4313 4306 
L 4313 3634 
Q 3963 3931 3569 4081 
Q 3175 4231 2741 4231 
Q 1884 4231 1454 3753 
Q 1025 3275 1025 2328 
Q 1025 1384 1454 906 
Q 1884 428 2741 428 
Q 3075 428 3337 486 
Q 3600 544 3809 666 
z
" transform="scale(0.015625)"/>
       <path id="DejaVuSans-6c" d="M 603 4863 
L 1178 4863 
L 1178 0 
L 603 0 
L 603 4863 
z
" transform="scale(0.015625)"/>
       <path id="DejaVuSans-6f" d="M 1959 3097 
Q 1497 3097 1228 2736 
Q 959 2375 959 1747 
Q 959 1119 1226 758 
Q 1494 397 1959 397 
Q 2419 397 2687 759 
Q 2956 1122 2956 1747 
Q 2956 2369 2687 2733 
Q 2419 3097 1959 3097 
z
M 1959 3584 
Q 2709 3584 3137 3096 
Q 3566 2609 3566 1747 
Q 3566 888 3137 398 
Q 2709 -91 1959 -91 
Q 1206 -91 779 398 
Q 353 888 353 1747 
Q 353 2609 779 3096 
Q 1206 3584 1959 3584 
z
" transform="scale(0.015625)"/>
       <path id="DejaVuSans-6d" d="M 3328 2828 
Q 3544 3216 3844 3400 
Q 4144 3584 4550 3584 
Q 5097 3584 5394 3201 
Q 5691 2819 5691 2113 
L 5691 0 
L 5113 0 
L 5113 2094 
Q 5113 2597 4934 2840 
Q 4756 3084 4391 3084 
Q 3944 3084 3684 2787 
Q 3425 2491 3425 1978 
L 3425 0 
L 2847 0 
L 2847 2094 
Q 2847 2600 2669 2842 
Q 2491 3084 2119 3084 
Q 1678 3084 1418 2786 
Q 1159 2488 1159 1978 
L 1159 0 
L 581 0 
L 581 3500 
L 1159 3500 
L 1159 2956 
Q 1356 3278 1631 3431 
Q 1906 3584 2284 3584 
Q 2666 3584 2933 3390 
Q 3200 3197 3328 2828 
z
" transform="scale(0.015625)"/>
       <path id="DejaVuSans-65" d="M 3597 1894 
L 3597 1613 
L 953 1613 
Q 991 1019 1311 708 
Q 1631 397 2203 397 
Q 2534 397 2845 478 
Q 3156 559 3463 722 
L 3463 178 
Q 3153 47 2828 -22 
Q 2503 -91 2169 -91 
Q 1331 -91 842 396 
Q 353 884 353 1716 
Q 353 2575 817 3079 
Q 1281 3584 2069 3584 
Q 2775 3584 3186 3129 
Q 3597 2675 3597 1894 
z
M 3022 2063 
Q 3016 2534 2758 2815 
Q 2500 3097 2075 3097 
Q 1594 3097 1305 2825 
Q 1016 2553 972 2059 
L 3022 2063 
z
" transform="scale(0.015625)"/>
       <path id="DejaVuSans-72" d="M 2631 2963 
Q 2534 3019 2420 3045 
Q 2306 3072 2169 3072 
Q 1681 3072 1420 2755 
Q 1159 2438 1159 1844 
L 1159 0 
L 581 0 
L 581 3500 
L 1159 3500 
L 1159 2956 
Q 1341 3275 1631 3429 
Q 1922 3584 2338 3584 
Q 2397 3584 2469 3576 
Q 2541 3569 2628 3553 
L 2631 2963 
z
" transform="scale(0.015625)"/>
       <path id="DejaVuSans-75" d="M 544 1381 
L 544 3500 
L 1119 3500 
L 1119 1403 
Q 1119 906 1312 657 
Q 1506 409 1894 409 
Q 2359 409 2629 706 
Q 2900 1003 2900 1516 
L 2900 3500 
L 3475 3500 
L 3475 0 
L 2900 0 
L 2900 538 
Q 2691 219 2414 64 
Q 2138 -91 1772 -91 
Q 1169 -91 856 284 
Q 544 659 544 1381 
z
M 1991 3584 
L 1991 3584 
z
" transform="scale(0.015625)"/>
       <path id="DejaVuSans-73" d="M 2834 3397 
L 2834 2853 
Q 2591 2978 2328 3040 
Q 2066 3103 1784 3103 
Q 1356 3103 1142 2972 
Q 928 2841 928 2578 
Q 928 2378 1081 2264 
Q 1234 2150 1697 2047 
L 1894 2003 
Q 2506 1872 2764 1633 
Q 3022 1394 3022 966 
Q 3022 478 2636 193 
Q 2250 -91 1575 -91 
Q 1294 -91 989 -36 
Q 684 19 347 128 
L 347 722 
Q 666 556 975 473 
Q 1284 391 1588 391 
Q 1994 391 2212 530 
Q 2431 669 2431 922 
Q 2431 1156 2273 1281 
Q 2116 1406 1581 1522 
L 1381 1569 
Q 847 1681 609 1914 
Q 372 2147 372 2553 
Q 372 3047 722 3315 
Q 1072 3584 1716 3584 
Q 2034 3584 2315 3537 
Q 2597 3491 2834 3397 
z
" transform="scale(0.015625)"/>
      </defs>
      <use xlink:href="#DejaVuSans-47"/>
      <use xlink:href="#DejaVuSans-6c" x="77.490234"/>
      <use xlink:href="#DejaVuSans-6f" x="105.273438"/>
      <use xlink:href="#DejaVuSans-6d" x="166.455078"/>
      <use xlink:href="#DejaVuSans-65" x="263.867188"/>
      <use xlink:href="#DejaVuSans-72" x="325.390625"/>
      <use xlink:href="#DejaVuSans-75" x="366.503906"/>
      <use xlink:href="#DejaVuSans-6c" x="429.882812"/>
      <use xlink:href="#DejaVuSans-75" x="457.666016"/>
      <use xlink:href="#DejaVuSans-73" x="521.044922"/>
     </g>
    </g>
   </g>
   <g id="matplotlib.axis_2">
    <g id="ytick_1">
     <g id="line2d_1">
      <defs>
       <path id="m90b949baa3" d="M 0 0 
L -3.5 0 
" style="stroke: #000000; stroke-width: 0.8"/>
      </defs>
      <g>
       <use xlink:href="#m90b949baa3" x="164.178947" y="252" style="stroke: #000000; stroke-width: 0.8"/>
      </g>
     </g>
     <g id="text_5">
      <!-- 0 -->
      <g transform="translate(150.816447 255.799219)scale(0.1 -0.1)">
       <defs>
        <path id="DejaVuSans-30" d="M 2034 4250 
Q 1547 4250 1301 3770 
Q 1056 3291 1056 2328 
Q 1056 1369 1301 889 
Q 1547 409 2034 409 
Q 2525 409 2770 889 
Q 3016 1369 3016 2328 
Q 3016 3291 2770 3770 
Q 2525 4250 2034 4250 
z
M 2034 4750 
Q 2819 4750 3233 4129 
Q 3647 3509 3647 2328 
Q 3647 1150 3233 529 
Q 2819 -91 2034 -91 
Q 1250 -91 836 529 
Q 422 1150 422 2328 
Q 422 3509 836 4129 
Q 1250 4750 2034 4750 
z
" transform="scale(0.015625)"/>
       </defs>
       <use xlink:href="#DejaVuSans-30"/>
      </g>
     </g>
    </g>
    <g id="ytick_2">
     <g id="line2d_2">
      <g>
       <use xlink:href="#m90b949baa3" x="164.178947" y="223.389474" style="stroke: #000000; stroke-width: 0.8"/>
      </g>
     </g>
     <g id="text_6">
      <!-- 250 -->
      <g transform="translate(138.091447 227.188692)scale(0.1 -0.1)">
       <defs>
        <path id="DejaVuSans-35" d="M 691 4666 
L 3169 4666 
L 3169 4134 
L 1269 4134 
L 1269 2991 
Q 1406 3038 1543 3061 
Q 1681 3084 1819 3084 
Q 2600 3084 3056 2656 
Q 3513 2228 3513 1497 
Q 3513 744 3044 326 
Q 2575 -91 1722 -91 
Q 1428 -91 1123 -41 
Q 819 9 494 109 
L 494 744 
Q 775 591 1075 516 
Q 1375 441 1709 441 
Q 2250 441 2565 725 
Q 2881 1009 2881 1497 
Q 2881 1984 2565 2268 
Q 2250 2553 1709 2553 
Q 1456 2553 1204 2497 
Q 953 2441 691 2322 
L 691 4666 
z
" transform="scale(0.015625)"/>
       </defs>
       <use xlink:href="#DejaVuSans-32"/>
       <use xlink:href="#DejaVuSans-35" x="63.623047"/>
       <use xlink:href="#DejaVuSans-30" x="127.246094"/>
      </g>
     </g>
    </g>
    <g id="ytick_3">
     <g id="line2d_3">
      <g>
       <use xlink:href="#m90b949baa3" x="164.178947" y="194.778947" style="stroke: #000000; stroke-width: 0.8"/>
      </g>
     </g>
     <g id="text_7">
      <!-- 500 -->
      <g transform="translate(138.091447 198.578166)scale(0.1 -0.1)">
       <use xlink:href="#DejaVuSans-35"/>
       <use xlink:href="#DejaVuSans-30" x="63.623047"/>
       <use xlink:href="#DejaVuSans-30" x="127.246094"/>
      </g>
     </g>
    </g>
    <g id="ytick_4">
     <g id="line2d_4">
      <g>
       <use xlink:href="#m90b949baa3" x="164.178947" y="166.168421" style="stroke: #000000; stroke-width: 0.8"/>
      </g>
     </g>
     <g id="text_8">
      <!-- 750 -->
      <g transform="translate(138.091447 169.96764)scale(0.1 -0.1)">
       <defs>
        <path id="DejaVuSans-37" d="M 525 4666 
L 3525 4666 
L 3525 4397 
L 1831 0 
L 1172 0 
L 2766 4134 
L 525 4134 
L 525 4666 
z
" transform="scale(0.015625)"/>
       </defs>
       <use xlink:href="#DejaVuSans-37"/>
       <use xlink:href="#DejaVuSans-35" x="63.623047"/>
       <use xlink:href="#DejaVuSans-30" x="127.246094"/>
      </g>
     </g>
    </g>
    <g id="ytick_5">
     <g id="line2d_5">
      <g>
       <use xlink:href="#m90b949baa3" x="164.178947" y="137.557895" style="stroke: #000000; stroke-width: 0.8"/>
      </g>
     </g>
     <g id="text_9">
      <!-- 1000 -->
      <g transform="translate(131.728947 141.357113)scale(0.1 -0.1)">
       <use xlink:href="#DejaVuSans-31"/>
       <use xlink:href="#DejaVuSans-30" x="63.623047"/>
       <use xlink:href="#DejaVuSans-30" x="127.246094"/>
       <use xlink:href="#DejaVuSans-30" x="190.869141"/>
      </g>
     </g>
    </g>
    <g id="ytick_6">
     <g id="line2d_6">
      <g>
       <use xlink:href="#m90b949baa3" x="164.178947" y="108.947368" style="stroke: #000000; stroke-width: 0.8"/>
      </g>
     </g>
     <g id="text_10">
      <!-- 1250 -->
      <g transform="translate(131.728947 112.746587)scale(0.1 -0.1)">
       <use xlink:href="#DejaVuSans-31"/>
       <use xlink:href="#DejaVuSans-32" x="63.623047"/>
       <use xlink:href="#DejaVuSans-35" x="127.246094"/>
       <use xlink:href="#DejaVuSans-30" x="190.869141"/>
      </g>
     </g>
    </g>
    <g id="ytick_7">
     <g id="line2d_7">
      <g>
       <use xlink:href="#m90b949baa3" x="164.178947" y="80.336842" style="stroke: #000000; stroke-width: 0.8"/>
      </g>
     </g>
     <g id="text_11">
      <!-- 1500 -->
      <g transform="translate(131.728947 84.136061)scale(0.1 -0.1)">
       <use xlink:href="#DejaVuSans-31"/>
       <use xlink:href="#DejaVuSans-35" x="63.623047"/>
       <use xlink:href="#DejaVuSans-30" x="127.246094"/>
       <use xlink:href="#DejaVuSans-30" x="190.869141"/>
      </g>
     </g>
    </g>
    <g id="ytick_8">
     <g id="line2d_8">
      <g>
       <use xlink:href="#m90b949baa3" x="164.178947" y="51.726316" style="stroke: #000000; stroke-width: 0.8"/>
      </g>
     </g>
     <g id="text_12">
      <!-- 1750 -->
      <g transform="translate(131.728947 55.525535)scale(0.1 -0.1)">
       <use xlink:href="#DejaVuSans-31"/>
       <use xlink:href="#DejaVuSans-37" x="63.623047"/>
       <use xlink:href="#DejaVuSans-35" x="127.246094"/>
       <use xlink:href="#DejaVuSans-30" x="190.869141"/>
      </g>
     </g>
    </g>
    <g id="text_13">
     <!-- Total # of presynaptic sites -->
     <g transform="translate(125.233322 224.80875)rotate(-90)scale(0.12 -0.12)">
      <defs>
       <path id="DejaVuSans-54" d="M -19 4666 
L 3928 4666 
L 3928 4134 
L 2272 4134 
L 2272 0 
L 1638 0 
L 1638 4134 
L -19 4134 
L -19 4666 
z
" transform="scale(0.015625)"/>
       <path id="DejaVuSans-74" d="M 1172 4494 
L 1172 3500 
L 2356 3500 
L 2356 3053 
L 1172 3053 
L 1172 1153 
Q 1172 725 1289 603 
Q 1406 481 1766 481 
L 2356 481 
L 2356 0 
L 1766 0 
Q 1100 0 847 248 
Q 594 497 594 1153 
L 594 3053 
L 172 3053 
L 172 3500 
L 594 3500 
L 594 4494 
L 1172 4494 
z
" transform="scale(0.015625)"/>
       <path id="DejaVuSans-61" d="M 2194 1759 
Q 1497 1759 1228 1600 
Q 959 1441 959 1056 
Q 959 750 1161 570 
Q 1363 391 1709 391 
Q 2188 391 2477 730 
Q 2766 1069 2766 1631 
L 2766 1759 
L 2194 1759 
z
M 3341 1997 
L 3341 0 
L 2766 0 
L 2766 531 
Q 2569 213 2275 61 
Q 1981 -91 1556 -91 
Q 1019 -91 701 211 
Q 384 513 384 1019 
Q 384 1609 779 1909 
Q 1175 2209 1959 2209 
L 2766 2209 
L 2766 2266 
Q 2766 2663 2505 2880 
Q 2244 3097 1772 3097 
Q 1472 3097 1187 3025 
Q 903 2953 641 2809 
L 641 3341 
Q 956 3463 1253 3523 
Q 1550 3584 1831 3584 
Q 2591 3584 2966 3190 
Q 3341 2797 3341 1997 
z
" transform="scale(0.015625)"/>
       <path id="DejaVuSans-20" transform="scale(0.015625)"/>
       <path id="DejaVuSans-23" d="M 3272 2816 
L 2363 2816 
L 2100 1772 
L 3016 1772 
L 3272 2816 
z
M 2803 4594 
L 2478 3297 
L 3391 3297 
L 3719 4594 
L 4219 4594 
L 3897 3297 
L 4872 3297 
L 4872 2816 
L 3775 2816 
L 3519 1772 
L 4513 1772 
L 4513 1294 
L 3397 1294 
L 3072 0 
L 2572 0 
L 2894 1294 
L 1978 1294 
L 1656 0 
L 1153 0 
L 1478 1294 
L 494 1294 
L 494 1772 
L 1594 1772 
L 1856 2816 
L 850 2816 
L 850 3297 
L 1978 3297 
L 2297 4594 
L 2803 4594 
z
" transform="scale(0.015625)"/>
       <path id="DejaVuSans-66" d="M 2375 4863 
L 2375 4384 
L 1825 4384 
Q 1516 4384 1395 4259 
Q 1275 4134 1275 3809 
L 1275 3500 
L 2222 3500 
L 2222 3053 
L 1275 3053 
L 1275 0 
L 697 0 
L 697 3053 
L 147 3053 
L 147 3500 
L 697 3500 
L 697 3744 
Q 697 4328 969 4595 
Q 1241 4863 1831 4863 
L 2375 4863 
z
" transform="scale(0.015625)"/>
       <path id="DejaVuSans-70" d="M 1159 525 
L 1159 -1331 
L 581 -1331 
L 581 3500 
L 1159 3500 
L 1159 2969 
Q 1341 3281 1617 3432 
Q 1894 3584 2278 3584 
Q 2916 3584 3314 3078 
Q 3713 2572 3713 1747 
Q 3713 922 3314 415 
Q 2916 -91 2278 -91 
Q 1894 -91 1617 61 
Q 1341 213 1159 525 
z
M 3116 1747 
Q 3116 2381 2855 2742 
Q 2594 3103 2138 3103 
Q 1681 3103 1420 2742 
Q 1159 2381 1159 1747 
Q 1159 1113 1420 752 
Q 1681 391 2138 391 
Q 2594 391 2855 752 
Q 3116 1113 3116 1747 
z
" transform="scale(0.015625)"/>
       <path id="DejaVuSans-79" d="M 2059 -325 
Q 1816 -950 1584 -1140 
Q 1353 -1331 966 -1331 
L 506 -1331 
L 506 -850 
L 844 -850 
Q 1081 -850 1212 -737 
Q 1344 -625 1503 -206 
L 1606 56 
L 191 3500 
L 800 3500 
L 1894 763 
L 2988 3500 
L 3597 3500 
L 2059 -325 
z
" transform="scale(0.015625)"/>
       <path id="DejaVuSans-6e" d="M 3513 2113 
L 3513 0 
L 2938 0 
L 2938 2094 
Q 2938 2591 2744 2837 
Q 2550 3084 2163 3084 
Q 1697 3084 1428 2787 
Q 1159 2491 1159 1978 
L 1159 0 
L 581 0 
L 581 3500 
L 1159 3500 
L 1159 2956 
Q 1366 3272 1645 3428 
Q 1925 3584 2291 3584 
Q 2894 3584 3203 3211 
Q 3513 2838 3513 2113 
z
" transform="scale(0.015625)"/>
       <path id="DejaVuSans-69" d="M 603 3500 
L 1178 3500 
L 1178 0 
L 603 0 
L 603 3500 
z
M 603 4863 
L 1178 4863 
L 1178 4134 
L 603 4134 
L 603 4863 
z
" transform="scale(0.015625)"/>
       <path id="DejaVuSans-63" d="M 3122 3366 
L 3122 2828 
Q 2878 2963 2633 3030 
Q 2388 3097 2138 3097 
Q 1578 3097 1268 2742 
Q 959 2388 959 1747 
Q 959 1106 1268 751 
Q 1578 397 2138 397 
Q 2388 397 2633 464 
Q 2878 531 3122 666 
L 3122 134 
Q 2881 22 2623 -34 
Q 2366 -91 2075 -91 
Q 1284 -91 818 406 
Q 353 903 353 1747 
Q 353 2603 823 3093 
Q 1294 3584 2113 3584 
Q 2378 3584 2631 3529 
Q 2884 3475 3122 3366 
z
" transform="scale(0.015625)"/>
      </defs>
      <use xlink:href="#DejaVuSans-54"/>
      <use xlink:href="#DejaVuSans-6f" x="44.083984"/>
      <use xlink:href="#DejaVuSans-74" x="105.265625"/>
      <use xlink:href="#DejaVuSans-61" x="144.474609"/>
      <use xlink:href="#DejaVuSans-6c" x="205.753906"/>
      <use xlink:href="#DejaVuSans-20" x="233.537109"/>
      <use xlink:href="#DejaVuSans-23" x="265.324219"/>
      <use xlink:href="#DejaVuSans-20" x="349.113281"/>
      <use xlink:href="#DejaVuSans-6f" x="380.900391"/>
      <use xlink:href="#DejaVuSans-66" x="442.082031"/>
      <use xlink:href="#DejaVuSans-20" x="477.287109"/>
      <use xlink:href="#DejaVuSans-70" x="509.074219"/>
      <use xlink:href="#DejaVuSans-72" x="572.550781"/>
      <use xlink:href="#DejaVuSans-65" x="611.414062"/>
      <use xlink:href="#DejaVuSans-73" x="672.9375"/>
      <use xlink:href="#DejaVuSans-79" x="725.037109"/>
      <use xlink:href="#DejaVuSans-6e" x="784.216797"/>
      <use xlink:href="#DejaVuSans-61" x="847.595703"/>
      <use xlink:href="#DejaVuSans-70" x="908.875"/>
      <use xlink:href="#DejaVuSans-74" x="972.351562"/>
      <use xlink:href="#DejaVuSans-69" x="1011.560547"/>
      <use xlink:href="#DejaVuSans-63" x="1039.34375"/>
      <use xlink:href="#DejaVuSans-20" x="1094.324219"/>
      <use xlink:href="#DejaVuSans-73" x="1126.111328"/>
      <use xlink:href="#DejaVuSans-69" x="1178.210938"/>
      <use xlink:href="#DejaVuSans-74" x="1205.994141"/>
      <use xlink:href="#DejaVuSans-65" x="1245.203125"/>
      <use xlink:href="#DejaVuSans-73" x="1306.726562"/>
     </g>
    </g>
   </g>
   <g id="line2d_9">
    <path d="M 180.547504 78.849095 
L 185.957759 78.849095 
" clip-path="url(#pe0f60ce451)" style="fill: none; stroke: #000000; stroke-width: 1.5; stroke-linecap: square"/>
   </g>
   <g id="line2d_10">
    <path d="M 209.528088 198.555537 
L 233.271912 198.555537 
" clip-path="url(#pe0f60ce451)" style="fill: none; stroke: #000000; stroke-width: 1.5; stroke-linecap: square"/>
   </g>
   <g id="line2d_11">
    <path d="M 245.064603 190.098265 
L 274.030134 190.098265 
" clip-path="url(#pe0f60ce451)" style="fill: none; stroke: #000000; stroke-width: 1.5; stroke-linecap: square"/>
   </g>
   <g id="patch_3">
    <path d="M 164.178947 252 
L 164.178947 34.56 
" style="fill: none; stroke: #000000; stroke-width: 0.8; stroke-linejoin: miter; stroke-linecap: square"/>
   </g>
   <g id="PathCollection_1">
    <defs>
     <path id="C0_0_d69c0254de" d="M 0 2.5 
C 0.663008 2.5 1.29895 2.236584 1.767767 1.767767 
C 2.236584 1.29895 2.5 0.663008 2.5 -0 
C 2.5 -0.663008 2.236584 -1.29895 1.767767 -1.767767 
C 1.29895 -2.236584 0.663008 -2.5 0 -2.5 
C -0.663008 -2.5 -1.29895 -2.236584 -1.767767 -1.767767 
C -2.236584 -1.29895 -2.5 -0.663008 -2.5 0 
C -2.5 0.663008 -2.236584 1.29895 -1.767767 1.767767 
C -1.29895 2.236584 -0.663008 2.5 0 2.5 
z
"/>
    </defs>
    <g clip-path="url(#pe0f60ce451)">
     <use xlink:href="#C0_0_d69c0254de" x="180.796223" y="39.824337" style="fill: #ee82ee"/>
    </g>
    <g clip-path="url(#pe0f60ce451)">
     <use xlink:href="#C0_0_d69c0254de" x="186.934455" y="60.6528" style="fill: #ee82ee"/>
    </g>
    <g clip-path="url(#pe0f60ce451)">
     <use xlink:href="#C0_0_d69c0254de" x="181.802188" y="100.478653" style="fill: #ee82ee"/>
    </g>
    <g clip-path="url(#pe0f60ce451)">
     <use xlink:href="#C0_0_d69c0254de" x="182.249388" y="104.1408" style="fill: #ee82ee"/>
    </g>
    <g clip-path="url(#pe0f60ce451)">
     <use xlink:href="#C0_0_d69c0254de" x="180.678845" y="71.868126" style="fill: #ee82ee"/>
    </g>
    <g clip-path="url(#pe0f60ce451)">
     <use xlink:href="#C0_0_d69c0254de" x="184.561828" y="77.704674" style="fill: #ee82ee"/>
    </g>
    <g clip-path="url(#pe0f60ce451)">
     <use xlink:href="#C0_0_d69c0254de" x="180.574254" y="41.769853" style="fill: #ee82ee"/>
    </g>
    <g clip-path="url(#pe0f60ce451)">
     <use xlink:href="#C0_0_d69c0254de" x="184.086685" y="70.723705" style="fill: #ee82ee"/>
    </g>
    <g clip-path="url(#pe0f60ce451)">
     <use xlink:href="#C0_0_d69c0254de" x="186.371774" y="160.446316" style="fill: #ee82ee"/>
    </g>
    <g clip-path="url(#pe0f60ce451)">
     <use xlink:href="#C0_0_d69c0254de" x="186.636368" y="60.881684" style="fill: #ee82ee"/>
    </g>
   </g>
   <g id="PathCollection_2">
    <defs>
     <path id="C1_0_d47d4b7c74" d="M 0 2.5 
C 0.663008 2.5 1.29895 2.236584 1.767767 1.767767 
C 2.236584 1.29895 2.5 0.663008 2.5 -0 
C 2.5 -0.663008 2.236584 -1.29895 1.767767 -1.767767 
C 1.29895 -2.236584 0.663008 -2.5 0 -2.5 
C -0.663008 -2.5 -1.29895 -2.236584 -1.767767 -1.767767 
C -2.236584 -1.29895 -2.5 -0.663008 -2.5 0 
C -2.5 0.663008 -2.236584 1.29895 -1.767767 1.767767 
C -1.29895 2.236584 -0.663008 2.5 0 2.5 
z
"/>
    </defs>
    <g clip-path="url(#pe0f60ce451)">
     <use xlink:href="#C1_0_d47d4b7c74" x="218.393299" y="194.092295" style="fill: #0000ff"/>
    </g>
    <g clip-path="url(#pe0f60ce451)">
     <use xlink:href="#C1_0_d47d4b7c74" x="220.829012" y="193.176758" style="fill: #0000ff"/>
    </g>
    <g clip-path="url(#pe0f60ce451)">
     <use xlink:href="#C1_0_d47d4b7c74" x="220.40399" y="203.362105" style="fill: #0000ff"/>
    </g>
    <g clip-path="url(#pe0f60ce451)">
     <use xlink:href="#C1_0_d47d4b7c74" x="222.359604" y="194.893389" style="fill: #0000ff"/>
    </g>
    <g clip-path="url(#pe0f60ce451)">
     <use xlink:href="#C1_0_d47d4b7c74" x="219.951456" y="191.917895" style="fill: #0000ff"/>
    </g>
    <g clip-path="url(#pe0f60ce451)">
     <use xlink:href="#C1_0_d47d4b7c74" x="219.523841" y="195.007832" style="fill: #0000ff"/>
    </g>
    <g clip-path="url(#pe0f60ce451)">
     <use xlink:href="#C1_0_d47d4b7c74" x="223.212114" y="199.242189" style="fill: #0000ff"/>
    </g>
    <g clip-path="url(#pe0f60ce451)">
     <use xlink:href="#C1_0_d47d4b7c74" x="220.191823" y="198.097768" style="fill: #0000ff"/>
    </g>
    <g clip-path="url(#pe0f60ce451)">
     <use xlink:href="#C1_0_d47d4b7c74" x="222.44683" y="192.490105" style="fill: #0000ff"/>
    </g>
    <g clip-path="url(#pe0f60ce451)">
     <use xlink:href="#C1_0_d47d4b7c74" x="218.42134" y="223.275032" style="fill: #0000ff"/>
    </g>
   </g>
   <g id="PathCollection_3">
    <defs>
     <path id="C2_0_3a916f020b" d="M 0 2.5 
C 0.663008 2.5 1.29895 2.236584 1.767767 1.767767 
C 2.236584 1.29895 2.5 0.663008 2.5 -0 
C 2.5 -0.663008 2.236584 -1.29895 1.767767 -1.767767 
C 1.29895 -2.236584 0.663008 -2.5 0 -2.5 
C -0.663008 -2.5 -1.29895 -2.236584 -1.767767 -1.767767 
C -2.236584 -1.29895 -2.5 -0.663008 -2.5 0 
C -2.5 0.663008 -2.236584 1.29895 -1.767767 1.767767 
C -1.29895 2.236584 -0.663008 2.5 0 2.5 
z
"/>
    </defs>
    <g clip-path="url(#pe0f60ce451)">
     <use xlink:href="#C2_0_3a916f020b" x="262.228842" y="191.689011" style="fill: #00fa9a"/>
    </g>
    <g clip-path="url(#pe0f60ce451)">
     <use xlink:href="#C2_0_3a916f020b" x="258.05039" y="191.917895" style="fill: #00fa9a"/>
    </g>
    <g clip-path="url(#pe0f60ce451)">
     <use xlink:href="#C2_0_3a916f020b" x="260.547079" y="198.669979" style="fill: #00fa9a"/>
    </g>
    <g clip-path="url(#pe0f60ce451)">
     <use xlink:href="#C2_0_3a916f020b" x="257.493126" y="178.413726" style="fill: #00fa9a"/>
    </g>
    <g clip-path="url(#pe0f60ce451)">
     <use xlink:href="#C2_0_3a916f020b" x="262.252079" y="193.176758" style="fill: #00fa9a"/>
    </g>
    <g clip-path="url(#pe0f60ce451)">
     <use xlink:href="#C2_0_3a916f020b" x="256.122861" y="186.768" style="fill: #00fa9a"/>
    </g>
    <g clip-path="url(#pe0f60ce451)">
     <use xlink:href="#C2_0_3a916f020b" x="259.98048" y="196.037811" style="fill: #00fa9a"/>
    </g>
    <g clip-path="url(#pe0f60ce451)">
     <use xlink:href="#C2_0_3a916f020b" x="255.958865" y="185.966905" style="fill: #00fa9a"/>
    </g>
    <g clip-path="url(#pe0f60ce451)">
     <use xlink:href="#C2_0_3a916f020b" x="256.924136" y="185.509137" style="fill: #00fa9a"/>
    </g>
    <g clip-path="url(#pe0f60ce451)">
     <use xlink:href="#C2_0_3a916f020b" x="260.129136" y="192.833432" style="fill: #00fa9a"/>
    </g>
   </g>
  </g>
 </g>
 <defs>
  <clipPath id="pe0f60ce451">
   <rect x="164.178947" y="34.56" width="114.442105" height="217.44"/>
  </clipPath>
 </defs>
</svg>
