<?xml version="1.0" encoding="utf-8" standalone="no"?>
<!DOCTYPE svg PUBLIC "-//W3C//DTD SVG 1.1//EN"
  "http://www.w3.org/Graphics/SVG/1.1/DTD/svg11.dtd">
<svg xmlns:xlink="http://www.w3.org/1999/xlink" width="432pt" height="288pt" viewBox="0 0 432 288" xmlns="http://www.w3.org/2000/svg" version="1.1">
 <metadata>
  <rdf:RDF xmlns:dc="http://purl.org/dc/elements/1.1/" xmlns:cc="http://creativecommons.org/ns#" xmlns:rdf="http://www.w3.org/1999/02/22-rdf-syntax-ns#">
   <cc:Work>
    <dc:type rdf:resource="http://purl.org/dc/dcmitype/StillImage"/>
    <dc:date>2024-01-28T09:44:44.893125</dc:date>
    <dc:format>image/svg+xml</dc:format>
    <dc:creator>
     <cc:Agent>
      <dc:title>Matplotlib v3.5.1, https://matplotlib.org/</dc:title>
     </cc:Agent>
    </dc:creator>
   </cc:Work>
  </rdf:RDF>
 </metadata>
 <defs>
  <style type="text/css">*{stroke-linejoin: round; stroke-linecap: butt}</style>
 </defs>
 <g id="figure_1">
  <g id="patch_1">
   <path d="M 0 288 
L 432 288 
L 432 0 
L 0 0 
L 0 288 
z
" style="fill: none"/>
  </g>
  <g id="axes_1">
   <g id="patch_2">
    <path d="M 163.157143 252 
L 279.642857 252 
L 279.642857 34.56 
L 163.157143 34.56 
z
" style="fill: #ffffff"/>
   </g>
   <g id="PolyCollection_1">
    <defs>
     <path id="me608e44a6c" d="M 184.828615 -133.612312 
L 180.314242 -133.612312 
L 180.310139 -134.489982 
L 180.312457 -135.367651 
L 180.320869 -136.245321 
L 180.334942 -137.122991 
L 180.354143 -138.00066 
L 180.377843 -138.87833 
L 180.40532 -139.756 
L 180.435769 -140.633669 
L 180.468306 -141.511339 
L 180.501976 -142.389009 
L 180.535769 -143.266678 
L 180.568622 -144.144348 
L 180.599435 -145.022017 
L 180.627078 -145.899687 
L 180.650407 -146.777357 
L 180.668269 -147.655026 
L 180.679519 -148.532696 
L 180.683023 -149.410366 
L 180.677678 -150.288035 
L 180.66241 -151.165705 
L 180.636194 -152.043375 
L 180.598054 -152.921044 
L 180.547075 -153.798714 
L 180.482407 -154.676384 
L 180.403274 -155.554053 
L 180.308976 -156.431723 
L 180.198898 -157.309393 
L 180.072507 -158.187062 
L 179.929363 -159.064732 
L 179.769115 -159.942402 
L 179.591508 -160.820071 
L 179.396381 -161.697741 
L 179.183669 -162.575411 
L 178.953407 -163.45308 
L 178.705725 -164.33075 
L 178.440854 -165.20842 
L 178.159122 -166.086089 
L 177.860959 -166.963759 
L 177.546892 -167.841429 
L 177.217548 -168.719098 
L 176.873656 -169.596768 
L 176.516044 -170.474437 
L 176.145642 -171.352107 
L 175.763482 -172.229777 
L 175.370696 -173.107446 
L 174.96852 -173.985116 
L 174.558291 -174.862786 
L 174.141445 -175.740455 
L 173.71952 -176.618125 
L 173.294151 -177.495795 
L 172.867065 -178.373464 
L 172.440081 -179.251134 
L 172.015099 -180.128804 
L 171.594098 -181.006473 
L 171.179123 -181.884143 
L 170.772274 -182.761813 
L 170.375697 -183.639482 
L 169.991565 -184.517152 
L 169.622065 -185.394822 
L 169.269376 -186.272491 
L 168.935653 -187.150161 
L 168.623003 -188.027831 
L 168.333463 -188.9055 
L 168.068979 -189.78317 
L 167.83138 -190.66084 
L 167.622356 -191.538509 
L 167.443436 -192.416179 
L 167.295965 -193.293848 
L 167.181084 -194.171518 
L 167.099715 -195.049188 
L 167.052541 -195.926857 
L 167.04 -196.804527 
L 167.062269 -197.682197 
L 167.119263 -198.559866 
L 167.210635 -199.437536 
L 167.335773 -200.315206 
L 167.49381 -201.192875 
L 167.683637 -202.070545 
L 167.903911 -202.948215 
L 168.153076 -203.825884 
L 168.429385 -204.703554 
L 168.73092 -205.581224 
L 169.055618 -206.458893 
L 169.401301 -207.336563 
L 169.7657 -208.214233 
L 170.146488 -209.091902 
L 170.541302 -209.969572 
L 170.947776 -210.847242 
L 171.363568 -211.724911 
L 171.78638 -212.602581 
L 172.213982 -213.480251 
L 172.644238 -214.35792 
L 173.075114 -215.23559 
L 173.5047 -216.11326 
L 173.931219 -216.990929 
L 174.353036 -217.868599 
L 174.768662 -218.746268 
L 175.176761 -219.623938 
L 175.576147 -220.501608 
L 189.56671 -220.501608 
L 189.56671 -220.501608 
L 189.966096 -219.623938 
L 190.374195 -218.746268 
L 190.789821 -217.868599 
L 191.211638 -216.990929 
L 191.638157 -216.11326 
L 192.067743 -215.23559 
L 192.498619 -214.35792 
L 192.928875 -213.480251 
L 193.356478 -212.602581 
L 193.779289 -211.724911 
L 194.195081 -210.847242 
L 194.601556 -209.969572 
L 194.996369 -209.091902 
L 195.377157 -208.214233 
L 195.741556 -207.336563 
L 196.087239 -206.458893 
L 196.411938 -205.581224 
L 196.713472 -204.703554 
L 196.989781 -203.825884 
L 197.238946 -202.948215 
L 197.45922 -202.070545 
L 197.649047 -201.192875 
L 197.807085 -200.315206 
L 197.932222 -199.437536 
L 198.023594 -198.559866 
L 198.080588 -197.682197 
L 198.102857 -196.804527 
L 198.090316 -195.926857 
L 198.043143 -195.049188 
L 197.961773 -194.171518 
L 197.846893 -193.293848 
L 197.699421 -192.416179 
L 197.520501 -191.538509 
L 197.311477 -190.66084 
L 197.073878 -189.78317 
L 196.809394 -188.9055 
L 196.519854 -188.027831 
L 196.207204 -187.150161 
L 195.873481 -186.272491 
L 195.520792 -185.394822 
L 195.151292 -184.517152 
L 194.76716 -183.639482 
L 194.370583 -182.761813 
L 193.963735 -181.884143 
L 193.548759 -181.006473 
L 193.127758 -180.128804 
L 192.702776 -179.251134 
L 192.275792 -178.373464 
L 191.848706 -177.495795 
L 191.423337 -176.618125 
L 191.001412 -175.740455 
L 190.584567 -174.862786 
L 190.174337 -173.985116 
L 189.772161 -173.107446 
L 189.379375 -172.229777 
L 188.997215 -171.352107 
L 188.626813 -170.474437 
L 188.269201 -169.596768 
L 187.925309 -168.719098 
L 187.595966 -167.841429 
L 187.281898 -166.963759 
L 186.983735 -166.086089 
L 186.702004 -165.20842 
L 186.437132 -164.33075 
L 186.189451 -163.45308 
L 185.959188 -162.575411 
L 185.746476 -161.697741 
L 185.551349 -160.820071 
L 185.373742 -159.942402 
L 185.213494 -159.064732 
L 185.07035 -158.187062 
L 184.94396 -157.309393 
L 184.833881 -156.431723 
L 184.739584 -155.554053 
L 184.66045 -154.676384 
L 184.595782 -153.798714 
L 184.544803 -152.921044 
L 184.506663 -152.043375 
L 184.480447 -151.165705 
L 184.465179 -150.288035 
L 184.459834 -149.410366 
L 184.463338 -148.532696 
L 184.474588 -147.655026 
L 184.49245 -146.777357 
L 184.515779 -145.899687 
L 184.543422 -145.022017 
L 184.574235 -144.144348 
L 184.607088 -143.266678 
L 184.640881 -142.389009 
L 184.674552 -141.511339 
L 184.707088 -140.633669 
L 184.737537 -139.756 
L 184.765014 -138.87833 
L 184.788714 -138.00066 
L 184.807915 -137.122991 
L 184.821988 -136.245321 
L 184.8304 -135.367651 
L 184.832718 -134.489982 
L 184.828615 -133.612312 
z
" style="stroke: #ee82ee; stroke-width: 1.5"/>
    </defs>
    <g clip-path="url(#pb3542fa744)">
     <use xlink:href="#me608e44a6c" x="0" y="288" style="fill: #ffffff; stroke: #ee82ee; stroke-width: 1.5"/>
    </g>
   </g>
   <g id="PolyCollection_2">
    <defs>
     <path id="m23a5c75775" d="M 228.359805 -56.448658 
L 214.440195 -56.448658 
L 214.227196 -57.411756 
L 214.020149 -58.374854 
L 213.819732 -59.337951 
L 213.626589 -60.301049 
L 213.441318 -61.264146 
L 213.264472 -62.227244 
L 213.096553 -63.190342 
L 212.938007 -64.153439 
L 212.789221 -65.116537 
L 212.650524 -66.079634 
L 212.522183 -67.042732 
L 212.404401 -68.00583 
L 212.297316 -68.968927 
L 212.201008 -69.932025 
L 212.11549 -70.895122 
L 212.040719 -71.85822 
L 211.976592 -72.821318 
L 211.922953 -73.784415 
L 211.879594 -74.747513 
L 211.846259 -75.71061 
L 211.822651 -76.673708 
L 211.808436 -77.636805 
L 211.803245 -78.599903 
L 211.806685 -79.563001 
L 211.818338 -80.526098 
L 211.837772 -81.489196 
L 211.864544 -82.452293 
L 211.898207 -83.415391 
L 211.938312 -84.378489 
L 211.984418 -85.341586 
L 212.036092 -86.304684 
L 212.092916 -87.267781 
L 212.154491 -88.230879 
L 212.220438 -89.193977 
L 212.290404 -90.157074 
L 212.364064 -91.120172 
L 212.44112 -92.083269 
L 212.521304 -93.046367 
L 212.60438 -94.009465 
L 212.690142 -94.972562 
L 212.778414 -95.93566 
L 212.869049 -96.898757 
L 212.961928 -97.861855 
L 213.056956 -98.824953 
L 213.154064 -99.78805 
L 213.2532 -100.751148 
L 213.354331 -101.714245 
L 213.457435 -102.677343 
L 213.562503 -103.640441 
L 213.66953 -104.603538 
L 213.778515 -105.566636 
L 213.889455 -106.529733 
L 214.002343 -107.492831 
L 214.117165 -108.455929 
L 214.233892 -109.419026 
L 214.352486 -110.382124 
L 214.472888 -111.345221 
L 214.595025 -112.308319 
L 214.7188 -113.271417 
L 214.844098 -114.234514 
L 214.970779 -115.197612 
L 215.098685 -116.160709 
L 215.227635 -117.123807 
L 215.357427 -118.086905 
L 215.487841 -119.050002 
L 215.618641 -120.0131 
L 215.749577 -120.976197 
L 215.880387 -121.939295 
L 216.010802 -122.902393 
L 216.140546 -123.86549 
L 216.269345 -124.828588 
L 216.396928 -125.791685 
L 216.523028 -126.754783 
L 216.647393 -127.717881 
L 216.769783 -128.680978 
L 216.889977 -129.644076 
L 217.007774 -130.607173 
L 217.122999 -131.570271 
L 217.235505 -132.533369 
L 217.345172 -133.496466 
L 217.451912 -134.459564 
L 217.555668 -135.422661 
L 217.656416 -136.385759 
L 217.754162 -137.348857 
L 217.848948 -138.311954 
L 217.940841 -139.275052 
L 218.029939 -140.238149 
L 218.116367 -141.201247 
L 218.200272 -142.164345 
L 218.281821 -143.127442 
L 218.361198 -144.09054 
L 218.438601 -145.053637 
L 218.514236 -146.016735 
L 218.588314 -146.979833 
L 218.66105 -147.94293 
L 218.732651 -148.906028 
L 218.803323 -149.869125 
L 218.873258 -150.832223 
L 218.942635 -151.795321 
L 223.857365 -151.795321 
L 223.857365 -151.795321 
L 223.926742 -150.832223 
L 223.996677 -149.869125 
L 224.067349 -148.906028 
L 224.13895 -147.94293 
L 224.211686 -146.979833 
L 224.285764 -146.016735 
L 224.361399 -145.053637 
L 224.438802 -144.09054 
L 224.518179 -143.127442 
L 224.599728 -142.164345 
L 224.683633 -141.201247 
L 224.770061 -140.238149 
L 224.859159 -139.275052 
L 224.951052 -138.311954 
L 225.045838 -137.348857 
L 225.143584 -136.385759 
L 225.244332 -135.422661 
L 225.348088 -134.459564 
L 225.454828 -133.496466 
L 225.564495 -132.533369 
L 225.677001 -131.570271 
L 225.792226 -130.607173 
L 225.910023 -129.644076 
L 226.030217 -128.680978 
L 226.152607 -127.717881 
L 226.276972 -126.754783 
L 226.403072 -125.791685 
L 226.530655 -124.828588 
L 226.659454 -123.86549 
L 226.789198 -122.902393 
L 226.919613 -121.939295 
L 227.050423 -120.976197 
L 227.181359 -120.0131 
L 227.312159 -119.050002 
L 227.442573 -118.086905 
L 227.572365 -117.123807 
L 227.701315 -116.160709 
L 227.829221 -115.197612 
L 227.955902 -114.234514 
L 228.0812 -113.271417 
L 228.204975 -112.308319 
L 228.327112 -111.345221 
L 228.447514 -110.382124 
L 228.566108 -109.419026 
L 228.682835 -108.455929 
L 228.797657 -107.492831 
L 228.910545 -106.529733 
L 229.021485 -105.566636 
L 229.13047 -104.603538 
L 229.237497 -103.640441 
L 229.342565 -102.677343 
L 229.445669 -101.714245 
L 229.5468 -100.751148 
L 229.645936 -99.78805 
L 229.743044 -98.824953 
L 229.838072 -97.861855 
L 229.930951 -96.898757 
L 230.021586 -95.93566 
L 230.109858 -94.972562 
L 230.19562 -94.009465 
L 230.278696 -93.046367 
L 230.35888 -92.083269 
L 230.435936 -91.120172 
L 230.509596 -90.157074 
L 230.579562 -89.193977 
L 230.645509 -88.230879 
L 230.707084 -87.267781 
L 230.763908 -86.304684 
L 230.815582 -85.341586 
L 230.861688 -84.378489 
L 230.901793 -83.415391 
L 230.935456 -82.452293 
L 230.962228 -81.489196 
L 230.981662 -80.526098 
L 230.993315 -79.563001 
L 230.996755 -78.599903 
L 230.991564 -77.636805 
L 230.977349 -76.673708 
L 230.953741 -75.71061 
L 230.920406 -74.747513 
L 230.877047 -73.784415 
L 230.823408 -72.821318 
L 230.759281 -71.85822 
L 230.68451 -70.895122 
L 230.598992 -69.932025 
L 230.502684 -68.968927 
L 230.395599 -68.00583 
L 230.277817 -67.042732 
L 230.149476 -66.079634 
L 230.010779 -65.116537 
L 229.861993 -64.153439 
L 229.703447 -63.190342 
L 229.535528 -62.227244 
L 229.358682 -61.264146 
L 229.173411 -60.301049 
L 228.980268 -59.337951 
L 228.779851 -58.374854 
L 228.572804 -57.411756 
L 228.359805 -56.448658 
z
" style="stroke: #0000ff; stroke-width: 1.5"/>
    </defs>
    <g clip-path="url(#pb3542fa744)">
     <use xlink:href="#m23a5c75775" x="0" y="288" style="fill: #ffffff; stroke: #0000ff; stroke-width: 1.5"/>
    </g>
   </g>
   <g id="PolyCollection_3">
    <defs>
     <path id="m2538784eba" d="M 265.25055 -110.654029 
L 255.206593 -110.654029 
L 255.137765 -111.672771 
L 255.073109 -112.691513 
L 255.012727 -113.710255 
L 254.956705 -114.728997 
L 254.905109 -115.747739 
L 254.857988 -116.766481 
L 254.815373 -117.785223 
L 254.777277 -118.803966 
L 254.743694 -119.822708 
L 254.714599 -120.84145 
L 254.689949 -121.860192 
L 254.669685 -122.878934 
L 254.653728 -123.897676 
L 254.641983 -124.916418 
L 254.634339 -125.935161 
L 254.630669 -126.953903 
L 254.630828 -127.972645 
L 254.634659 -128.991387 
L 254.641993 -130.010129 
L 254.652643 -131.028871 
L 254.666414 -132.047613 
L 254.683099 -133.066355 
L 254.702482 -134.085098 
L 254.724335 -135.10384 
L 254.748424 -136.122582 
L 254.774511 -137.141324 
L 254.802347 -138.160066 
L 254.831682 -139.178808 
L 254.862262 -140.19755 
L 254.893832 -141.216293 
L 254.926133 -142.235035 
L 254.958909 -143.253777 
L 254.991906 -144.272519 
L 255.024869 -145.291261 
L 255.057551 -146.310003 
L 255.089707 -147.328745 
L 255.1211 -148.347487 
L 255.151499 -149.36623 
L 255.180683 -150.384972 
L 255.20844 -151.403714 
L 255.234566 -152.422456 
L 255.258873 -153.441198 
L 255.281182 -154.45994 
L 255.30133 -155.478682 
L 255.319167 -156.497425 
L 255.334559 -157.516167 
L 255.347388 -158.534909 
L 255.357552 -159.553651 
L 255.364968 -160.572393 
L 255.369571 -161.591135 
L 255.371314 -162.609877 
L 255.370168 -163.628619 
L 255.366126 -164.647362 
L 255.359199 -165.666104 
L 255.349419 -166.684846 
L 255.336837 -167.703588 
L 255.321525 -168.72233 
L 255.303574 -169.741072 
L 255.283096 -170.759814 
L 255.26022 -171.778557 
L 255.235096 -172.797299 
L 255.207892 -173.816041 
L 255.178792 -174.834783 
L 255.147999 -175.853525 
L 255.11573 -176.872267 
L 255.082218 -177.891009 
L 255.04771 -178.909751 
L 255.012464 -179.928494 
L 254.976751 -180.947236 
L 254.940851 -181.965978 
L 254.905051 -182.98472 
L 254.869647 -184.003462 
L 254.834939 -185.022204 
L 254.801229 -186.040946 
L 254.768824 -187.059689 
L 254.738027 -188.078431 
L 254.709141 -189.097173 
L 254.682465 -190.115915 
L 254.658293 -191.134657 
L 254.636909 -192.153399 
L 254.618591 -193.172141 
L 254.603603 -194.190883 
L 254.592198 -195.209626 
L 254.584614 -196.228368 
L 254.581075 -197.24711 
L 254.581784 -198.265852 
L 254.586929 -199.284594 
L 254.596676 -200.303336 
L 254.611171 -201.322078 
L 254.630537 -202.340821 
L 254.654875 -203.359563 
L 254.684263 -204.378305 
L 254.718753 -205.397047 
L 254.758376 -206.415789 
L 254.803137 -207.434531 
L 254.853014 -208.453273 
L 254.907966 -209.472015 
L 254.967923 -210.490758 
L 255.032794 -211.5095 
L 265.424348 -211.5095 
L 265.424348 -211.5095 
L 265.48922 -210.490758 
L 265.549177 -209.472015 
L 265.604128 -208.453273 
L 265.654006 -207.434531 
L 265.698766 -206.415789 
L 265.73839 -205.397047 
L 265.77288 -204.378305 
L 265.802268 -203.359563 
L 265.826606 -202.340821 
L 265.845972 -201.322078 
L 265.860467 -200.303336 
L 265.870214 -199.284594 
L 265.875359 -198.265852 
L 265.876068 -197.24711 
L 265.872529 -196.228368 
L 265.864945 -195.209626 
L 265.85354 -194.190883 
L 265.838552 -193.172141 
L 265.820234 -192.153399 
L 265.79885 -191.134657 
L 265.774677 -190.115915 
L 265.748002 -189.097173 
L 265.719116 -188.078431 
L 265.688319 -187.059689 
L 265.655914 -186.040946 
L 265.622204 -185.022204 
L 265.587496 -184.003462 
L 265.552092 -182.98472 
L 265.516292 -181.965978 
L 265.480392 -180.947236 
L 265.444679 -179.928494 
L 265.409433 -178.909751 
L 265.374924 -177.891009 
L 265.341413 -176.872267 
L 265.309144 -175.853525 
L 265.278351 -174.834783 
L 265.249251 -173.816041 
L 265.222046 -172.797299 
L 265.196923 -171.778557 
L 265.174047 -170.759814 
L 265.153568 -169.741072 
L 265.135618 -168.72233 
L 265.120306 -167.703588 
L 265.107724 -166.684846 
L 265.097944 -165.666104 
L 265.091017 -164.647362 
L 265.086975 -163.628619 
L 265.085829 -162.609877 
L 265.087572 -161.591135 
L 265.092174 -160.572393 
L 265.099591 -159.553651 
L 265.109755 -158.534909 
L 265.122584 -157.516167 
L 265.137976 -156.497425 
L 265.155813 -155.478682 
L 265.175961 -154.45994 
L 265.19827 -153.441198 
L 265.222577 -152.422456 
L 265.248703 -151.403714 
L 265.27646 -150.384972 
L 265.305644 -149.36623 
L 265.336043 -148.347487 
L 265.367436 -147.328745 
L 265.399592 -146.310003 
L 265.432274 -145.291261 
L 265.465237 -144.272519 
L 265.498234 -143.253777 
L 265.53101 -142.235035 
L 265.563311 -141.216293 
L 265.594881 -140.19755 
L 265.625461 -139.178808 
L 265.654796 -138.160066 
L 265.682632 -137.141324 
L 265.708718 -136.122582 
L 265.732808 -135.10384 
L 265.754661 -134.085098 
L 265.774043 -133.066355 
L 265.790729 -132.047613 
L 265.8045 -131.028871 
L 265.81515 -130.010129 
L 265.822483 -128.991387 
L 265.826315 -127.972645 
L 265.826474 -126.953903 
L 265.822803 -125.935161 
L 265.81516 -124.916418 
L 265.803415 -123.897676 
L 265.787458 -122.878934 
L 265.767194 -121.860192 
L 265.742544 -120.84145 
L 265.713449 -119.822708 
L 265.679865 -118.803966 
L 265.641769 -117.785223 
L 265.599155 -116.766481 
L 265.552034 -115.747739 
L 265.500438 -114.728997 
L 265.444415 -113.710255 
L 265.384034 -112.691513 
L 265.319378 -111.672771 
L 265.25055 -110.654029 
z
" style="stroke: #00fa9a; stroke-width: 1.5"/>
    </defs>
    <g clip-path="url(#pb3542fa744)">
     <use xlink:href="#m2538784eba" x="0" y="288" style="fill: #ffffff; stroke: #00fa9a; stroke-width: 1.5"/>
    </g>
   </g>
   <g id="matplotlib.axis_1">
    <g id="xtick_1">
     <g id="text_1">
      <!-- 1 -->
      <g transform="translate(179.390179 266.598437)scale(0.1 -0.1)">
       <defs>
        <path id="DejaVuSans-31" d="M 794 531 
L 1825 531 
L 1825 4091 
L 703 3866 
L 703 4441 
L 1819 4666 
L 2450 4666 
L 2450 531 
L 3481 531 
L 3481 0 
L 794 0 
L 794 531 
z
" transform="scale(0.015625)"/>
       </defs>
       <use xlink:href="#DejaVuSans-31"/>
      </g>
     </g>
    </g>
    <g id="xtick_2">
     <g id="text_2">
      <!-- 2 -->
      <g transform="translate(218.21875 266.598437)scale(0.1 -0.1)">
       <defs>
        <path id="DejaVuSans-32" d="M 1228 531 
L 3431 531 
L 3431 0 
L 469 0 
L 469 531 
Q 828 903 1448 1529 
Q 2069 2156 2228 2338 
Q 2531 2678 2651 2914 
Q 2772 3150 2772 3378 
Q 2772 3750 2511 3984 
Q 2250 4219 1831 4219 
Q 1534 4219 1204 4116 
Q 875 4013 500 3803 
L 500 4441 
Q 881 4594 1212 4672 
Q 1544 4750 1819 4750 
Q 2544 4750 2975 4387 
Q 3406 4025 3406 3419 
Q 3406 3131 3298 2873 
Q 3191 2616 2906 2266 
Q 2828 2175 2409 1742 
Q 1991 1309 1228 531 
z
" transform="scale(0.015625)"/>
       </defs>
       <use xlink:href="#DejaVuSans-32"/>
      </g>
     </g>
    </g>
    <g id="xtick_3">
     <g id="text_3">
      <!-- 3 -->
      <g transform="translate(257.047321 266.598437)scale(0.1 -0.1)">
       <defs>
        <path id="DejaVuSans-33" d="M 2597 2516 
Q 3050 2419 3304 2112 
Q 3559 1806 3559 1356 
Q 3559 666 3084 287 
Q 2609 -91 1734 -91 
Q 1441 -91 1130 -33 
Q 819 25 488 141 
L 488 750 
Q 750 597 1062 519 
Q 1375 441 1716 441 
Q 2309 441 2620 675 
Q 2931 909 2931 1356 
Q 2931 1769 2642 2001 
Q 2353 2234 1838 2234 
L 1294 2234 
L 1294 2753 
L 1863 2753 
Q 2328 2753 2575 2939 
Q 2822 3125 2822 3475 
Q 2822 3834 2567 4026 
Q 2313 4219 1838 4219 
Q 1578 4219 1281 4162 
Q 984 4106 628 3988 
L 628 4550 
Q 988 4650 1302 4700 
Q 1616 4750 1894 4750 
Q 2613 4750 3031 4423 
Q 3450 4097 3450 3541 
Q 3450 3153 3228 2886 
Q 3006 2619 2597 2516 
z
" transform="scale(0.015625)"/>
       </defs>
       <use xlink:href="#DejaVuSans-33"/>
      </g>
     </g>
    </g>
    <g id="text_4">
     <!-- Glomerulus -->
     <g transform="translate(187.0125 281.79625)scale(0.12 -0.12)">
      <defs>
       <path id="DejaVuSans-47" d="M 3809 666 
L 3809 1919 
L 2778 1919 
L 2778 2438 
L 4434 2438 
L 4434 434 
Q 4069 175 3628 42 
Q 3188 -91 2688 -91 
Q 1594 -91 976 548 
Q 359 1188 359 2328 
Q 359 3472 976 4111 
Q 1594 4750 2688 4750 
Q 3144 4750 3555 4637 
Q 3966 4525 4313 4306 
L 4313 3634 
Q 3963 3931 3569 4081 
Q 3175 4231 2741 4231 
Q 1884 4231 1454 3753 
Q 1025 3275 1025 2328 
Q 1025 1384 1454 906 
Q 1884 428 2741 428 
Q 3075 428 3337 486 
Q 3600 544 3809 666 
z
" transform="scale(0.015625)"/>
       <path id="DejaVuSans-6c" d="M 603 4863 
L 1178 4863 
L 1178 0 
L 603 0 
L 603 4863 
z
" transform="scale(0.015625)"/>
       <path id="DejaVuSans-6f" d="M 1959 3097 
Q 1497 3097 1228 2736 
Q 959 2375 959 1747 
Q 959 1119 1226 758 
Q 1494 397 1959 397 
Q 2419 397 2687 759 
Q 2956 1122 2956 1747 
Q 2956 2369 2687 2733 
Q 2419 3097 1959 3097 
z
M 1959 3584 
Q 2709 3584 3137 3096 
Q 3566 2609 3566 1747 
Q 3566 888 3137 398 
Q 2709 -91 1959 -91 
Q 1206 -91 779 398 
Q 353 888 353 1747 
Q 353 2609 779 3096 
Q 1206 3584 1959 3584 
z
" transform="scale(0.015625)"/>
       <path id="DejaVuSans-6d" d="M 3328 2828 
Q 3544 3216 3844 3400 
Q 4144 3584 4550 3584 
Q 5097 3584 5394 3201 
Q 5691 2819 5691 2113 
L 5691 0 
L 5113 0 
L 5113 2094 
Q 5113 2597 4934 2840 
Q 4756 3084 4391 3084 
Q 3944 3084 3684 2787 
Q 3425 2491 3425 1978 
L 3425 0 
L 2847 0 
L 2847 2094 
Q 2847 2600 2669 2842 
Q 2491 3084 2119 3084 
Q 1678 3084 1418 2786 
Q 1159 2488 1159 1978 
L 1159 0 
L 581 0 
L 581 3500 
L 1159 3500 
L 1159 2956 
Q 1356 3278 1631 3431 
Q 1906 3584 2284 3584 
Q 2666 3584 2933 3390 
Q 3200 3197 3328 2828 
z
" transform="scale(0.015625)"/>
       <path id="DejaVuSans-65" d="M 3597 1894 
L 3597 1613 
L 953 1613 
Q 991 1019 1311 708 
Q 1631 397 2203 397 
Q 2534 397 2845 478 
Q 3156 559 3463 722 
L 3463 178 
Q 3153 47 2828 -22 
Q 2503 -91 2169 -91 
Q 1331 -91 842 396 
Q 353 884 353 1716 
Q 353 2575 817 3079 
Q 1281 3584 2069 3584 
Q 2775 3584 3186 3129 
Q 3597 2675 3597 1894 
z
M 3022 2063 
Q 3016 2534 2758 2815 
Q 2500 3097 2075 3097 
Q 1594 3097 1305 2825 
Q 1016 2553 972 2059 
L 3022 2063 
z
" transform="scale(0.015625)"/>
       <path id="DejaVuSans-72" d="M 2631 2963 
Q 2534 3019 2420 3045 
Q 2306 3072 2169 3072 
Q 1681 3072 1420 2755 
Q 1159 2438 1159 1844 
L 1159 0 
L 581 0 
L 581 3500 
L 1159 3500 
L 1159 2956 
Q 1341 3275 1631 3429 
Q 1922 3584 2338 3584 
Q 2397 3584 2469 3576 
Q 2541 3569 2628 3553 
L 2631 2963 
z
" transform="scale(0.015625)"/>
       <path id="DejaVuSans-75" d="M 544 1381 
L 544 3500 
L 1119 3500 
L 1119 1403 
Q 1119 906 1312 657 
Q 1506 409 1894 409 
Q 2359 409 2629 706 
Q 2900 1003 2900 1516 
L 2900 3500 
L 3475 3500 
L 3475 0 
L 2900 0 
L 2900 538 
Q 2691 219 2414 64 
Q 2138 -91 1772 -91 
Q 1169 -91 856 284 
Q 544 659 544 1381 
z
M 1991 3584 
L 1991 3584 
z
" transform="scale(0.015625)"/>
       <path id="DejaVuSans-73" d="M 2834 3397 
L 2834 2853 
Q 2591 2978 2328 3040 
Q 2066 3103 1784 3103 
Q 1356 3103 1142 2972 
Q 928 2841 928 2578 
Q 928 2378 1081 2264 
Q 1234 2150 1697 2047 
L 1894 2003 
Q 2506 1872 2764 1633 
Q 3022 1394 3022 966 
Q 3022 478 2636 193 
Q 2250 -91 1575 -91 
Q 1294 -91 989 -36 
Q 684 19 347 128 
L 347 722 
Q 666 556 975 473 
Q 1284 391 1588 391 
Q 1994 391 2212 530 
Q 2431 669 2431 922 
Q 2431 1156 2273 1281 
Q 2116 1406 1581 1522 
L 1381 1569 
Q 847 1681 609 1914 
Q 372 2147 372 2553 
Q 372 3047 722 3315 
Q 1072 3584 1716 3584 
Q 2034 3584 2315 3537 
Q 2597 3491 2834 3397 
z
" transform="scale(0.015625)"/>
      </defs>
      <use xlink:href="#DejaVuSans-47"/>
      <use xlink:href="#DejaVuSans-6c" x="77.490234"/>
      <use xlink:href="#DejaVuSans-6f" x="105.273438"/>
      <use xlink:href="#DejaVuSans-6d" x="166.455078"/>
      <use xlink:href="#DejaVuSans-65" x="263.867188"/>
      <use xlink:href="#DejaVuSans-72" x="325.390625"/>
      <use xlink:href="#DejaVuSans-75" x="366.503906"/>
      <use xlink:href="#DejaVuSans-6c" x="429.882812"/>
      <use xlink:href="#DejaVuSans-75" x="457.666016"/>
      <use xlink:href="#DejaVuSans-73" x="521.044922"/>
     </g>
    </g>
   </g>
   <g id="matplotlib.axis_2">
    <g id="ytick_1">
     <g id="line2d_1">
      <defs>
       <path id="mffe61de578" d="M 0 0 
L -3.5 0 
" style="stroke: #000000; stroke-width: 0.8"/>
      </defs>
      <g>
       <use xlink:href="#mffe61de578" x="163.157143" y="252" style="stroke: #000000; stroke-width: 0.8"/>
      </g>
     </g>
     <g id="text_5">
      <!-- 0.0 -->
      <g transform="translate(140.254018 255.799219)scale(0.1 -0.1)">
       <defs>
        <path id="DejaVuSans-30" d="M 2034 4250 
Q 1547 4250 1301 3770 
Q 1056 3291 1056 2328 
Q 1056 1369 1301 889 
Q 1547 409 2034 409 
Q 2525 409 2770 889 
Q 3016 1369 3016 2328 
Q 3016 3291 2770 3770 
Q 2525 4250 2034 4250 
z
M 2034 4750 
Q 2819 4750 3233 4129 
Q 3647 3509 3647 2328 
Q 3647 1150 3233 529 
Q 2819 -91 2034 -91 
Q 1250 -91 836 529 
Q 422 1150 422 2328 
Q 422 3509 836 4129 
Q 1250 4750 2034 4750 
z
" transform="scale(0.015625)"/>
        <path id="DejaVuSans-2e" d="M 684 794 
L 1344 794 
L 1344 0 
L 684 0 
L 684 794 
z
" transform="scale(0.015625)"/>
       </defs>
       <use xlink:href="#DejaVuSans-30"/>
       <use xlink:href="#DejaVuSans-2e" x="63.623047"/>
       <use xlink:href="#DejaVuSans-30" x="95.410156"/>
      </g>
     </g>
    </g>
    <g id="ytick_2">
     <g id="line2d_2">
      <g>
       <use xlink:href="#mffe61de578" x="163.157143" y="220.937143" style="stroke: #000000; stroke-width: 0.8"/>
      </g>
     </g>
     <g id="text_6">
      <!-- 0.1 -->
      <g transform="translate(140.254018 224.736362)scale(0.1 -0.1)">
       <use xlink:href="#DejaVuSans-30"/>
       <use xlink:href="#DejaVuSans-2e" x="63.623047"/>
       <use xlink:href="#DejaVuSans-31" x="95.410156"/>
      </g>
     </g>
    </g>
    <g id="ytick_3">
     <g id="line2d_3">
      <g>
       <use xlink:href="#mffe61de578" x="163.157143" y="189.874286" style="stroke: #000000; stroke-width: 0.8"/>
      </g>
     </g>
     <g id="text_7">
      <!-- 0.2 -->
      <g transform="translate(140.254018 193.673504)scale(0.1 -0.1)">
       <use xlink:href="#DejaVuSans-30"/>
       <use xlink:href="#DejaVuSans-2e" x="63.623047"/>
       <use xlink:href="#DejaVuSans-32" x="95.410156"/>
      </g>
     </g>
    </g>
    <g id="ytick_4">
     <g id="line2d_4">
      <g>
       <use xlink:href="#mffe61de578" x="163.157143" y="158.811429" style="stroke: #000000; stroke-width: 0.8"/>
      </g>
     </g>
     <g id="text_8">
      <!-- 0.3 -->
      <g transform="translate(140.254018 162.610647)scale(0.1 -0.1)">
       <use xlink:href="#DejaVuSans-30"/>
       <use xlink:href="#DejaVuSans-2e" x="63.623047"/>
       <use xlink:href="#DejaVuSans-33" x="95.410156"/>
      </g>
     </g>
    </g>
    <g id="ytick_5">
     <g id="line2d_5">
      <g>
       <use xlink:href="#mffe61de578" x="163.157143" y="127.748571" style="stroke: #000000; stroke-width: 0.8"/>
      </g>
     </g>
     <g id="text_9">
      <!-- 0.4 -->
      <g transform="translate(140.254018 131.54779)scale(0.1 -0.1)">
       <defs>
        <path id="DejaVuSans-34" d="M 2419 4116 
L 825 1625 
L 2419 1625 
L 2419 4116 
z
M 2253 4666 
L 3047 4666 
L 3047 1625 
L 3713 1625 
L 3713 1100 
L 3047 1100 
L 3047 0 
L 2419 0 
L 2419 1100 
L 313 1100 
L 313 1709 
L 2253 4666 
z
" transform="scale(0.015625)"/>
       </defs>
       <use xlink:href="#DejaVuSans-30"/>
       <use xlink:href="#DejaVuSans-2e" x="63.623047"/>
       <use xlink:href="#DejaVuSans-34" x="95.410156"/>
      </g>
     </g>
    </g>
    <g id="ytick_6">
     <g id="line2d_6">
      <g>
       <use xlink:href="#mffe61de578" x="163.157143" y="96.685714" style="stroke: #000000; stroke-width: 0.8"/>
      </g>
     </g>
     <g id="text_10">
      <!-- 0.5 -->
      <g transform="translate(140.254018 100.484933)scale(0.1 -0.1)">
       <defs>
        <path id="DejaVuSans-35" d="M 691 4666 
L 3169 4666 
L 3169 4134 
L 1269 4134 
L 1269 2991 
Q 1406 3038 1543 3061 
Q 1681 3084 1819 3084 
Q 2600 3084 3056 2656 
Q 3513 2228 3513 1497 
Q 3513 744 3044 326 
Q 2575 -91 1722 -91 
Q 1428 -91 1123 -41 
Q 819 9 494 109 
L 494 744 
Q 775 591 1075 516 
Q 1375 441 1709 441 
Q 2250 441 2565 725 
Q 2881 1009 2881 1497 
Q 2881 1984 2565 2268 
Q 2250 2553 1709 2553 
Q 1456 2553 1204 2497 
Q 953 2441 691 2322 
L 691 4666 
z
" transform="scale(0.015625)"/>
       </defs>
       <use xlink:href="#DejaVuSans-30"/>
       <use xlink:href="#DejaVuSans-2e" x="63.623047"/>
       <use xlink:href="#DejaVuSans-35" x="95.410156"/>
      </g>
     </g>
    </g>
    <g id="ytick_7">
     <g id="line2d_7">
      <g>
       <use xlink:href="#mffe61de578" x="163.157143" y="65.622857" style="stroke: #000000; stroke-width: 0.8"/>
      </g>
     </g>
     <g id="text_11">
      <!-- 0.6 -->
      <g transform="translate(140.254018 69.422076)scale(0.1 -0.1)">
       <defs>
        <path id="DejaVuSans-36" d="M 2113 2584 
Q 1688 2584 1439 2293 
Q 1191 2003 1191 1497 
Q 1191 994 1439 701 
Q 1688 409 2113 409 
Q 2538 409 2786 701 
Q 3034 994 3034 1497 
Q 3034 2003 2786 2293 
Q 2538 2584 2113 2584 
z
M 3366 4563 
L 3366 3988 
Q 3128 4100 2886 4159 
Q 2644 4219 2406 4219 
Q 1781 4219 1451 3797 
Q 1122 3375 1075 2522 
Q 1259 2794 1537 2939 
Q 1816 3084 2150 3084 
Q 2853 3084 3261 2657 
Q 3669 2231 3669 1497 
Q 3669 778 3244 343 
Q 2819 -91 2113 -91 
Q 1303 -91 875 529 
Q 447 1150 447 2328 
Q 447 3434 972 4092 
Q 1497 4750 2381 4750 
Q 2619 4750 2861 4703 
Q 3103 4656 3366 4563 
z
" transform="scale(0.015625)"/>
       </defs>
       <use xlink:href="#DejaVuSans-30"/>
       <use xlink:href="#DejaVuSans-2e" x="63.623047"/>
       <use xlink:href="#DejaVuSans-36" x="95.410156"/>
      </g>
     </g>
    </g>
    <g id="ytick_8">
     <g id="line2d_8">
      <g>
       <use xlink:href="#mffe61de578" x="163.157143" y="34.56" style="stroke: #000000; stroke-width: 0.8"/>
      </g>
     </g>
     <g id="text_12">
      <!-- 0.7 -->
      <g transform="translate(140.254018 38.359219)scale(0.1 -0.1)">
       <defs>
        <path id="DejaVuSans-37" d="M 525 4666 
L 3525 4666 
L 3525 4397 
L 1831 0 
L 1172 0 
L 2766 4134 
L 525 4134 
L 525 4666 
z
" transform="scale(0.015625)"/>
       </defs>
       <use xlink:href="#DejaVuSans-30"/>
       <use xlink:href="#DejaVuSans-2e" x="63.623047"/>
       <use xlink:href="#DejaVuSans-37" x="95.410156"/>
      </g>
     </g>
    </g>
    <g id="text_13">
     <!-- Synapse density (per µm of cable overlap) -->
     <g transform="translate(133.758393 270.959063)rotate(-90)scale(0.12 -0.12)">
      <defs>
       <path id="DejaVuSans-53" d="M 3425 4513 
L 3425 3897 
Q 3066 4069 2747 4153 
Q 2428 4238 2131 4238 
Q 1616 4238 1336 4038 
Q 1056 3838 1056 3469 
Q 1056 3159 1242 3001 
Q 1428 2844 1947 2747 
L 2328 2669 
Q 3034 2534 3370 2195 
Q 3706 1856 3706 1288 
Q 3706 609 3251 259 
Q 2797 -91 1919 -91 
Q 1588 -91 1214 -16 
Q 841 59 441 206 
L 441 856 
Q 825 641 1194 531 
Q 1563 422 1919 422 
Q 2459 422 2753 634 
Q 3047 847 3047 1241 
Q 3047 1584 2836 1778 
Q 2625 1972 2144 2069 
L 1759 2144 
Q 1053 2284 737 2584 
Q 422 2884 422 3419 
Q 422 4038 858 4394 
Q 1294 4750 2059 4750 
Q 2388 4750 2728 4690 
Q 3069 4631 3425 4513 
z
" transform="scale(0.015625)"/>
       <path id="DejaVuSans-79" d="M 2059 -325 
Q 1816 -950 1584 -1140 
Q 1353 -1331 966 -1331 
L 506 -1331 
L 506 -850 
L 844 -850 
Q 1081 -850 1212 -737 
Q 1344 -625 1503 -206 
L 1606 56 
L 191 3500 
L 800 3500 
L 1894 763 
L 2988 3500 
L 3597 3500 
L 2059 -325 
z
" transform="scale(0.015625)"/>
       <path id="DejaVuSans-6e" d="M 3513 2113 
L 3513 0 
L 2938 0 
L 2938 2094 
Q 2938 2591 2744 2837 
Q 2550 3084 2163 3084 
Q 1697 3084 1428 2787 
Q 1159 2491 1159 1978 
L 1159 0 
L 581 0 
L 581 3500 
L 1159 3500 
L 1159 2956 
Q 1366 3272 1645 3428 
Q 1925 3584 2291 3584 
Q 2894 3584 3203 3211 
Q 3513 2838 3513 2113 
z
" transform="scale(0.015625)"/>
       <path id="DejaVuSans-61" d="M 2194 1759 
Q 1497 1759 1228 1600 
Q 959 1441 959 1056 
Q 959 750 1161 570 
Q 1363 391 1709 391 
Q 2188 391 2477 730 
Q 2766 1069 2766 1631 
L 2766 1759 
L 2194 1759 
z
M 3341 1997 
L 3341 0 
L 2766 0 
L 2766 531 
Q 2569 213 2275 61 
Q 1981 -91 1556 -91 
Q 1019 -91 701 211 
Q 384 513 384 1019 
Q 384 1609 779 1909 
Q 1175 2209 1959 2209 
L 2766 2209 
L 2766 2266 
Q 2766 2663 2505 2880 
Q 2244 3097 1772 3097 
Q 1472 3097 1187 3025 
Q 903 2953 641 2809 
L 641 3341 
Q 956 3463 1253 3523 
Q 1550 3584 1831 3584 
Q 2591 3584 2966 3190 
Q 3341 2797 3341 1997 
z
" transform="scale(0.015625)"/>
       <path id="DejaVuSans-70" d="M 1159 525 
L 1159 -1331 
L 581 -1331 
L 581 3500 
L 1159 3500 
L 1159 2969 
Q 1341 3281 1617 3432 
Q 1894 3584 2278 3584 
Q 2916 3584 3314 3078 
Q 3713 2572 3713 1747 
Q 3713 922 3314 415 
Q 2916 -91 2278 -91 
Q 1894 -91 1617 61 
Q 1341 213 1159 525 
z
M 3116 1747 
Q 3116 2381 2855 2742 
Q 2594 3103 2138 3103 
Q 1681 3103 1420 2742 
Q 1159 2381 1159 1747 
Q 1159 1113 1420 752 
Q 1681 391 2138 391 
Q 2594 391 2855 752 
Q 3116 1113 3116 1747 
z
" transform="scale(0.015625)"/>
       <path id="DejaVuSans-20" transform="scale(0.015625)"/>
       <path id="DejaVuSans-64" d="M 2906 2969 
L 2906 4863 
L 3481 4863 
L 3481 0 
L 2906 0 
L 2906 525 
Q 2725 213 2448 61 
Q 2172 -91 1784 -91 
Q 1150 -91 751 415 
Q 353 922 353 1747 
Q 353 2572 751 3078 
Q 1150 3584 1784 3584 
Q 2172 3584 2448 3432 
Q 2725 3281 2906 2969 
z
M 947 1747 
Q 947 1113 1208 752 
Q 1469 391 1925 391 
Q 2381 391 2643 752 
Q 2906 1113 2906 1747 
Q 2906 2381 2643 2742 
Q 2381 3103 1925 3103 
Q 1469 3103 1208 2742 
Q 947 2381 947 1747 
z
" transform="scale(0.015625)"/>
       <path id="DejaVuSans-69" d="M 603 3500 
L 1178 3500 
L 1178 0 
L 603 0 
L 603 3500 
z
M 603 4863 
L 1178 4863 
L 1178 4134 
L 603 4134 
L 603 4863 
z
" transform="scale(0.015625)"/>
       <path id="DejaVuSans-74" d="M 1172 4494 
L 1172 3500 
L 2356 3500 
L 2356 3053 
L 1172 3053 
L 1172 1153 
Q 1172 725 1289 603 
Q 1406 481 1766 481 
L 2356 481 
L 2356 0 
L 1766 0 
Q 1100 0 847 248 
Q 594 497 594 1153 
L 594 3053 
L 172 3053 
L 172 3500 
L 594 3500 
L 594 4494 
L 1172 4494 
z
" transform="scale(0.015625)"/>
       <path id="DejaVuSans-28" d="M 1984 4856 
Q 1566 4138 1362 3434 
Q 1159 2731 1159 2009 
Q 1159 1288 1364 580 
Q 1569 -128 1984 -844 
L 1484 -844 
Q 1016 -109 783 600 
Q 550 1309 550 2009 
Q 550 2706 781 3412 
Q 1013 4119 1484 4856 
L 1984 4856 
z
" transform="scale(0.015625)"/>
       <path id="DejaVuSans-b5" d="M 544 -1331 
L 544 3500 
L 1119 3500 
L 1119 1325 
Q 1119 872 1334 640 
Q 1550 409 1972 409 
Q 2434 409 2667 671 
Q 2900 934 2900 1459 
L 2900 3500 
L 3475 3500 
L 3475 806 
Q 3475 619 3529 530 
Q 3584 441 3700 441 
Q 3728 441 3778 458 
Q 3828 475 3916 513 
L 3916 50 
Q 3788 -22 3673 -56 
Q 3559 -91 3450 -91 
Q 3234 -91 3106 31 
Q 2978 153 2931 403 
Q 2775 156 2548 32 
Q 2322 -91 2016 -91 
Q 1697 -91 1473 31 
Q 1250 153 1119 397 
L 1119 -1331 
L 544 -1331 
z
" transform="scale(0.015625)"/>
       <path id="DejaVuSans-66" d="M 2375 4863 
L 2375 4384 
L 1825 4384 
Q 1516 4384 1395 4259 
Q 1275 4134 1275 3809 
L 1275 3500 
L 2222 3500 
L 2222 3053 
L 1275 3053 
L 1275 0 
L 697 0 
L 697 3053 
L 147 3053 
L 147 3500 
L 697 3500 
L 697 3744 
Q 697 4328 969 4595 
Q 1241 4863 1831 4863 
L 2375 4863 
z
" transform="scale(0.015625)"/>
       <path id="DejaVuSans-63" d="M 3122 3366 
L 3122 2828 
Q 2878 2963 2633 3030 
Q 2388 3097 2138 3097 
Q 1578 3097 1268 2742 
Q 959 2388 959 1747 
Q 959 1106 1268 751 
Q 1578 397 2138 397 
Q 2388 397 2633 464 
Q 2878 531 3122 666 
L 3122 134 
Q 2881 22 2623 -34 
Q 2366 -91 2075 -91 
Q 1284 -91 818 406 
Q 353 903 353 1747 
Q 353 2603 823 3093 
Q 1294 3584 2113 3584 
Q 2378 3584 2631 3529 
Q 2884 3475 3122 3366 
z
" transform="scale(0.015625)"/>
       <path id="DejaVuSans-62" d="M 3116 1747 
Q 3116 2381 2855 2742 
Q 2594 3103 2138 3103 
Q 1681 3103 1420 2742 
Q 1159 2381 1159 1747 
Q 1159 1113 1420 752 
Q 1681 391 2138 391 
Q 2594 391 2855 752 
Q 3116 1113 3116 1747 
z
M 1159 2969 
Q 1341 3281 1617 3432 
Q 1894 3584 2278 3584 
Q 2916 3584 3314 3078 
Q 3713 2572 3713 1747 
Q 3713 922 3314 415 
Q 2916 -91 2278 -91 
Q 1894 -91 1617 61 
Q 1341 213 1159 525 
L 1159 0 
L 581 0 
L 581 4863 
L 1159 4863 
L 1159 2969 
z
" transform="scale(0.015625)"/>
       <path id="DejaVuSans-76" d="M 191 3500 
L 800 3500 
L 1894 563 
L 2988 3500 
L 3597 3500 
L 2284 0 
L 1503 0 
L 191 3500 
z
" transform="scale(0.015625)"/>
       <path id="DejaVuSans-29" d="M 513 4856 
L 1013 4856 
Q 1481 4119 1714 3412 
Q 1947 2706 1947 2009 
Q 1947 1309 1714 600 
Q 1481 -109 1013 -844 
L 513 -844 
Q 928 -128 1133 580 
Q 1338 1288 1338 2009 
Q 1338 2731 1133 3434 
Q 928 4138 513 4856 
z
" transform="scale(0.015625)"/>
      </defs>
      <use xlink:href="#DejaVuSans-53"/>
      <use xlink:href="#DejaVuSans-79" x="63.476562"/>
      <use xlink:href="#DejaVuSans-6e" x="122.65625"/>
      <use xlink:href="#DejaVuSans-61" x="186.035156"/>
      <use xlink:href="#DejaVuSans-70" x="247.314453"/>
      <use xlink:href="#DejaVuSans-73" x="310.791016"/>
      <use xlink:href="#DejaVuSans-65" x="362.890625"/>
      <use xlink:href="#DejaVuSans-20" x="424.414062"/>
      <use xlink:href="#DejaVuSans-64" x="456.201172"/>
      <use xlink:href="#DejaVuSans-65" x="519.677734"/>
      <use xlink:href="#DejaVuSans-6e" x="581.201172"/>
      <use xlink:href="#DejaVuSans-73" x="644.580078"/>
      <use xlink:href="#DejaVuSans-69" x="696.679688"/>
      <use xlink:href="#DejaVuSans-74" x="724.462891"/>
      <use xlink:href="#DejaVuSans-79" x="763.671875"/>
      <use xlink:href="#DejaVuSans-20" x="822.851562"/>
      <use xlink:href="#DejaVuSans-28" x="854.638672"/>
      <use xlink:href="#DejaVuSans-70" x="893.652344"/>
      <use xlink:href="#DejaVuSans-65" x="957.128906"/>
      <use xlink:href="#DejaVuSans-72" x="1018.652344"/>
      <use xlink:href="#DejaVuSans-20" x="1059.765625"/>
      <use xlink:href="#DejaVuSans-b5" x="1091.552734"/>
      <use xlink:href="#DejaVuSans-6d" x="1155.175781"/>
      <use xlink:href="#DejaVuSans-20" x="1252.587891"/>
      <use xlink:href="#DejaVuSans-6f" x="1284.375"/>
      <use xlink:href="#DejaVuSans-66" x="1345.556641"/>
      <use xlink:href="#DejaVuSans-20" x="1380.761719"/>
      <use xlink:href="#DejaVuSans-63" x="1412.548828"/>
      <use xlink:href="#DejaVuSans-61" x="1467.529297"/>
      <use xlink:href="#DejaVuSans-62" x="1528.808594"/>
      <use xlink:href="#DejaVuSans-6c" x="1592.285156"/>
      <use xlink:href="#DejaVuSans-65" x="1620.068359"/>
      <use xlink:href="#DejaVuSans-20" x="1681.591797"/>
      <use xlink:href="#DejaVuSans-6f" x="1713.378906"/>
      <use xlink:href="#DejaVuSans-76" x="1774.560547"/>
      <use xlink:href="#DejaVuSans-65" x="1833.740234"/>
      <use xlink:href="#DejaVuSans-72" x="1895.263672"/>
      <use xlink:href="#DejaVuSans-6c" x="1936.376953"/>
      <use xlink:href="#DejaVuSans-61" x="1964.160156"/>
      <use xlink:href="#DejaVuSans-70" x="2025.439453"/>
      <use xlink:href="#DejaVuSans-29" x="2088.916016"/>
     </g>
    </g>
   </g>
   <g id="line2d_9">
    <path d="M 167.97878 97.416185 
L 197.164077 97.416185 
" clip-path="url(#pb3542fa744)" style="fill: none; stroke: #000000; stroke-width: 1.5; stroke-linecap: square"/>
   </g>
   <g id="line2d_10">
    <path d="M 212.530708 195.73778 
L 230.269292 195.73778 
" clip-path="url(#pb3542fa744)" style="fill: none; stroke: #000000; stroke-width: 1.5; stroke-linecap: square"/>
   </g>
   <g id="line2d_11">
    <path d="M 255.418161 126.471983 
L 265.038982 126.471983 
" clip-path="url(#pb3542fa744)" style="fill: none; stroke: #000000; stroke-width: 1.5; stroke-linecap: square"/>
   </g>
   <g id="patch_3">
    <path d="M 163.157143 252 
L 163.157143 34.56 
" style="fill: none; stroke: #000000; stroke-width: 0.8; stroke-linejoin: miter; stroke-linecap: square"/>
   </g>
   <g id="PathCollection_1">
    <defs>
     <path id="C0_0_b790e00a4c" d="M 0 2.5 
C 0.663008 2.5 1.29895 2.236584 1.767767 1.767767 
C 2.236584 1.29895 2.5 0.663008 2.5 -0 
C 2.5 -0.663008 2.236584 -1.29895 1.767767 -1.767767 
C 1.29895 -2.236584 0.663008 -2.5 0 -2.5 
C -0.663008 -2.5 -1.29895 -2.236584 -1.767767 -1.767767 
C -2.236584 -1.29895 -2.5 -0.663008 -2.5 0 
C -2.5 0.663008 -2.236584 1.29895 -1.767767 1.767767 
C -1.29895 2.236584 -0.663008 2.5 0 2.5 
z
"/>
    </defs>
    <g clip-path="url(#pb3542fa744)">
     <use xlink:href="#C0_0_b790e00a4c" x="180.509714" y="67.498392" style="fill: #ee82ee"/>
    </g>
    <g clip-path="url(#pb3542fa744)">
     <use xlink:href="#C0_0_b790e00a4c" x="184.104579" y="83.075388" style="fill: #ee82ee"/>
    </g>
    <g clip-path="url(#pb3542fa744)">
     <use xlink:href="#C0_0_b790e00a4c" x="181.636847" y="111.251878" style="fill: #ee82ee"/>
    </g>
    <g clip-path="url(#pb3542fa744)">
     <use xlink:href="#C0_0_b790e00a4c" x="184.006358" y="154.387688" style="fill: #ee82ee"/>
    </g>
    <g clip-path="url(#pb3542fa744)">
     <use xlink:href="#C0_0_b790e00a4c" x="185.223917" y="94.517788" style="fill: #ee82ee"/>
    </g>
    <g clip-path="url(#pb3542fa744)">
     <use xlink:href="#C0_0_b790e00a4c" x="179.592154" y="105.378549" style="fill: #ee82ee"/>
    </g>
    <g clip-path="url(#pb3542fa744)">
     <use xlink:href="#C0_0_b790e00a4c" x="184.11788" y="90.092793" style="fill: #ee82ee"/>
    </g>
    <g clip-path="url(#pb3542fa744)">
     <use xlink:href="#C0_0_b790e00a4c" x="184.509399" y="93.953967" style="fill: #ee82ee"/>
    </g>
    <g clip-path="url(#pb3542fa744)">
     <use xlink:href="#C0_0_b790e00a4c" x="183.653031" y="84.441147" style="fill: #ee82ee"/>
    </g>
    <g clip-path="url(#pb3542fa744)">
     <use xlink:href="#C0_0_b790e00a4c" x="181.265767" y="89.564264" style="fill: #ee82ee"/>
    </g>
   </g>
   <g id="PathCollection_2">
    <defs>
     <path id="C1_0_b5d9cf0c8b" d="M 0 2.5 
C 0.663008 2.5 1.29895 2.236584 1.767767 1.767767 
C 2.236584 1.29895 2.5 0.663008 2.5 -0 
C 2.5 -0.663008 2.236584 -1.29895 1.767767 -1.767767 
C 1.29895 -2.236584 0.663008 -2.5 0 -2.5 
C -0.663008 -2.5 -1.29895 -2.236584 -1.767767 -1.767767 
C -2.236584 -1.29895 -2.5 -0.663008 -2.5 0 
C -2.5 0.663008 -2.236584 1.29895 -1.767767 1.767767 
C -1.29895 2.236584 -0.663008 2.5 0 2.5 
z
"/>
    </defs>
    <g clip-path="url(#pb3542fa744)">
     <use xlink:href="#C1_0_b5d9cf0c8b" x="222.968671" y="173.833179" style="fill: #0000ff"/>
    </g>
    <g clip-path="url(#pb3542fa744)">
     <use xlink:href="#C1_0_b5d9cf0c8b" x="224.04794" y="215.830598" style="fill: #0000ff"/>
    </g>
    <g clip-path="url(#pb3542fa744)">
     <use xlink:href="#C1_0_b5d9cf0c8b" x="218.07296" y="136.204679" style="fill: #0000ff"/>
    </g>
    <g clip-path="url(#pb3542fa744)">
     <use xlink:href="#C1_0_b5d9cf0c8b" x="223.908936" y="227.807613" style="fill: #0000ff"/>
    </g>
    <g clip-path="url(#pb3542fa744)">
     <use xlink:href="#C1_0_b5d9cf0c8b" x="222.943205" y="192.963849" style="fill: #0000ff"/>
    </g>
    <g clip-path="url(#pb3542fa744)">
     <use xlink:href="#C1_0_b5d9cf0c8b" x="223.516379" y="189.244029" style="fill: #0000ff"/>
    </g>
    <g clip-path="url(#pb3542fa744)">
     <use xlink:href="#C1_0_b5d9cf0c8b" x="219.633047" y="231.551342" style="fill: #0000ff"/>
    </g>
    <g clip-path="url(#pb3542fa744)">
     <use xlink:href="#C1_0_b5d9cf0c8b" x="217.614999" y="208.982322" style="fill: #0000ff"/>
    </g>
    <g clip-path="url(#pb3542fa744)">
     <use xlink:href="#C1_0_b5d9cf0c8b" x="218.114596" y="167.532201" style="fill: #0000ff"/>
    </g>
    <g clip-path="url(#pb3542fa744)">
     <use xlink:href="#C1_0_b5d9cf0c8b" x="218.490783" y="213.427989" style="fill: #0000ff"/>
    </g>
   </g>
   <g id="PathCollection_3">
    <defs>
     <path id="C2_0_d148b27a79" d="M 0 2.5 
C 0.663008 2.5 1.29895 2.236584 1.767767 1.767767 
C 2.236584 1.29895 2.5 0.663008 2.5 -0 
C 2.5 -0.663008 2.236584 -1.29895 1.767767 -1.767767 
C 1.29895 -2.236584 0.663008 -2.5 0 -2.5 
C -0.663008 -2.5 -1.29895 -2.236584 -1.767767 -1.767767 
C -2.236584 -1.29895 -2.5 -0.663008 -2.5 0 
C -2.5 0.663008 -2.236584 1.29895 -1.767767 1.767767 
C -1.29895 2.236584 -0.663008 2.5 0 2.5 
z
"/>
    </defs>
    <g clip-path="url(#pb3542fa744)">
     <use xlink:href="#C2_0_d148b27a79" x="262.366564" y="76.4905" style="fill: #00fa9a"/>
    </g>
    <g clip-path="url(#pb3542fa744)">
     <use xlink:href="#C2_0_d148b27a79" x="261.822613" y="91.743673" style="fill: #00fa9a"/>
    </g>
    <g clip-path="url(#pb3542fa744)">
     <use xlink:href="#C2_0_d148b27a79" x="261.397473" y="174.43319" style="fill: #00fa9a"/>
    </g>
    <g clip-path="url(#pb3542fa744)">
     <use xlink:href="#C2_0_d148b27a79" x="261.881518" y="177.345971" style="fill: #00fa9a"/>
    </g>
    <g clip-path="url(#pb3542fa744)">
     <use xlink:href="#C2_0_d148b27a79" x="262.687962" y="147.943498" style="fill: #00fa9a"/>
    </g>
    <g clip-path="url(#pb3542fa744)">
     <use xlink:href="#C2_0_d148b27a79" x="261.319668" y="80.582523" style="fill: #00fa9a"/>
    </g>
    <g clip-path="url(#pb3542fa744)">
     <use xlink:href="#C2_0_d148b27a79" x="260.42407" y="79.830987" style="fill: #00fa9a"/>
    </g>
    <g clip-path="url(#pb3542fa744)">
     <use xlink:href="#C2_0_d148b27a79" x="260.167367" y="175.830119" style="fill: #00fa9a"/>
    </g>
    <g clip-path="url(#pb3542fa744)">
     <use xlink:href="#C2_0_d148b27a79" x="262.681049" y="146.620042" style="fill: #00fa9a"/>
    </g>
    <g clip-path="url(#pb3542fa744)">
     <use xlink:href="#C2_0_d148b27a79" x="258.645857" y="113.899329" style="fill: #00fa9a"/>
    </g>
   </g>
  </g>
 </g>
 <defs>
  <clipPath id="pb3542fa744">
   <rect x="163.157143" y="34.56" width="116.485714" height="217.44"/>
  </clipPath>
 </defs>
</svg>
