<?xml version="1.0" encoding="utf-8" standalone="no"?>
<!DOCTYPE svg PUBLIC "-//W3C//DTD SVG 1.1//EN"
  "http://www.w3.org/Graphics/SVG/1.1/DTD/svg11.dtd">
<svg xmlns:xlink="http://www.w3.org/1999/xlink" width="432pt" height="288pt" viewBox="0 0 432 288" xmlns="http://www.w3.org/2000/svg" version="1.1">
 <metadata>
  <rdf:RDF xmlns:dc="http://purl.org/dc/elements/1.1/" xmlns:cc="http://creativecommons.org/ns#" xmlns:rdf="http://www.w3.org/1999/02/22-rdf-syntax-ns#">
   <cc:Work>
    <dc:type rdf:resource="http://purl.org/dc/dcmitype/StillImage"/>
    <dc:date>2024-01-28T09:42:50.352530</dc:date>
    <dc:format>image/svg+xml</dc:format>
    <dc:creator>
     <cc:Agent>
      <dc:title>Matplotlib v3.5.1, https://matplotlib.org/</dc:title>
     </cc:Agent>
    </dc:creator>
   </cc:Work>
  </rdf:RDF>
 </metadata>
 <defs>
  <style type="text/css">*{stroke-linejoin: round; stroke-linecap: butt}</style>
 </defs>
 <g id="figure_1">
  <g id="patch_1">
   <path d="M 0 288 
L 432 288 
L 432 0 
L 0 0 
L 0 288 
z
" style="fill: none"/>
  </g>
  <g id="axes_1">
   <g id="patch_2">
    <path d="M 160.887941 252 
L 281.912059 252 
L 281.912059 34.56 
L 160.887941 34.56 
z
" style="fill: #ffffff"/>
   </g>
   <g id="PolyCollection_1">
    <defs>
     <path id="m06063c3b2b" d="M 182.891248 -117.045818 
L 179.226006 -117.045818 
L 179.166168 -118.084099 
L 179.107162 -119.12238 
L 179.049092 -120.160661 
L 178.992055 -121.198942 
L 178.936131 -122.237223 
L 178.881388 -123.275504 
L 178.827881 -124.313785 
L 178.775644 -125.352066 
L 178.724699 -126.390347 
L 178.675045 -127.428628 
L 178.626667 -128.466909 
L 178.579525 -129.50519 
L 178.533563 -130.543471 
L 178.488703 -131.581752 
L 178.444844 -132.620033 
L 178.401868 -133.658314 
L 178.359632 -134.696595 
L 178.317978 -135.734876 
L 178.276724 -136.773157 
L 178.235676 -137.811438 
L 178.19462 -138.849719 
L 178.153329 -139.888 
L 178.111566 -140.926281 
L 178.069085 -141.964562 
L 178.025633 -143.002843 
L 177.980959 -144.041124 
L 177.934811 -145.079405 
L 177.886944 -146.117686 
L 177.837125 -147.155967 
L 177.785135 -148.194248 
L 177.730774 -149.232529 
L 177.673869 -150.27081 
L 177.614274 -151.309091 
L 177.551878 -152.347372 
L 177.486606 -153.385653 
L 177.418426 -154.423934 
L 177.34735 -155.462215 
L 177.273438 -156.500496 
L 177.1968 -157.538777 
L 177.117597 -158.577058 
L 177.036043 -159.615339 
L 176.952406 -160.65362 
L 176.867004 -161.691901 
L 176.780206 -162.730182 
L 176.692428 -163.768463 
L 176.604134 -164.806744 
L 176.515826 -165.845025 
L 176.428043 -166.883306 
L 176.341353 -167.921587 
L 176.256351 -168.959868 
L 176.173648 -169.998149 
L 176.093867 -171.03643 
L 176.017632 -172.074711 
L 175.945566 -173.112992 
L 175.878278 -174.151273 
L 175.816356 -175.189554 
L 175.760363 -176.227835 
L 175.710828 -177.266116 
L 175.668237 -178.304397 
L 175.63303 -179.342678 
L 175.605594 -180.380959 
L 175.586258 -181.41924 
L 175.57529 -182.457521 
L 175.572891 -183.495802 
L 175.579198 -184.534083 
L 175.594279 -185.572364 
L 175.618131 -186.610645 
L 175.650687 -187.648926 
L 175.69181 -188.687207 
L 175.741303 -189.725488 
L 175.798905 -190.763769 
L 175.864303 -191.80205 
L 175.93713 -192.840331 
L 176.016974 -193.878612 
L 176.103382 -194.916893 
L 176.195869 -195.955174 
L 176.293922 -196.993455 
L 176.397007 -198.031736 
L 176.504577 -199.070017 
L 176.616076 -200.108298 
L 176.73095 -201.146579 
L 176.848646 -202.18486 
L 176.968624 -203.22314 
L 177.09036 -204.261421 
L 177.213349 -205.299702 
L 177.337109 -206.337983 
L 177.461189 -207.376264 
L 177.585166 -208.414545 
L 177.708648 -209.452826 
L 177.83128 -210.491107 
L 177.952739 -211.529388 
L 178.072737 -212.567669 
L 178.191019 -213.60595 
L 178.307366 -214.644231 
L 178.421587 -215.682512 
L 178.533523 -216.720793 
L 178.643044 -217.759074 
L 178.750043 -218.797355 
L 178.854438 -219.835636 
L 183.262816 -219.835636 
L 183.262816 -219.835636 
L 183.367211 -218.797355 
L 183.47421 -217.759074 
L 183.583731 -216.720793 
L 183.695667 -215.682512 
L 183.809888 -214.644231 
L 183.926235 -213.60595 
L 184.044517 -212.567669 
L 184.164515 -211.529388 
L 184.285974 -210.491107 
L 184.408606 -209.452826 
L 184.532088 -208.414545 
L 184.656065 -207.376264 
L 184.780145 -206.337983 
L 184.903906 -205.299702 
L 185.026894 -204.261421 
L 185.14863 -203.22314 
L 185.268608 -202.18486 
L 185.386304 -201.146579 
L 185.501178 -200.108298 
L 185.612677 -199.070017 
L 185.720247 -198.031736 
L 185.823332 -196.993455 
L 185.921385 -195.955174 
L 186.013872 -194.916893 
L 186.10028 -193.878612 
L 186.180124 -192.840331 
L 186.252951 -191.80205 
L 186.318349 -190.763769 
L 186.375952 -189.725488 
L 186.425444 -188.687207 
L 186.466567 -187.648926 
L 186.499123 -186.610645 
L 186.522975 -185.572364 
L 186.538056 -184.534083 
L 186.544363 -183.495802 
L 186.541965 -182.457521 
L 186.530996 -181.41924 
L 186.51166 -180.380959 
L 186.484224 -179.342678 
L 186.449017 -178.304397 
L 186.406426 -177.266116 
L 186.356891 -176.227835 
L 186.300898 -175.189554 
L 186.238977 -174.151273 
L 186.171688 -173.112992 
L 186.099622 -172.074711 
L 186.023387 -171.03643 
L 185.943606 -169.998149 
L 185.860903 -168.959868 
L 185.775901 -167.921587 
L 185.689212 -166.883306 
L 185.601428 -165.845025 
L 185.51312 -164.806744 
L 185.424826 -163.768463 
L 185.337049 -162.730182 
L 185.25025 -161.691901 
L 185.164848 -160.65362 
L 185.081211 -159.615339 
L 184.999657 -158.577058 
L 184.920454 -157.538777 
L 184.843816 -156.500496 
L 184.769904 -155.462215 
L 184.698828 -154.423934 
L 184.630648 -153.385653 
L 184.565376 -152.347372 
L 184.50298 -151.309091 
L 184.443385 -150.27081 
L 184.38648 -149.232529 
L 184.33212 -148.194248 
L 184.280129 -147.155967 
L 184.23031 -146.117686 
L 184.182443 -145.079405 
L 184.136295 -144.041124 
L 184.091621 -143.002843 
L 184.04817 -141.964562 
L 184.005688 -140.926281 
L 183.963925 -139.888 
L 183.922635 -138.849719 
L 183.881578 -137.811438 
L 183.84053 -136.773157 
L 183.799277 -135.734876 
L 183.757622 -134.696595 
L 183.715387 -133.658314 
L 183.67241 -132.620033 
L 183.628551 -131.581752 
L 183.583691 -130.543471 
L 183.537729 -129.50519 
L 183.490588 -128.466909 
L 183.442209 -127.428628 
L 183.392556 -126.390347 
L 183.34161 -125.352066 
L 183.289374 -124.313785 
L 183.235866 -123.275504 
L 183.181123 -122.237223 
L 183.1252 -121.198942 
L 183.068162 -120.160661 
L 183.010093 -119.12238 
L 182.951086 -118.084099 
L 182.891248 -117.045818 
z
" style="stroke: #ee82ee; stroke-width: 1.5"/>
    </defs>
    <g clip-path="url(#p3286d47247)">
     <use xlink:href="#m06063c3b2b" x="0" y="288" style="fill: #ffffff; stroke: #ee82ee; stroke-width: 1.5"/>
    </g>
   </g>
   <g id="PolyCollection_2">
    <defs>
     <path id="mb33f3e16af" d="M 229.157149 -45.883636 
L 213.642851 -45.883636 
L 213.280643 -46.203107 
L 212.91337 -46.522579 
L 212.541928 -46.84205 
L 212.167297 -47.161521 
L 211.790545 -47.480992 
L 211.412818 -47.800463 
L 211.035337 -48.119934 
L 210.659392 -48.439405 
L 210.286332 -48.758876 
L 209.917551 -49.078347 
L 209.55448 -49.397818 
L 209.198568 -49.717289 
L 208.851271 -50.03676 
L 208.51403 -50.356231 
L 208.188254 -50.675702 
L 207.875303 -50.995174 
L 207.576467 -51.314645 
L 207.29295 -51.634116 
L 207.025849 -51.953587 
L 206.776137 -52.273058 
L 206.544649 -52.592529 
L 206.332066 -52.912 
L 206.138907 -53.231471 
L 205.965517 -53.550942 
L 205.81206 -53.870413 
L 205.67852 -54.189884 
L 205.564698 -54.509355 
L 205.470217 -54.828826 
L 205.394529 -55.148298 
L 205.336927 -55.467769 
L 205.296556 -55.78724 
L 205.272429 -56.106711 
L 205.263451 -56.426182 
L 205.268434 -56.745653 
L 205.286127 -57.065124 
L 205.315232 -57.384595 
L 205.354436 -57.704066 
L 205.402435 -58.023537 
L 205.457957 -58.343008 
L 205.519785 -58.662479 
L 205.586785 -58.98195 
L 205.657919 -59.301421 
L 205.732271 -59.620893 
L 205.809055 -59.940364 
L 205.887632 -60.259835 
L 205.967516 -60.579306 
L 206.048381 -60.898777 
L 206.130061 -61.218248 
L 206.212547 -61.537719 
L 206.295984 -61.85719 
L 206.380658 -62.176661 
L 206.466985 -62.496132 
L 206.555496 -62.815603 
L 206.646818 -63.135074 
L 206.741658 -63.454545 
L 206.840775 -63.774017 
L 206.944964 -64.093488 
L 207.055028 -64.412959 
L 207.171762 -64.73243 
L 207.295923 -65.051901 
L 207.428217 -65.371372 
L 207.569274 -65.690843 
L 207.719633 -66.010314 
L 207.879729 -66.329785 
L 208.049877 -66.649256 
L 208.230268 -66.968727 
L 208.420957 -67.288198 
L 208.621865 -67.607669 
L 208.832778 -67.92714 
L 209.053348 -68.246612 
L 209.283103 -68.566083 
L 209.521454 -68.885554 
L 209.767705 -69.205025 
L 210.021069 -69.524496 
L 210.280682 -69.843967 
L 210.545619 -70.163438 
L 210.814911 -70.482909 
L 211.087565 -70.80238 
L 211.362577 -71.121851 
L 211.638953 -71.441322 
L 211.915727 -71.760793 
L 212.191968 -72.080264 
L 212.466804 -72.399736 
L 212.739425 -72.719207 
L 213.009099 -73.038678 
L 213.275176 -73.358149 
L 213.537096 -73.67762 
L 213.79439 -73.997091 
L 214.046683 -74.316562 
L 214.29369 -74.636033 
L 214.535219 -74.955504 
L 214.771157 -75.274975 
L 215.001471 -75.594446 
L 215.226197 -75.913917 
L 215.445433 -76.233388 
L 215.659325 -76.55286 
L 215.868062 -76.872331 
L 216.071862 -77.191802 
L 216.270962 -77.511273 
L 226.529038 -77.511273 
L 226.529038 -77.511273 
L 226.728138 -77.191802 
L 226.931938 -76.872331 
L 227.140675 -76.55286 
L 227.354567 -76.233388 
L 227.573803 -75.913917 
L 227.798529 -75.594446 
L 228.028843 -75.274975 
L 228.264781 -74.955504 
L 228.50631 -74.636033 
L 228.753317 -74.316562 
L 229.00561 -73.997091 
L 229.262904 -73.67762 
L 229.524824 -73.358149 
L 229.790901 -73.038678 
L 230.060575 -72.719207 
L 230.333196 -72.399736 
L 230.608032 -72.080264 
L 230.884273 -71.760793 
L 231.161047 -71.441322 
L 231.437423 -71.121851 
L 231.712435 -70.80238 
L 231.985089 -70.482909 
L 232.254381 -70.163438 
L 232.519318 -69.843967 
L 232.778931 -69.524496 
L 233.032295 -69.205025 
L 233.278546 -68.885554 
L 233.516897 -68.566083 
L 233.746652 -68.246612 
L 233.967222 -67.92714 
L 234.178135 -67.607669 
L 234.379043 -67.288198 
L 234.569732 -66.968727 
L 234.750123 -66.649256 
L 234.920271 -66.329785 
L 235.080367 -66.010314 
L 235.230726 -65.690843 
L 235.371783 -65.371372 
L 235.504077 -65.051901 
L 235.628238 -64.73243 
L 235.744972 -64.412959 
L 235.855036 -64.093488 
L 235.959225 -63.774017 
L 236.058342 -63.454545 
L 236.153182 -63.135074 
L 236.244504 -62.815603 
L 236.333015 -62.496132 
L 236.419342 -62.176661 
L 236.504016 -61.85719 
L 236.587453 -61.537719 
L 236.669939 -61.218248 
L 236.751619 -60.898777 
L 236.832484 -60.579306 
L 236.912368 -60.259835 
L 236.990945 -59.940364 
L 237.067729 -59.620893 
L 237.142081 -59.301421 
L 237.213215 -58.98195 
L 237.280215 -58.662479 
L 237.342043 -58.343008 
L 237.397565 -58.023537 
L 237.445564 -57.704066 
L 237.484768 -57.384595 
L 237.513873 -57.065124 
L 237.531566 -56.745653 
L 237.536549 -56.426182 
L 237.527571 -56.106711 
L 237.503444 -55.78724 
L 237.463073 -55.467769 
L 237.405471 -55.148298 
L 237.329783 -54.828826 
L 237.235302 -54.509355 
L 237.12148 -54.189884 
L 236.98794 -53.870413 
L 236.834483 -53.550942 
L 236.661093 -53.231471 
L 236.467934 -52.912 
L 236.255351 -52.592529 
L 236.023863 -52.273058 
L 235.774151 -51.953587 
L 235.50705 -51.634116 
L 235.223533 -51.314645 
L 234.924697 -50.995174 
L 234.611746 -50.675702 
L 234.28597 -50.356231 
L 233.948729 -50.03676 
L 233.601432 -49.717289 
L 233.24552 -49.397818 
L 232.882449 -49.078347 
L 232.513668 -48.758876 
L 232.140608 -48.439405 
L 231.764663 -48.119934 
L 231.387182 -47.800463 
L 231.009455 -47.480992 
L 230.632703 -47.161521 
L 230.258072 -46.84205 
L 229.88663 -46.522579 
L 229.519357 -46.203107 
L 229.157149 -45.883636 
z
" style="stroke: #0000ff; stroke-width: 1.5"/>
    </defs>
    <g clip-path="url(#p3286d47247)">
     <use xlink:href="#mb33f3e16af" x="0" y="288" style="fill: #ffffff; stroke: #0000ff; stroke-width: 1.5"/>
    </g>
   </g>
   <g id="PolyCollection_3">
    <defs>
     <path id="m6d515d6050" d="M 272.538574 -65.650909 
L 250.944172 -65.650909 
L 250.750886 -65.890512 
L 250.566688 -66.130116 
L 250.391848 -66.369719 
L 250.226581 -66.609322 
L 250.071049 -66.848926 
L 249.925353 -67.088529 
L 249.789539 -67.328132 
L 249.663595 -67.567736 
L 249.547454 -67.807339 
L 249.440992 -68.046942 
L 249.34403 -68.286545 
L 249.25634 -68.526149 
L 249.177643 -68.765752 
L 249.107612 -69.005355 
L 249.045878 -69.244959 
L 248.992031 -69.484562 
L 248.945624 -69.724165 
L 248.90618 -69.963769 
L 248.87319 -70.203372 
L 248.846123 -70.442975 
L 248.824429 -70.682579 
L 248.807541 -70.922182 
L 248.794884 -71.161785 
L 248.785873 -71.401388 
L 248.779924 -71.640992 
L 248.776456 -71.880595 
L 248.774892 -72.120198 
L 248.774668 -72.359802 
L 248.775233 -72.599405 
L 248.776054 -72.839008 
L 248.776619 -73.078612 
L 248.776442 -73.318215 
L 248.775062 -73.557818 
L 248.772046 -73.797421 
L 248.766997 -74.037025 
L 248.759546 -74.276628 
L 248.749362 -74.516231 
L 248.73615 -74.755835 
L 248.719651 -74.995438 
L 248.699644 -75.235041 
L 248.675948 -75.474645 
L 248.648417 -75.714248 
L 248.616946 -75.953851 
L 248.581468 -76.193455 
L 248.541954 -76.433058 
L 248.49841 -76.672661 
L 248.450883 -76.912264 
L 248.399451 -77.151868 
L 248.34423 -77.391471 
L 248.285368 -77.631074 
L 248.223048 -77.870678 
L 248.157481 -78.110281 
L 248.088912 -78.349884 
L 248.017612 -78.589488 
L 247.943881 -78.829091 
L 247.868045 -79.068694 
L 247.790456 -79.308298 
L 247.711488 -79.547901 
L 247.631537 -79.787504 
L 247.551021 -80.027107 
L 247.470378 -80.266711 
L 247.39006 -80.506314 
L 247.310538 -80.745917 
L 247.232297 -80.985521 
L 247.155835 -81.225124 
L 247.08166 -81.464727 
L 247.010289 -81.704331 
L 246.942248 -81.943934 
L 246.878068 -82.183537 
L 246.818281 -82.42314 
L 246.763423 -82.662744 
L 246.714028 -82.902347 
L 246.670626 -83.14195 
L 246.63374 -83.381554 
L 246.603888 -83.621157 
L 246.581574 -83.86076 
L 246.567289 -84.100364 
L 246.561507 -84.339967 
L 246.564685 -84.57957 
L 246.577255 -84.819174 
L 246.599626 -85.058777 
L 246.63218 -85.29838 
L 246.675266 -85.537983 
L 246.729203 -85.777587 
L 246.794271 -86.01719 
L 246.870716 -86.256793 
L 246.95874 -86.496397 
L 247.058505 -86.736 
L 247.170126 -86.975603 
L 247.293674 -87.215207 
L 247.429172 -87.45481 
L 247.576591 -87.694413 
L 247.735858 -87.934017 
L 247.906845 -88.17362 
L 248.089374 -88.413223 
L 248.28322 -88.652826 
L 248.488104 -88.89243 
L 248.703701 -89.132033 
L 248.929636 -89.371636 
L 274.55311 -89.371636 
L 274.55311 -89.371636 
L 274.779045 -89.132033 
L 274.994641 -88.89243 
L 275.199526 -88.652826 
L 275.393371 -88.413223 
L 275.575901 -88.17362 
L 275.746888 -87.934017 
L 275.906154 -87.694413 
L 276.053574 -87.45481 
L 276.189071 -87.215207 
L 276.31262 -86.975603 
L 276.424241 -86.736 
L 276.524005 -86.496397 
L 276.61203 -86.256793 
L 276.688474 -86.01719 
L 276.753543 -85.777587 
L 276.80748 -85.537983 
L 276.850566 -85.29838 
L 276.883119 -85.058777 
L 276.905491 -84.819174 
L 276.918061 -84.57957 
L 276.921238 -84.339967 
L 276.915457 -84.100364 
L 276.901172 -83.86076 
L 276.878858 -83.621157 
L 276.849005 -83.381554 
L 276.81212 -83.14195 
L 276.768718 -82.902347 
L 276.719323 -82.662744 
L 276.664465 -82.42314 
L 276.604678 -82.183537 
L 276.540498 -81.943934 
L 276.472457 -81.704331 
L 276.401086 -81.464727 
L 276.326911 -81.225124 
L 276.250448 -80.985521 
L 276.172208 -80.745917 
L 276.092686 -80.506314 
L 276.012368 -80.266711 
L 275.931724 -80.027107 
L 275.851209 -79.787504 
L 275.771258 -79.547901 
L 275.69229 -79.308298 
L 275.614701 -79.068694 
L 275.538865 -78.829091 
L 275.465134 -78.589488 
L 275.393834 -78.349884 
L 275.325265 -78.110281 
L 275.259698 -77.870678 
L 275.197378 -77.631074 
L 275.138516 -77.391471 
L 275.083295 -77.151868 
L 275.031863 -76.912264 
L 274.984335 -76.672661 
L 274.940792 -76.433058 
L 274.901278 -76.193455 
L 274.8658 -75.953851 
L 274.834329 -75.714248 
L 274.806798 -75.474645 
L 274.783101 -75.235041 
L 274.763095 -74.995438 
L 274.746596 -74.755835 
L 274.733384 -74.516231 
L 274.7232 -74.276628 
L 274.715749 -74.037025 
L 274.710699 -73.797421 
L 274.707684 -73.557818 
L 274.706304 -73.318215 
L 274.706126 -73.078612 
L 274.706692 -72.839008 
L 274.707513 -72.599405 
L 274.708078 -72.359802 
L 274.707854 -72.120198 
L 274.70629 -71.880595 
L 274.702822 -71.640992 
L 274.696873 -71.401388 
L 274.687862 -71.161785 
L 274.675204 -70.922182 
L 274.658317 -70.682579 
L 274.636623 -70.442975 
L 274.609556 -70.203372 
L 274.576566 -69.963769 
L 274.537121 -69.724165 
L 274.490715 -69.484562 
L 274.436868 -69.244959 
L 274.375134 -69.005355 
L 274.305103 -68.765752 
L 274.226405 -68.526149 
L 274.138716 -68.286545 
L 274.041754 -68.046942 
L 273.935292 -67.807339 
L 273.81915 -67.567736 
L 273.693207 -67.328132 
L 273.557393 -67.088529 
L 273.411697 -66.848926 
L 273.256164 -66.609322 
L 273.090898 -66.369719 
L 272.916058 -66.130116 
L 272.73186 -65.890512 
L 272.538574 -65.650909 
z
" style="stroke: #00fa9a; stroke-width: 1.5"/>
    </defs>
    <g clip-path="url(#p3286d47247)">
     <use xlink:href="#m6d515d6050" x="0" y="288" style="fill: #ffffff; stroke: #00fa9a; stroke-width: 1.5"/>
    </g>
   </g>
   <g id="matplotlib.axis_1">
    <g id="xtick_1">
     <g id="text_1">
      <!-- 1 -->
      <g transform="translate(177.877377 266.598437)scale(0.1 -0.1)">
       <defs>
        <path id="DejaVuSans-31" d="M 794 531 
L 1825 531 
L 1825 4091 
L 703 3866 
L 703 4441 
L 1819 4666 
L 2450 4666 
L 2450 531 
L 3481 531 
L 3481 0 
L 794 0 
L 794 531 
z
" transform="scale(0.015625)"/>
       </defs>
       <use xlink:href="#DejaVuSans-31"/>
      </g>
     </g>
    </g>
    <g id="xtick_2">
     <g id="text_2">
      <!-- 2 -->
      <g transform="translate(218.21875 266.598437)scale(0.1 -0.1)">
       <defs>
        <path id="DejaVuSans-32" d="M 1228 531 
L 3431 531 
L 3431 0 
L 469 0 
L 469 531 
Q 828 903 1448 1529 
Q 2069 2156 2228 2338 
Q 2531 2678 2651 2914 
Q 2772 3150 2772 3378 
Q 2772 3750 2511 3984 
Q 2250 4219 1831 4219 
Q 1534 4219 1204 4116 
Q 875 4013 500 3803 
L 500 4441 
Q 881 4594 1212 4672 
Q 1544 4750 1819 4750 
Q 2544 4750 2975 4387 
Q 3406 4025 3406 3419 
Q 3406 3131 3298 2873 
Q 3191 2616 2906 2266 
Q 2828 2175 2409 1742 
Q 1991 1309 1228 531 
z
" transform="scale(0.015625)"/>
       </defs>
       <use xlink:href="#DejaVuSans-32"/>
      </g>
     </g>
    </g>
    <g id="xtick_3">
     <g id="text_3">
      <!-- 3 -->
      <g transform="translate(258.560123 266.598437)scale(0.1 -0.1)">
       <defs>
        <path id="DejaVuSans-33" d="M 2597 2516 
Q 3050 2419 3304 2112 
Q 3559 1806 3559 1356 
Q 3559 666 3084 287 
Q 2609 -91 1734 -91 
Q 1441 -91 1130 -33 
Q 819 25 488 141 
L 488 750 
Q 750 597 1062 519 
Q 1375 441 1716 441 
Q 2309 441 2620 675 
Q 2931 909 2931 1356 
Q 2931 1769 2642 2001 
Q 2353 2234 1838 2234 
L 1294 2234 
L 1294 2753 
L 1863 2753 
Q 2328 2753 2575 2939 
Q 2822 3125 2822 3475 
Q 2822 3834 2567 4026 
Q 2313 4219 1838 4219 
Q 1578 4219 1281 4162 
Q 984 4106 628 3988 
L 628 4550 
Q 988 4650 1302 4700 
Q 1616 4750 1894 4750 
Q 2613 4750 3031 4423 
Q 3450 4097 3450 3541 
Q 3450 3153 3228 2886 
Q 3006 2619 2597 2516 
z
" transform="scale(0.015625)"/>
       </defs>
       <use xlink:href="#DejaVuSans-33"/>
      </g>
     </g>
    </g>
    <g id="text_4">
     <!-- Glomerulus -->
     <g transform="translate(187.0125 281.79625)scale(0.12 -0.12)">
      <defs>
       <path id="DejaVuSans-47" d="M 3809 666 
L 3809 1919 
L 2778 1919 
L 2778 2438 
L 4434 2438 
L 4434 434 
Q 4069 175 3628 42 
Q 3188 -91 2688 -91 
Q 1594 -91 976 548 
Q 359 1188 359 2328 
Q 359 3472 976 4111 
Q 1594 4750 2688 4750 
Q 3144 4750 3555 4637 
Q 3966 4525 4313 4306 
L 4313 3634 
Q 3963 3931 3569 4081 
Q 3175 4231 2741 4231 
Q 1884 4231 1454 3753 
Q 1025 3275 1025 2328 
Q 1025 1384 1454 906 
Q 1884 428 2741 428 
Q 3075 428 3337 486 
Q 3600 544 3809 666 
z
" transform="scale(0.015625)"/>
       <path id="DejaVuSans-6c" d="M 603 4863 
L 1178 4863 
L 1178 0 
L 603 0 
L 603 4863 
z
" transform="scale(0.015625)"/>
       <path id="DejaVuSans-6f" d="M 1959 3097 
Q 1497 3097 1228 2736 
Q 959 2375 959 1747 
Q 959 1119 1226 758 
Q 1494 397 1959 397 
Q 2419 397 2687 759 
Q 2956 1122 2956 1747 
Q 2956 2369 2687 2733 
Q 2419 3097 1959 3097 
z
M 1959 3584 
Q 2709 3584 3137 3096 
Q 3566 2609 3566 1747 
Q 3566 888 3137 398 
Q 2709 -91 1959 -91 
Q 1206 -91 779 398 
Q 353 888 353 1747 
Q 353 2609 779 3096 
Q 1206 3584 1959 3584 
z
" transform="scale(0.015625)"/>
       <path id="DejaVuSans-6d" d="M 3328 2828 
Q 3544 3216 3844 3400 
Q 4144 3584 4550 3584 
Q 5097 3584 5394 3201 
Q 5691 2819 5691 2113 
L 5691 0 
L 5113 0 
L 5113 2094 
Q 5113 2597 4934 2840 
Q 4756 3084 4391 3084 
Q 3944 3084 3684 2787 
Q 3425 2491 3425 1978 
L 3425 0 
L 2847 0 
L 2847 2094 
Q 2847 2600 2669 2842 
Q 2491 3084 2119 3084 
Q 1678 3084 1418 2786 
Q 1159 2488 1159 1978 
L 1159 0 
L 581 0 
L 581 3500 
L 1159 3500 
L 1159 2956 
Q 1356 3278 1631 3431 
Q 1906 3584 2284 3584 
Q 2666 3584 2933 3390 
Q 3200 3197 3328 2828 
z
" transform="scale(0.015625)"/>
       <path id="DejaVuSans-65" d="M 3597 1894 
L 3597 1613 
L 953 1613 
Q 991 1019 1311 708 
Q 1631 397 2203 397 
Q 2534 397 2845 478 
Q 3156 559 3463 722 
L 3463 178 
Q 3153 47 2828 -22 
Q 2503 -91 2169 -91 
Q 1331 -91 842 396 
Q 353 884 353 1716 
Q 353 2575 817 3079 
Q 1281 3584 2069 3584 
Q 2775 3584 3186 3129 
Q 3597 2675 3597 1894 
z
M 3022 2063 
Q 3016 2534 2758 2815 
Q 2500 3097 2075 3097 
Q 1594 3097 1305 2825 
Q 1016 2553 972 2059 
L 3022 2063 
z
" transform="scale(0.015625)"/>
       <path id="DejaVuSans-72" d="M 2631 2963 
Q 2534 3019 2420 3045 
Q 2306 3072 2169 3072 
Q 1681 3072 1420 2755 
Q 1159 2438 1159 1844 
L 1159 0 
L 581 0 
L 581 3500 
L 1159 3500 
L 1159 2956 
Q 1341 3275 1631 3429 
Q 1922 3584 2338 3584 
Q 2397 3584 2469 3576 
Q 2541 3569 2628 3553 
L 2631 2963 
z
" transform="scale(0.015625)"/>
       <path id="DejaVuSans-75" d="M 544 1381 
L 544 3500 
L 1119 3500 
L 1119 1403 
Q 1119 906 1312 657 
Q 1506 409 1894 409 
Q 2359 409 2629 706 
Q 2900 1003 2900 1516 
L 2900 3500 
L 3475 3500 
L 3475 0 
L 2900 0 
L 2900 538 
Q 2691 219 2414 64 
Q 2138 -91 1772 -91 
Q 1169 -91 856 284 
Q 544 659 544 1381 
z
M 1991 3584 
L 1991 3584 
z
" transform="scale(0.015625)"/>
       <path id="DejaVuSans-73" d="M 2834 3397 
L 2834 2853 
Q 2591 2978 2328 3040 
Q 2066 3103 1784 3103 
Q 1356 3103 1142 2972 
Q 928 2841 928 2578 
Q 928 2378 1081 2264 
Q 1234 2150 1697 2047 
L 1894 2003 
Q 2506 1872 2764 1633 
Q 3022 1394 3022 966 
Q 3022 478 2636 193 
Q 2250 -91 1575 -91 
Q 1294 -91 989 -36 
Q 684 19 347 128 
L 347 722 
Q 666 556 975 473 
Q 1284 391 1588 391 
Q 1994 391 2212 530 
Q 2431 669 2431 922 
Q 2431 1156 2273 1281 
Q 2116 1406 1581 1522 
L 1381 1569 
Q 847 1681 609 1914 
Q 372 2147 372 2553 
Q 372 3047 722 3315 
Q 1072 3584 1716 3584 
Q 2034 3584 2315 3537 
Q 2597 3491 2834 3397 
z
" transform="scale(0.015625)"/>
      </defs>
      <use xlink:href="#DejaVuSans-47"/>
      <use xlink:href="#DejaVuSans-6c" x="77.490234"/>
      <use xlink:href="#DejaVuSans-6f" x="105.273438"/>
      <use xlink:href="#DejaVuSans-6d" x="166.455078"/>
      <use xlink:href="#DejaVuSans-65" x="263.867188"/>
      <use xlink:href="#DejaVuSans-72" x="325.390625"/>
      <use xlink:href="#DejaVuSans-75" x="366.503906"/>
      <use xlink:href="#DejaVuSans-6c" x="429.882812"/>
      <use xlink:href="#DejaVuSans-75" x="457.666016"/>
      <use xlink:href="#DejaVuSans-73" x="521.044922"/>
     </g>
    </g>
   </g>
   <g id="matplotlib.axis_2">
    <g id="ytick_1">
     <g id="line2d_1">
      <defs>
       <path id="m0631361d0d" d="M 0 0 
L -3.5 0 
" style="stroke: #000000; stroke-width: 0.8"/>
      </defs>
      <g>
       <use xlink:href="#m0631361d0d" x="160.887941" y="252" style="stroke: #000000; stroke-width: 0.8"/>
      </g>
     </g>
     <g id="text_5">
      <!-- 0 -->
      <g transform="translate(147.525441 255.799219)scale(0.1 -0.1)">
       <defs>
        <path id="DejaVuSans-30" d="M 2034 4250 
Q 1547 4250 1301 3770 
Q 1056 3291 1056 2328 
Q 1056 1369 1301 889 
Q 1547 409 2034 409 
Q 2525 409 2770 889 
Q 3016 1369 3016 2328 
Q 3016 3291 2770 3770 
Q 2525 4250 2034 4250 
z
M 2034 4750 
Q 2819 4750 3233 4129 
Q 3647 3509 3647 2328 
Q 3647 1150 3233 529 
Q 2819 -91 2034 -91 
Q 1250 -91 836 529 
Q 422 1150 422 2328 
Q 422 3509 836 4129 
Q 1250 4750 2034 4750 
z
" transform="scale(0.015625)"/>
       </defs>
       <use xlink:href="#DejaVuSans-30"/>
      </g>
     </g>
    </g>
    <g id="ytick_2">
     <g id="line2d_2">
      <g>
       <use xlink:href="#m0631361d0d" x="160.887941" y="212.465455" style="stroke: #000000; stroke-width: 0.8"/>
      </g>
     </g>
     <g id="text_6">
      <!-- 20 -->
      <g transform="translate(141.162941 216.264673)scale(0.1 -0.1)">
       <use xlink:href="#DejaVuSans-32"/>
       <use xlink:href="#DejaVuSans-30" x="63.623047"/>
      </g>
     </g>
    </g>
    <g id="ytick_3">
     <g id="line2d_3">
      <g>
       <use xlink:href="#m0631361d0d" x="160.887941" y="172.930909" style="stroke: #000000; stroke-width: 0.8"/>
      </g>
     </g>
     <g id="text_7">
      <!-- 40 -->
      <g transform="translate(141.162941 176.730128)scale(0.1 -0.1)">
       <defs>
        <path id="DejaVuSans-34" d="M 2419 4116 
L 825 1625 
L 2419 1625 
L 2419 4116 
z
M 2253 4666 
L 3047 4666 
L 3047 1625 
L 3713 1625 
L 3713 1100 
L 3047 1100 
L 3047 0 
L 2419 0 
L 2419 1100 
L 313 1100 
L 313 1709 
L 2253 4666 
z
" transform="scale(0.015625)"/>
       </defs>
       <use xlink:href="#DejaVuSans-34"/>
       <use xlink:href="#DejaVuSans-30" x="63.623047"/>
      </g>
     </g>
    </g>
    <g id="ytick_4">
     <g id="line2d_4">
      <g>
       <use xlink:href="#m0631361d0d" x="160.887941" y="133.396364" style="stroke: #000000; stroke-width: 0.8"/>
      </g>
     </g>
     <g id="text_8">
      <!-- 60 -->
      <g transform="translate(141.162941 137.195582)scale(0.1 -0.1)">
       <defs>
        <path id="DejaVuSans-36" d="M 2113 2584 
Q 1688 2584 1439 2293 
Q 1191 2003 1191 1497 
Q 1191 994 1439 701 
Q 1688 409 2113 409 
Q 2538 409 2786 701 
Q 3034 994 3034 1497 
Q 3034 2003 2786 2293 
Q 2538 2584 2113 2584 
z
M 3366 4563 
L 3366 3988 
Q 3128 4100 2886 4159 
Q 2644 4219 2406 4219 
Q 1781 4219 1451 3797 
Q 1122 3375 1075 2522 
Q 1259 2794 1537 2939 
Q 1816 3084 2150 3084 
Q 2853 3084 3261 2657 
Q 3669 2231 3669 1497 
Q 3669 778 3244 343 
Q 2819 -91 2113 -91 
Q 1303 -91 875 529 
Q 447 1150 447 2328 
Q 447 3434 972 4092 
Q 1497 4750 2381 4750 
Q 2619 4750 2861 4703 
Q 3103 4656 3366 4563 
z
" transform="scale(0.015625)"/>
       </defs>
       <use xlink:href="#DejaVuSans-36"/>
       <use xlink:href="#DejaVuSans-30" x="63.623047"/>
      </g>
     </g>
    </g>
    <g id="ytick_5">
     <g id="line2d_5">
      <g>
       <use xlink:href="#m0631361d0d" x="160.887941" y="93.861818" style="stroke: #000000; stroke-width: 0.8"/>
      </g>
     </g>
     <g id="text_9">
      <!-- 80 -->
      <g transform="translate(141.162941 97.661037)scale(0.1 -0.1)">
       <defs>
        <path id="DejaVuSans-38" d="M 2034 2216 
Q 1584 2216 1326 1975 
Q 1069 1734 1069 1313 
Q 1069 891 1326 650 
Q 1584 409 2034 409 
Q 2484 409 2743 651 
Q 3003 894 3003 1313 
Q 3003 1734 2745 1975 
Q 2488 2216 2034 2216 
z
M 1403 2484 
Q 997 2584 770 2862 
Q 544 3141 544 3541 
Q 544 4100 942 4425 
Q 1341 4750 2034 4750 
Q 2731 4750 3128 4425 
Q 3525 4100 3525 3541 
Q 3525 3141 3298 2862 
Q 3072 2584 2669 2484 
Q 3125 2378 3379 2068 
Q 3634 1759 3634 1313 
Q 3634 634 3220 271 
Q 2806 -91 2034 -91 
Q 1263 -91 848 271 
Q 434 634 434 1313 
Q 434 1759 690 2068 
Q 947 2378 1403 2484 
z
M 1172 3481 
Q 1172 3119 1398 2916 
Q 1625 2713 2034 2713 
Q 2441 2713 2670 2916 
Q 2900 3119 2900 3481 
Q 2900 3844 2670 4047 
Q 2441 4250 2034 4250 
Q 1625 4250 1398 4047 
Q 1172 3844 1172 3481 
z
" transform="scale(0.015625)"/>
       </defs>
       <use xlink:href="#DejaVuSans-38"/>
       <use xlink:href="#DejaVuSans-30" x="63.623047"/>
      </g>
     </g>
    </g>
    <g id="ytick_6">
     <g id="line2d_6">
      <g>
       <use xlink:href="#m0631361d0d" x="160.887941" y="54.327273" style="stroke: #000000; stroke-width: 0.8"/>
      </g>
     </g>
     <g id="text_10">
      <!-- 100 -->
      <g transform="translate(134.800441 58.126491)scale(0.1 -0.1)">
       <use xlink:href="#DejaVuSans-31"/>
       <use xlink:href="#DejaVuSans-30" x="63.623047"/>
       <use xlink:href="#DejaVuSans-30" x="127.246094"/>
      </g>
     </g>
    </g>
    <g id="text_11">
     <!-- Synapse # (total per OSN) -->
     <g transform="translate(128.304816 222.79125)rotate(-90)scale(0.12 -0.12)">
      <defs>
       <path id="DejaVuSans-53" d="M 3425 4513 
L 3425 3897 
Q 3066 4069 2747 4153 
Q 2428 4238 2131 4238 
Q 1616 4238 1336 4038 
Q 1056 3838 1056 3469 
Q 1056 3159 1242 3001 
Q 1428 2844 1947 2747 
L 2328 2669 
Q 3034 2534 3370 2195 
Q 3706 1856 3706 1288 
Q 3706 609 3251 259 
Q 2797 -91 1919 -91 
Q 1588 -91 1214 -16 
Q 841 59 441 206 
L 441 856 
Q 825 641 1194 531 
Q 1563 422 1919 422 
Q 2459 422 2753 634 
Q 3047 847 3047 1241 
Q 3047 1584 2836 1778 
Q 2625 1972 2144 2069 
L 1759 2144 
Q 1053 2284 737 2584 
Q 422 2884 422 3419 
Q 422 4038 858 4394 
Q 1294 4750 2059 4750 
Q 2388 4750 2728 4690 
Q 3069 4631 3425 4513 
z
" transform="scale(0.015625)"/>
       <path id="DejaVuSans-79" d="M 2059 -325 
Q 1816 -950 1584 -1140 
Q 1353 -1331 966 -1331 
L 506 -1331 
L 506 -850 
L 844 -850 
Q 1081 -850 1212 -737 
Q 1344 -625 1503 -206 
L 1606 56 
L 191 3500 
L 800 3500 
L 1894 763 
L 2988 3500 
L 3597 3500 
L 2059 -325 
z
" transform="scale(0.015625)"/>
       <path id="DejaVuSans-6e" d="M 3513 2113 
L 3513 0 
L 2938 0 
L 2938 2094 
Q 2938 2591 2744 2837 
Q 2550 3084 2163 3084 
Q 1697 3084 1428 2787 
Q 1159 2491 1159 1978 
L 1159 0 
L 581 0 
L 581 3500 
L 1159 3500 
L 1159 2956 
Q 1366 3272 1645 3428 
Q 1925 3584 2291 3584 
Q 2894 3584 3203 3211 
Q 3513 2838 3513 2113 
z
" transform="scale(0.015625)"/>
       <path id="DejaVuSans-61" d="M 2194 1759 
Q 1497 1759 1228 1600 
Q 959 1441 959 1056 
Q 959 750 1161 570 
Q 1363 391 1709 391 
Q 2188 391 2477 730 
Q 2766 1069 2766 1631 
L 2766 1759 
L 2194 1759 
z
M 3341 1997 
L 3341 0 
L 2766 0 
L 2766 531 
Q 2569 213 2275 61 
Q 1981 -91 1556 -91 
Q 1019 -91 701 211 
Q 384 513 384 1019 
Q 384 1609 779 1909 
Q 1175 2209 1959 2209 
L 2766 2209 
L 2766 2266 
Q 2766 2663 2505 2880 
Q 2244 3097 1772 3097 
Q 1472 3097 1187 3025 
Q 903 2953 641 2809 
L 641 3341 
Q 956 3463 1253 3523 
Q 1550 3584 1831 3584 
Q 2591 3584 2966 3190 
Q 3341 2797 3341 1997 
z
" transform="scale(0.015625)"/>
       <path id="DejaVuSans-70" d="M 1159 525 
L 1159 -1331 
L 581 -1331 
L 581 3500 
L 1159 3500 
L 1159 2969 
Q 1341 3281 1617 3432 
Q 1894 3584 2278 3584 
Q 2916 3584 3314 3078 
Q 3713 2572 3713 1747 
Q 3713 922 3314 415 
Q 2916 -91 2278 -91 
Q 1894 -91 1617 61 
Q 1341 213 1159 525 
z
M 3116 1747 
Q 3116 2381 2855 2742 
Q 2594 3103 2138 3103 
Q 1681 3103 1420 2742 
Q 1159 2381 1159 1747 
Q 1159 1113 1420 752 
Q 1681 391 2138 391 
Q 2594 391 2855 752 
Q 3116 1113 3116 1747 
z
" transform="scale(0.015625)"/>
       <path id="DejaVuSans-20" transform="scale(0.015625)"/>
       <path id="DejaVuSans-23" d="M 3272 2816 
L 2363 2816 
L 2100 1772 
L 3016 1772 
L 3272 2816 
z
M 2803 4594 
L 2478 3297 
L 3391 3297 
L 3719 4594 
L 4219 4594 
L 3897 3297 
L 4872 3297 
L 4872 2816 
L 3775 2816 
L 3519 1772 
L 4513 1772 
L 4513 1294 
L 3397 1294 
L 3072 0 
L 2572 0 
L 2894 1294 
L 1978 1294 
L 1656 0 
L 1153 0 
L 1478 1294 
L 494 1294 
L 494 1772 
L 1594 1772 
L 1856 2816 
L 850 2816 
L 850 3297 
L 1978 3297 
L 2297 4594 
L 2803 4594 
z
" transform="scale(0.015625)"/>
       <path id="DejaVuSans-28" d="M 1984 4856 
Q 1566 4138 1362 3434 
Q 1159 2731 1159 2009 
Q 1159 1288 1364 580 
Q 1569 -128 1984 -844 
L 1484 -844 
Q 1016 -109 783 600 
Q 550 1309 550 2009 
Q 550 2706 781 3412 
Q 1013 4119 1484 4856 
L 1984 4856 
z
" transform="scale(0.015625)"/>
       <path id="DejaVuSans-74" d="M 1172 4494 
L 1172 3500 
L 2356 3500 
L 2356 3053 
L 1172 3053 
L 1172 1153 
Q 1172 725 1289 603 
Q 1406 481 1766 481 
L 2356 481 
L 2356 0 
L 1766 0 
Q 1100 0 847 248 
Q 594 497 594 1153 
L 594 3053 
L 172 3053 
L 172 3500 
L 594 3500 
L 594 4494 
L 1172 4494 
z
" transform="scale(0.015625)"/>
       <path id="DejaVuSans-4f" d="M 2522 4238 
Q 1834 4238 1429 3725 
Q 1025 3213 1025 2328 
Q 1025 1447 1429 934 
Q 1834 422 2522 422 
Q 3209 422 3611 934 
Q 4013 1447 4013 2328 
Q 4013 3213 3611 3725 
Q 3209 4238 2522 4238 
z
M 2522 4750 
Q 3503 4750 4090 4092 
Q 4678 3434 4678 2328 
Q 4678 1225 4090 567 
Q 3503 -91 2522 -91 
Q 1538 -91 948 565 
Q 359 1222 359 2328 
Q 359 3434 948 4092 
Q 1538 4750 2522 4750 
z
" transform="scale(0.015625)"/>
       <path id="DejaVuSans-4e" d="M 628 4666 
L 1478 4666 
L 3547 763 
L 3547 4666 
L 4159 4666 
L 4159 0 
L 3309 0 
L 1241 3903 
L 1241 0 
L 628 0 
L 628 4666 
z
" transform="scale(0.015625)"/>
       <path id="DejaVuSans-29" d="M 513 4856 
L 1013 4856 
Q 1481 4119 1714 3412 
Q 1947 2706 1947 2009 
Q 1947 1309 1714 600 
Q 1481 -109 1013 -844 
L 513 -844 
Q 928 -128 1133 580 
Q 1338 1288 1338 2009 
Q 1338 2731 1133 3434 
Q 928 4138 513 4856 
z
" transform="scale(0.015625)"/>
      </defs>
      <use xlink:href="#DejaVuSans-53"/>
      <use xlink:href="#DejaVuSans-79" x="63.476562"/>
      <use xlink:href="#DejaVuSans-6e" x="122.65625"/>
      <use xlink:href="#DejaVuSans-61" x="186.035156"/>
      <use xlink:href="#DejaVuSans-70" x="247.314453"/>
      <use xlink:href="#DejaVuSans-73" x="310.791016"/>
      <use xlink:href="#DejaVuSans-65" x="362.890625"/>
      <use xlink:href="#DejaVuSans-20" x="424.414062"/>
      <use xlink:href="#DejaVuSans-23" x="456.201172"/>
      <use xlink:href="#DejaVuSans-20" x="539.990234"/>
      <use xlink:href="#DejaVuSans-28" x="571.777344"/>
      <use xlink:href="#DejaVuSans-74" x="610.791016"/>
      <use xlink:href="#DejaVuSans-6f" x="650"/>
      <use xlink:href="#DejaVuSans-74" x="711.181641"/>
      <use xlink:href="#DejaVuSans-61" x="750.390625"/>
      <use xlink:href="#DejaVuSans-6c" x="811.669922"/>
      <use xlink:href="#DejaVuSans-20" x="839.453125"/>
      <use xlink:href="#DejaVuSans-70" x="871.240234"/>
      <use xlink:href="#DejaVuSans-65" x="934.716797"/>
      <use xlink:href="#DejaVuSans-72" x="996.240234"/>
      <use xlink:href="#DejaVuSans-20" x="1037.353516"/>
      <use xlink:href="#DejaVuSans-4f" x="1069.140625"/>
      <use xlink:href="#DejaVuSans-53" x="1147.851562"/>
      <use xlink:href="#DejaVuSans-4e" x="1211.328125"/>
      <use xlink:href="#DejaVuSans-29" x="1286.132812"/>
     </g>
    </g>
   </g>
   <g id="line2d_7">
    <path d="M 176.068042 115.605818 
L 186.049212 115.605818 
" clip-path="url(#p3286d47247)" style="fill: none; stroke: #000000; stroke-width: 1.5; stroke-linecap: square"/>
   </g>
   <g id="line2d_8">
    <path d="M 206.042755 227.686255 
L 236.757245 227.686255 
" clip-path="url(#p3286d47247)" style="fill: none; stroke: #000000; stroke-width: 1.5; stroke-linecap: square"/>
   </g>
   <g id="line2d_9">
    <path d="M 248.225436 209.698036 
L 275.257309 209.698036 
" clip-path="url(#p3286d47247)" style="fill: none; stroke: #000000; stroke-width: 1.5; stroke-linecap: square"/>
   </g>
   <g id="patch_3">
    <path d="M 160.887941 252 
L 160.887941 34.56 
" style="fill: none; stroke: #000000; stroke-width: 0.8; stroke-linejoin: miter; stroke-linecap: square"/>
   </g>
   <g id="PathCollection_1">
    <defs>
     <path id="C0_0_71f01f4594" d="M 0 2.5 
C 0.663008 2.5 1.29895 2.236584 1.767767 1.767767 
C 2.236584 1.29895 2.5 0.663008 2.5 -0 
C 2.5 -0.663008 2.236584 -1.29895 1.767767 -1.767767 
C 1.29895 -2.236584 0.663008 -2.5 0 -2.5 
C -0.663008 -2.5 -1.29895 -2.236584 -1.767767 -1.767767 
C -2.236584 -1.29895 -2.5 -0.663008 -2.5 0 
C -2.5 0.663008 -2.236584 1.29895 -1.767767 1.767767 
C -1.29895 2.236584 -0.663008 2.5 0 2.5 
z
"/>
    </defs>
    <g clip-path="url(#p3286d47247)">
     <use xlink:href="#C0_0_71f01f4594" x="179.343592" y="68.164364" style="fill: #ee82ee"/>
    </g>
    <g clip-path="url(#p3286d47247)">
     <use xlink:href="#C0_0_71f01f4594" x="180.554357" y="151.186909" style="fill: #ee82ee"/>
    </g>
    <g clip-path="url(#p3286d47247)">
     <use xlink:href="#C0_0_71f01f4594" x="178.785268" y="117.582545" style="fill: #ee82ee"/>
    </g>
    <g clip-path="url(#p3286d47247)">
     <use xlink:href="#C0_0_71f01f4594" x="180.441848" y="141.303273" style="fill: #ee82ee"/>
    </g>
    <g clip-path="url(#p3286d47247)">
     <use xlink:href="#C0_0_71f01f4594" x="183.205594" y="105.722182" style="fill: #ee82ee"/>
    </g>
    <g clip-path="url(#p3286d47247)">
     <use xlink:href="#C0_0_71f01f4594" x="181.008926" y="89.908364" style="fill: #ee82ee"/>
    </g>
    <g clip-path="url(#p3286d47247)">
     <use xlink:href="#C0_0_71f01f4594" x="183.191377" y="99.792" style="fill: #ee82ee"/>
    </g>
    <g clip-path="url(#p3286d47247)">
     <use xlink:href="#C0_0_71f01f4594" x="178.925795" y="111.652364" style="fill: #ee82ee"/>
    </g>
    <g clip-path="url(#p3286d47247)">
     <use xlink:href="#C0_0_71f01f4594" x="182.552694" y="170.954182" style="fill: #ee82ee"/>
    </g>
    <g clip-path="url(#p3286d47247)">
     <use xlink:href="#C0_0_71f01f4594" x="184.131002" y="99.792" style="fill: #ee82ee"/>
    </g>
   </g>
   <g id="PathCollection_2">
    <defs>
     <path id="C1_0_279b51784d" d="M 0 2.5 
C 0.663008 2.5 1.29895 2.236584 1.767767 1.767767 
C 2.236584 1.29895 2.5 0.663008 2.5 -0 
C 2.5 -0.663008 2.236584 -1.29895 1.767767 -1.767767 
C 1.29895 -2.236584 0.663008 -2.5 0 -2.5 
C -0.663008 -2.5 -1.29895 -2.236584 -1.767767 -1.767767 
C -2.236584 -1.29895 -2.5 -0.663008 -2.5 0 
C -2.5 0.663008 -2.236584 1.29895 -1.767767 1.767767 
C -1.29895 2.236584 -0.663008 2.5 0 2.5 
z
"/>
    </defs>
    <g clip-path="url(#p3286d47247)">
     <use xlink:href="#C1_0_279b51784d" x="220.492577" y="232.232727" style="fill: #0000ff"/>
    </g>
    <g clip-path="url(#p3286d47247)">
     <use xlink:href="#C1_0_279b51784d" x="224.652219" y="222.349091" style="fill: #0000ff"/>
    </g>
    <g clip-path="url(#p3286d47247)">
     <use xlink:href="#C1_0_279b51784d" x="221.549946" y="220.372364" style="fill: #0000ff"/>
    </g>
    <g clip-path="url(#p3286d47247)">
     <use xlink:href="#C1_0_279b51784d" x="223.184593" y="234.209455" style="fill: #0000ff"/>
    </g>
    <g clip-path="url(#p3286d47247)">
     <use xlink:href="#C1_0_279b51784d" x="218.941402" y="220.372364" style="fill: #0000ff"/>
    </g>
    <g clip-path="url(#p3286d47247)">
     <use xlink:href="#C1_0_279b51784d" x="219.040529" y="226.302545" style="fill: #0000ff"/>
    </g>
    <g clip-path="url(#p3286d47247)">
     <use xlink:href="#C1_0_279b51784d" x="218.124724" y="234.209455" style="fill: #0000ff"/>
    </g>
    <g clip-path="url(#p3286d47247)">
     <use xlink:href="#C1_0_279b51784d" x="221.977361" y="234.209455" style="fill: #0000ff"/>
    </g>
    <g clip-path="url(#p3286d47247)">
     <use xlink:href="#C1_0_279b51784d" x="219.675274" y="210.488727" style="fill: #0000ff"/>
    </g>
    <g clip-path="url(#p3286d47247)">
     <use xlink:href="#C1_0_279b51784d" x="221.636724" y="242.116364" style="fill: #0000ff"/>
    </g>
   </g>
   <g id="PathCollection_3">
    <defs>
     <path id="C2_0_8192fbd005" d="M 0 2.5 
C 0.663008 2.5 1.29895 2.236584 1.767767 1.767767 
C 2.236584 1.29895 2.5 0.663008 2.5 -0 
C 2.5 -0.663008 2.236584 -1.29895 1.767767 -1.767767 
C 1.29895 -2.236584 0.663008 -2.5 0 -2.5 
C -0.663008 -2.5 -1.29895 -2.236584 -1.767767 -1.767767 
C -2.236584 -1.29895 -2.5 -0.663008 -2.5 0 
C -2.5 0.663008 -2.236584 1.29895 -1.767767 1.767767 
C -1.29895 2.236584 -0.663008 2.5 0 2.5 
z
"/>
    </defs>
    <g clip-path="url(#p3286d47247)">
     <use xlink:href="#C2_0_8192fbd005" x="258.10731" y="210.488727" style="fill: #00fa9a"/>
    </g>
    <g clip-path="url(#p3286d47247)">
     <use xlink:href="#C2_0_8192fbd005" x="261.949958" y="206.535273" style="fill: #00fa9a"/>
    </g>
    <g clip-path="url(#p3286d47247)">
     <use xlink:href="#C2_0_8192fbd005" x="264.047622" y="220.372364" style="fill: #00fa9a"/>
    </g>
    <g clip-path="url(#p3286d47247)">
     <use xlink:href="#C2_0_8192fbd005" x="264.117764" y="204.558545" style="fill: #00fa9a"/>
    </g>
    <g clip-path="url(#p3286d47247)">
     <use xlink:href="#C2_0_8192fbd005" x="264.025291" y="220.372364" style="fill: #00fa9a"/>
    </g>
    <g clip-path="url(#p3286d47247)">
     <use xlink:href="#C2_0_8192fbd005" x="261.638673" y="222.349091" style="fill: #00fa9a"/>
    </g>
    <g clip-path="url(#p3286d47247)">
     <use xlink:href="#C2_0_8192fbd005" x="259.574116" y="198.628364" style="fill: #00fa9a"/>
    </g>
    <g clip-path="url(#p3286d47247)">
     <use xlink:href="#C2_0_8192fbd005" x="258.996503" y="200.605091" style="fill: #00fa9a"/>
    </g>
    <g clip-path="url(#p3286d47247)">
     <use xlink:href="#C2_0_8192fbd005" x="260.409152" y="214.442182" style="fill: #00fa9a"/>
    </g>
    <g clip-path="url(#p3286d47247)">
     <use xlink:href="#C2_0_8192fbd005" x="258.751549" y="198.628364" style="fill: #00fa9a"/>
    </g>
   </g>
  </g>
 </g>
 <defs>
  <clipPath id="p3286d47247">
   <rect x="160.887941" y="34.56" width="121.024119" height="217.44"/>
  </clipPath>
 </defs>
</svg>
