<?xml version="1.0" encoding="utf-8" standalone="no"?>
<!DOCTYPE svg PUBLIC "-//W3C//DTD SVG 1.1//EN"
  "http://www.w3.org/Graphics/SVG/1.1/DTD/svg11.dtd">
<svg xmlns:xlink="http://www.w3.org/1999/xlink" width="504pt" height="504pt" viewBox="0 0 504 504" xmlns="http://www.w3.org/2000/svg" version="1.1">
 <metadata>
  <rdf:RDF xmlns:dc="http://purl.org/dc/elements/1.1/" xmlns:cc="http://creativecommons.org/ns#" xmlns:rdf="http://www.w3.org/1999/02/22-rdf-syntax-ns#">
   <cc:Work>
    <dc:type rdf:resource="http://purl.org/dc/dcmitype/StillImage"/>
    <dc:date>2024-01-28T10:22:35.482978</dc:date>
    <dc:format>image/svg+xml</dc:format>
    <dc:creator>
     <cc:Agent>
      <dc:title>Matplotlib v3.5.1, https://matplotlib.org/</dc:title>
     </cc:Agent>
    </dc:creator>
   </cc:Work>
  </rdf:RDF>
 </metadata>
 <defs>
  <style type="text/css">*{stroke-linejoin: round; stroke-linecap: butt}</style>
 </defs>
 <g id="figure_1">
  <g id="patch_1">
   <path d="M 0 504 
L 504 504 
L 504 0 
L 0 0 
L 0 504 
z
" style="fill: none"/>
  </g>
  <g id="axes_1">
   <g id="patch_2">
    <path d="M 104.035135 441 
L 412.564865 441 
L 412.564865 60.48 
L 104.035135 60.48 
z
" style="fill: #ffffff"/>
   </g>
   <g id="PolyCollection_1">
    <defs>
     <path id="me294c76aeb" d="M 165.564053 -72.255892 
L 145.349461 -72.255892 
L 144.710393 -73.263548 
L 144.057383 -74.271204 
L 143.390983 -75.27886 
L 142.711854 -76.286516 
L 142.020837 -77.294172 
L 141.319032 -78.301828 
L 140.607874 -79.309484 
L 139.889192 -80.31714 
L 139.165265 -81.324796 
L 138.438847 -82.332452 
L 137.713172 -83.340108 
L 136.991934 -84.347764 
L 136.279235 -85.35542 
L 135.579504 -86.363076 
L 134.897387 -87.370732 
L 134.237619 -88.378388 
L 133.604872 -89.386044 
L 133.003598 -90.3937 
L 132.437858 -91.401356 
L 131.911171 -92.409012 
L 131.426368 -93.416668 
L 130.985469 -94.424324 
L 130.589598 -95.43198 
L 130.238927 -96.439636 
L 129.932669 -97.447292 
L 129.669114 -98.454948 
L 129.445706 -99.462604 
L 129.259168 -100.47026 
L 129.105663 -101.477916 
L 128.980983 -102.485572 
L 128.880761 -103.493229 
L 128.8007 -104.500885 
L 128.736796 -105.508541 
L 128.685551 -106.516197 
L 128.644165 -107.523853 
L 128.610698 -108.531509 
L 128.584187 -109.539165 
L 128.564723 -110.546821 
L 128.553465 -111.554477 
L 128.552617 -112.562133 
L 128.565344 -113.569789 
L 128.595641 -114.577445 
L 128.64817 -115.585101 
L 128.728056 -116.592757 
L 128.840663 -117.600413 
L 128.99136 -118.608069 
L 129.185287 -119.615725 
L 129.427124 -120.623381 
L 129.720886 -121.631037 
L 130.069745 -122.638693 
L 130.475882 -123.646349 
L 130.940383 -124.654005 
L 131.463175 -125.661661 
L 132.043003 -126.669317 
L 132.677451 -127.676973 
L 133.363002 -128.684629 
L 134.095126 -129.692285 
L 134.868403 -130.699941 
L 135.676666 -131.707597 
L 136.513157 -132.715253 
L 137.370694 -133.722909 
L 138.241844 -134.730565 
L 139.119087 -135.738221 
L 139.994975 -136.745877 
L 140.862285 -137.753533 
L 141.714144 -138.761189 
L 142.544148 -139.768845 
L 143.346458 -140.776501 
L 144.115877 -141.784157 
L 144.847904 -142.791813 
L 145.538775 -143.799469 
L 146.185482 -144.807125 
L 146.785776 -145.814781 
L 147.338158 -146.822437 
L 147.841853 -147.830093 
L 148.29678 -148.837749 
L 148.703503 -149.845405 
L 149.063187 -150.853061 
L 149.377543 -151.860717 
L 149.648769 -152.868373 
L 149.87949 -153.876029 
L 150.0727 -154.883686 
L 150.231704 -155.891342 
L 150.360052 -156.898998 
L 150.461486 -157.906654 
L 150.539883 -158.91431 
L 150.599191 -159.921966 
L 150.643381 -160.929622 
L 150.676385 -161.937278 
L 150.702044 -162.944934 
L 150.724053 -163.95259 
L 150.745904 -164.960246 
L 150.770842 -165.967902 
L 150.801808 -166.975558 
L 150.8414 -167.983214 
L 150.89183 -168.99087 
L 150.954894 -169.998526 
L 151.031945 -171.006182 
L 151.123882 -172.013838 
L 159.789632 -172.013838 
L 159.789632 -172.013838 
L 159.881568 -171.006182 
L 159.95862 -169.998526 
L 160.021684 -168.99087 
L 160.072114 -167.983214 
L 160.111706 -166.975558 
L 160.142672 -165.967902 
L 160.167609 -164.960246 
L 160.189461 -163.95259 
L 160.211469 -162.944934 
L 160.237128 -161.937278 
L 160.270132 -160.929622 
L 160.314322 -159.921966 
L 160.373631 -158.91431 
L 160.452027 -157.906654 
L 160.553462 -156.898998 
L 160.68181 -155.891342 
L 160.840813 -154.883686 
L 161.034024 -153.876029 
L 161.264745 -152.868373 
L 161.53597 -151.860717 
L 161.850326 -150.853061 
L 162.210011 -149.845405 
L 162.616734 -148.837749 
L 163.07166 -147.830093 
L 163.575356 -146.822437 
L 164.127738 -145.814781 
L 164.728032 -144.807125 
L 165.374738 -143.799469 
L 166.065609 -142.791813 
L 166.797636 -141.784157 
L 167.567055 -140.776501 
L 168.369366 -139.768845 
L 169.19937 -138.761189 
L 170.051228 -137.753533 
L 170.918538 -136.745877 
L 171.794427 -135.738221 
L 172.67167 -134.730565 
L 173.542819 -133.722909 
L 174.400357 -132.715253 
L 175.236847 -131.707597 
L 176.04511 -130.699941 
L 176.818388 -129.692285 
L 177.550511 -128.684629 
L 178.236062 -127.676973 
L 178.870511 -126.669317 
L 179.450338 -125.661661 
L 179.97313 -124.654005 
L 180.437631 -123.646349 
L 180.843769 -122.638693 
L 181.192628 -121.631037 
L 181.48639 -120.623381 
L 181.728227 -119.615725 
L 181.922153 -118.608069 
L 182.072851 -117.600413 
L 182.185458 -116.592757 
L 182.265343 -115.585101 
L 182.317873 -114.577445 
L 182.34817 -113.569789 
L 182.360896 -112.562133 
L 182.360049 -111.554477 
L 182.348791 -110.546821 
L 182.329326 -109.539165 
L 182.302816 -108.531509 
L 182.269349 -107.523853 
L 182.227963 -106.516197 
L 182.176717 -105.508541 
L 182.112813 -104.500885 
L 182.032753 -103.493229 
L 181.932531 -102.485572 
L 181.80785 -101.477916 
L 181.654345 -100.47026 
L 181.467808 -99.462604 
L 181.2444 -98.454948 
L 180.980845 -97.447292 
L 180.674587 -96.439636 
L 180.323916 -95.43198 
L 179.928044 -94.424324 
L 179.487145 -93.416668 
L 179.002342 -92.409012 
L 178.475656 -91.401356 
L 177.909916 -90.3937 
L 177.308641 -89.386044 
L 176.675895 -88.378388 
L 176.016127 -87.370732 
L 175.33401 -86.363076 
L 174.634278 -85.35542 
L 173.92158 -84.347764 
L 173.200342 -83.340108 
L 172.474667 -82.332452 
L 171.748248 -81.324796 
L 171.024321 -80.31714 
L 170.30564 -79.309484 
L 169.594482 -78.301828 
L 168.892677 -77.294172 
L 168.201659 -76.286516 
L 167.52253 -75.27886 
L 166.856131 -74.271204 
L 166.203121 -73.263548 
L 165.564053 -72.255892 
z
" style="stroke: #4b0082; stroke-width: 1.5"/>
    </defs>
    <g clip-path="url(#p7cc8bbed35)">
     <use xlink:href="#me294c76aeb" x="0" y="504" style="fill: #ffffff; stroke: #4b0082; stroke-width: 1.5"/>
    </g>
   </g>
   <g id="PolyCollection_2">
    <defs>
     <path id="mffccf40b83" d="M 277.28337 -91.796108 
L 239.31663 -91.796108 
L 238.325237 -92.388236 
L 237.326924 -92.980364 
L 236.323905 -93.572491 
L 235.31836 -94.164619 
L 234.312447 -94.756747 
L 233.308315 -95.348875 
L 232.308128 -95.941002 
L 231.314088 -96.53313 
L 230.328462 -97.125258 
L 229.353612 -97.717386 
L 228.392027 -98.309514 
L 227.446342 -98.901641 
L 226.519368 -99.493769 
L 225.614111 -100.085897 
L 224.733781 -100.678025 
L 223.8818 -101.270152 
L 223.061799 -101.86228 
L 222.277608 -102.454408 
L 221.533231 -103.046536 
L 220.83282 -103.638663 
L 220.180632 -104.230791 
L 219.580982 -104.822919 
L 219.038188 -105.415047 
L 218.556507 -106.007174 
L 218.140067 -106.599302 
L 217.792794 -107.19143 
L 217.51834 -107.783558 
L 217.320005 -108.375686 
L 217.200665 -108.967813 
L 217.162703 -109.559941 
L 217.207937 -110.152069 
L 217.337568 -110.744197 
L 217.55212 -111.336324 
L 217.851403 -111.928452 
L 218.234473 -112.52058 
L 218.699614 -113.112708 
L 219.244326 -113.704835 
L 219.865321 -114.296963 
L 220.558538 -114.889091 
L 221.319163 -115.481219 
L 222.141669 -116.073346 
L 223.019854 -116.665474 
L 223.946901 -117.257602 
L 224.915442 -117.84973 
L 225.917632 -118.441857 
L 226.945228 -119.033985 
L 227.989679 -119.626113 
L 229.042219 -120.218241 
L 230.093964 -120.810369 
L 231.136015 -121.402496 
L 232.15956 -121.994624 
L 233.15598 -122.586752 
L 234.116957 -123.17888 
L 235.034572 -123.771007 
L 235.90141 -124.363135 
L 236.710658 -124.955263 
L 237.456196 -125.547391 
L 238.132687 -126.139518 
L 238.73565 -126.731646 
L 239.261537 -127.323774 
L 239.707785 -127.915902 
L 240.072866 -128.508029 
L 240.356324 -129.100157 
L 240.558788 -129.692285 
L 240.681981 -130.284413 
L 240.728707 -130.876541 
L 240.702818 -131.468668 
L 240.609171 -132.060796 
L 240.453564 -132.652924 
L 240.242654 -133.245052 
L 239.983861 -133.837179 
L 239.685258 -134.429307 
L 239.355446 -135.021435 
L 239.003421 -135.613563 
L 238.638428 -136.20569 
L 238.269819 -136.797818 
L 237.906893 -137.389946 
L 237.558753 -137.982074 
L 237.234157 -138.574201 
L 236.941378 -139.166329 
L 236.688073 -139.758457 
L 236.48117 -140.350585 
L 236.326765 -140.942713 
L 236.230038 -141.53484 
L 236.195188 -142.126968 
L 236.22539 -142.719096 
L 236.322772 -143.311224 
L 236.48841 -143.903351 
L 236.722348 -144.495479 
L 237.023632 -145.087607 
L 237.390367 -145.679735 
L 237.819788 -146.271862 
L 238.308338 -146.86399 
L 238.85177 -147.456118 
L 239.445243 -148.048246 
L 240.083435 -148.640373 
L 240.760651 -149.232501 
L 241.470936 -149.824629 
L 242.208184 -150.416757 
L 274.391816 -150.416757 
L 274.391816 -150.416757 
L 275.129064 -149.824629 
L 275.839349 -149.232501 
L 276.516565 -148.640373 
L 277.154757 -148.048246 
L 277.74823 -147.456118 
L 278.291662 -146.86399 
L 278.780212 -146.271862 
L 279.209633 -145.679735 
L 279.576368 -145.087607 
L 279.877652 -144.495479 
L 280.11159 -143.903351 
L 280.277228 -143.311224 
L 280.37461 -142.719096 
L 280.404812 -142.126968 
L 280.369962 -141.53484 
L 280.273235 -140.942713 
L 280.11883 -140.350585 
L 279.911927 -139.758457 
L 279.658622 -139.166329 
L 279.365843 -138.574201 
L 279.041247 -137.982074 
L 278.693107 -137.389946 
L 278.330181 -136.797818 
L 277.961572 -136.20569 
L 277.596579 -135.613563 
L 277.244554 -135.021435 
L 276.914742 -134.429307 
L 276.616139 -133.837179 
L 276.357346 -133.245052 
L 276.146436 -132.652924 
L 275.990829 -132.060796 
L 275.897182 -131.468668 
L 275.871293 -130.876541 
L 275.918019 -130.284413 
L 276.041212 -129.692285 
L 276.243676 -129.100157 
L 276.527134 -128.508029 
L 276.892215 -127.915902 
L 277.338463 -127.323774 
L 277.86435 -126.731646 
L 278.467313 -126.139518 
L 279.143804 -125.547391 
L 279.889342 -124.955263 
L 280.69859 -124.363135 
L 281.565428 -123.771007 
L 282.483043 -123.17888 
L 283.44402 -122.586752 
L 284.44044 -121.994624 
L 285.463985 -121.402496 
L 286.506036 -120.810369 
L 287.557781 -120.218241 
L 288.610321 -119.626113 
L 289.654772 -119.033985 
L 290.682368 -118.441857 
L 291.684558 -117.84973 
L 292.653099 -117.257602 
L 293.580146 -116.665474 
L 294.458331 -116.073346 
L 295.280837 -115.481219 
L 296.041462 -114.889091 
L 296.734679 -114.296963 
L 297.355674 -113.704835 
L 297.900386 -113.112708 
L 298.365527 -112.52058 
L 298.748597 -111.928452 
L 299.04788 -111.336324 
L 299.262432 -110.744197 
L 299.392063 -110.152069 
L 299.437297 -109.559941 
L 299.399335 -108.967813 
L 299.279995 -108.375686 
L 299.08166 -107.783558 
L 298.807206 -107.19143 
L 298.459933 -106.599302 
L 298.043493 -106.007174 
L 297.561812 -105.415047 
L 297.019018 -104.822919 
L 296.419368 -104.230791 
L 295.76718 -103.638663 
L 295.066769 -103.046536 
L 294.322392 -102.454408 
L 293.538201 -101.86228 
L 292.7182 -101.270152 
L 291.866219 -100.678025 
L 290.985889 -100.085897 
L 290.080632 -99.493769 
L 289.153658 -98.901641 
L 288.207973 -98.309514 
L 287.246388 -97.717386 
L 286.271538 -97.125258 
L 285.285912 -96.53313 
L 284.291872 -95.941002 
L 283.291685 -95.348875 
L 282.287553 -94.756747 
L 281.28164 -94.164619 
L 280.276095 -93.572491 
L 279.273076 -92.980364 
L 278.274763 -92.388236 
L 277.28337 -91.796108 
z
" style="stroke: #ff8c00; stroke-width: 1.5"/>
    </defs>
    <g clip-path="url(#p7cc8bbed35)">
     <use xlink:href="#mffccf40b83" x="0" y="504" style="fill: #ffffff; stroke: #ff8c00; stroke-width: 1.5"/>
    </g>
   </g>
   <g id="PolyCollection_3">
    <defs>
     <path id="m6f6d6278ce" d="M 363.187243 -215.208 
L 359.099244 -215.208 
L 359.099629 -217.275253 
L 359.106009 -219.342506 
L 359.118204 -221.409759 
L 359.135957 -223.477012 
L 359.158941 -225.544265 
L 359.18676 -227.611518 
L 359.21895 -229.678771 
L 359.254986 -231.746025 
L 359.294284 -233.813278 
L 359.336205 -235.880531 
L 359.380063 -237.947784 
L 359.425133 -240.015037 
L 359.470648 -242.08229 
L 359.515815 -244.149543 
L 359.559814 -246.216796 
L 359.601809 -248.284049 
L 359.640949 -250.351302 
L 359.676376 -252.418555 
L 359.707231 -254.485808 
L 359.732655 -256.553061 
L 359.751799 -258.620314 
L 359.763822 -260.687568 
L 359.767898 -262.754821 
L 359.763222 -264.822074 
L 359.749008 -266.889327 
L 359.724493 -268.95658 
L 359.688944 -271.023833 
L 359.641658 -273.091086 
L 359.581963 -275.158339 
L 359.509225 -277.225592 
L 359.422847 -279.292845 
L 359.322277 -281.360098 
L 359.207008 -283.427351 
L 359.076583 -285.494604 
L 358.9306 -287.561857 
L 358.768718 -289.629111 
L 358.590658 -291.696364 
L 358.396213 -293.763617 
L 358.18525 -295.83087 
L 357.95772 -297.898123 
L 357.713658 -299.965376 
L 357.453196 -302.032629 
L 357.176565 -304.099882 
L 356.884101 -306.167135 
L 356.576249 -308.234388 
L 356.253571 -310.301641 
L 355.916748 -312.368894 
L 355.566583 -314.436147 
L 355.204003 -316.5034 
L 354.83006 -318.570654 
L 354.445929 -320.637907 
L 354.05291 -322.70516 
L 353.652419 -324.772413 
L 353.245984 -326.839666 
L 352.835241 -328.906919 
L 352.421923 -330.974172 
L 352.007848 -333.041425 
L 351.594909 -335.108678 
L 351.185059 -337.175931 
L 350.780298 -339.243184 
L 350.382656 -341.310437 
L 349.994174 -343.37769 
L 349.616886 -345.444943 
L 349.252806 -347.512197 
L 348.903904 -349.57945 
L 348.572087 -351.646703 
L 348.259187 -353.713956 
L 347.966937 -355.781209 
L 347.696958 -357.848462 
L 347.450745 -359.915715 
L 347.22965 -361.982968 
L 347.034874 -364.050221 
L 346.867452 -366.117474 
L 346.728251 -368.184727 
L 346.617957 -370.25198 
L 346.53708 -372.319233 
L 346.485941 -374.386486 
L 346.464684 -376.45374 
L 346.473268 -378.520993 
L 346.511478 -380.588246 
L 346.578929 -382.655499 
L 346.675069 -384.722752 
L 346.799196 -386.790005 
L 346.950459 -388.857258 
L 347.127876 -390.924511 
L 347.330338 -392.991764 
L 347.556629 -395.059017 
L 347.805432 -397.12627 
L 348.075342 -399.193523 
L 348.364882 -401.260776 
L 348.672511 -403.328029 
L 348.99664 -405.395283 
L 349.33564 -407.462536 
L 349.687853 -409.529789 
L 350.051609 -411.597042 
L 350.425226 -413.664295 
L 350.807032 -415.731548 
L 351.195363 -417.798801 
L 351.58858 -419.866054 
L 370.697907 -419.866054 
L 370.697907 -419.866054 
L 371.091124 -417.798801 
L 371.479455 -415.731548 
L 371.86126 -413.664295 
L 372.234878 -411.597042 
L 372.598633 -409.529789 
L 372.950847 -407.462536 
L 373.289846 -405.395283 
L 373.613975 -403.328029 
L 373.921605 -401.260776 
L 374.211145 -399.193523 
L 374.481055 -397.12627 
L 374.729857 -395.059017 
L 374.956148 -392.991764 
L 375.158611 -390.924511 
L 375.336027 -388.857258 
L 375.48729 -386.790005 
L 375.611417 -384.722752 
L 375.707558 -382.655499 
L 375.775008 -380.588246 
L 375.813219 -378.520993 
L 375.821803 -376.45374 
L 375.800545 -374.386486 
L 375.749407 -372.319233 
L 375.668529 -370.25198 
L 375.558236 -368.184727 
L 375.419034 -366.117474 
L 375.251613 -364.050221 
L 375.056836 -361.982968 
L 374.835742 -359.915715 
L 374.589528 -357.848462 
L 374.31955 -355.781209 
L 374.0273 -353.713956 
L 373.714399 -351.646703 
L 373.382583 -349.57945 
L 373.03368 -347.512197 
L 372.6696 -345.444943 
L 372.292313 -343.37769 
L 371.90383 -341.310437 
L 371.506188 -339.243184 
L 371.101428 -337.175931 
L 370.691578 -335.108678 
L 370.278639 -333.041425 
L 369.864563 -330.974172 
L 369.451245 -328.906919 
L 369.040503 -326.839666 
L 368.634068 -324.772413 
L 368.233576 -322.70516 
L 367.840557 -320.637907 
L 367.456427 -318.570654 
L 367.082484 -316.5034 
L 366.719904 -314.436147 
L 366.369739 -312.368894 
L 366.032916 -310.301641 
L 365.710238 -308.234388 
L 365.402386 -306.167135 
L 365.109921 -304.099882 
L 364.83329 -302.032629 
L 364.572828 -299.965376 
L 364.328767 -297.898123 
L 364.101236 -295.83087 
L 363.890273 -293.763617 
L 363.695828 -291.696364 
L 363.517768 -289.629111 
L 363.355886 -287.561857 
L 363.209904 -285.494604 
L 363.079479 -283.427351 
L 362.96421 -281.360098 
L 362.86364 -279.292845 
L 362.777262 -277.225592 
L 362.704523 -275.158339 
L 362.644828 -273.091086 
L 362.597542 -271.023833 
L 362.561994 -268.95658 
L 362.537479 -266.889327 
L 362.523264 -264.822074 
L 362.518588 -262.754821 
L 362.522665 -260.687568 
L 362.534688 -258.620314 
L 362.553831 -256.553061 
L 362.579256 -254.485808 
L 362.61011 -252.418555 
L 362.645538 -250.351302 
L 362.684677 -248.284049 
L 362.726672 -246.216796 
L 362.770672 -244.149543 
L 362.815839 -242.08229 
L 362.861354 -240.015037 
L 362.906423 -237.947784 
L 362.950282 -235.880531 
L 362.992203 -233.813278 
L 363.0315 -231.746025 
L 363.067536 -229.678771 
L 363.099727 -227.611518 
L 363.127546 -225.544265 
L 363.15053 -223.477012 
L 363.168283 -221.409759 
L 363.180477 -219.342506 
L 363.186858 -217.275253 
L 363.187243 -215.208 
z
" style="stroke: #ee82ee; stroke-width: 1.5"/>
    </defs>
    <g clip-path="url(#p7cc8bbed35)">
     <use xlink:href="#m6f6d6278ce" x="0" y="504" style="fill: #ffffff; stroke: #ee82ee; stroke-width: 1.5"/>
    </g>
   </g>
   <g id="matplotlib.axis_1">
    <g id="xtick_1">
     <g id="text_1">
      <!-- V -->
      <g transform="translate(150.668319 458.637812)scale(0.14 -0.14)">
       <defs>
        <path id="DejaVuSans-56" d="M 1831 0 
L 50 4666 
L 709 4666 
L 2188 738 
L 3669 4666 
L 4325 4666 
L 2547 0 
L 1831 0 
z
" transform="scale(0.015625)"/>
       </defs>
       <use xlink:href="#DejaVuSans-56"/>
      </g>
     </g>
    </g>
    <g id="xtick_2">
     <g id="text_2">
      <!-- DM1 -->
      <g transform="translate(242.416562 458.637812)scale(0.14 -0.14)">
       <defs>
        <path id="DejaVuSans-44" d="M 1259 4147 
L 1259 519 
L 2022 519 
Q 2988 519 3436 956 
Q 3884 1394 3884 2338 
Q 3884 3275 3436 3711 
Q 2988 4147 2022 4147 
L 1259 4147 
z
M 628 4666 
L 1925 4666 
Q 3281 4666 3915 4102 
Q 4550 3538 4550 2338 
Q 4550 1131 3912 565 
Q 3275 0 1925 0 
L 628 0 
L 628 4666 
z
" transform="scale(0.015625)"/>
        <path id="DejaVuSans-4d" d="M 628 4666 
L 1569 4666 
L 2759 1491 
L 3956 4666 
L 4897 4666 
L 4897 0 
L 4281 0 
L 4281 4097 
L 3078 897 
L 2444 897 
L 1241 4097 
L 1241 0 
L 628 0 
L 628 4666 
z
" transform="scale(0.015625)"/>
        <path id="DejaVuSans-31" d="M 794 531 
L 1825 531 
L 1825 4091 
L 703 3866 
L 703 4441 
L 1819 4666 
L 2450 4666 
L 2450 531 
L 3481 531 
L 3481 0 
L 794 0 
L 794 531 
z
" transform="scale(0.015625)"/>
       </defs>
       <use xlink:href="#DejaVuSans-44"/>
       <use xlink:href="#DejaVuSans-4d" x="77.001953"/>
       <use xlink:href="#DejaVuSans-31" x="163.28125"/>
      </g>
     </g>
    </g>
    <g id="xtick_3">
     <g id="text_3">
      <!-- Glomerulus 1 -->
      <g transform="translate(314.346056 458.637812)scale(0.14 -0.14)">
       <defs>
        <path id="DejaVuSans-47" d="M 3809 666 
L 3809 1919 
L 2778 1919 
L 2778 2438 
L 4434 2438 
L 4434 434 
Q 4069 175 3628 42 
Q 3188 -91 2688 -91 
Q 1594 -91 976 548 
Q 359 1188 359 2328 
Q 359 3472 976 4111 
Q 1594 4750 2688 4750 
Q 3144 4750 3555 4637 
Q 3966 4525 4313 4306 
L 4313 3634 
Q 3963 3931 3569 4081 
Q 3175 4231 2741 4231 
Q 1884 4231 1454 3753 
Q 1025 3275 1025 2328 
Q 1025 1384 1454 906 
Q 1884 428 2741 428 
Q 3075 428 3337 486 
Q 3600 544 3809 666 
z
" transform="scale(0.015625)"/>
        <path id="DejaVuSans-6c" d="M 603 4863 
L 1178 4863 
L 1178 0 
L 603 0 
L 603 4863 
z
" transform="scale(0.015625)"/>
        <path id="DejaVuSans-6f" d="M 1959 3097 
Q 1497 3097 1228 2736 
Q 959 2375 959 1747 
Q 959 1119 1226 758 
Q 1494 397 1959 397 
Q 2419 397 2687 759 
Q 2956 1122 2956 1747 
Q 2956 2369 2687 2733 
Q 2419 3097 1959 3097 
z
M 1959 3584 
Q 2709 3584 3137 3096 
Q 3566 2609 3566 1747 
Q 3566 888 3137 398 
Q 2709 -91 1959 -91 
Q 1206 -91 779 398 
Q 353 888 353 1747 
Q 353 2609 779 3096 
Q 1206 3584 1959 3584 
z
" transform="scale(0.015625)"/>
        <path id="DejaVuSans-6d" d="M 3328 2828 
Q 3544 3216 3844 3400 
Q 4144 3584 4550 3584 
Q 5097 3584 5394 3201 
Q 5691 2819 5691 2113 
L 5691 0 
L 5113 0 
L 5113 2094 
Q 5113 2597 4934 2840 
Q 4756 3084 4391 3084 
Q 3944 3084 3684 2787 
Q 3425 2491 3425 1978 
L 3425 0 
L 2847 0 
L 2847 2094 
Q 2847 2600 2669 2842 
Q 2491 3084 2119 3084 
Q 1678 3084 1418 2786 
Q 1159 2488 1159 1978 
L 1159 0 
L 581 0 
L 581 3500 
L 1159 3500 
L 1159 2956 
Q 1356 3278 1631 3431 
Q 1906 3584 2284 3584 
Q 2666 3584 2933 3390 
Q 3200 3197 3328 2828 
z
" transform="scale(0.015625)"/>
        <path id="DejaVuSans-65" d="M 3597 1894 
L 3597 1613 
L 953 1613 
Q 991 1019 1311 708 
Q 1631 397 2203 397 
Q 2534 397 2845 478 
Q 3156 559 3463 722 
L 3463 178 
Q 3153 47 2828 -22 
Q 2503 -91 2169 -91 
Q 1331 -91 842 396 
Q 353 884 353 1716 
Q 353 2575 817 3079 
Q 1281 3584 2069 3584 
Q 2775 3584 3186 3129 
Q 3597 2675 3597 1894 
z
M 3022 2063 
Q 3016 2534 2758 2815 
Q 2500 3097 2075 3097 
Q 1594 3097 1305 2825 
Q 1016 2553 972 2059 
L 3022 2063 
z
" transform="scale(0.015625)"/>
        <path id="DejaVuSans-72" d="M 2631 2963 
Q 2534 3019 2420 3045 
Q 2306 3072 2169 3072 
Q 1681 3072 1420 2755 
Q 1159 2438 1159 1844 
L 1159 0 
L 581 0 
L 581 3500 
L 1159 3500 
L 1159 2956 
Q 1341 3275 1631 3429 
Q 1922 3584 2338 3584 
Q 2397 3584 2469 3576 
Q 2541 3569 2628 3553 
L 2631 2963 
z
" transform="scale(0.015625)"/>
        <path id="DejaVuSans-75" d="M 544 1381 
L 544 3500 
L 1119 3500 
L 1119 1403 
Q 1119 906 1312 657 
Q 1506 409 1894 409 
Q 2359 409 2629 706 
Q 2900 1003 2900 1516 
L 2900 3500 
L 3475 3500 
L 3475 0 
L 2900 0 
L 2900 538 
Q 2691 219 2414 64 
Q 2138 -91 1772 -91 
Q 1169 -91 856 284 
Q 544 659 544 1381 
z
M 1991 3584 
L 1991 3584 
z
" transform="scale(0.015625)"/>
        <path id="DejaVuSans-73" d="M 2834 3397 
L 2834 2853 
Q 2591 2978 2328 3040 
Q 2066 3103 1784 3103 
Q 1356 3103 1142 2972 
Q 928 2841 928 2578 
Q 928 2378 1081 2264 
Q 1234 2150 1697 2047 
L 1894 2003 
Q 2506 1872 2764 1633 
Q 3022 1394 3022 966 
Q 3022 478 2636 193 
Q 2250 -91 1575 -91 
Q 1294 -91 989 -36 
Q 684 19 347 128 
L 347 722 
Q 666 556 975 473 
Q 1284 391 1588 391 
Q 1994 391 2212 530 
Q 2431 669 2431 922 
Q 2431 1156 2273 1281 
Q 2116 1406 1581 1522 
L 1381 1569 
Q 847 1681 609 1914 
Q 372 2147 372 2553 
Q 372 3047 722 3315 
Q 1072 3584 1716 3584 
Q 2034 3584 2315 3537 
Q 2597 3491 2834 3397 
z
" transform="scale(0.015625)"/>
        <path id="DejaVuSans-20" transform="scale(0.015625)"/>
       </defs>
       <use xlink:href="#DejaVuSans-47"/>
       <use xlink:href="#DejaVuSans-6c" x="77.490234"/>
       <use xlink:href="#DejaVuSans-6f" x="105.273438"/>
       <use xlink:href="#DejaVuSans-6d" x="166.455078"/>
       <use xlink:href="#DejaVuSans-65" x="263.867188"/>
       <use xlink:href="#DejaVuSans-72" x="325.390625"/>
       <use xlink:href="#DejaVuSans-75" x="366.503906"/>
       <use xlink:href="#DejaVuSans-6c" x="429.882812"/>
       <use xlink:href="#DejaVuSans-75" x="457.666016"/>
       <use xlink:href="#DejaVuSans-73" x="521.044922"/>
       <use xlink:href="#DejaVuSans-20" x="573.144531"/>
       <use xlink:href="#DejaVuSans-31" x="604.931641"/>
      </g>
     </g>
    </g>
    <g id="text_4">
     <!-- Glomerulus -->
     <g transform="translate(212.45 477.706875)scale(0.16 -0.16)">
      <use xlink:href="#DejaVuSans-47"/>
      <use xlink:href="#DejaVuSans-6c" x="77.490234"/>
      <use xlink:href="#DejaVuSans-6f" x="105.273438"/>
      <use xlink:href="#DejaVuSans-6d" x="166.455078"/>
      <use xlink:href="#DejaVuSans-65" x="263.867188"/>
      <use xlink:href="#DejaVuSans-72" x="325.390625"/>
      <use xlink:href="#DejaVuSans-75" x="366.503906"/>
      <use xlink:href="#DejaVuSans-6c" x="429.882812"/>
      <use xlink:href="#DejaVuSans-75" x="457.666016"/>
      <use xlink:href="#DejaVuSans-73" x="521.044922"/>
     </g>
    </g>
   </g>
   <g id="matplotlib.axis_2">
    <g id="ytick_1">
     <g id="line2d_1">
      <defs>
       <path id="m64be5ebd83" d="M 0 0 
L -3.5 0 
" style="stroke: #000000; stroke-width: 0.8"/>
      </defs>
      <g>
       <use xlink:href="#m64be5ebd83" x="104.035135" y="441" style="stroke: #000000; stroke-width: 0.8"/>
      </g>
     </g>
     <g id="text_5">
      <!-- 0 -->
      <g transform="translate(88.127635 446.318906)scale(0.14 -0.14)">
       <defs>
        <path id="DejaVuSans-30" d="M 2034 4250 
Q 1547 4250 1301 3770 
Q 1056 3291 1056 2328 
Q 1056 1369 1301 889 
Q 1547 409 2034 409 
Q 2525 409 2770 889 
Q 3016 1369 3016 2328 
Q 3016 3291 2770 3770 
Q 2525 4250 2034 4250 
z
M 2034 4750 
Q 2819 4750 3233 4129 
Q 3647 3509 3647 2328 
Q 3647 1150 3233 529 
Q 2819 -91 2034 -91 
Q 1250 -91 836 529 
Q 422 1150 422 2328 
Q 422 3509 836 4129 
Q 1250 4750 2034 4750 
z
" transform="scale(0.015625)"/>
       </defs>
       <use xlink:href="#DejaVuSans-30"/>
      </g>
     </g>
    </g>
    <g id="ytick_2">
     <g id="line2d_2">
      <g>
       <use xlink:href="#m64be5ebd83" x="104.035135" y="389.578378" style="stroke: #000000; stroke-width: 0.8"/>
      </g>
     </g>
     <g id="text_6">
      <!-- 50 -->
      <g transform="translate(79.220135 394.897285)scale(0.14 -0.14)">
       <defs>
        <path id="DejaVuSans-35" d="M 691 4666 
L 3169 4666 
L 3169 4134 
L 1269 4134 
L 1269 2991 
Q 1406 3038 1543 3061 
Q 1681 3084 1819 3084 
Q 2600 3084 3056 2656 
Q 3513 2228 3513 1497 
Q 3513 744 3044 326 
Q 2575 -91 1722 -91 
Q 1428 -91 1123 -41 
Q 819 9 494 109 
L 494 744 
Q 775 591 1075 516 
Q 1375 441 1709 441 
Q 2250 441 2565 725 
Q 2881 1009 2881 1497 
Q 2881 1984 2565 2268 
Q 2250 2553 1709 2553 
Q 1456 2553 1204 2497 
Q 953 2441 691 2322 
L 691 4666 
z
" transform="scale(0.015625)"/>
       </defs>
       <use xlink:href="#DejaVuSans-35"/>
       <use xlink:href="#DejaVuSans-30" x="63.623047"/>
      </g>
     </g>
    </g>
    <g id="ytick_3">
     <g id="line2d_3">
      <g>
       <use xlink:href="#m64be5ebd83" x="104.035135" y="338.156757" style="stroke: #000000; stroke-width: 0.8"/>
      </g>
     </g>
     <g id="text_7">
      <!-- 100 -->
      <g transform="translate(70.312635 343.475663)scale(0.14 -0.14)">
       <use xlink:href="#DejaVuSans-31"/>
       <use xlink:href="#DejaVuSans-30" x="63.623047"/>
       <use xlink:href="#DejaVuSans-30" x="127.246094"/>
      </g>
     </g>
    </g>
    <g id="ytick_4">
     <g id="line2d_4">
      <g>
       <use xlink:href="#m64be5ebd83" x="104.035135" y="286.735135" style="stroke: #000000; stroke-width: 0.8"/>
      </g>
     </g>
     <g id="text_8">
      <!-- 150 -->
      <g transform="translate(70.312635 292.054041)scale(0.14 -0.14)">
       <use xlink:href="#DejaVuSans-31"/>
       <use xlink:href="#DejaVuSans-35" x="63.623047"/>
       <use xlink:href="#DejaVuSans-30" x="127.246094"/>
      </g>
     </g>
    </g>
    <g id="ytick_5">
     <g id="line2d_5">
      <g>
       <use xlink:href="#m64be5ebd83" x="104.035135" y="235.313514" style="stroke: #000000; stroke-width: 0.8"/>
      </g>
     </g>
     <g id="text_9">
      <!-- 200 -->
      <g transform="translate(70.312635 240.63242)scale(0.14 -0.14)">
       <defs>
        <path id="DejaVuSans-32" d="M 1228 531 
L 3431 531 
L 3431 0 
L 469 0 
L 469 531 
Q 828 903 1448 1529 
Q 2069 2156 2228 2338 
Q 2531 2678 2651 2914 
Q 2772 3150 2772 3378 
Q 2772 3750 2511 3984 
Q 2250 4219 1831 4219 
Q 1534 4219 1204 4116 
Q 875 4013 500 3803 
L 500 4441 
Q 881 4594 1212 4672 
Q 1544 4750 1819 4750 
Q 2544 4750 2975 4387 
Q 3406 4025 3406 3419 
Q 3406 3131 3298 2873 
Q 3191 2616 2906 2266 
Q 2828 2175 2409 1742 
Q 1991 1309 1228 531 
z
" transform="scale(0.015625)"/>
       </defs>
       <use xlink:href="#DejaVuSans-32"/>
       <use xlink:href="#DejaVuSans-30" x="63.623047"/>
       <use xlink:href="#DejaVuSans-30" x="127.246094"/>
      </g>
     </g>
    </g>
    <g id="ytick_6">
     <g id="line2d_6">
      <g>
       <use xlink:href="#m64be5ebd83" x="104.035135" y="183.891892" style="stroke: #000000; stroke-width: 0.8"/>
      </g>
     </g>
     <g id="text_10">
      <!-- 250 -->
      <g transform="translate(70.312635 189.210798)scale(0.14 -0.14)">
       <use xlink:href="#DejaVuSans-32"/>
       <use xlink:href="#DejaVuSans-35" x="63.623047"/>
       <use xlink:href="#DejaVuSans-30" x="127.246094"/>
      </g>
     </g>
    </g>
    <g id="ytick_7">
     <g id="line2d_7">
      <g>
       <use xlink:href="#m64be5ebd83" x="104.035135" y="132.47027" style="stroke: #000000; stroke-width: 0.8"/>
      </g>
     </g>
     <g id="text_11">
      <!-- 300 -->
      <g transform="translate(70.312635 137.789177)scale(0.14 -0.14)">
       <defs>
        <path id="DejaVuSans-33" d="M 2597 2516 
Q 3050 2419 3304 2112 
Q 3559 1806 3559 1356 
Q 3559 666 3084 287 
Q 2609 -91 1734 -91 
Q 1441 -91 1130 -33 
Q 819 25 488 141 
L 488 750 
Q 750 597 1062 519 
Q 1375 441 1716 441 
Q 2309 441 2620 675 
Q 2931 909 2931 1356 
Q 2931 1769 2642 2001 
Q 2353 2234 1838 2234 
L 1294 2234 
L 1294 2753 
L 1863 2753 
Q 2328 2753 2575 2939 
Q 2822 3125 2822 3475 
Q 2822 3834 2567 4026 
Q 2313 4219 1838 4219 
Q 1578 4219 1281 4162 
Q 984 4106 628 3988 
L 628 4550 
Q 988 4650 1302 4700 
Q 1616 4750 1894 4750 
Q 2613 4750 3031 4423 
Q 3450 4097 3450 3541 
Q 3450 3153 3228 2886 
Q 3006 2619 2597 2516 
z
" transform="scale(0.015625)"/>
       </defs>
       <use xlink:href="#DejaVuSans-33"/>
       <use xlink:href="#DejaVuSans-30" x="63.623047"/>
       <use xlink:href="#DejaVuSans-30" x="127.246094"/>
      </g>
     </g>
    </g>
    <g id="ytick_8">
     <g id="line2d_8">
      <g>
       <use xlink:href="#m64be5ebd83" x="104.035135" y="81.048649" style="stroke: #000000; stroke-width: 0.8"/>
      </g>
     </g>
     <g id="text_12">
      <!-- 350 -->
      <g transform="translate(70.312635 86.367555)scale(0.14 -0.14)">
       <use xlink:href="#DejaVuSans-33"/>
       <use xlink:href="#DejaVuSans-35" x="63.623047"/>
       <use xlink:href="#DejaVuSans-30" x="127.246094"/>
      </g>
     </g>
    </g>
    <g id="text_13">
     <!-- Synapse # -->
     <g transform="translate(62.985135 293.94125)rotate(-90)scale(0.16 -0.16)">
      <defs>
       <path id="DejaVuSans-53" d="M 3425 4513 
L 3425 3897 
Q 3066 4069 2747 4153 
Q 2428 4238 2131 4238 
Q 1616 4238 1336 4038 
Q 1056 3838 1056 3469 
Q 1056 3159 1242 3001 
Q 1428 2844 1947 2747 
L 2328 2669 
Q 3034 2534 3370 2195 
Q 3706 1856 3706 1288 
Q 3706 609 3251 259 
Q 2797 -91 1919 -91 
Q 1588 -91 1214 -16 
Q 841 59 441 206 
L 441 856 
Q 825 641 1194 531 
Q 1563 422 1919 422 
Q 2459 422 2753 634 
Q 3047 847 3047 1241 
Q 3047 1584 2836 1778 
Q 2625 1972 2144 2069 
L 1759 2144 
Q 1053 2284 737 2584 
Q 422 2884 422 3419 
Q 422 4038 858 4394 
Q 1294 4750 2059 4750 
Q 2388 4750 2728 4690 
Q 3069 4631 3425 4513 
z
" transform="scale(0.015625)"/>
       <path id="DejaVuSans-79" d="M 2059 -325 
Q 1816 -950 1584 -1140 
Q 1353 -1331 966 -1331 
L 506 -1331 
L 506 -850 
L 844 -850 
Q 1081 -850 1212 -737 
Q 1344 -625 1503 -206 
L 1606 56 
L 191 3500 
L 800 3500 
L 1894 763 
L 2988 3500 
L 3597 3500 
L 2059 -325 
z
" transform="scale(0.015625)"/>
       <path id="DejaVuSans-6e" d="M 3513 2113 
L 3513 0 
L 2938 0 
L 2938 2094 
Q 2938 2591 2744 2837 
Q 2550 3084 2163 3084 
Q 1697 3084 1428 2787 
Q 1159 2491 1159 1978 
L 1159 0 
L 581 0 
L 581 3500 
L 1159 3500 
L 1159 2956 
Q 1366 3272 1645 3428 
Q 1925 3584 2291 3584 
Q 2894 3584 3203 3211 
Q 3513 2838 3513 2113 
z
" transform="scale(0.015625)"/>
       <path id="DejaVuSans-61" d="M 2194 1759 
Q 1497 1759 1228 1600 
Q 959 1441 959 1056 
Q 959 750 1161 570 
Q 1363 391 1709 391 
Q 2188 391 2477 730 
Q 2766 1069 2766 1631 
L 2766 1759 
L 2194 1759 
z
M 3341 1997 
L 3341 0 
L 2766 0 
L 2766 531 
Q 2569 213 2275 61 
Q 1981 -91 1556 -91 
Q 1019 -91 701 211 
Q 384 513 384 1019 
Q 384 1609 779 1909 
Q 1175 2209 1959 2209 
L 2766 2209 
L 2766 2266 
Q 2766 2663 2505 2880 
Q 2244 3097 1772 3097 
Q 1472 3097 1187 3025 
Q 903 2953 641 2809 
L 641 3341 
Q 956 3463 1253 3523 
Q 1550 3584 1831 3584 
Q 2591 3584 2966 3190 
Q 3341 2797 3341 1997 
z
" transform="scale(0.015625)"/>
       <path id="DejaVuSans-70" d="M 1159 525 
L 1159 -1331 
L 581 -1331 
L 581 3500 
L 1159 3500 
L 1159 2969 
Q 1341 3281 1617 3432 
Q 1894 3584 2278 3584 
Q 2916 3584 3314 3078 
Q 3713 2572 3713 1747 
Q 3713 922 3314 415 
Q 2916 -91 2278 -91 
Q 1894 -91 1617 61 
Q 1341 213 1159 525 
z
M 3116 1747 
Q 3116 2381 2855 2742 
Q 2594 3103 2138 3103 
Q 1681 3103 1420 2742 
Q 1159 2381 1159 1747 
Q 1159 1113 1420 752 
Q 1681 391 2138 391 
Q 2594 391 2855 752 
Q 3116 1113 3116 1747 
z
" transform="scale(0.015625)"/>
       <path id="DejaVuSans-23" d="M 3272 2816 
L 2363 2816 
L 2100 1772 
L 3016 1772 
L 3272 2816 
z
M 2803 4594 
L 2478 3297 
L 3391 3297 
L 3719 4594 
L 4219 4594 
L 3897 3297 
L 4872 3297 
L 4872 2816 
L 3775 2816 
L 3519 1772 
L 4513 1772 
L 4513 1294 
L 3397 1294 
L 3072 0 
L 2572 0 
L 2894 1294 
L 1978 1294 
L 1656 0 
L 1153 0 
L 1478 1294 
L 494 1294 
L 494 1772 
L 1594 1772 
L 1856 2816 
L 850 2816 
L 850 3297 
L 1978 3297 
L 2297 4594 
L 2803 4594 
z
" transform="scale(0.015625)"/>
      </defs>
      <use xlink:href="#DejaVuSans-53"/>
      <use xlink:href="#DejaVuSans-79" x="63.476562"/>
      <use xlink:href="#DejaVuSans-6e" x="122.65625"/>
      <use xlink:href="#DejaVuSans-61" x="186.035156"/>
      <use xlink:href="#DejaVuSans-70" x="247.314453"/>
      <use xlink:href="#DejaVuSans-73" x="310.791016"/>
      <use xlink:href="#DejaVuSans-65" x="362.890625"/>
      <use xlink:href="#DejaVuSans-20" x="424.414062"/>
      <use xlink:href="#DejaVuSans-23" x="456.201172"/>
     </g>
    </g>
   </g>
   <g id="line2d_9">
    <path d="M 128.821659 391.725987 
L 182.091855 391.725987 
" clip-path="url(#p7cc8bbed35)" style="fill: none; stroke: #000000; stroke-width: 1.5; stroke-linecap: square"/>
   </g>
   <g id="line2d_10">
    <path d="M 225.249288 386.093135 
L 291.350712 386.093135 
" clip-path="url(#p7cc8bbed35)" style="fill: none; stroke: #000000; stroke-width: 1.5; stroke-linecap: square"/>
   </g>
   <g id="line2d_11">
    <path d="M 347.368786 142.446065 
L 374.9177 142.446065 
" clip-path="url(#p7cc8bbed35)" style="fill: none; stroke: #000000; stroke-width: 1.5; stroke-linecap: square"/>
   </g>
   <g id="patch_3">
    <path d="M 104.035135 441 
L 104.035135 60.48 
" style="fill: none; stroke: #000000; stroke-width: 0.8; stroke-linejoin: miter; stroke-linecap: square"/>
   </g>
   <g id="PathCollection_1">
    <defs>
     <path id="C0_0_5c03ab289f" d="M 0 2.5 
C 0.663008 2.5 1.29895 2.236584 1.767767 1.767767 
C 2.236584 1.29895 2.5 0.663008 2.5 -0 
C 2.5 -0.663008 2.236584 -1.29895 1.767767 -1.767767 
C 1.29895 -2.236584 0.663008 -2.5 0 -2.5 
C -0.663008 -2.5 -1.29895 -2.236584 -1.767767 -1.767767 
C -2.236584 -1.29895 -2.5 -0.663008 -2.5 0 
C -2.5 0.663008 -2.236584 1.29895 -1.767767 1.767767 
C -1.29895 2.236584 -0.663008 2.5 0 2.5 
z
"/>
    </defs>
    <g clip-path="url(#p7cc8bbed35)">
     <use xlink:href="#C0_0_5c03ab289f" x="154.100762" y="376.208757" style="fill: #4b0082"/>
    </g>
    <g clip-path="url(#p7cc8bbed35)">
     <use xlink:href="#C0_0_5c03ab289f" x="165.728514" y="379.294054" style="fill: #4b0082"/>
    </g>
    <g clip-path="url(#p7cc8bbed35)">
     <use xlink:href="#C0_0_5c03ab289f" x="163.645041" y="331.986162" style="fill: #4b0082"/>
    </g>
    <g clip-path="url(#p7cc8bbed35)">
     <use xlink:href="#C0_0_5c03ab289f" x="148.824245" y="410.147027" style="fill: #4b0082"/>
    </g>
    <g clip-path="url(#p7cc8bbed35)">
     <use xlink:href="#C0_0_5c03ab289f" x="148.136315" y="371.066595" style="fill: #4b0082"/>
    </g>
    <g clip-path="url(#p7cc8bbed35)">
     <use xlink:href="#C0_0_5c03ab289f" x="150.441938" y="386.493081" style="fill: #4b0082"/>
    </g>
    <g clip-path="url(#p7cc8bbed35)">
     <use xlink:href="#C0_0_5c03ab289f" x="154.723085" y="365.924432" style="fill: #4b0082"/>
    </g>
    <g clip-path="url(#p7cc8bbed35)">
     <use xlink:href="#C0_0_5c03ab289f" x="158.379654" y="348.441081" style="fill: #4b0082"/>
    </g>
    <g clip-path="url(#p7cc8bbed35)">
     <use xlink:href="#C0_0_5c03ab289f" x="161.014361" y="382.379351" style="fill: #4b0082"/>
    </g>
    <g clip-path="url(#p7cc8bbed35)">
     <use xlink:href="#C0_0_5c03ab289f" x="156.95468" y="384.436216" style="fill: #4b0082"/>
    </g>
    <g clip-path="url(#p7cc8bbed35)">
     <use xlink:href="#C0_0_5c03ab289f" x="148.701292" y="415.289189" style="fill: #4b0082"/>
    </g>
    <g clip-path="url(#p7cc8bbed35)">
     <use xlink:href="#C0_0_5c03ab289f" x="163.808641" y="431.744108" style="fill: #4b0082"/>
    </g>
    <g clip-path="url(#p7cc8bbed35)">
     <use xlink:href="#C0_0_5c03ab289f" x="156.999009" y="431.744108" style="fill: #4b0082"/>
    </g>
    <g clip-path="url(#p7cc8bbed35)">
     <use xlink:href="#C0_0_5c03ab289f" x="161.356222" y="428.658811" style="fill: #4b0082"/>
    </g>
    <g clip-path="url(#p7cc8bbed35)">
     <use xlink:href="#C0_0_5c03ab289f" x="165.104336" y="403.976432" style="fill: #4b0082"/>
    </g>
    <g clip-path="url(#p7cc8bbed35)">
     <use xlink:href="#C0_0_5c03ab289f" x="159.203434" y="406.033297" style="fill: #4b0082"/>
    </g>
    <g clip-path="url(#p7cc8bbed35)">
     <use xlink:href="#C0_0_5c03ab289f" x="161.535074" y="415.289189" style="fill: #4b0082"/>
    </g>
    <g clip-path="url(#p7cc8bbed35)">
     <use xlink:href="#C0_0_5c03ab289f" x="154.444713" y="367.981297" style="fill: #4b0082"/>
    </g>
    <g clip-path="url(#p7cc8bbed35)">
     <use xlink:href="#C0_0_5c03ab289f" x="152.127931" y="396.777405" style="fill: #4b0082"/>
    </g>
    <g clip-path="url(#p7cc8bbed35)">
     <use xlink:href="#C0_0_5c03ab289f" x="154.269701" y="387.521514" style="fill: #4b0082"/>
    </g>
    <g clip-path="url(#p7cc8bbed35)">
     <use xlink:href="#C0_0_5c03ab289f" x="151.579602" y="383.407784" style="fill: #4b0082"/>
    </g>
    <g clip-path="url(#p7cc8bbed35)">
     <use xlink:href="#C0_0_5c03ab289f" x="164.706131" y="331.986162" style="fill: #4b0082"/>
    </g>
    <g clip-path="url(#p7cc8bbed35)">
     <use xlink:href="#C0_0_5c03ab289f" x="157.790606" y="383.407784" style="fill: #4b0082"/>
    </g>
    <g clip-path="url(#p7cc8bbed35)">
     <use xlink:href="#C0_0_5c03ab289f" x="148.01503" y="375.180324" style="fill: #4b0082"/>
    </g>
    <g clip-path="url(#p7cc8bbed35)">
     <use xlink:href="#C0_0_5c03ab289f" x="159.621318" y="381.350919" style="fill: #4b0082"/>
    </g>
    <g clip-path="url(#p7cc8bbed35)">
     <use xlink:href="#C0_0_5c03ab289f" x="163.273748" y="407.06173" style="fill: #4b0082"/>
    </g>
    <g clip-path="url(#p7cc8bbed35)">
     <use xlink:href="#C0_0_5c03ab289f" x="154.355987" y="385.464649" style="fill: #4b0082"/>
    </g>
    <g clip-path="url(#p7cc8bbed35)">
     <use xlink:href="#C0_0_5c03ab289f" x="151.273895" y="408.090162" style="fill: #4b0082"/>
    </g>
    <g clip-path="url(#p7cc8bbed35)">
     <use xlink:href="#C0_0_5c03ab289f" x="153.75007" y="399.862703" style="fill: #4b0082"/>
    </g>
    <g clip-path="url(#p7cc8bbed35)">
     <use xlink:href="#C0_0_5c03ab289f" x="162.193958" y="409.118595" style="fill: #4b0082"/>
    </g>
    <g clip-path="url(#p7cc8bbed35)">
     <use xlink:href="#C0_0_5c03ab289f" x="161.001475" y="410.147027" style="fill: #4b0082"/>
    </g>
    <g clip-path="url(#p7cc8bbed35)">
     <use xlink:href="#C0_0_5c03ab289f" x="156.430001" y="402.948" style="fill: #4b0082"/>
    </g>
    <g clip-path="url(#p7cc8bbed35)">
     <use xlink:href="#C0_0_5c03ab289f" x="149.224638" y="397.805838" style="fill: #4b0082"/>
    </g>
    <g clip-path="url(#p7cc8bbed35)">
     <use xlink:href="#C0_0_5c03ab289f" x="151.611948" y="421.459784" style="fill: #4b0082"/>
    </g>
   </g>
   <g id="PathCollection_2">
    <defs>
     <path id="C1_0_a1da4232a1" d="M 0 2.5 
C 0.663008 2.5 1.29895 2.236584 1.767767 1.767767 
C 2.236584 1.29895 2.5 0.663008 2.5 -0 
C 2.5 -0.663008 2.236584 -1.29895 1.767767 -1.767767 
C 1.29895 -2.236584 0.663008 -2.5 0 -2.5 
C -0.663008 -2.5 -1.29895 -2.236584 -1.767767 -1.767767 
C -2.236584 -1.29895 -2.5 -0.663008 -2.5 0 
C -2.5 0.663008 -2.236584 1.29895 -1.767767 1.767767 
C -1.29895 2.236584 -0.663008 2.5 0 2.5 
z
"/>
    </defs>
    <g clip-path="url(#p7cc8bbed35)">
     <use xlink:href="#C1_0_a1da4232a1" x="260.467161" y="396.777405" style="fill: #ff8c00"/>
    </g>
    <g clip-path="url(#p7cc8bbed35)">
     <use xlink:href="#C1_0_a1da4232a1" x="251.574146" y="361.810703" style="fill: #ff8c00"/>
    </g>
    <g clip-path="url(#p7cc8bbed35)">
     <use xlink:href="#C1_0_a1da4232a1" x="264.213307" y="378.265622" style="fill: #ff8c00"/>
    </g>
    <g clip-path="url(#p7cc8bbed35)">
     <use xlink:href="#C1_0_a1da4232a1" x="264.051278" y="393.692108" style="fill: #ff8c00"/>
    </g>
    <g clip-path="url(#p7cc8bbed35)">
     <use xlink:href="#C1_0_a1da4232a1" x="257.980081" y="359.753838" style="fill: #ff8c00"/>
    </g>
    <g clip-path="url(#p7cc8bbed35)">
     <use xlink:href="#C1_0_a1da4232a1" x="263.451682" y="359.753838" style="fill: #ff8c00"/>
    </g>
    <g clip-path="url(#p7cc8bbed35)">
     <use xlink:href="#C1_0_a1da4232a1" x="253.094327" y="395.748973" style="fill: #ff8c00"/>
    </g>
    <g clip-path="url(#p7cc8bbed35)">
     <use xlink:href="#C1_0_a1da4232a1" x="248.172911" y="390.606811" style="fill: #ff8c00"/>
    </g>
    <g clip-path="url(#p7cc8bbed35)">
     <use xlink:href="#C1_0_a1da4232a1" x="259.098513" y="394.720541" style="fill: #ff8c00"/>
    </g>
    <g clip-path="url(#p7cc8bbed35)">
     <use xlink:href="#C1_0_a1da4232a1" x="248.347411" y="353.583243" style="fill: #ff8c00"/>
    </g>
    <g clip-path="url(#p7cc8bbed35)">
     <use xlink:href="#C1_0_a1da4232a1" x="265.844005" y="406.033297" style="fill: #ff8c00"/>
    </g>
    <g clip-path="url(#p7cc8bbed35)">
     <use xlink:href="#C1_0_a1da4232a1" x="263.912182" y="400.891135" style="fill: #ff8c00"/>
    </g>
    <g clip-path="url(#p7cc8bbed35)">
     <use xlink:href="#C1_0_a1da4232a1" x="263.819128" y="401.919568" style="fill: #ff8c00"/>
    </g>
    <g clip-path="url(#p7cc8bbed35)">
     <use xlink:href="#C1_0_a1da4232a1" x="262.144441" y="388.549946" style="fill: #ff8c00"/>
    </g>
    <g clip-path="url(#p7cc8bbed35)">
     <use xlink:href="#C1_0_a1da4232a1" x="263.899953" y="395.748973" style="fill: #ff8c00"/>
    </g>
    <g clip-path="url(#p7cc8bbed35)">
     <use xlink:href="#C1_0_a1da4232a1" x="264.064228" y="410.147027" style="fill: #ff8c00"/>
    </g>
    <g clip-path="url(#p7cc8bbed35)">
     <use xlink:href="#C1_0_a1da4232a1" x="254.143104" y="363.867568" style="fill: #ff8c00"/>
    </g>
    <g clip-path="url(#p7cc8bbed35)">
     <use xlink:href="#C1_0_a1da4232a1" x="262.077011" y="410.147027" style="fill: #ff8c00"/>
    </g>
    <g clip-path="url(#p7cc8bbed35)">
     <use xlink:href="#C1_0_a1da4232a1" x="263.256335" y="412.203892" style="fill: #ff8c00"/>
    </g>
    <g clip-path="url(#p7cc8bbed35)">
     <use xlink:href="#C1_0_a1da4232a1" x="248.61837" y="401.919568" style="fill: #ff8c00"/>
    </g>
    <g clip-path="url(#p7cc8bbed35)">
     <use xlink:href="#C1_0_a1da4232a1" x="257.955644" y="386.493081" style="fill: #ff8c00"/>
    </g>
    <g clip-path="url(#p7cc8bbed35)">
     <use xlink:href="#C1_0_a1da4232a1" x="250.06768" y="394.720541" style="fill: #ff8c00"/>
    </g>
    <g clip-path="url(#p7cc8bbed35)">
     <use xlink:href="#C1_0_a1da4232a1" x="254.325469" y="411.175459" style="fill: #ff8c00"/>
    </g>
    <g clip-path="url(#p7cc8bbed35)">
     <use xlink:href="#C1_0_a1da4232a1" x="255.373614" y="402.948" style="fill: #ff8c00"/>
    </g>
    <g clip-path="url(#p7cc8bbed35)">
     <use xlink:href="#C1_0_a1da4232a1" x="264.693744" y="363.867568" style="fill: #ff8c00"/>
    </g>
    <g clip-path="url(#p7cc8bbed35)">
     <use xlink:href="#C1_0_a1da4232a1" x="257.568268" y="390.606811" style="fill: #ff8c00"/>
    </g>
    <g clip-path="url(#p7cc8bbed35)">
     <use xlink:href="#C1_0_a1da4232a1" x="267.029623" y="388.549946" style="fill: #ff8c00"/>
    </g>
    <g clip-path="url(#p7cc8bbed35)">
     <use xlink:href="#C1_0_a1da4232a1" x="257.714516" y="361.810703" style="fill: #ff8c00"/>
    </g>
    <g clip-path="url(#p7cc8bbed35)">
     <use xlink:href="#C1_0_a1da4232a1" x="258.132848" y="383.407784" style="fill: #ff8c00"/>
    </g>
    <g clip-path="url(#p7cc8bbed35)">
     <use xlink:href="#C1_0_a1da4232a1" x="260.157963" y="396.777405" style="fill: #ff8c00"/>
    </g>
    <g clip-path="url(#p7cc8bbed35)">
     <use xlink:href="#C1_0_a1da4232a1" x="250.413351" y="363.867568" style="fill: #ff8c00"/>
    </g>
    <g clip-path="url(#p7cc8bbed35)">
     <use xlink:href="#C1_0_a1da4232a1" x="262.431312" y="390.606811" style="fill: #ff8c00"/>
    </g>
    <g clip-path="url(#p7cc8bbed35)">
     <use xlink:href="#C1_0_a1da4232a1" x="251.832555" y="353.583243" style="fill: #ff8c00"/>
    </g>
    <g clip-path="url(#p7cc8bbed35)">
     <use xlink:href="#C1_0_a1da4232a1" x="266.222171" y="387.521514" style="fill: #ff8c00"/>
    </g>
    <g clip-path="url(#p7cc8bbed35)">
     <use xlink:href="#C1_0_a1da4232a1" x="255.904217" y="383.407784" style="fill: #ff8c00"/>
    </g>
    <g clip-path="url(#p7cc8bbed35)">
     <use xlink:href="#C1_0_a1da4232a1" x="261.896917" y="363.867568" style="fill: #ff8c00"/>
    </g>
   </g>
   <g id="PathCollection_3">
    <defs>
     <path id="C2_0_e558682ab2" d="M 0 2.5 
C 0.663008 2.5 1.29895 2.236584 1.767767 1.767767 
C 2.236584 1.29895 2.5 0.663008 2.5 -0 
C 2.5 -0.663008 2.236584 -1.29895 1.767767 -1.767767 
C 1.29895 -2.236584 0.663008 -2.5 0 -2.5 
C -0.663008 -2.5 -1.29895 -2.236584 -1.767767 -1.767767 
C -2.236584 -1.29895 -2.5 -0.663008 -2.5 0 
C -2.5 0.663008 -2.236584 1.29895 -1.767767 1.767767 
C -1.29895 2.236584 -0.663008 2.5 0 2.5 
z
"/>
    </defs>
    <g clip-path="url(#p7cc8bbed35)">
     <use xlink:href="#C2_0_e558682ab2" x="352.128775" y="99.560432" style="fill: #ee82ee"/>
    </g>
    <g clip-path="url(#p7cc8bbed35)">
     <use xlink:href="#C2_0_e558682ab2" x="371.17665" y="145.839892" style="fill: #ee82ee"/>
    </g>
    <g clip-path="url(#p7cc8bbed35)">
     <use xlink:href="#C2_0_e558682ab2" x="366.567473" y="134.527135" style="fill: #ee82ee"/>
    </g>
    <g clip-path="url(#p7cc8bbed35)">
     <use xlink:href="#C2_0_e558682ab2" x="366.162634" y="132.47027" style="fill: #ee82ee"/>
    </g>
    <g clip-path="url(#p7cc8bbed35)">
     <use xlink:href="#C2_0_e558682ab2" x="368.817032" y="84.133946" style="fill: #ee82ee"/>
    </g>
    <g clip-path="url(#p7cc8bbed35)">
     <use xlink:href="#C2_0_e558682ab2" x="359.696536" y="98.532" style="fill: #ee82ee"/>
    </g>
    <g clip-path="url(#p7cc8bbed35)">
     <use xlink:href="#C2_0_e558682ab2" x="358.580274" y="138.640865" style="fill: #ee82ee"/>
    </g>
    <g clip-path="url(#p7cc8bbed35)">
     <use xlink:href="#C2_0_e558682ab2" x="351.999624" y="129.384973" style="fill: #ee82ee"/>
    </g>
    <g clip-path="url(#p7cc8bbed35)">
     <use xlink:href="#C2_0_e558682ab2" x="358.041904" y="288.792" style="fill: #ee82ee"/>
    </g>
    <g clip-path="url(#p7cc8bbed35)">
     <use xlink:href="#C2_0_e558682ab2" x="368.225639" y="172.579135" style="fill: #ee82ee"/>
    </g>
   </g>
  </g>
 </g>
 <defs>
  <clipPath id="p7cc8bbed35">
   <rect x="104.035135" y="60.48" width="308.52973" height="380.52"/>
  </clipPath>
 </defs>
</svg>
