<?xml version="1.0" encoding="utf-8" standalone="no"?>
<!DOCTYPE svg PUBLIC "-//W3C//DTD SVG 1.1//EN"
  "http://www.w3.org/Graphics/SVG/1.1/DTD/svg11.dtd">
<svg xmlns:xlink="http://www.w3.org/1999/xlink" width="504pt" height="504pt" viewBox="0 0 504 504" xmlns="http://www.w3.org/2000/svg" version="1.1">
 <metadata>
  <rdf:RDF xmlns:dc="http://purl.org/dc/elements/1.1/" xmlns:cc="http://creativecommons.org/ns#" xmlns:rdf="http://www.w3.org/1999/02/22-rdf-syntax-ns#">
   <cc:Work>
    <dc:type rdf:resource="http://purl.org/dc/dcmitype/StillImage"/>
    <dc:date>2024-01-28T10:24:42.708713</dc:date>
    <dc:format>image/svg+xml</dc:format>
    <dc:creator>
     <cc:Agent>
      <dc:title>Matplotlib v3.5.1, https://matplotlib.org/</dc:title>
     </cc:Agent>
    </dc:creator>
   </cc:Work>
  </rdf:RDF>
 </metadata>
 <defs>
  <style type="text/css">*{stroke-linejoin: round; stroke-linecap: butt}</style>
 </defs>
 <g id="figure_1">
  <g id="patch_1">
   <path d="M 0 504 
L 504 504 
L 504 0 
L 0 0 
L 0 504 
z
" style="fill: none"/>
  </g>
  <g id="axes_1">
   <g id="patch_2">
    <path d="M 152.6 441 
L 364 441 
L 364 60.48 
L 152.6 60.48 
z
" style="fill: #ffffff"/>
   </g>
   <g id="PolyCollection_1">
    <defs>
     <path id="mca7bd94b5b" d="M 197.678773 -78.853465 
L 177.987893 -78.853465 
L 177.316124 -81.105839 
L 176.630873 -83.358214 
L 175.933757 -85.610589 
L 175.226433 -87.862963 
L 174.510619 -90.115338 
L 173.788113 -92.367712 
L 173.060812 -94.620087 
L 172.330736 -96.872461 
L 171.60004 -99.124836 
L 170.871022 -101.37721 
L 170.146127 -103.629585 
L 169.427933 -105.881959 
L 168.719134 -108.134334 
L 168.022502 -110.386709 
L 167.340849 -112.639083 
L 166.676977 -114.891458 
L 166.033615 -117.143832 
L 165.413365 -119.396207 
L 164.818641 -121.648581 
L 164.251614 -123.900956 
L 163.714163 -126.15333 
L 163.207847 -128.405705 
L 162.73388 -130.65808 
L 162.293135 -132.910454 
L 161.886158 -135.162829 
L 161.513206 -137.415203 
L 161.174299 -139.667578 
L 160.869297 -141.919952 
L 160.597975 -144.172327 
L 160.360118 -146.424701 
L 160.15561 -148.677076 
L 159.984529 -150.92945 
L 159.84722 -153.181825 
L 159.744366 -155.4342 
L 159.677028 -157.686574 
L 159.646667 -159.938949 
L 159.655136 -162.191323 
L 159.704646 -164.443698 
L 159.797695 -166.696072 
L 159.936979 -168.948447 
L 160.125276 -171.200821 
L 160.365311 -173.453196 
L 160.659606 -175.705571 
L 161.010331 -177.957945 
L 161.419155 -180.21032 
L 161.887102 -182.462694 
L 162.414435 -184.715069 
L 163.000556 -186.967443 
L 163.643936 -189.219818 
L 164.342084 -191.472192 
L 165.091544 -193.724567 
L 165.887934 -195.976942 
L 166.726011 -198.229316 
L 167.599778 -200.481691 
L 168.502599 -202.734065 
L 169.427357 -204.98644 
L 170.3666 -207.238814 
L 171.312717 -209.491189 
L 172.258092 -211.743563 
L 173.195268 -213.995938 
L 174.117088 -216.248312 
L 175.01682 -218.500687 
L 175.888266 -220.753062 
L 176.725842 -223.005436 
L 177.524641 -225.257811 
L 178.280464 -227.510185 
L 178.989844 -229.76256 
L 179.650035 -232.014934 
L 180.258999 -234.267309 
L 180.815377 -236.519683 
L 181.318447 -238.772058 
L 181.768085 -241.024433 
L 182.164718 -243.276807 
L 182.509283 -245.529182 
L 182.803185 -247.781556 
L 183.048257 -250.033931 
L 183.246729 -252.286305 
L 183.401198 -254.53868 
L 183.514598 -256.791054 
L 183.590175 -259.043429 
L 183.63146 -261.295804 
L 183.642239 -263.548178 
L 183.626522 -265.800553 
L 183.588506 -268.052927 
L 183.532528 -270.305302 
L 183.463018 -272.557676 
L 183.384444 -274.810051 
L 183.301243 -277.062425 
L 183.21776 -279.3148 
L 183.138173 -281.567174 
L 183.066424 -283.819549 
L 183.006145 -286.071924 
L 182.96059 -288.324298 
L 182.93258 -290.576673 
L 182.924441 -292.829047 
L 182.937973 -295.081422 
L 182.97441 -297.333796 
L 183.034418 -299.586171 
L 183.118085 -301.838545 
L 192.548582 -301.838545 
L 192.548582 -301.838545 
L 192.632249 -299.586171 
L 192.692256 -297.333796 
L 192.728694 -295.081422 
L 192.742225 -292.829047 
L 192.734087 -290.576673 
L 192.706076 -288.324298 
L 192.660522 -286.071924 
L 192.600242 -283.819549 
L 192.528493 -281.567174 
L 192.448907 -279.3148 
L 192.365424 -277.062425 
L 192.282223 -274.810051 
L 192.203648 -272.557676 
L 192.134139 -270.305302 
L 192.078161 -268.052927 
L 192.040144 -265.800553 
L 192.024428 -263.548178 
L 192.035207 -261.295804 
L 192.076491 -259.043429 
L 192.152068 -256.791054 
L 192.265469 -254.53868 
L 192.419938 -252.286305 
L 192.61841 -250.033931 
L 192.863482 -247.781556 
L 193.157383 -245.529182 
L 193.501949 -243.276807 
L 193.898582 -241.024433 
L 194.348219 -238.772058 
L 194.85129 -236.519683 
L 195.407667 -234.267309 
L 196.016632 -232.014934 
L 196.676823 -229.76256 
L 197.386202 -227.510185 
L 198.142026 -225.257811 
L 198.940824 -223.005436 
L 199.778401 -220.753062 
L 200.649847 -218.500687 
L 201.549579 -216.248312 
L 202.471399 -213.995938 
L 203.408575 -211.743563 
L 204.35395 -209.491189 
L 205.300066 -207.238814 
L 206.23931 -204.98644 
L 207.164067 -202.734065 
L 208.066889 -200.481691 
L 208.940655 -198.229316 
L 209.778733 -195.976942 
L 210.575123 -193.724567 
L 211.324583 -191.472192 
L 212.022731 -189.219818 
L 212.666111 -186.967443 
L 213.252231 -184.715069 
L 213.779564 -182.462694 
L 214.247512 -180.21032 
L 214.656335 -177.957945 
L 215.007061 -175.705571 
L 215.301356 -173.453196 
L 215.54139 -171.200821 
L 215.729688 -168.948447 
L 215.868972 -166.696072 
L 215.962021 -164.443698 
L 216.01153 -162.191323 
L 216.02 -159.938949 
L 215.989639 -157.686574 
L 215.922301 -155.4342 
L 215.819446 -153.181825 
L 215.682138 -150.92945 
L 215.511057 -148.677076 
L 215.306549 -146.424701 
L 215.068692 -144.172327 
L 214.79737 -141.919952 
L 214.492367 -139.667578 
L 214.153461 -137.415203 
L 213.780508 -135.162829 
L 213.373531 -132.910454 
L 212.932786 -130.65808 
L 212.45882 -128.405705 
L 211.952504 -126.15333 
L 211.415053 -123.900956 
L 210.848025 -121.648581 
L 210.253302 -119.396207 
L 209.633052 -117.143832 
L 208.98969 -114.891458 
L 208.325818 -112.639083 
L 207.644165 -110.386709 
L 206.947533 -108.134334 
L 206.238733 -105.881959 
L 205.52054 -103.629585 
L 204.795645 -101.37721 
L 204.066627 -99.124836 
L 203.33593 -96.872461 
L 202.605855 -94.620087 
L 201.878554 -92.367712 
L 201.156048 -90.115338 
L 200.440234 -87.862963 
L 199.73291 -85.610589 
L 199.035793 -83.358214 
L 198.350542 -81.105839 
L 197.678773 -78.853465 
z
" style="stroke: #4b0082; stroke-width: 1.5"/>
    </defs>
    <g clip-path="url(#p454184c3b0)">
     <use xlink:href="#mca7bd94b5b" x="0" y="504" style="fill: #ffffff; stroke: #4b0082; stroke-width: 1.5"/>
    </g>
   </g>
   <g id="PolyCollection_2">
    <defs>
     <path id="m9afa3235ae" d="M 273.043563 -127.202294 
L 243.556437 -127.202294 
L 242.85813 -128.984243 
L 242.167364 -130.766193 
L 241.486948 -132.548142 
L 240.819585 -134.330091 
L 240.167848 -136.112041 
L 239.534154 -137.89399 
L 238.92075 -139.675939 
L 238.3297 -141.457889 
L 237.762877 -143.239838 
L 237.221959 -145.021787 
L 236.708432 -146.803736 
L 236.223591 -148.585686 
L 235.768554 -150.367635 
L 235.344266 -152.149584 
L 234.95152 -153.931534 
L 234.590968 -155.713483 
L 234.263135 -157.495432 
L 233.96844 -159.277382 
L 233.707208 -161.059331 
L 233.479682 -162.84128 
L 233.286041 -164.623229 
L 233.1264 -166.405179 
L 233.000825 -168.187128 
L 232.909331 -169.969077 
L 232.851883 -171.751027 
L 232.828394 -173.532976 
L 232.838719 -175.314925 
L 232.882642 -177.096874 
L 232.959871 -178.878824 
L 233.070019 -180.660773 
L 233.212592 -182.442722 
L 233.386978 -184.224672 
L 233.592422 -186.006621 
L 233.828023 -187.78857 
L 234.092713 -189.57052 
L 234.38525 -191.352469 
L 234.704206 -193.134418 
L 235.047965 -194.916367 
L 235.414717 -196.698317 
L 235.802461 -198.480266 
L 236.20901 -200.262215 
L 236.631995 -202.044165 
L 237.068883 -203.826114 
L 237.516988 -205.608063 
L 237.97349 -207.390013 
L 238.435459 -209.171962 
L 238.899877 -210.953911 
L 239.363666 -212.73586 
L 239.823719 -214.51781 
L 240.276923 -216.299759 
L 240.7202 -218.081708 
L 241.150532 -219.863658 
L 241.564994 -221.645607 
L 241.960791 -223.427556 
L 242.335286 -225.209505 
L 242.686031 -226.991455 
L 243.0108 -228.773404 
L 243.307616 -230.555353 
L 243.574777 -232.337303 
L 243.810885 -234.119252 
L 244.014864 -235.901201 
L 244.185985 -237.683151 
L 244.32388 -239.4651 
L 244.428556 -241.247049 
L 244.500407 -243.028998 
L 244.540218 -244.810948 
L 244.549168 -246.592897 
L 244.528828 -248.374846 
L 244.481148 -250.156796 
L 244.408448 -251.938745 
L 244.313397 -253.720694 
L 244.198988 -255.502644 
L 244.068508 -257.284593 
L 243.925501 -259.066542 
L 243.773728 -260.848491 
L 243.617121 -262.630441 
L 243.459733 -264.41239 
L 243.305681 -266.194339 
L 243.159095 -267.976289 
L 243.024056 -269.758238 
L 242.904538 -271.540187 
L 242.80435 -273.322137 
L 242.727077 -275.104086 
L 242.67603 -276.886035 
L 242.654191 -278.667984 
L 242.664168 -280.449934 
L 242.708159 -282.231883 
L 242.787917 -284.013832 
L 242.904723 -285.795782 
L 243.059374 -287.577731 
L 243.252168 -289.35968 
L 243.482911 -291.141629 
L 243.750922 -292.923579 
L 244.05505 -294.705528 
L 244.393702 -296.487477 
L 244.764872 -298.269427 
L 245.166184 -300.051376 
L 245.594933 -301.833325 
L 246.048137 -303.615275 
L 270.551863 -303.615275 
L 270.551863 -303.615275 
L 271.005067 -301.833325 
L 271.433816 -300.051376 
L 271.835128 -298.269427 
L 272.206298 -296.487477 
L 272.54495 -294.705528 
L 272.849078 -292.923579 
L 273.117089 -291.141629 
L 273.347832 -289.35968 
L 273.540626 -287.577731 
L 273.695277 -285.795782 
L 273.812083 -284.013832 
L 273.891841 -282.231883 
L 273.935832 -280.449934 
L 273.945809 -278.667984 
L 273.92397 -276.886035 
L 273.872923 -275.104086 
L 273.79565 -273.322137 
L 273.695462 -271.540187 
L 273.575944 -269.758238 
L 273.440905 -267.976289 
L 273.294319 -266.194339 
L 273.140267 -264.41239 
L 272.982879 -262.630441 
L 272.826272 -260.848491 
L 272.674499 -259.066542 
L 272.531492 -257.284593 
L 272.401012 -255.502644 
L 272.286603 -253.720694 
L 272.191552 -251.938745 
L 272.118852 -250.156796 
L 272.071172 -248.374846 
L 272.050832 -246.592897 
L 272.059782 -244.810948 
L 272.099593 -243.028998 
L 272.171444 -241.247049 
L 272.27612 -239.4651 
L 272.414015 -237.683151 
L 272.585136 -235.901201 
L 272.789115 -234.119252 
L 273.025223 -232.337303 
L 273.292384 -230.555353 
L 273.5892 -228.773404 
L 273.913969 -226.991455 
L 274.264714 -225.209505 
L 274.639209 -223.427556 
L 275.035006 -221.645607 
L 275.449468 -219.863658 
L 275.8798 -218.081708 
L 276.323077 -216.299759 
L 276.776281 -214.51781 
L 277.236334 -212.73586 
L 277.700123 -210.953911 
L 278.164541 -209.171962 
L 278.62651 -207.390013 
L 279.083012 -205.608063 
L 279.531117 -203.826114 
L 279.968005 -202.044165 
L 280.39099 -200.262215 
L 280.797539 -198.480266 
L 281.185283 -196.698317 
L 281.552035 -194.916367 
L 281.895794 -193.134418 
L 282.21475 -191.352469 
L 282.507287 -189.57052 
L 282.771977 -187.78857 
L 283.007578 -186.006621 
L 283.213022 -184.224672 
L 283.387408 -182.442722 
L 283.529981 -180.660773 
L 283.640129 -178.878824 
L 283.717358 -177.096874 
L 283.761281 -175.314925 
L 283.771606 -173.532976 
L 283.748117 -171.751027 
L 283.690669 -169.969077 
L 283.599175 -168.187128 
L 283.4736 -166.405179 
L 283.313959 -164.623229 
L 283.120318 -162.84128 
L 282.892792 -161.059331 
L 282.63156 -159.277382 
L 282.336865 -157.495432 
L 282.009032 -155.713483 
L 281.64848 -153.931534 
L 281.255734 -152.149584 
L 280.831446 -150.367635 
L 280.376409 -148.585686 
L 279.891568 -146.803736 
L 279.378041 -145.021787 
L 278.837123 -143.239838 
L 278.2703 -141.457889 
L 277.67925 -139.675939 
L 277.065846 -137.89399 
L 276.432152 -136.112041 
L 275.780415 -134.330091 
L 275.113052 -132.548142 
L 274.432636 -130.766193 
L 273.74187 -128.984243 
L 273.043563 -127.202294 
z
" style="stroke: #ff8c00; stroke-width: 1.5"/>
    </defs>
    <g clip-path="url(#p454184c3b0)">
     <use xlink:href="#m9afa3235ae" x="0" y="504" style="fill: #ffffff; stroke: #ff8c00; stroke-width: 1.5"/>
    </g>
   </g>
   <g id="PolyCollection_3">
    <defs>
     <path id="m5c2af7d7d2" d="M 337.882714 -238.272084 
L 319.65062 -238.272084 
L 319.291562 -240.136312 
L 318.930656 -242.00054 
L 318.568515 -243.864768 
L 318.205781 -245.728995 
L 317.843119 -247.593223 
L 317.481217 -249.457451 
L 317.120784 -251.321679 
L 316.762546 -253.185907 
L 316.407234 -255.050135 
L 316.055584 -256.914363 
L 315.708325 -258.778591 
L 315.36617 -260.642819 
L 315.0298 -262.507047 
L 314.69986 -264.371275 
L 314.37694 -266.235503 
L 314.061564 -268.099731 
L 313.754174 -269.963959 
L 313.455121 -271.828187 
L 313.16465 -273.692415 
L 312.88289 -275.556642 
L 312.609842 -277.42087 
L 312.345375 -279.285098 
L 312.089218 -281.149326 
L 311.840961 -283.013554 
L 311.600054 -284.877782 
L 311.365809 -286.74201 
L 311.137416 -288.606238 
L 310.913946 -290.470466 
L 310.694372 -292.334694 
L 310.477587 -294.198922 
L 310.262425 -296.06315 
L 310.04769 -297.927378 
L 309.83218 -299.791606 
L 309.61472 -301.655834 
L 309.394194 -303.520061 
L 309.169575 -305.384289 
L 308.939963 -307.248517 
L 308.70461 -309.112745 
L 308.462955 -310.976973 
L 308.214653 -312.841201 
L 307.959595 -314.705429 
L 307.697935 -316.569657 
L 307.430101 -318.433885 
L 307.156812 -320.298113 
L 306.87908 -322.162341 
L 306.598209 -324.026569 
L 306.315793 -325.890797 
L 306.033701 -327.755025 
L 305.754056 -329.619253 
L 305.479215 -331.483481 
L 305.211733 -333.347708 
L 304.954332 -335.211936 
L 304.709857 -337.076164 
L 304.481235 -338.940392 
L 304.271428 -340.80462 
L 304.083381 -342.668848 
L 303.919979 -344.533076 
L 303.783988 -346.397304 
L 303.678017 -348.261532 
L 303.604465 -350.12576 
L 303.56548 -351.989988 
L 303.562922 -353.854216 
L 303.598329 -355.718444 
L 303.672885 -357.582672 
L 303.787405 -359.4469 
L 303.942313 -361.311128 
L 304.137641 -363.175355 
L 304.373021 -365.039583 
L 304.647697 -366.903811 
L 304.960535 -368.768039 
L 305.310043 -370.632267 
L 305.694397 -372.496495 
L 306.111472 -374.360723 
L 306.558876 -376.224951 
L 307.03399 -378.089179 
L 307.534013 -379.953407 
L 308.056001 -381.817635 
L 308.596915 -383.681863 
L 309.153666 -385.546091 
L 309.723159 -387.410319 
L 310.302336 -389.274547 
L 310.888212 -391.138774 
L 311.477917 -393.003002 
L 312.068725 -394.86723 
L 312.658085 -396.731458 
L 313.243639 -398.595686 
L 313.823247 -400.459914 
L 314.394996 -402.324142 
L 314.957211 -404.18837 
L 315.508455 -406.052598 
L 316.04753 -407.916826 
L 316.573471 -409.781054 
L 317.085535 -411.645282 
L 317.58319 -413.50951 
L 318.066095 -415.373738 
L 318.534087 -417.237966 
L 318.987157 -419.102194 
L 319.425427 -420.966421 
L 319.849136 -422.830649 
L 337.684197 -422.830649 
L 337.684197 -422.830649 
L 338.107906 -420.966421 
L 338.546177 -419.102194 
L 338.999246 -417.237966 
L 339.467238 -415.373738 
L 339.950144 -413.50951 
L 340.447798 -411.645282 
L 340.959862 -409.781054 
L 341.485803 -407.916826 
L 342.024878 -406.052598 
L 342.576122 -404.18837 
L 343.138337 -402.324142 
L 343.710086 -400.459914 
L 344.289695 -398.595686 
L 344.875249 -396.731458 
L 345.464608 -394.86723 
L 346.055417 -393.003002 
L 346.645122 -391.138774 
L 347.230998 -389.274547 
L 347.810174 -387.410319 
L 348.379667 -385.546091 
L 348.936419 -383.681863 
L 349.477333 -381.817635 
L 349.99932 -379.953407 
L 350.499343 -378.089179 
L 350.974458 -376.224951 
L 351.421862 -374.360723 
L 351.838936 -372.496495 
L 352.223291 -370.632267 
L 352.572799 -368.768039 
L 352.885637 -366.903811 
L 353.160313 -365.039583 
L 353.395693 -363.175355 
L 353.59102 -361.311128 
L 353.745929 -359.4469 
L 353.860448 -357.582672 
L 353.935004 -355.718444 
L 353.970411 -353.854216 
L 353.967854 -351.989988 
L 353.928869 -350.12576 
L 353.855317 -348.261532 
L 353.749345 -346.397304 
L 353.613355 -344.533076 
L 353.449952 -342.668848 
L 353.261906 -340.80462 
L 353.052098 -338.940392 
L 352.823477 -337.076164 
L 352.579002 -335.211936 
L 352.3216 -333.347708 
L 352.054118 -331.483481 
L 351.779277 -329.619253 
L 351.499632 -327.755025 
L 351.21754 -325.890797 
L 350.935125 -324.026569 
L 350.654254 -322.162341 
L 350.376521 -320.298113 
L 350.103232 -318.433885 
L 349.835399 -316.569657 
L 349.573738 -314.705429 
L 349.318681 -312.841201 
L 349.070378 -310.976973 
L 348.828724 -309.112745 
L 348.59337 -307.248517 
L 348.363758 -305.384289 
L 348.13914 -303.520061 
L 347.918613 -301.655834 
L 347.701153 -299.791606 
L 347.485643 -297.927378 
L 347.270908 -296.06315 
L 347.055747 -294.198922 
L 346.838962 -292.334694 
L 346.619388 -290.470466 
L 346.395918 -288.606238 
L 346.167524 -286.74201 
L 345.93328 -284.877782 
L 345.692372 -283.013554 
L 345.444115 -281.149326 
L 345.187958 -279.285098 
L 344.923491 -277.42087 
L 344.650443 -275.556642 
L 344.368683 -273.692415 
L 344.078212 -271.828187 
L 343.77916 -269.963959 
L 343.47177 -268.099731 
L 343.156393 -266.235503 
L 342.833473 -264.371275 
L 342.503533 -262.507047 
L 342.167164 -260.642819 
L 341.825008 -258.778591 
L 341.477749 -256.914363 
L 341.1261 -255.050135 
L 340.770788 -253.185907 
L 340.412549 -251.321679 
L 340.052117 -249.457451 
L 339.690215 -247.593223 
L 339.327552 -245.728995 
L 338.964818 -243.864768 
L 338.602677 -242.00054 
L 338.241771 -240.136312 
L 337.882714 -238.272084 
z
" style="stroke: #ee82ee; stroke-width: 1.5"/>
    </defs>
    <g clip-path="url(#p454184c3b0)">
     <use xlink:href="#m5c2af7d7d2" x="0" y="504" style="fill: #ffffff; stroke: #ee82ee; stroke-width: 1.5"/>
    </g>
   </g>
   <g id="matplotlib.axis_1">
    <g id="xtick_1">
     <g id="text_1">
      <!-- V -->
      <g transform="translate(183.044896 458.637812)scale(0.14 -0.14)">
       <defs>
        <path id="DejaVuSans-56" d="M 1831 0 
L 50 4666 
L 709 4666 
L 2188 738 
L 3669 4666 
L 4325 4666 
L 2547 0 
L 1831 0 
z
" transform="scale(0.015625)"/>
       </defs>
       <use xlink:href="#DejaVuSans-56"/>
      </g>
     </g>
    </g>
    <g id="xtick_2">
     <g id="text_2">
      <!-- DM1 -->
      <g transform="translate(242.416562 458.637812)scale(0.14 -0.14)">
       <defs>
        <path id="DejaVuSans-44" d="M 1259 4147 
L 1259 519 
L 2022 519 
Q 2988 519 3436 956 
Q 3884 1394 3884 2338 
Q 3884 3275 3436 3711 
Q 2988 4147 2022 4147 
L 1259 4147 
z
M 628 4666 
L 1925 4666 
Q 3281 4666 3915 4102 
Q 4550 3538 4550 2338 
Q 4550 1131 3912 565 
Q 3275 0 1925 0 
L 628 0 
L 628 4666 
z
" transform="scale(0.015625)"/>
        <path id="DejaVuSans-4d" d="M 628 4666 
L 1569 4666 
L 2759 1491 
L 3956 4666 
L 4897 4666 
L 4897 0 
L 4281 0 
L 4281 4097 
L 3078 897 
L 2444 897 
L 1241 4097 
L 1241 0 
L 628 0 
L 628 4666 
z
" transform="scale(0.015625)"/>
        <path id="DejaVuSans-31" d="M 794 531 
L 1825 531 
L 1825 4091 
L 703 3866 
L 703 4441 
L 1819 4666 
L 2450 4666 
L 2450 531 
L 3481 531 
L 3481 0 
L 794 0 
L 794 531 
z
" transform="scale(0.015625)"/>
       </defs>
       <use xlink:href="#DejaVuSans-44"/>
       <use xlink:href="#DejaVuSans-4d" x="77.001953"/>
       <use xlink:href="#DejaVuSans-31" x="163.28125"/>
      </g>
     </g>
    </g>
    <g id="xtick_3">
     <g id="text_3">
      <!-- Glomerulus 1 -->
      <g transform="translate(281.969479 458.637812)scale(0.14 -0.14)">
       <defs>
        <path id="DejaVuSans-47" d="M 3809 666 
L 3809 1919 
L 2778 1919 
L 2778 2438 
L 4434 2438 
L 4434 434 
Q 4069 175 3628 42 
Q 3188 -91 2688 -91 
Q 1594 -91 976 548 
Q 359 1188 359 2328 
Q 359 3472 976 4111 
Q 1594 4750 2688 4750 
Q 3144 4750 3555 4637 
Q 3966 4525 4313 4306 
L 4313 3634 
Q 3963 3931 3569 4081 
Q 3175 4231 2741 4231 
Q 1884 4231 1454 3753 
Q 1025 3275 1025 2328 
Q 1025 1384 1454 906 
Q 1884 428 2741 428 
Q 3075 428 3337 486 
Q 3600 544 3809 666 
z
" transform="scale(0.015625)"/>
        <path id="DejaVuSans-6c" d="M 603 4863 
L 1178 4863 
L 1178 0 
L 603 0 
L 603 4863 
z
" transform="scale(0.015625)"/>
        <path id="DejaVuSans-6f" d="M 1959 3097 
Q 1497 3097 1228 2736 
Q 959 2375 959 1747 
Q 959 1119 1226 758 
Q 1494 397 1959 397 
Q 2419 397 2687 759 
Q 2956 1122 2956 1747 
Q 2956 2369 2687 2733 
Q 2419 3097 1959 3097 
z
M 1959 3584 
Q 2709 3584 3137 3096 
Q 3566 2609 3566 1747 
Q 3566 888 3137 398 
Q 2709 -91 1959 -91 
Q 1206 -91 779 398 
Q 353 888 353 1747 
Q 353 2609 779 3096 
Q 1206 3584 1959 3584 
z
" transform="scale(0.015625)"/>
        <path id="DejaVuSans-6d" d="M 3328 2828 
Q 3544 3216 3844 3400 
Q 4144 3584 4550 3584 
Q 5097 3584 5394 3201 
Q 5691 2819 5691 2113 
L 5691 0 
L 5113 0 
L 5113 2094 
Q 5113 2597 4934 2840 
Q 4756 3084 4391 3084 
Q 3944 3084 3684 2787 
Q 3425 2491 3425 1978 
L 3425 0 
L 2847 0 
L 2847 2094 
Q 2847 2600 2669 2842 
Q 2491 3084 2119 3084 
Q 1678 3084 1418 2786 
Q 1159 2488 1159 1978 
L 1159 0 
L 581 0 
L 581 3500 
L 1159 3500 
L 1159 2956 
Q 1356 3278 1631 3431 
Q 1906 3584 2284 3584 
Q 2666 3584 2933 3390 
Q 3200 3197 3328 2828 
z
" transform="scale(0.015625)"/>
        <path id="DejaVuSans-65" d="M 3597 1894 
L 3597 1613 
L 953 1613 
Q 991 1019 1311 708 
Q 1631 397 2203 397 
Q 2534 397 2845 478 
Q 3156 559 3463 722 
L 3463 178 
Q 3153 47 2828 -22 
Q 2503 -91 2169 -91 
Q 1331 -91 842 396 
Q 353 884 353 1716 
Q 353 2575 817 3079 
Q 1281 3584 2069 3584 
Q 2775 3584 3186 3129 
Q 3597 2675 3597 1894 
z
M 3022 2063 
Q 3016 2534 2758 2815 
Q 2500 3097 2075 3097 
Q 1594 3097 1305 2825 
Q 1016 2553 972 2059 
L 3022 2063 
z
" transform="scale(0.015625)"/>
        <path id="DejaVuSans-72" d="M 2631 2963 
Q 2534 3019 2420 3045 
Q 2306 3072 2169 3072 
Q 1681 3072 1420 2755 
Q 1159 2438 1159 1844 
L 1159 0 
L 581 0 
L 581 3500 
L 1159 3500 
L 1159 2956 
Q 1341 3275 1631 3429 
Q 1922 3584 2338 3584 
Q 2397 3584 2469 3576 
Q 2541 3569 2628 3553 
L 2631 2963 
z
" transform="scale(0.015625)"/>
        <path id="DejaVuSans-75" d="M 544 1381 
L 544 3500 
L 1119 3500 
L 1119 1403 
Q 1119 906 1312 657 
Q 1506 409 1894 409 
Q 2359 409 2629 706 
Q 2900 1003 2900 1516 
L 2900 3500 
L 3475 3500 
L 3475 0 
L 2900 0 
L 2900 538 
Q 2691 219 2414 64 
Q 2138 -91 1772 -91 
Q 1169 -91 856 284 
Q 544 659 544 1381 
z
M 1991 3584 
L 1991 3584 
z
" transform="scale(0.015625)"/>
        <path id="DejaVuSans-73" d="M 2834 3397 
L 2834 2853 
Q 2591 2978 2328 3040 
Q 2066 3103 1784 3103 
Q 1356 3103 1142 2972 
Q 928 2841 928 2578 
Q 928 2378 1081 2264 
Q 1234 2150 1697 2047 
L 1894 2003 
Q 2506 1872 2764 1633 
Q 3022 1394 3022 966 
Q 3022 478 2636 193 
Q 2250 -91 1575 -91 
Q 1294 -91 989 -36 
Q 684 19 347 128 
L 347 722 
Q 666 556 975 473 
Q 1284 391 1588 391 
Q 1994 391 2212 530 
Q 2431 669 2431 922 
Q 2431 1156 2273 1281 
Q 2116 1406 1581 1522 
L 1381 1569 
Q 847 1681 609 1914 
Q 372 2147 372 2553 
Q 372 3047 722 3315 
Q 1072 3584 1716 3584 
Q 2034 3584 2315 3537 
Q 2597 3491 2834 3397 
z
" transform="scale(0.015625)"/>
        <path id="DejaVuSans-20" transform="scale(0.015625)"/>
       </defs>
       <use xlink:href="#DejaVuSans-47"/>
       <use xlink:href="#DejaVuSans-6c" x="77.490234"/>
       <use xlink:href="#DejaVuSans-6f" x="105.273438"/>
       <use xlink:href="#DejaVuSans-6d" x="166.455078"/>
       <use xlink:href="#DejaVuSans-65" x="263.867188"/>
       <use xlink:href="#DejaVuSans-72" x="325.390625"/>
       <use xlink:href="#DejaVuSans-75" x="366.503906"/>
       <use xlink:href="#DejaVuSans-6c" x="429.882812"/>
       <use xlink:href="#DejaVuSans-75" x="457.666016"/>
       <use xlink:href="#DejaVuSans-73" x="521.044922"/>
       <use xlink:href="#DejaVuSans-20" x="573.144531"/>
       <use xlink:href="#DejaVuSans-31" x="604.931641"/>
      </g>
     </g>
    </g>
    <g id="text_4">
     <!-- Glomerulus -->
     <g transform="translate(212.45 477.706875)scale(0.16 -0.16)">
      <use xlink:href="#DejaVuSans-47"/>
      <use xlink:href="#DejaVuSans-6c" x="77.490234"/>
      <use xlink:href="#DejaVuSans-6f" x="105.273438"/>
      <use xlink:href="#DejaVuSans-6d" x="166.455078"/>
      <use xlink:href="#DejaVuSans-65" x="263.867188"/>
      <use xlink:href="#DejaVuSans-72" x="325.390625"/>
      <use xlink:href="#DejaVuSans-75" x="366.503906"/>
      <use xlink:href="#DejaVuSans-6c" x="429.882812"/>
      <use xlink:href="#DejaVuSans-75" x="457.666016"/>
      <use xlink:href="#DejaVuSans-73" x="521.044922"/>
     </g>
    </g>
   </g>
   <g id="matplotlib.axis_2">
    <g id="ytick_1">
     <g id="line2d_1">
      <defs>
       <path id="mb5e64eda0f" d="M 0 0 
L -3.5 0 
" style="stroke: #000000; stroke-width: 0.8"/>
      </defs>
      <g>
       <use xlink:href="#mb5e64eda0f" x="152.6" y="441" style="stroke: #000000; stroke-width: 0.8"/>
      </g>
     </g>
     <g id="text_5">
      <!-- 0.0 -->
      <g transform="translate(123.335625 446.318906)scale(0.14 -0.14)">
       <defs>
        <path id="DejaVuSans-30" d="M 2034 4250 
Q 1547 4250 1301 3770 
Q 1056 3291 1056 2328 
Q 1056 1369 1301 889 
Q 1547 409 2034 409 
Q 2525 409 2770 889 
Q 3016 1369 3016 2328 
Q 3016 3291 2770 3770 
Q 2525 4250 2034 4250 
z
M 2034 4750 
Q 2819 4750 3233 4129 
Q 3647 3509 3647 2328 
Q 3647 1150 3233 529 
Q 2819 -91 2034 -91 
Q 1250 -91 836 529 
Q 422 1150 422 2328 
Q 422 3509 836 4129 
Q 1250 4750 2034 4750 
z
" transform="scale(0.015625)"/>
        <path id="DejaVuSans-2e" d="M 684 794 
L 1344 794 
L 1344 0 
L 684 0 
L 684 794 
z
" transform="scale(0.015625)"/>
       </defs>
       <use xlink:href="#DejaVuSans-30"/>
       <use xlink:href="#DejaVuSans-2e" x="63.623047"/>
       <use xlink:href="#DejaVuSans-30" x="95.410156"/>
      </g>
     </g>
    </g>
    <g id="ytick_2">
     <g id="line2d_2">
      <g>
       <use xlink:href="#mb5e64eda0f" x="152.6" y="398.72" style="stroke: #000000; stroke-width: 0.8"/>
      </g>
     </g>
     <g id="text_6">
      <!-- 0.1 -->
      <g transform="translate(123.335625 404.038906)scale(0.14 -0.14)">
       <use xlink:href="#DejaVuSans-30"/>
       <use xlink:href="#DejaVuSans-2e" x="63.623047"/>
       <use xlink:href="#DejaVuSans-31" x="95.410156"/>
      </g>
     </g>
    </g>
    <g id="ytick_3">
     <g id="line2d_3">
      <g>
       <use xlink:href="#mb5e64eda0f" x="152.6" y="356.44" style="stroke: #000000; stroke-width: 0.8"/>
      </g>
     </g>
     <g id="text_7">
      <!-- 0.2 -->
      <g transform="translate(123.335625 361.758906)scale(0.14 -0.14)">
       <defs>
        <path id="DejaVuSans-32" d="M 1228 531 
L 3431 531 
L 3431 0 
L 469 0 
L 469 531 
Q 828 903 1448 1529 
Q 2069 2156 2228 2338 
Q 2531 2678 2651 2914 
Q 2772 3150 2772 3378 
Q 2772 3750 2511 3984 
Q 2250 4219 1831 4219 
Q 1534 4219 1204 4116 
Q 875 4013 500 3803 
L 500 4441 
Q 881 4594 1212 4672 
Q 1544 4750 1819 4750 
Q 2544 4750 2975 4387 
Q 3406 4025 3406 3419 
Q 3406 3131 3298 2873 
Q 3191 2616 2906 2266 
Q 2828 2175 2409 1742 
Q 1991 1309 1228 531 
z
" transform="scale(0.015625)"/>
       </defs>
       <use xlink:href="#DejaVuSans-30"/>
       <use xlink:href="#DejaVuSans-2e" x="63.623047"/>
       <use xlink:href="#DejaVuSans-32" x="95.410156"/>
      </g>
     </g>
    </g>
    <g id="ytick_4">
     <g id="line2d_4">
      <g>
       <use xlink:href="#mb5e64eda0f" x="152.6" y="314.16" style="stroke: #000000; stroke-width: 0.8"/>
      </g>
     </g>
     <g id="text_8">
      <!-- 0.3 -->
      <g transform="translate(123.335625 319.478906)scale(0.14 -0.14)">
       <defs>
        <path id="DejaVuSans-33" d="M 2597 2516 
Q 3050 2419 3304 2112 
Q 3559 1806 3559 1356 
Q 3559 666 3084 287 
Q 2609 -91 1734 -91 
Q 1441 -91 1130 -33 
Q 819 25 488 141 
L 488 750 
Q 750 597 1062 519 
Q 1375 441 1716 441 
Q 2309 441 2620 675 
Q 2931 909 2931 1356 
Q 2931 1769 2642 2001 
Q 2353 2234 1838 2234 
L 1294 2234 
L 1294 2753 
L 1863 2753 
Q 2328 2753 2575 2939 
Q 2822 3125 2822 3475 
Q 2822 3834 2567 4026 
Q 2313 4219 1838 4219 
Q 1578 4219 1281 4162 
Q 984 4106 628 3988 
L 628 4550 
Q 988 4650 1302 4700 
Q 1616 4750 1894 4750 
Q 2613 4750 3031 4423 
Q 3450 4097 3450 3541 
Q 3450 3153 3228 2886 
Q 3006 2619 2597 2516 
z
" transform="scale(0.015625)"/>
       </defs>
       <use xlink:href="#DejaVuSans-30"/>
       <use xlink:href="#DejaVuSans-2e" x="63.623047"/>
       <use xlink:href="#DejaVuSans-33" x="95.410156"/>
      </g>
     </g>
    </g>
    <g id="ytick_5">
     <g id="line2d_5">
      <g>
       <use xlink:href="#mb5e64eda0f" x="152.6" y="271.88" style="stroke: #000000; stroke-width: 0.8"/>
      </g>
     </g>
     <g id="text_9">
      <!-- 0.4 -->
      <g transform="translate(123.335625 277.198906)scale(0.14 -0.14)">
       <defs>
        <path id="DejaVuSans-34" d="M 2419 4116 
L 825 1625 
L 2419 1625 
L 2419 4116 
z
M 2253 4666 
L 3047 4666 
L 3047 1625 
L 3713 1625 
L 3713 1100 
L 3047 1100 
L 3047 0 
L 2419 0 
L 2419 1100 
L 313 1100 
L 313 1709 
L 2253 4666 
z
" transform="scale(0.015625)"/>
       </defs>
       <use xlink:href="#DejaVuSans-30"/>
       <use xlink:href="#DejaVuSans-2e" x="63.623047"/>
       <use xlink:href="#DejaVuSans-34" x="95.410156"/>
      </g>
     </g>
    </g>
    <g id="ytick_6">
     <g id="line2d_6">
      <g>
       <use xlink:href="#mb5e64eda0f" x="152.6" y="229.6" style="stroke: #000000; stroke-width: 0.8"/>
      </g>
     </g>
     <g id="text_10">
      <!-- 0.5 -->
      <g transform="translate(123.335625 234.918906)scale(0.14 -0.14)">
       <defs>
        <path id="DejaVuSans-35" d="M 691 4666 
L 3169 4666 
L 3169 4134 
L 1269 4134 
L 1269 2991 
Q 1406 3038 1543 3061 
Q 1681 3084 1819 3084 
Q 2600 3084 3056 2656 
Q 3513 2228 3513 1497 
Q 3513 744 3044 326 
Q 2575 -91 1722 -91 
Q 1428 -91 1123 -41 
Q 819 9 494 109 
L 494 744 
Q 775 591 1075 516 
Q 1375 441 1709 441 
Q 2250 441 2565 725 
Q 2881 1009 2881 1497 
Q 2881 1984 2565 2268 
Q 2250 2553 1709 2553 
Q 1456 2553 1204 2497 
Q 953 2441 691 2322 
L 691 4666 
z
" transform="scale(0.015625)"/>
       </defs>
       <use xlink:href="#DejaVuSans-30"/>
       <use xlink:href="#DejaVuSans-2e" x="63.623047"/>
       <use xlink:href="#DejaVuSans-35" x="95.410156"/>
      </g>
     </g>
    </g>
    <g id="ytick_7">
     <g id="line2d_7">
      <g>
       <use xlink:href="#mb5e64eda0f" x="152.6" y="187.32" style="stroke: #000000; stroke-width: 0.8"/>
      </g>
     </g>
     <g id="text_11">
      <!-- 0.6 -->
      <g transform="translate(123.335625 192.638906)scale(0.14 -0.14)">
       <defs>
        <path id="DejaVuSans-36" d="M 2113 2584 
Q 1688 2584 1439 2293 
Q 1191 2003 1191 1497 
Q 1191 994 1439 701 
Q 1688 409 2113 409 
Q 2538 409 2786 701 
Q 3034 994 3034 1497 
Q 3034 2003 2786 2293 
Q 2538 2584 2113 2584 
z
M 3366 4563 
L 3366 3988 
Q 3128 4100 2886 4159 
Q 2644 4219 2406 4219 
Q 1781 4219 1451 3797 
Q 1122 3375 1075 2522 
Q 1259 2794 1537 2939 
Q 1816 3084 2150 3084 
Q 2853 3084 3261 2657 
Q 3669 2231 3669 1497 
Q 3669 778 3244 343 
Q 2819 -91 2113 -91 
Q 1303 -91 875 529 
Q 447 1150 447 2328 
Q 447 3434 972 4092 
Q 1497 4750 2381 4750 
Q 2619 4750 2861 4703 
Q 3103 4656 3366 4563 
z
" transform="scale(0.015625)"/>
       </defs>
       <use xlink:href="#DejaVuSans-30"/>
       <use xlink:href="#DejaVuSans-2e" x="63.623047"/>
       <use xlink:href="#DejaVuSans-36" x="95.410156"/>
      </g>
     </g>
    </g>
    <g id="ytick_8">
     <g id="line2d_8">
      <g>
       <use xlink:href="#mb5e64eda0f" x="152.6" y="145.04" style="stroke: #000000; stroke-width: 0.8"/>
      </g>
     </g>
     <g id="text_12">
      <!-- 0.7 -->
      <g transform="translate(123.335625 150.358906)scale(0.14 -0.14)">
       <defs>
        <path id="DejaVuSans-37" d="M 525 4666 
L 3525 4666 
L 3525 4397 
L 1831 0 
L 1172 0 
L 2766 4134 
L 525 4134 
L 525 4666 
z
" transform="scale(0.015625)"/>
       </defs>
       <use xlink:href="#DejaVuSans-30"/>
       <use xlink:href="#DejaVuSans-2e" x="63.623047"/>
       <use xlink:href="#DejaVuSans-37" x="95.410156"/>
      </g>
     </g>
    </g>
    <g id="ytick_9">
     <g id="line2d_9">
      <g>
       <use xlink:href="#mb5e64eda0f" x="152.6" y="102.76" style="stroke: #000000; stroke-width: 0.8"/>
      </g>
     </g>
     <g id="text_13">
      <!-- 0.8 -->
      <g transform="translate(123.335625 108.078906)scale(0.14 -0.14)">
       <defs>
        <path id="DejaVuSans-38" d="M 2034 2216 
Q 1584 2216 1326 1975 
Q 1069 1734 1069 1313 
Q 1069 891 1326 650 
Q 1584 409 2034 409 
Q 2484 409 2743 651 
Q 3003 894 3003 1313 
Q 3003 1734 2745 1975 
Q 2488 2216 2034 2216 
z
M 1403 2484 
Q 997 2584 770 2862 
Q 544 3141 544 3541 
Q 544 4100 942 4425 
Q 1341 4750 2034 4750 
Q 2731 4750 3128 4425 
Q 3525 4100 3525 3541 
Q 3525 3141 3298 2862 
Q 3072 2584 2669 2484 
Q 3125 2378 3379 2068 
Q 3634 1759 3634 1313 
Q 3634 634 3220 271 
Q 2806 -91 2034 -91 
Q 1263 -91 848 271 
Q 434 634 434 1313 
Q 434 1759 690 2068 
Q 947 2378 1403 2484 
z
M 1172 3481 
Q 1172 3119 1398 2916 
Q 1625 2713 2034 2713 
Q 2441 2713 2670 2916 
Q 2900 3119 2900 3481 
Q 2900 3844 2670 4047 
Q 2441 4250 2034 4250 
Q 1625 4250 1398 4047 
Q 1172 3844 1172 3481 
z
" transform="scale(0.015625)"/>
       </defs>
       <use xlink:href="#DejaVuSans-30"/>
       <use xlink:href="#DejaVuSans-2e" x="63.623047"/>
       <use xlink:href="#DejaVuSans-38" x="95.410156"/>
      </g>
     </g>
    </g>
    <g id="ytick_10">
     <g id="line2d_10">
      <g>
       <use xlink:href="#mb5e64eda0f" x="152.6" y="60.48" style="stroke: #000000; stroke-width: 0.8"/>
      </g>
     </g>
     <g id="text_14">
      <!-- 0.9 -->
      <g transform="translate(123.335625 65.798906)scale(0.14 -0.14)">
       <defs>
        <path id="DejaVuSans-39" d="M 703 97 
L 703 672 
Q 941 559 1184 500 
Q 1428 441 1663 441 
Q 2288 441 2617 861 
Q 2947 1281 2994 2138 
Q 2813 1869 2534 1725 
Q 2256 1581 1919 1581 
Q 1219 1581 811 2004 
Q 403 2428 403 3163 
Q 403 3881 828 4315 
Q 1253 4750 1959 4750 
Q 2769 4750 3195 4129 
Q 3622 3509 3622 2328 
Q 3622 1225 3098 567 
Q 2575 -91 1691 -91 
Q 1453 -91 1209 -44 
Q 966 3 703 97 
z
M 1959 2075 
Q 2384 2075 2632 2365 
Q 2881 2656 2881 3163 
Q 2881 3666 2632 3958 
Q 2384 4250 1959 4250 
Q 1534 4250 1286 3958 
Q 1038 3666 1038 3163 
Q 1038 2656 1286 2365 
Q 1534 2075 1959 2075 
z
" transform="scale(0.015625)"/>
       </defs>
       <use xlink:href="#DejaVuSans-30"/>
       <use xlink:href="#DejaVuSans-2e" x="63.623047"/>
       <use xlink:href="#DejaVuSans-39" x="95.410156"/>
      </g>
     </g>
    </g>
    <g id="text_15">
     <!-- Synapse density (synapses/µm) -->
     <g transform="translate(116.008125 378.14375)rotate(-90)scale(0.16 -0.16)">
      <defs>
       <path id="DejaVuSans-53" d="M 3425 4513 
L 3425 3897 
Q 3066 4069 2747 4153 
Q 2428 4238 2131 4238 
Q 1616 4238 1336 4038 
Q 1056 3838 1056 3469 
Q 1056 3159 1242 3001 
Q 1428 2844 1947 2747 
L 2328 2669 
Q 3034 2534 3370 2195 
Q 3706 1856 3706 1288 
Q 3706 609 3251 259 
Q 2797 -91 1919 -91 
Q 1588 -91 1214 -16 
Q 841 59 441 206 
L 441 856 
Q 825 641 1194 531 
Q 1563 422 1919 422 
Q 2459 422 2753 634 
Q 3047 847 3047 1241 
Q 3047 1584 2836 1778 
Q 2625 1972 2144 2069 
L 1759 2144 
Q 1053 2284 737 2584 
Q 422 2884 422 3419 
Q 422 4038 858 4394 
Q 1294 4750 2059 4750 
Q 2388 4750 2728 4690 
Q 3069 4631 3425 4513 
z
" transform="scale(0.015625)"/>
       <path id="DejaVuSans-79" d="M 2059 -325 
Q 1816 -950 1584 -1140 
Q 1353 -1331 966 -1331 
L 506 -1331 
L 506 -850 
L 844 -850 
Q 1081 -850 1212 -737 
Q 1344 -625 1503 -206 
L 1606 56 
L 191 3500 
L 800 3500 
L 1894 763 
L 2988 3500 
L 3597 3500 
L 2059 -325 
z
" transform="scale(0.015625)"/>
       <path id="DejaVuSans-6e" d="M 3513 2113 
L 3513 0 
L 2938 0 
L 2938 2094 
Q 2938 2591 2744 2837 
Q 2550 3084 2163 3084 
Q 1697 3084 1428 2787 
Q 1159 2491 1159 1978 
L 1159 0 
L 581 0 
L 581 3500 
L 1159 3500 
L 1159 2956 
Q 1366 3272 1645 3428 
Q 1925 3584 2291 3584 
Q 2894 3584 3203 3211 
Q 3513 2838 3513 2113 
z
" transform="scale(0.015625)"/>
       <path id="DejaVuSans-61" d="M 2194 1759 
Q 1497 1759 1228 1600 
Q 959 1441 959 1056 
Q 959 750 1161 570 
Q 1363 391 1709 391 
Q 2188 391 2477 730 
Q 2766 1069 2766 1631 
L 2766 1759 
L 2194 1759 
z
M 3341 1997 
L 3341 0 
L 2766 0 
L 2766 531 
Q 2569 213 2275 61 
Q 1981 -91 1556 -91 
Q 1019 -91 701 211 
Q 384 513 384 1019 
Q 384 1609 779 1909 
Q 1175 2209 1959 2209 
L 2766 2209 
L 2766 2266 
Q 2766 2663 2505 2880 
Q 2244 3097 1772 3097 
Q 1472 3097 1187 3025 
Q 903 2953 641 2809 
L 641 3341 
Q 956 3463 1253 3523 
Q 1550 3584 1831 3584 
Q 2591 3584 2966 3190 
Q 3341 2797 3341 1997 
z
" transform="scale(0.015625)"/>
       <path id="DejaVuSans-70" d="M 1159 525 
L 1159 -1331 
L 581 -1331 
L 581 3500 
L 1159 3500 
L 1159 2969 
Q 1341 3281 1617 3432 
Q 1894 3584 2278 3584 
Q 2916 3584 3314 3078 
Q 3713 2572 3713 1747 
Q 3713 922 3314 415 
Q 2916 -91 2278 -91 
Q 1894 -91 1617 61 
Q 1341 213 1159 525 
z
M 3116 1747 
Q 3116 2381 2855 2742 
Q 2594 3103 2138 3103 
Q 1681 3103 1420 2742 
Q 1159 2381 1159 1747 
Q 1159 1113 1420 752 
Q 1681 391 2138 391 
Q 2594 391 2855 752 
Q 3116 1113 3116 1747 
z
" transform="scale(0.015625)"/>
       <path id="DejaVuSans-64" d="M 2906 2969 
L 2906 4863 
L 3481 4863 
L 3481 0 
L 2906 0 
L 2906 525 
Q 2725 213 2448 61 
Q 2172 -91 1784 -91 
Q 1150 -91 751 415 
Q 353 922 353 1747 
Q 353 2572 751 3078 
Q 1150 3584 1784 3584 
Q 2172 3584 2448 3432 
Q 2725 3281 2906 2969 
z
M 947 1747 
Q 947 1113 1208 752 
Q 1469 391 1925 391 
Q 2381 391 2643 752 
Q 2906 1113 2906 1747 
Q 2906 2381 2643 2742 
Q 2381 3103 1925 3103 
Q 1469 3103 1208 2742 
Q 947 2381 947 1747 
z
" transform="scale(0.015625)"/>
       <path id="DejaVuSans-69" d="M 603 3500 
L 1178 3500 
L 1178 0 
L 603 0 
L 603 3500 
z
M 603 4863 
L 1178 4863 
L 1178 4134 
L 603 4134 
L 603 4863 
z
" transform="scale(0.015625)"/>
       <path id="DejaVuSans-74" d="M 1172 4494 
L 1172 3500 
L 2356 3500 
L 2356 3053 
L 1172 3053 
L 1172 1153 
Q 1172 725 1289 603 
Q 1406 481 1766 481 
L 2356 481 
L 2356 0 
L 1766 0 
Q 1100 0 847 248 
Q 594 497 594 1153 
L 594 3053 
L 172 3053 
L 172 3500 
L 594 3500 
L 594 4494 
L 1172 4494 
z
" transform="scale(0.015625)"/>
       <path id="DejaVuSans-28" d="M 1984 4856 
Q 1566 4138 1362 3434 
Q 1159 2731 1159 2009 
Q 1159 1288 1364 580 
Q 1569 -128 1984 -844 
L 1484 -844 
Q 1016 -109 783 600 
Q 550 1309 550 2009 
Q 550 2706 781 3412 
Q 1013 4119 1484 4856 
L 1984 4856 
z
" transform="scale(0.015625)"/>
       <path id="DejaVuSans-2f" d="M 1625 4666 
L 2156 4666 
L 531 -594 
L 0 -594 
L 1625 4666 
z
" transform="scale(0.015625)"/>
       <path id="DejaVuSans-b5" d="M 544 -1331 
L 544 3500 
L 1119 3500 
L 1119 1325 
Q 1119 872 1334 640 
Q 1550 409 1972 409 
Q 2434 409 2667 671 
Q 2900 934 2900 1459 
L 2900 3500 
L 3475 3500 
L 3475 806 
Q 3475 619 3529 530 
Q 3584 441 3700 441 
Q 3728 441 3778 458 
Q 3828 475 3916 513 
L 3916 50 
Q 3788 -22 3673 -56 
Q 3559 -91 3450 -91 
Q 3234 -91 3106 31 
Q 2978 153 2931 403 
Q 2775 156 2548 32 
Q 2322 -91 2016 -91 
Q 1697 -91 1473 31 
Q 1250 153 1119 397 
L 1119 -1331 
L 544 -1331 
z
" transform="scale(0.015625)"/>
       <path id="DejaVuSans-29" d="M 513 4856 
L 1013 4856 
Q 1481 4119 1714 3412 
Q 1947 2706 1947 2009 
Q 1947 1309 1714 600 
Q 1481 -109 1013 -844 
L 513 -844 
Q 928 -128 1133 580 
Q 1338 1288 1338 2009 
Q 1338 2731 1133 3434 
Q 928 4138 513 4856 
z
" transform="scale(0.015625)"/>
      </defs>
      <use xlink:href="#DejaVuSans-53"/>
      <use xlink:href="#DejaVuSans-79" x="63.476562"/>
      <use xlink:href="#DejaVuSans-6e" x="122.65625"/>
      <use xlink:href="#DejaVuSans-61" x="186.035156"/>
      <use xlink:href="#DejaVuSans-70" x="247.314453"/>
      <use xlink:href="#DejaVuSans-73" x="310.791016"/>
      <use xlink:href="#DejaVuSans-65" x="362.890625"/>
      <use xlink:href="#DejaVuSans-20" x="424.414062"/>
      <use xlink:href="#DejaVuSans-64" x="456.201172"/>
      <use xlink:href="#DejaVuSans-65" x="519.677734"/>
      <use xlink:href="#DejaVuSans-6e" x="581.201172"/>
      <use xlink:href="#DejaVuSans-73" x="644.580078"/>
      <use xlink:href="#DejaVuSans-69" x="696.679688"/>
      <use xlink:href="#DejaVuSans-74" x="724.462891"/>
      <use xlink:href="#DejaVuSans-79" x="763.671875"/>
      <use xlink:href="#DejaVuSans-20" x="822.851562"/>
      <use xlink:href="#DejaVuSans-28" x="854.638672"/>
      <use xlink:href="#DejaVuSans-73" x="893.652344"/>
      <use xlink:href="#DejaVuSans-79" x="945.751953"/>
      <use xlink:href="#DejaVuSans-6e" x="1004.931641"/>
      <use xlink:href="#DejaVuSans-61" x="1068.310547"/>
      <use xlink:href="#DejaVuSans-70" x="1129.589844"/>
      <use xlink:href="#DejaVuSans-73" x="1193.066406"/>
      <use xlink:href="#DejaVuSans-65" x="1245.166016"/>
      <use xlink:href="#DejaVuSans-73" x="1306.689453"/>
      <use xlink:href="#DejaVuSans-2f" x="1358.789062"/>
      <use xlink:href="#DejaVuSans-b5" x="1392.480469"/>
      <use xlink:href="#DejaVuSans-6d" x="1456.103516"/>
      <use xlink:href="#DejaVuSans-29" x="1553.515625"/>
     </g>
    </g>
   </g>
   <g id="line2d_11">
    <path d="M 160.078051 338.355441 
L 215.588616 338.355441 
" clip-path="url(#p454184c3b0)" style="fill: none; stroke: #000000; stroke-width: 1.5; stroke-linecap: square"/>
   </g>
   <g id="line2d_12">
    <path d="M 238.176755 296.698908 
L 278.423245 296.698908 
" clip-path="url(#p454184c3b0)" style="fill: none; stroke: #000000; stroke-width: 1.5; stroke-linecap: square"/>
   </g>
   <g id="line2d_13">
    <path d="M 305.447283 171.127494 
L 352.086051 171.127494 
" clip-path="url(#p454184c3b0)" style="fill: none; stroke: #000000; stroke-width: 1.5; stroke-linecap: square"/>
   </g>
   <g id="patch_3">
    <path d="M 152.6 441 
L 152.6 60.48 
" style="fill: none; stroke: #000000; stroke-width: 0.8; stroke-linejoin: miter; stroke-linecap: square"/>
   </g>
   <g id="PathCollection_1">
    <defs>
     <path id="C0_0_f49b9301d6" d="M 0 2.5 
C 0.663008 2.5 1.29895 2.236584 1.767767 1.767767 
C 2.236584 1.29895 2.5 0.663008 2.5 -0 
C 2.5 -0.663008 2.236584 -1.29895 1.767767 -1.767767 
C 1.29895 -2.236584 0.663008 -2.5 0 -2.5 
C -0.663008 -2.5 -1.29895 -2.236584 -1.767767 -1.767767 
C -2.236584 -1.29895 -2.5 -0.663008 -2.5 0 
C -2.5 0.663008 -2.236584 1.29895 -1.767767 1.767767 
C -1.29895 2.236584 -0.663008 2.5 0 2.5 
z
"/>
    </defs>
    <g clip-path="url(#p454184c3b0)">
     <use xlink:href="#C0_0_f49b9301d6" x="183.064653" y="314.405342" style="fill: #4b0082"/>
    </g>
    <g clip-path="url(#p454184c3b0)">
     <use xlink:href="#C0_0_f49b9301d6" x="180.896903" y="311.138491" style="fill: #4b0082"/>
    </g>
    <g clip-path="url(#p454184c3b0)">
     <use xlink:href="#C0_0_f49b9301d6" x="189.900476" y="202.161455" style="fill: #4b0082"/>
    </g>
    <g clip-path="url(#p454184c3b0)">
     <use xlink:href="#C0_0_f49b9301d6" x="184.742306" y="381.031842" style="fill: #4b0082"/>
    </g>
    <g clip-path="url(#p454184c3b0)">
     <use xlink:href="#C0_0_f49b9301d6" x="182.098086" y="294.500745" style="fill: #4b0082"/>
    </g>
    <g clip-path="url(#p454184c3b0)">
     <use xlink:href="#C0_0_f49b9301d6" x="190.826008" y="328.689821" style="fill: #4b0082"/>
    </g>
    <g clip-path="url(#p454184c3b0)">
     <use xlink:href="#C0_0_f49b9301d6" x="181.765004" y="270.811909" style="fill: #4b0082"/>
    </g>
    <g clip-path="url(#p454184c3b0)">
     <use xlink:href="#C0_0_f49b9301d6" x="182.194913" y="222.27087" style="fill: #4b0082"/>
    </g>
    <g clip-path="url(#p454184c3b0)">
     <use xlink:href="#C0_0_f49b9301d6" x="182.132183" y="322.333686" style="fill: #4b0082"/>
    </g>
    <g clip-path="url(#p454184c3b0)">
     <use xlink:href="#C0_0_f49b9301d6" x="189.810051" y="323.521576" style="fill: #4b0082"/>
    </g>
    <g clip-path="url(#p454184c3b0)">
     <use xlink:href="#C0_0_f49b9301d6" x="184.392743" y="396.018796" style="fill: #4b0082"/>
    </g>
    <g clip-path="url(#p454184c3b0)">
     <use xlink:href="#C0_0_f49b9301d6" x="182.929636" y="422.096423" style="fill: #4b0082"/>
    </g>
    <g clip-path="url(#p454184c3b0)">
     <use xlink:href="#C0_0_f49b9301d6" x="190.041701" y="425.146535" style="fill: #4b0082"/>
    </g>
    <g clip-path="url(#p454184c3b0)">
     <use xlink:href="#C0_0_f49b9301d6" x="189.736919" y="413.445334" style="fill: #4b0082"/>
    </g>
    <g clip-path="url(#p454184c3b0)">
     <use xlink:href="#C0_0_f49b9301d6" x="185.730655" y="356.655833" style="fill: #4b0082"/>
    </g>
    <g clip-path="url(#p454184c3b0)">
     <use xlink:href="#C0_0_f49b9301d6" x="194.536299" y="371.882898" style="fill: #4b0082"/>
    </g>
    <g clip-path="url(#p454184c3b0)">
     <use xlink:href="#C0_0_f49b9301d6" x="185.128391" y="386.861938" style="fill: #4b0082"/>
    </g>
    <g clip-path="url(#p454184c3b0)">
     <use xlink:href="#C0_0_f49b9301d6" x="192.535101" y="300.762032" style="fill: #4b0082"/>
    </g>
    <g clip-path="url(#p454184c3b0)">
     <use xlink:href="#C0_0_f49b9301d6" x="183.566491" y="345.611552" style="fill: #4b0082"/>
    </g>
    <g clip-path="url(#p454184c3b0)">
     <use xlink:href="#C0_0_f49b9301d6" x="192.068244" y="313.008355" style="fill: #4b0082"/>
    </g>
    <g clip-path="url(#p454184c3b0)">
     <use xlink:href="#C0_0_f49b9301d6" x="194.083671" y="321.244276" style="fill: #4b0082"/>
    </g>
    <g clip-path="url(#p454184c3b0)">
     <use xlink:href="#C0_0_f49b9301d6" x="183.573625" y="202.161455" style="fill: #4b0082"/>
    </g>
    <g clip-path="url(#p454184c3b0)">
     <use xlink:href="#C0_0_f49b9301d6" x="187.832768" y="313.54652" style="fill: #4b0082"/>
    </g>
    <g clip-path="url(#p454184c3b0)">
     <use xlink:href="#C0_0_f49b9301d6" x="186.222497" y="331.041326" style="fill: #4b0082"/>
    </g>
    <g clip-path="url(#p454184c3b0)">
     <use xlink:href="#C0_0_f49b9301d6" x="190.603361" y="324.399803" style="fill: #4b0082"/>
    </g>
    <g clip-path="url(#p454184c3b0)">
     <use xlink:href="#C0_0_f49b9301d6" x="188.851192" y="378.055915" style="fill: #4b0082"/>
    </g>
    <g clip-path="url(#p454184c3b0)">
     <use xlink:href="#C0_0_f49b9301d6" x="181.623549" y="348.880289" style="fill: #4b0082"/>
    </g>
    <g clip-path="url(#p454184c3b0)">
     <use xlink:href="#C0_0_f49b9301d6" x="191.982135" y="367.903243" style="fill: #4b0082"/>
    </g>
    <g clip-path="url(#p454184c3b0)">
     <use xlink:href="#C0_0_f49b9301d6" x="181.619752" y="357.175844" style="fill: #4b0082"/>
    </g>
    <g clip-path="url(#p454184c3b0)">
     <use xlink:href="#C0_0_f49b9301d6" x="181.734872" y="379.660772" style="fill: #4b0082"/>
    </g>
    <g clip-path="url(#p454184c3b0)">
     <use xlink:href="#C0_0_f49b9301d6" x="184.618093" y="370.967881" style="fill: #4b0082"/>
    </g>
    <g clip-path="url(#p454184c3b0)">
     <use xlink:href="#C0_0_f49b9301d6" x="190.21109" y="357.04621" style="fill: #4b0082"/>
    </g>
    <g clip-path="url(#p454184c3b0)">
     <use xlink:href="#C0_0_f49b9301d6" x="181.016287" y="349.199154" style="fill: #4b0082"/>
    </g>
    <g clip-path="url(#p454184c3b0)">
     <use xlink:href="#C0_0_f49b9301d6" x="185.509737" y="400.446878" style="fill: #4b0082"/>
    </g>
   </g>
   <g id="PathCollection_2">
    <defs>
     <path id="C1_0_ea09d1f0d8" d="M 0 2.5 
C 0.663008 2.5 1.29895 2.236584 1.767767 1.767767 
C 2.236584 1.29895 2.5 0.663008 2.5 -0 
C 2.5 -0.663008 2.236584 -1.29895 1.767767 -1.767767 
C 1.29895 -2.236584 0.663008 -2.5 0 -2.5 
C -0.663008 -2.5 -1.29895 -2.236584 -1.767767 -1.767767 
C -2.236584 -1.29895 -2.5 -0.663008 -2.5 0 
C -2.5 0.663008 -2.236584 1.29895 -1.767767 1.767767 
C -1.29895 2.236584 -0.663008 2.5 0 2.5 
z
"/>
    </defs>
    <g clip-path="url(#p454184c3b0)">
     <use xlink:href="#C1_0_ea09d1f0d8" x="263.750564" y="306.864586" style="fill: #ff8c00"/>
    </g>
    <g clip-path="url(#p454184c3b0)">
     <use xlink:href="#C1_0_ea09d1f0d8" x="255.940734" y="200.384725" style="fill: #ff8c00"/>
    </g>
    <g clip-path="url(#p454184c3b0)">
     <use xlink:href="#C1_0_ea09d1f0d8" x="263.665152" y="298.80752" style="fill: #ff8c00"/>
    </g>
    <g clip-path="url(#p454184c3b0)">
     <use xlink:href="#C1_0_ea09d1f0d8" x="262.413461" y="314.630208" style="fill: #ff8c00"/>
    </g>
    <g clip-path="url(#p454184c3b0)">
     <use xlink:href="#C1_0_ea09d1f0d8" x="251.320446" y="219.343575" style="fill: #ff8c00"/>
    </g>
    <g clip-path="url(#p454184c3b0)">
     <use xlink:href="#C1_0_ea09d1f0d8" x="253.439899" y="219.343575" style="fill: #ff8c00"/>
    </g>
    <g clip-path="url(#p454184c3b0)">
     <use xlink:href="#C1_0_ea09d1f0d8" x="265.121078" y="278.885978" style="fill: #ff8c00"/>
    </g>
    <g clip-path="url(#p454184c3b0)">
     <use xlink:href="#C1_0_ea09d1f0d8" x="258.958365" y="295.178669" style="fill: #ff8c00"/>
    </g>
    <g clip-path="url(#p454184c3b0)">
     <use xlink:href="#C1_0_ea09d1f0d8" x="262.520325" y="353.755922" style="fill: #ff8c00"/>
    </g>
    <g clip-path="url(#p454184c3b0)">
     <use xlink:href="#C1_0_ea09d1f0d8" x="254.997107" y="212.846928" style="fill: #ff8c00"/>
    </g>
    <g clip-path="url(#p454184c3b0)">
     <use xlink:href="#C1_0_ea09d1f0d8" x="254.952204" y="367.55714" style="fill: #ff8c00"/>
    </g>
    <g clip-path="url(#p454184c3b0)">
     <use xlink:href="#C1_0_ea09d1f0d8" x="256.798069" y="347.996942" style="fill: #ff8c00"/>
    </g>
    <g clip-path="url(#p454184c3b0)">
     <use xlink:href="#C1_0_ea09d1f0d8" x="261.433514" y="349.924813" style="fill: #ff8c00"/>
    </g>
    <g clip-path="url(#p454184c3b0)">
     <use xlink:href="#C1_0_ea09d1f0d8" x="257.212264" y="314.749442" style="fill: #ff8c00"/>
    </g>
    <g clip-path="url(#p454184c3b0)">
     <use xlink:href="#C1_0_ea09d1f0d8" x="258.87296" y="329.219403" style="fill: #ff8c00"/>
    </g>
    <g clip-path="url(#p454184c3b0)">
     <use xlink:href="#C1_0_ea09d1f0d8" x="252.211711" y="376.797706" style="fill: #ff8c00"/>
    </g>
    <g clip-path="url(#p454184c3b0)">
     <use xlink:href="#C1_0_ea09d1f0d8" x="253.723179" y="223.956455" style="fill: #ff8c00"/>
    </g>
    <g clip-path="url(#p454184c3b0)">
     <use xlink:href="#C1_0_ea09d1f0d8" x="264.038778" y="364.133242" style="fill: #ff8c00"/>
    </g>
    <g clip-path="url(#p454184c3b0)">
     <use xlink:href="#C1_0_ea09d1f0d8" x="254.968119" y="369.473087" style="fill: #ff8c00"/>
    </g>
    <g clip-path="url(#p454184c3b0)">
     <use xlink:href="#C1_0_ea09d1f0d8" x="253.382583" y="320.607498" style="fill: #ff8c00"/>
    </g>
    <g clip-path="url(#p454184c3b0)">
     <use xlink:href="#C1_0_ea09d1f0d8" x="253.820412" y="299.088063" style="fill: #ff8c00"/>
    </g>
    <g clip-path="url(#p454184c3b0)">
     <use xlink:href="#C1_0_ea09d1f0d8" x="251.653576" y="350.859777" style="fill: #ff8c00"/>
    </g>
    <g clip-path="url(#p454184c3b0)">
     <use xlink:href="#C1_0_ea09d1f0d8" x="264.802247" y="331.502481" style="fill: #ff8c00"/>
    </g>
    <g clip-path="url(#p454184c3b0)">
     <use xlink:href="#C1_0_ea09d1f0d8" x="256.418826" y="371.485166" style="fill: #ff8c00"/>
    </g>
    <g clip-path="url(#p454184c3b0)">
     <use xlink:href="#C1_0_ea09d1f0d8" x="259.554136" y="264.808321" style="fill: #ff8c00"/>
    </g>
    <g clip-path="url(#p454184c3b0)">
     <use xlink:href="#C1_0_ea09d1f0d8" x="257.112123" y="235.776859" style="fill: #ff8c00"/>
    </g>
    <g clip-path="url(#p454184c3b0)">
     <use xlink:href="#C1_0_ea09d1f0d8" x="258.052241" y="299.002864" style="fill: #ff8c00"/>
    </g>
    <g clip-path="url(#p454184c3b0)">
     <use xlink:href="#C1_0_ea09d1f0d8" x="254.326524" y="200.384725" style="fill: #ff8c00"/>
    </g>
    <g clip-path="url(#p454184c3b0)">
     <use xlink:href="#C1_0_ea09d1f0d8" x="258.206423" y="328.88936" style="fill: #ff8c00"/>
    </g>
    <g clip-path="url(#p454184c3b0)">
     <use xlink:href="#C1_0_ea09d1f0d8" x="265.2202" y="349.107992" style="fill: #ff8c00"/>
    </g>
    <g clip-path="url(#p454184c3b0)">
     <use xlink:href="#C1_0_ea09d1f0d8" x="259.38756" y="264.808321" style="fill: #ff8c00"/>
    </g>
    <g clip-path="url(#p454184c3b0)">
     <use xlink:href="#C1_0_ea09d1f0d8" x="252.415414" y="235.776859" style="fill: #ff8c00"/>
    </g>
    <g clip-path="url(#p454184c3b0)">
     <use xlink:href="#C1_0_ea09d1f0d8" x="259.491916" y="212.846928" style="fill: #ff8c00"/>
    </g>
    <g clip-path="url(#p454184c3b0)">
     <use xlink:href="#C1_0_ea09d1f0d8" x="256.420007" y="319.519754" style="fill: #ff8c00"/>
    </g>
    <g clip-path="url(#p454184c3b0)">
     <use xlink:href="#C1_0_ea09d1f0d8" x="254.316918" y="328.88936" style="fill: #ff8c00"/>
    </g>
    <g clip-path="url(#p454184c3b0)">
     <use xlink:href="#C1_0_ea09d1f0d8" x="265.218007" y="223.956455" style="fill: #ff8c00"/>
    </g>
   </g>
   <g id="PathCollection_3">
    <defs>
     <path id="C2_0_1be766d173" d="M 0 2.5 
C 0.663008 2.5 1.29895 2.236584 1.767767 1.767767 
C 2.236584 1.29895 2.5 0.663008 2.5 -0 
C 2.5 -0.663008 2.236584 -1.29895 1.767767 -1.767767 
C 1.29895 -2.236584 0.663008 -2.5 0 -2.5 
C -0.663008 -2.5 -1.29895 -2.236584 -1.767767 -1.767767 
C -2.236584 -1.29895 -2.5 -0.663008 -2.5 0 
C -2.5 0.663008 -2.236584 1.29895 -1.767767 1.767767 
C -1.29895 2.236584 -0.663008 2.5 0 2.5 
z
"/>
    </defs>
    <g clip-path="url(#p454184c3b0)">
     <use xlink:href="#C2_0_1be766d173" x="335.665562" y="131.598077" style="fill: #ee82ee"/>
    </g>
    <g clip-path="url(#p454184c3b0)">
     <use xlink:href="#C2_0_1be766d173" x="333.900415" y="142.698561" style="fill: #ee82ee"/>
    </g>
    <g clip-path="url(#p454184c3b0)">
     <use xlink:href="#C2_0_1be766d173" x="323.428363" y="219.742777" style="fill: #ee82ee"/>
    </g>
    <g clip-path="url(#p454184c3b0)">
     <use xlink:href="#C2_0_1be766d173" x="327.915393" y="156.500129" style="fill: #ee82ee"/>
    </g>
    <g clip-path="url(#p454184c3b0)">
     <use xlink:href="#C2_0_1be766d173" x="322.714855" y="151.130026" style="fill: #ee82ee"/>
    </g>
    <g clip-path="url(#p454184c3b0)">
     <use xlink:href="#C2_0_1be766d173" x="332.784902" y="81.169351" style="fill: #ee82ee"/>
    </g>
    <g clip-path="url(#p454184c3b0)">
     <use xlink:href="#C2_0_1be766d173" x="331.843733" y="142.262452" style="fill: #ee82ee"/>
    </g>
    <g clip-path="url(#p454184c3b0)">
     <use xlink:href="#C2_0_1be766d173" x="326.08387" y="199.228303" style="fill: #ee82ee"/>
    </g>
    <g clip-path="url(#p454184c3b0)">
     <use xlink:href="#C2_0_1be766d173" x="329.024328" y="221.217352" style="fill: #ee82ee"/>
    </g>
    <g clip-path="url(#p454184c3b0)">
     <use xlink:href="#C2_0_1be766d173" x="322.060333" y="265.727916" style="fill: #ee82ee"/>
    </g>
   </g>
  </g>
 </g>
 <defs>
  <clipPath id="p454184c3b0">
   <rect x="152.6" y="60.48" width="211.4" height="380.52"/>
  </clipPath>
 </defs>
</svg>
