<?xml version="1.0" encoding="utf-8" standalone="no"?>
<!DOCTYPE svg PUBLIC "-//W3C//DTD SVG 1.1//EN"
  "http://www.w3.org/Graphics/SVG/1.1/DTD/svg11.dtd">
<svg xmlns:xlink="http://www.w3.org/1999/xlink" width="432pt" height="288pt" viewBox="0 0 432 288" xmlns="http://www.w3.org/2000/svg" version="1.1">
 <metadata>
  <rdf:RDF xmlns:dc="http://purl.org/dc/elements/1.1/" xmlns:cc="http://creativecommons.org/ns#" xmlns:rdf="http://www.w3.org/1999/02/22-rdf-syntax-ns#">
   <cc:Work>
    <dc:type rdf:resource="http://purl.org/dc/dcmitype/StillImage"/>
    <dc:date>2024-01-28T09:23:24.599300</dc:date>
    <dc:format>image/svg+xml</dc:format>
    <dc:creator>
     <cc:Agent>
      <dc:title>Matplotlib v3.5.1, https://matplotlib.org/</dc:title>
     </cc:Agent>
    </dc:creator>
   </cc:Work>
  </rdf:RDF>
 </metadata>
 <defs>
  <style type="text/css">*{stroke-linejoin: round; stroke-linecap: butt}</style>
 </defs>
 <g id="figure_1">
  <g id="patch_1">
   <path d="M 0 288 
L 432 288 
L 432 0 
L 0 0 
L 0 288 
z
" style="fill: none"/>
  </g>
  <g id="axes_1">
   <g id="patch_2">
    <path d="M 162.098182 252 
L 280.701818 252 
L 280.701818 34.56 
L 162.098182 34.56 
z
" style="fill: #ffffff"/>
   </g>
   <g id="PolyCollection_1">
    <defs>
     <path id="m02e8ff69cd" d="M 183.625045 -115.069091 
L 180.105865 -115.069091 
L 180.043071 -116.127339 
L 179.98039 -117.185587 
L 179.917876 -118.243835 
L 179.855572 -119.302083 
L 179.793511 -120.360331 
L 179.731715 -121.418579 
L 179.670194 -122.476826 
L 179.608947 -123.535074 
L 179.54796 -124.593322 
L 179.487208 -125.65157 
L 179.426654 -126.709818 
L 179.366249 -127.768066 
L 179.305931 -128.826314 
L 179.245628 -129.884562 
L 179.185259 -130.94281 
L 179.124731 -132.001058 
L 179.063944 -133.059306 
L 179.002791 -134.117554 
L 178.941158 -135.175802 
L 178.878931 -136.23405 
L 178.815992 -137.292298 
L 178.752225 -138.350545 
L 178.687519 -139.408793 
L 178.621768 -140.467041 
L 178.554879 -141.525289 
L 178.486771 -142.583537 
L 178.41738 -143.641785 
L 178.346662 -144.700033 
L 178.274596 -145.758281 
L 178.20119 -146.816529 
L 178.12648 -147.874777 
L 178.050535 -148.933025 
L 177.973458 -149.991273 
L 177.89539 -151.049521 
L 177.816509 -152.107769 
L 177.73703 -153.166017 
L 177.65721 -154.224264 
L 177.57734 -155.282512 
L 177.497749 -156.34076 
L 177.418801 -157.399008 
L 177.340889 -158.457256 
L 177.264436 -159.515504 
L 177.189886 -160.573752 
L 177.117702 -161.632 
L 177.048361 -162.690248 
L 176.982345 -163.748496 
L 176.920139 -164.806744 
L 176.862221 -165.864992 
L 176.809057 -166.92324 
L 176.761093 -167.981488 
L 176.718753 -169.039736 
L 176.682427 -170.097983 
L 176.652471 -171.156231 
L 176.629196 -172.214479 
L 176.612868 -173.272727 
L 176.603705 -174.330975 
L 176.601867 -175.389223 
L 176.607463 -176.447471 
L 176.620543 -177.505719 
L 176.641099 -178.563967 
L 176.669066 -179.622215 
L 176.704326 -180.680463 
L 176.746703 -181.738711 
L 176.795973 -182.796959 
L 176.851864 -183.855207 
L 176.91406 -184.913455 
L 176.982207 -185.971702 
L 177.055918 -187.02995 
L 177.134777 -188.088198 
L 177.218345 -189.146446 
L 177.306168 -190.204694 
L 177.397781 -191.262942 
L 177.492714 -192.32119 
L 177.590496 -193.379438 
L 177.690664 -194.437686 
L 177.792764 -195.495934 
L 177.896358 -196.554182 
L 178.001027 -197.61243 
L 178.106375 -198.670678 
L 178.212033 -199.728926 
L 178.317658 -200.787174 
L 178.422938 -201.845421 
L 178.527593 -202.903669 
L 178.631374 -203.961917 
L 178.734064 -205.020165 
L 178.835478 -206.078413 
L 178.93546 -207.136661 
L 179.033886 -208.194909 
L 179.130657 -209.253157 
L 179.2257 -210.311405 
L 179.318966 -211.369653 
L 179.410425 -212.427901 
L 179.500064 -213.486149 
L 179.587888 -214.544397 
L 179.67391 -215.602645 
L 179.758155 -216.660893 
L 179.840653 -217.71914 
L 179.921439 -218.777388 
L 180.000548 -219.835636 
L 183.730361 -219.835636 
L 183.730361 -219.835636 
L 183.80947 -218.777388 
L 183.890256 -217.71914 
L 183.972754 -216.660893 
L 184.056999 -215.602645 
L 184.143021 -214.544397 
L 184.230845 -213.486149 
L 184.320484 -212.427901 
L 184.411943 -211.369653 
L 184.505209 -210.311405 
L 184.600252 -209.253157 
L 184.697023 -208.194909 
L 184.795449 -207.136661 
L 184.895431 -206.078413 
L 184.996845 -205.020165 
L 185.099535 -203.961917 
L 185.203316 -202.903669 
L 185.307971 -201.845421 
L 185.413251 -200.787174 
L 185.518876 -199.728926 
L 185.624534 -198.670678 
L 185.729882 -197.61243 
L 185.834551 -196.554182 
L 185.938145 -195.495934 
L 186.040245 -194.437686 
L 186.140413 -193.379438 
L 186.238195 -192.32119 
L 186.333128 -191.262942 
L 186.424741 -190.204694 
L 186.512564 -189.146446 
L 186.596133 -188.088198 
L 186.674991 -187.02995 
L 186.748702 -185.971702 
L 186.816849 -184.913455 
L 186.879045 -183.855207 
L 186.934936 -182.796959 
L 186.984206 -181.738711 
L 187.026583 -180.680463 
L 187.061843 -179.622215 
L 187.08981 -178.563967 
L 187.110366 -177.505719 
L 187.123446 -176.447471 
L 187.129042 -175.389223 
L 187.127204 -174.330975 
L 187.118041 -173.272727 
L 187.101714 -172.214479 
L 187.078439 -171.156231 
L 187.048482 -170.097983 
L 187.012156 -169.039736 
L 186.969816 -167.981488 
L 186.921853 -166.92324 
L 186.868688 -165.864992 
L 186.81077 -164.806744 
L 186.748564 -163.748496 
L 186.682548 -162.690248 
L 186.613207 -161.632 
L 186.541023 -160.573752 
L 186.466473 -159.515504 
L 186.39002 -158.457256 
L 186.312108 -157.399008 
L 186.23316 -156.34076 
L 186.153569 -155.282512 
L 186.073699 -154.224264 
L 185.993879 -153.166017 
L 185.9144 -152.107769 
L 185.835519 -151.049521 
L 185.757451 -149.991273 
L 185.680374 -148.933025 
L 185.604429 -147.874777 
L 185.529719 -146.816529 
L 185.456313 -145.758281 
L 185.384248 -144.700033 
L 185.313529 -143.641785 
L 185.244138 -142.583537 
L 185.17603 -141.525289 
L 185.109141 -140.467041 
L 185.04339 -139.408793 
L 184.978684 -138.350545 
L 184.914917 -137.292298 
L 184.851978 -136.23405 
L 184.789751 -135.175802 
L 184.728118 -134.117554 
L 184.666965 -133.059306 
L 184.606178 -132.001058 
L 184.54565 -130.94281 
L 184.485281 -129.884562 
L 184.424978 -128.826314 
L 184.36466 -127.768066 
L 184.304255 -126.709818 
L 184.243701 -125.65157 
L 184.182949 -124.593322 
L 184.121962 -123.535074 
L 184.060715 -122.476826 
L 183.999194 -121.418579 
L 183.937398 -120.360331 
L 183.875337 -119.302083 
L 183.813033 -118.243835 
L 183.750519 -117.185587 
L 183.687838 -116.127339 
L 183.625045 -115.069091 
z
" style="stroke: #ee82ee; stroke-width: 1.5"/>
    </defs>
    <g clip-path="url(#pcada2414dd)">
     <use xlink:href="#m02e8ff69cd" x="0" y="288" style="fill: #ffffff; stroke: #ee82ee; stroke-width: 1.5"/>
    </g>
   </g>
   <g id="PolyCollection_2">
    <defs>
     <path id="m796dec52ec" d="M 229.002006 -45.883636 
L 213.797994 -45.883636 
L 213.443031 -46.203107 
L 213.083103 -46.522579 
L 212.719089 -46.84205 
L 212.351951 -47.161521 
L 211.982734 -47.480992 
L 211.612561 -47.800463 
L 211.24263 -48.119934 
L 210.874204 -48.439405 
L 210.508605 -48.758876 
L 210.1472 -49.078347 
L 209.79139 -49.397818 
L 209.442597 -49.717289 
L 209.102246 -50.03676 
L 208.771749 -50.356231 
L 208.452489 -50.675702 
L 208.145797 -50.995174 
L 207.852938 -51.314645 
L 207.575091 -51.634116 
L 207.313332 -51.953587 
L 207.068614 -52.273058 
L 206.841756 -52.592529 
L 206.633425 -52.912 
L 206.444129 -53.231471 
L 206.274207 -53.550942 
L 206.123819 -53.870413 
L 205.99295 -54.189884 
L 205.881404 -54.509355 
L 205.788812 -54.828826 
L 205.714639 -55.148298 
L 205.658189 -55.467769 
L 205.618625 -55.78724 
L 205.594981 -56.106711 
L 205.586182 -56.426182 
L 205.591066 -56.745653 
L 205.608404 -57.065124 
L 205.636927 -57.384595 
L 205.675347 -57.704066 
L 205.722387 -58.023537 
L 205.776798 -58.343008 
L 205.83739 -58.662479 
L 205.903049 -58.98195 
L 205.972761 -59.301421 
L 206.045626 -59.620893 
L 206.120874 -59.940364 
L 206.197879 -60.259835 
L 206.276165 -60.579306 
L 206.355413 -60.898777 
L 206.43546 -61.218248 
L 206.516296 -61.537719 
L 206.598065 -61.85719 
L 206.681045 -62.176661 
L 206.765645 -62.496132 
L 206.852386 -62.815603 
L 206.941882 -63.135074 
L 207.034825 -63.454545 
L 207.13196 -63.774017 
L 207.234064 -64.093488 
L 207.341928 -64.412959 
L 207.456326 -64.73243 
L 207.578005 -65.051901 
L 207.707653 -65.371372 
L 207.845888 -65.690843 
L 207.99324 -66.010314 
L 208.150134 -66.329785 
L 208.31688 -66.649256 
L 208.493663 -66.968727 
L 208.680538 -67.288198 
L 208.877428 -67.607669 
L 209.084122 -67.92714 
L 209.300281 -68.246612 
L 209.525441 -68.566083 
L 209.759025 -68.885554 
L 210.000351 -69.205025 
L 210.248648 -69.524496 
L 210.503069 -69.843967 
L 210.762707 -70.163438 
L 211.026613 -70.482909 
L 211.293813 -70.80238 
L 211.563325 -71.121851 
L 211.834174 -71.441322 
L 212.105412 -71.760793 
L 212.376129 -72.080264 
L 212.645468 -72.399736 
L 212.912636 -72.719207 
L 213.176917 -73.038678 
L 213.437672 -73.358149 
L 213.694354 -73.67762 
L 213.946502 -73.997091 
L 214.193749 -74.316562 
L 214.435817 -74.636033 
L 214.672514 -74.955504 
L 214.903734 -75.274975 
L 215.129441 -75.594446 
L 215.349674 -75.913917 
L 215.564525 -76.233388 
L 215.774139 -76.55286 
L 215.978701 -76.872331 
L 216.178425 -77.191802 
L 216.373543 -77.511273 
L 226.426457 -77.511273 
L 226.426457 -77.511273 
L 226.621575 -77.191802 
L 226.821299 -76.872331 
L 227.025861 -76.55286 
L 227.235475 -76.233388 
L 227.450326 -75.913917 
L 227.670559 -75.594446 
L 227.896266 -75.274975 
L 228.127486 -74.955504 
L 228.364183 -74.636033 
L 228.606251 -74.316562 
L 228.853498 -73.997091 
L 229.105646 -73.67762 
L 229.362328 -73.358149 
L 229.623083 -73.038678 
L 229.887364 -72.719207 
L 230.154532 -72.399736 
L 230.423871 -72.080264 
L 230.694588 -71.760793 
L 230.965826 -71.441322 
L 231.236675 -71.121851 
L 231.506187 -70.80238 
L 231.773387 -70.482909 
L 232.037293 -70.163438 
L 232.296931 -69.843967 
L 232.551352 -69.524496 
L 232.799649 -69.205025 
L 233.040975 -68.885554 
L 233.274559 -68.566083 
L 233.499719 -68.246612 
L 233.715878 -67.92714 
L 233.922572 -67.607669 
L 234.119462 -67.288198 
L 234.306337 -66.968727 
L 234.48312 -66.649256 
L 234.649866 -66.329785 
L 234.80676 -66.010314 
L 234.954112 -65.690843 
L 235.092347 -65.371372 
L 235.221995 -65.051901 
L 235.343674 -64.73243 
L 235.458072 -64.412959 
L 235.565936 -64.093488 
L 235.66804 -63.774017 
L 235.765175 -63.454545 
L 235.858118 -63.135074 
L 235.947614 -62.815603 
L 236.034355 -62.496132 
L 236.118955 -62.176661 
L 236.201935 -61.85719 
L 236.283704 -61.537719 
L 236.36454 -61.218248 
L 236.444587 -60.898777 
L 236.523835 -60.579306 
L 236.602121 -60.259835 
L 236.679126 -59.940364 
L 236.754374 -59.620893 
L 236.827239 -59.301421 
L 236.896951 -58.98195 
L 236.96261 -58.662479 
L 237.023202 -58.343008 
L 237.077613 -58.023537 
L 237.124653 -57.704066 
L 237.163073 -57.384595 
L 237.191596 -57.065124 
L 237.208934 -56.745653 
L 237.213818 -56.426182 
L 237.205019 -56.106711 
L 237.181375 -55.78724 
L 237.141811 -55.467769 
L 237.085361 -55.148298 
L 237.011188 -54.828826 
L 236.918596 -54.509355 
L 236.80705 -54.189884 
L 236.676181 -53.870413 
L 236.525793 -53.550942 
L 236.355871 -53.231471 
L 236.166575 -52.912 
L 235.958244 -52.592529 
L 235.731386 -52.273058 
L 235.486668 -51.953587 
L 235.224909 -51.634116 
L 234.947062 -51.314645 
L 234.654203 -50.995174 
L 234.347511 -50.675702 
L 234.028251 -50.356231 
L 233.697754 -50.03676 
L 233.357403 -49.717289 
L 233.00861 -49.397818 
L 232.6528 -49.078347 
L 232.291395 -48.758876 
L 231.925796 -48.439405 
L 231.55737 -48.119934 
L 231.187439 -47.800463 
L 230.817266 -47.480992 
L 230.448049 -47.161521 
L 230.080911 -46.84205 
L 229.716897 -46.522579 
L 229.356969 -46.203107 
L 229.002006 -45.883636 
z
" style="stroke: #0000ff; stroke-width: 1.5"/>
    </defs>
    <g clip-path="url(#pcada2414dd)">
     <use xlink:href="#m796dec52ec" x="0" y="288" style="fill: #ffffff; stroke: #0000ff; stroke-width: 1.5"/>
    </g>
   </g>
   <g id="PolyCollection_3">
    <defs>
     <path id="mf31c4cfc24" d="M 271.515803 -65.650909 
L 250.353288 -65.650909 
L 250.163868 -65.890512 
L 249.983354 -66.130116 
L 249.812011 -66.369719 
L 249.65005 -66.609322 
L 249.497628 -66.848926 
L 249.354846 -67.088529 
L 249.221748 -67.328132 
L 249.098323 -67.567736 
L 248.984505 -67.807339 
L 248.880172 -68.046942 
L 248.78515 -68.286545 
L 248.699214 -68.526149 
L 248.62209 -68.765752 
L 248.55346 -69.005355 
L 248.49296 -69.244959 
L 248.44019 -69.484562 
L 248.394712 -69.724165 
L 248.356056 -69.963769 
L 248.323726 -70.203372 
L 248.297201 -70.442975 
L 248.27594 -70.682579 
L 248.259391 -70.922182 
L 248.246986 -71.161785 
L 248.238155 -71.401388 
L 248.232326 -71.640992 
L 248.228927 -71.880595 
L 248.227394 -72.120198 
L 248.227175 -72.359802 
L 248.227728 -72.599405 
L 248.228533 -72.839008 
L 248.229087 -73.078612 
L 248.228913 -73.318215 
L 248.22756 -73.557818 
L 248.224606 -73.797421 
L 248.219657 -74.037025 
L 248.212355 -74.276628 
L 248.202375 -74.516231 
L 248.189427 -74.755835 
L 248.173258 -74.995438 
L 248.153652 -75.235041 
L 248.130429 -75.474645 
L 248.103448 -75.714248 
L 248.072607 -75.953851 
L 248.037839 -76.193455 
L 247.999115 -76.433058 
L 247.956442 -76.672661 
L 247.909865 -76.912264 
L 247.859462 -77.151868 
L 247.805345 -77.391471 
L 247.747661 -77.631074 
L 247.686587 -77.870678 
L 247.622332 -78.110281 
L 247.555134 -78.349884 
L 247.48526 -78.589488 
L 247.413003 -78.829091 
L 247.338684 -79.068694 
L 247.262647 -79.308298 
L 247.185258 -79.547901 
L 247.106906 -79.787504 
L 247.028001 -80.027107 
L 246.94897 -80.266711 
L 246.870259 -80.506314 
L 246.792327 -80.745917 
L 246.715651 -80.985521 
L 246.640718 -81.225124 
L 246.568026 -81.464727 
L 246.498083 -81.704331 
L 246.431403 -81.943934 
L 246.368506 -82.183537 
L 246.309915 -82.42314 
L 246.256155 -82.662744 
L 246.207747 -82.902347 
L 246.165213 -83.14195 
L 246.129066 -83.381554 
L 246.099811 -83.621157 
L 246.077943 -83.86076 
L 246.063943 -84.100364 
L 246.058277 -84.339967 
L 246.061391 -84.57957 
L 246.07371 -84.819174 
L 246.095634 -85.058777 
L 246.127536 -85.29838 
L 246.169761 -85.537983 
L 246.222619 -85.777587 
L 246.286386 -86.01719 
L 246.361302 -86.256793 
L 246.447566 -86.496397 
L 246.545335 -86.736 
L 246.654724 -86.975603 
L 246.775801 -87.215207 
L 246.908588 -87.45481 
L 247.05306 -87.694413 
L 247.209141 -87.934017 
L 247.376708 -88.17362 
L 247.555587 -88.413223 
L 247.745556 -88.652826 
L 247.946342 -88.89243 
L 248.157627 -89.132033 
L 248.379043 -89.371636 
L 273.490048 -89.371636 
L 273.490048 -89.371636 
L 273.711464 -89.132033 
L 273.922749 -88.89243 
L 274.123535 -88.652826 
L 274.313504 -88.413223 
L 274.492383 -88.17362 
L 274.65995 -87.934017 
L 274.816031 -87.694413 
L 274.960503 -87.45481 
L 275.09329 -87.215207 
L 275.214367 -86.975603 
L 275.323756 -86.736 
L 275.421525 -86.496397 
L 275.507789 -86.256793 
L 275.582705 -86.01719 
L 275.646472 -85.777587 
L 275.69933 -85.537983 
L 275.741555 -85.29838 
L 275.773457 -85.058777 
L 275.795381 -84.819174 
L 275.8077 -84.57957 
L 275.810814 -84.339967 
L 275.805148 -84.100364 
L 275.791148 -83.86076 
L 275.76928 -83.621157 
L 275.740025 -83.381554 
L 275.703878 -83.14195 
L 275.661343 -82.902347 
L 275.612936 -82.662744 
L 275.559176 -82.42314 
L 275.500585 -82.183537 
L 275.437688 -81.943934 
L 275.371008 -81.704331 
L 275.301064 -81.464727 
L 275.228373 -81.225124 
L 275.153439 -80.985521 
L 275.076763 -80.745917 
L 274.998832 -80.506314 
L 274.920121 -80.266711 
L 274.84109 -80.027107 
L 274.762185 -79.787504 
L 274.683833 -79.547901 
L 274.606444 -79.308298 
L 274.530407 -79.068694 
L 274.456088 -78.829091 
L 274.383831 -78.589488 
L 274.313957 -78.349884 
L 274.246759 -78.110281 
L 274.182504 -77.870678 
L 274.12143 -77.631074 
L 274.063746 -77.391471 
L 274.009629 -77.151868 
L 273.959226 -76.912264 
L 273.912649 -76.672661 
L 273.869976 -76.433058 
L 273.831252 -76.193455 
L 273.796484 -75.953851 
L 273.765643 -75.714248 
L 273.738662 -75.474645 
L 273.715439 -75.235041 
L 273.695833 -74.995438 
L 273.679664 -74.755835 
L 273.666716 -74.516231 
L 273.656736 -74.276628 
L 273.649434 -74.037025 
L 273.644485 -73.797421 
L 273.64153 -73.557818 
L 273.640177 -73.318215 
L 273.640004 -73.078612 
L 273.640558 -72.839008 
L 273.641363 -72.599405 
L 273.641916 -72.359802 
L 273.641697 -72.120198 
L 273.640164 -71.880595 
L 273.636765 -71.640992 
L 273.630936 -71.401388 
L 273.622105 -71.161785 
L 273.6097 -70.922182 
L 273.59315 -70.682579 
L 273.57189 -70.442975 
L 273.545365 -70.203372 
L 273.513035 -69.963769 
L 273.474379 -69.724165 
L 273.428901 -69.484562 
L 273.37613 -69.244959 
L 273.315631 -69.005355 
L 273.247001 -68.765752 
L 273.169877 -68.526149 
L 273.083941 -68.286545 
L 272.988919 -68.046942 
L 272.884586 -67.807339 
L 272.770767 -67.567736 
L 272.647343 -67.328132 
L 272.514245 -67.088529 
L 272.371463 -66.848926 
L 272.219041 -66.609322 
L 272.05708 -66.369719 
L 271.885737 -66.130116 
L 271.705223 -65.890512 
L 271.515803 -65.650909 
z
" style="stroke: #00fa9a; stroke-width: 1.5"/>
    </defs>
    <g clip-path="url(#pcada2414dd)">
     <use xlink:href="#mf31c4cfc24" x="0" y="288" style="fill: #ffffff; stroke: #00fa9a; stroke-width: 1.5"/>
    </g>
   </g>
   <g id="matplotlib.axis_1">
    <g id="xtick_1">
     <g id="text_1">
      <!-- 1 -->
      <g transform="translate(178.684205 266.598437)scale(0.1 -0.1)">
       <defs>
        <path id="DejaVuSans-31" d="M 794 531 
L 1825 531 
L 1825 4091 
L 703 3866 
L 703 4441 
L 1819 4666 
L 2450 4666 
L 2450 531 
L 3481 531 
L 3481 0 
L 794 0 
L 794 531 
z
" transform="scale(0.015625)"/>
       </defs>
       <use xlink:href="#DejaVuSans-31"/>
      </g>
     </g>
    </g>
    <g id="xtick_2">
     <g id="text_2">
      <!-- 2 -->
      <g transform="translate(218.21875 266.598437)scale(0.1 -0.1)">
       <defs>
        <path id="DejaVuSans-32" d="M 1228 531 
L 3431 531 
L 3431 0 
L 469 0 
L 469 531 
Q 828 903 1448 1529 
Q 2069 2156 2228 2338 
Q 2531 2678 2651 2914 
Q 2772 3150 2772 3378 
Q 2772 3750 2511 3984 
Q 2250 4219 1831 4219 
Q 1534 4219 1204 4116 
Q 875 4013 500 3803 
L 500 4441 
Q 881 4594 1212 4672 
Q 1544 4750 1819 4750 
Q 2544 4750 2975 4387 
Q 3406 4025 3406 3419 
Q 3406 3131 3298 2873 
Q 3191 2616 2906 2266 
Q 2828 2175 2409 1742 
Q 1991 1309 1228 531 
z
" transform="scale(0.015625)"/>
       </defs>
       <use xlink:href="#DejaVuSans-32"/>
      </g>
     </g>
    </g>
    <g id="xtick_3">
     <g id="text_3">
      <!-- 3 -->
      <g transform="translate(257.753295 266.598437)scale(0.1 -0.1)">
       <defs>
        <path id="DejaVuSans-33" d="M 2597 2516 
Q 3050 2419 3304 2112 
Q 3559 1806 3559 1356 
Q 3559 666 3084 287 
Q 2609 -91 1734 -91 
Q 1441 -91 1130 -33 
Q 819 25 488 141 
L 488 750 
Q 750 597 1062 519 
Q 1375 441 1716 441 
Q 2309 441 2620 675 
Q 2931 909 2931 1356 
Q 2931 1769 2642 2001 
Q 2353 2234 1838 2234 
L 1294 2234 
L 1294 2753 
L 1863 2753 
Q 2328 2753 2575 2939 
Q 2822 3125 2822 3475 
Q 2822 3834 2567 4026 
Q 2313 4219 1838 4219 
Q 1578 4219 1281 4162 
Q 984 4106 628 3988 
L 628 4550 
Q 988 4650 1302 4700 
Q 1616 4750 1894 4750 
Q 2613 4750 3031 4423 
Q 3450 4097 3450 3541 
Q 3450 3153 3228 2886 
Q 3006 2619 2597 2516 
z
" transform="scale(0.015625)"/>
       </defs>
       <use xlink:href="#DejaVuSans-33"/>
      </g>
     </g>
    </g>
    <g id="text_4">
     <!-- Glomerulus -->
     <g transform="translate(187.0125 281.79625)scale(0.12 -0.12)">
      <defs>
       <path id="DejaVuSans-47" d="M 3809 666 
L 3809 1919 
L 2778 1919 
L 2778 2438 
L 4434 2438 
L 4434 434 
Q 4069 175 3628 42 
Q 3188 -91 2688 -91 
Q 1594 -91 976 548 
Q 359 1188 359 2328 
Q 359 3472 976 4111 
Q 1594 4750 2688 4750 
Q 3144 4750 3555 4637 
Q 3966 4525 4313 4306 
L 4313 3634 
Q 3963 3931 3569 4081 
Q 3175 4231 2741 4231 
Q 1884 4231 1454 3753 
Q 1025 3275 1025 2328 
Q 1025 1384 1454 906 
Q 1884 428 2741 428 
Q 3075 428 3337 486 
Q 3600 544 3809 666 
z
" transform="scale(0.015625)"/>
       <path id="DejaVuSans-6c" d="M 603 4863 
L 1178 4863 
L 1178 0 
L 603 0 
L 603 4863 
z
" transform="scale(0.015625)"/>
       <path id="DejaVuSans-6f" d="M 1959 3097 
Q 1497 3097 1228 2736 
Q 959 2375 959 1747 
Q 959 1119 1226 758 
Q 1494 397 1959 397 
Q 2419 397 2687 759 
Q 2956 1122 2956 1747 
Q 2956 2369 2687 2733 
Q 2419 3097 1959 3097 
z
M 1959 3584 
Q 2709 3584 3137 3096 
Q 3566 2609 3566 1747 
Q 3566 888 3137 398 
Q 2709 -91 1959 -91 
Q 1206 -91 779 398 
Q 353 888 353 1747 
Q 353 2609 779 3096 
Q 1206 3584 1959 3584 
z
" transform="scale(0.015625)"/>
       <path id="DejaVuSans-6d" d="M 3328 2828 
Q 3544 3216 3844 3400 
Q 4144 3584 4550 3584 
Q 5097 3584 5394 3201 
Q 5691 2819 5691 2113 
L 5691 0 
L 5113 0 
L 5113 2094 
Q 5113 2597 4934 2840 
Q 4756 3084 4391 3084 
Q 3944 3084 3684 2787 
Q 3425 2491 3425 1978 
L 3425 0 
L 2847 0 
L 2847 2094 
Q 2847 2600 2669 2842 
Q 2491 3084 2119 3084 
Q 1678 3084 1418 2786 
Q 1159 2488 1159 1978 
L 1159 0 
L 581 0 
L 581 3500 
L 1159 3500 
L 1159 2956 
Q 1356 3278 1631 3431 
Q 1906 3584 2284 3584 
Q 2666 3584 2933 3390 
Q 3200 3197 3328 2828 
z
" transform="scale(0.015625)"/>
       <path id="DejaVuSans-65" d="M 3597 1894 
L 3597 1613 
L 953 1613 
Q 991 1019 1311 708 
Q 1631 397 2203 397 
Q 2534 397 2845 478 
Q 3156 559 3463 722 
L 3463 178 
Q 3153 47 2828 -22 
Q 2503 -91 2169 -91 
Q 1331 -91 842 396 
Q 353 884 353 1716 
Q 353 2575 817 3079 
Q 1281 3584 2069 3584 
Q 2775 3584 3186 3129 
Q 3597 2675 3597 1894 
z
M 3022 2063 
Q 3016 2534 2758 2815 
Q 2500 3097 2075 3097 
Q 1594 3097 1305 2825 
Q 1016 2553 972 2059 
L 3022 2063 
z
" transform="scale(0.015625)"/>
       <path id="DejaVuSans-72" d="M 2631 2963 
Q 2534 3019 2420 3045 
Q 2306 3072 2169 3072 
Q 1681 3072 1420 2755 
Q 1159 2438 1159 1844 
L 1159 0 
L 581 0 
L 581 3500 
L 1159 3500 
L 1159 2956 
Q 1341 3275 1631 3429 
Q 1922 3584 2338 3584 
Q 2397 3584 2469 3576 
Q 2541 3569 2628 3553 
L 2631 2963 
z
" transform="scale(0.015625)"/>
       <path id="DejaVuSans-75" d="M 544 1381 
L 544 3500 
L 1119 3500 
L 1119 1403 
Q 1119 906 1312 657 
Q 1506 409 1894 409 
Q 2359 409 2629 706 
Q 2900 1003 2900 1516 
L 2900 3500 
L 3475 3500 
L 3475 0 
L 2900 0 
L 2900 538 
Q 2691 219 2414 64 
Q 2138 -91 1772 -91 
Q 1169 -91 856 284 
Q 544 659 544 1381 
z
M 1991 3584 
L 1991 3584 
z
" transform="scale(0.015625)"/>
       <path id="DejaVuSans-73" d="M 2834 3397 
L 2834 2853 
Q 2591 2978 2328 3040 
Q 2066 3103 1784 3103 
Q 1356 3103 1142 2972 
Q 928 2841 928 2578 
Q 928 2378 1081 2264 
Q 1234 2150 1697 2047 
L 1894 2003 
Q 2506 1872 2764 1633 
Q 3022 1394 3022 966 
Q 3022 478 2636 193 
Q 2250 -91 1575 -91 
Q 1294 -91 989 -36 
Q 684 19 347 128 
L 347 722 
Q 666 556 975 473 
Q 1284 391 1588 391 
Q 1994 391 2212 530 
Q 2431 669 2431 922 
Q 2431 1156 2273 1281 
Q 2116 1406 1581 1522 
L 1381 1569 
Q 847 1681 609 1914 
Q 372 2147 372 2553 
Q 372 3047 722 3315 
Q 1072 3584 1716 3584 
Q 2034 3584 2315 3537 
Q 2597 3491 2834 3397 
z
" transform="scale(0.015625)"/>
      </defs>
      <use xlink:href="#DejaVuSans-47"/>
      <use xlink:href="#DejaVuSans-6c" x="77.490234"/>
      <use xlink:href="#DejaVuSans-6f" x="105.273438"/>
      <use xlink:href="#DejaVuSans-6d" x="166.455078"/>
      <use xlink:href="#DejaVuSans-65" x="263.867188"/>
      <use xlink:href="#DejaVuSans-72" x="325.390625"/>
      <use xlink:href="#DejaVuSans-75" x="366.503906"/>
      <use xlink:href="#DejaVuSans-6c" x="429.882812"/>
      <use xlink:href="#DejaVuSans-75" x="457.666016"/>
      <use xlink:href="#DejaVuSans-73" x="521.044922"/>
     </g>
    </g>
   </g>
   <g id="matplotlib.axis_2">
    <g id="ytick_1">
     <g id="line2d_1">
      <defs>
       <path id="m69b5f01fff" d="M 0 0 
L -3.5 0 
" style="stroke: #000000; stroke-width: 0.8"/>
      </defs>
      <g>
       <use xlink:href="#m69b5f01fff" x="162.098182" y="252" style="stroke: #000000; stroke-width: 0.8"/>
      </g>
     </g>
     <g id="text_5">
      <!-- 0 -->
      <g transform="translate(148.735682 255.799219)scale(0.1 -0.1)">
       <defs>
        <path id="DejaVuSans-30" d="M 2034 4250 
Q 1547 4250 1301 3770 
Q 1056 3291 1056 2328 
Q 1056 1369 1301 889 
Q 1547 409 2034 409 
Q 2525 409 2770 889 
Q 3016 1369 3016 2328 
Q 3016 3291 2770 3770 
Q 2525 4250 2034 4250 
z
M 2034 4750 
Q 2819 4750 3233 4129 
Q 3647 3509 3647 2328 
Q 3647 1150 3233 529 
Q 2819 -91 2034 -91 
Q 1250 -91 836 529 
Q 422 1150 422 2328 
Q 422 3509 836 4129 
Q 1250 4750 2034 4750 
z
" transform="scale(0.015625)"/>
       </defs>
       <use xlink:href="#DejaVuSans-30"/>
      </g>
     </g>
    </g>
    <g id="ytick_2">
     <g id="line2d_2">
      <g>
       <use xlink:href="#m69b5f01fff" x="162.098182" y="212.465455" style="stroke: #000000; stroke-width: 0.8"/>
      </g>
     </g>
     <g id="text_6">
      <!-- 20 -->
      <g transform="translate(142.373182 216.264673)scale(0.1 -0.1)">
       <use xlink:href="#DejaVuSans-32"/>
       <use xlink:href="#DejaVuSans-30" x="63.623047"/>
      </g>
     </g>
    </g>
    <g id="ytick_3">
     <g id="line2d_3">
      <g>
       <use xlink:href="#m69b5f01fff" x="162.098182" y="172.930909" style="stroke: #000000; stroke-width: 0.8"/>
      </g>
     </g>
     <g id="text_7">
      <!-- 40 -->
      <g transform="translate(142.373182 176.730128)scale(0.1 -0.1)">
       <defs>
        <path id="DejaVuSans-34" d="M 2419 4116 
L 825 1625 
L 2419 1625 
L 2419 4116 
z
M 2253 4666 
L 3047 4666 
L 3047 1625 
L 3713 1625 
L 3713 1100 
L 3047 1100 
L 3047 0 
L 2419 0 
L 2419 1100 
L 313 1100 
L 313 1709 
L 2253 4666 
z
" transform="scale(0.015625)"/>
       </defs>
       <use xlink:href="#DejaVuSans-34"/>
       <use xlink:href="#DejaVuSans-30" x="63.623047"/>
      </g>
     </g>
    </g>
    <g id="ytick_4">
     <g id="line2d_4">
      <g>
       <use xlink:href="#m69b5f01fff" x="162.098182" y="133.396364" style="stroke: #000000; stroke-width: 0.8"/>
      </g>
     </g>
     <g id="text_8">
      <!-- 60 -->
      <g transform="translate(142.373182 137.195582)scale(0.1 -0.1)">
       <defs>
        <path id="DejaVuSans-36" d="M 2113 2584 
Q 1688 2584 1439 2293 
Q 1191 2003 1191 1497 
Q 1191 994 1439 701 
Q 1688 409 2113 409 
Q 2538 409 2786 701 
Q 3034 994 3034 1497 
Q 3034 2003 2786 2293 
Q 2538 2584 2113 2584 
z
M 3366 4563 
L 3366 3988 
Q 3128 4100 2886 4159 
Q 2644 4219 2406 4219 
Q 1781 4219 1451 3797 
Q 1122 3375 1075 2522 
Q 1259 2794 1537 2939 
Q 1816 3084 2150 3084 
Q 2853 3084 3261 2657 
Q 3669 2231 3669 1497 
Q 3669 778 3244 343 
Q 2819 -91 2113 -91 
Q 1303 -91 875 529 
Q 447 1150 447 2328 
Q 447 3434 972 4092 
Q 1497 4750 2381 4750 
Q 2619 4750 2861 4703 
Q 3103 4656 3366 4563 
z
" transform="scale(0.015625)"/>
       </defs>
       <use xlink:href="#DejaVuSans-36"/>
       <use xlink:href="#DejaVuSans-30" x="63.623047"/>
      </g>
     </g>
    </g>
    <g id="ytick_5">
     <g id="line2d_5">
      <g>
       <use xlink:href="#m69b5f01fff" x="162.098182" y="93.861818" style="stroke: #000000; stroke-width: 0.8"/>
      </g>
     </g>
     <g id="text_9">
      <!-- 80 -->
      <g transform="translate(142.373182 97.661037)scale(0.1 -0.1)">
       <defs>
        <path id="DejaVuSans-38" d="M 2034 2216 
Q 1584 2216 1326 1975 
Q 1069 1734 1069 1313 
Q 1069 891 1326 650 
Q 1584 409 2034 409 
Q 2484 409 2743 651 
Q 3003 894 3003 1313 
Q 3003 1734 2745 1975 
Q 2488 2216 2034 2216 
z
M 1403 2484 
Q 997 2584 770 2862 
Q 544 3141 544 3541 
Q 544 4100 942 4425 
Q 1341 4750 2034 4750 
Q 2731 4750 3128 4425 
Q 3525 4100 3525 3541 
Q 3525 3141 3298 2862 
Q 3072 2584 2669 2484 
Q 3125 2378 3379 2068 
Q 3634 1759 3634 1313 
Q 3634 634 3220 271 
Q 2806 -91 2034 -91 
Q 1263 -91 848 271 
Q 434 634 434 1313 
Q 434 1759 690 2068 
Q 947 2378 1403 2484 
z
M 1172 3481 
Q 1172 3119 1398 2916 
Q 1625 2713 2034 2713 
Q 2441 2713 2670 2916 
Q 2900 3119 2900 3481 
Q 2900 3844 2670 4047 
Q 2441 4250 2034 4250 
Q 1625 4250 1398 4047 
Q 1172 3844 1172 3481 
z
" transform="scale(0.015625)"/>
       </defs>
       <use xlink:href="#DejaVuSans-38"/>
       <use xlink:href="#DejaVuSans-30" x="63.623047"/>
      </g>
     </g>
    </g>
    <g id="ytick_6">
     <g id="line2d_6">
      <g>
       <use xlink:href="#m69b5f01fff" x="162.098182" y="54.327273" style="stroke: #000000; stroke-width: 0.8"/>
      </g>
     </g>
     <g id="text_10">
      <!-- 100 -->
      <g transform="translate(136.010682 58.126491)scale(0.1 -0.1)">
       <use xlink:href="#DejaVuSans-31"/>
       <use xlink:href="#DejaVuSans-30" x="63.623047"/>
       <use xlink:href="#DejaVuSans-30" x="127.246094"/>
      </g>
     </g>
    </g>
    <g id="text_11">
     <!-- Synapse # in glomerulus -->
     <g transform="translate(129.515057 218.511562)rotate(-90)scale(0.12 -0.12)">
      <defs>
       <path id="DejaVuSans-53" d="M 3425 4513 
L 3425 3897 
Q 3066 4069 2747 4153 
Q 2428 4238 2131 4238 
Q 1616 4238 1336 4038 
Q 1056 3838 1056 3469 
Q 1056 3159 1242 3001 
Q 1428 2844 1947 2747 
L 2328 2669 
Q 3034 2534 3370 2195 
Q 3706 1856 3706 1288 
Q 3706 609 3251 259 
Q 2797 -91 1919 -91 
Q 1588 -91 1214 -16 
Q 841 59 441 206 
L 441 856 
Q 825 641 1194 531 
Q 1563 422 1919 422 
Q 2459 422 2753 634 
Q 3047 847 3047 1241 
Q 3047 1584 2836 1778 
Q 2625 1972 2144 2069 
L 1759 2144 
Q 1053 2284 737 2584 
Q 422 2884 422 3419 
Q 422 4038 858 4394 
Q 1294 4750 2059 4750 
Q 2388 4750 2728 4690 
Q 3069 4631 3425 4513 
z
" transform="scale(0.015625)"/>
       <path id="DejaVuSans-79" d="M 2059 -325 
Q 1816 -950 1584 -1140 
Q 1353 -1331 966 -1331 
L 506 -1331 
L 506 -850 
L 844 -850 
Q 1081 -850 1212 -737 
Q 1344 -625 1503 -206 
L 1606 56 
L 191 3500 
L 800 3500 
L 1894 763 
L 2988 3500 
L 3597 3500 
L 2059 -325 
z
" transform="scale(0.015625)"/>
       <path id="DejaVuSans-6e" d="M 3513 2113 
L 3513 0 
L 2938 0 
L 2938 2094 
Q 2938 2591 2744 2837 
Q 2550 3084 2163 3084 
Q 1697 3084 1428 2787 
Q 1159 2491 1159 1978 
L 1159 0 
L 581 0 
L 581 3500 
L 1159 3500 
L 1159 2956 
Q 1366 3272 1645 3428 
Q 1925 3584 2291 3584 
Q 2894 3584 3203 3211 
Q 3513 2838 3513 2113 
z
" transform="scale(0.015625)"/>
       <path id="DejaVuSans-61" d="M 2194 1759 
Q 1497 1759 1228 1600 
Q 959 1441 959 1056 
Q 959 750 1161 570 
Q 1363 391 1709 391 
Q 2188 391 2477 730 
Q 2766 1069 2766 1631 
L 2766 1759 
L 2194 1759 
z
M 3341 1997 
L 3341 0 
L 2766 0 
L 2766 531 
Q 2569 213 2275 61 
Q 1981 -91 1556 -91 
Q 1019 -91 701 211 
Q 384 513 384 1019 
Q 384 1609 779 1909 
Q 1175 2209 1959 2209 
L 2766 2209 
L 2766 2266 
Q 2766 2663 2505 2880 
Q 2244 3097 1772 3097 
Q 1472 3097 1187 3025 
Q 903 2953 641 2809 
L 641 3341 
Q 956 3463 1253 3523 
Q 1550 3584 1831 3584 
Q 2591 3584 2966 3190 
Q 3341 2797 3341 1997 
z
" transform="scale(0.015625)"/>
       <path id="DejaVuSans-70" d="M 1159 525 
L 1159 -1331 
L 581 -1331 
L 581 3500 
L 1159 3500 
L 1159 2969 
Q 1341 3281 1617 3432 
Q 1894 3584 2278 3584 
Q 2916 3584 3314 3078 
Q 3713 2572 3713 1747 
Q 3713 922 3314 415 
Q 2916 -91 2278 -91 
Q 1894 -91 1617 61 
Q 1341 213 1159 525 
z
M 3116 1747 
Q 3116 2381 2855 2742 
Q 2594 3103 2138 3103 
Q 1681 3103 1420 2742 
Q 1159 2381 1159 1747 
Q 1159 1113 1420 752 
Q 1681 391 2138 391 
Q 2594 391 2855 752 
Q 3116 1113 3116 1747 
z
" transform="scale(0.015625)"/>
       <path id="DejaVuSans-20" transform="scale(0.015625)"/>
       <path id="DejaVuSans-23" d="M 3272 2816 
L 2363 2816 
L 2100 1772 
L 3016 1772 
L 3272 2816 
z
M 2803 4594 
L 2478 3297 
L 3391 3297 
L 3719 4594 
L 4219 4594 
L 3897 3297 
L 4872 3297 
L 4872 2816 
L 3775 2816 
L 3519 1772 
L 4513 1772 
L 4513 1294 
L 3397 1294 
L 3072 0 
L 2572 0 
L 2894 1294 
L 1978 1294 
L 1656 0 
L 1153 0 
L 1478 1294 
L 494 1294 
L 494 1772 
L 1594 1772 
L 1856 2816 
L 850 2816 
L 850 3297 
L 1978 3297 
L 2297 4594 
L 2803 4594 
z
" transform="scale(0.015625)"/>
       <path id="DejaVuSans-69" d="M 603 3500 
L 1178 3500 
L 1178 0 
L 603 0 
L 603 3500 
z
M 603 4863 
L 1178 4863 
L 1178 4134 
L 603 4134 
L 603 4863 
z
" transform="scale(0.015625)"/>
       <path id="DejaVuSans-67" d="M 2906 1791 
Q 2906 2416 2648 2759 
Q 2391 3103 1925 3103 
Q 1463 3103 1205 2759 
Q 947 2416 947 1791 
Q 947 1169 1205 825 
Q 1463 481 1925 481 
Q 2391 481 2648 825 
Q 2906 1169 2906 1791 
z
M 3481 434 
Q 3481 -459 3084 -895 
Q 2688 -1331 1869 -1331 
Q 1566 -1331 1297 -1286 
Q 1028 -1241 775 -1147 
L 775 -588 
Q 1028 -725 1275 -790 
Q 1522 -856 1778 -856 
Q 2344 -856 2625 -561 
Q 2906 -266 2906 331 
L 2906 616 
Q 2728 306 2450 153 
Q 2172 0 1784 0 
Q 1141 0 747 490 
Q 353 981 353 1791 
Q 353 2603 747 3093 
Q 1141 3584 1784 3584 
Q 2172 3584 2450 3431 
Q 2728 3278 2906 2969 
L 2906 3500 
L 3481 3500 
L 3481 434 
z
" transform="scale(0.015625)"/>
      </defs>
      <use xlink:href="#DejaVuSans-53"/>
      <use xlink:href="#DejaVuSans-79" x="63.476562"/>
      <use xlink:href="#DejaVuSans-6e" x="122.65625"/>
      <use xlink:href="#DejaVuSans-61" x="186.035156"/>
      <use xlink:href="#DejaVuSans-70" x="247.314453"/>
      <use xlink:href="#DejaVuSans-73" x="310.791016"/>
      <use xlink:href="#DejaVuSans-65" x="362.890625"/>
      <use xlink:href="#DejaVuSans-20" x="424.414062"/>
      <use xlink:href="#DejaVuSans-23" x="456.201172"/>
      <use xlink:href="#DejaVuSans-20" x="539.990234"/>
      <use xlink:href="#DejaVuSans-69" x="571.777344"/>
      <use xlink:href="#DejaVuSans-6e" x="599.560547"/>
      <use xlink:href="#DejaVuSans-20" x="662.939453"/>
      <use xlink:href="#DejaVuSans-67" x="694.726562"/>
      <use xlink:href="#DejaVuSans-6c" x="758.203125"/>
      <use xlink:href="#DejaVuSans-6f" x="785.986328"/>
      <use xlink:href="#DejaVuSans-6d" x="847.167969"/>
      <use xlink:href="#DejaVuSans-65" x="944.580078"/>
      <use xlink:href="#DejaVuSans-72" x="1006.103516"/>
      <use xlink:href="#DejaVuSans-75" x="1047.216797"/>
      <use xlink:href="#DejaVuSans-6c" x="1110.595703"/>
      <use xlink:href="#DejaVuSans-75" x="1138.378906"/>
      <use xlink:href="#DejaVuSans-73" x="1201.757812"/>
     </g>
    </g>
   </g>
   <g id="line2d_7">
    <path d="M 176.77022 118.768582 
L 186.960689 118.768582 
" clip-path="url(#pcada2414dd)" style="fill: none; stroke: #000000; stroke-width: 1.5; stroke-linecap: square"/>
   </g>
   <g id="line2d_8">
    <path d="M 206.3499 227.686255 
L 236.4501 227.686255 
" clip-path="url(#pcada2414dd)" style="fill: none; stroke: #000000; stroke-width: 1.5; stroke-linecap: square"/>
   </g>
   <g id="line2d_9">
    <path d="M 247.688928 209.698036 
L 274.180163 209.698036 
" clip-path="url(#pcada2414dd)" style="fill: none; stroke: #000000; stroke-width: 1.5; stroke-linecap: square"/>
   </g>
   <g id="patch_3">
    <path d="M 162.098182 252 
L 162.098182 34.56 
" style="fill: none; stroke: #000000; stroke-width: 0.8; stroke-linejoin: miter; stroke-linecap: square"/>
   </g>
   <g id="PathCollection_1">
    <defs>
     <path id="C0_0_001722aab9" d="M 0 2.5 
C 0.663008 2.5 1.29895 2.236584 1.767767 1.767767 
C 2.236584 1.29895 2.5 0.663008 2.5 -0 
C 2.5 -0.663008 2.236584 -1.29895 1.767767 -1.767767 
C 1.29895 -2.236584 0.663008 -2.5 0 -2.5 
C -0.663008 -2.5 -1.29895 -2.236584 -1.767767 -1.767767 
C -2.236584 -1.29895 -2.5 -0.663008 -2.5 0 
C -2.5 0.663008 -2.236584 1.29895 -1.767767 1.767767 
C -1.29895 2.236584 -0.663008 2.5 0 2.5 
z
"/>
    </defs>
    <g clip-path="url(#pcada2414dd)">
     <use xlink:href="#C0_0_001722aab9" x="183.774826" y="68.164364" style="fill: #ee82ee"/>
    </g>
    <g clip-path="url(#pcada2414dd)">
     <use xlink:href="#C0_0_001722aab9" x="178.161005" y="151.186909" style="fill: #ee82ee"/>
    </g>
    <g clip-path="url(#pcada2414dd)">
     <use xlink:href="#C0_0_001722aab9" x="183.879429" y="119.559273" style="fill: #ee82ee"/>
    </g>
    <g clip-path="url(#pcada2414dd)">
     <use xlink:href="#C0_0_001722aab9" x="184.254257" y="143.28" style="fill: #ee82ee"/>
    </g>
    <g clip-path="url(#pcada2414dd)">
     <use xlink:href="#C0_0_001722aab9" x="182.758487" y="111.652364" style="fill: #ee82ee"/>
    </g>
    <g clip-path="url(#pcada2414dd)">
     <use xlink:href="#C0_0_001722aab9" x="177.988775" y="89.908364" style="fill: #ee82ee"/>
    </g>
    <g clip-path="url(#pcada2414dd)">
     <use xlink:href="#C0_0_001722aab9" x="183.463577" y="99.792" style="fill: #ee82ee"/>
    </g>
    <g clip-path="url(#pcada2414dd)">
     <use xlink:href="#C0_0_001722aab9" x="183.308656" y="119.559273" style="fill: #ee82ee"/>
    </g>
    <g clip-path="url(#pcada2414dd)">
     <use xlink:href="#C0_0_001722aab9" x="184.327965" y="172.930909" style="fill: #ee82ee"/>
    </g>
    <g clip-path="url(#pcada2414dd)">
     <use xlink:href="#C0_0_001722aab9" x="181.275156" y="111.652364" style="fill: #ee82ee"/>
    </g>
   </g>
   <g id="PathCollection_2">
    <defs>
     <path id="C1_0_b9e40fbe37" d="M 0 2.5 
C 0.663008 2.5 1.29895 2.236584 1.767767 1.767767 
C 2.236584 1.29895 2.5 0.663008 2.5 -0 
C 2.5 -0.663008 2.236584 -1.29895 1.767767 -1.767767 
C 1.29895 -2.236584 0.663008 -2.5 0 -2.5 
C -0.663008 -2.5 -1.29895 -2.236584 -1.767767 -1.767767 
C -2.236584 -1.29895 -2.5 -0.663008 -2.5 0 
C -2.5 0.663008 -2.236584 1.29895 -1.767767 1.767767 
C -1.29895 2.236584 -0.663008 2.5 0 2.5 
z
"/>
    </defs>
    <g clip-path="url(#pcada2414dd)">
     <use xlink:href="#C1_0_b9e40fbe37" x="223.29063" y="232.232727" style="fill: #0000ff"/>
    </g>
    <g clip-path="url(#pcada2414dd)">
     <use xlink:href="#C1_0_b9e40fbe37" x="221.590357" y="222.349091" style="fill: #0000ff"/>
    </g>
    <g clip-path="url(#pcada2414dd)">
     <use xlink:href="#C1_0_b9e40fbe37" x="223.699344" y="220.372364" style="fill: #0000ff"/>
    </g>
    <g clip-path="url(#pcada2414dd)">
     <use xlink:href="#C1_0_b9e40fbe37" x="218.173933" y="234.209455" style="fill: #0000ff"/>
    </g>
    <g clip-path="url(#pcada2414dd)">
     <use xlink:href="#C1_0_b9e40fbe37" x="218.228864" y="220.372364" style="fill: #0000ff"/>
    </g>
    <g clip-path="url(#pcada2414dd)">
     <use xlink:href="#C1_0_b9e40fbe37" x="223.786209" y="226.302545" style="fill: #0000ff"/>
    </g>
    <g clip-path="url(#pcada2414dd)">
     <use xlink:href="#C1_0_b9e40fbe37" x="218.508583" y="234.209455" style="fill: #0000ff"/>
    </g>
    <g clip-path="url(#pcada2414dd)">
     <use xlink:href="#C1_0_b9e40fbe37" x="221.842615" y="234.209455" style="fill: #0000ff"/>
    </g>
    <g clip-path="url(#pcada2414dd)">
     <use xlink:href="#C1_0_b9e40fbe37" x="218.538964" y="210.488727" style="fill: #0000ff"/>
    </g>
    <g clip-path="url(#pcada2414dd)">
     <use xlink:href="#C1_0_b9e40fbe37" x="217.517142" y="242.116364" style="fill: #0000ff"/>
    </g>
   </g>
   <g id="PathCollection_3">
    <defs>
     <path id="C2_0_15fa900944" d="M 0 2.5 
C 0.663008 2.5 1.29895 2.236584 1.767767 1.767767 
C 2.236584 1.29895 2.5 0.663008 2.5 -0 
C 2.5 -0.663008 2.236584 -1.29895 1.767767 -1.767767 
C 1.29895 -2.236584 0.663008 -2.5 0 -2.5 
C -0.663008 -2.5 -1.29895 -2.236584 -1.767767 -1.767767 
C -2.236584 -1.29895 -2.5 -0.663008 -2.5 0 
C -2.5 0.663008 -2.236584 1.29895 -1.767767 1.767767 
C -1.29895 2.236584 -0.663008 2.5 0 2.5 
z
"/>
    </defs>
    <g clip-path="url(#pcada2414dd)">
     <use xlink:href="#C2_0_15fa900944" x="258.999322" y="210.488727" style="fill: #00fa9a"/>
    </g>
    <g clip-path="url(#pcada2414dd)">
     <use xlink:href="#C2_0_15fa900944" x="261.572924" y="206.535273" style="fill: #00fa9a"/>
    </g>
    <g clip-path="url(#pcada2414dd)">
     <use xlink:href="#C2_0_15fa900944" x="258.306403" y="220.372364" style="fill: #00fa9a"/>
    </g>
    <g clip-path="url(#pcada2414dd)">
     <use xlink:href="#C2_0_15fa900944" x="263.69555" y="204.558545" style="fill: #00fa9a"/>
    </g>
    <g clip-path="url(#pcada2414dd)">
     <use xlink:href="#C2_0_15fa900944" x="260.017608" y="220.372364" style="fill: #00fa9a"/>
    </g>
    <g clip-path="url(#pcada2414dd)">
     <use xlink:href="#C2_0_15fa900944" x="261.713331" y="222.349091" style="fill: #00fa9a"/>
    </g>
    <g clip-path="url(#pcada2414dd)">
     <use xlink:href="#C2_0_15fa900944" x="262.117042" y="198.628364" style="fill: #00fa9a"/>
    </g>
    <g clip-path="url(#pcada2414dd)">
     <use xlink:href="#C2_0_15fa900944" x="258.134795" y="200.605091" style="fill: #00fa9a"/>
    </g>
    <g clip-path="url(#pcada2414dd)">
     <use xlink:href="#C2_0_15fa900944" x="258.131336" y="214.442182" style="fill: #00fa9a"/>
    </g>
    <g clip-path="url(#pcada2414dd)">
     <use xlink:href="#C2_0_15fa900944" x="259.719053" y="198.628364" style="fill: #00fa9a"/>
    </g>
   </g>
  </g>
 </g>
 <defs>
  <clipPath id="pcada2414dd">
   <rect x="162.098182" y="34.56" width="118.603636" height="217.44"/>
  </clipPath>
 </defs>
</svg>
