<?xml version="1.0" encoding="utf-8" standalone="no"?>
<!DOCTYPE svg PUBLIC "-//W3C//DTD SVG 1.1//EN"
  "http://www.w3.org/Graphics/SVG/1.1/DTD/svg11.dtd">
<svg xmlns:xlink="http://www.w3.org/1999/xlink" width="432pt" height="288pt" viewBox="0 0 432 288" xmlns="http://www.w3.org/2000/svg" version="1.1">
 <metadata>
  <rdf:RDF xmlns:dc="http://purl.org/dc/elements/1.1/" xmlns:cc="http://creativecommons.org/ns#" xmlns:rdf="http://www.w3.org/1999/02/22-rdf-syntax-ns#">
   <cc:Work>
    <dc:type rdf:resource="http://purl.org/dc/dcmitype/StillImage"/>
    <dc:date>2024-01-28T09:23:57.424956</dc:date>
    <dc:format>image/svg+xml</dc:format>
    <dc:creator>
     <cc:Agent>
      <dc:title>Matplotlib v3.5.1, https://matplotlib.org/</dc:title>
     </cc:Agent>
    </dc:creator>
   </cc:Work>
  </rdf:RDF>
 </metadata>
 <defs>
  <style type="text/css">*{stroke-linejoin: round; stroke-linecap: butt}</style>
 </defs>
 <g id="figure_1">
  <g id="patch_1">
   <path d="M 0 288 
L 432 288 
L 432 0 
L 0 0 
L 0 288 
z
" style="fill: none"/>
  </g>
  <g id="axes_1">
   <g id="patch_2">
    <path d="M 167.04 252 
L 275.76 252 
L 275.76 34.56 
L 167.04 34.56 
z
" style="fill: #ffffff"/>
   </g>
   <g id="PolyCollection_1">
    <defs>
     <path id="m5156a10cf5" d="M 197.648157 -117.736078 
L 172.671843 -117.736078 
L 172.41781 -118.444781 
L 172.177871 -119.153483 
L 171.952946 -119.862186 
L 171.743895 -120.570888 
L 171.551517 -121.279591 
L 171.37654 -121.988293 
L 171.219619 -122.696996 
L 171.081328 -123.405698 
L 170.962158 -124.114401 
L 170.862512 -124.823103 
L 170.782702 -125.531806 
L 170.722948 -126.240508 
L 170.683371 -126.949211 
L 170.664 -127.657913 
L 170.664764 -128.366615 
L 170.685495 -129.075318 
L 170.72593 -129.78402 
L 170.785712 -130.492723 
L 170.864392 -131.201425 
L 170.961429 -131.910128 
L 171.0762 -132.61883 
L 171.207999 -133.327533 
L 171.356042 -134.036235 
L 171.519475 -134.744938 
L 171.697378 -135.45364 
L 171.88877 -136.162343 
L 172.092618 -136.871045 
L 172.307842 -137.579748 
L 172.533321 -138.28845 
L 172.767905 -138.997153 
L 173.010416 -139.705855 
L 173.259659 -140.414557 
L 173.514431 -141.12326 
L 173.773525 -141.831962 
L 174.035737 -142.540665 
L 174.299878 -143.249367 
L 174.564776 -143.95807 
L 174.829283 -144.666772 
L 175.092287 -145.375475 
L 175.35271 -146.084177 
L 175.60952 -146.79288 
L 175.861733 -147.501582 
L 176.108418 -148.210285 
L 176.348703 -148.918987 
L 176.58178 -149.62769 
L 176.806904 -150.336392 
L 177.023399 -151.045095 
L 177.23066 -151.753797 
L 177.428155 -152.462499 
L 177.615426 -153.171202 
L 177.792091 -153.879904 
L 177.957842 -154.588607 
L 178.112447 -155.297309 
L 178.255749 -156.006012 
L 178.387664 -156.714714 
L 178.508183 -157.423417 
L 178.617363 -158.132119 
L 178.715334 -158.840822 
L 178.802289 -159.549524 
L 178.878484 -160.258227 
L 178.944236 -160.966929 
L 178.999916 -161.675632 
L 179.04595 -162.384334 
L 179.082811 -163.093036 
L 179.111017 -163.801739 
L 179.131125 -164.510441 
L 179.143729 -165.219144 
L 179.149455 -165.927846 
L 179.148953 -166.636549 
L 179.142897 -167.345251 
L 179.131979 -168.053954 
L 179.116903 -168.762656 
L 179.098381 -169.471359 
L 179.07713 -170.180061 
L 179.053864 -170.888764 
L 179.029295 -171.597466 
L 179.004125 -172.306169 
L 178.97904 -173.014871 
L 178.954712 -173.723574 
L 178.931791 -174.432276 
L 178.910903 -175.140978 
L 178.892645 -175.849681 
L 178.877583 -176.558383 
L 178.866251 -177.267086 
L 178.859146 -177.975788 
L 178.856725 -178.684491 
L 178.859405 -179.393193 
L 178.867561 -180.101896 
L 178.881523 -180.810598 
L 178.901577 -181.519301 
L 178.927961 -182.228003 
L 178.960869 -182.936706 
L 179.000447 -183.645408 
L 179.046792 -184.354111 
L 179.099958 -185.062813 
L 179.159951 -185.771516 
L 179.226734 -186.480218 
L 179.300224 -187.18892 
L 179.380298 -187.897623 
L 190.939702 -187.897623 
L 190.939702 -187.897623 
L 191.019776 -187.18892 
L 191.093266 -186.480218 
L 191.160049 -185.771516 
L 191.220042 -185.062813 
L 191.273208 -184.354111 
L 191.319553 -183.645408 
L 191.359131 -182.936706 
L 191.392039 -182.228003 
L 191.418423 -181.519301 
L 191.438477 -180.810598 
L 191.452439 -180.101896 
L 191.460595 -179.393193 
L 191.463275 -178.684491 
L 191.460854 -177.975788 
L 191.453749 -177.267086 
L 191.442417 -176.558383 
L 191.427355 -175.849681 
L 191.409097 -175.140978 
L 191.388209 -174.432276 
L 191.365288 -173.723574 
L 191.34096 -173.014871 
L 191.315875 -172.306169 
L 191.290705 -171.597466 
L 191.266136 -170.888764 
L 191.24287 -170.180061 
L 191.221619 -169.471359 
L 191.203097 -168.762656 
L 191.188021 -168.053954 
L 191.177103 -167.345251 
L 191.171047 -166.636549 
L 191.170545 -165.927846 
L 191.176271 -165.219144 
L 191.188875 -164.510441 
L 191.208983 -163.801739 
L 191.237189 -163.093036 
L 191.27405 -162.384334 
L 191.320084 -161.675632 
L 191.375764 -160.966929 
L 191.441516 -160.258227 
L 191.517711 -159.549524 
L 191.604666 -158.840822 
L 191.702637 -158.132119 
L 191.811817 -157.423417 
L 191.932336 -156.714714 
L 192.064251 -156.006012 
L 192.207553 -155.297309 
L 192.362158 -154.588607 
L 192.527909 -153.879904 
L 192.704574 -153.171202 
L 192.891845 -152.462499 
L 193.08934 -151.753797 
L 193.296601 -151.045095 
L 193.513096 -150.336392 
L 193.73822 -149.62769 
L 193.971297 -148.918987 
L 194.211582 -148.210285 
L 194.458267 -147.501582 
L 194.71048 -146.79288 
L 194.96729 -146.084177 
L 195.227713 -145.375475 
L 195.490717 -144.666772 
L 195.755224 -143.95807 
L 196.020122 -143.249367 
L 196.284263 -142.540665 
L 196.546475 -141.831962 
L 196.805569 -141.12326 
L 197.060341 -140.414557 
L 197.309584 -139.705855 
L 197.552095 -138.997153 
L 197.786679 -138.28845 
L 198.012158 -137.579748 
L 198.227382 -136.871045 
L 198.43123 -136.162343 
L 198.622622 -135.45364 
L 198.800525 -134.744938 
L 198.963958 -134.036235 
L 199.112001 -133.327533 
L 199.2438 -132.61883 
L 199.358571 -131.910128 
L 199.455608 -131.201425 
L 199.534288 -130.492723 
L 199.59407 -129.78402 
L 199.634505 -129.075318 
L 199.655236 -128.366615 
L 199.656 -127.657913 
L 199.636629 -126.949211 
L 199.597052 -126.240508 
L 199.537298 -125.531806 
L 199.457488 -124.823103 
L 199.357842 -124.114401 
L 199.238672 -123.405698 
L 199.100381 -122.696996 
L 198.94346 -121.988293 
L 198.768483 -121.279591 
L 198.576105 -120.570888 
L 198.367054 -119.862186 
L 198.142129 -119.153483 
L 197.90219 -118.444781 
L 197.648157 -117.736078 
z
" style="stroke: #ee82ee; stroke-width: 1.5"/>
    </defs>
    <g clip-path="url(#p7d052a846c)">
     <use xlink:href="#m5156a10cf5" x="0" y="288" style="fill: #ffffff; stroke: #ee82ee; stroke-width: 1.5"/>
    </g>
   </g>
   <g id="PolyCollection_2">
    <defs>
     <path id="m501379cba8" d="M 228.462633 -57.665283 
L 214.337367 -57.665283 
L 214.121591 -58.383846 
L 213.910692 -59.102408 
L 213.705333 -59.82097 
L 213.506146 -60.539532 
L 213.313729 -61.258095 
L 213.128638 -61.976657 
L 212.951382 -62.695219 
L 212.782416 -63.413781 
L 212.622134 -64.132344 
L 212.470869 -64.850906 
L 212.328881 -65.569468 
L 212.19636 -66.28803 
L 212.073419 -67.006593 
L 211.960091 -67.725155 
L 211.856329 -68.443717 
L 211.762002 -69.16228 
L 211.676901 -69.880842 
L 211.600732 -70.599404 
L 211.533124 -71.317966 
L 211.473629 -72.036529 
L 211.421726 -72.755091 
L 211.376827 -73.473653 
L 211.338283 -74.192215 
L 211.305387 -74.910778 
L 211.277387 -75.62934 
L 211.25349 -76.347902 
L 211.232873 -77.066465 
L 211.21469 -77.785027 
L 211.198088 -78.503589 
L 211.182209 -79.222151 
L 211.166206 -79.940714 
L 211.149252 -80.659276 
L 211.130553 -81.377838 
L 211.109351 -82.0964 
L 211.084942 -82.814963 
L 211.056681 -83.533525 
L 211.02399 -84.252087 
L 210.98637 -84.97065 
L 210.943403 -85.689212 
L 210.894761 -86.407774 
L 210.840209 -87.126336 
L 210.779611 -87.844899 
L 210.712929 -88.563461 
L 210.640228 -89.282023 
L 210.561673 -90.000585 
L 210.477529 -90.719148 
L 210.388158 -91.43771 
L 210.294015 -92.156272 
L 210.195641 -92.874834 
L 210.093662 -93.593397 
L 209.988778 -94.311959 
L 209.881755 -95.030521 
L 209.773418 -95.749084 
L 209.664641 -96.467646 
L 209.556336 -97.186208 
L 209.449448 -97.90477 
L 209.344936 -98.623333 
L 209.243771 -99.341895 
L 209.146921 -100.060457 
L 209.055345 -100.779019 
L 208.969978 -101.497582 
L 208.891727 -102.216144 
L 208.82146 -102.934706 
L 208.759998 -103.653269 
L 208.708111 -104.371831 
L 208.666507 -105.090393 
L 208.63583 -105.808955 
L 208.616655 -106.527518 
L 208.609486 -107.24608 
L 208.614748 -107.964642 
L 208.632792 -108.683204 
L 208.66389 -109.401767 
L 208.708236 -110.120329 
L 208.765949 -110.838891 
L 208.837068 -111.557453 
L 208.921564 -112.276016 
L 209.019332 -112.994578 
L 209.130204 -113.71314 
L 209.253944 -114.431703 
L 209.39026 -115.150265 
L 209.538801 -115.868827 
L 209.699165 -116.587389 
L 209.870906 -117.305952 
L 210.053531 -118.024514 
L 210.246514 -118.743076 
L 210.449292 -119.461638 
L 210.661275 -120.180201 
L 210.881848 -120.898763 
L 211.110376 -121.617325 
L 211.346207 -122.335888 
L 211.588676 -123.05445 
L 211.83711 -123.773012 
L 212.090828 -124.491574 
L 212.349148 -125.210137 
L 212.611388 -125.928699 
L 212.876868 -126.647261 
L 213.144914 -127.365823 
L 213.414862 -128.084386 
L 213.686054 -128.802948 
L 229.113946 -128.802948 
L 229.113946 -128.802948 
L 229.385138 -128.084386 
L 229.655086 -127.365823 
L 229.923132 -126.647261 
L 230.188612 -125.928699 
L 230.450852 -125.210137 
L 230.709172 -124.491574 
L 230.96289 -123.773012 
L 231.211324 -123.05445 
L 231.453793 -122.335888 
L 231.689624 -121.617325 
L 231.918152 -120.898763 
L 232.138725 -120.180201 
L 232.350708 -119.461638 
L 232.553486 -118.743076 
L 232.746469 -118.024514 
L 232.929094 -117.305952 
L 233.100835 -116.587389 
L 233.261199 -115.868827 
L 233.40974 -115.150265 
L 233.546056 -114.431703 
L 233.669796 -113.71314 
L 233.780668 -112.994578 
L 233.878436 -112.276016 
L 233.962932 -111.557453 
L 234.034051 -110.838891 
L 234.091764 -110.120329 
L 234.13611 -109.401767 
L 234.167208 -108.683204 
L 234.185252 -107.964642 
L 234.190514 -107.24608 
L 234.183345 -106.527518 
L 234.16417 -105.808955 
L 234.133493 -105.090393 
L 234.091889 -104.371831 
L 234.040002 -103.653269 
L 233.97854 -102.934706 
L 233.908273 -102.216144 
L 233.830022 -101.497582 
L 233.744655 -100.779019 
L 233.653079 -100.060457 
L 233.556229 -99.341895 
L 233.455064 -98.623333 
L 233.350552 -97.90477 
L 233.243664 -97.186208 
L 233.135359 -96.467646 
L 233.026582 -95.749084 
L 232.918245 -95.030521 
L 232.811222 -94.311959 
L 232.706338 -93.593397 
L 232.604359 -92.874834 
L 232.505985 -92.156272 
L 232.411842 -91.43771 
L 232.322471 -90.719148 
L 232.238327 -90.000585 
L 232.159772 -89.282023 
L 232.087071 -88.563461 
L 232.020389 -87.844899 
L 231.959791 -87.126336 
L 231.905239 -86.407774 
L 231.856597 -85.689212 
L 231.81363 -84.97065 
L 231.77601 -84.252087 
L 231.743319 -83.533525 
L 231.715058 -82.814963 
L 231.690649 -82.0964 
L 231.669447 -81.377838 
L 231.650748 -80.659276 
L 231.633794 -79.940714 
L 231.617791 -79.222151 
L 231.601912 -78.503589 
L 231.58531 -77.785027 
L 231.567127 -77.066465 
L 231.54651 -76.347902 
L 231.522613 -75.62934 
L 231.494613 -74.910778 
L 231.461717 -74.192215 
L 231.423173 -73.473653 
L 231.378274 -72.755091 
L 231.326371 -72.036529 
L 231.266876 -71.317966 
L 231.199268 -70.599404 
L 231.123099 -69.880842 
L 231.037998 -69.16228 
L 230.943671 -68.443717 
L 230.839909 -67.725155 
L 230.726581 -67.006593 
L 230.60364 -66.28803 
L 230.471119 -65.569468 
L 230.329131 -64.850906 
L 230.177866 -64.132344 
L 230.017584 -63.413781 
L 229.848618 -62.695219 
L 229.671362 -61.976657 
L 229.486271 -61.258095 
L 229.293854 -60.539532 
L 229.094667 -59.82097 
L 228.889308 -59.102408 
L 228.678409 -58.383846 
L 228.462633 -57.665283 
z
" style="stroke: #0000ff; stroke-width: 1.5"/>
    </defs>
    <g clip-path="url(#p7d052a846c)">
     <use xlink:href="#m501379cba8" x="0" y="288" style="fill: #ffffff; stroke: #0000ff; stroke-width: 1.5"/>
    </g>
   </g>
   <g id="PolyCollection_3">
    <defs>
     <path id="mb74fc86953" d="M 265.522737 -109.990505 
L 249.757263 -109.990505 
L 249.564083 -111.068124 
L 249.380167 -112.145744 
L 249.206156 -113.223364 
L 249.042629 -114.300984 
L 248.890101 -115.378603 
L 248.749018 -116.456223 
L 248.619752 -117.533843 
L 248.502599 -118.611463 
L 248.397779 -119.689082 
L 248.305432 -120.766702 
L 248.225622 -121.844322 
L 248.158334 -122.921942 
L 248.103476 -123.999562 
L 248.060886 -125.077181 
L 248.030332 -126.154801 
L 248.011514 -127.232421 
L 248.004075 -128.310041 
L 248.0076 -129.38766 
L 248.021629 -130.46528 
L 248.045654 -131.5429 
L 248.079137 -132.62052 
L 248.121505 -133.698139 
L 248.172169 -134.775759 
L 248.23052 -135.853379 
L 248.295943 -136.930999 
L 248.36782 -138.008619 
L 248.44554 -139.086238 
L 248.5285 -140.163858 
L 248.616115 -141.241478 
L 248.707817 -142.319098 
L 248.803068 -143.396717 
L 248.901355 -144.474337 
L 249.002197 -145.551957 
L 249.105147 -146.629577 
L 249.209795 -147.707196 
L 249.315766 -148.784816 
L 249.42272 -149.862436 
L 249.530355 -150.940056 
L 249.638404 -152.017675 
L 249.746633 -153.095295 
L 249.854841 -154.172915 
L 249.962857 -155.250535 
L 250.070535 -156.328155 
L 250.177756 -157.405774 
L 250.28442 -158.483394 
L 250.390448 -159.561014 
L 250.495775 -160.638634 
L 250.600349 -161.716253 
L 250.704126 -162.793873 
L 250.807072 -163.871493 
L 250.909156 -164.949113 
L 251.010351 -166.026732 
L 251.110629 -167.104352 
L 251.209963 -168.181972 
L 251.308324 -169.259592 
L 251.40568 -170.337211 
L 251.501998 -171.414831 
L 251.59724 -172.492451 
L 251.691366 -173.570071 
L 251.784336 -174.647691 
L 251.876106 -175.72531 
L 251.966634 -176.80293 
L 252.055878 -177.88055 
L 252.143799 -178.95817 
L 252.23036 -180.035789 
L 252.315531 -181.113409 
L 252.399287 -182.191029 
L 252.481614 -183.268649 
L 252.562504 -184.346268 
L 252.64196 -185.423888 
L 252.719997 -186.501508 
L 252.796642 -187.579128 
L 252.871934 -188.656747 
L 252.945926 -189.734367 
L 253.018683 -190.811987 
L 253.090283 -191.889607 
L 253.160815 -192.967227 
L 253.230383 -194.044846 
L 253.299098 -195.122466 
L 253.367082 -196.200086 
L 253.434466 -197.277706 
L 253.501386 -198.355325 
L 253.567983 -199.432945 
L 253.634402 -200.510565 
L 253.700789 -201.588185 
L 253.767287 -202.665804 
L 253.834039 -203.743424 
L 253.901183 -204.821044 
L 253.968847 -205.898664 
L 254.037153 -206.976284 
L 254.106212 -208.053903 
L 254.176123 -209.131523 
L 254.24697 -210.209143 
L 254.318826 -211.286763 
L 254.391742 -212.364382 
L 254.465758 -213.442002 
L 254.540892 -214.519622 
L 254.617147 -215.597242 
L 254.694506 -216.674861 
L 260.585494 -216.674861 
L 260.585494 -216.674861 
L 260.662853 -215.597242 
L 260.739108 -214.519622 
L 260.814242 -213.442002 
L 260.888258 -212.364382 
L 260.961174 -211.286763 
L 261.03303 -210.209143 
L 261.103877 -209.131523 
L 261.173788 -208.053903 
L 261.242847 -206.976284 
L 261.311153 -205.898664 
L 261.378817 -204.821044 
L 261.445961 -203.743424 
L 261.512713 -202.665804 
L 261.579211 -201.588185 
L 261.645598 -200.510565 
L 261.712017 -199.432945 
L 261.778614 -198.355325 
L 261.845534 -197.277706 
L 261.912918 -196.200086 
L 261.980902 -195.122466 
L 262.049617 -194.044846 
L 262.119185 -192.967227 
L 262.189717 -191.889607 
L 262.261317 -190.811987 
L 262.334074 -189.734367 
L 262.408066 -188.656747 
L 262.483358 -187.579128 
L 262.560003 -186.501508 
L 262.63804 -185.423888 
L 262.717496 -184.346268 
L 262.798386 -183.268649 
L 262.880713 -182.191029 
L 262.964469 -181.113409 
L 263.04964 -180.035789 
L 263.136201 -178.95817 
L 263.224122 -177.88055 
L 263.313366 -176.80293 
L 263.403894 -175.72531 
L 263.495664 -174.647691 
L 263.588634 -173.570071 
L 263.68276 -172.492451 
L 263.778002 -171.414831 
L 263.87432 -170.337211 
L 263.971676 -169.259592 
L 264.070037 -168.181972 
L 264.169371 -167.104352 
L 264.269649 -166.026732 
L 264.370844 -164.949113 
L 264.472928 -163.871493 
L 264.575874 -162.793873 
L 264.679651 -161.716253 
L 264.784225 -160.638634 
L 264.889552 -159.561014 
L 264.99558 -158.483394 
L 265.102244 -157.405774 
L 265.209465 -156.328155 
L 265.317143 -155.250535 
L 265.425159 -154.172915 
L 265.533367 -153.095295 
L 265.641596 -152.017675 
L 265.749645 -150.940056 
L 265.85728 -149.862436 
L 265.964234 -148.784816 
L 266.070205 -147.707196 
L 266.174853 -146.629577 
L 266.277803 -145.551957 
L 266.378645 -144.474337 
L 266.476932 -143.396717 
L 266.572183 -142.319098 
L 266.663885 -141.241478 
L 266.7515 -140.163858 
L 266.83446 -139.086238 
L 266.91218 -138.008619 
L 266.984057 -136.930999 
L 267.04948 -135.853379 
L 267.107831 -134.775759 
L 267.158495 -133.698139 
L 267.200863 -132.62052 
L 267.234346 -131.5429 
L 267.258371 -130.46528 
L 267.2724 -129.38766 
L 267.275925 -128.310041 
L 267.268486 -127.232421 
L 267.249668 -126.154801 
L 267.219114 -125.077181 
L 267.176524 -123.999562 
L 267.121666 -122.921942 
L 267.054378 -121.844322 
L 266.974568 -120.766702 
L 266.882221 -119.689082 
L 266.777401 -118.611463 
L 266.660248 -117.533843 
L 266.530982 -116.456223 
L 266.389899 -115.378603 
L 266.237371 -114.300984 
L 266.073844 -113.223364 
L 265.899833 -112.145744 
L 265.715917 -111.068124 
L 265.522737 -109.990505 
z
" style="stroke: #00fa9a; stroke-width: 1.5"/>
    </defs>
    <g clip-path="url(#p7d052a846c)">
     <use xlink:href="#mb74fc86953" x="0" y="288" style="fill: #ffffff; stroke: #00fa9a; stroke-width: 1.5"/>
    </g>
   </g>
   <g id="matplotlib.axis_1">
    <g id="xtick_1">
     <g id="text_1">
      <!-- 1 -->
      <g transform="translate(181.97875 266.598437)scale(0.1 -0.1)">
       <defs>
        <path id="DejaVuSans-31" d="M 794 531 
L 1825 531 
L 1825 4091 
L 703 3866 
L 703 4441 
L 1819 4666 
L 2450 4666 
L 2450 531 
L 3481 531 
L 3481 0 
L 794 0 
L 794 531 
z
" transform="scale(0.015625)"/>
       </defs>
       <use xlink:href="#DejaVuSans-31"/>
      </g>
     </g>
    </g>
    <g id="xtick_2">
     <g id="text_2">
      <!-- 2 -->
      <g transform="translate(218.21875 266.598437)scale(0.1 -0.1)">
       <defs>
        <path id="DejaVuSans-32" d="M 1228 531 
L 3431 531 
L 3431 0 
L 469 0 
L 469 531 
Q 828 903 1448 1529 
Q 2069 2156 2228 2338 
Q 2531 2678 2651 2914 
Q 2772 3150 2772 3378 
Q 2772 3750 2511 3984 
Q 2250 4219 1831 4219 
Q 1534 4219 1204 4116 
Q 875 4013 500 3803 
L 500 4441 
Q 881 4594 1212 4672 
Q 1544 4750 1819 4750 
Q 2544 4750 2975 4387 
Q 3406 4025 3406 3419 
Q 3406 3131 3298 2873 
Q 3191 2616 2906 2266 
Q 2828 2175 2409 1742 
Q 1991 1309 1228 531 
z
" transform="scale(0.015625)"/>
       </defs>
       <use xlink:href="#DejaVuSans-32"/>
      </g>
     </g>
    </g>
    <g id="xtick_3">
     <g id="text_3">
      <!-- 3 -->
      <g transform="translate(254.45875 266.598437)scale(0.1 -0.1)">
       <defs>
        <path id="DejaVuSans-33" d="M 2597 2516 
Q 3050 2419 3304 2112 
Q 3559 1806 3559 1356 
Q 3559 666 3084 287 
Q 2609 -91 1734 -91 
Q 1441 -91 1130 -33 
Q 819 25 488 141 
L 488 750 
Q 750 597 1062 519 
Q 1375 441 1716 441 
Q 2309 441 2620 675 
Q 2931 909 2931 1356 
Q 2931 1769 2642 2001 
Q 2353 2234 1838 2234 
L 1294 2234 
L 1294 2753 
L 1863 2753 
Q 2328 2753 2575 2939 
Q 2822 3125 2822 3475 
Q 2822 3834 2567 4026 
Q 2313 4219 1838 4219 
Q 1578 4219 1281 4162 
Q 984 4106 628 3988 
L 628 4550 
Q 988 4650 1302 4700 
Q 1616 4750 1894 4750 
Q 2613 4750 3031 4423 
Q 3450 4097 3450 3541 
Q 3450 3153 3228 2886 
Q 3006 2619 2597 2516 
z
" transform="scale(0.015625)"/>
       </defs>
       <use xlink:href="#DejaVuSans-33"/>
      </g>
     </g>
    </g>
    <g id="text_4">
     <!-- Glomerulus -->
     <g transform="translate(187.0125 281.79625)scale(0.12 -0.12)">
      <defs>
       <path id="DejaVuSans-47" d="M 3809 666 
L 3809 1919 
L 2778 1919 
L 2778 2438 
L 4434 2438 
L 4434 434 
Q 4069 175 3628 42 
Q 3188 -91 2688 -91 
Q 1594 -91 976 548 
Q 359 1188 359 2328 
Q 359 3472 976 4111 
Q 1594 4750 2688 4750 
Q 3144 4750 3555 4637 
Q 3966 4525 4313 4306 
L 4313 3634 
Q 3963 3931 3569 4081 
Q 3175 4231 2741 4231 
Q 1884 4231 1454 3753 
Q 1025 3275 1025 2328 
Q 1025 1384 1454 906 
Q 1884 428 2741 428 
Q 3075 428 3337 486 
Q 3600 544 3809 666 
z
" transform="scale(0.015625)"/>
       <path id="DejaVuSans-6c" d="M 603 4863 
L 1178 4863 
L 1178 0 
L 603 0 
L 603 4863 
z
" transform="scale(0.015625)"/>
       <path id="DejaVuSans-6f" d="M 1959 3097 
Q 1497 3097 1228 2736 
Q 959 2375 959 1747 
Q 959 1119 1226 758 
Q 1494 397 1959 397 
Q 2419 397 2687 759 
Q 2956 1122 2956 1747 
Q 2956 2369 2687 2733 
Q 2419 3097 1959 3097 
z
M 1959 3584 
Q 2709 3584 3137 3096 
Q 3566 2609 3566 1747 
Q 3566 888 3137 398 
Q 2709 -91 1959 -91 
Q 1206 -91 779 398 
Q 353 888 353 1747 
Q 353 2609 779 3096 
Q 1206 3584 1959 3584 
z
" transform="scale(0.015625)"/>
       <path id="DejaVuSans-6d" d="M 3328 2828 
Q 3544 3216 3844 3400 
Q 4144 3584 4550 3584 
Q 5097 3584 5394 3201 
Q 5691 2819 5691 2113 
L 5691 0 
L 5113 0 
L 5113 2094 
Q 5113 2597 4934 2840 
Q 4756 3084 4391 3084 
Q 3944 3084 3684 2787 
Q 3425 2491 3425 1978 
L 3425 0 
L 2847 0 
L 2847 2094 
Q 2847 2600 2669 2842 
Q 2491 3084 2119 3084 
Q 1678 3084 1418 2786 
Q 1159 2488 1159 1978 
L 1159 0 
L 581 0 
L 581 3500 
L 1159 3500 
L 1159 2956 
Q 1356 3278 1631 3431 
Q 1906 3584 2284 3584 
Q 2666 3584 2933 3390 
Q 3200 3197 3328 2828 
z
" transform="scale(0.015625)"/>
       <path id="DejaVuSans-65" d="M 3597 1894 
L 3597 1613 
L 953 1613 
Q 991 1019 1311 708 
Q 1631 397 2203 397 
Q 2534 397 2845 478 
Q 3156 559 3463 722 
L 3463 178 
Q 3153 47 2828 -22 
Q 2503 -91 2169 -91 
Q 1331 -91 842 396 
Q 353 884 353 1716 
Q 353 2575 817 3079 
Q 1281 3584 2069 3584 
Q 2775 3584 3186 3129 
Q 3597 2675 3597 1894 
z
M 3022 2063 
Q 3016 2534 2758 2815 
Q 2500 3097 2075 3097 
Q 1594 3097 1305 2825 
Q 1016 2553 972 2059 
L 3022 2063 
z
" transform="scale(0.015625)"/>
       <path id="DejaVuSans-72" d="M 2631 2963 
Q 2534 3019 2420 3045 
Q 2306 3072 2169 3072 
Q 1681 3072 1420 2755 
Q 1159 2438 1159 1844 
L 1159 0 
L 581 0 
L 581 3500 
L 1159 3500 
L 1159 2956 
Q 1341 3275 1631 3429 
Q 1922 3584 2338 3584 
Q 2397 3584 2469 3576 
Q 2541 3569 2628 3553 
L 2631 2963 
z
" transform="scale(0.015625)"/>
       <path id="DejaVuSans-75" d="M 544 1381 
L 544 3500 
L 1119 3500 
L 1119 1403 
Q 1119 906 1312 657 
Q 1506 409 1894 409 
Q 2359 409 2629 706 
Q 2900 1003 2900 1516 
L 2900 3500 
L 3475 3500 
L 3475 0 
L 2900 0 
L 2900 538 
Q 2691 219 2414 64 
Q 2138 -91 1772 -91 
Q 1169 -91 856 284 
Q 544 659 544 1381 
z
M 1991 3584 
L 1991 3584 
z
" transform="scale(0.015625)"/>
       <path id="DejaVuSans-73" d="M 2834 3397 
L 2834 2853 
Q 2591 2978 2328 3040 
Q 2066 3103 1784 3103 
Q 1356 3103 1142 2972 
Q 928 2841 928 2578 
Q 928 2378 1081 2264 
Q 1234 2150 1697 2047 
L 1894 2003 
Q 2506 1872 2764 1633 
Q 3022 1394 3022 966 
Q 3022 478 2636 193 
Q 2250 -91 1575 -91 
Q 1294 -91 989 -36 
Q 684 19 347 128 
L 347 722 
Q 666 556 975 473 
Q 1284 391 1588 391 
Q 1994 391 2212 530 
Q 2431 669 2431 922 
Q 2431 1156 2273 1281 
Q 2116 1406 1581 1522 
L 1381 1569 
Q 847 1681 609 1914 
Q 372 2147 372 2553 
Q 372 3047 722 3315 
Q 1072 3584 1716 3584 
Q 2034 3584 2315 3537 
Q 2597 3491 2834 3397 
z
" transform="scale(0.015625)"/>
      </defs>
      <use xlink:href="#DejaVuSans-47"/>
      <use xlink:href="#DejaVuSans-6c" x="77.490234"/>
      <use xlink:href="#DejaVuSans-6f" x="105.273438"/>
      <use xlink:href="#DejaVuSans-6d" x="166.455078"/>
      <use xlink:href="#DejaVuSans-65" x="263.867188"/>
      <use xlink:href="#DejaVuSans-72" x="325.390625"/>
      <use xlink:href="#DejaVuSans-75" x="366.503906"/>
      <use xlink:href="#DejaVuSans-6c" x="429.882812"/>
      <use xlink:href="#DejaVuSans-75" x="457.666016"/>
      <use xlink:href="#DejaVuSans-73" x="521.044922"/>
     </g>
    </g>
   </g>
   <g id="matplotlib.axis_2">
    <g id="ytick_1">
     <g id="line2d_1">
      <defs>
       <path id="m07e1a47af7" d="M 0 0 
L -3.5 0 
" style="stroke: #000000; stroke-width: 0.8"/>
      </defs>
      <g>
       <use xlink:href="#m07e1a47af7" x="167.04" y="252" style="stroke: #000000; stroke-width: 0.8"/>
      </g>
     </g>
     <g id="text_5">
      <!-- 0.00 -->
      <g transform="translate(137.774375 255.799219)scale(0.1 -0.1)">
       <defs>
        <path id="DejaVuSans-30" d="M 2034 4250 
Q 1547 4250 1301 3770 
Q 1056 3291 1056 2328 
Q 1056 1369 1301 889 
Q 1547 409 2034 409 
Q 2525 409 2770 889 
Q 3016 1369 3016 2328 
Q 3016 3291 2770 3770 
Q 2525 4250 2034 4250 
z
M 2034 4750 
Q 2819 4750 3233 4129 
Q 3647 3509 3647 2328 
Q 3647 1150 3233 529 
Q 2819 -91 2034 -91 
Q 1250 -91 836 529 
Q 422 1150 422 2328 
Q 422 3509 836 4129 
Q 1250 4750 2034 4750 
z
" transform="scale(0.015625)"/>
        <path id="DejaVuSans-2e" d="M 684 794 
L 1344 794 
L 1344 0 
L 684 0 
L 684 794 
z
" transform="scale(0.015625)"/>
       </defs>
       <use xlink:href="#DejaVuSans-30"/>
       <use xlink:href="#DejaVuSans-2e" x="63.623047"/>
       <use xlink:href="#DejaVuSans-30" x="95.410156"/>
       <use xlink:href="#DejaVuSans-30" x="159.033203"/>
      </g>
     </g>
    </g>
    <g id="ytick_2">
     <g id="line2d_2">
      <g>
       <use xlink:href="#m07e1a47af7" x="167.04" y="215.76" style="stroke: #000000; stroke-width: 0.8"/>
      </g>
     </g>
     <g id="text_6">
      <!-- 0.05 -->
      <g transform="translate(137.774375 219.559219)scale(0.1 -0.1)">
       <defs>
        <path id="DejaVuSans-35" d="M 691 4666 
L 3169 4666 
L 3169 4134 
L 1269 4134 
L 1269 2991 
Q 1406 3038 1543 3061 
Q 1681 3084 1819 3084 
Q 2600 3084 3056 2656 
Q 3513 2228 3513 1497 
Q 3513 744 3044 326 
Q 2575 -91 1722 -91 
Q 1428 -91 1123 -41 
Q 819 9 494 109 
L 494 744 
Q 775 591 1075 516 
Q 1375 441 1709 441 
Q 2250 441 2565 725 
Q 2881 1009 2881 1497 
Q 2881 1984 2565 2268 
Q 2250 2553 1709 2553 
Q 1456 2553 1204 2497 
Q 953 2441 691 2322 
L 691 4666 
z
" transform="scale(0.015625)"/>
       </defs>
       <use xlink:href="#DejaVuSans-30"/>
       <use xlink:href="#DejaVuSans-2e" x="63.623047"/>
       <use xlink:href="#DejaVuSans-30" x="95.410156"/>
       <use xlink:href="#DejaVuSans-35" x="159.033203"/>
      </g>
     </g>
    </g>
    <g id="ytick_3">
     <g id="line2d_3">
      <g>
       <use xlink:href="#m07e1a47af7" x="167.04" y="179.52" style="stroke: #000000; stroke-width: 0.8"/>
      </g>
     </g>
     <g id="text_7">
      <!-- 0.10 -->
      <g transform="translate(137.774375 183.319219)scale(0.1 -0.1)">
       <use xlink:href="#DejaVuSans-30"/>
       <use xlink:href="#DejaVuSans-2e" x="63.623047"/>
       <use xlink:href="#DejaVuSans-31" x="95.410156"/>
       <use xlink:href="#DejaVuSans-30" x="159.033203"/>
      </g>
     </g>
    </g>
    <g id="ytick_4">
     <g id="line2d_4">
      <g>
       <use xlink:href="#m07e1a47af7" x="167.04" y="143.28" style="stroke: #000000; stroke-width: 0.8"/>
      </g>
     </g>
     <g id="text_8">
      <!-- 0.15 -->
      <g transform="translate(137.774375 147.079219)scale(0.1 -0.1)">
       <use xlink:href="#DejaVuSans-30"/>
       <use xlink:href="#DejaVuSans-2e" x="63.623047"/>
       <use xlink:href="#DejaVuSans-31" x="95.410156"/>
       <use xlink:href="#DejaVuSans-35" x="159.033203"/>
      </g>
     </g>
    </g>
    <g id="ytick_5">
     <g id="line2d_5">
      <g>
       <use xlink:href="#m07e1a47af7" x="167.04" y="107.04" style="stroke: #000000; stroke-width: 0.8"/>
      </g>
     </g>
     <g id="text_9">
      <!-- 0.20 -->
      <g transform="translate(137.774375 110.839219)scale(0.1 -0.1)">
       <use xlink:href="#DejaVuSans-30"/>
       <use xlink:href="#DejaVuSans-2e" x="63.623047"/>
       <use xlink:href="#DejaVuSans-32" x="95.410156"/>
       <use xlink:href="#DejaVuSans-30" x="159.033203"/>
      </g>
     </g>
    </g>
    <g id="ytick_6">
     <g id="line2d_6">
      <g>
       <use xlink:href="#m07e1a47af7" x="167.04" y="70.8" style="stroke: #000000; stroke-width: 0.8"/>
      </g>
     </g>
     <g id="text_10">
      <!-- 0.25 -->
      <g transform="translate(137.774375 74.599219)scale(0.1 -0.1)">
       <use xlink:href="#DejaVuSans-30"/>
       <use xlink:href="#DejaVuSans-2e" x="63.623047"/>
       <use xlink:href="#DejaVuSans-32" x="95.410156"/>
       <use xlink:href="#DejaVuSans-35" x="159.033203"/>
      </g>
     </g>
    </g>
    <g id="ytick_7">
     <g id="line2d_7">
      <g>
       <use xlink:href="#m07e1a47af7" x="167.04" y="34.56" style="stroke: #000000; stroke-width: 0.8"/>
      </g>
     </g>
     <g id="text_11">
      <!-- 0.30 -->
      <g transform="translate(137.774375 38.359219)scale(0.1 -0.1)">
       <use xlink:href="#DejaVuSans-30"/>
       <use xlink:href="#DejaVuSans-2e" x="63.623047"/>
       <use xlink:href="#DejaVuSans-33" x="95.410156"/>
       <use xlink:href="#DejaVuSans-30" x="159.033203"/>
      </g>
     </g>
    </g>
    <g id="text_12">
     <!-- Synapse density (synapses/µm) -->
     <g transform="translate(131.27875 238.832812)rotate(-90)scale(0.12 -0.12)">
      <defs>
       <path id="DejaVuSans-53" d="M 3425 4513 
L 3425 3897 
Q 3066 4069 2747 4153 
Q 2428 4238 2131 4238 
Q 1616 4238 1336 4038 
Q 1056 3838 1056 3469 
Q 1056 3159 1242 3001 
Q 1428 2844 1947 2747 
L 2328 2669 
Q 3034 2534 3370 2195 
Q 3706 1856 3706 1288 
Q 3706 609 3251 259 
Q 2797 -91 1919 -91 
Q 1588 -91 1214 -16 
Q 841 59 441 206 
L 441 856 
Q 825 641 1194 531 
Q 1563 422 1919 422 
Q 2459 422 2753 634 
Q 3047 847 3047 1241 
Q 3047 1584 2836 1778 
Q 2625 1972 2144 2069 
L 1759 2144 
Q 1053 2284 737 2584 
Q 422 2884 422 3419 
Q 422 4038 858 4394 
Q 1294 4750 2059 4750 
Q 2388 4750 2728 4690 
Q 3069 4631 3425 4513 
z
" transform="scale(0.015625)"/>
       <path id="DejaVuSans-79" d="M 2059 -325 
Q 1816 -950 1584 -1140 
Q 1353 -1331 966 -1331 
L 506 -1331 
L 506 -850 
L 844 -850 
Q 1081 -850 1212 -737 
Q 1344 -625 1503 -206 
L 1606 56 
L 191 3500 
L 800 3500 
L 1894 763 
L 2988 3500 
L 3597 3500 
L 2059 -325 
z
" transform="scale(0.015625)"/>
       <path id="DejaVuSans-6e" d="M 3513 2113 
L 3513 0 
L 2938 0 
L 2938 2094 
Q 2938 2591 2744 2837 
Q 2550 3084 2163 3084 
Q 1697 3084 1428 2787 
Q 1159 2491 1159 1978 
L 1159 0 
L 581 0 
L 581 3500 
L 1159 3500 
L 1159 2956 
Q 1366 3272 1645 3428 
Q 1925 3584 2291 3584 
Q 2894 3584 3203 3211 
Q 3513 2838 3513 2113 
z
" transform="scale(0.015625)"/>
       <path id="DejaVuSans-61" d="M 2194 1759 
Q 1497 1759 1228 1600 
Q 959 1441 959 1056 
Q 959 750 1161 570 
Q 1363 391 1709 391 
Q 2188 391 2477 730 
Q 2766 1069 2766 1631 
L 2766 1759 
L 2194 1759 
z
M 3341 1997 
L 3341 0 
L 2766 0 
L 2766 531 
Q 2569 213 2275 61 
Q 1981 -91 1556 -91 
Q 1019 -91 701 211 
Q 384 513 384 1019 
Q 384 1609 779 1909 
Q 1175 2209 1959 2209 
L 2766 2209 
L 2766 2266 
Q 2766 2663 2505 2880 
Q 2244 3097 1772 3097 
Q 1472 3097 1187 3025 
Q 903 2953 641 2809 
L 641 3341 
Q 956 3463 1253 3523 
Q 1550 3584 1831 3584 
Q 2591 3584 2966 3190 
Q 3341 2797 3341 1997 
z
" transform="scale(0.015625)"/>
       <path id="DejaVuSans-70" d="M 1159 525 
L 1159 -1331 
L 581 -1331 
L 581 3500 
L 1159 3500 
L 1159 2969 
Q 1341 3281 1617 3432 
Q 1894 3584 2278 3584 
Q 2916 3584 3314 3078 
Q 3713 2572 3713 1747 
Q 3713 922 3314 415 
Q 2916 -91 2278 -91 
Q 1894 -91 1617 61 
Q 1341 213 1159 525 
z
M 3116 1747 
Q 3116 2381 2855 2742 
Q 2594 3103 2138 3103 
Q 1681 3103 1420 2742 
Q 1159 2381 1159 1747 
Q 1159 1113 1420 752 
Q 1681 391 2138 391 
Q 2594 391 2855 752 
Q 3116 1113 3116 1747 
z
" transform="scale(0.015625)"/>
       <path id="DejaVuSans-20" transform="scale(0.015625)"/>
       <path id="DejaVuSans-64" d="M 2906 2969 
L 2906 4863 
L 3481 4863 
L 3481 0 
L 2906 0 
L 2906 525 
Q 2725 213 2448 61 
Q 2172 -91 1784 -91 
Q 1150 -91 751 415 
Q 353 922 353 1747 
Q 353 2572 751 3078 
Q 1150 3584 1784 3584 
Q 2172 3584 2448 3432 
Q 2725 3281 2906 2969 
z
M 947 1747 
Q 947 1113 1208 752 
Q 1469 391 1925 391 
Q 2381 391 2643 752 
Q 2906 1113 2906 1747 
Q 2906 2381 2643 2742 
Q 2381 3103 1925 3103 
Q 1469 3103 1208 2742 
Q 947 2381 947 1747 
z
" transform="scale(0.015625)"/>
       <path id="DejaVuSans-69" d="M 603 3500 
L 1178 3500 
L 1178 0 
L 603 0 
L 603 3500 
z
M 603 4863 
L 1178 4863 
L 1178 4134 
L 603 4134 
L 603 4863 
z
" transform="scale(0.015625)"/>
       <path id="DejaVuSans-74" d="M 1172 4494 
L 1172 3500 
L 2356 3500 
L 2356 3053 
L 1172 3053 
L 1172 1153 
Q 1172 725 1289 603 
Q 1406 481 1766 481 
L 2356 481 
L 2356 0 
L 1766 0 
Q 1100 0 847 248 
Q 594 497 594 1153 
L 594 3053 
L 172 3053 
L 172 3500 
L 594 3500 
L 594 4494 
L 1172 4494 
z
" transform="scale(0.015625)"/>
       <path id="DejaVuSans-28" d="M 1984 4856 
Q 1566 4138 1362 3434 
Q 1159 2731 1159 2009 
Q 1159 1288 1364 580 
Q 1569 -128 1984 -844 
L 1484 -844 
Q 1016 -109 783 600 
Q 550 1309 550 2009 
Q 550 2706 781 3412 
Q 1013 4119 1484 4856 
L 1984 4856 
z
" transform="scale(0.015625)"/>
       <path id="DejaVuSans-2f" d="M 1625 4666 
L 2156 4666 
L 531 -594 
L 0 -594 
L 1625 4666 
z
" transform="scale(0.015625)"/>
       <path id="DejaVuSans-b5" d="M 544 -1331 
L 544 3500 
L 1119 3500 
L 1119 1325 
Q 1119 872 1334 640 
Q 1550 409 1972 409 
Q 2434 409 2667 671 
Q 2900 934 2900 1459 
L 2900 3500 
L 3475 3500 
L 3475 806 
Q 3475 619 3529 530 
Q 3584 441 3700 441 
Q 3728 441 3778 458 
Q 3828 475 3916 513 
L 3916 50 
Q 3788 -22 3673 -56 
Q 3559 -91 3450 -91 
Q 3234 -91 3106 31 
Q 2978 153 2931 403 
Q 2775 156 2548 32 
Q 2322 -91 2016 -91 
Q 1697 -91 1473 31 
Q 1250 153 1119 397 
L 1119 -1331 
L 544 -1331 
z
" transform="scale(0.015625)"/>
       <path id="DejaVuSans-29" d="M 513 4856 
L 1013 4856 
Q 1481 4119 1714 3412 
Q 1947 2706 1947 2009 
Q 1947 1309 1714 600 
Q 1481 -109 1013 -844 
L 513 -844 
Q 928 -128 1133 580 
Q 1338 1288 1338 2009 
Q 1338 2731 1133 3434 
Q 928 4138 513 4856 
z
" transform="scale(0.015625)"/>
      </defs>
      <use xlink:href="#DejaVuSans-53"/>
      <use xlink:href="#DejaVuSans-79" x="63.476562"/>
      <use xlink:href="#DejaVuSans-6e" x="122.65625"/>
      <use xlink:href="#DejaVuSans-61" x="186.035156"/>
      <use xlink:href="#DejaVuSans-70" x="247.314453"/>
      <use xlink:href="#DejaVuSans-73" x="310.791016"/>
      <use xlink:href="#DejaVuSans-65" x="362.890625"/>
      <use xlink:href="#DejaVuSans-20" x="424.414062"/>
      <use xlink:href="#DejaVuSans-64" x="456.201172"/>
      <use xlink:href="#DejaVuSans-65" x="519.677734"/>
      <use xlink:href="#DejaVuSans-6e" x="581.201172"/>
      <use xlink:href="#DejaVuSans-73" x="644.580078"/>
      <use xlink:href="#DejaVuSans-69" x="696.679688"/>
      <use xlink:href="#DejaVuSans-74" x="724.462891"/>
      <use xlink:href="#DejaVuSans-79" x="763.671875"/>
      <use xlink:href="#DejaVuSans-20" x="822.851562"/>
      <use xlink:href="#DejaVuSans-28" x="854.638672"/>
      <use xlink:href="#DejaVuSans-73" x="893.652344"/>
      <use xlink:href="#DejaVuSans-79" x="945.751953"/>
      <use xlink:href="#DejaVuSans-6e" x="1004.931641"/>
      <use xlink:href="#DejaVuSans-61" x="1068.310547"/>
      <use xlink:href="#DejaVuSans-70" x="1129.589844"/>
      <use xlink:href="#DejaVuSans-73" x="1193.066406"/>
      <use xlink:href="#DejaVuSans-65" x="1245.166016"/>
      <use xlink:href="#DejaVuSans-73" x="1306.689453"/>
      <use xlink:href="#DejaVuSans-2f" x="1358.789062"/>
      <use xlink:href="#DejaVuSans-b5" x="1392.480469"/>
      <use xlink:href="#DejaVuSans-6d" x="1456.103516"/>
      <use xlink:href="#DejaVuSans-29" x="1553.515625"/>
     </g>
    </g>
   </g>
   <g id="line2d_8">
    <path d="M 174.670728 144.294581 
L 195.649272 144.294581 
" clip-path="url(#p7d052a846c)" style="fill: none; stroke: #000000; stroke-width: 1.5; stroke-linecap: square"/>
   </g>
   <g id="line2d_9">
    <path d="M 210.10289 193.402461 
L 232.69711 193.402461 
" clip-path="url(#p7d052a846c)" style="fill: none; stroke: #000000; stroke-width: 1.5; stroke-linecap: square"/>
   </g>
   <g id="line2d_10">
    <path d="M 249.399008 139.131717 
L 265.880992 139.131717 
" clip-path="url(#p7d052a846c)" style="fill: none; stroke: #000000; stroke-width: 1.5; stroke-linecap: square"/>
   </g>
   <g id="patch_3">
    <path d="M 167.04 252 
L 167.04 34.56 
" style="fill: none; stroke: #000000; stroke-width: 0.8; stroke-linejoin: miter; stroke-linecap: square"/>
   </g>
   <g id="PathCollection_1">
    <defs>
     <path id="C0_0_fde10f7ce8" d="M 0 2.5 
C 0.663008 2.5 1.29895 2.236584 1.767767 1.767767 
C 2.236584 1.29895 2.5 0.663008 2.5 -0 
C 2.5 -0.663008 2.236584 -1.29895 1.767767 -1.767767 
C 1.29895 -2.236584 0.663008 -2.5 0 -2.5 
C -0.663008 -2.5 -1.29895 -2.236584 -1.767767 -1.767767 
C -2.236584 -1.29895 -2.5 -0.663008 -2.5 0 
C -2.5 0.663008 -2.236584 1.29895 -1.767767 1.767767 
C -1.29895 2.236584 -0.663008 2.5 0 2.5 
z
"/>
    </defs>
    <g clip-path="url(#p7d052a846c)">
     <use xlink:href="#C0_0_fde10f7ce8" x="187.814454" y="103.423173" style="fill: #ee82ee"/>
    </g>
    <g clip-path="url(#p7d052a846c)">
     <use xlink:href="#C0_0_fde10f7ce8" x="188.741113" y="161.128681" style="fill: #ee82ee"/>
    </g>
    <g clip-path="url(#p7d052a846c)">
     <use xlink:href="#C0_0_fde10f7ce8" x="186.467017" y="166.721569" style="fill: #ee82ee"/>
    </g>
    <g clip-path="url(#p7d052a846c)">
     <use xlink:href="#C0_0_fde10f7ce8" x="188.336354" y="162.585755" style="fill: #ee82ee"/>
    </g>
    <g clip-path="url(#p7d052a846c)">
     <use xlink:href="#C0_0_fde10f7ce8" x="181.555736" y="150.324735" style="fill: #ee82ee"/>
    </g>
    <g clip-path="url(#p7d052a846c)">
     <use xlink:href="#C0_0_fde10f7ce8" x="184.947293" y="100.102377" style="fill: #ee82ee"/>
    </g>
    <g clip-path="url(#p7d052a846c)">
     <use xlink:href="#C0_0_fde10f7ce8" x="183.407278" y="117.872938" style="fill: #ee82ee"/>
    </g>
    <g clip-path="url(#p7d052a846c)">
     <use xlink:href="#C0_0_fde10f7ce8" x="188.061542" y="160.352454" style="fill: #ee82ee"/>
    </g>
    <g clip-path="url(#p7d052a846c)">
     <use xlink:href="#C0_0_fde10f7ce8" x="187.84503" y="150.170202" style="fill: #ee82ee"/>
    </g>
    <g clip-path="url(#p7d052a846c)">
     <use xlink:href="#C0_0_fde10f7ce8" x="182.446429" y="170.263922" style="fill: #ee82ee"/>
    </g>
   </g>
   <g id="PathCollection_2">
    <defs>
     <path id="C1_0_47da851bde" d="M 0 2.5 
C 0.663008 2.5 1.29895 2.236584 1.767767 1.767767 
C 2.236584 1.29895 2.5 0.663008 2.5 -0 
C 2.5 -0.663008 2.236584 -1.29895 1.767767 -1.767767 
C 1.29895 -2.236584 0.663008 -2.5 0 -2.5 
C -0.663008 -2.5 -1.29895 -2.236584 -1.767767 -1.767767 
C -2.236584 -1.29895 -2.5 -0.663008 -2.5 0 
C -2.5 0.663008 -2.236584 1.29895 -1.767767 1.767767 
C -1.29895 2.236584 -0.663008 2.5 0 2.5 
z
"/>
    </defs>
    <g clip-path="url(#p7d052a846c)">
     <use xlink:href="#C1_0_47da851bde" x="219.331395" y="216.583765" style="fill: #0000ff"/>
    </g>
    <g clip-path="url(#p7d052a846c)">
     <use xlink:href="#C1_0_47da851bde" x="220.54107" y="175.16752" style="fill: #0000ff"/>
    </g>
    <g clip-path="url(#p7d052a846c)">
     <use xlink:href="#C1_0_47da851bde" x="223.828405" y="168.350317" style="fill: #0000ff"/>
    </g>
    <g clip-path="url(#p7d052a846c)">
     <use xlink:href="#C1_0_47da851bde" x="221.162154" y="209.313964" style="fill: #0000ff"/>
    </g>
    <g clip-path="url(#p7d052a846c)">
     <use xlink:href="#C1_0_47da851bde" x="218.912785" y="182.932533" style="fill: #0000ff"/>
    </g>
    <g clip-path="url(#p7d052a846c)">
     <use xlink:href="#C1_0_47da851bde" x="222.250884" y="184.902599" style="fill: #0000ff"/>
    </g>
    <g clip-path="url(#p7d052a846c)">
     <use xlink:href="#C1_0_47da851bde" x="223.624723" y="188.598924" style="fill: #0000ff"/>
    </g>
    <g clip-path="url(#p7d052a846c)">
     <use xlink:href="#C1_0_47da851bde" x="224.638511" y="218.643224" style="fill: #0000ff"/>
    </g>
    <g clip-path="url(#p7d052a846c)">
     <use xlink:href="#C1_0_47da851bde" x="219.979087" y="159.197052" style="fill: #0000ff"/>
    </g>
    <g clip-path="url(#p7d052a846c)">
     <use xlink:href="#C1_0_47da851bde" x="218.637114" y="230.334717" style="fill: #0000ff"/>
    </g>
   </g>
   <g id="PathCollection_3">
    <defs>
     <path id="C2_0_b666464b81" d="M 0 2.5 
C 0.663008 2.5 1.29895 2.236584 1.767767 1.767767 
C 2.236584 1.29895 2.5 0.663008 2.5 -0 
C 2.5 -0.663008 2.236584 -1.29895 1.767767 -1.767767 
C 1.29895 -2.236584 0.663008 -2.5 0 -2.5 
C -0.663008 -2.5 -1.29895 -2.236584 -1.767767 -1.767767 
C -2.236584 -1.29895 -2.5 -0.663008 -2.5 0 
C -2.5 0.663008 -2.236584 1.29895 -1.767767 1.767767 
C -1.29895 2.236584 -0.663008 2.5 0 2.5 
z
"/>
    </defs>
    <g clip-path="url(#p7d052a846c)">
     <use xlink:href="#C2_0_b666464b81" x="257.734213" y="162.982202" style="fill: #00fa9a"/>
    </g>
    <g clip-path="url(#p7d052a846c)">
     <use xlink:href="#C2_0_b666464b81" x="259.225845" y="141.008301" style="fill: #00fa9a"/>
    </g>
    <g clip-path="url(#p7d052a846c)">
     <use xlink:href="#C2_0_b666464b81" x="259.759689" y="178.009495" style="fill: #00fa9a"/>
    </g>
    <g clip-path="url(#p7d052a846c)">
     <use xlink:href="#C2_0_b666464b81" x="254.1543" y="159.653947" style="fill: #00fa9a"/>
    </g>
    <g clip-path="url(#p7d052a846c)">
     <use xlink:href="#C2_0_b666464b81" x="255.456548" y="165.170653" style="fill: #00fa9a"/>
    </g>
    <g clip-path="url(#p7d052a846c)">
     <use xlink:href="#C2_0_b666464b81" x="260.029607" y="173.490344" style="fill: #00fa9a"/>
    </g>
    <g clip-path="url(#p7d052a846c)">
     <use xlink:href="#C2_0_b666464b81" x="259.265539" y="71.325139" style="fill: #00fa9a"/>
    </g>
    <g clip-path="url(#p7d052a846c)">
     <use xlink:href="#C2_0_b666464b81" x="255.123047" y="121.801645" style="fill: #00fa9a"/>
    </g>
    <g clip-path="url(#p7d052a846c)">
     <use xlink:href="#C2_0_b666464b81" x="256.634831" y="123.834982" style="fill: #00fa9a"/>
    </g>
    <g clip-path="url(#p7d052a846c)">
     <use xlink:href="#C2_0_b666464b81" x="254.231439" y="94.04046" style="fill: #00fa9a"/>
    </g>
   </g>
  </g>
 </g>
 <defs>
  <clipPath id="p7d052a846c">
   <rect x="167.04" y="34.56" width="108.72" height="217.44"/>
  </clipPath>
 </defs>
</svg>
