<?xml version="1.0" encoding="utf-8" standalone="no"?>
<!DOCTYPE svg PUBLIC "-//W3C//DTD SVG 1.1//EN"
  "http://www.w3.org/Graphics/SVG/1.1/DTD/svg11.dtd">
<svg xmlns:xlink="http://www.w3.org/1999/xlink" width="432pt" height="288pt" viewBox="0 0 432 288" xmlns="http://www.w3.org/2000/svg" version="1.1">
 <metadata>
  <rdf:RDF xmlns:dc="http://purl.org/dc/elements/1.1/" xmlns:cc="http://creativecommons.org/ns#" xmlns:rdf="http://www.w3.org/1999/02/22-rdf-syntax-ns#">
   <cc:Work>
    <dc:type rdf:resource="http://purl.org/dc/dcmitype/StillImage"/>
    <dc:date>2024-01-28T09:39:40.456796</dc:date>
    <dc:format>image/svg+xml</dc:format>
    <dc:creator>
     <cc:Agent>
      <dc:title>Matplotlib v3.5.1, https://matplotlib.org/</dc:title>
     </cc:Agent>
    </dc:creator>
   </cc:Work>
  </rdf:RDF>
 </metadata>
 <defs>
  <style type="text/css">*{stroke-linejoin: round; stroke-linecap: butt}</style>
 </defs>
 <g id="figure_1">
  <g id="patch_1">
   <path d="M 0 288 
L 432 288 
L 432 0 
L 0 0 
L 0 288 
z
" style="fill: none"/>
  </g>
  <g id="axes_1">
   <g id="patch_2">
    <path d="M 171.221538 252 
L 271.578462 252 
L 271.578462 34.56 
L 171.221538 34.56 
z
" style="fill: #ffffff"/>
   </g>
   <g id="PolyCollection_1">
    <defs>
     <path id="m839df6a220" d="M 193.687606 -169.709074 
L 182.207778 -169.709074 
L 182.063943 -170.326522 
L 181.923603 -170.943969 
L 181.78711 -171.561417 
L 181.654805 -172.178865 
L 181.527018 -172.796312 
L 181.404065 -173.41376 
L 181.286244 -174.031208 
L 181.173838 -174.648655 
L 181.06711 -175.266103 
L 180.966302 -175.88355 
L 180.871636 -176.500998 
L 180.783312 -177.118446 
L 180.701502 -177.735893 
L 180.626359 -178.353341 
L 180.558005 -178.970789 
L 180.496539 -179.588236 
L 180.442031 -180.205684 
L 180.394524 -180.823132 
L 180.354032 -181.440579 
L 180.320542 -182.058027 
L 180.294011 -182.675474 
L 180.274369 -183.292922 
L 180.261514 -183.91037 
L 180.255321 -184.527817 
L 180.255632 -185.145265 
L 180.262264 -185.762713 
L 180.275007 -186.38016 
L 180.293626 -186.997608 
L 180.317858 -187.615055 
L 180.347418 -188.232503 
L 180.381999 -188.849951 
L 180.42127 -189.467398 
L 180.464883 -190.084846 
L 180.512469 -190.702294 
L 180.563645 -191.319741 
L 180.618011 -191.937189 
L 180.675157 -192.554637 
L 180.73466 -193.172084 
L 180.796091 -193.789532 
L 180.859014 -194.406979 
L 180.922991 -195.024427 
L 180.987583 -195.641875 
L 181.052353 -196.259322 
L 181.116869 -196.87677 
L 181.180706 -197.494218 
L 181.24345 -198.111665 
L 181.304701 -198.729113 
L 181.364072 -199.34656 
L 181.421199 -199.964008 
L 181.475736 -200.581456 
L 181.527363 -201.198903 
L 181.575784 -201.816351 
L 181.620735 -202.433799 
L 181.66198 -203.051246 
L 181.699319 -203.668694 
L 181.732585 -204.286141 
L 181.761649 -204.903589 
L 181.786417 -205.521037 
L 181.806837 -206.138484 
L 181.822896 -206.755932 
L 181.83462 -207.37338 
L 181.842077 -207.990827 
L 181.845375 -208.608275 
L 181.844663 -209.225723 
L 181.840126 -209.84317 
L 181.83199 -210.460618 
L 181.820518 -211.078065 
L 181.806006 -211.695513 
L 181.788783 -212.312961 
L 181.76921 -212.930408 
L 181.747676 -213.547856 
L 181.724592 -214.165304 
L 181.700395 -214.782751 
L 181.675537 -215.400199 
L 181.650486 -216.017646 
L 181.625722 -216.635094 
L 181.601732 -217.252542 
L 181.579006 -217.869989 
L 181.558033 -218.487437 
L 181.539299 -219.104885 
L 181.523281 -219.722332 
L 181.510441 -220.33978 
L 181.50123 -220.957228 
L 181.496075 -221.574675 
L 181.495381 -222.192123 
L 181.499527 -222.80957 
L 181.508862 -223.427018 
L 181.523702 -224.044466 
L 181.54433 -224.661913 
L 181.570989 -225.279361 
L 181.603886 -225.896809 
L 181.643186 -226.514256 
L 181.689014 -227.131704 
L 181.74145 -227.749151 
L 181.800535 -228.366599 
L 181.866266 -228.984047 
L 181.938596 -229.601494 
L 182.017439 -230.218942 
L 182.102667 -230.83639 
L 193.792718 -230.83639 
L 193.792718 -230.83639 
L 193.877946 -230.218942 
L 193.956789 -229.601494 
L 194.029119 -228.984047 
L 194.094849 -228.366599 
L 194.153934 -227.749151 
L 194.206371 -227.131704 
L 194.252199 -226.514256 
L 194.291499 -225.896809 
L 194.324396 -225.279361 
L 194.351055 -224.661913 
L 194.371682 -224.044466 
L 194.386523 -223.427018 
L 194.395858 -222.80957 
L 194.400004 -222.192123 
L 194.39931 -221.574675 
L 194.394155 -220.957228 
L 194.384943 -220.33978 
L 194.372104 -219.722332 
L 194.356085 -219.104885 
L 194.337351 -218.487437 
L 194.316378 -217.869989 
L 194.293652 -217.252542 
L 194.269662 -216.635094 
L 194.244898 -216.017646 
L 194.219848 -215.400199 
L 194.19499 -214.782751 
L 194.170792 -214.165304 
L 194.147709 -213.547856 
L 194.126174 -212.930408 
L 194.106602 -212.312961 
L 194.089379 -211.695513 
L 194.074867 -211.078065 
L 194.063394 -210.460618 
L 194.055259 -209.84317 
L 194.050722 -209.225723 
L 194.050009 -208.608275 
L 194.053307 -207.990827 
L 194.060765 -207.37338 
L 194.072489 -206.755932 
L 194.088548 -206.138484 
L 194.108968 -205.521037 
L 194.133736 -204.903589 
L 194.162799 -204.286141 
L 194.196065 -203.668694 
L 194.233404 -203.051246 
L 194.27465 -202.433799 
L 194.319601 -201.816351 
L 194.368022 -201.198903 
L 194.419648 -200.581456 
L 194.474185 -199.964008 
L 194.531312 -199.34656 
L 194.590684 -198.729113 
L 194.651934 -198.111665 
L 194.714679 -197.494218 
L 194.778516 -196.87677 
L 194.843031 -196.259322 
L 194.907801 -195.641875 
L 194.972393 -195.024427 
L 195.036371 -194.406979 
L 195.099294 -193.789532 
L 195.160725 -193.172084 
L 195.220228 -192.554637 
L 195.277373 -191.937189 
L 195.331739 -191.319741 
L 195.382915 -190.702294 
L 195.430502 -190.084846 
L 195.474114 -189.467398 
L 195.513386 -188.849951 
L 195.547966 -188.232503 
L 195.577527 -187.615055 
L 195.601759 -186.997608 
L 195.620377 -186.38016 
L 195.633121 -185.762713 
L 195.639753 -185.145265 
L 195.640064 -184.527817 
L 195.63387 -183.91037 
L 195.621016 -183.292922 
L 195.601373 -182.675474 
L 195.574842 -182.058027 
L 195.541352 -181.440579 
L 195.500861 -180.823132 
L 195.453353 -180.205684 
L 195.398845 -179.588236 
L 195.337379 -178.970789 
L 195.269026 -178.353341 
L 195.193882 -177.735893 
L 195.112073 -177.118446 
L 195.023748 -176.500998 
L 194.929083 -175.88355 
L 194.828275 -175.266103 
L 194.721547 -174.648655 
L 194.60914 -174.031208 
L 194.49132 -173.41376 
L 194.368366 -172.796312 
L 194.24058 -172.178865 
L 194.108275 -171.561417 
L 193.971782 -170.943969 
L 193.831441 -170.326522 
L 193.687606 -169.709074 
z
" style="stroke: #ee82ee; stroke-width: 1.5"/>
    </defs>
    <g clip-path="url(#pacd12cf6ac)">
     <use xlink:href="#m839df6a220" x="0" y="288" style="fill: #ffffff; stroke: #ee82ee; stroke-width: 1.5"/>
    </g>
   </g>
   <g id="PolyCollection_2">
    <defs>
     <path id="m52875a3bbf" d="M 226.622988 -119.798366 
L 216.177012 -119.798366 
L 215.965068 -120.402909 
L 215.750934 -121.007452 
L 215.534935 -121.611996 
L 215.317419 -122.216539 
L 215.098757 -122.821082 
L 214.87934 -123.425625 
L 214.659583 -124.030169 
L 214.439924 -124.634712 
L 214.220825 -125.239255 
L 214.002774 -125.843798 
L 213.78628 -126.448341 
L 213.571878 -127.052885 
L 213.360122 -127.657428 
L 213.151589 -128.261971 
L 212.946877 -128.866514 
L 212.746597 -129.471057 
L 212.551379 -130.075601 
L 212.361859 -130.680144 
L 212.178686 -131.284687 
L 212.002508 -131.88923 
L 211.833974 -132.493774 
L 211.673728 -133.098317 
L 211.522402 -133.70286 
L 211.380611 -134.307403 
L 211.248948 -134.911946 
L 211.127979 -135.51649 
L 211.018235 -136.121033 
L 210.920208 -136.725576 
L 210.834343 -137.330119 
L 210.761035 -137.934663 
L 210.700622 -138.539206 
L 210.65338 -139.143749 
L 210.61952 -139.748292 
L 210.599183 -140.352835 
L 210.592438 -140.957379 
L 210.599275 -141.561922 
L 210.619609 -142.166465 
L 210.653278 -142.771008 
L 210.700037 -143.375552 
L 210.759567 -143.980095 
L 210.831471 -144.584638 
L 210.915275 -145.189181 
L 211.010439 -145.793724 
L 211.116351 -146.398268 
L 211.232342 -147.002811 
L 211.357681 -147.607354 
L 211.491589 -148.211897 
L 211.633245 -148.816441 
L 211.781788 -149.420984 
L 211.936329 -150.025527 
L 212.095959 -150.63007 
L 212.259755 -151.234613 
L 212.426791 -151.839157 
L 212.596143 -152.4437 
L 212.766898 -153.048243 
L 212.938166 -153.652786 
L 213.109081 -154.25733 
L 213.278815 -154.861873 
L 213.44658 -155.466416 
L 213.611637 -156.070959 
L 213.773301 -156.675502 
L 213.930948 -157.280046 
L 214.084016 -157.884589 
L 214.232013 -158.489132 
L 214.374516 -159.093675 
L 214.511178 -159.698219 
L 214.641724 -160.302762 
L 214.765959 -160.907305 
L 214.883761 -161.511848 
L 214.995085 -162.116391 
L 215.099959 -162.720935 
L 215.198484 -163.325478 
L 215.290828 -163.930021 
L 215.377226 -164.534564 
L 215.457976 -165.139108 
L 215.533428 -165.743651 
L 215.603989 -166.348194 
L 215.670108 -166.952737 
L 215.732276 -167.55728 
L 215.791017 -168.161824 
L 215.846882 -168.766367 
L 215.900442 -169.37091 
L 215.952282 -169.975453 
L 216.002991 -170.579996 
L 216.053161 -171.18454 
L 216.103373 -171.789083 
L 216.154197 -172.393626 
L 216.206178 -172.998169 
L 216.25984 -173.602713 
L 216.315669 -174.207256 
L 216.374116 -174.811799 
L 216.435591 -175.416342 
L 216.500455 -176.020885 
L 216.569021 -176.625429 
L 216.641546 -177.229972 
L 216.718235 -177.834515 
L 216.799235 -178.439058 
L 216.884635 -179.043602 
L 216.97447 -179.648145 
L 225.82553 -179.648145 
L 225.82553 -179.648145 
L 225.915365 -179.043602 
L 226.000765 -178.439058 
L 226.081765 -177.834515 
L 226.158454 -177.229972 
L 226.230979 -176.625429 
L 226.299545 -176.020885 
L 226.364409 -175.416342 
L 226.425884 -174.811799 
L 226.484331 -174.207256 
L 226.54016 -173.602713 
L 226.593822 -172.998169 
L 226.645803 -172.393626 
L 226.696627 -171.789083 
L 226.746839 -171.18454 
L 226.797009 -170.579996 
L 226.847718 -169.975453 
L 226.899558 -169.37091 
L 226.953118 -168.766367 
L 227.008983 -168.161824 
L 227.067724 -167.55728 
L 227.129892 -166.952737 
L 227.196011 -166.348194 
L 227.266572 -165.743651 
L 227.342024 -165.139108 
L 227.422774 -164.534564 
L 227.509172 -163.930021 
L 227.601516 -163.325478 
L 227.700041 -162.720935 
L 227.804915 -162.116391 
L 227.916239 -161.511848 
L 228.034041 -160.907305 
L 228.158276 -160.302762 
L 228.288822 -159.698219 
L 228.425484 -159.093675 
L 228.567987 -158.489132 
L 228.715984 -157.884589 
L 228.869052 -157.280046 
L 229.026699 -156.675502 
L 229.188363 -156.070959 
L 229.35342 -155.466416 
L 229.521185 -154.861873 
L 229.690919 -154.25733 
L 229.861834 -153.652786 
L 230.033102 -153.048243 
L 230.203857 -152.4437 
L 230.373209 -151.839157 
L 230.540245 -151.234613 
L 230.704041 -150.63007 
L 230.863671 -150.025527 
L 231.018212 -149.420984 
L 231.166755 -148.816441 
L 231.308411 -148.211897 
L 231.442319 -147.607354 
L 231.567658 -147.002811 
L 231.683649 -146.398268 
L 231.789561 -145.793724 
L 231.884725 -145.189181 
L 231.968529 -144.584638 
L 232.040433 -143.980095 
L 232.099963 -143.375552 
L 232.146722 -142.771008 
L 232.180391 -142.166465 
L 232.200725 -141.561922 
L 232.207562 -140.957379 
L 232.200817 -140.352835 
L 232.18048 -139.748292 
L 232.14662 -139.143749 
L 232.099378 -138.539206 
L 232.038965 -137.934663 
L 231.965657 -137.330119 
L 231.879792 -136.725576 
L 231.781765 -136.121033 
L 231.672021 -135.51649 
L 231.551052 -134.911946 
L 231.419389 -134.307403 
L 231.277598 -133.70286 
L 231.126272 -133.098317 
L 230.966026 -132.493774 
L 230.797492 -131.88923 
L 230.621314 -131.284687 
L 230.438141 -130.680144 
L 230.248621 -130.075601 
L 230.053403 -129.471057 
L 229.853123 -128.866514 
L 229.648411 -128.261971 
L 229.439878 -127.657428 
L 229.228122 -127.052885 
L 229.01372 -126.448341 
L 228.797226 -125.843798 
L 228.579175 -125.239255 
L 228.360076 -124.634712 
L 228.140417 -124.030169 
L 227.92066 -123.425625 
L 227.701243 -122.821082 
L 227.482581 -122.216539 
L 227.265065 -121.611996 
L 227.049066 -121.007452 
L 226.834932 -120.402909 
L 226.622988 -119.798366 
z
" style="stroke: #0000ff; stroke-width: 1.5"/>
    </defs>
    <g clip-path="url(#pacd12cf6ac)">
     <use xlink:href="#m52875a3bbf" x="0" y="288" style="fill: #ffffff; stroke: #0000ff; stroke-width: 1.5"/>
    </g>
   </g>
   <g id="PolyCollection_3">
    <defs>
     <path id="m9ce78339ca" d="M 266.23893 -144.321758 
L 243.465685 -144.321758 
L 243.248146 -144.662365 
L 243.042914 -145.002972 
L 242.850497 -145.34358 
L 242.671321 -145.684187 
L 242.505733 -146.024794 
L 242.353991 -146.365401 
L 242.216267 -146.706008 
L 242.092643 -147.046615 
L 241.98311 -147.387222 
L 241.887568 -147.727829 
L 241.805827 -148.068436 
L 241.737608 -148.409043 
L 241.682548 -148.749651 
L 241.640198 -149.090258 
L 241.610034 -149.430865 
L 241.591454 -149.771472 
L 241.583792 -150.112079 
L 241.586317 -150.452686 
L 241.598241 -150.793293 
L 241.618731 -151.1339 
L 241.646911 -151.474507 
L 241.681872 -151.815114 
L 241.722681 -152.155722 
L 241.768389 -152.496329 
L 241.818038 -152.836936 
L 241.870672 -153.177543 
L 241.925344 -153.51815 
L 241.981124 -153.858757 
L 242.037109 -154.199364 
L 242.092427 -154.539971 
L 242.14625 -154.880578 
L 242.197794 -155.221185 
L 242.246332 -155.561793 
L 242.291196 -155.9024 
L 242.331783 -156.243007 
L 242.367558 -156.583614 
L 242.398061 -156.924221 
L 242.422907 -157.264828 
L 242.441792 -157.605435 
L 242.454489 -157.946042 
L 242.460854 -158.286649 
L 242.460823 -158.627256 
L 242.454411 -158.967864 
L 242.441714 -159.308471 
L 242.422902 -159.649078 
L 242.398221 -159.989685 
L 242.367983 -160.330292 
L 242.332569 -160.670899 
L 242.292422 -161.011506 
L 242.248038 -161.352113 
L 242.199965 -161.69272 
L 242.148798 -162.033327 
L 242.095169 -162.373935 
L 242.039742 -162.714542 
L 241.983208 -163.055149 
L 241.926279 -163.395756 
L 241.86968 -163.736363 
L 241.81414 -164.07697 
L 241.760394 -164.417577 
L 241.709167 -164.758184 
L 241.661177 -165.098791 
L 241.617122 -165.439398 
L 241.577682 -165.780006 
L 241.543509 -166.120613 
L 241.515224 -166.46122 
L 241.493415 -166.801827 
L 241.478632 -167.142434 
L 241.471385 -167.483041 
L 241.472139 -167.823648 
L 241.481317 -168.164255 
L 241.499294 -168.504862 
L 241.526397 -168.845469 
L 241.562906 -169.186077 
L 241.609054 -169.526684 
L 241.665023 -169.867291 
L 241.73095 -170.207898 
L 241.806925 -170.548505 
L 241.892992 -170.889112 
L 241.989151 -171.229719 
L 242.095359 -171.570326 
L 242.211534 -171.910933 
L 242.337554 -172.25154 
L 242.473259 -172.592147 
L 242.618455 -172.932755 
L 242.772916 -173.273362 
L 242.936384 -173.613969 
L 243.108571 -173.954576 
L 243.289164 -174.295183 
L 243.477826 -174.63579 
L 243.674195 -174.976397 
L 243.877888 -175.317004 
L 244.088505 -175.657611 
L 244.305627 -175.998218 
L 244.528819 -176.338826 
L 244.757632 -176.679433 
L 244.991605 -177.02004 
L 245.230267 -177.360647 
L 245.473135 -177.701254 
L 245.719722 -178.041861 
L 263.984894 -178.041861 
L 263.984894 -178.041861 
L 264.23148 -177.701254 
L 264.474349 -177.360647 
L 264.71301 -177.02004 
L 264.946984 -176.679433 
L 265.175797 -176.338826 
L 265.398988 -175.998218 
L 265.61611 -175.657611 
L 265.826727 -175.317004 
L 266.030421 -174.976397 
L 266.226789 -174.63579 
L 266.415451 -174.295183 
L 266.596045 -173.954576 
L 266.768232 -173.613969 
L 266.931699 -173.273362 
L 267.08616 -172.932755 
L 267.231356 -172.592147 
L 267.367061 -172.25154 
L 267.493081 -171.910933 
L 267.609256 -171.570326 
L 267.715465 -171.229719 
L 267.811624 -170.889112 
L 267.89769 -170.548505 
L 267.973665 -170.207898 
L 268.039592 -169.867291 
L 268.095562 -169.526684 
L 268.141709 -169.186077 
L 268.178219 -168.845469 
L 268.205322 -168.504862 
L 268.223298 -168.164255 
L 268.232476 -167.823648 
L 268.233231 -167.483041 
L 268.225983 -167.142434 
L 268.211201 -166.801827 
L 268.189392 -166.46122 
L 268.161107 -166.120613 
L 268.126933 -165.780006 
L 268.087493 -165.439398 
L 268.043439 -165.098791 
L 267.995448 -164.758184 
L 267.944222 -164.417577 
L 267.890475 -164.07697 
L 267.834936 -163.736363 
L 267.778336 -163.395756 
L 267.721407 -163.055149 
L 267.664874 -162.714542 
L 267.609447 -162.373935 
L 267.555817 -162.033327 
L 267.50465 -161.69272 
L 267.456578 -161.352113 
L 267.412194 -161.011506 
L 267.372046 -160.670899 
L 267.336633 -160.330292 
L 267.306395 -159.989685 
L 267.281713 -159.649078 
L 267.262901 -159.308471 
L 267.250204 -158.967864 
L 267.243793 -158.627256 
L 267.243761 -158.286649 
L 267.250126 -157.946042 
L 267.262823 -157.605435 
L 267.281708 -157.264828 
L 267.306555 -156.924221 
L 267.337058 -156.583614 
L 267.372833 -156.243007 
L 267.413419 -155.9024 
L 267.458283 -155.561793 
L 267.506821 -155.221185 
L 267.558366 -154.880578 
L 267.612188 -154.539971 
L 267.667507 -154.199364 
L 267.723491 -153.858757 
L 267.779272 -153.51815 
L 267.833943 -153.177543 
L 267.886577 -152.836936 
L 267.936227 -152.496329 
L 267.981934 -152.155722 
L 268.022743 -151.815114 
L 268.057704 -151.474507 
L 268.085884 -151.1339 
L 268.106374 -150.793293 
L 268.118299 -150.452686 
L 268.120823 -150.112079 
L 268.113161 -149.771472 
L 268.094582 -149.430865 
L 268.064417 -149.090258 
L 268.022068 -148.749651 
L 267.967007 -148.409043 
L 267.898788 -148.068436 
L 267.817047 -147.727829 
L 267.721505 -147.387222 
L 267.611972 -147.046615 
L 267.488348 -146.706008 
L 267.350624 -146.365401 
L 267.198883 -146.024794 
L 267.033294 -145.684187 
L 266.854118 -145.34358 
L 266.661701 -145.002972 
L 266.45647 -144.662365 
L 266.23893 -144.321758 
z
" style="stroke: #00fa9a; stroke-width: 1.5"/>
    </defs>
    <g clip-path="url(#pacd12cf6ac)">
     <use xlink:href="#m9ce78339ca" x="0" y="288" style="fill: #ffffff; stroke: #00fa9a; stroke-width: 1.5"/>
    </g>
   </g>
   <g id="matplotlib.axis_1">
    <g id="xtick_1">
     <g id="text_1">
      <!-- 1 -->
      <g transform="translate(184.766442 266.598437)scale(0.1 -0.1)">
       <defs>
        <path id="DejaVuSans-31" d="M 794 531 
L 1825 531 
L 1825 4091 
L 703 3866 
L 703 4441 
L 1819 4666 
L 2450 4666 
L 2450 531 
L 3481 531 
L 3481 0 
L 794 0 
L 794 531 
z
" transform="scale(0.015625)"/>
       </defs>
       <use xlink:href="#DejaVuSans-31"/>
      </g>
     </g>
    </g>
    <g id="xtick_2">
     <g id="text_2">
      <!-- 2 -->
      <g transform="translate(218.21875 266.598437)scale(0.1 -0.1)">
       <defs>
        <path id="DejaVuSans-32" d="M 1228 531 
L 3431 531 
L 3431 0 
L 469 0 
L 469 531 
Q 828 903 1448 1529 
Q 2069 2156 2228 2338 
Q 2531 2678 2651 2914 
Q 2772 3150 2772 3378 
Q 2772 3750 2511 3984 
Q 2250 4219 1831 4219 
Q 1534 4219 1204 4116 
Q 875 4013 500 3803 
L 500 4441 
Q 881 4594 1212 4672 
Q 1544 4750 1819 4750 
Q 2544 4750 2975 4387 
Q 3406 4025 3406 3419 
Q 3406 3131 3298 2873 
Q 3191 2616 2906 2266 
Q 2828 2175 2409 1742 
Q 1991 1309 1228 531 
z
" transform="scale(0.015625)"/>
       </defs>
       <use xlink:href="#DejaVuSans-32"/>
      </g>
     </g>
    </g>
    <g id="xtick_3">
     <g id="text_3">
      <!-- 3 -->
      <g transform="translate(251.671058 266.598437)scale(0.1 -0.1)">
       <defs>
        <path id="DejaVuSans-33" d="M 2597 2516 
Q 3050 2419 3304 2112 
Q 3559 1806 3559 1356 
Q 3559 666 3084 287 
Q 2609 -91 1734 -91 
Q 1441 -91 1130 -33 
Q 819 25 488 141 
L 488 750 
Q 750 597 1062 519 
Q 1375 441 1716 441 
Q 2309 441 2620 675 
Q 2931 909 2931 1356 
Q 2931 1769 2642 2001 
Q 2353 2234 1838 2234 
L 1294 2234 
L 1294 2753 
L 1863 2753 
Q 2328 2753 2575 2939 
Q 2822 3125 2822 3475 
Q 2822 3834 2567 4026 
Q 2313 4219 1838 4219 
Q 1578 4219 1281 4162 
Q 984 4106 628 3988 
L 628 4550 
Q 988 4650 1302 4700 
Q 1616 4750 1894 4750 
Q 2613 4750 3031 4423 
Q 3450 4097 3450 3541 
Q 3450 3153 3228 2886 
Q 3006 2619 2597 2516 
z
" transform="scale(0.015625)"/>
       </defs>
       <use xlink:href="#DejaVuSans-33"/>
      </g>
     </g>
    </g>
    <g id="text_4">
     <!-- Glomerulus -->
     <g transform="translate(187.0125 281.79625)scale(0.12 -0.12)">
      <defs>
       <path id="DejaVuSans-47" d="M 3809 666 
L 3809 1919 
L 2778 1919 
L 2778 2438 
L 4434 2438 
L 4434 434 
Q 4069 175 3628 42 
Q 3188 -91 2688 -91 
Q 1594 -91 976 548 
Q 359 1188 359 2328 
Q 359 3472 976 4111 
Q 1594 4750 2688 4750 
Q 3144 4750 3555 4637 
Q 3966 4525 4313 4306 
L 4313 3634 
Q 3963 3931 3569 4081 
Q 3175 4231 2741 4231 
Q 1884 4231 1454 3753 
Q 1025 3275 1025 2328 
Q 1025 1384 1454 906 
Q 1884 428 2741 428 
Q 3075 428 3337 486 
Q 3600 544 3809 666 
z
" transform="scale(0.015625)"/>
       <path id="DejaVuSans-6c" d="M 603 4863 
L 1178 4863 
L 1178 0 
L 603 0 
L 603 4863 
z
" transform="scale(0.015625)"/>
       <path id="DejaVuSans-6f" d="M 1959 3097 
Q 1497 3097 1228 2736 
Q 959 2375 959 1747 
Q 959 1119 1226 758 
Q 1494 397 1959 397 
Q 2419 397 2687 759 
Q 2956 1122 2956 1747 
Q 2956 2369 2687 2733 
Q 2419 3097 1959 3097 
z
M 1959 3584 
Q 2709 3584 3137 3096 
Q 3566 2609 3566 1747 
Q 3566 888 3137 398 
Q 2709 -91 1959 -91 
Q 1206 -91 779 398 
Q 353 888 353 1747 
Q 353 2609 779 3096 
Q 1206 3584 1959 3584 
z
" transform="scale(0.015625)"/>
       <path id="DejaVuSans-6d" d="M 3328 2828 
Q 3544 3216 3844 3400 
Q 4144 3584 4550 3584 
Q 5097 3584 5394 3201 
Q 5691 2819 5691 2113 
L 5691 0 
L 5113 0 
L 5113 2094 
Q 5113 2597 4934 2840 
Q 4756 3084 4391 3084 
Q 3944 3084 3684 2787 
Q 3425 2491 3425 1978 
L 3425 0 
L 2847 0 
L 2847 2094 
Q 2847 2600 2669 2842 
Q 2491 3084 2119 3084 
Q 1678 3084 1418 2786 
Q 1159 2488 1159 1978 
L 1159 0 
L 581 0 
L 581 3500 
L 1159 3500 
L 1159 2956 
Q 1356 3278 1631 3431 
Q 1906 3584 2284 3584 
Q 2666 3584 2933 3390 
Q 3200 3197 3328 2828 
z
" transform="scale(0.015625)"/>
       <path id="DejaVuSans-65" d="M 3597 1894 
L 3597 1613 
L 953 1613 
Q 991 1019 1311 708 
Q 1631 397 2203 397 
Q 2534 397 2845 478 
Q 3156 559 3463 722 
L 3463 178 
Q 3153 47 2828 -22 
Q 2503 -91 2169 -91 
Q 1331 -91 842 396 
Q 353 884 353 1716 
Q 353 2575 817 3079 
Q 1281 3584 2069 3584 
Q 2775 3584 3186 3129 
Q 3597 2675 3597 1894 
z
M 3022 2063 
Q 3016 2534 2758 2815 
Q 2500 3097 2075 3097 
Q 1594 3097 1305 2825 
Q 1016 2553 972 2059 
L 3022 2063 
z
" transform="scale(0.015625)"/>
       <path id="DejaVuSans-72" d="M 2631 2963 
Q 2534 3019 2420 3045 
Q 2306 3072 2169 3072 
Q 1681 3072 1420 2755 
Q 1159 2438 1159 1844 
L 1159 0 
L 581 0 
L 581 3500 
L 1159 3500 
L 1159 2956 
Q 1341 3275 1631 3429 
Q 1922 3584 2338 3584 
Q 2397 3584 2469 3576 
Q 2541 3569 2628 3553 
L 2631 2963 
z
" transform="scale(0.015625)"/>
       <path id="DejaVuSans-75" d="M 544 1381 
L 544 3500 
L 1119 3500 
L 1119 1403 
Q 1119 906 1312 657 
Q 1506 409 1894 409 
Q 2359 409 2629 706 
Q 2900 1003 2900 1516 
L 2900 3500 
L 3475 3500 
L 3475 0 
L 2900 0 
L 2900 538 
Q 2691 219 2414 64 
Q 2138 -91 1772 -91 
Q 1169 -91 856 284 
Q 544 659 544 1381 
z
M 1991 3584 
L 1991 3584 
z
" transform="scale(0.015625)"/>
       <path id="DejaVuSans-73" d="M 2834 3397 
L 2834 2853 
Q 2591 2978 2328 3040 
Q 2066 3103 1784 3103 
Q 1356 3103 1142 2972 
Q 928 2841 928 2578 
Q 928 2378 1081 2264 
Q 1234 2150 1697 2047 
L 1894 2003 
Q 2506 1872 2764 1633 
Q 3022 1394 3022 966 
Q 3022 478 2636 193 
Q 2250 -91 1575 -91 
Q 1294 -91 989 -36 
Q 684 19 347 128 
L 347 722 
Q 666 556 975 473 
Q 1284 391 1588 391 
Q 1994 391 2212 530 
Q 2431 669 2431 922 
Q 2431 1156 2273 1281 
Q 2116 1406 1581 1522 
L 1381 1569 
Q 847 1681 609 1914 
Q 372 2147 372 2553 
Q 372 3047 722 3315 
Q 1072 3584 1716 3584 
Q 2034 3584 2315 3537 
Q 2597 3491 2834 3397 
z
" transform="scale(0.015625)"/>
      </defs>
      <use xlink:href="#DejaVuSans-47"/>
      <use xlink:href="#DejaVuSans-6c" x="77.490234"/>
      <use xlink:href="#DejaVuSans-6f" x="105.273438"/>
      <use xlink:href="#DejaVuSans-6d" x="166.455078"/>
      <use xlink:href="#DejaVuSans-65" x="263.867188"/>
      <use xlink:href="#DejaVuSans-72" x="325.390625"/>
      <use xlink:href="#DejaVuSans-75" x="366.503906"/>
      <use xlink:href="#DejaVuSans-6c" x="429.882812"/>
      <use xlink:href="#DejaVuSans-75" x="457.666016"/>
      <use xlink:href="#DejaVuSans-73" x="521.044922"/>
     </g>
    </g>
   </g>
   <g id="matplotlib.axis_2">
    <g id="ytick_1">
     <g id="line2d_1">
      <defs>
       <path id="mfc9366808e" d="M 0 0 
L -3.5 0 
" style="stroke: #000000; stroke-width: 0.8"/>
      </defs>
      <g>
       <use xlink:href="#mfc9366808e" x="171.221538" y="252" style="stroke: #000000; stroke-width: 0.8"/>
      </g>
     </g>
     <g id="text_5">
      <!-- 0.00 -->
      <g transform="translate(141.955913 255.799219)scale(0.1 -0.1)">
       <defs>
        <path id="DejaVuSans-30" d="M 2034 4250 
Q 1547 4250 1301 3770 
Q 1056 3291 1056 2328 
Q 1056 1369 1301 889 
Q 1547 409 2034 409 
Q 2525 409 2770 889 
Q 3016 1369 3016 2328 
Q 3016 3291 2770 3770 
Q 2525 4250 2034 4250 
z
M 2034 4750 
Q 2819 4750 3233 4129 
Q 3647 3509 3647 2328 
Q 3647 1150 3233 529 
Q 2819 -91 2034 -91 
Q 1250 -91 836 529 
Q 422 1150 422 2328 
Q 422 3509 836 4129 
Q 1250 4750 2034 4750 
z
" transform="scale(0.015625)"/>
        <path id="DejaVuSans-2e" d="M 684 794 
L 1344 794 
L 1344 0 
L 684 0 
L 684 794 
z
" transform="scale(0.015625)"/>
       </defs>
       <use xlink:href="#DejaVuSans-30"/>
       <use xlink:href="#DejaVuSans-2e" x="63.623047"/>
       <use xlink:href="#DejaVuSans-30" x="95.410156"/>
       <use xlink:href="#DejaVuSans-30" x="159.033203"/>
      </g>
     </g>
    </g>
    <g id="ytick_2">
     <g id="line2d_2">
      <g>
       <use xlink:href="#mfc9366808e" x="171.221538" y="210.184615" style="stroke: #000000; stroke-width: 0.8"/>
      </g>
     </g>
     <g id="text_6">
      <!-- 0.05 -->
      <g transform="translate(141.955913 213.983834)scale(0.1 -0.1)">
       <defs>
        <path id="DejaVuSans-35" d="M 691 4666 
L 3169 4666 
L 3169 4134 
L 1269 4134 
L 1269 2991 
Q 1406 3038 1543 3061 
Q 1681 3084 1819 3084 
Q 2600 3084 3056 2656 
Q 3513 2228 3513 1497 
Q 3513 744 3044 326 
Q 2575 -91 1722 -91 
Q 1428 -91 1123 -41 
Q 819 9 494 109 
L 494 744 
Q 775 591 1075 516 
Q 1375 441 1709 441 
Q 2250 441 2565 725 
Q 2881 1009 2881 1497 
Q 2881 1984 2565 2268 
Q 2250 2553 1709 2553 
Q 1456 2553 1204 2497 
Q 953 2441 691 2322 
L 691 4666 
z
" transform="scale(0.015625)"/>
       </defs>
       <use xlink:href="#DejaVuSans-30"/>
       <use xlink:href="#DejaVuSans-2e" x="63.623047"/>
       <use xlink:href="#DejaVuSans-30" x="95.410156"/>
       <use xlink:href="#DejaVuSans-35" x="159.033203"/>
      </g>
     </g>
    </g>
    <g id="ytick_3">
     <g id="line2d_3">
      <g>
       <use xlink:href="#mfc9366808e" x="171.221538" y="168.369231" style="stroke: #000000; stroke-width: 0.8"/>
      </g>
     </g>
     <g id="text_7">
      <!-- 0.10 -->
      <g transform="translate(141.955913 172.16845)scale(0.1 -0.1)">
       <use xlink:href="#DejaVuSans-30"/>
       <use xlink:href="#DejaVuSans-2e" x="63.623047"/>
       <use xlink:href="#DejaVuSans-31" x="95.410156"/>
       <use xlink:href="#DejaVuSans-30" x="159.033203"/>
      </g>
     </g>
    </g>
    <g id="ytick_4">
     <g id="line2d_4">
      <g>
       <use xlink:href="#mfc9366808e" x="171.221538" y="126.553846" style="stroke: #000000; stroke-width: 0.8"/>
      </g>
     </g>
     <g id="text_8">
      <!-- 0.15 -->
      <g transform="translate(141.955913 130.353065)scale(0.1 -0.1)">
       <use xlink:href="#DejaVuSans-30"/>
       <use xlink:href="#DejaVuSans-2e" x="63.623047"/>
       <use xlink:href="#DejaVuSans-31" x="95.410156"/>
       <use xlink:href="#DejaVuSans-35" x="159.033203"/>
      </g>
     </g>
    </g>
    <g id="ytick_5">
     <g id="line2d_5">
      <g>
       <use xlink:href="#mfc9366808e" x="171.221538" y="84.738462" style="stroke: #000000; stroke-width: 0.8"/>
      </g>
     </g>
     <g id="text_9">
      <!-- 0.20 -->
      <g transform="translate(141.955913 88.53768)scale(0.1 -0.1)">
       <use xlink:href="#DejaVuSans-30"/>
       <use xlink:href="#DejaVuSans-2e" x="63.623047"/>
       <use xlink:href="#DejaVuSans-32" x="95.410156"/>
       <use xlink:href="#DejaVuSans-30" x="159.033203"/>
      </g>
     </g>
    </g>
    <g id="ytick_6">
     <g id="line2d_6">
      <g>
       <use xlink:href="#mfc9366808e" x="171.221538" y="42.923077" style="stroke: #000000; stroke-width: 0.8"/>
      </g>
     </g>
     <g id="text_10">
      <!-- 0.25 -->
      <g transform="translate(141.955913 46.722296)scale(0.1 -0.1)">
       <use xlink:href="#DejaVuSans-30"/>
       <use xlink:href="#DejaVuSans-2e" x="63.623047"/>
       <use xlink:href="#DejaVuSans-32" x="95.410156"/>
       <use xlink:href="#DejaVuSans-35" x="159.033203"/>
      </g>
     </g>
    </g>
    <g id="text_11">
     <!-- Fraction of total synapses -->
     <g transform="translate(135.460288 220.363125)rotate(-90)scale(0.12 -0.12)">
      <defs>
       <path id="DejaVuSans-46" d="M 628 4666 
L 3309 4666 
L 3309 4134 
L 1259 4134 
L 1259 2759 
L 3109 2759 
L 3109 2228 
L 1259 2228 
L 1259 0 
L 628 0 
L 628 4666 
z
" transform="scale(0.015625)"/>
       <path id="DejaVuSans-61" d="M 2194 1759 
Q 1497 1759 1228 1600 
Q 959 1441 959 1056 
Q 959 750 1161 570 
Q 1363 391 1709 391 
Q 2188 391 2477 730 
Q 2766 1069 2766 1631 
L 2766 1759 
L 2194 1759 
z
M 3341 1997 
L 3341 0 
L 2766 0 
L 2766 531 
Q 2569 213 2275 61 
Q 1981 -91 1556 -91 
Q 1019 -91 701 211 
Q 384 513 384 1019 
Q 384 1609 779 1909 
Q 1175 2209 1959 2209 
L 2766 2209 
L 2766 2266 
Q 2766 2663 2505 2880 
Q 2244 3097 1772 3097 
Q 1472 3097 1187 3025 
Q 903 2953 641 2809 
L 641 3341 
Q 956 3463 1253 3523 
Q 1550 3584 1831 3584 
Q 2591 3584 2966 3190 
Q 3341 2797 3341 1997 
z
" transform="scale(0.015625)"/>
       <path id="DejaVuSans-63" d="M 3122 3366 
L 3122 2828 
Q 2878 2963 2633 3030 
Q 2388 3097 2138 3097 
Q 1578 3097 1268 2742 
Q 959 2388 959 1747 
Q 959 1106 1268 751 
Q 1578 397 2138 397 
Q 2388 397 2633 464 
Q 2878 531 3122 666 
L 3122 134 
Q 2881 22 2623 -34 
Q 2366 -91 2075 -91 
Q 1284 -91 818 406 
Q 353 903 353 1747 
Q 353 2603 823 3093 
Q 1294 3584 2113 3584 
Q 2378 3584 2631 3529 
Q 2884 3475 3122 3366 
z
" transform="scale(0.015625)"/>
       <path id="DejaVuSans-74" d="M 1172 4494 
L 1172 3500 
L 2356 3500 
L 2356 3053 
L 1172 3053 
L 1172 1153 
Q 1172 725 1289 603 
Q 1406 481 1766 481 
L 2356 481 
L 2356 0 
L 1766 0 
Q 1100 0 847 248 
Q 594 497 594 1153 
L 594 3053 
L 172 3053 
L 172 3500 
L 594 3500 
L 594 4494 
L 1172 4494 
z
" transform="scale(0.015625)"/>
       <path id="DejaVuSans-69" d="M 603 3500 
L 1178 3500 
L 1178 0 
L 603 0 
L 603 3500 
z
M 603 4863 
L 1178 4863 
L 1178 4134 
L 603 4134 
L 603 4863 
z
" transform="scale(0.015625)"/>
       <path id="DejaVuSans-6e" d="M 3513 2113 
L 3513 0 
L 2938 0 
L 2938 2094 
Q 2938 2591 2744 2837 
Q 2550 3084 2163 3084 
Q 1697 3084 1428 2787 
Q 1159 2491 1159 1978 
L 1159 0 
L 581 0 
L 581 3500 
L 1159 3500 
L 1159 2956 
Q 1366 3272 1645 3428 
Q 1925 3584 2291 3584 
Q 2894 3584 3203 3211 
Q 3513 2838 3513 2113 
z
" transform="scale(0.015625)"/>
       <path id="DejaVuSans-20" transform="scale(0.015625)"/>
       <path id="DejaVuSans-66" d="M 2375 4863 
L 2375 4384 
L 1825 4384 
Q 1516 4384 1395 4259 
Q 1275 4134 1275 3809 
L 1275 3500 
L 2222 3500 
L 2222 3053 
L 1275 3053 
L 1275 0 
L 697 0 
L 697 3053 
L 147 3053 
L 147 3500 
L 697 3500 
L 697 3744 
Q 697 4328 969 4595 
Q 1241 4863 1831 4863 
L 2375 4863 
z
" transform="scale(0.015625)"/>
       <path id="DejaVuSans-79" d="M 2059 -325 
Q 1816 -950 1584 -1140 
Q 1353 -1331 966 -1331 
L 506 -1331 
L 506 -850 
L 844 -850 
Q 1081 -850 1212 -737 
Q 1344 -625 1503 -206 
L 1606 56 
L 191 3500 
L 800 3500 
L 1894 763 
L 2988 3500 
L 3597 3500 
L 2059 -325 
z
" transform="scale(0.015625)"/>
       <path id="DejaVuSans-70" d="M 1159 525 
L 1159 -1331 
L 581 -1331 
L 581 3500 
L 1159 3500 
L 1159 2969 
Q 1341 3281 1617 3432 
Q 1894 3584 2278 3584 
Q 2916 3584 3314 3078 
Q 3713 2572 3713 1747 
Q 3713 922 3314 415 
Q 2916 -91 2278 -91 
Q 1894 -91 1617 61 
Q 1341 213 1159 525 
z
M 3116 1747 
Q 3116 2381 2855 2742 
Q 2594 3103 2138 3103 
Q 1681 3103 1420 2742 
Q 1159 2381 1159 1747 
Q 1159 1113 1420 752 
Q 1681 391 2138 391 
Q 2594 391 2855 752 
Q 3116 1113 3116 1747 
z
" transform="scale(0.015625)"/>
      </defs>
      <use xlink:href="#DejaVuSans-46"/>
      <use xlink:href="#DejaVuSans-72" x="50.269531"/>
      <use xlink:href="#DejaVuSans-61" x="91.382812"/>
      <use xlink:href="#DejaVuSans-63" x="152.662109"/>
      <use xlink:href="#DejaVuSans-74" x="207.642578"/>
      <use xlink:href="#DejaVuSans-69" x="246.851562"/>
      <use xlink:href="#DejaVuSans-6f" x="274.634766"/>
      <use xlink:href="#DejaVuSans-6e" x="335.816406"/>
      <use xlink:href="#DejaVuSans-20" x="399.195312"/>
      <use xlink:href="#DejaVuSans-6f" x="430.982422"/>
      <use xlink:href="#DejaVuSans-66" x="492.164062"/>
      <use xlink:href="#DejaVuSans-20" x="527.369141"/>
      <use xlink:href="#DejaVuSans-74" x="559.15625"/>
      <use xlink:href="#DejaVuSans-6f" x="598.365234"/>
      <use xlink:href="#DejaVuSans-74" x="659.546875"/>
      <use xlink:href="#DejaVuSans-61" x="698.755859"/>
      <use xlink:href="#DejaVuSans-6c" x="760.035156"/>
      <use xlink:href="#DejaVuSans-20" x="787.818359"/>
      <use xlink:href="#DejaVuSans-73" x="819.605469"/>
      <use xlink:href="#DejaVuSans-79" x="871.705078"/>
      <use xlink:href="#DejaVuSans-6e" x="930.884766"/>
      <use xlink:href="#DejaVuSans-61" x="994.263672"/>
      <use xlink:href="#DejaVuSans-70" x="1055.542969"/>
      <use xlink:href="#DejaVuSans-73" x="1119.019531"/>
      <use xlink:href="#DejaVuSans-65" x="1171.119141"/>
      <use xlink:href="#DejaVuSans-73" x="1232.642578"/>
     </g>
    </g>
   </g>
   <g id="line2d_7">
    <path d="M 181.540456 87.355178 
L 194.354929 87.355178 
" clip-path="url(#pacd12cf6ac)" style="fill: none; stroke: #000000; stroke-width: 1.5; stroke-linecap: square"/>
   </g>
   <g id="line2d_8">
    <path d="M 211.458104 140.177184 
L 231.341896 140.177184 
" clip-path="url(#pacd12cf6ac)" style="fill: none; stroke: #000000; stroke-width: 1.5; stroke-linecap: square"/>
   </g>
   <g id="line2d_9">
    <path d="M 242.522761 127.860004 
L 267.181854 127.860004 
" clip-path="url(#pacd12cf6ac)" style="fill: none; stroke: #000000; stroke-width: 1.5; stroke-linecap: square"/>
   </g>
   <g id="patch_3">
    <path d="M 171.221538 252 
L 171.221538 34.56 
" style="fill: none; stroke: #000000; stroke-width: 0.8; stroke-linejoin: miter; stroke-linecap: square"/>
   </g>
   <g id="PathCollection_1">
    <defs>
     <path id="C0_0_c12fd5c431" d="M 0 2.5 
C 0.663008 2.5 1.29895 2.236584 1.767767 1.767767 
C 2.236584 1.29895 2.5 0.663008 2.5 -0 
C 2.5 -0.663008 2.236584 -1.29895 1.767767 -1.767767 
C 1.29895 -2.236584 0.663008 -2.5 0 -2.5 
C -0.663008 -2.5 -1.29895 -2.236584 -1.767767 -1.767767 
C -2.236584 -1.29895 -2.5 -0.663008 -2.5 0 
C -2.5 0.663008 -2.236584 1.29895 -1.767767 1.767767 
C -1.29895 2.236584 -0.663008 2.5 0 2.5 
z
"/>
    </defs>
    <g clip-path="url(#pacd12cf6ac)">
     <use xlink:href="#C0_0_c12fd5c431" x="184.73837" y="100.436146" style="fill: #ee82ee"/>
    </g>
    <g clip-path="url(#pacd12cf6ac)">
     <use xlink:href="#C0_0_c12fd5c431" x="189.470937" y="107.947" style="fill: #ee82ee"/>
    </g>
    <g clip-path="url(#pacd12cf6ac)">
     <use xlink:href="#C0_0_c12fd5c431" x="188.721459" y="63.767604" style="fill: #ee82ee"/>
    </g>
    <g clip-path="url(#pacd12cf6ac)">
     <use xlink:href="#C0_0_c12fd5c431" x="185.507713" y="57.16361" style="fill: #ee82ee"/>
    </g>
    <g clip-path="url(#pacd12cf6ac)">
     <use xlink:href="#C0_0_c12fd5c431" x="189.158687" y="58.065878" style="fill: #ee82ee"/>
    </g>
    <g clip-path="url(#pacd12cf6ac)">
     <use xlink:href="#C0_0_c12fd5c431" x="191.035432" y="68.594373" style="fill: #ee82ee"/>
    </g>
    <g clip-path="url(#pacd12cf6ac)">
     <use xlink:href="#C0_0_c12fd5c431" x="190.72431" y="113.146518" style="fill: #ee82ee"/>
    </g>
    <g clip-path="url(#pacd12cf6ac)">
     <use xlink:href="#C0_0_c12fd5c431" x="185.487781" y="88.856643" style="fill: #ee82ee"/>
    </g>
    <g clip-path="url(#pacd12cf6ac)">
     <use xlink:href="#C0_0_c12fd5c431" x="188.240227" y="97.283077" style="fill: #ee82ee"/>
    </g>
    <g clip-path="url(#pacd12cf6ac)">
     <use xlink:href="#C0_0_c12fd5c431" x="188.881817" y="118.290926" style="fill: #ee82ee"/>
    </g>
   </g>
   <g id="PathCollection_2">
    <defs>
     <path id="C1_0_7c4a9a08ce" d="M 0 2.5 
C 0.663008 2.5 1.29895 2.236584 1.767767 1.767767 
C 2.236584 1.29895 2.5 0.663008 2.5 -0 
C 2.5 -0.663008 2.236584 -1.29895 1.767767 -1.767767 
C 1.29895 -2.236584 0.663008 -2.5 0 -2.5 
C -0.663008 -2.5 -1.29895 -2.236584 -1.767767 -1.767767 
C -2.236584 -1.29895 -2.5 -0.663008 -2.5 0 
C -2.5 0.663008 -2.236584 1.29895 -1.767767 1.767767 
C -1.29895 2.236584 -0.663008 2.5 0 2.5 
z
"/>
    </defs>
    <g clip-path="url(#pacd12cf6ac)">
     <use xlink:href="#C1_0_7c4a9a08ce" x="219.478859" y="152.83308" style="fill: #0000ff"/>
    </g>
    <g clip-path="url(#pacd12cf6ac)">
     <use xlink:href="#C1_0_7c4a9a08ce" x="223.528332" y="112.073032" style="fill: #0000ff"/>
    </g>
    <g clip-path="url(#pacd12cf6ac)">
     <use xlink:href="#C1_0_7c4a9a08ce" x="218.997888" y="108.351855" style="fill: #0000ff"/>
    </g>
    <g clip-path="url(#pacd12cf6ac)">
     <use xlink:href="#C1_0_7c4a9a08ce" x="224.542207" y="168.201634" style="fill: #0000ff"/>
    </g>
    <g clip-path="url(#pacd12cf6ac)">
     <use xlink:href="#C1_0_7c4a9a08ce" x="219.95675" y="142.085275" style="fill: #0000ff"/>
    </g>
    <g clip-path="url(#pacd12cf6ac)">
     <use xlink:href="#C1_0_7c4a9a08ce" x="221.775494" y="146.202039" style="fill: #0000ff"/>
    </g>
    <g clip-path="url(#pacd12cf6ac)">
     <use xlink:href="#C1_0_7c4a9a08ce" x="224.130422" y="139.524779" style="fill: #0000ff"/>
    </g>
    <g clip-path="url(#pacd12cf6ac)">
     <use xlink:href="#C1_0_7c4a9a08ce" x="222.303508" y="147.239588" style="fill: #0000ff"/>
    </g>
    <g clip-path="url(#pacd12cf6ac)">
     <use xlink:href="#C1_0_7c4a9a08ce" x="221.372945" y="126.553846" style="fill: #0000ff"/>
    </g>
    <g clip-path="url(#pacd12cf6ac)">
     <use xlink:href="#C1_0_7c4a9a08ce" x="221.670983" y="158.706712" style="fill: #0000ff"/>
    </g>
   </g>
   <g id="PathCollection_3">
    <defs>
     <path id="C2_0_21baa801dd" d="M 0 2.5 
C 0.663008 2.5 1.29895 2.236584 1.767767 1.767767 
C 2.236584 1.29895 2.5 0.663008 2.5 -0 
C 2.5 -0.663008 2.236584 -1.29895 1.767767 -1.767767 
C 1.29895 -2.236584 0.663008 -2.5 0 -2.5 
C -0.663008 -2.5 -1.29895 -2.236584 -1.767767 -1.767767 
C -2.236584 -1.29895 -2.5 -0.663008 -2.5 0 
C -2.5 0.663008 -2.236584 1.29895 -1.767767 1.767767 
C -1.29895 2.236584 -0.663008 2.5 0 2.5 
z
"/>
    </defs>
    <g clip-path="url(#pacd12cf6ac)">
     <use xlink:href="#C2_0_21baa801dd" x="255.823651" y="112.350898" style="fill: #00fa9a"/>
    </g>
    <g clip-path="url(#pacd12cf6ac)">
     <use xlink:href="#C2_0_21baa801dd" x="253.785605" y="143.678242" style="fill: #00fa9a"/>
    </g>
    <g clip-path="url(#pacd12cf6ac)">
     <use xlink:href="#C2_0_21baa801dd" x="253.459702" y="140.731595" style="fill: #00fa9a"/>
    </g>
    <g clip-path="url(#pacd12cf6ac)">
     <use xlink:href="#C2_0_21baa801dd" x="255.911388" y="137.544204" style="fill: #00fa9a"/>
    </g>
    <g clip-path="url(#pacd12cf6ac)">
     <use xlink:href="#C2_0_21baa801dd" x="258.073108" y="120.208321" style="fill: #00fa9a"/>
    </g>
    <g clip-path="url(#pacd12cf6ac)">
     <use xlink:href="#C2_0_21baa801dd" x="253.660123" y="121.418623" style="fill: #00fa9a"/>
    </g>
    <g clip-path="url(#pacd12cf6ac)">
     <use xlink:href="#C2_0_21baa801dd" x="254.639615" y="130.572912" style="fill: #00fa9a"/>
    </g>
    <g clip-path="url(#pacd12cf6ac)">
     <use xlink:href="#C2_0_21baa801dd" x="258.013495" y="109.958139" style="fill: #00fa9a"/>
    </g>
    <g clip-path="url(#pacd12cf6ac)">
     <use xlink:href="#C2_0_21baa801dd" x="251.961509" y="141.164041" style="fill: #00fa9a"/>
    </g>
    <g clip-path="url(#pacd12cf6ac)">
     <use xlink:href="#C2_0_21baa801dd" x="256.088846" y="120.973069" style="fill: #00fa9a"/>
    </g>
   </g>
  </g>
 </g>
 <defs>
  <clipPath id="pacd12cf6ac">
   <rect x="171.221538" y="34.56" width="100.356923" height="217.44"/>
  </clipPath>
 </defs>
</svg>
