<?xml version="1.0" encoding="utf-8" standalone="no"?>
<!DOCTYPE svg PUBLIC "-//W3C//DTD SVG 1.1//EN"
  "http://www.w3.org/Graphics/SVG/1.1/DTD/svg11.dtd">
<svg xmlns:xlink="http://www.w3.org/1999/xlink" width="360pt" height="360pt" viewBox="0 0 360 360" xmlns="http://www.w3.org/2000/svg" version="1.1">
 <metadata>
  <rdf:RDF xmlns:dc="http://purl.org/dc/elements/1.1/" xmlns:cc="http://creativecommons.org/ns#" xmlns:rdf="http://www.w3.org/1999/02/22-rdf-syntax-ns#">
   <cc:Work>
    <dc:type rdf:resource="http://purl.org/dc/dcmitype/StillImage"/>
    <dc:date>2024-01-28T10:14:53.384045</dc:date>
    <dc:format>image/svg+xml</dc:format>
    <dc:creator>
     <cc:Agent>
      <dc:title>Matplotlib v3.5.1, https://matplotlib.org/</dc:title>
     </cc:Agent>
    </dc:creator>
   </cc:Work>
  </rdf:RDF>
 </metadata>
 <defs>
  <style type="text/css">*{stroke-linejoin: round; stroke-linecap: butt}</style>
 </defs>
 <g id="figure_1">
  <g id="patch_1">
   <path d="M 0 360 
L 360 360 
L 360 0 
L 0 0 
L 0 360 
z
" style="fill: none"/>
  </g>
  <g id="axes_1">
   <g id="patch_2">
    <path d="M 50.937346 315 
L 318.062654 315 
L 318.062654 43.2 
L 50.937346 43.2 
z
" style="fill: #ffffff"/>
   </g>
   <g id="PolyCollection_1">
    <defs>
     <path id="m9fe70d90f8" d="M 74.86358 -47.938378 
L 71.531997 -47.938378 
L 71.419441 -48.843636 
L 71.307138 -49.748894 
L 71.195373 -50.654152 
L 71.084268 -51.55941 
L 70.973767 -52.464668 
L 70.863629 -53.369926 
L 70.753432 -54.275184 
L 70.642581 -55.180442 
L 70.530334 -56.0857 
L 70.415831 -56.990958 
L 70.298134 -57.896216 
L 70.176277 -58.801474 
L 70.049316 -59.706732 
L 69.916387 -60.61199 
L 69.776762 -61.517248 
L 69.629898 -62.422506 
L 69.475495 -63.327764 
L 69.313527 -64.233022 
L 69.144277 -65.13828 
L 68.968354 -66.043538 
L 68.786699 -66.948796 
L 68.600569 -67.854054 
L 68.41152 -68.759312 
L 68.22136 -69.66457 
L 68.032101 -70.569828 
L 67.845895 -71.475086 
L 67.664961 -72.380344 
L 67.49151 -73.285602 
L 67.327662 -74.19086 
L 67.175374 -75.096118 
L 67.03636 -76.001376 
L 66.912034 -76.906634 
L 66.803458 -77.811892 
L 66.7113 -78.71715 
L 66.635819 -79.622408 
L 66.576863 -80.527666 
L 66.533882 -81.432924 
L 66.505964 -82.338182 
L 66.491886 -83.24344 
L 66.490176 -84.148698 
L 66.499189 -85.053956 
L 66.517189 -85.959214 
L 66.542432 -86.864472 
L 66.573251 -87.76973 
L 66.60813 -88.674988 
L 66.645776 -89.580246 
L 66.685173 -90.485504 
L 66.72562 -91.390762 
L 66.76676 -92.29602 
L 66.808581 -93.201278 
L 66.851408 -94.106536 
L 66.895873 -95.011794 
L 66.942877 -95.917052 
L 66.993534 -96.82231 
L 67.049109 -97.727568 
L 67.110952 -98.632826 
L 67.180424 -99.538084 
L 67.258835 -100.443342 
L 67.347372 -101.3486 
L 67.447048 -102.253857 
L 67.558648 -103.159115 
L 67.682694 -104.064373 
L 67.819417 -104.969631 
L 67.968743 -105.874889 
L 68.130291 -106.780147 
L 68.30338 -107.685405 
L 68.48705 -108.590663 
L 68.680087 -109.495921 
L 68.881064 -110.401179 
L 69.088376 -111.306437 
L 69.300288 -112.211695 
L 69.514981 -113.116953 
L 69.730598 -114.022211 
L 69.945291 -114.927469 
L 70.157264 -115.832727 
L 70.364811 -116.737985 
L 70.56635 -117.643243 
L 70.760455 -118.548501 
L 70.945878 -119.453759 
L 71.121569 -120.359017 
L 71.286685 -121.264275 
L 71.440602 -122.169533 
L 71.582913 -123.074791 
L 71.713426 -123.980049 
L 71.832159 -124.885307 
L 71.939324 -125.790565 
L 72.035316 -126.695823 
L 72.120689 -127.601081 
L 72.196141 -128.506339 
L 72.262483 -129.411597 
L 72.320618 -130.316855 
L 72.371509 -131.222113 
L 72.416154 -132.127371 
L 72.455559 -133.032629 
L 72.490705 -133.937887 
L 72.522529 -134.843145 
L 72.551898 -135.748403 
L 72.579592 -136.653661 
L 72.606283 -137.558919 
L 73.789295 -137.558919 
L 73.789295 -137.558919 
L 73.815986 -136.653661 
L 73.843679 -135.748403 
L 73.873049 -134.843145 
L 73.904873 -133.937887 
L 73.940019 -133.032629 
L 73.979423 -132.127371 
L 74.024068 -131.222113 
L 74.074959 -130.316855 
L 74.133094 -129.411597 
L 74.199436 -128.506339 
L 74.274888 -127.601081 
L 74.360262 -126.695823 
L 74.456253 -125.790565 
L 74.563418 -124.885307 
L 74.682151 -123.980049 
L 74.812664 -123.074791 
L 74.954975 -122.169533 
L 75.108892 -121.264275 
L 75.274008 -120.359017 
L 75.449699 -119.453759 
L 75.635122 -118.548501 
L 75.829227 -117.643243 
L 76.030766 -116.737985 
L 76.238313 -115.832727 
L 76.450286 -114.927469 
L 76.664979 -114.022211 
L 76.880597 -113.116953 
L 77.095289 -112.211695 
L 77.307201 -111.306437 
L 77.514513 -110.401179 
L 77.71549 -109.495921 
L 77.908528 -108.590663 
L 78.092197 -107.685405 
L 78.265286 -106.780147 
L 78.426834 -105.874889 
L 78.57616 -104.969631 
L 78.712884 -104.064373 
L 78.83693 -103.159115 
L 78.94853 -102.253857 
L 79.048205 -101.3486 
L 79.136743 -100.443342 
L 79.215153 -99.538084 
L 79.284626 -98.632826 
L 79.346468 -97.727568 
L 79.402043 -96.82231 
L 79.4527 -95.917052 
L 79.499704 -95.011794 
L 79.544169 -94.106536 
L 79.586996 -93.201278 
L 79.628817 -92.29602 
L 79.669957 -91.390762 
L 79.710404 -90.485504 
L 79.749801 -89.580246 
L 79.787447 -88.674988 
L 79.822327 -87.76973 
L 79.853145 -86.864472 
L 79.878389 -85.959214 
L 79.896389 -85.053956 
L 79.905402 -84.148698 
L 79.903692 -83.24344 
L 79.889613 -82.338182 
L 79.861695 -81.432924 
L 79.818714 -80.527666 
L 79.759758 -79.622408 
L 79.684278 -78.71715 
L 79.59212 -77.811892 
L 79.483543 -76.906634 
L 79.359218 -76.001376 
L 79.220204 -75.096118 
L 79.067915 -74.19086 
L 78.904067 -73.285602 
L 78.730616 -72.380344 
L 78.549683 -71.475086 
L 78.363477 -70.569828 
L 78.174218 -69.66457 
L 77.984058 -68.759312 
L 77.795008 -67.854054 
L 77.608879 -66.948796 
L 77.427223 -66.043538 
L 77.2513 -65.13828 
L 77.08205 -64.233022 
L 76.920082 -63.327764 
L 76.765679 -62.422506 
L 76.618816 -61.517248 
L 76.47919 -60.61199 
L 76.346261 -59.706732 
L 76.2193 -58.801474 
L 76.097443 -57.896216 
L 75.979746 -56.990958 
L 75.865243 -56.0857 
L 75.752996 -55.180442 
L 75.642146 -54.275184 
L 75.531949 -53.369926 
L 75.421811 -52.464668 
L 75.31131 -51.55941 
L 75.200204 -50.654152 
L 75.088439 -49.748894 
L 74.976137 -48.843636 
L 74.86358 -47.938378 
z
" style="stroke: #8a2be2; stroke-width: 1.5"/>
    </defs>
    <g clip-path="url(#pa45524b1b3)">
     <use xlink:href="#m9fe70d90f8" x="0" y="360" style="fill: #ffffff; stroke: #8a2be2; stroke-width: 1.5"/>
    </g>
   </g>
   <g id="PolyCollection_2">
    <defs>
     <path id="m860e906871" d="M 120.107875 -46.469189 
L 115.329472 -46.469189 
L 115.164604 -47.300246 
L 114.998801 -48.131302 
L 114.833092 -48.962359 
L 114.66852 -49.793415 
L 114.506121 -50.624472 
L 114.346905 -51.455528 
L 114.191837 -52.286585 
L 114.041813 -53.117641 
L 113.897644 -53.948698 
L 113.760037 -54.779754 
L 113.629583 -55.610811 
L 113.506741 -56.441867 
L 113.391834 -57.272924 
L 113.285044 -58.10398 
L 113.186411 -58.935037 
L 113.095841 -59.766093 
L 113.013111 -60.59715 
L 112.937887 -61.428206 
L 112.869739 -62.259263 
L 112.808156 -63.090319 
L 112.752577 -63.921376 
L 112.702403 -64.752432 
L 112.657026 -65.583489 
L 112.615848 -66.414545 
L 112.578299 -67.245602 
L 112.543851 -68.076658 
L 112.512034 -68.907715 
L 112.482439 -69.738771 
L 112.454723 -70.569828 
L 112.428608 -71.400885 
L 112.40387 -72.231941 
L 112.380337 -73.062998 
L 112.35787 -73.894054 
L 112.336352 -74.725111 
L 112.315675 -75.556167 
L 112.295722 -76.387224 
L 112.276358 -77.21828 
L 112.257417 -78.049337 
L 112.238704 -78.880393 
L 112.219988 -79.71145 
L 112.201006 -80.542506 
L 112.181479 -81.373563 
L 112.16112 -82.204619 
L 112.139655 -83.035676 
L 112.116846 -83.866732 
L 112.092513 -84.697789 
L 112.066563 -85.528845 
L 112.03901 -86.359902 
L 112.010001 -87.190958 
L 111.979832 -88.022015 
L 111.948964 -88.853071 
L 111.918031 -89.684128 
L 111.887837 -90.515184 
L 111.859352 -91.346241 
L 111.833696 -92.177297 
L 111.812116 -93.008354 
L 111.795956 -93.83941 
L 111.786621 -94.670467 
L 111.785536 -95.501523 
L 111.794101 -96.33258 
L 111.813647 -97.163636 
L 111.845385 -97.994693 
L 111.89037 -98.825749 
L 111.949452 -99.656806 
L 112.023251 -100.487862 
L 112.112121 -101.318919 
L 112.216137 -102.149975 
L 112.335085 -102.981032 
L 112.468456 -103.812088 
L 112.615461 -104.643145 
L 112.775048 -105.474201 
L 112.945924 -106.305258 
L 113.126596 -107.136314 
L 113.315406 -107.967371 
L 113.510575 -108.798428 
L 113.710252 -109.629484 
L 113.91256 -110.460541 
L 114.115645 -111.291597 
L 114.317717 -112.122654 
L 114.517092 -112.95371 
L 114.712228 -113.784767 
L 114.901752 -114.615823 
L 115.084484 -115.44688 
L 115.25945 -116.277936 
L 115.425891 -117.108993 
L 115.583266 -117.940049 
L 115.731241 -118.771106 
L 115.869681 -119.602162 
L 115.998635 -120.433219 
L 116.118313 -121.264275 
L 116.229061 -122.095332 
L 116.331341 -122.926388 
L 116.425701 -123.757445 
L 116.512748 -124.588501 
L 116.593128 -125.419558 
L 116.667497 -126.250614 
L 116.736504 -127.081671 
L 116.80077 -127.912727 
L 116.860878 -128.743784 
L 118.576468 -128.743784 
L 118.576468 -128.743784 
L 118.636576 -127.912727 
L 118.700843 -127.081671 
L 118.76985 -126.250614 
L 118.844219 -125.419558 
L 118.924598 -124.588501 
L 119.011646 -123.757445 
L 119.106005 -122.926388 
L 119.208285 -122.095332 
L 119.319034 -121.264275 
L 119.438711 -120.433219 
L 119.567665 -119.602162 
L 119.706106 -118.771106 
L 119.854081 -117.940049 
L 120.011455 -117.108993 
L 120.177897 -116.277936 
L 120.352863 -115.44688 
L 120.535594 -114.615823 
L 120.725119 -113.784767 
L 120.920255 -112.95371 
L 121.11963 -112.122654 
L 121.321702 -111.291597 
L 121.524786 -110.460541 
L 121.727095 -109.629484 
L 121.926772 -108.798428 
L 122.12194 -107.967371 
L 122.31075 -107.136314 
L 122.491422 -106.305258 
L 122.662299 -105.474201 
L 122.821885 -104.643145 
L 122.968891 -103.812088 
L 123.102262 -102.981032 
L 123.221209 -102.149975 
L 123.325226 -101.318919 
L 123.414096 -100.487862 
L 123.487894 -99.656806 
L 123.546977 -98.825749 
L 123.591961 -97.994693 
L 123.6237 -97.163636 
L 123.643245 -96.33258 
L 123.651811 -95.501523 
L 123.650726 -94.670467 
L 123.641391 -93.83941 
L 123.625231 -93.008354 
L 123.603651 -92.177297 
L 123.577995 -91.346241 
L 123.54951 -90.515184 
L 123.519315 -89.684128 
L 123.488382 -88.853071 
L 123.457514 -88.022015 
L 123.427345 -87.190958 
L 123.398336 -86.359902 
L 123.370783 -85.528845 
L 123.344833 -84.697789 
L 123.320501 -83.866732 
L 123.297692 -83.035676 
L 123.276227 -82.204619 
L 123.255868 -81.373563 
L 123.23634 -80.542506 
L 123.217359 -79.71145 
L 123.198642 -78.880393 
L 123.179929 -78.049337 
L 123.160989 -77.21828 
L 123.141624 -76.387224 
L 123.121671 -75.556167 
L 123.100994 -74.725111 
L 123.079477 -73.894054 
L 123.05701 -73.062998 
L 123.033476 -72.231941 
L 123.008739 -71.400885 
L 122.982623 -70.569828 
L 122.954907 -69.738771 
L 122.925313 -68.907715 
L 122.893495 -68.076658 
L 122.859048 -67.245602 
L 122.821498 -66.414545 
L 122.78032 -65.583489 
L 122.734944 -64.752432 
L 122.68477 -63.921376 
L 122.62919 -63.090319 
L 122.567608 -62.259263 
L 122.499459 -61.428206 
L 122.424235 -60.59715 
L 122.341506 -59.766093 
L 122.250936 -58.935037 
L 122.152303 -58.10398 
L 122.045513 -57.272924 
L 121.930606 -56.441867 
L 121.807764 -55.610811 
L 121.677309 -54.779754 
L 121.539702 -53.948698 
L 121.395533 -53.117641 
L 121.245509 -52.286585 
L 121.090441 -51.455528 
L 120.931226 -50.624472 
L 120.768826 -49.793415 
L 120.604254 -48.962359 
L 120.438545 -48.131302 
L 120.272743 -47.300246 
L 120.107875 -46.469189 
z
" style="stroke: #800080; stroke-width: 1.5"/>
    </defs>
    <g clip-path="url(#pa45524b1b3)">
     <use xlink:href="#m860e906871" x="0" y="360" style="fill: #ffffff; stroke: #800080; stroke-width: 1.5"/>
    </g>
   </g>
   <g id="PolyCollection_3">
    <defs>
     <path id="m19e37f5fa2" d="M 175.417652 -45 
L 149.061464 -45 
L 148.429735 -45.311646 
L 147.834671 -45.623292 
L 147.281136 -45.934939 
L 146.773192 -46.246585 
L 146.314015 -46.558231 
L 145.90583 -46.869877 
L 145.549885 -47.181523 
L 145.246443 -47.49317 
L 144.994813 -47.804816 
L 144.793398 -48.116462 
L 144.639777 -48.428108 
L 144.530798 -48.739754 
L 144.462693 -49.0514 
L 144.431204 -49.363047 
L 144.43172 -49.674693 
L 144.459414 -49.986339 
L 144.509381 -50.297985 
L 144.576774 -50.609631 
L 144.656937 -50.921278 
L 144.745516 -51.232924 
L 144.838571 -51.54457 
L 144.932667 -51.856216 
L 145.024943 -52.167862 
L 145.113174 -52.479509 
L 145.195801 -52.791155 
L 145.271947 -53.102801 
L 145.34141 -53.414447 
L 145.404638 -53.726093 
L 145.462676 -54.03774 
L 145.517104 -54.349386 
L 145.569951 -54.661032 
L 145.623601 -54.972678 
L 145.680689 -55.284324 
L 145.743988 -55.595971 
L 145.816298 -55.907617 
L 145.900339 -56.219263 
L 145.998652 -56.530909 
L 146.113507 -56.842555 
L 146.246838 -57.154201 
L 146.400184 -57.465848 
L 146.574658 -57.777494 
L 146.770933 -58.08914 
L 146.989245 -58.400786 
L 147.229422 -58.712432 
L 147.490919 -59.024079 
L 147.772869 -59.335725 
L 148.074141 -59.647371 
L 148.393402 -59.959017 
L 148.729177 -60.270663 
L 149.079908 -60.58231 
L 149.443996 -60.893956 
L 149.819851 -61.205602 
L 150.205913 -61.517248 
L 150.600674 -61.828894 
L 151.002682 -62.140541 
L 151.410542 -62.452187 
L 151.822907 -62.763833 
L 152.23846 -63.075479 
L 152.655903 -63.387125 
L 153.07394 -63.698771 
L 153.491257 -64.010418 
L 153.906524 -64.322064 
L 154.318379 -64.63371 
L 154.72544 -64.945356 
L 155.126304 -65.257002 
L 155.519565 -65.568649 
L 155.903833 -65.880295 
L 156.277747 -66.191941 
L 156.640003 -66.503587 
L 156.989374 -66.815233 
L 157.32473 -67.12688 
L 157.645056 -67.438526 
L 157.949467 -67.750172 
L 158.237224 -68.061818 
L 158.507735 -68.373464 
L 158.760566 -68.685111 
L 158.995443 -68.996757 
L 159.212247 -69.308403 
L 159.411022 -69.620049 
L 159.591964 -69.931695 
L 159.755424 -70.243342 
L 159.901903 -70.554988 
L 160.032047 -70.866634 
L 160.146643 -71.17828 
L 160.246614 -71.489926 
L 160.333013 -71.801572 
L 160.407007 -72.113219 
L 160.469872 -72.424865 
L 160.522969 -72.736511 
L 160.567731 -73.048157 
L 160.605633 -73.359803 
L 160.638171 -73.67145 
L 160.666829 -73.983096 
L 160.693049 -74.294742 
L 160.718201 -74.606388 
L 160.74355 -74.918034 
L 160.770229 -75.229681 
L 160.799214 -75.541327 
L 160.831305 -75.852973 
L 163.64781 -75.852973 
L 163.64781 -75.852973 
L 163.679901 -75.541327 
L 163.708887 -75.229681 
L 163.735566 -74.918034 
L 163.760914 -74.606388 
L 163.786066 -74.294742 
L 163.812286 -73.983096 
L 163.840944 -73.67145 
L 163.873482 -73.359803 
L 163.911385 -73.048157 
L 163.956146 -72.736511 
L 164.009244 -72.424865 
L 164.072108 -72.113219 
L 164.146103 -71.801572 
L 164.232501 -71.489926 
L 164.332473 -71.17828 
L 164.447069 -70.866634 
L 164.577212 -70.554988 
L 164.723691 -70.243342 
L 164.887151 -69.931695 
L 165.068094 -69.620049 
L 165.266868 -69.308403 
L 165.483673 -68.996757 
L 165.718549 -68.685111 
L 165.97138 -68.373464 
L 166.241891 -68.061818 
L 166.529648 -67.750172 
L 166.83406 -67.438526 
L 167.154386 -67.12688 
L 167.489742 -66.815233 
L 167.839113 -66.503587 
L 168.201369 -66.191941 
L 168.575283 -65.880295 
L 168.95955 -65.568649 
L 169.352812 -65.257002 
L 169.753676 -64.945356 
L 170.160736 -64.63371 
L 170.572592 -64.322064 
L 170.987858 -64.010418 
L 171.405176 -63.698771 
L 171.823212 -63.387125 
L 172.240656 -63.075479 
L 172.656209 -62.763833 
L 173.068573 -62.452187 
L 173.476434 -62.140541 
L 173.878441 -61.828894 
L 174.273202 -61.517248 
L 174.659264 -61.205602 
L 175.035119 -60.893956 
L 175.399208 -60.58231 
L 175.749938 -60.270663 
L 176.085714 -59.959017 
L 176.404975 -59.647371 
L 176.706247 -59.335725 
L 176.988197 -59.024079 
L 177.249693 -58.712432 
L 177.489871 -58.400786 
L 177.708183 -58.08914 
L 177.904457 -57.777494 
L 178.078932 -57.465848 
L 178.232278 -57.154201 
L 178.365609 -56.842555 
L 178.480464 -56.530909 
L 178.578776 -56.219263 
L 178.662817 -55.907617 
L 178.735127 -55.595971 
L 178.798426 -55.284324 
L 178.855514 -54.972678 
L 178.909165 -54.661032 
L 178.962011 -54.349386 
L 179.016439 -54.03774 
L 179.074477 -53.726093 
L 179.137705 -53.414447 
L 179.207169 -53.102801 
L 179.283315 -52.791155 
L 179.365941 -52.479509 
L 179.454172 -52.167862 
L 179.546449 -51.856216 
L 179.640544 -51.54457 
L 179.7336 -51.232924 
L 179.822179 -50.921278 
L 179.902341 -50.609631 
L 179.969735 -50.297985 
L 180.019701 -49.986339 
L 180.047395 -49.674693 
L 180.047912 -49.363047 
L 180.016423 -49.0514 
L 179.948317 -48.739754 
L 179.839338 -48.428108 
L 179.685717 -48.116462 
L 179.484303 -47.804816 
L 179.232672 -47.49317 
L 178.92923 -47.181523 
L 178.573285 -46.869877 
L 178.165101 -46.558231 
L 177.705923 -46.246585 
L 177.197979 -45.934939 
L 176.644444 -45.623292 
L 176.04938 -45.311646 
L 175.417652 -45 
z
" style="stroke: #4b0082; stroke-width: 1.5"/>
    </defs>
    <g clip-path="url(#pa45524b1b3)">
     <use xlink:href="#m19e37f5fa2" x="0" y="360" style="fill: #ffffff; stroke: #4b0082; stroke-width: 1.5"/>
    </g>
   </g>
   <g id="PolyCollection_4">
    <defs>
     <path id="m9d50a32cce" d="M 207.644669 -50.876757 
L 205.876216 -50.876757 
L 205.827436 -52.53887 
L 205.779048 -54.200983 
L 205.731209 -55.863096 
L 205.684042 -57.525209 
L 205.637631 -59.187322 
L 205.592023 -60.849435 
L 205.54722 -62.511548 
L 205.503183 -64.173661 
L 205.459832 -65.835774 
L 205.417046 -67.497887 
L 205.374668 -69.16 
L 205.332509 -70.822113 
L 205.290353 -72.484226 
L 205.247967 -74.146339 
L 205.205106 -75.808452 
L 205.16152 -77.470565 
L 205.116967 -79.132678 
L 205.071221 -80.794791 
L 205.024077 -82.456904 
L 204.975367 -84.119017 
L 204.924963 -85.78113 
L 204.872788 -87.443243 
L 204.818821 -89.105356 
L 204.763104 -90.767469 
L 204.705741 -92.429582 
L 204.646908 -94.091695 
L 204.586846 -95.753808 
L 204.525862 -97.415921 
L 204.464326 -99.078034 
L 204.40266 -100.740147 
L 204.341336 -102.40226 
L 204.280859 -104.064373 
L 204.22176 -105.726486 
L 204.164579 -107.3886 
L 204.109853 -109.050713 
L 204.058098 -110.712826 
L 204.009798 -112.374939 
L 203.965386 -114.037052 
L 203.925233 -115.699165 
L 203.889638 -117.361278 
L 203.858813 -119.023391 
L 203.832883 -120.685504 
L 203.811876 -122.347617 
L 203.795727 -124.00973 
L 203.78428 -125.671843 
L 203.777291 -127.333956 
L 203.774444 -128.996069 
L 203.775358 -130.658182 
L 203.779605 -132.320295 
L 203.786728 -133.982408 
L 203.796257 -135.644521 
L 203.807729 -137.306634 
L 203.820711 -138.968747 
L 203.834809 -140.63086 
L 203.849692 -142.292973 
L 203.865101 -143.955086 
L 203.880861 -145.617199 
L 203.896885 -147.279312 
L 203.91318 -148.941425 
L 203.929842 -150.603538 
L 203.947053 -152.265651 
L 203.965068 -153.927764 
L 203.984207 -155.589877 
L 204.004835 -157.25199 
L 204.027344 -158.914103 
L 204.052137 -160.576216 
L 204.079606 -162.238329 
L 204.110111 -163.900442 
L 204.143967 -165.562555 
L 204.181422 -167.224668 
L 204.222647 -168.886781 
L 204.267727 -170.548894 
L 204.316651 -172.211007 
L 204.369314 -173.87312 
L 204.425517 -175.535233 
L 204.484973 -177.197346 
L 204.547316 -178.859459 
L 204.612115 -180.521572 
L 204.678887 -182.183686 
L 204.747115 -183.845799 
L 204.816265 -185.507912 
L 204.885806 -187.170025 
L 204.955225 -188.832138 
L 205.024042 -190.494251 
L 205.091828 -192.156364 
L 205.158213 -193.818477 
L 205.222896 -195.48059 
L 205.28565 -197.142703 
L 205.346323 -198.804816 
L 205.404839 -200.466929 
L 205.461191 -202.129042 
L 205.515435 -203.791155 
L 205.567684 -205.453268 
L 205.618092 -207.115381 
L 205.666844 -208.777494 
L 205.714146 -210.439607 
L 205.760209 -212.10172 
L 205.805241 -213.763833 
L 205.849433 -215.425946 
L 207.671452 -215.425946 
L 207.671452 -215.425946 
L 207.715644 -213.763833 
L 207.760675 -212.10172 
L 207.806739 -210.439607 
L 207.854041 -208.777494 
L 207.902793 -207.115381 
L 207.9532 -205.453268 
L 208.005449 -203.791155 
L 208.059694 -202.129042 
L 208.116046 -200.466929 
L 208.174562 -198.804816 
L 208.235235 -197.142703 
L 208.297989 -195.48059 
L 208.362672 -193.818477 
L 208.429057 -192.156364 
L 208.496843 -190.494251 
L 208.56566 -188.832138 
L 208.635078 -187.170025 
L 208.704619 -185.507912 
L 208.77377 -183.845799 
L 208.841998 -182.183686 
L 208.908769 -180.521572 
L 208.973568 -178.859459 
L 209.035912 -177.197346 
L 209.095368 -175.535233 
L 209.151571 -173.87312 
L 209.204234 -172.211007 
L 209.253158 -170.548894 
L 209.298237 -168.886781 
L 209.339462 -167.224668 
L 209.376917 -165.562555 
L 209.410773 -163.900442 
L 209.441279 -162.238329 
L 209.468747 -160.576216 
L 209.493541 -158.914103 
L 209.51605 -157.25199 
L 209.536677 -155.589877 
L 209.555816 -153.927764 
L 209.573832 -152.265651 
L 209.591042 -150.603538 
L 209.607705 -148.941425 
L 209.624 -147.279312 
L 209.640024 -145.617199 
L 209.655784 -143.955086 
L 209.671193 -142.292973 
L 209.686076 -140.63086 
L 209.700174 -138.968747 
L 209.713155 -137.306634 
L 209.724628 -135.644521 
L 209.734157 -133.982408 
L 209.741279 -132.320295 
L 209.745527 -130.658182 
L 209.74644 -128.996069 
L 209.743593 -127.333956 
L 209.736605 -125.671843 
L 209.725157 -124.00973 
L 209.709009 -122.347617 
L 209.688002 -120.685504 
L 209.662072 -119.023391 
L 209.631247 -117.361278 
L 209.595651 -115.699165 
L 209.555499 -114.037052 
L 209.511087 -112.374939 
L 209.462786 -110.712826 
L 209.411032 -109.050713 
L 209.356305 -107.3886 
L 209.299124 -105.726486 
L 209.240025 -104.064373 
L 209.179548 -102.40226 
L 209.118224 -100.740147 
L 209.056559 -99.078034 
L 208.995022 -97.415921 
L 208.934039 -95.753808 
L 208.873977 -94.091695 
L 208.815143 -92.429582 
L 208.757781 -90.767469 
L 208.702063 -89.105356 
L 208.648096 -87.443243 
L 208.595922 -85.78113 
L 208.545518 -84.119017 
L 208.496808 -82.456904 
L 208.449664 -80.794791 
L 208.403917 -79.132678 
L 208.359364 -77.470565 
L 208.315779 -75.808452 
L 208.272917 -74.146339 
L 208.230531 -72.484226 
L 208.188376 -70.822113 
L 208.146216 -69.16 
L 208.103838 -67.497887 
L 208.061052 -65.835774 
L 208.017701 -64.173661 
L 207.973665 -62.511548 
L 207.928862 -60.849435 
L 207.883253 -59.187322 
L 207.836843 -57.525209 
L 207.789675 -55.863096 
L 207.741836 -54.200983 
L 207.693449 -52.53887 
L 207.644669 -50.876757 
z
" style="stroke: #6a5acd; stroke-width: 1.5"/>
    </defs>
    <g clip-path="url(#pa45524b1b3)">
     <use xlink:href="#m9d50a32cce" x="0" y="360" style="fill: #ffffff; stroke: #6a5acd; stroke-width: 1.5"/>
    </g>
   </g>
   <g id="PolyCollection_5">
    <defs>
     <path id="m0451e30c13" d="M 252.056042 -97.890811 
L 250.506611 -97.890811 
L 250.481002 -99.092875 
L 250.456135 -100.294939 
L 250.431461 -101.497002 
L 250.406334 -102.699066 
L 250.380028 -103.90113 
L 250.351762 -105.103194 
L 250.320726 -106.305258 
L 250.286107 -107.507322 
L 250.247115 -108.709386 
L 250.203013 -109.91145 
L 250.153139 -111.113514 
L 250.09693 -112.315577 
L 250.033938 -113.517641 
L 249.963846 -114.719705 
L 249.886474 -115.921769 
L 249.801791 -117.123833 
L 249.709909 -118.325897 
L 249.61108 -119.527961 
L 249.505692 -120.730025 
L 249.394251 -121.932088 
L 249.277372 -123.134152 
L 249.155753 -124.336216 
L 249.030161 -125.53828 
L 248.901406 -126.740344 
L 248.770316 -127.942408 
L 248.637714 -129.144472 
L 248.50439 -130.346536 
L 248.371081 -131.5486 
L 248.238445 -132.750663 
L 248.107045 -133.952727 
L 247.977334 -135.154791 
L 247.849646 -136.356855 
L 247.724193 -137.558919 
L 247.601067 -138.760983 
L 247.480254 -139.963047 
L 247.361652 -141.165111 
L 247.245092 -142.367174 
L 247.130374 -143.569238 
L 247.017297 -144.771302 
L 246.905699 -145.973366 
L 246.795491 -147.17543 
L 246.686697 -148.377494 
L 246.579478 -149.579558 
L 246.474163 -150.781622 
L 246.371259 -151.983686 
L 246.27146 -153.185749 
L 246.175646 -154.387813 
L 246.084861 -155.589877 
L 246.000297 -156.791941 
L 245.923252 -157.994005 
L 245.855097 -159.196069 
L 245.797225 -160.398133 
L 245.751007 -161.600197 
L 245.717739 -162.80226 
L 245.698598 -164.004324 
L 245.694597 -165.206388 
L 245.706553 -166.408452 
L 245.735051 -167.610516 
L 245.780429 -168.81258 
L 245.84276 -170.014644 
L 245.921852 -171.216708 
L 246.017247 -172.418771 
L 246.128234 -173.620835 
L 246.253865 -174.822899 
L 246.392975 -176.024963 
L 246.54421 -177.227027 
L 246.706049 -178.429091 
L 246.876841 -179.631155 
L 247.054833 -180.833219 
L 247.238201 -182.035283 
L 247.425084 -183.237346 
L 247.613616 -184.43941 
L 247.801959 -185.641474 
L 247.988335 -186.843538 
L 248.171056 -188.045602 
L 248.348556 -189.247666 
L 248.519419 -190.44973 
L 248.682407 -191.651794 
L 248.836481 -192.853857 
L 248.98082 -194.055921 
L 249.114841 -195.257985 
L 249.238201 -196.460049 
L 249.350804 -197.662113 
L 249.452797 -198.864177 
L 249.544555 -200.066241 
L 249.62667 -201.268305 
L 249.699916 -202.470369 
L 249.765227 -203.672432 
L 249.823657 -204.874496 
L 249.876339 -206.07656 
L 249.924448 -207.278624 
L 249.969154 -208.480688 
L 250.011588 -209.682752 
L 250.052796 -210.884816 
L 250.093717 -212.08688 
L 250.135147 -213.288943 
L 250.177724 -214.491007 
L 250.221917 -215.693071 
L 250.268018 -216.895135 
L 252.294635 -216.895135 
L 252.294635 -216.895135 
L 252.340736 -215.693071 
L 252.384929 -214.491007 
L 252.427507 -213.288943 
L 252.468937 -212.08688 
L 252.509857 -210.884816 
L 252.551066 -209.682752 
L 252.593499 -208.480688 
L 252.638206 -207.278624 
L 252.686314 -206.07656 
L 252.738997 -204.874496 
L 252.797426 -203.672432 
L 252.862737 -202.470369 
L 252.935984 -201.268305 
L 253.018098 -200.066241 
L 253.109857 -198.864177 
L 253.21185 -197.662113 
L 253.324453 -196.460049 
L 253.447812 -195.257985 
L 253.581833 -194.055921 
L 253.726173 -192.853857 
L 253.880246 -191.651794 
L 254.043234 -190.44973 
L 254.214098 -189.247666 
L 254.391598 -188.045602 
L 254.574319 -186.843538 
L 254.760694 -185.641474 
L 254.949037 -184.43941 
L 255.137569 -183.237346 
L 255.324452 -182.035283 
L 255.50782 -180.833219 
L 255.685812 -179.631155 
L 255.856605 -178.429091 
L 256.018444 -177.227027 
L 256.169678 -176.024963 
L 256.308789 -174.822899 
L 256.43442 -173.620835 
L 256.545407 -172.418771 
L 256.640802 -171.216708 
L 256.719894 -170.014644 
L 256.782225 -168.81258 
L 256.827603 -167.610516 
L 256.856101 -166.408452 
L 256.868056 -165.206388 
L 256.864056 -164.004324 
L 256.844914 -162.80226 
L 256.811646 -161.600197 
L 256.765428 -160.398133 
L 256.707557 -159.196069 
L 256.639402 -157.994005 
L 256.562357 -156.791941 
L 256.477792 -155.589877 
L 256.387008 -154.387813 
L 256.291193 -153.185749 
L 256.191395 -151.983686 
L 256.088491 -150.781622 
L 255.983175 -149.579558 
L 255.875957 -148.377494 
L 255.767162 -147.17543 
L 255.656955 -145.973366 
L 255.545357 -144.771302 
L 255.43228 -143.569238 
L 255.317562 -142.367174 
L 255.201002 -141.165111 
L 255.082399 -139.963047 
L 254.961587 -138.760983 
L 254.838461 -137.558919 
L 254.713008 -136.356855 
L 254.58532 -135.154791 
L 254.455609 -133.952727 
L 254.324209 -132.750663 
L 254.191573 -131.5486 
L 254.058263 -130.346536 
L 253.924939 -129.144472 
L 253.792337 -127.942408 
L 253.661248 -126.740344 
L 253.532493 -125.53828 
L 253.406901 -124.336216 
L 253.285282 -123.134152 
L 253.168402 -121.932088 
L 253.056962 -120.730025 
L 252.951573 -119.527961 
L 252.852745 -118.325897 
L 252.760862 -117.123833 
L 252.676179 -115.921769 
L 252.598808 -114.719705 
L 252.528715 -113.517641 
L 252.465723 -112.315577 
L 252.409514 -111.113514 
L 252.359641 -109.91145 
L 252.315539 -108.709386 
L 252.276547 -107.507322 
L 252.241927 -106.305258 
L 252.210891 -105.103194 
L 252.182626 -103.90113 
L 252.156319 -102.699066 
L 252.131192 -101.497002 
L 252.106518 -100.294939 
L 252.081652 -99.092875 
L 252.056042 -97.890811 
z
" style="stroke: #ff8c00; stroke-width: 1.5"/>
    </defs>
    <g clip-path="url(#pa45524b1b3)">
     <use xlink:href="#m0451e30c13" x="0" y="360" style="fill: #ffffff; stroke: #ff8c00; stroke-width: 1.5"/>
    </g>
   </g>
   <g id="PolyCollection_6">
    <defs>
     <path id="mb0b032b42d" d="M 296.863065 -175.757838 
L 294.741358 -175.757838 
L 294.702855 -177.167666 
L 294.664226 -178.577494 
L 294.625506 -179.987322 
L 294.586729 -181.39715 
L 294.547929 -182.806978 
L 294.50914 -184.216806 
L 294.470397 -185.626634 
L 294.431734 -187.036462 
L 294.393186 -188.44629 
L 294.354787 -189.856118 
L 294.316571 -191.265946 
L 294.278572 -192.675774 
L 294.24082 -194.085602 
L 294.203345 -195.49543 
L 294.166173 -196.905258 
L 294.129326 -198.315086 
L 294.092823 -199.724914 
L 294.056674 -201.134742 
L 294.020885 -202.54457 
L 293.985453 -203.954398 
L 293.950366 -205.364226 
L 293.915606 -206.774054 
L 293.881143 -208.183882 
L 293.846937 -209.59371 
L 293.812938 -211.003538 
L 293.779089 -212.413366 
L 293.745322 -213.823194 
L 293.711559 -215.233022 
L 293.677718 -216.64285 
L 293.64371 -218.052678 
L 293.609442 -219.462506 
L 293.574819 -220.872334 
L 293.539746 -222.282162 
L 293.504133 -223.69199 
L 293.467894 -225.101818 
L 293.430951 -226.511646 
L 293.393238 -227.921474 
L 293.354705 -229.331302 
L 293.315317 -230.74113 
L 293.27506 -232.150958 
L 293.233941 -233.560786 
L 293.191994 -234.970614 
L 293.149277 -236.380442 
L 293.105878 -237.79027 
L 293.061912 -239.200098 
L 293.017526 -240.609926 
L 292.972893 -242.019754 
L 292.928219 -243.429582 
L 292.883734 -244.83941 
L 292.839698 -246.249238 
L 292.796391 -247.659066 
L 292.754116 -249.068894 
L 292.713193 -250.478722 
L 292.673956 -251.88855 
L 292.636749 -253.298378 
L 292.601919 -254.708206 
L 292.569816 -256.118034 
L 292.540784 -257.527862 
L 292.515157 -258.93769 
L 292.493253 -260.347518 
L 292.475375 -261.757346 
L 292.461796 -263.167174 
L 292.452765 -264.577002 
L 292.448495 -265.98683 
L 292.449166 -267.396658 
L 292.454918 -268.806486 
L 292.465849 -270.216314 
L 292.482015 -271.626143 
L 292.503429 -273.035971 
L 292.530058 -274.445799 
L 292.561827 -275.855627 
L 292.598618 -277.265455 
L 292.640272 -278.675283 
L 292.686593 -280.085111 
L 292.737348 -281.494939 
L 292.792273 -282.904767 
L 292.851076 -284.314595 
L 292.913442 -285.724423 
L 292.979036 -287.134251 
L 293.047509 -288.544079 
L 293.118501 -289.953907 
L 293.191649 -291.363735 
L 293.266588 -292.773563 
L 293.342957 -294.183391 
L 293.420402 -295.593219 
L 293.498583 -297.003047 
L 293.577171 -298.412875 
L 293.655859 -299.822703 
L 293.734358 -301.232531 
L 293.812399 -302.642359 
L 293.889741 -304.052187 
L 293.966162 -305.462015 
L 294.04147 -306.871843 
L 294.115492 -308.281671 
L 294.188084 -309.691499 
L 294.259122 -311.101327 
L 294.328505 -312.511155 
L 294.396152 -313.920983 
L 294.462003 -315.330811 
L 297.142419 -315.330811 
L 297.142419 -315.330811 
L 297.20827 -313.920983 
L 297.275918 -312.511155 
L 297.345301 -311.101327 
L 297.416339 -309.691499 
L 297.488931 -308.281671 
L 297.562953 -306.871843 
L 297.63826 -305.462015 
L 297.714682 -304.052187 
L 297.792023 -302.642359 
L 297.870065 -301.232531 
L 297.948563 -299.822703 
L 298.027251 -298.412875 
L 298.10584 -297.003047 
L 298.18402 -295.593219 
L 298.261466 -294.183391 
L 298.337834 -292.773563 
L 298.412773 -291.363735 
L 298.485921 -289.953907 
L 298.556914 -288.544079 
L 298.625386 -287.134251 
L 298.69098 -285.724423 
L 298.753346 -284.314595 
L 298.81215 -282.904767 
L 298.867075 -281.494939 
L 298.917829 -280.085111 
L 298.96415 -278.675283 
L 299.005804 -277.265455 
L 299.042595 -275.855627 
L 299.074364 -274.445799 
L 299.100994 -273.035971 
L 299.122407 -271.626143 
L 299.138573 -270.216314 
L 299.149505 -268.806486 
L 299.155256 -267.396658 
L 299.155928 -265.98683 
L 299.151658 -264.577002 
L 299.142627 -263.167174 
L 299.129048 -261.757346 
L 299.111169 -260.347518 
L 299.089266 -258.93769 
L 299.063639 -257.527862 
L 299.034606 -256.118034 
L 299.002503 -254.708206 
L 298.967674 -253.298378 
L 298.930467 -251.88855 
L 298.89123 -250.478722 
L 298.850307 -249.068894 
L 298.808032 -247.659066 
L 298.764725 -246.249238 
L 298.720688 -244.83941 
L 298.676204 -243.429582 
L 298.631529 -242.019754 
L 298.586897 -240.609926 
L 298.54251 -239.200098 
L 298.498544 -237.79027 
L 298.455145 -236.380442 
L 298.412428 -234.970614 
L 298.370481 -233.560786 
L 298.329363 -232.150958 
L 298.289105 -230.74113 
L 298.249717 -229.331302 
L 298.211184 -227.921474 
L 298.173472 -226.511646 
L 298.136529 -225.101818 
L 298.100289 -223.69199 
L 298.064676 -222.282162 
L 298.029604 -220.872334 
L 297.994981 -219.462506 
L 297.960712 -218.052678 
L 297.926704 -216.64285 
L 297.892864 -215.233022 
L 297.859101 -213.823194 
L 297.825333 -212.413366 
L 297.791484 -211.003538 
L 297.757486 -209.59371 
L 297.72328 -208.183882 
L 297.688816 -206.774054 
L 297.654056 -205.364226 
L 297.61897 -203.954398 
L 297.583538 -202.54457 
L 297.547749 -201.134742 
L 297.5116 -199.724914 
L 297.475096 -198.315086 
L 297.43825 -196.905258 
L 297.401078 -195.49543 
L 297.363603 -194.085602 
L 297.325851 -192.675774 
L 297.287851 -191.265946 
L 297.249635 -189.856118 
L 297.211237 -188.44629 
L 297.172688 -187.036462 
L 297.134025 -185.626634 
L 297.095282 -184.216806 
L 297.056494 -182.806978 
L 297.017694 -181.39715 
L 296.978916 -179.987322 
L 296.940196 -178.577494 
L 296.901568 -177.167666 
L 296.863065 -175.757838 
z
" style="stroke: #ee82ee; stroke-width: 1.5"/>
    </defs>
    <g clip-path="url(#pa45524b1b3)">
     <use xlink:href="#mb0b032b42d" x="0" y="360" style="fill: #ffffff; stroke: #ee82ee; stroke-width: 1.5"/>
    </g>
   </g>
   <g id="matplotlib.axis_1">
    <g id="xtick_1">
     <g id="text_1">
      <!-- V Bilateral Right Soma -->
      <g transform="translate(13.323696 387.40842)rotate(-25)scale(0.12 -0.12)">
       <defs>
        <path id="DejaVuSans-56" d="M 1831 0 
L 50 4666 
L 709 4666 
L 2188 738 
L 3669 4666 
L 4325 4666 
L 2547 0 
L 1831 0 
z
" transform="scale(0.015625)"/>
        <path id="DejaVuSans-20" transform="scale(0.015625)"/>
        <path id="DejaVuSans-42" d="M 1259 2228 
L 1259 519 
L 2272 519 
Q 2781 519 3026 730 
Q 3272 941 3272 1375 
Q 3272 1813 3026 2020 
Q 2781 2228 2272 2228 
L 1259 2228 
z
M 1259 4147 
L 1259 2741 
L 2194 2741 
Q 2656 2741 2882 2914 
Q 3109 3088 3109 3444 
Q 3109 3797 2882 3972 
Q 2656 4147 2194 4147 
L 1259 4147 
z
M 628 4666 
L 2241 4666 
Q 2963 4666 3353 4366 
Q 3744 4066 3744 3513 
Q 3744 3084 3544 2831 
Q 3344 2578 2956 2516 
Q 3422 2416 3680 2098 
Q 3938 1781 3938 1306 
Q 3938 681 3513 340 
Q 3088 0 2303 0 
L 628 0 
L 628 4666 
z
" transform="scale(0.015625)"/>
        <path id="DejaVuSans-69" d="M 603 3500 
L 1178 3500 
L 1178 0 
L 603 0 
L 603 3500 
z
M 603 4863 
L 1178 4863 
L 1178 4134 
L 603 4134 
L 603 4863 
z
" transform="scale(0.015625)"/>
        <path id="DejaVuSans-6c" d="M 603 4863 
L 1178 4863 
L 1178 0 
L 603 0 
L 603 4863 
z
" transform="scale(0.015625)"/>
        <path id="DejaVuSans-61" d="M 2194 1759 
Q 1497 1759 1228 1600 
Q 959 1441 959 1056 
Q 959 750 1161 570 
Q 1363 391 1709 391 
Q 2188 391 2477 730 
Q 2766 1069 2766 1631 
L 2766 1759 
L 2194 1759 
z
M 3341 1997 
L 3341 0 
L 2766 0 
L 2766 531 
Q 2569 213 2275 61 
Q 1981 -91 1556 -91 
Q 1019 -91 701 211 
Q 384 513 384 1019 
Q 384 1609 779 1909 
Q 1175 2209 1959 2209 
L 2766 2209 
L 2766 2266 
Q 2766 2663 2505 2880 
Q 2244 3097 1772 3097 
Q 1472 3097 1187 3025 
Q 903 2953 641 2809 
L 641 3341 
Q 956 3463 1253 3523 
Q 1550 3584 1831 3584 
Q 2591 3584 2966 3190 
Q 3341 2797 3341 1997 
z
" transform="scale(0.015625)"/>
        <path id="DejaVuSans-74" d="M 1172 4494 
L 1172 3500 
L 2356 3500 
L 2356 3053 
L 1172 3053 
L 1172 1153 
Q 1172 725 1289 603 
Q 1406 481 1766 481 
L 2356 481 
L 2356 0 
L 1766 0 
Q 1100 0 847 248 
Q 594 497 594 1153 
L 594 3053 
L 172 3053 
L 172 3500 
L 594 3500 
L 594 4494 
L 1172 4494 
z
" transform="scale(0.015625)"/>
        <path id="DejaVuSans-65" d="M 3597 1894 
L 3597 1613 
L 953 1613 
Q 991 1019 1311 708 
Q 1631 397 2203 397 
Q 2534 397 2845 478 
Q 3156 559 3463 722 
L 3463 178 
Q 3153 47 2828 -22 
Q 2503 -91 2169 -91 
Q 1331 -91 842 396 
Q 353 884 353 1716 
Q 353 2575 817 3079 
Q 1281 3584 2069 3584 
Q 2775 3584 3186 3129 
Q 3597 2675 3597 1894 
z
M 3022 2063 
Q 3016 2534 2758 2815 
Q 2500 3097 2075 3097 
Q 1594 3097 1305 2825 
Q 1016 2553 972 2059 
L 3022 2063 
z
" transform="scale(0.015625)"/>
        <path id="DejaVuSans-72" d="M 2631 2963 
Q 2534 3019 2420 3045 
Q 2306 3072 2169 3072 
Q 1681 3072 1420 2755 
Q 1159 2438 1159 1844 
L 1159 0 
L 581 0 
L 581 3500 
L 1159 3500 
L 1159 2956 
Q 1341 3275 1631 3429 
Q 1922 3584 2338 3584 
Q 2397 3584 2469 3576 
Q 2541 3569 2628 3553 
L 2631 2963 
z
" transform="scale(0.015625)"/>
        <path id="DejaVuSans-52" d="M 2841 2188 
Q 3044 2119 3236 1894 
Q 3428 1669 3622 1275 
L 4263 0 
L 3584 0 
L 2988 1197 
Q 2756 1666 2539 1819 
Q 2322 1972 1947 1972 
L 1259 1972 
L 1259 0 
L 628 0 
L 628 4666 
L 2053 4666 
Q 2853 4666 3247 4331 
Q 3641 3997 3641 3322 
Q 3641 2881 3436 2590 
Q 3231 2300 2841 2188 
z
M 1259 4147 
L 1259 2491 
L 2053 2491 
Q 2509 2491 2742 2702 
Q 2975 2913 2975 3322 
Q 2975 3731 2742 3939 
Q 2509 4147 2053 4147 
L 1259 4147 
z
" transform="scale(0.015625)"/>
        <path id="DejaVuSans-67" d="M 2906 1791 
Q 2906 2416 2648 2759 
Q 2391 3103 1925 3103 
Q 1463 3103 1205 2759 
Q 947 2416 947 1791 
Q 947 1169 1205 825 
Q 1463 481 1925 481 
Q 2391 481 2648 825 
Q 2906 1169 2906 1791 
z
M 3481 434 
Q 3481 -459 3084 -895 
Q 2688 -1331 1869 -1331 
Q 1566 -1331 1297 -1286 
Q 1028 -1241 775 -1147 
L 775 -588 
Q 1028 -725 1275 -790 
Q 1522 -856 1778 -856 
Q 2344 -856 2625 -561 
Q 2906 -266 2906 331 
L 2906 616 
Q 2728 306 2450 153 
Q 2172 0 1784 0 
Q 1141 0 747 490 
Q 353 981 353 1791 
Q 353 2603 747 3093 
Q 1141 3584 1784 3584 
Q 2172 3584 2450 3431 
Q 2728 3278 2906 2969 
L 2906 3500 
L 3481 3500 
L 3481 434 
z
" transform="scale(0.015625)"/>
        <path id="DejaVuSans-68" d="M 3513 2113 
L 3513 0 
L 2938 0 
L 2938 2094 
Q 2938 2591 2744 2837 
Q 2550 3084 2163 3084 
Q 1697 3084 1428 2787 
Q 1159 2491 1159 1978 
L 1159 0 
L 581 0 
L 581 4863 
L 1159 4863 
L 1159 2956 
Q 1366 3272 1645 3428 
Q 1925 3584 2291 3584 
Q 2894 3584 3203 3211 
Q 3513 2838 3513 2113 
z
" transform="scale(0.015625)"/>
        <path id="DejaVuSans-53" d="M 3425 4513 
L 3425 3897 
Q 3066 4069 2747 4153 
Q 2428 4238 2131 4238 
Q 1616 4238 1336 4038 
Q 1056 3838 1056 3469 
Q 1056 3159 1242 3001 
Q 1428 2844 1947 2747 
L 2328 2669 
Q 3034 2534 3370 2195 
Q 3706 1856 3706 1288 
Q 3706 609 3251 259 
Q 2797 -91 1919 -91 
Q 1588 -91 1214 -16 
Q 841 59 441 206 
L 441 856 
Q 825 641 1194 531 
Q 1563 422 1919 422 
Q 2459 422 2753 634 
Q 3047 847 3047 1241 
Q 3047 1584 2836 1778 
Q 2625 1972 2144 2069 
L 1759 2144 
Q 1053 2284 737 2584 
Q 422 2884 422 3419 
Q 422 4038 858 4394 
Q 1294 4750 2059 4750 
Q 2388 4750 2728 4690 
Q 3069 4631 3425 4513 
z
" transform="scale(0.015625)"/>
        <path id="DejaVuSans-6f" d="M 1959 3097 
Q 1497 3097 1228 2736 
Q 959 2375 959 1747 
Q 959 1119 1226 758 
Q 1494 397 1959 397 
Q 2419 397 2687 759 
Q 2956 1122 2956 1747 
Q 2956 2369 2687 2733 
Q 2419 3097 1959 3097 
z
M 1959 3584 
Q 2709 3584 3137 3096 
Q 3566 2609 3566 1747 
Q 3566 888 3137 398 
Q 2709 -91 1959 -91 
Q 1206 -91 779 398 
Q 353 888 353 1747 
Q 353 2609 779 3096 
Q 1206 3584 1959 3584 
z
" transform="scale(0.015625)"/>
        <path id="DejaVuSans-6d" d="M 3328 2828 
Q 3544 3216 3844 3400 
Q 4144 3584 4550 3584 
Q 5097 3584 5394 3201 
Q 5691 2819 5691 2113 
L 5691 0 
L 5113 0 
L 5113 2094 
Q 5113 2597 4934 2840 
Q 4756 3084 4391 3084 
Q 3944 3084 3684 2787 
Q 3425 2491 3425 1978 
L 3425 0 
L 2847 0 
L 2847 2094 
Q 2847 2600 2669 2842 
Q 2491 3084 2119 3084 
Q 1678 3084 1418 2786 
Q 1159 2488 1159 1978 
L 1159 0 
L 581 0 
L 581 3500 
L 1159 3500 
L 1159 2956 
Q 1356 3278 1631 3431 
Q 1906 3584 2284 3584 
Q 2666 3584 2933 3390 
Q 3200 3197 3328 2828 
z
" transform="scale(0.015625)"/>
       </defs>
       <use xlink:href="#DejaVuSans-56"/>
       <use xlink:href="#DejaVuSans-20" x="68.408203"/>
       <use xlink:href="#DejaVuSans-42" x="100.195312"/>
       <use xlink:href="#DejaVuSans-69" x="168.798828"/>
       <use xlink:href="#DejaVuSans-6c" x="196.582031"/>
       <use xlink:href="#DejaVuSans-61" x="224.365234"/>
       <use xlink:href="#DejaVuSans-74" x="285.644531"/>
       <use xlink:href="#DejaVuSans-65" x="324.853516"/>
       <use xlink:href="#DejaVuSans-72" x="386.376953"/>
       <use xlink:href="#DejaVuSans-61" x="427.490234"/>
       <use xlink:href="#DejaVuSans-6c" x="488.769531"/>
       <use xlink:href="#DejaVuSans-20" x="516.552734"/>
       <use xlink:href="#DejaVuSans-52" x="548.339844"/>
       <use xlink:href="#DejaVuSans-69" x="617.822266"/>
       <use xlink:href="#DejaVuSans-67" x="645.605469"/>
       <use xlink:href="#DejaVuSans-68" x="709.082031"/>
       <use xlink:href="#DejaVuSans-74" x="772.460938"/>
       <use xlink:href="#DejaVuSans-20" x="811.669922"/>
       <use xlink:href="#DejaVuSans-53" x="843.457031"/>
       <use xlink:href="#DejaVuSans-6f" x="906.933594"/>
       <use xlink:href="#DejaVuSans-6d" x="968.115234"/>
       <use xlink:href="#DejaVuSans-61" x="1065.527344"/>
      </g>
     </g>
    </g>
    <g id="xtick_2">
     <g id="text_2">
      <!-- V Bilateral Left Soma -->
      <g transform="translate(61.932312 383.596139)rotate(-25)scale(0.12 -0.12)">
       <defs>
        <path id="DejaVuSans-4c" d="M 628 4666 
L 1259 4666 
L 1259 531 
L 3531 531 
L 3531 0 
L 628 0 
L 628 4666 
z
" transform="scale(0.015625)"/>
        <path id="DejaVuSans-66" d="M 2375 4863 
L 2375 4384 
L 1825 4384 
Q 1516 4384 1395 4259 
Q 1275 4134 1275 3809 
L 1275 3500 
L 2222 3500 
L 2222 3053 
L 1275 3053 
L 1275 0 
L 697 0 
L 697 3053 
L 147 3053 
L 147 3500 
L 697 3500 
L 697 3744 
Q 697 4328 969 4595 
Q 1241 4863 1831 4863 
L 2375 4863 
z
" transform="scale(0.015625)"/>
       </defs>
       <use xlink:href="#DejaVuSans-56"/>
       <use xlink:href="#DejaVuSans-20" x="68.408203"/>
       <use xlink:href="#DejaVuSans-42" x="100.195312"/>
       <use xlink:href="#DejaVuSans-69" x="168.798828"/>
       <use xlink:href="#DejaVuSans-6c" x="196.582031"/>
       <use xlink:href="#DejaVuSans-61" x="224.365234"/>
       <use xlink:href="#DejaVuSans-74" x="285.644531"/>
       <use xlink:href="#DejaVuSans-65" x="324.853516"/>
       <use xlink:href="#DejaVuSans-72" x="386.376953"/>
       <use xlink:href="#DejaVuSans-61" x="427.490234"/>
       <use xlink:href="#DejaVuSans-6c" x="488.769531"/>
       <use xlink:href="#DejaVuSans-20" x="516.552734"/>
       <use xlink:href="#DejaVuSans-4c" x="548.339844"/>
       <use xlink:href="#DejaVuSans-65" x="602.302734"/>
       <use xlink:href="#DejaVuSans-66" x="663.826172"/>
       <use xlink:href="#DejaVuSans-74" x="697.28125"/>
       <use xlink:href="#DejaVuSans-20" x="736.490234"/>
       <use xlink:href="#DejaVuSans-53" x="768.277344"/>
       <use xlink:href="#DejaVuSans-6f" x="831.753906"/>
       <use xlink:href="#DejaVuSans-6d" x="892.935547"/>
       <use xlink:href="#DejaVuSans-61" x="990.347656"/>
      </g>
     </g>
    </g>
    <g id="xtick_3">
     <g id="text_3">
      <!-- V Unilateral -->
      <g transform="translate(131.854738 359.906273)rotate(-25)scale(0.12 -0.12)">
       <defs>
        <path id="DejaVuSans-55" d="M 556 4666 
L 1191 4666 
L 1191 1831 
Q 1191 1081 1462 751 
Q 1734 422 2344 422 
Q 2950 422 3222 751 
Q 3494 1081 3494 1831 
L 3494 4666 
L 4128 4666 
L 4128 1753 
Q 4128 841 3676 375 
Q 3225 -91 2344 -91 
Q 1459 -91 1007 375 
Q 556 841 556 1753 
L 556 4666 
z
" transform="scale(0.015625)"/>
        <path id="DejaVuSans-6e" d="M 3513 2113 
L 3513 0 
L 2938 0 
L 2938 2094 
Q 2938 2591 2744 2837 
Q 2550 3084 2163 3084 
Q 1697 3084 1428 2787 
Q 1159 2491 1159 1978 
L 1159 0 
L 581 0 
L 581 3500 
L 1159 3500 
L 1159 2956 
Q 1366 3272 1645 3428 
Q 1925 3584 2291 3584 
Q 2894 3584 3203 3211 
Q 3513 2838 3513 2113 
z
" transform="scale(0.015625)"/>
       </defs>
       <use xlink:href="#DejaVuSans-56"/>
       <use xlink:href="#DejaVuSans-20" x="68.408203"/>
       <use xlink:href="#DejaVuSans-55" x="100.195312"/>
       <use xlink:href="#DejaVuSans-6e" x="173.388672"/>
       <use xlink:href="#DejaVuSans-69" x="236.767578"/>
       <use xlink:href="#DejaVuSans-6c" x="264.550781"/>
       <use xlink:href="#DejaVuSans-61" x="292.333984"/>
       <use xlink:href="#DejaVuSans-74" x="353.613281"/>
       <use xlink:href="#DejaVuSans-65" x="392.822266"/>
       <use xlink:href="#DejaVuSans-72" x="454.345703"/>
       <use xlink:href="#DejaVuSans-61" x="495.458984"/>
       <use xlink:href="#DejaVuSans-6c" x="556.738281"/>
      </g>
     </g>
    </g>
    <g id="xtick_4">
     <g id="text_4">
      <!-- V total -->
      <g transform="translate(190.277818 346.940873)rotate(-25)scale(0.12 -0.12)">
       <use xlink:href="#DejaVuSans-56"/>
       <use xlink:href="#DejaVuSans-20" x="68.408203"/>
       <use xlink:href="#DejaVuSans-74" x="100.195312"/>
       <use xlink:href="#DejaVuSans-6f" x="139.404297"/>
       <use xlink:href="#DejaVuSans-74" x="200.585938"/>
       <use xlink:href="#DejaVuSans-61" x="239.794922"/>
       <use xlink:href="#DejaVuSans-6c" x="301.074219"/>
      </g>
     </g>
    </g>
    <g id="xtick_5">
     <g id="text_5">
      <!-- DM1 Unilateral -->
      <g transform="translate(212.27752 367.944472)rotate(-25)scale(0.12 -0.12)">
       <defs>
        <path id="DejaVuSans-44" d="M 1259 4147 
L 1259 519 
L 2022 519 
Q 2988 519 3436 956 
Q 3884 1394 3884 2338 
Q 3884 3275 3436 3711 
Q 2988 4147 2022 4147 
L 1259 4147 
z
M 628 4666 
L 1925 4666 
Q 3281 4666 3915 4102 
Q 4550 3538 4550 2338 
Q 4550 1131 3912 565 
Q 3275 0 1925 0 
L 628 0 
L 628 4666 
z
" transform="scale(0.015625)"/>
        <path id="DejaVuSans-4d" d="M 628 4666 
L 1569 4666 
L 2759 1491 
L 3956 4666 
L 4897 4666 
L 4897 0 
L 4281 0 
L 4281 4097 
L 3078 897 
L 2444 897 
L 1241 4097 
L 1241 0 
L 628 0 
L 628 4666 
z
" transform="scale(0.015625)"/>
        <path id="DejaVuSans-31" d="M 794 531 
L 1825 531 
L 1825 4091 
L 703 3866 
L 703 4441 
L 1819 4666 
L 2450 4666 
L 2450 531 
L 3481 531 
L 3481 0 
L 794 0 
L 794 531 
z
" transform="scale(0.015625)"/>
       </defs>
       <use xlink:href="#DejaVuSans-44"/>
       <use xlink:href="#DejaVuSans-4d" x="77.001953"/>
       <use xlink:href="#DejaVuSans-31" x="163.28125"/>
       <use xlink:href="#DejaVuSans-20" x="226.904297"/>
       <use xlink:href="#DejaVuSans-55" x="258.691406"/>
       <use xlink:href="#DejaVuSans-6e" x="331.884766"/>
       <use xlink:href="#DejaVuSans-69" x="395.263672"/>
       <use xlink:href="#DejaVuSans-6c" x="423.046875"/>
       <use xlink:href="#DejaVuSans-61" x="450.830078"/>
       <use xlink:href="#DejaVuSans-74" x="512.109375"/>
       <use xlink:href="#DejaVuSans-65" x="551.318359"/>
       <use xlink:href="#DejaVuSans-72" x="612.841797"/>
       <use xlink:href="#DejaVuSans-61" x="653.955078"/>
       <use xlink:href="#DejaVuSans-6c" x="715.234375"/>
      </g>
     </g>
    </g>
    <g id="xtick_6">
     <g id="text_6">
      <!-- 1 Unilateral -->
      <g transform="translate(265.677389 359.663795)rotate(-25)scale(0.12 -0.12)">
       <use xlink:href="#DejaVuSans-31"/>
       <use xlink:href="#DejaVuSans-20" x="63.623047"/>
       <use xlink:href="#DejaVuSans-55" x="95.410156"/>
       <use xlink:href="#DejaVuSans-6e" x="168.603516"/>
       <use xlink:href="#DejaVuSans-69" x="231.982422"/>
       <use xlink:href="#DejaVuSans-6c" x="259.765625"/>
       <use xlink:href="#DejaVuSans-61" x="287.548828"/>
       <use xlink:href="#DejaVuSans-74" x="348.828125"/>
       <use xlink:href="#DejaVuSans-65" x="388.037109"/>
       <use xlink:href="#DejaVuSans-72" x="449.560547"/>
       <use xlink:href="#DejaVuSans-61" x="490.673828"/>
       <use xlink:href="#DejaVuSans-6c" x="551.953125"/>
      </g>
     </g>
    </g>
    <g id="text_7">
     <!-- Glomerulus -->
     <g transform="translate(138.65 405.827724)scale(0.16 -0.16)">
      <defs>
       <path id="DejaVuSans-47" d="M 3809 666 
L 3809 1919 
L 2778 1919 
L 2778 2438 
L 4434 2438 
L 4434 434 
Q 4069 175 3628 42 
Q 3188 -91 2688 -91 
Q 1594 -91 976 548 
Q 359 1188 359 2328 
Q 359 3472 976 4111 
Q 1594 4750 2688 4750 
Q 3144 4750 3555 4637 
Q 3966 4525 4313 4306 
L 4313 3634 
Q 3963 3931 3569 4081 
Q 3175 4231 2741 4231 
Q 1884 4231 1454 3753 
Q 1025 3275 1025 2328 
Q 1025 1384 1454 906 
Q 1884 428 2741 428 
Q 3075 428 3337 486 
Q 3600 544 3809 666 
z
" transform="scale(0.015625)"/>
       <path id="DejaVuSans-75" d="M 544 1381 
L 544 3500 
L 1119 3500 
L 1119 1403 
Q 1119 906 1312 657 
Q 1506 409 1894 409 
Q 2359 409 2629 706 
Q 2900 1003 2900 1516 
L 2900 3500 
L 3475 3500 
L 3475 0 
L 2900 0 
L 2900 538 
Q 2691 219 2414 64 
Q 2138 -91 1772 -91 
Q 1169 -91 856 284 
Q 544 659 544 1381 
z
M 1991 3584 
L 1991 3584 
z
" transform="scale(0.015625)"/>
       <path id="DejaVuSans-73" d="M 2834 3397 
L 2834 2853 
Q 2591 2978 2328 3040 
Q 2066 3103 1784 3103 
Q 1356 3103 1142 2972 
Q 928 2841 928 2578 
Q 928 2378 1081 2264 
Q 1234 2150 1697 2047 
L 1894 2003 
Q 2506 1872 2764 1633 
Q 3022 1394 3022 966 
Q 3022 478 2636 193 
Q 2250 -91 1575 -91 
Q 1294 -91 989 -36 
Q 684 19 347 128 
L 347 722 
Q 666 556 975 473 
Q 1284 391 1588 391 
Q 1994 391 2212 530 
Q 2431 669 2431 922 
Q 2431 1156 2273 1281 
Q 2116 1406 1581 1522 
L 1381 1569 
Q 847 1681 609 1914 
Q 372 2147 372 2553 
Q 372 3047 722 3315 
Q 1072 3584 1716 3584 
Q 2034 3584 2315 3537 
Q 2597 3491 2834 3397 
z
" transform="scale(0.015625)"/>
      </defs>
      <use xlink:href="#DejaVuSans-47"/>
      <use xlink:href="#DejaVuSans-6c" x="77.490234"/>
      <use xlink:href="#DejaVuSans-6f" x="105.273438"/>
      <use xlink:href="#DejaVuSans-6d" x="166.455078"/>
      <use xlink:href="#DejaVuSans-65" x="263.867188"/>
      <use xlink:href="#DejaVuSans-72" x="325.390625"/>
      <use xlink:href="#DejaVuSans-75" x="366.503906"/>
      <use xlink:href="#DejaVuSans-6c" x="429.882812"/>
      <use xlink:href="#DejaVuSans-75" x="457.666016"/>
      <use xlink:href="#DejaVuSans-73" x="521.044922"/>
     </g>
    </g>
   </g>
   <g id="matplotlib.axis_2">
    <g id="ytick_1">
     <g id="line2d_1">
      <defs>
       <path id="m9824b84d28" d="M 0 0 
L -3.5 0 
" style="stroke: #000000; stroke-width: 0.8"/>
      </defs>
      <g>
       <use xlink:href="#m9824b84d28" x="50.937346" y="315" style="stroke: #000000; stroke-width: 0.8"/>
      </g>
     </g>
     <g id="text_8">
      <!-- 0 -->
      <g transform="translate(35.029846 320.318906)scale(0.14 -0.14)">
       <defs>
        <path id="DejaVuSans-30" d="M 2034 4250 
Q 1547 4250 1301 3770 
Q 1056 3291 1056 2328 
Q 1056 1369 1301 889 
Q 1547 409 2034 409 
Q 2525 409 2770 889 
Q 3016 1369 3016 2328 
Q 3016 3291 2770 3770 
Q 2525 4250 2034 4250 
z
M 2034 4750 
Q 2819 4750 3233 4129 
Q 3647 3509 3647 2328 
Q 3647 1150 3233 529 
Q 2819 -91 2034 -91 
Q 1250 -91 836 529 
Q 422 1150 422 2328 
Q 422 3509 836 4129 
Q 1250 4750 2034 4750 
z
" transform="scale(0.015625)"/>
       </defs>
       <use xlink:href="#DejaVuSans-30"/>
      </g>
     </g>
    </g>
    <g id="ytick_2">
     <g id="line2d_2">
      <g>
       <use xlink:href="#m9824b84d28" x="50.937346" y="278.27027" style="stroke: #000000; stroke-width: 0.8"/>
      </g>
     </g>
     <g id="text_9">
      <!-- 25 -->
      <g transform="translate(26.122346 283.589177)scale(0.14 -0.14)">
       <defs>
        <path id="DejaVuSans-32" d="M 1228 531 
L 3431 531 
L 3431 0 
L 469 0 
L 469 531 
Q 828 903 1448 1529 
Q 2069 2156 2228 2338 
Q 2531 2678 2651 2914 
Q 2772 3150 2772 3378 
Q 2772 3750 2511 3984 
Q 2250 4219 1831 4219 
Q 1534 4219 1204 4116 
Q 875 4013 500 3803 
L 500 4441 
Q 881 4594 1212 4672 
Q 1544 4750 1819 4750 
Q 2544 4750 2975 4387 
Q 3406 4025 3406 3419 
Q 3406 3131 3298 2873 
Q 3191 2616 2906 2266 
Q 2828 2175 2409 1742 
Q 1991 1309 1228 531 
z
" transform="scale(0.015625)"/>
        <path id="DejaVuSans-35" d="M 691 4666 
L 3169 4666 
L 3169 4134 
L 1269 4134 
L 1269 2991 
Q 1406 3038 1543 3061 
Q 1681 3084 1819 3084 
Q 2600 3084 3056 2656 
Q 3513 2228 3513 1497 
Q 3513 744 3044 326 
Q 2575 -91 1722 -91 
Q 1428 -91 1123 -41 
Q 819 9 494 109 
L 494 744 
Q 775 591 1075 516 
Q 1375 441 1709 441 
Q 2250 441 2565 725 
Q 2881 1009 2881 1497 
Q 2881 1984 2565 2268 
Q 2250 2553 1709 2553 
Q 1456 2553 1204 2497 
Q 953 2441 691 2322 
L 691 4666 
z
" transform="scale(0.015625)"/>
       </defs>
       <use xlink:href="#DejaVuSans-32"/>
       <use xlink:href="#DejaVuSans-35" x="63.623047"/>
      </g>
     </g>
    </g>
    <g id="ytick_3">
     <g id="line2d_3">
      <g>
       <use xlink:href="#m9824b84d28" x="50.937346" y="241.540541" style="stroke: #000000; stroke-width: 0.8"/>
      </g>
     </g>
     <g id="text_10">
      <!-- 50 -->
      <g transform="translate(26.122346 246.859447)scale(0.14 -0.14)">
       <use xlink:href="#DejaVuSans-35"/>
       <use xlink:href="#DejaVuSans-30" x="63.623047"/>
      </g>
     </g>
    </g>
    <g id="ytick_4">
     <g id="line2d_4">
      <g>
       <use xlink:href="#m9824b84d28" x="50.937346" y="204.810811" style="stroke: #000000; stroke-width: 0.8"/>
      </g>
     </g>
     <g id="text_11">
      <!-- 75 -->
      <g transform="translate(26.122346 210.129717)scale(0.14 -0.14)">
       <defs>
        <path id="DejaVuSans-37" d="M 525 4666 
L 3525 4666 
L 3525 4397 
L 1831 0 
L 1172 0 
L 2766 4134 
L 525 4134 
L 525 4666 
z
" transform="scale(0.015625)"/>
       </defs>
       <use xlink:href="#DejaVuSans-37"/>
       <use xlink:href="#DejaVuSans-35" x="63.623047"/>
      </g>
     </g>
    </g>
    <g id="ytick_5">
     <g id="line2d_5">
      <g>
       <use xlink:href="#m9824b84d28" x="50.937346" y="168.081081" style="stroke: #000000; stroke-width: 0.8"/>
      </g>
     </g>
     <g id="text_12">
      <!-- 100 -->
      <g transform="translate(17.214846 173.399987)scale(0.14 -0.14)">
       <use xlink:href="#DejaVuSans-31"/>
       <use xlink:href="#DejaVuSans-30" x="63.623047"/>
       <use xlink:href="#DejaVuSans-30" x="127.246094"/>
      </g>
     </g>
    </g>
    <g id="ytick_6">
     <g id="line2d_6">
      <g>
       <use xlink:href="#m9824b84d28" x="50.937346" y="131.351351" style="stroke: #000000; stroke-width: 0.8"/>
      </g>
     </g>
     <g id="text_13">
      <!-- 125 -->
      <g transform="translate(17.214846 136.670258)scale(0.14 -0.14)">
       <use xlink:href="#DejaVuSans-31"/>
       <use xlink:href="#DejaVuSans-32" x="63.623047"/>
       <use xlink:href="#DejaVuSans-35" x="127.246094"/>
      </g>
     </g>
    </g>
    <g id="ytick_7">
     <g id="line2d_7">
      <g>
       <use xlink:href="#m9824b84d28" x="50.937346" y="94.621622" style="stroke: #000000; stroke-width: 0.8"/>
      </g>
     </g>
     <g id="text_14">
      <!-- 150 -->
      <g transform="translate(17.214846 99.940528)scale(0.14 -0.14)">
       <use xlink:href="#DejaVuSans-31"/>
       <use xlink:href="#DejaVuSans-35" x="63.623047"/>
       <use xlink:href="#DejaVuSans-30" x="127.246094"/>
      </g>
     </g>
    </g>
    <g id="ytick_8">
     <g id="line2d_8">
      <g>
       <use xlink:href="#m9824b84d28" x="50.937346" y="57.891892" style="stroke: #000000; stroke-width: 0.8"/>
      </g>
     </g>
     <g id="text_15">
      <!-- 175 -->
      <g transform="translate(17.214846 63.210798)scale(0.14 -0.14)">
       <use xlink:href="#DejaVuSans-31"/>
       <use xlink:href="#DejaVuSans-37" x="63.623047"/>
       <use xlink:href="#DejaVuSans-35" x="127.246094"/>
      </g>
     </g>
    </g>
    <g id="text_16">
     <!-- Synapse # -->
     <g transform="translate(9.887346 222.30125)rotate(-90)scale(0.16 -0.16)">
      <defs>
       <path id="DejaVuSans-79" d="M 2059 -325 
Q 1816 -950 1584 -1140 
Q 1353 -1331 966 -1331 
L 506 -1331 
L 506 -850 
L 844 -850 
Q 1081 -850 1212 -737 
Q 1344 -625 1503 -206 
L 1606 56 
L 191 3500 
L 800 3500 
L 1894 763 
L 2988 3500 
L 3597 3500 
L 2059 -325 
z
" transform="scale(0.015625)"/>
       <path id="DejaVuSans-70" d="M 1159 525 
L 1159 -1331 
L 581 -1331 
L 581 3500 
L 1159 3500 
L 1159 2969 
Q 1341 3281 1617 3432 
Q 1894 3584 2278 3584 
Q 2916 3584 3314 3078 
Q 3713 2572 3713 1747 
Q 3713 922 3314 415 
Q 2916 -91 2278 -91 
Q 1894 -91 1617 61 
Q 1341 213 1159 525 
z
M 3116 1747 
Q 3116 2381 2855 2742 
Q 2594 3103 2138 3103 
Q 1681 3103 1420 2742 
Q 1159 2381 1159 1747 
Q 1159 1113 1420 752 
Q 1681 391 2138 391 
Q 2594 391 2855 752 
Q 3116 1113 3116 1747 
z
" transform="scale(0.015625)"/>
       <path id="DejaVuSans-23" d="M 3272 2816 
L 2363 2816 
L 2100 1772 
L 3016 1772 
L 3272 2816 
z
M 2803 4594 
L 2478 3297 
L 3391 3297 
L 3719 4594 
L 4219 4594 
L 3897 3297 
L 4872 3297 
L 4872 2816 
L 3775 2816 
L 3519 1772 
L 4513 1772 
L 4513 1294 
L 3397 1294 
L 3072 0 
L 2572 0 
L 2894 1294 
L 1978 1294 
L 1656 0 
L 1153 0 
L 1478 1294 
L 494 1294 
L 494 1772 
L 1594 1772 
L 1856 2816 
L 850 2816 
L 850 3297 
L 1978 3297 
L 2297 4594 
L 2803 4594 
z
" transform="scale(0.015625)"/>
      </defs>
      <use xlink:href="#DejaVuSans-53"/>
      <use xlink:href="#DejaVuSans-79" x="63.476562"/>
      <use xlink:href="#DejaVuSans-6e" x="122.65625"/>
      <use xlink:href="#DejaVuSans-61" x="186.035156"/>
      <use xlink:href="#DejaVuSans-70" x="247.314453"/>
      <use xlink:href="#DejaVuSans-73" x="310.791016"/>
      <use xlink:href="#DejaVuSans-65" x="362.890625"/>
      <use xlink:href="#DejaVuSans-20" x="424.414062"/>
      <use xlink:href="#DejaVuSans-23" x="456.201172"/>
     </g>
    </g>
   </g>
   <g id="line2d_9">
    <path d="M 66.639496 272.523148 
L 79.756081 272.523148 
" clip-path="url(#pa45524b1b3)" style="fill: none; stroke: #000000; stroke-width: 1.5; stroke-linecap: square"/>
   </g>
   <g id="line2d_10">
    <path d="M 112.195445 276.887504 
L 123.241902 276.887504 
" clip-path="url(#pa45524b1b3)" style="fill: none; stroke: #000000; stroke-width: 1.5; stroke-linecap: square"/>
   </g>
   <g id="line2d_11">
    <path d="M 145.736647 305.493482 
L 178.742469 305.493482 
" clip-path="url(#pa45524b1b3)" style="fill: none; stroke: #000000; stroke-width: 1.5; stroke-linecap: square"/>
   </g>
   <g id="line2d_12">
    <path d="M 203.825898 224.904134 
L 209.694986 224.904134 
" clip-path="url(#pa45524b1b3)" style="fill: none; stroke: #000000; stroke-width: 1.5; stroke-linecap: square"/>
   </g>
   <g id="line2d_13">
    <path d="M 245.852066 199.75027 
L 256.710587 199.75027 
" clip-path="url(#pa45524b1b3)" style="fill: none; stroke: #000000; stroke-width: 1.5; stroke-linecap: square"/>
   </g>
   <g id="line2d_14">
    <path d="M 292.744083 109.019676 
L 298.86034 109.019676 
" clip-path="url(#pa45524b1b3)" style="fill: none; stroke: #000000; stroke-width: 1.5; stroke-linecap: square"/>
   </g>
   <g id="patch_3">
    <path d="M 50.937346 315 
L 50.937346 43.2 
" style="fill: none; stroke: #000000; stroke-width: 0.8; stroke-linejoin: miter; stroke-linecap: square"/>
   </g>
   <g id="PathCollection_1">
    <defs>
     <path id="C0_0_e005756423" d="M 0 2.5 
C 0.663008 2.5 1.29895 2.236584 1.767767 1.767767 
C 2.236584 1.29895 2.5 0.663008 2.5 -0 
C 2.5 -0.663008 2.236584 -1.29895 1.767767 -1.767767 
C 1.29895 -2.236584 0.663008 -2.5 0 -2.5 
C -0.663008 -2.5 -1.29895 -2.236584 -1.767767 -1.767767 
C -2.236584 -1.29895 -2.5 -0.663008 -2.5 0 
C -2.5 0.663008 -2.236584 1.29895 -1.767767 1.767767 
C -1.29895 2.236584 -0.663008 2.5 0 2.5 
z
"/>
    </defs>
    <g clip-path="url(#pa45524b1b3)">
     <use xlink:href="#C0_0_e005756423" x="76.849922" y="247.417297" style="fill: #8a2be2"/>
    </g>
    <g clip-path="url(#pa45524b1b3)">
     <use xlink:href="#C0_0_e005756423" x="72.044484" y="278.27027" style="fill: #8a2be2"/>
    </g>
    <g clip-path="url(#pa45524b1b3)">
     <use xlink:href="#C0_0_e005756423" x="74.815244" y="266.516757" style="fill: #8a2be2"/>
    </g>
    <g clip-path="url(#pa45524b1b3)">
     <use xlink:href="#C0_0_e005756423" x="75.304937" y="287.085405" style="fill: #8a2be2"/>
    </g>
    <g clip-path="url(#pa45524b1b3)">
     <use xlink:href="#C0_0_e005756423" x="77.135112" y="251.824865" style="fill: #8a2be2"/>
    </g>
    <g clip-path="url(#pa45524b1b3)">
     <use xlink:href="#C0_0_e005756423" x="73.474651" y="240.071351" style="fill: #8a2be2"/>
    </g>
    <g clip-path="url(#pa45524b1b3)">
     <use xlink:href="#C0_0_e005756423" x="74.817783" y="222.441081" style="fill: #8a2be2"/>
    </g>
    <g clip-path="url(#pa45524b1b3)">
     <use xlink:href="#C0_0_e005756423" x="73.688065" y="251.824865" style="fill: #8a2be2"/>
    </g>
    <g clip-path="url(#pa45524b1b3)">
     <use xlink:href="#C0_0_e005756423" x="75.821511" y="259.170811" style="fill: #8a2be2"/>
    </g>
    <g clip-path="url(#pa45524b1b3)">
     <use xlink:href="#C0_0_e005756423" x="77.20397" y="250.355676" style="fill: #8a2be2"/>
    </g>
    <g clip-path="url(#pa45524b1b3)">
     <use xlink:href="#C0_0_e005756423" x="69.390394" y="287.085405" style="fill: #8a2be2"/>
    </g>
    <g clip-path="url(#pa45524b1b3)">
     <use xlink:href="#C0_0_e005756423" x="68.914345" y="306.184865" style="fill: #8a2be2"/>
    </g>
    <g clip-path="url(#pa45524b1b3)">
     <use xlink:href="#C0_0_e005756423" x="73.138695" y="312.061622" style="fill: #8a2be2"/>
    </g>
    <g clip-path="url(#pa45524b1b3)">
     <use xlink:href="#C0_0_e005756423" x="70.325849" y="301.777297" style="fill: #8a2be2"/>
    </g>
    <g clip-path="url(#pa45524b1b3)">
     <use xlink:href="#C0_0_e005756423" x="76.587307" y="281.208649" style="fill: #8a2be2"/>
    </g>
    <g clip-path="url(#pa45524b1b3)">
     <use xlink:href="#C0_0_e005756423" x="77.342396" y="291.492973" style="fill: #8a2be2"/>
    </g>
    <g clip-path="url(#pa45524b1b3)">
     <use xlink:href="#C0_0_e005756423" x="71.872454" y="294.431351" style="fill: #8a2be2"/>
    </g>
    <g clip-path="url(#pa45524b1b3)">
     <use xlink:href="#C0_0_e005756423" x="74.448117" y="257.701622" style="fill: #8a2be2"/>
    </g>
    <g clip-path="url(#pa45524b1b3)">
     <use xlink:href="#C0_0_e005756423" x="71.179753" y="260.64" style="fill: #8a2be2"/>
    </g>
    <g clip-path="url(#pa45524b1b3)">
     <use xlink:href="#C0_0_e005756423" x="76.872308" y="263.578378" style="fill: #8a2be2"/>
    </g>
    <g clip-path="url(#pa45524b1b3)">
     <use xlink:href="#C0_0_e005756423" x="73.340655" y="270.924324" style="fill: #8a2be2"/>
    </g>
    <g clip-path="url(#pa45524b1b3)">
     <use xlink:href="#C0_0_e005756423" x="76.478435" y="266.516757" style="fill: #8a2be2"/>
    </g>
    <g clip-path="url(#pa45524b1b3)">
     <use xlink:href="#C0_0_e005756423" x="77.132523" y="257.701622" style="fill: #8a2be2"/>
    </g>
    <g clip-path="url(#pa45524b1b3)">
     <use xlink:href="#C0_0_e005756423" x="77.520429" y="278.27027" style="fill: #8a2be2"/>
    </g>
    <g clip-path="url(#pa45524b1b3)">
     <use xlink:href="#C0_0_e005756423" x="69.542372" y="275.331892" style="fill: #8a2be2"/>
    </g>
    <g clip-path="url(#pa45524b1b3)">
     <use xlink:href="#C0_0_e005756423" x="72.501301" y="275.331892" style="fill: #8a2be2"/>
    </g>
    <g clip-path="url(#pa45524b1b3)">
     <use xlink:href="#C0_0_e005756423" x="70.126588" y="254.763243" style="fill: #8a2be2"/>
    </g>
    <g clip-path="url(#pa45524b1b3)">
     <use xlink:href="#C0_0_e005756423" x="69.301537" y="279.739459" style="fill: #8a2be2"/>
    </g>
    <g clip-path="url(#pa45524b1b3)">
     <use xlink:href="#C0_0_e005756423" x="76.724212" y="263.578378" style="fill: #8a2be2"/>
    </g>
    <g clip-path="url(#pa45524b1b3)">
     <use xlink:href="#C0_0_e005756423" x="76.220531" y="281.208649" style="fill: #8a2be2"/>
    </g>
    <g clip-path="url(#pa45524b1b3)">
     <use xlink:href="#C0_0_e005756423" x="72.671022" y="276.801081" style="fill: #8a2be2"/>
    </g>
    <g clip-path="url(#pa45524b1b3)">
     <use xlink:href="#C0_0_e005756423" x="74.830578" y="285.616216" style="fill: #8a2be2"/>
    </g>
    <g clip-path="url(#pa45524b1b3)">
     <use xlink:href="#C0_0_e005756423" x="75.355363" y="284.147027" style="fill: #8a2be2"/>
    </g>
    <g clip-path="url(#pa45524b1b3)">
     <use xlink:href="#C0_0_e005756423" x="73.099094" y="304.715676" style="fill: #8a2be2"/>
    </g>
   </g>
   <g id="PathCollection_2">
    <defs>
     <path id="C1_0_9301e2119f" d="M 0 2.5 
C 0.663008 2.5 1.29895 2.236584 1.767767 1.767767 
C 2.236584 1.29895 2.5 0.663008 2.5 -0 
C 2.5 -0.663008 2.236584 -1.29895 1.767767 -1.767767 
C 1.29895 -2.236584 0.663008 -2.5 0 -2.5 
C -0.663008 -2.5 -1.29895 -2.236584 -1.767767 -1.767767 
C -2.236584 -1.29895 -2.5 -0.663008 -2.5 0 
C -2.5 0.663008 -2.236584 1.29895 -1.767767 1.767767 
C -1.29895 2.236584 -0.663008 2.5 0 2.5 
z
"/>
    </defs>
    <g clip-path="url(#pa45524b1b3)">
     <use xlink:href="#C1_0_9301e2119f" x="119.304541" y="231.256216" style="fill: #800080"/>
    </g>
    <g clip-path="url(#pa45524b1b3)">
     <use xlink:href="#C1_0_9301e2119f" x="116.905209" y="260.64" style="fill: #800080"/>
    </g>
    <g clip-path="url(#pa45524b1b3)">
     <use xlink:href="#C1_0_9301e2119f" x="117.673461" y="256.232432" style="fill: #800080"/>
    </g>
    <g clip-path="url(#pa45524b1b3)">
     <use xlink:href="#C1_0_9301e2119f" x="117.014712" y="295.900541" style="fill: #800080"/>
    </g>
    <g clip-path="url(#pa45524b1b3)">
     <use xlink:href="#C1_0_9301e2119f" x="115.424778" y="266.516757" style="fill: #800080"/>
    </g>
    <g clip-path="url(#pa45524b1b3)">
     <use xlink:href="#C1_0_9301e2119f" x="115.525519" y="243.00973" style="fill: #800080"/>
    </g>
    <g clip-path="url(#pa45524b1b3)">
     <use xlink:href="#C1_0_9301e2119f" x="118.058401" y="256.232432" style="fill: #800080"/>
    </g>
    <g clip-path="url(#pa45524b1b3)">
     <use xlink:href="#C1_0_9301e2119f" x="116.415734" y="260.64" style="fill: #800080"/>
    </g>
    <g clip-path="url(#pa45524b1b3)">
     <use xlink:href="#C1_0_9301e2119f" x="115.249421" y="259.170811" style="fill: #800080"/>
    </g>
    <g clip-path="url(#pa45524b1b3)">
     <use xlink:href="#C1_0_9301e2119f" x="114.41404" y="269.455135" style="fill: #800080"/>
    </g>
    <g clip-path="url(#pa45524b1b3)">
     <use xlink:href="#C1_0_9301e2119f" x="115.555586" y="303.246486" style="fill: #800080"/>
    </g>
    <g clip-path="url(#pa45524b1b3)">
     <use xlink:href="#C1_0_9301e2119f" x="119.303193" y="310.592432" style="fill: #800080"/>
    </g>
    <g clip-path="url(#pa45524b1b3)">
     <use xlink:href="#C1_0_9301e2119f" x="114.421246" y="313.530811" style="fill: #800080"/>
    </g>
    <g clip-path="url(#pa45524b1b3)">
     <use xlink:href="#C1_0_9301e2119f" x="114.733619" y="303.246486" style="fill: #800080"/>
    </g>
    <g clip-path="url(#pa45524b1b3)">
     <use xlink:href="#C1_0_9301e2119f" x="117.015733" y="294.431351" style="fill: #800080"/>
    </g>
    <g clip-path="url(#pa45524b1b3)">
     <use xlink:href="#C1_0_9301e2119f" x="115.074047" y="266.516757" style="fill: #800080"/>
    </g>
    <g clip-path="url(#pa45524b1b3)">
     <use xlink:href="#C1_0_9301e2119f" x="117.818721" y="300.308108" style="fill: #800080"/>
    </g>
    <g clip-path="url(#pa45524b1b3)">
     <use xlink:href="#C1_0_9301e2119f" x="115.545598" y="253.294054" style="fill: #800080"/>
    </g>
    <g clip-path="url(#pa45524b1b3)">
     <use xlink:href="#C1_0_9301e2119f" x="121.420536" y="253.294054" style="fill: #800080"/>
    </g>
    <g clip-path="url(#pa45524b1b3)">
     <use xlink:href="#C1_0_9301e2119f" x="113.845561" y="260.64" style="fill: #800080"/>
    </g>
    <g clip-path="url(#pa45524b1b3)">
     <use xlink:href="#C1_0_9301e2119f" x="115.250539" y="294.431351" style="fill: #800080"/>
    </g>
    <g clip-path="url(#pa45524b1b3)">
     <use xlink:href="#C1_0_9301e2119f" x="113.948354" y="256.232432" style="fill: #800080"/>
    </g>
    <g clip-path="url(#pa45524b1b3)">
     <use xlink:href="#C1_0_9301e2119f" x="115.274313" y="266.516757" style="fill: #800080"/>
    </g>
    <g clip-path="url(#pa45524b1b3)">
     <use xlink:href="#C1_0_9301e2119f" x="119.547132" y="285.616216" style="fill: #800080"/>
    </g>
    <g clip-path="url(#pa45524b1b3)">
     <use xlink:href="#C1_0_9301e2119f" x="115.401901" y="275.331892" style="fill: #800080"/>
    </g>
    <g clip-path="url(#pa45524b1b3)">
     <use xlink:href="#C1_0_9301e2119f" x="117.315254" y="281.208649" style="fill: #800080"/>
    </g>
    <g clip-path="url(#pa45524b1b3)">
     <use xlink:href="#C1_0_9301e2119f" x="114.523687" y="276.801081" style="fill: #800080"/>
    </g>
    <g clip-path="url(#pa45524b1b3)">
     <use xlink:href="#C1_0_9301e2119f" x="121.898186" y="282.677838" style="fill: #800080"/>
    </g>
    <g clip-path="url(#pa45524b1b3)">
     <use xlink:href="#C1_0_9301e2119f" x="120.082636" y="278.27027" style="fill: #800080"/>
    </g>
    <g clip-path="url(#pa45524b1b3)">
     <use xlink:href="#C1_0_9301e2119f" x="120.318415" y="285.616216" style="fill: #800080"/>
    </g>
    <g clip-path="url(#pa45524b1b3)">
     <use xlink:href="#C1_0_9301e2119f" x="118.459466" y="288.554595" style="fill: #800080"/>
    </g>
    <g clip-path="url(#pa45524b1b3)">
     <use xlink:href="#C1_0_9301e2119f" x="120.918746" y="279.739459" style="fill: #800080"/>
    </g>
    <g clip-path="url(#pa45524b1b3)">
     <use xlink:href="#C1_0_9301e2119f" x="122.103336" y="300.308108" style="fill: #800080"/>
    </g>
    <g clip-path="url(#pa45524b1b3)">
     <use xlink:href="#C1_0_9301e2119f" x="118.39806" y="304.715676" style="fill: #800080"/>
    </g>
   </g>
   <g id="PathCollection_3">
    <defs>
     <path id="C2_0_0f7f3e7173" d="M 0 2.5 
C 0.663008 2.5 1.29895 2.236584 1.767767 1.767767 
C 2.236584 1.29895 2.5 0.663008 2.5 -0 
C 2.5 -0.663008 2.236584 -1.29895 1.767767 -1.767767 
C 1.29895 -2.236584 0.663008 -2.5 0 -2.5 
C -0.663008 -2.5 -1.29895 -2.236584 -1.767767 -1.767767 
C -2.236584 -1.29895 -2.5 -0.663008 -2.5 0 
C -2.5 0.663008 -2.236584 1.29895 -1.767767 1.767767 
C -1.29895 2.236584 -0.663008 2.5 0 2.5 
z
"/>
    </defs>
    <g clip-path="url(#pa45524b1b3)">
     <use xlink:href="#C2_0_0f7f3e7173" x="163.87982" y="297.36973" style="fill: #4b0082"/>
    </g>
    <g clip-path="url(#pa45524b1b3)">
     <use xlink:href="#C2_0_0f7f3e7173" x="161.588206" y="313.530811" style="fill: #4b0082"/>
    </g>
    <g clip-path="url(#pa45524b1b3)">
     <use xlink:href="#C2_0_0f7f3e7173" x="163.369812" y="301.777297" style="fill: #4b0082"/>
    </g>
    <g clip-path="url(#pa45524b1b3)">
     <use xlink:href="#C2_0_0f7f3e7173" x="158.209184" y="312.061622" style="fill: #4b0082"/>
    </g>
    <g clip-path="url(#pa45524b1b3)">
     <use xlink:href="#C2_0_0f7f3e7173" x="165.392071" y="284.147027" style="fill: #4b0082"/>
    </g>
    <g clip-path="url(#pa45524b1b3)">
     <use xlink:href="#C2_0_0f7f3e7173" x="158.971143" y="291.492973" style="fill: #4b0082"/>
    </g>
    <g clip-path="url(#pa45524b1b3)">
     <use xlink:href="#C2_0_0f7f3e7173" x="161.473471" y="298.838919" style="fill: #4b0082"/>
    </g>
    <g clip-path="url(#pa45524b1b3)">
     <use xlink:href="#C2_0_0f7f3e7173" x="163.130319" y="306.184865" style="fill: #4b0082"/>
    </g>
    <g clip-path="url(#pa45524b1b3)">
     <use xlink:href="#C2_0_0f7f3e7173" x="160.880885" y="301.777297" style="fill: #4b0082"/>
    </g>
    <g clip-path="url(#pa45524b1b3)">
     <use xlink:href="#C2_0_0f7f3e7173" x="158.025493" y="312.061622" style="fill: #4b0082"/>
    </g>
    <g clip-path="url(#pa45524b1b3)">
     <use xlink:href="#C2_0_0f7f3e7173" x="161.707222" y="310.592432" style="fill: #4b0082"/>
    </g>
    <g clip-path="url(#pa45524b1b3)">
     <use xlink:href="#C2_0_0f7f3e7173" x="165.669386" y="313.530811" style="fill: #4b0082"/>
    </g>
    <g clip-path="url(#pa45524b1b3)">
     <use xlink:href="#C2_0_0f7f3e7173" x="158.047629" y="313.530811" style="fill: #4b0082"/>
    </g>
    <g clip-path="url(#pa45524b1b3)">
     <use xlink:href="#C2_0_0f7f3e7173" x="163.377767" y="315" style="fill: #4b0082"/>
    </g>
    <g clip-path="url(#pa45524b1b3)">
     <use xlink:href="#C2_0_0f7f3e7173" x="165.351363" y="315" style="fill: #4b0082"/>
    </g>
    <g clip-path="url(#pa45524b1b3)">
     <use xlink:href="#C2_0_0f7f3e7173" x="164.675524" y="309.123243" style="fill: #4b0082"/>
    </g>
    <g clip-path="url(#pa45524b1b3)">
     <use xlink:href="#C2_0_0f7f3e7173" x="166.229555" y="313.530811" style="fill: #4b0082"/>
    </g>
    <g clip-path="url(#pa45524b1b3)">
     <use xlink:href="#C2_0_0f7f3e7173" x="160.561971" y="303.246486" style="fill: #4b0082"/>
    </g>
    <g clip-path="url(#pa45524b1b3)">
     <use xlink:href="#C2_0_0f7f3e7173" x="161.063748" y="300.308108" style="fill: #4b0082"/>
    </g>
    <g clip-path="url(#pa45524b1b3)">
     <use xlink:href="#C2_0_0f7f3e7173" x="164.627657" y="295.900541" style="fill: #4b0082"/>
    </g>
    <g clip-path="url(#pa45524b1b3)">
     <use xlink:href="#C2_0_0f7f3e7173" x="163.064684" y="307.654054" style="fill: #4b0082"/>
    </g>
    <g clip-path="url(#pa45524b1b3)">
     <use xlink:href="#C2_0_0f7f3e7173" x="160.396543" y="301.777297" style="fill: #4b0082"/>
    </g>
    <g clip-path="url(#pa45524b1b3)">
     <use xlink:href="#C2_0_0f7f3e7173" x="162.099217" y="303.246486" style="fill: #4b0082"/>
    </g>
    <g clip-path="url(#pa45524b1b3)">
     <use xlink:href="#C2_0_0f7f3e7173" x="165.133656" y="295.900541" style="fill: #4b0082"/>
    </g>
    <g clip-path="url(#pa45524b1b3)">
     <use xlink:href="#C2_0_0f7f3e7173" x="158.524937" y="306.184865" style="fill: #4b0082"/>
    </g>
    <g clip-path="url(#pa45524b1b3)">
     <use xlink:href="#C2_0_0f7f3e7173" x="159.002998" y="312.061622" style="fill: #4b0082"/>
    </g>
    <g clip-path="url(#pa45524b1b3)">
     <use xlink:href="#C2_0_0f7f3e7173" x="161.780036" y="309.123243" style="fill: #4b0082"/>
    </g>
    <g clip-path="url(#pa45524b1b3)">
     <use xlink:href="#C2_0_0f7f3e7173" x="165.808983" y="303.246486" style="fill: #4b0082"/>
    </g>
    <g clip-path="url(#pa45524b1b3)">
     <use xlink:href="#C2_0_0f7f3e7173" x="165.082243" y="309.123243" style="fill: #4b0082"/>
    </g>
    <g clip-path="url(#pa45524b1b3)">
     <use xlink:href="#C2_0_0f7f3e7173" x="158.571113" y="303.246486" style="fill: #4b0082"/>
    </g>
    <g clip-path="url(#pa45524b1b3)">
     <use xlink:href="#C2_0_0f7f3e7173" x="160.141136" y="304.715676" style="fill: #4b0082"/>
    </g>
    <g clip-path="url(#pa45524b1b3)">
     <use xlink:href="#C2_0_0f7f3e7173" x="162.445502" y="309.123243" style="fill: #4b0082"/>
    </g>
    <g clip-path="url(#pa45524b1b3)">
     <use xlink:href="#C2_0_0f7f3e7173" x="166.209944" y="297.36973" style="fill: #4b0082"/>
    </g>
    <g clip-path="url(#pa45524b1b3)">
     <use xlink:href="#C2_0_0f7f3e7173" x="161.259679" y="315" style="fill: #4b0082"/>
    </g>
   </g>
   <g id="PathCollection_4">
    <defs>
     <path id="C3_0_2d5bc5b6c4" d="M 0 2.5 
C 0.663008 2.5 1.29895 2.236584 1.767767 1.767767 
C 2.236584 1.29895 2.5 0.663008 2.5 -0 
C 2.5 -0.663008 2.236584 -1.29895 1.767767 -1.767767 
C 1.29895 -2.236584 0.663008 -2.5 0 -2.5 
C -0.663008 -2.5 -1.29895 -2.236584 -1.767767 -1.767767 
C -2.236584 -1.29895 -2.5 -0.663008 -2.5 0 
C -2.5 0.663008 -2.236584 1.29895 -1.767767 1.767767 
C -1.29895 2.236584 -0.663008 2.5 0 2.5 
z
"/>
    </defs>
    <g clip-path="url(#pa45524b1b3)">
     <use xlink:href="#C3_0_2d5bc5b6c4" x="208.996383" y="146.043243" style="fill: #6a5acd"/>
    </g>
    <g clip-path="url(#pa45524b1b3)">
     <use xlink:href="#C3_0_2d5bc5b6c4" x="210.776396" y="222.441081" style="fill: #6a5acd"/>
    </g>
    <g clip-path="url(#pa45524b1b3)">
     <use xlink:href="#C3_0_2d5bc5b6c4" x="209.437318" y="194.526486" style="fill: #6a5acd"/>
    </g>
    <g clip-path="url(#pa45524b1b3)">
     <use xlink:href="#C3_0_2d5bc5b6c4" x="204.016578" y="265.047568" style="fill: #6a5acd"/>
    </g>
    <g clip-path="url(#pa45524b1b3)">
     <use xlink:href="#C3_0_2d5bc5b6c4" x="207.694858" y="172.488649" style="fill: #6a5acd"/>
    </g>
    <g clip-path="url(#pa45524b1b3)">
     <use xlink:href="#C3_0_2d5bc5b6c4" x="204.053391" y="144.574054" style="fill: #6a5acd"/>
    </g>
    <g clip-path="url(#pa45524b1b3)">
     <use xlink:href="#C3_0_2d5bc5b6c4" x="203.41634" y="147.512432" style="fill: #6a5acd"/>
    </g>
    <g clip-path="url(#pa45524b1b3)">
     <use xlink:href="#C3_0_2d5bc5b6c4" x="210.802977" y="188.64973" style="fill: #6a5acd"/>
    </g>
    <g clip-path="url(#pa45524b1b3)">
     <use xlink:href="#C3_0_2d5bc5b6c4" x="204.035227" y="190.118919" style="fill: #6a5acd"/>
    </g>
    <g clip-path="url(#pa45524b1b3)">
     <use xlink:href="#C3_0_2d5bc5b6c4" x="207.644537" y="201.872432" style="fill: #6a5acd"/>
    </g>
    <g clip-path="url(#pa45524b1b3)">
     <use xlink:href="#C3_0_2d5bc5b6c4" x="206.892245" y="270.924324" style="fill: #6a5acd"/>
    </g>
    <g clip-path="url(#pa45524b1b3)">
     <use xlink:href="#C3_0_2d5bc5b6c4" x="210.381013" y="300.308108" style="fill: #6a5acd"/>
    </g>
    <g clip-path="url(#pa45524b1b3)">
     <use xlink:href="#C3_0_2d5bc5b6c4" x="208.698963" y="309.123243" style="fill: #6a5acd"/>
    </g>
    <g clip-path="url(#pa45524b1b3)">
     <use xlink:href="#C3_0_2d5bc5b6c4" x="205.77126" y="290.023784" style="fill: #6a5acd"/>
    </g>
    <g clip-path="url(#pa45524b1b3)">
     <use xlink:href="#C3_0_2d5bc5b6c4" x="206.853443" y="260.64" style="fill: #6a5acd"/>
    </g>
    <g clip-path="url(#pa45524b1b3)">
     <use xlink:href="#C3_0_2d5bc5b6c4" x="209.432068" y="237.132973" style="fill: #6a5acd"/>
    </g>
    <g clip-path="url(#pa45524b1b3)">
     <use xlink:href="#C3_0_2d5bc5b6c4" x="209.009349" y="278.27027" style="fill: #6a5acd"/>
    </g>
    <g clip-path="url(#pa45524b1b3)">
     <use xlink:href="#C3_0_2d5bc5b6c4" x="209.54754" y="184.242162" style="fill: #6a5acd"/>
    </g>
    <g clip-path="url(#pa45524b1b3)">
     <use xlink:href="#C3_0_2d5bc5b6c4" x="207.752209" y="184.242162" style="fill: #6a5acd"/>
    </g>
    <g clip-path="url(#pa45524b1b3)">
     <use xlink:href="#C3_0_2d5bc5b6c4" x="207.629769" y="190.118919" style="fill: #6a5acd"/>
    </g>
    <g clip-path="url(#pa45524b1b3)">
     <use xlink:href="#C3_0_2d5bc5b6c4" x="205.742847" y="243.00973" style="fill: #6a5acd"/>
    </g>
    <g clip-path="url(#pa45524b1b3)">
     <use xlink:href="#C3_0_2d5bc5b6c4" x="205.977202" y="194.526486" style="fill: #6a5acd"/>
    </g>
    <g clip-path="url(#pa45524b1b3)">
     <use xlink:href="#C3_0_2d5bc5b6c4" x="210.498469" y="197.464865" style="fill: #6a5acd"/>
    </g>
    <g clip-path="url(#pa45524b1b3)">
     <use xlink:href="#C3_0_2d5bc5b6c4" x="209.840238" y="229.787027" style="fill: #6a5acd"/>
    </g>
    <g clip-path="url(#pa45524b1b3)">
     <use xlink:href="#C3_0_2d5bc5b6c4" x="210.840033" y="226.848649" style="fill: #6a5acd"/>
    </g>
    <g clip-path="url(#pa45524b1b3)">
     <use xlink:href="#C3_0_2d5bc5b6c4" x="210.790636" y="238.602162" style="fill: #6a5acd"/>
    </g>
    <g clip-path="url(#pa45524b1b3)">
     <use xlink:href="#C3_0_2d5bc5b6c4" x="206.689048" y="210.687568" style="fill: #6a5acd"/>
    </g>
    <g clip-path="url(#pa45524b1b3)">
     <use xlink:href="#C3_0_2d5bc5b6c4" x="203.056212" y="235.663784" style="fill: #6a5acd"/>
    </g>
    <g clip-path="url(#pa45524b1b3)">
     <use xlink:href="#C3_0_2d5bc5b6c4" x="208.932541" y="220.971892" style="fill: #6a5acd"/>
    </g>
    <g clip-path="url(#pa45524b1b3)">
     <use xlink:href="#C3_0_2d5bc5b6c4" x="206.898711" y="240.071351" style="fill: #6a5acd"/>
    </g>
    <g clip-path="url(#pa45524b1b3)">
     <use xlink:href="#C3_0_2d5bc5b6c4" x="206.209838" y="240.071351" style="fill: #6a5acd"/>
    </g>
    <g clip-path="url(#pa45524b1b3)">
     <use xlink:href="#C3_0_2d5bc5b6c4" x="206.079519" y="244.478919" style="fill: #6a5acd"/>
    </g>
    <g clip-path="url(#pa45524b1b3)">
     <use xlink:href="#C3_0_2d5bc5b6c4" x="204.595251" y="251.824865" style="fill: #6a5acd"/>
    </g>
    <g clip-path="url(#pa45524b1b3)">
     <use xlink:href="#C3_0_2d5bc5b6c4" x="203.145164" y="294.431351" style="fill: #6a5acd"/>
    </g>
   </g>
   <g id="PathCollection_5">
    <defs>
     <path id="C4_0_a937817ce8" d="M 0 2.5 
C 0.663008 2.5 1.29895 2.236584 1.767767 1.767767 
C 2.236584 1.29895 2.5 0.663008 2.5 -0 
C 2.5 -0.663008 2.236584 -1.29895 1.767767 -1.767767 
C 1.29895 -2.236584 0.663008 -2.5 0 -2.5 
C -0.663008 -2.5 -1.29895 -2.236584 -1.767767 -1.767767 
C -2.236584 -1.29895 -2.5 -0.663008 -2.5 0 
C -2.5 0.663008 -2.236584 1.29895 -1.767767 1.767767 
C -1.29895 2.236584 -0.663008 2.5 0 2.5 
z
"/>
    </defs>
    <g clip-path="url(#pa45524b1b3)">
     <use xlink:href="#C4_0_a937817ce8" x="247.858028" y="195.995676" style="fill: #ff8c00"/>
    </g>
    <g clip-path="url(#pa45524b1b3)">
     <use xlink:href="#C4_0_a937817ce8" x="251.542198" y="237.132973" style="fill: #ff8c00"/>
    </g>
    <g clip-path="url(#pa45524b1b3)">
     <use xlink:href="#C4_0_a937817ce8" x="249.942852" y="143.104865" style="fill: #ff8c00"/>
    </g>
    <g clip-path="url(#pa45524b1b3)">
     <use xlink:href="#C4_0_a937817ce8" x="253.064384" y="184.242162" style="fill: #ff8c00"/>
    </g>
    <g clip-path="url(#pa45524b1b3)">
     <use xlink:href="#C4_0_a937817ce8" x="246.959322" y="191.588108" style="fill: #ff8c00"/>
    </g>
    <g clip-path="url(#pa45524b1b3)">
     <use xlink:href="#C4_0_a937817ce8" x="247.48997" y="191.588108" style="fill: #ff8c00"/>
    </g>
    <g clip-path="url(#pa45524b1b3)">
     <use xlink:href="#C4_0_a937817ce8" x="250.761316" y="223.91027" style="fill: #ff8c00"/>
    </g>
    <g clip-path="url(#pa45524b1b3)">
     <use xlink:href="#C4_0_a937817ce8" x="254.865132" y="220.971892" style="fill: #ff8c00"/>
    </g>
    <g clip-path="url(#pa45524b1b3)">
     <use xlink:href="#C4_0_a937817ce8" x="248.780964" y="178.365405" style="fill: #ff8c00"/>
    </g>
    <g clip-path="url(#pa45524b1b3)">
     <use xlink:href="#C4_0_a937817ce8" x="250.89132" y="148.981622" style="fill: #ff8c00"/>
    </g>
    <g clip-path="url(#pa45524b1b3)">
     <use xlink:href="#C4_0_a937817ce8" x="248.25969" y="173.957838" style="fill: #ff8c00"/>
    </g>
    <g clip-path="url(#pa45524b1b3)">
     <use xlink:href="#C4_0_a937817ce8" x="252.131311" y="168.081081" style="fill: #ff8c00"/>
    </g>
    <g clip-path="url(#pa45524b1b3)">
     <use xlink:href="#C4_0_a937817ce8" x="254.871264" y="228.317838" style="fill: #ff8c00"/>
    </g>
    <g clip-path="url(#pa45524b1b3)">
     <use xlink:href="#C4_0_a937817ce8" x="248.571985" y="215.095135" style="fill: #ff8c00"/>
    </g>
    <g clip-path="url(#pa45524b1b3)">
     <use xlink:href="#C4_0_a937817ce8" x="250.805151" y="206.28" style="fill: #ff8c00"/>
    </g>
    <g clip-path="url(#pa45524b1b3)">
     <use xlink:href="#C4_0_a937817ce8" x="253.259668" y="218.033514" style="fill: #ff8c00"/>
    </g>
    <g clip-path="url(#pa45524b1b3)">
     <use xlink:href="#C4_0_a937817ce8" x="252.782695" y="184.242162" style="fill: #ff8c00"/>
    </g>
    <g clip-path="url(#pa45524b1b3)">
     <use xlink:href="#C4_0_a937817ce8" x="255.158433" y="195.995676" style="fill: #ff8c00"/>
    </g>
    <g clip-path="url(#pa45524b1b3)">
     <use xlink:href="#C4_0_a937817ce8" x="254.308329" y="203.341622" style="fill: #ff8c00"/>
    </g>
    <g clip-path="url(#pa45524b1b3)">
     <use xlink:href="#C4_0_a937817ce8" x="251.408174" y="203.341622" style="fill: #ff8c00"/>
    </g>
    <g clip-path="url(#pa45524b1b3)">
     <use xlink:href="#C4_0_a937817ce8" x="252.282549" y="179.834595" style="fill: #ff8c00"/>
    </g>
    <g clip-path="url(#pa45524b1b3)">
     <use xlink:href="#C4_0_a937817ce8" x="249.675946" y="200.403243" style="fill: #ff8c00"/>
    </g>
    <g clip-path="url(#pa45524b1b3)">
     <use xlink:href="#C4_0_a937817ce8" x="252.253399" y="215.095135" style="fill: #ff8c00"/>
    </g>
    <g clip-path="url(#pa45524b1b3)">
     <use xlink:href="#C4_0_a937817ce8" x="250.870864" y="218.033514" style="fill: #ff8c00"/>
    </g>
    <g clip-path="url(#pa45524b1b3)">
     <use xlink:href="#C4_0_a937817ce8" x="249.349254" y="197.464865" style="fill: #ff8c00"/>
    </g>
    <g clip-path="url(#pa45524b1b3)">
     <use xlink:href="#C4_0_a937817ce8" x="250.701643" y="262.109189" style="fill: #ff8c00"/>
    </g>
    <g clip-path="url(#pa45524b1b3)">
     <use xlink:href="#C4_0_a937817ce8" x="246.906241" y="188.64973" style="fill: #ff8c00"/>
    </g>
    <g clip-path="url(#pa45524b1b3)">
     <use xlink:href="#C4_0_a937817ce8" x="248.521512" y="237.132973" style="fill: #ff8c00"/>
    </g>
    <g clip-path="url(#pa45524b1b3)">
     <use xlink:href="#C4_0_a937817ce8" x="251.958196" y="194.526486" style="fill: #ff8c00"/>
    </g>
    <g clip-path="url(#pa45524b1b3)">
     <use xlink:href="#C4_0_a937817ce8" x="255.383518" y="220.971892" style="fill: #ff8c00"/>
    </g>
    <g clip-path="url(#pa45524b1b3)">
     <use xlink:href="#C4_0_a937817ce8" x="251.79152" y="197.464865" style="fill: #ff8c00"/>
    </g>
    <g clip-path="url(#pa45524b1b3)">
     <use xlink:href="#C4_0_a937817ce8" x="248.116418" y="262.109189" style="fill: #ff8c00"/>
    </g>
    <g clip-path="url(#pa45524b1b3)">
     <use xlink:href="#C4_0_a937817ce8" x="254.145799" y="148.981622" style="fill: #ff8c00"/>
    </g>
    <g clip-path="url(#pa45524b1b3)">
     <use xlink:href="#C4_0_a937817ce8" x="250.555848" y="176.896216" style="fill: #ff8c00"/>
    </g>
    <g clip-path="url(#pa45524b1b3)">
     <use xlink:href="#C4_0_a937817ce8" x="253.622642" y="194.526486" style="fill: #ff8c00"/>
    </g>
    <g clip-path="url(#pa45524b1b3)">
     <use xlink:href="#C4_0_a937817ce8" x="252.488625" y="184.242162" style="fill: #ff8c00"/>
    </g>
   </g>
   <g id="PathCollection_6">
    <defs>
     <path id="C5_0_b35664a91d" d="M 0 2.5 
C 0.663008 2.5 1.29895 2.236584 1.767767 1.767767 
C 2.236584 1.29895 2.5 0.663008 2.5 -0 
C 2.5 -0.663008 2.236584 -1.29895 1.767767 -1.767767 
C 1.29895 -2.236584 0.663008 -2.5 0 -2.5 
C -0.663008 -2.5 -1.29895 -2.236584 -1.767767 -1.767767 
C -2.236584 -1.29895 -2.5 -0.663008 -2.5 0 
C -2.5 0.663008 -2.236584 1.29895 -1.767767 1.767767 
C -1.29895 2.236584 -0.663008 2.5 0 2.5 
z
"/>
    </defs>
    <g clip-path="url(#pa45524b1b3)">
     <use xlink:href="#C5_0_b35664a91d" x="299.498723" y="79.92973" style="fill: #ee82ee"/>
    </g>
    <g clip-path="url(#pa45524b1b3)">
     <use xlink:href="#C5_0_b35664a91d" x="298.307596" y="82.868108" style="fill: #ee82ee"/>
    </g>
    <g clip-path="url(#pa45524b1b3)">
     <use xlink:href="#C5_0_b35664a91d" x="296.375055" y="148.981622" style="fill: #ee82ee"/>
    </g>
    <g clip-path="url(#pa45524b1b3)">
     <use xlink:href="#C5_0_b35664a91d" x="294.772036" y="146.043243" style="fill: #ee82ee"/>
    </g>
    <g clip-path="url(#pa45524b1b3)">
     <use xlink:href="#C5_0_b35664a91d" x="296.271732" y="87.275676" style="fill: #ee82ee"/>
    </g>
    <g clip-path="url(#pa45524b1b3)">
     <use xlink:href="#C5_0_b35664a91d" x="294.718899" y="101.967568" style="fill: #ee82ee"/>
    </g>
    <g clip-path="url(#pa45524b1b3)">
     <use xlink:href="#C5_0_b35664a91d" x="297.406219" y="44.669189" style="fill: #ee82ee"/>
    </g>
    <g clip-path="url(#pa45524b1b3)">
     <use xlink:href="#C5_0_b35664a91d" x="292.303675" y="93.152432" style="fill: #ee82ee"/>
    </g>
    <g clip-path="url(#pa45524b1b3)">
     <use xlink:href="#C5_0_b35664a91d" x="294.718423" y="184.242162" style="fill: #ee82ee"/>
    </g>
    <g clip-path="url(#pa45524b1b3)">
     <use xlink:href="#C5_0_b35664a91d" x="293.261244" y="121.067027" style="fill: #ee82ee"/>
    </g>
   </g>
  </g>
 </g>
 <defs>
  <clipPath id="pa45524b1b3">
   <rect x="50.937346" y="43.2" width="267.125307" height="271.8"/>
  </clipPath>
 </defs>
</svg>
