<?xml version="1.0" encoding="utf-8" standalone="no"?>
<!DOCTYPE svg PUBLIC "-//W3C//DTD SVG 1.1//EN"
  "http://www.w3.org/Graphics/SVG/1.1/DTD/svg11.dtd">
<svg xmlns:xlink="http://www.w3.org/1999/xlink" width="432pt" height="432pt" viewBox="0 0 432 432" xmlns="http://www.w3.org/2000/svg" version="1.1">
 <metadata>
  <rdf:RDF xmlns:dc="http://purl.org/dc/elements/1.1/" xmlns:cc="http://creativecommons.org/ns#" xmlns:rdf="http://www.w3.org/1999/02/22-rdf-syntax-ns#">
   <cc:Work>
    <dc:type rdf:resource="http://purl.org/dc/dcmitype/StillImage"/>
    <dc:date>2024-01-28T10:16:40.009392</dc:date>
    <dc:format>image/svg+xml</dc:format>
    <dc:creator>
     <cc:Agent>
      <dc:title>Matplotlib v3.5.1, https://matplotlib.org/</dc:title>
     </cc:Agent>
    </dc:creator>
   </cc:Work>
  </rdf:RDF>
 </metadata>
 <defs>
  <style type="text/css">*{stroke-linejoin: round; stroke-linecap: butt}</style>
 </defs>
 <g id="figure_1">
  <g id="patch_1">
   <path d="M 0 432 
L 432 432 
L 432 0 
L 0 0 
L 0 432 
z
" style="fill: none"/>
  </g>
  <g id="axes_1">
   <g id="patch_2">
    <path d="M 68.5125 378 
L 374.2875 378 
L 374.2875 51.84 
L 68.5125 51.84 
z
" style="fill: #ffffff"/>
   </g>
   <g id="PolyCollection_1">
    <defs>
     <path id="m56d73de09b" d="M 95.911831 -57.397171 
L 92.075669 -57.397171 
L 91.924535 -58.793453 
L 91.770445 -60.189736 
L 91.613703 -61.586018 
L 91.4545 -62.982301 
L 91.292909 -64.378583 
L 91.128886 -65.774866 
L 90.962288 -67.171148 
L 90.792885 -68.56743 
L 90.620397 -69.963713 
L 90.444526 -71.359995 
L 90.264994 -72.756278 
L 90.081591 -74.15256 
L 89.894214 -75.548843 
L 89.702911 -76.945125 
L 89.507916 -78.341407 
L 89.309677 -79.73769 
L 89.108872 -81.133972 
L 88.90642 -82.530255 
L 88.703474 -83.926537 
L 88.5014 -85.322819 
L 88.301748 -86.719102 
L 88.106205 -88.115384 
L 87.916547 -89.511667 
L 87.734571 -90.907949 
L 87.562031 -92.304232 
L 87.400574 -93.700514 
L 87.251669 -95.096796 
L 87.116549 -96.493079 
L 86.996163 -97.889361 
L 86.891137 -99.285644 
L 86.80175 -100.681926 
L 86.727932 -102.078208 
L 86.669275 -103.474491 
L 86.625062 -104.870773 
L 86.594314 -106.267056 
L 86.575851 -107.663338 
L 86.56836 -109.059621 
L 86.570476 -110.455903 
L 86.580855 -111.852185 
L 86.598255 -113.248468 
L 86.621602 -114.64475 
L 86.650047 -116.041033 
L 86.683011 -117.437315 
L 86.720208 -118.833598 
L 86.761657 -120.22988 
L 86.807666 -121.626162 
L 86.85881 -123.022445 
L 86.915885 -124.418727 
L 86.97986 -125.81501 
L 87.05181 -127.211292 
L 87.132854 -128.607574 
L 87.224087 -130.003857 
L 87.326518 -131.400139 
L 87.441013 -132.796422 
L 87.568245 -134.192704 
L 87.70866 -135.588987 
L 87.862447 -136.985269 
L 88.02953 -138.381551 
L 88.209556 -139.777834 
L 88.40191 -141.174116 
L 88.605727 -142.570399 
L 88.819919 -143.966681 
L 89.043198 -145.362964 
L 89.274117 -146.759246 
L 89.511097 -148.155528 
L 89.752464 -149.551811 
L 89.996488 -150.948093 
L 90.241409 -152.344376 
L 90.485469 -153.740658 
L 90.726945 -155.13694 
L 90.964165 -156.533223 
L 91.195537 -157.929505 
L 91.419567 -159.325788 
L 91.634874 -160.72207 
L 91.84021 -162.118353 
L 92.034471 -163.514635 
L 92.216712 -164.910917 
L 92.386156 -166.3072 
L 92.542206 -167.703482 
L 92.684453 -169.099765 
L 92.812679 -170.496047 
L 92.926868 -171.89233 
L 93.027196 -173.288612 
L 93.114039 -174.684894 
L 93.187958 -176.081177 
L 93.249692 -177.477459 
L 93.30014 -178.873742 
L 93.340345 -180.270024 
L 93.371462 -181.666306 
L 93.394739 -183.062589 
L 93.411479 -184.458871 
L 93.423011 -185.855154 
L 93.430652 -187.251436 
L 93.435676 -188.647719 
L 93.439281 -190.044001 
L 93.442559 -191.440283 
L 93.446468 -192.836566 
L 93.451817 -194.232848 
L 93.459246 -195.629131 
L 94.528254 -195.629131 
L 94.528254 -195.629131 
L 94.535683 -194.232848 
L 94.541032 -192.836566 
L 94.544941 -191.440283 
L 94.548219 -190.044001 
L 94.551824 -188.647719 
L 94.556848 -187.251436 
L 94.564489 -185.855154 
L 94.576021 -184.458871 
L 94.592761 -183.062589 
L 94.616038 -181.666306 
L 94.647155 -180.270024 
L 94.68736 -178.873742 
L 94.737808 -177.477459 
L 94.799542 -176.081177 
L 94.873461 -174.684894 
L 94.960304 -173.288612 
L 95.060632 -171.89233 
L 95.174821 -170.496047 
L 95.303047 -169.099765 
L 95.445294 -167.703482 
L 95.601344 -166.3072 
L 95.770788 -164.910917 
L 95.953029 -163.514635 
L 96.14729 -162.118353 
L 96.352626 -160.72207 
L 96.567933 -159.325788 
L 96.791963 -157.929505 
L 97.023335 -156.533223 
L 97.260555 -155.13694 
L 97.502031 -153.740658 
L 97.746091 -152.344376 
L 97.991012 -150.948093 
L 98.235036 -149.551811 
L 98.476403 -148.155528 
L 98.713383 -146.759246 
L 98.944302 -145.362964 
L 99.167581 -143.966681 
L 99.381773 -142.570399 
L 99.58559 -141.174116 
L 99.777944 -139.777834 
L 99.95797 -138.381551 
L 100.125053 -136.985269 
L 100.27884 -135.588987 
L 100.419255 -134.192704 
L 100.546487 -132.796422 
L 100.660982 -131.400139 
L 100.763413 -130.003857 
L 100.854646 -128.607574 
L 100.93569 -127.211292 
L 101.00764 -125.81501 
L 101.071615 -124.418727 
L 101.12869 -123.022445 
L 101.179834 -121.626162 
L 101.225843 -120.22988 
L 101.267292 -118.833598 
L 101.304489 -117.437315 
L 101.337453 -116.041033 
L 101.365898 -114.64475 
L 101.389245 -113.248468 
L 101.406645 -111.852185 
L 101.417024 -110.455903 
L 101.41914 -109.059621 
L 101.411649 -107.663338 
L 101.393186 -106.267056 
L 101.362438 -104.870773 
L 101.318225 -103.474491 
L 101.259568 -102.078208 
L 101.18575 -100.681926 
L 101.096363 -99.285644 
L 100.991337 -97.889361 
L 100.870951 -96.493079 
L 100.735831 -95.096796 
L 100.586926 -93.700514 
L 100.425469 -92.304232 
L 100.252929 -90.907949 
L 100.070953 -89.511667 
L 99.881295 -88.115384 
L 99.685752 -86.719102 
L 99.4861 -85.322819 
L 99.284026 -83.926537 
L 99.08108 -82.530255 
L 98.878628 -81.133972 
L 98.677823 -79.73769 
L 98.479584 -78.341407 
L 98.284589 -76.945125 
L 98.093286 -75.548843 
L 97.905909 -74.15256 
L 97.722506 -72.756278 
L 97.542974 -71.359995 
L 97.367103 -69.963713 
L 97.194615 -68.56743 
L 97.025212 -67.171148 
L 96.858614 -65.774866 
L 96.694591 -64.378583 
L 96.533 -62.982301 
L 96.373797 -61.586018 
L 96.217055 -60.189736 
L 96.062965 -58.793453 
L 95.911831 -57.397171 
z
" style="stroke: #8a2be2; stroke-width: 1.5"/>
    </defs>
    <g clip-path="url(#pfd9e455d27)">
     <use xlink:href="#m56d73de09b" x="0" y="432" style="fill: #ffffff; stroke: #8a2be2; stroke-width: 1.5"/>
    </g>
   </g>
   <g id="PolyCollection_2">
    <defs>
     <path id="mdb8a8b7635" d="M 147.749236 -55.698586 
L 142.163264 -55.698586 
L 141.983539 -56.797058 
L 141.802044 -57.895531 
L 141.619606 -58.994004 
L 141.43707 -60.092476 
L 141.255283 -61.190949 
L 141.075088 -62.289422 
L 140.897312 -63.387894 
L 140.72275 -64.486367 
L 140.552164 -65.58484 
L 140.386266 -66.683312 
L 140.225717 -67.781785 
L 140.071113 -68.880258 
L 139.922987 -69.97873 
L 139.781803 -71.077203 
L 139.647952 -72.175676 
L 139.521756 -73.274148 
L 139.403469 -74.372621 
L 139.293276 -75.471094 
L 139.191301 -76.569566 
L 139.097614 -77.668039 
L 139.012231 -78.766512 
L 138.935125 -79.864984 
L 138.866231 -80.963457 
L 138.805452 -82.06193 
L 138.752661 -83.160402 
L 138.707711 -84.258875 
L 138.670434 -85.357348 
L 138.640643 -86.45582 
L 138.618133 -87.554293 
L 138.602681 -88.652766 
L 138.59404 -89.751238 
L 138.591939 -90.849711 
L 138.596079 -91.948184 
L 138.606123 -93.046656 
L 138.621698 -94.145129 
L 138.642386 -95.243602 
L 138.667719 -96.342074 
L 138.697181 -97.440547 
L 138.730205 -98.53902 
L 138.76617 -99.637492 
L 138.80441 -100.735965 
L 138.844216 -101.834438 
L 138.884843 -102.93291 
L 138.925522 -104.031383 
L 138.965472 -105.129856 
L 139.003915 -106.228328 
L 139.040088 -107.326801 
L 139.073265 -108.425274 
L 139.102773 -109.523746 
L 139.128011 -110.622219 
L 139.148464 -111.720692 
L 139.163725 -112.819164 
L 139.173507 -113.917637 
L 139.177658 -115.01611 
L 139.17617 -116.114582 
L 139.169188 -117.213055 
L 139.157013 -118.311528 
L 139.140105 -119.41 
L 139.11908 -120.508473 
L 139.094701 -121.606946 
L 139.067869 -122.705418 
L 139.039612 -123.803891 
L 139.011061 -124.902364 
L 138.983437 -126.000836 
L 138.958022 -127.099309 
L 138.936137 -128.197782 
L 138.919116 -129.296254 
L 138.908274 -130.394727 
L 138.904883 -131.4932 
L 138.910142 -132.591673 
L 138.925154 -133.690145 
L 138.950895 -134.788618 
L 138.988199 -135.887091 
L 139.037735 -136.985563 
L 139.09999 -138.084036 
L 139.175265 -139.182509 
L 139.263659 -140.280981 
L 139.365076 -141.379454 
L 139.479222 -142.477927 
L 139.605612 -143.576399 
L 139.743588 -144.674872 
L 139.892328 -145.773345 
L 140.050869 -146.871817 
L 140.218127 -147.97029 
L 140.392923 -149.068763 
L 140.574008 -150.167235 
L 140.760088 -151.265708 
L 140.949852 -152.364181 
L 141.141994 -153.462653 
L 141.335239 -154.561126 
L 141.528363 -155.659599 
L 141.720209 -156.758071 
L 141.909706 -157.856544 
L 142.095877 -158.955017 
L 142.277852 -160.053489 
L 142.454866 -161.151962 
L 142.626271 -162.250435 
L 142.791525 -163.348907 
L 142.950196 -164.44738 
L 146.962304 -164.44738 
L 146.962304 -164.44738 
L 147.120975 -163.348907 
L 147.286229 -162.250435 
L 147.457634 -161.151962 
L 147.634648 -160.053489 
L 147.816623 -158.955017 
L 148.002794 -157.856544 
L 148.192291 -156.758071 
L 148.384137 -155.659599 
L 148.577261 -154.561126 
L 148.770506 -153.462653 
L 148.962648 -152.364181 
L 149.152412 -151.265708 
L 149.338492 -150.167235 
L 149.519577 -149.068763 
L 149.694373 -147.97029 
L 149.861631 -146.871817 
L 150.020172 -145.773345 
L 150.168912 -144.674872 
L 150.306888 -143.576399 
L 150.433278 -142.477927 
L 150.547424 -141.379454 
L 150.648841 -140.280981 
L 150.737235 -139.182509 
L 150.81251 -138.084036 
L 150.874765 -136.985563 
L 150.924301 -135.887091 
L 150.961605 -134.788618 
L 150.987346 -133.690145 
L 151.002358 -132.591673 
L 151.007617 -131.4932 
L 151.004226 -130.394727 
L 150.993384 -129.296254 
L 150.976363 -128.197782 
L 150.954478 -127.099309 
L 150.929063 -126.000836 
L 150.901439 -124.902364 
L 150.872888 -123.803891 
L 150.844631 -122.705418 
L 150.817799 -121.606946 
L 150.79342 -120.508473 
L 150.772395 -119.41 
L 150.755487 -118.311528 
L 150.743312 -117.213055 
L 150.73633 -116.114582 
L 150.734842 -115.01611 
L 150.738993 -113.917637 
L 150.748775 -112.819164 
L 150.764036 -111.720692 
L 150.784489 -110.622219 
L 150.809727 -109.523746 
L 150.839235 -108.425274 
L 150.872412 -107.326801 
L 150.908585 -106.228328 
L 150.947028 -105.129856 
L 150.986978 -104.031383 
L 151.027657 -102.93291 
L 151.068284 -101.834438 
L 151.10809 -100.735965 
L 151.14633 -99.637492 
L 151.182295 -98.53902 
L 151.215319 -97.440547 
L 151.244781 -96.342074 
L 151.270114 -95.243602 
L 151.290802 -94.145129 
L 151.306377 -93.046656 
L 151.316421 -91.948184 
L 151.320561 -90.849711 
L 151.31846 -89.751238 
L 151.309819 -88.652766 
L 151.294367 -87.554293 
L 151.271857 -86.45582 
L 151.242066 -85.357348 
L 151.204789 -84.258875 
L 151.159839 -83.160402 
L 151.107048 -82.06193 
L 151.046269 -80.963457 
L 150.977375 -79.864984 
L 150.900269 -78.766512 
L 150.814886 -77.668039 
L 150.721199 -76.569566 
L 150.619224 -75.471094 
L 150.509031 -74.372621 
L 150.390744 -73.274148 
L 150.264548 -72.175676 
L 150.130697 -71.077203 
L 149.989513 -69.97873 
L 149.841387 -68.880258 
L 149.686783 -67.781785 
L 149.526234 -66.683312 
L 149.360336 -65.58484 
L 149.18975 -64.486367 
L 149.015188 -63.387894 
L 148.837412 -62.289422 
L 148.657217 -61.190949 
L 148.47543 -60.092476 
L 148.292894 -58.994004 
L 148.110456 -57.895531 
L 147.928961 -56.797058 
L 147.749236 -55.698586 
z
" style="stroke: #800080; stroke-width: 1.5"/>
    </defs>
    <g clip-path="url(#pfd9e455d27)">
     <use xlink:href="#mdb8a8b7635" x="0" y="432" style="fill: #ffffff; stroke: #800080; stroke-width: 1.5"/>
    </g>
   </g>
   <g id="PolyCollection_3">
    <defs>
     <path id="m154af1523b" d="M 211.660901 -54 
L 180.176599 -54 
L 179.458738 -54.440673 
L 178.789919 -54.881346 
L 178.176107 -55.322019 
L 177.622227 -55.762692 
L 177.132048 -56.203364 
L 176.708086 -56.644037 
L 176.35156 -57.08471 
L 176.062379 -57.525383 
L 175.839163 -57.966056 
L 175.679307 -58.406729 
L 175.57908 -58.847402 
L 175.53375 -59.288075 
L 175.537734 -59.728748 
L 175.584774 -60.16942 
L 175.668122 -60.610093 
L 175.780739 -61.050766 
L 175.915485 -61.491439 
L 176.065326 -61.932112 
L 176.223508 -62.372785 
L 176.383737 -62.813458 
L 176.540331 -63.254131 
L 176.688355 -63.694804 
L 176.823725 -64.135477 
L 176.943293 -64.576149 
L 177.044897 -65.016822 
L 177.12739 -65.457495 
L 177.19063 -65.898168 
L 177.235447 -66.338841 
L 177.26359 -66.779514 
L 177.277635 -67.220187 
L 177.280886 -67.66086 
L 177.277251 -68.101533 
L 177.271106 -68.542205 
L 177.26715 -68.982878 
L 177.270255 -69.423551 
L 177.285317 -69.864224 
L 177.317106 -70.304897 
L 177.370135 -70.74557 
L 177.448527 -71.186243 
L 177.555909 -71.626916 
L 177.695322 -72.067589 
L 177.869143 -72.508261 
L 178.079038 -72.948934 
L 178.325933 -73.389607 
L 178.610005 -73.83028 
L 178.930694 -74.270953 
L 179.286738 -74.711626 
L 179.676221 -75.152299 
L 180.096641 -75.592972 
L 180.544984 -76.033645 
L 181.017816 -76.474317 
L 181.511378 -76.91499 
L 182.021685 -77.355663 
L 182.544627 -77.796336 
L 183.07607 -78.237009 
L 183.611952 -78.677682 
L 184.148371 -79.118355 
L 184.681661 -79.559028 
L 185.208467 -79.999701 
L 185.725795 -80.440374 
L 186.231052 -80.881046 
L 186.722072 -81.321719 
L 187.197129 -81.762392 
L 187.654925 -82.203065 
L 188.094574 -82.643738 
L 188.515568 -83.084411 
L 188.917732 -83.525084 
L 189.301173 -83.965757 
L 189.666221 -84.40643 
L 190.013365 -84.847102 
L 190.3432 -85.287775 
L 190.656365 -85.728448 
L 190.953491 -86.169121 
L 191.235166 -86.609794 
L 191.501898 -87.050467 
L 191.754095 -87.49114 
L 191.992064 -87.931813 
L 192.216008 -88.372486 
L 192.426043 -88.813158 
L 192.622226 -89.253831 
L 192.804581 -89.694504 
L 192.97314 -90.135177 
L 193.127975 -90.57585 
L 193.26924 -91.016523 
L 193.397202 -91.457196 
L 193.512268 -91.897869 
L 193.615006 -92.338542 
L 193.706154 -92.779214 
L 193.786621 -93.219887 
L 193.857476 -93.66056 
L 193.919929 -94.101233 
L 193.975304 -94.541906 
L 194.025002 -94.982579 
L 194.070463 -95.423252 
L 194.113117 -95.863925 
L 194.154348 -96.304598 
L 194.195444 -96.745271 
L 194.237562 -97.185943 
L 194.281697 -97.626616 
L 197.555803 -97.626616 
L 197.555803 -97.626616 
L 197.599938 -97.185943 
L 197.642056 -96.745271 
L 197.683152 -96.304598 
L 197.724383 -95.863925 
L 197.767037 -95.423252 
L 197.812498 -94.982579 
L 197.862196 -94.541906 
L 197.917571 -94.101233 
L 197.980024 -93.66056 
L 198.050879 -93.219887 
L 198.131346 -92.779214 
L 198.222494 -92.338542 
L 198.325232 -91.897869 
L 198.440298 -91.457196 
L 198.56826 -91.016523 
L 198.709525 -90.57585 
L 198.86436 -90.135177 
L 199.032919 -89.694504 
L 199.215274 -89.253831 
L 199.411457 -88.813158 
L 199.621492 -88.372486 
L 199.845436 -87.931813 
L 200.083405 -87.49114 
L 200.335602 -87.050467 
L 200.602334 -86.609794 
L 200.884009 -86.169121 
L 201.181135 -85.728448 
L 201.4943 -85.287775 
L 201.824135 -84.847102 
L 202.171279 -84.40643 
L 202.536327 -83.965757 
L 202.919768 -83.525084 
L 203.321932 -83.084411 
L 203.742926 -82.643738 
L 204.182575 -82.203065 
L 204.640371 -81.762392 
L 205.115428 -81.321719 
L 205.606448 -80.881046 
L 206.111705 -80.440374 
L 206.629033 -79.999701 
L 207.155839 -79.559028 
L 207.689129 -79.118355 
L 208.225548 -78.677682 
L 208.76143 -78.237009 
L 209.292873 -77.796336 
L 209.815815 -77.355663 
L 210.326122 -76.91499 
L 210.819684 -76.474317 
L 211.292516 -76.033645 
L 211.740859 -75.592972 
L 212.161279 -75.152299 
L 212.550762 -74.711626 
L 212.906806 -74.270953 
L 213.227495 -73.83028 
L 213.511567 -73.389607 
L 213.758462 -72.948934 
L 213.968357 -72.508261 
L 214.142178 -72.067589 
L 214.281591 -71.626916 
L 214.388973 -71.186243 
L 214.467365 -70.74557 
L 214.520394 -70.304897 
L 214.552183 -69.864224 
L 214.567245 -69.423551 
L 214.57035 -68.982878 
L 214.566394 -68.542205 
L 214.560249 -68.101533 
L 214.556614 -67.66086 
L 214.559865 -67.220187 
L 214.57391 -66.779514 
L 214.602053 -66.338841 
L 214.64687 -65.898168 
L 214.71011 -65.457495 
L 214.792603 -65.016822 
L 214.894207 -64.576149 
L 215.013775 -64.135477 
L 215.149145 -63.694804 
L 215.297169 -63.254131 
L 215.453763 -62.813458 
L 215.613992 -62.372785 
L 215.772174 -61.932112 
L 215.922015 -61.491439 
L 216.056761 -61.050766 
L 216.169378 -60.610093 
L 216.252726 -60.16942 
L 216.299766 -59.728748 
L 216.30375 -59.288075 
L 216.25842 -58.847402 
L 216.158193 -58.406729 
L 215.998337 -57.966056 
L 215.775121 -57.525383 
L 215.48594 -57.08471 
L 215.129414 -56.644037 
L 214.705452 -56.203364 
L 214.215273 -55.762692 
L 213.661393 -55.322019 
L 213.047581 -54.881346 
L 212.378762 -54.440673 
L 211.660901 -54 
z
" style="stroke: #4b0082; stroke-width: 1.5"/>
    </defs>
    <g clip-path="url(#pfd9e455d27)">
     <use xlink:href="#m154af1523b" x="0" y="432" style="fill: #ffffff; stroke: #4b0082; stroke-width: 1.5"/>
    </g>
   </g>
   <g id="PolyCollection_4">
    <defs>
     <path id="m41e2ca5142" d="M 247.902066 -60.794342 
L 245.860434 -60.794342 
L 245.797987 -63.314412 
L 245.735461 -65.834482 
L 245.673055 -68.354552 
L 245.61093 -70.874623 
L 245.549202 -73.394693 
L 245.487939 -75.914763 
L 245.427155 -78.434833 
L 245.366811 -80.954903 
L 245.306815 -83.474973 
L 245.247021 -85.995043 
L 245.187243 -88.515113 
L 245.127252 -91.035184 
L 245.066795 -93.555254 
L 245.0056 -96.075324 
L 244.943392 -98.595394 
L 244.87991 -101.115464 
L 244.814918 -103.635534 
L 244.748226 -106.155604 
L 244.679702 -108.675674 
L 244.609288 -111.195745 
L 244.537014 -113.715815 
L 244.463006 -116.235885 
L 244.387499 -118.755955 
L 244.310834 -121.276025 
L 244.233466 -123.796095 
L 244.155953 -126.316165 
L 244.078952 -128.836235 
L 244.003207 -131.356305 
L 243.929527 -133.876376 
L 243.85877 -136.396446 
L 243.791818 -138.916516 
L 243.729548 -141.436586 
L 243.67281 -143.956656 
L 243.622393 -146.476726 
L 243.579003 -148.996796 
L 243.543232 -151.516866 
L 243.515541 -154.036937 
L 243.496236 -156.557007 
L 243.485459 -159.077077 
L 243.483173 -161.597147 
L 243.489166 -164.117217 
L 243.503051 -166.637287 
L 243.524276 -169.157357 
L 243.552138 -171.677427 
L 243.585806 -174.197498 
L 243.624348 -176.717568 
L 243.666754 -179.237638 
L 243.711976 -181.757708 
L 243.758955 -184.277778 
L 243.806655 -186.797848 
L 243.854097 -189.317918 
L 243.900391 -191.837988 
L 243.944755 -194.358059 
L 243.986544 -196.878129 
L 244.025263 -199.398199 
L 244.060579 -201.918269 
L 244.092326 -204.438339 
L 244.120505 -206.958409 
L 244.145274 -209.478479 
L 244.166941 -211.998549 
L 244.185941 -214.518619 
L 244.202819 -217.03869 
L 244.218208 -219.55876 
L 244.232799 -222.07883 
L 244.247314 -224.5989 
L 244.262487 -227.11897 
L 244.279029 -229.63904 
L 244.297612 -232.15911 
L 244.318843 -234.67918 
L 244.343253 -237.199251 
L 244.371278 -239.719321 
L 244.403254 -242.239391 
L 244.439407 -244.759461 
L 244.479859 -247.279531 
L 244.524623 -249.799601 
L 244.573614 -252.319671 
L 244.626656 -254.839741 
L 244.683493 -257.359812 
L 244.743802 -259.879882 
L 244.807209 -262.399952 
L 244.873299 -264.920022 
L 244.941633 -267.440092 
L 245.011761 -269.960162 
L 245.083233 -272.480232 
L 245.155614 -275.000302 
L 245.228487 -277.520373 
L 245.301464 -280.040443 
L 245.374191 -282.560513 
L 245.446352 -285.080583 
L 245.517668 -287.600653 
L 245.587899 -290.120723 
L 245.656842 -292.640793 
L 245.724328 -295.160863 
L 245.790219 -297.680933 
L 245.854405 -300.201004 
L 245.916796 -302.721074 
L 245.977324 -305.241144 
L 246.035932 -307.761214 
L 246.092574 -310.281284 
L 247.669926 -310.281284 
L 247.669926 -310.281284 
L 247.726568 -307.761214 
L 247.785176 -305.241144 
L 247.845704 -302.721074 
L 247.908095 -300.201004 
L 247.972281 -297.680933 
L 248.038172 -295.160863 
L 248.105658 -292.640793 
L 248.174601 -290.120723 
L 248.244832 -287.600653 
L 248.316148 -285.080583 
L 248.388309 -282.560513 
L 248.461036 -280.040443 
L 248.534013 -277.520373 
L 248.606886 -275.000302 
L 248.679267 -272.480232 
L 248.750739 -269.960162 
L 248.820867 -267.440092 
L 248.889201 -264.920022 
L 248.955291 -262.399952 
L 249.018698 -259.879882 
L 249.079007 -257.359812 
L 249.135844 -254.839741 
L 249.188886 -252.319671 
L 249.237877 -249.799601 
L 249.282641 -247.279531 
L 249.323093 -244.759461 
L 249.359246 -242.239391 
L 249.391222 -239.719321 
L 249.419247 -237.199251 
L 249.443657 -234.67918 
L 249.464888 -232.15911 
L 249.483471 -229.63904 
L 249.500013 -227.11897 
L 249.515186 -224.5989 
L 249.529701 -222.07883 
L 249.544292 -219.55876 
L 249.559681 -217.03869 
L 249.576559 -214.518619 
L 249.595559 -211.998549 
L 249.617226 -209.478479 
L 249.641995 -206.958409 
L 249.670174 -204.438339 
L 249.701921 -201.918269 
L 249.737237 -199.398199 
L 249.775956 -196.878129 
L 249.817745 -194.358059 
L 249.862109 -191.837988 
L 249.908403 -189.317918 
L 249.955845 -186.797848 
L 250.003545 -184.277778 
L 250.050524 -181.757708 
L 250.095746 -179.237638 
L 250.138152 -176.717568 
L 250.176694 -174.197498 
L 250.210362 -171.677427 
L 250.238224 -169.157357 
L 250.259449 -166.637287 
L 250.273334 -164.117217 
L 250.279327 -161.597147 
L 250.277041 -159.077077 
L 250.266264 -156.557007 
L 250.246959 -154.036937 
L 250.219268 -151.516866 
L 250.183497 -148.996796 
L 250.140107 -146.476726 
L 250.08969 -143.956656 
L 250.032952 -141.436586 
L 249.970682 -138.916516 
L 249.90373 -136.396446 
L 249.832973 -133.876376 
L 249.759293 -131.356305 
L 249.683548 -128.836235 
L 249.606547 -126.316165 
L 249.529034 -123.796095 
L 249.451666 -121.276025 
L 249.375001 -118.755955 
L 249.299494 -116.235885 
L 249.225486 -113.715815 
L 249.153212 -111.195745 
L 249.082798 -108.675674 
L 249.014274 -106.155604 
L 248.947582 -103.635534 
L 248.88259 -101.115464 
L 248.819108 -98.595394 
L 248.7569 -96.075324 
L 248.695705 -93.555254 
L 248.635248 -91.035184 
L 248.575257 -88.515113 
L 248.515479 -85.995043 
L 248.455685 -83.474973 
L 248.395689 -80.954903 
L 248.335345 -78.434833 
L 248.274561 -75.914763 
L 248.213298 -73.394693 
L 248.15157 -70.874623 
L 248.089445 -68.354552 
L 248.027039 -65.834482 
L 247.964513 -63.314412 
L 247.902066 -60.794342 
z
" style="stroke: #6a5acd; stroke-width: 1.5"/>
    </defs>
    <g clip-path="url(#pfd9e455d27)">
     <use xlink:href="#m41e2ca5142" x="0" y="432" style="fill: #ffffff; stroke: #6a5acd; stroke-width: 1.5"/>
    </g>
   </g>
   <g id="PolyCollection_5">
    <defs>
     <path id="m30610ecc2f" d="M 299.693191 -173.570883 
L 295.994309 -173.570883 
L 295.86061 -175.317408 
L 295.724711 -177.063934 
L 295.587325 -178.810459 
L 295.449201 -180.556984 
L 295.311119 -182.30351 
L 295.173877 -184.050035 
L 295.038282 -185.796561 
L 294.905138 -187.543086 
L 294.775238 -189.289612 
L 294.649348 -191.036137 
L 294.528204 -192.782662 
L 294.412495 -194.529188 
L 294.302859 -196.275713 
L 294.199874 -198.022239 
L 294.10405 -199.768764 
L 294.015824 -201.51529 
L 293.935557 -203.261815 
L 293.863529 -205.00834 
L 293.799938 -206.754866 
L 293.744898 -208.501391 
L 293.698443 -210.247917 
L 293.660523 -211.994442 
L 293.631009 -213.740968 
L 293.609697 -215.487493 
L 293.596305 -217.234018 
L 293.590482 -218.980544 
L 293.591809 -220.727069 
L 293.599802 -222.473595 
L 293.613917 -224.22012 
L 293.633552 -225.966646 
L 293.658053 -227.713171 
L 293.686716 -229.459696 
L 293.718796 -231.206222 
L 293.75351 -232.952747 
L 293.790043 -234.699273 
L 293.827562 -236.445798 
L 293.865219 -238.192324 
L 293.902168 -239.938849 
L 293.937572 -241.685375 
L 293.970624 -243.4319 
L 294.000558 -245.178425 
L 294.026667 -246.924951 
L 294.048319 -248.671476 
L 294.064978 -250.418002 
L 294.076216 -252.164527 
L 294.081734 -253.911053 
L 294.08137 -255.657578 
L 294.075117 -257.404103 
L 294.063128 -259.150629 
L 294.045721 -260.897154 
L 294.02338 -262.64368 
L 293.996753 -264.390205 
L 293.96664 -266.136731 
L 293.933984 -267.883256 
L 293.899852 -269.629781 
L 293.865409 -271.376307 
L 293.831899 -273.122832 
L 293.800611 -274.869358 
L 293.772852 -276.615883 
L 293.749909 -278.362409 
L 293.733025 -280.108934 
L 293.723356 -281.855459 
L 293.721952 -283.601985 
L 293.729719 -285.34851 
L 293.747405 -287.095036 
L 293.775572 -288.841561 
L 293.814586 -290.588087 
L 293.864606 -292.334612 
L 293.925582 -294.081137 
L 293.997257 -295.827663 
L 294.079172 -297.574188 
L 294.170685 -299.320714 
L 294.270985 -301.067239 
L 294.379115 -302.813765 
L 294.494001 -304.56029 
L 294.614475 -306.306815 
L 294.739311 -308.053341 
L 294.867252 -309.799866 
L 294.997043 -311.546392 
L 295.127458 -313.292917 
L 295.25733 -315.039443 
L 295.385575 -316.785968 
L 295.51121 -318.532493 
L 295.633376 -320.279019 
L 295.751346 -322.025544 
L 295.864536 -323.77207 
L 295.972507 -325.518595 
L 296.074964 -327.265121 
L 296.171756 -329.011646 
L 296.262859 -330.758171 
L 296.348372 -332.504697 
L 296.428495 -334.251222 
L 296.503517 -335.997748 
L 296.573797 -337.744273 
L 296.639741 -339.490799 
L 296.70179 -341.237324 
L 296.760394 -342.98385 
L 296.816 -344.730375 
L 296.869035 -346.4769 
L 298.818465 -346.4769 
L 298.818465 -346.4769 
L 298.8715 -344.730375 
L 298.927106 -342.98385 
L 298.98571 -341.237324 
L 299.047759 -339.490799 
L 299.113703 -337.744273 
L 299.183983 -335.997748 
L 299.259005 -334.251222 
L 299.339128 -332.504697 
L 299.424641 -330.758171 
L 299.515744 -329.011646 
L 299.612536 -327.265121 
L 299.714993 -325.518595 
L 299.822964 -323.77207 
L 299.936154 -322.025544 
L 300.054124 -320.279019 
L 300.17629 -318.532493 
L 300.301925 -316.785968 
L 300.43017 -315.039443 
L 300.560042 -313.292917 
L 300.690457 -311.546392 
L 300.820248 -309.799866 
L 300.948189 -308.053341 
L 301.073025 -306.306815 
L 301.193499 -304.56029 
L 301.308385 -302.813765 
L 301.416515 -301.067239 
L 301.516815 -299.320714 
L 301.608328 -297.574188 
L 301.690243 -295.827663 
L 301.761918 -294.081137 
L 301.822894 -292.334612 
L 301.872914 -290.588087 
L 301.911928 -288.841561 
L 301.940095 -287.095036 
L 301.957781 -285.34851 
L 301.965548 -283.601985 
L 301.964144 -281.855459 
L 301.954475 -280.108934 
L 301.937591 -278.362409 
L 301.914648 -276.615883 
L 301.886889 -274.869358 
L 301.855601 -273.122832 
L 301.822091 -271.376307 
L 301.787648 -269.629781 
L 301.753516 -267.883256 
L 301.72086 -266.136731 
L 301.690747 -264.390205 
L 301.66412 -262.64368 
L 301.641779 -260.897154 
L 301.624372 -259.150629 
L 301.612383 -257.404103 
L 301.60613 -255.657578 
L 301.605766 -253.911053 
L 301.611284 -252.164527 
L 301.622522 -250.418002 
L 301.639181 -248.671476 
L 301.660833 -246.924951 
L 301.686942 -245.178425 
L 301.716876 -243.4319 
L 301.749928 -241.685375 
L 301.785332 -239.938849 
L 301.822281 -238.192324 
L 301.859938 -236.445798 
L 301.897457 -234.699273 
L 301.93399 -232.952747 
L 301.968704 -231.206222 
L 302.000784 -229.459696 
L 302.029447 -227.713171 
L 302.053948 -225.966646 
L 302.073583 -224.22012 
L 302.087698 -222.473595 
L 302.095691 -220.727069 
L 302.097018 -218.980544 
L 302.091195 -217.234018 
L 302.077803 -215.487493 
L 302.056491 -213.740968 
L 302.026977 -211.994442 
L 301.989057 -210.247917 
L 301.942602 -208.501391 
L 301.887562 -206.754866 
L 301.823971 -205.00834 
L 301.751943 -203.261815 
L 301.671676 -201.51529 
L 301.58345 -199.768764 
L 301.487626 -198.022239 
L 301.384641 -196.275713 
L 301.275005 -194.529188 
L 301.159296 -192.782662 
L 301.038152 -191.036137 
L 300.912262 -189.289612 
L 300.782362 -187.543086 
L 300.649218 -185.796561 
L 300.513623 -184.050035 
L 300.376381 -182.30351 
L 300.238299 -180.556984 
L 300.100175 -178.810459 
L 299.962789 -177.063934 
L 299.82689 -175.317408 
L 299.693191 -173.570883 
z
" style="stroke: #ff8c00; stroke-width: 1.5"/>
    </defs>
    <g clip-path="url(#pfd9e455d27)">
     <use xlink:href="#m30610ecc2f" x="0" y="432" style="fill: #ffffff; stroke: #ff8c00; stroke-width: 1.5"/>
    </g>
   </g>
   <g id="PolyCollection_6">
    <defs>
     <path id="mbf389a8adb" d="M 352.340082 -134.903138 
L 345.272418 -134.903138 
L 345.175537 -135.907023 
L 345.080318 -136.910907 
L 344.986811 -137.914791 
L 344.895045 -138.918675 
L 344.805028 -139.922559 
L 344.716751 -140.926444 
L 344.630187 -141.930328 
L 344.545296 -142.934212 
L 344.462025 -143.938096 
L 344.380312 -144.94198 
L 344.300088 -145.945865 
L 344.221279 -146.949749 
L 344.143811 -147.953633 
L 344.067611 -148.957517 
L 343.99261 -149.961401 
L 343.918746 -150.965286 
L 343.845965 -151.96917 
L 343.774227 -152.973054 
L 343.7035 -153.976938 
L 343.633771 -154.980822 
L 343.56504 -155.984707 
L 343.497324 -156.988591 
L 343.430656 -157.992475 
L 343.365086 -158.996359 
L 343.300679 -160.000244 
L 343.237519 -161.004128 
L 343.175702 -162.008012 
L 343.115336 -163.011896 
L 343.056545 -164.01578 
L 342.99946 -165.019665 
L 342.944219 -166.023549 
L 342.890971 -167.027433 
L 342.839864 -168.031317 
L 342.791052 -169.035201 
L 342.744685 -170.039086 
L 342.700915 -171.04297 
L 342.659888 -172.046854 
L 342.621744 -173.050738 
L 342.586618 -174.054622 
L 342.554635 -175.058507 
L 342.525911 -176.062391 
L 342.500551 -177.066275 
L 342.478651 -178.070159 
L 342.460294 -179.074043 
L 342.445552 -180.077928 
L 342.434485 -181.081812 
L 342.427144 -182.085696 
L 342.423568 -183.08958 
L 342.423784 -184.093464 
L 342.427811 -185.097349 
L 342.43566 -186.101233 
L 342.447332 -187.105117 
L 342.462822 -188.109001 
L 342.482118 -189.112885 
L 342.505199 -190.11677 
L 342.532043 -191.120654 
L 342.56262 -192.124538 
L 342.596897 -193.128422 
L 342.634835 -194.132306 
L 342.676392 -195.136191 
L 342.721521 -196.140075 
L 342.770173 -197.143959 
L 342.822292 -198.147843 
L 342.87782 -199.151728 
L 342.936691 -200.155612 
L 342.998838 -201.159496 
L 343.064185 -202.16338 
L 343.132653 -203.167264 
L 343.204155 -204.171149 
L 343.278599 -205.175033 
L 343.355886 -206.178917 
L 343.435911 -207.182801 
L 343.518561 -208.186685 
L 343.603718 -209.19057 
L 343.691258 -210.194454 
L 343.781049 -211.198338 
L 343.872957 -212.202222 
L 343.966838 -213.206106 
L 344.062548 -214.209991 
L 344.159938 -215.213875 
L 344.258855 -216.217759 
L 344.359146 -217.221643 
L 344.460653 -218.225527 
L 344.563222 -219.229412 
L 344.666697 -220.233296 
L 344.770923 -221.23718 
L 344.875746 -222.241064 
L 344.981018 -223.244948 
L 345.08659 -224.248833 
L 345.19232 -225.252717 
L 345.298067 -226.256601 
L 345.403695 -227.260485 
L 345.509076 -228.264369 
L 345.61408 -229.268254 
L 345.718588 -230.272138 
L 345.822481 -231.276022 
L 345.925646 -232.279906 
L 346.027974 -233.28379 
L 346.12936 -234.287675 
L 351.48314 -234.287675 
L 351.48314 -234.287675 
L 351.584526 -233.28379 
L 351.686854 -232.279906 
L 351.790019 -231.276022 
L 351.893912 -230.272138 
L 351.99842 -229.268254 
L 352.103424 -228.264369 
L 352.208805 -227.260485 
L 352.314433 -226.256601 
L 352.42018 -225.252717 
L 352.52591 -224.248833 
L 352.631482 -223.244948 
L 352.736754 -222.241064 
L 352.841577 -221.23718 
L 352.945803 -220.233296 
L 353.049278 -219.229412 
L 353.151847 -218.225527 
L 353.253354 -217.221643 
L 353.353645 -216.217759 
L 353.452562 -215.213875 
L 353.549952 -214.209991 
L 353.645662 -213.206106 
L 353.739543 -212.202222 
L 353.831451 -211.198338 
L 353.921242 -210.194454 
L 354.008782 -209.19057 
L 354.093939 -208.186685 
L 354.176589 -207.182801 
L 354.256614 -206.178917 
L 354.333901 -205.175033 
L 354.408345 -204.171149 
L 354.479847 -203.167264 
L 354.548315 -202.16338 
L 354.613662 -201.159496 
L 354.675809 -200.155612 
L 354.73468 -199.151728 
L 354.790208 -198.147843 
L 354.842327 -197.143959 
L 354.890979 -196.140075 
L 354.936108 -195.136191 
L 354.977665 -194.132306 
L 355.015603 -193.128422 
L 355.04988 -192.124538 
L 355.080457 -191.120654 
L 355.107301 -190.11677 
L 355.130382 -189.112885 
L 355.149678 -188.109001 
L 355.165168 -187.105117 
L 355.17684 -186.101233 
L 355.184689 -185.097349 
L 355.188716 -184.093464 
L 355.188932 -183.08958 
L 355.185356 -182.085696 
L 355.178015 -181.081812 
L 355.166948 -180.077928 
L 355.152206 -179.074043 
L 355.133849 -178.070159 
L 355.111949 -177.066275 
L 355.086589 -176.062391 
L 355.057865 -175.058507 
L 355.025882 -174.054622 
L 354.990756 -173.050738 
L 354.952612 -172.046854 
L 354.911585 -171.04297 
L 354.867815 -170.039086 
L 354.821448 -169.035201 
L 354.772636 -168.031317 
L 354.721529 -167.027433 
L 354.668281 -166.023549 
L 354.61304 -165.019665 
L 354.555955 -164.01578 
L 354.497164 -163.011896 
L 354.436798 -162.008012 
L 354.374981 -161.004128 
L 354.311821 -160.000244 
L 354.247414 -158.996359 
L 354.181844 -157.992475 
L 354.115176 -156.988591 
L 354.04746 -155.984707 
L 353.978729 -154.980822 
L 353.909 -153.976938 
L 353.838273 -152.973054 
L 353.766535 -151.96917 
L 353.693754 -150.965286 
L 353.61989 -149.961401 
L 353.544889 -148.957517 
L 353.468689 -147.953633 
L 353.391221 -146.949749 
L 353.312412 -145.945865 
L 353.232188 -144.94198 
L 353.150475 -143.938096 
L 353.067204 -142.934212 
L 352.982313 -141.930328 
L 352.895749 -140.926444 
L 352.807472 -139.922559 
L 352.717455 -138.918675 
L 352.625689 -137.914791 
L 352.532182 -136.910907 
L 352.436963 -135.907023 
L 352.340082 -134.903138 
z
" style="stroke: #ee82ee; stroke-width: 1.5"/>
    </defs>
    <g clip-path="url(#pfd9e455d27)">
     <use xlink:href="#mbf389a8adb" x="0" y="432" style="fill: #ffffff; stroke: #ee82ee; stroke-width: 1.5"/>
    </g>
   </g>
   <g id="matplotlib.axis_1">
    <g id="xtick_1">
     <g id="text_1">
      <!-- V Bilateral Right Soma -->
      <g transform="translate(24.140642 461.309823)rotate(-25)scale(0.14 -0.14)">
       <defs>
        <path id="DejaVuSans-56" d="M 1831 0 
L 50 4666 
L 709 4666 
L 2188 738 
L 3669 4666 
L 4325 4666 
L 2547 0 
L 1831 0 
z
" transform="scale(0.015625)"/>
        <path id="DejaVuSans-20" transform="scale(0.015625)"/>
        <path id="DejaVuSans-42" d="M 1259 2228 
L 1259 519 
L 2272 519 
Q 2781 519 3026 730 
Q 3272 941 3272 1375 
Q 3272 1813 3026 2020 
Q 2781 2228 2272 2228 
L 1259 2228 
z
M 1259 4147 
L 1259 2741 
L 2194 2741 
Q 2656 2741 2882 2914 
Q 3109 3088 3109 3444 
Q 3109 3797 2882 3972 
Q 2656 4147 2194 4147 
L 1259 4147 
z
M 628 4666 
L 2241 4666 
Q 2963 4666 3353 4366 
Q 3744 4066 3744 3513 
Q 3744 3084 3544 2831 
Q 3344 2578 2956 2516 
Q 3422 2416 3680 2098 
Q 3938 1781 3938 1306 
Q 3938 681 3513 340 
Q 3088 0 2303 0 
L 628 0 
L 628 4666 
z
" transform="scale(0.015625)"/>
        <path id="DejaVuSans-69" d="M 603 3500 
L 1178 3500 
L 1178 0 
L 603 0 
L 603 3500 
z
M 603 4863 
L 1178 4863 
L 1178 4134 
L 603 4134 
L 603 4863 
z
" transform="scale(0.015625)"/>
        <path id="DejaVuSans-6c" d="M 603 4863 
L 1178 4863 
L 1178 0 
L 603 0 
L 603 4863 
z
" transform="scale(0.015625)"/>
        <path id="DejaVuSans-61" d="M 2194 1759 
Q 1497 1759 1228 1600 
Q 959 1441 959 1056 
Q 959 750 1161 570 
Q 1363 391 1709 391 
Q 2188 391 2477 730 
Q 2766 1069 2766 1631 
L 2766 1759 
L 2194 1759 
z
M 3341 1997 
L 3341 0 
L 2766 0 
L 2766 531 
Q 2569 213 2275 61 
Q 1981 -91 1556 -91 
Q 1019 -91 701 211 
Q 384 513 384 1019 
Q 384 1609 779 1909 
Q 1175 2209 1959 2209 
L 2766 2209 
L 2766 2266 
Q 2766 2663 2505 2880 
Q 2244 3097 1772 3097 
Q 1472 3097 1187 3025 
Q 903 2953 641 2809 
L 641 3341 
Q 956 3463 1253 3523 
Q 1550 3584 1831 3584 
Q 2591 3584 2966 3190 
Q 3341 2797 3341 1997 
z
" transform="scale(0.015625)"/>
        <path id="DejaVuSans-74" d="M 1172 4494 
L 1172 3500 
L 2356 3500 
L 2356 3053 
L 1172 3053 
L 1172 1153 
Q 1172 725 1289 603 
Q 1406 481 1766 481 
L 2356 481 
L 2356 0 
L 1766 0 
Q 1100 0 847 248 
Q 594 497 594 1153 
L 594 3053 
L 172 3053 
L 172 3500 
L 594 3500 
L 594 4494 
L 1172 4494 
z
" transform="scale(0.015625)"/>
        <path id="DejaVuSans-65" d="M 3597 1894 
L 3597 1613 
L 953 1613 
Q 991 1019 1311 708 
Q 1631 397 2203 397 
Q 2534 397 2845 478 
Q 3156 559 3463 722 
L 3463 178 
Q 3153 47 2828 -22 
Q 2503 -91 2169 -91 
Q 1331 -91 842 396 
Q 353 884 353 1716 
Q 353 2575 817 3079 
Q 1281 3584 2069 3584 
Q 2775 3584 3186 3129 
Q 3597 2675 3597 1894 
z
M 3022 2063 
Q 3016 2534 2758 2815 
Q 2500 3097 2075 3097 
Q 1594 3097 1305 2825 
Q 1016 2553 972 2059 
L 3022 2063 
z
" transform="scale(0.015625)"/>
        <path id="DejaVuSans-72" d="M 2631 2963 
Q 2534 3019 2420 3045 
Q 2306 3072 2169 3072 
Q 1681 3072 1420 2755 
Q 1159 2438 1159 1844 
L 1159 0 
L 581 0 
L 581 3500 
L 1159 3500 
L 1159 2956 
Q 1341 3275 1631 3429 
Q 1922 3584 2338 3584 
Q 2397 3584 2469 3576 
Q 2541 3569 2628 3553 
L 2631 2963 
z
" transform="scale(0.015625)"/>
        <path id="DejaVuSans-52" d="M 2841 2188 
Q 3044 2119 3236 1894 
Q 3428 1669 3622 1275 
L 4263 0 
L 3584 0 
L 2988 1197 
Q 2756 1666 2539 1819 
Q 2322 1972 1947 1972 
L 1259 1972 
L 1259 0 
L 628 0 
L 628 4666 
L 2053 4666 
Q 2853 4666 3247 4331 
Q 3641 3997 3641 3322 
Q 3641 2881 3436 2590 
Q 3231 2300 2841 2188 
z
M 1259 4147 
L 1259 2491 
L 2053 2491 
Q 2509 2491 2742 2702 
Q 2975 2913 2975 3322 
Q 2975 3731 2742 3939 
Q 2509 4147 2053 4147 
L 1259 4147 
z
" transform="scale(0.015625)"/>
        <path id="DejaVuSans-67" d="M 2906 1791 
Q 2906 2416 2648 2759 
Q 2391 3103 1925 3103 
Q 1463 3103 1205 2759 
Q 947 2416 947 1791 
Q 947 1169 1205 825 
Q 1463 481 1925 481 
Q 2391 481 2648 825 
Q 2906 1169 2906 1791 
z
M 3481 434 
Q 3481 -459 3084 -895 
Q 2688 -1331 1869 -1331 
Q 1566 -1331 1297 -1286 
Q 1028 -1241 775 -1147 
L 775 -588 
Q 1028 -725 1275 -790 
Q 1522 -856 1778 -856 
Q 2344 -856 2625 -561 
Q 2906 -266 2906 331 
L 2906 616 
Q 2728 306 2450 153 
Q 2172 0 1784 0 
Q 1141 0 747 490 
Q 353 981 353 1791 
Q 353 2603 747 3093 
Q 1141 3584 1784 3584 
Q 2172 3584 2450 3431 
Q 2728 3278 2906 2969 
L 2906 3500 
L 3481 3500 
L 3481 434 
z
" transform="scale(0.015625)"/>
        <path id="DejaVuSans-68" d="M 3513 2113 
L 3513 0 
L 2938 0 
L 2938 2094 
Q 2938 2591 2744 2837 
Q 2550 3084 2163 3084 
Q 1697 3084 1428 2787 
Q 1159 2491 1159 1978 
L 1159 0 
L 581 0 
L 581 4863 
L 1159 4863 
L 1159 2956 
Q 1366 3272 1645 3428 
Q 1925 3584 2291 3584 
Q 2894 3584 3203 3211 
Q 3513 2838 3513 2113 
z
" transform="scale(0.015625)"/>
        <path id="DejaVuSans-53" d="M 3425 4513 
L 3425 3897 
Q 3066 4069 2747 4153 
Q 2428 4238 2131 4238 
Q 1616 4238 1336 4038 
Q 1056 3838 1056 3469 
Q 1056 3159 1242 3001 
Q 1428 2844 1947 2747 
L 2328 2669 
Q 3034 2534 3370 2195 
Q 3706 1856 3706 1288 
Q 3706 609 3251 259 
Q 2797 -91 1919 -91 
Q 1588 -91 1214 -16 
Q 841 59 441 206 
L 441 856 
Q 825 641 1194 531 
Q 1563 422 1919 422 
Q 2459 422 2753 634 
Q 3047 847 3047 1241 
Q 3047 1584 2836 1778 
Q 2625 1972 2144 2069 
L 1759 2144 
Q 1053 2284 737 2584 
Q 422 2884 422 3419 
Q 422 4038 858 4394 
Q 1294 4750 2059 4750 
Q 2388 4750 2728 4690 
Q 3069 4631 3425 4513 
z
" transform="scale(0.015625)"/>
        <path id="DejaVuSans-6f" d="M 1959 3097 
Q 1497 3097 1228 2736 
Q 959 2375 959 1747 
Q 959 1119 1226 758 
Q 1494 397 1959 397 
Q 2419 397 2687 759 
Q 2956 1122 2956 1747 
Q 2956 2369 2687 2733 
Q 2419 3097 1959 3097 
z
M 1959 3584 
Q 2709 3584 3137 3096 
Q 3566 2609 3566 1747 
Q 3566 888 3137 398 
Q 2709 -91 1959 -91 
Q 1206 -91 779 398 
Q 353 888 353 1747 
Q 353 2609 779 3096 
Q 1206 3584 1959 3584 
z
" transform="scale(0.015625)"/>
        <path id="DejaVuSans-6d" d="M 3328 2828 
Q 3544 3216 3844 3400 
Q 4144 3584 4550 3584 
Q 5097 3584 5394 3201 
Q 5691 2819 5691 2113 
L 5691 0 
L 5113 0 
L 5113 2094 
Q 5113 2597 4934 2840 
Q 4756 3084 4391 3084 
Q 3944 3084 3684 2787 
Q 3425 2491 3425 1978 
L 3425 0 
L 2847 0 
L 2847 2094 
Q 2847 2600 2669 2842 
Q 2491 3084 2119 3084 
Q 1678 3084 1418 2786 
Q 1159 2488 1159 1978 
L 1159 0 
L 581 0 
L 581 3500 
L 1159 3500 
L 1159 2956 
Q 1356 3278 1631 3431 
Q 1906 3584 2284 3584 
Q 2666 3584 2933 3390 
Q 3200 3197 3328 2828 
z
" transform="scale(0.015625)"/>
       </defs>
       <use xlink:href="#DejaVuSans-56"/>
       <use xlink:href="#DejaVuSans-20" x="68.408203"/>
       <use xlink:href="#DejaVuSans-42" x="100.195312"/>
       <use xlink:href="#DejaVuSans-69" x="168.798828"/>
       <use xlink:href="#DejaVuSans-6c" x="196.582031"/>
       <use xlink:href="#DejaVuSans-61" x="224.365234"/>
       <use xlink:href="#DejaVuSans-74" x="285.644531"/>
       <use xlink:href="#DejaVuSans-65" x="324.853516"/>
       <use xlink:href="#DejaVuSans-72" x="386.376953"/>
       <use xlink:href="#DejaVuSans-61" x="427.490234"/>
       <use xlink:href="#DejaVuSans-6c" x="488.769531"/>
       <use xlink:href="#DejaVuSans-20" x="516.552734"/>
       <use xlink:href="#DejaVuSans-52" x="548.339844"/>
       <use xlink:href="#DejaVuSans-69" x="617.822266"/>
       <use xlink:href="#DejaVuSans-67" x="645.605469"/>
       <use xlink:href="#DejaVuSans-68" x="709.082031"/>
       <use xlink:href="#DejaVuSans-74" x="772.460938"/>
       <use xlink:href="#DejaVuSans-20" x="811.669922"/>
       <use xlink:href="#DejaVuSans-53" x="843.457031"/>
       <use xlink:href="#DejaVuSans-6f" x="906.933594"/>
       <use xlink:href="#DejaVuSans-6d" x="968.115234"/>
       <use xlink:href="#DejaVuSans-61" x="1065.527344"/>
      </g>
     </g>
    </g>
    <g id="xtick_2">
     <g id="text_2">
      <!-- V Bilateral Left Soma -->
      <g transform="translate(79.872162 456.862162)rotate(-25)scale(0.14 -0.14)">
       <defs>
        <path id="DejaVuSans-4c" d="M 628 4666 
L 1259 4666 
L 1259 531 
L 3531 531 
L 3531 0 
L 628 0 
L 628 4666 
z
" transform="scale(0.015625)"/>
        <path id="DejaVuSans-66" d="M 2375 4863 
L 2375 4384 
L 1825 4384 
Q 1516 4384 1395 4259 
Q 1275 4134 1275 3809 
L 1275 3500 
L 2222 3500 
L 2222 3053 
L 1275 3053 
L 1275 0 
L 697 0 
L 697 3053 
L 147 3053 
L 147 3500 
L 697 3500 
L 697 3744 
Q 697 4328 969 4595 
Q 1241 4863 1831 4863 
L 2375 4863 
z
" transform="scale(0.015625)"/>
       </defs>
       <use xlink:href="#DejaVuSans-56"/>
       <use xlink:href="#DejaVuSans-20" x="68.408203"/>
       <use xlink:href="#DejaVuSans-42" x="100.195312"/>
       <use xlink:href="#DejaVuSans-69" x="168.798828"/>
       <use xlink:href="#DejaVuSans-6c" x="196.582031"/>
       <use xlink:href="#DejaVuSans-61" x="224.365234"/>
       <use xlink:href="#DejaVuSans-74" x="285.644531"/>
       <use xlink:href="#DejaVuSans-65" x="324.853516"/>
       <use xlink:href="#DejaVuSans-72" x="386.376953"/>
       <use xlink:href="#DejaVuSans-61" x="427.490234"/>
       <use xlink:href="#DejaVuSans-6c" x="488.769531"/>
       <use xlink:href="#DejaVuSans-20" x="516.552734"/>
       <use xlink:href="#DejaVuSans-4c" x="548.339844"/>
       <use xlink:href="#DejaVuSans-65" x="602.302734"/>
       <use xlink:href="#DejaVuSans-66" x="663.826172"/>
       <use xlink:href="#DejaVuSans-74" x="697.28125"/>
       <use xlink:href="#DejaVuSans-20" x="736.490234"/>
       <use xlink:href="#DejaVuSans-53" x="768.277344"/>
       <use xlink:href="#DejaVuSans-6f" x="831.753906"/>
       <use xlink:href="#DejaVuSans-6d" x="892.935547"/>
       <use xlink:href="#DejaVuSans-61" x="990.347656"/>
      </g>
     </g>
    </g>
    <g id="xtick_3">
     <g id="text_3">
      <!-- V Unilateral -->
      <g transform="translate(160.469794 429.223985)rotate(-25)scale(0.14 -0.14)">
       <defs>
        <path id="DejaVuSans-55" d="M 556 4666 
L 1191 4666 
L 1191 1831 
Q 1191 1081 1462 751 
Q 1734 422 2344 422 
Q 2950 422 3222 751 
Q 3494 1081 3494 1831 
L 3494 4666 
L 4128 4666 
L 4128 1753 
Q 4128 841 3676 375 
Q 3225 -91 2344 -91 
Q 1459 -91 1007 375 
Q 556 841 556 1753 
L 556 4666 
z
" transform="scale(0.015625)"/>
        <path id="DejaVuSans-6e" d="M 3513 2113 
L 3513 0 
L 2938 0 
L 2938 2094 
Q 2938 2591 2744 2837 
Q 2550 3084 2163 3084 
Q 1697 3084 1428 2787 
Q 1159 2491 1159 1978 
L 1159 0 
L 581 0 
L 581 3500 
L 1159 3500 
L 1159 2956 
Q 1366 3272 1645 3428 
Q 1925 3584 2291 3584 
Q 2894 3584 3203 3211 
Q 3513 2838 3513 2113 
z
" transform="scale(0.015625)"/>
       </defs>
       <use xlink:href="#DejaVuSans-56"/>
       <use xlink:href="#DejaVuSans-20" x="68.408203"/>
       <use xlink:href="#DejaVuSans-55" x="100.195312"/>
       <use xlink:href="#DejaVuSans-6e" x="173.388672"/>
       <use xlink:href="#DejaVuSans-69" x="236.767578"/>
       <use xlink:href="#DejaVuSans-6c" x="264.550781"/>
       <use xlink:href="#DejaVuSans-61" x="292.333984"/>
       <use xlink:href="#DejaVuSans-74" x="353.613281"/>
       <use xlink:href="#DejaVuSans-65" x="392.822266"/>
       <use xlink:href="#DejaVuSans-72" x="454.345703"/>
       <use xlink:href="#DejaVuSans-61" x="495.458984"/>
       <use xlink:href="#DejaVuSans-6c" x="556.738281"/>
      </g>
     </g>
    </g>
    <g id="xtick_4">
     <g id="text_4">
      <!-- V total -->
      <g transform="translate(227.651522 414.097685)rotate(-25)scale(0.14 -0.14)">
       <use xlink:href="#DejaVuSans-56"/>
       <use xlink:href="#DejaVuSans-20" x="68.408203"/>
       <use xlink:href="#DejaVuSans-74" x="100.195312"/>
       <use xlink:href="#DejaVuSans-6f" x="139.404297"/>
       <use xlink:href="#DejaVuSans-74" x="200.585938"/>
       <use xlink:href="#DejaVuSans-61" x="239.794922"/>
       <use xlink:href="#DejaVuSans-6c" x="301.074219"/>
      </g>
     </g>
    </g>
    <g id="xtick_5">
     <g id="text_5">
      <!-- DM1 Unilateral -->
      <g transform="translate(252.339309 438.601884)rotate(-25)scale(0.14 -0.14)">
       <defs>
        <path id="DejaVuSans-44" d="M 1259 4147 
L 1259 519 
L 2022 519 
Q 2988 519 3436 956 
Q 3884 1394 3884 2338 
Q 3884 3275 3436 3711 
Q 2988 4147 2022 4147 
L 1259 4147 
z
M 628 4666 
L 1925 4666 
Q 3281 4666 3915 4102 
Q 4550 3538 4550 2338 
Q 4550 1131 3912 565 
Q 3275 0 1925 0 
L 628 0 
L 628 4666 
z
" transform="scale(0.015625)"/>
        <path id="DejaVuSans-4d" d="M 628 4666 
L 1569 4666 
L 2759 1491 
L 3956 4666 
L 4897 4666 
L 4897 0 
L 4281 0 
L 4281 4097 
L 3078 897 
L 2444 897 
L 1241 4097 
L 1241 0 
L 628 0 
L 628 4666 
z
" transform="scale(0.015625)"/>
        <path id="DejaVuSans-31" d="M 794 531 
L 1825 531 
L 1825 4091 
L 703 3866 
L 703 4441 
L 1819 4666 
L 2450 4666 
L 2450 531 
L 3481 531 
L 3481 0 
L 794 0 
L 794 531 
z
" transform="scale(0.015625)"/>
       </defs>
       <use xlink:href="#DejaVuSans-44"/>
       <use xlink:href="#DejaVuSans-4d" x="77.001953"/>
       <use xlink:href="#DejaVuSans-31" x="163.28125"/>
       <use xlink:href="#DejaVuSans-20" x="226.904297"/>
       <use xlink:href="#DejaVuSans-55" x="258.691406"/>
       <use xlink:href="#DejaVuSans-6e" x="331.884766"/>
       <use xlink:href="#DejaVuSans-69" x="395.263672"/>
       <use xlink:href="#DejaVuSans-6c" x="423.046875"/>
       <use xlink:href="#DejaVuSans-61" x="450.830078"/>
       <use xlink:href="#DejaVuSans-74" x="512.109375"/>
       <use xlink:href="#DejaVuSans-65" x="551.318359"/>
       <use xlink:href="#DejaVuSans-72" x="612.841797"/>
       <use xlink:href="#DejaVuSans-61" x="653.955078"/>
       <use xlink:href="#DejaVuSans-6c" x="715.234375"/>
      </g>
     </g>
    </g>
    <g id="xtick_6">
     <g id="text_6">
      <!-- 1 Unilateral -->
      <g transform="translate(313.660624 428.941095)rotate(-25)scale(0.14 -0.14)">
       <use xlink:href="#DejaVuSans-31"/>
       <use xlink:href="#DejaVuSans-20" x="63.623047"/>
       <use xlink:href="#DejaVuSans-55" x="95.410156"/>
       <use xlink:href="#DejaVuSans-6e" x="168.603516"/>
       <use xlink:href="#DejaVuSans-69" x="231.982422"/>
       <use xlink:href="#DejaVuSans-6c" x="259.765625"/>
       <use xlink:href="#DejaVuSans-61" x="287.548828"/>
       <use xlink:href="#DejaVuSans-74" x="348.828125"/>
       <use xlink:href="#DejaVuSans-65" x="388.037109"/>
       <use xlink:href="#DejaVuSans-72" x="449.560547"/>
       <use xlink:href="#DejaVuSans-61" x="490.673828"/>
       <use xlink:href="#DejaVuSans-6c" x="551.953125"/>
      </g>
     </g>
    </g>
    <g id="text_7">
     <!-- Glomerulus -->
     <g transform="translate(175.55 480.106095)scale(0.16 -0.16)">
      <defs>
       <path id="DejaVuSans-47" d="M 3809 666 
L 3809 1919 
L 2778 1919 
L 2778 2438 
L 4434 2438 
L 4434 434 
Q 4069 175 3628 42 
Q 3188 -91 2688 -91 
Q 1594 -91 976 548 
Q 359 1188 359 2328 
Q 359 3472 976 4111 
Q 1594 4750 2688 4750 
Q 3144 4750 3555 4637 
Q 3966 4525 4313 4306 
L 4313 3634 
Q 3963 3931 3569 4081 
Q 3175 4231 2741 4231 
Q 1884 4231 1454 3753 
Q 1025 3275 1025 2328 
Q 1025 1384 1454 906 
Q 1884 428 2741 428 
Q 3075 428 3337 486 
Q 3600 544 3809 666 
z
" transform="scale(0.015625)"/>
       <path id="DejaVuSans-75" d="M 544 1381 
L 544 3500 
L 1119 3500 
L 1119 1403 
Q 1119 906 1312 657 
Q 1506 409 1894 409 
Q 2359 409 2629 706 
Q 2900 1003 2900 1516 
L 2900 3500 
L 3475 3500 
L 3475 0 
L 2900 0 
L 2900 538 
Q 2691 219 2414 64 
Q 2138 -91 1772 -91 
Q 1169 -91 856 284 
Q 544 659 544 1381 
z
M 1991 3584 
L 1991 3584 
z
" transform="scale(0.015625)"/>
       <path id="DejaVuSans-73" d="M 2834 3397 
L 2834 2853 
Q 2591 2978 2328 3040 
Q 2066 3103 1784 3103 
Q 1356 3103 1142 2972 
Q 928 2841 928 2578 
Q 928 2378 1081 2264 
Q 1234 2150 1697 2047 
L 1894 2003 
Q 2506 1872 2764 1633 
Q 3022 1394 3022 966 
Q 3022 478 2636 193 
Q 2250 -91 1575 -91 
Q 1294 -91 989 -36 
Q 684 19 347 128 
L 347 722 
Q 666 556 975 473 
Q 1284 391 1588 391 
Q 1994 391 2212 530 
Q 2431 669 2431 922 
Q 2431 1156 2273 1281 
Q 2116 1406 1581 1522 
L 1381 1569 
Q 847 1681 609 1914 
Q 372 2147 372 2553 
Q 372 3047 722 3315 
Q 1072 3584 1716 3584 
Q 2034 3584 2315 3537 
Q 2597 3491 2834 3397 
z
" transform="scale(0.015625)"/>
      </defs>
      <use xlink:href="#DejaVuSans-47"/>
      <use xlink:href="#DejaVuSans-6c" x="77.490234"/>
      <use xlink:href="#DejaVuSans-6f" x="105.273438"/>
      <use xlink:href="#DejaVuSans-6d" x="166.455078"/>
      <use xlink:href="#DejaVuSans-65" x="263.867188"/>
      <use xlink:href="#DejaVuSans-72" x="325.390625"/>
      <use xlink:href="#DejaVuSans-75" x="366.503906"/>
      <use xlink:href="#DejaVuSans-6c" x="429.882812"/>
      <use xlink:href="#DejaVuSans-75" x="457.666016"/>
      <use xlink:href="#DejaVuSans-73" x="521.044922"/>
     </g>
    </g>
   </g>
   <g id="matplotlib.axis_2">
    <g id="ytick_1">
     <g id="line2d_1">
      <defs>
       <path id="m2e20224953" d="M 0 0 
L -3.5 0 
" style="stroke: #000000; stroke-width: 0.8"/>
      </defs>
      <g>
       <use xlink:href="#m2e20224953" x="68.5125" y="378" style="stroke: #000000; stroke-width: 0.8"/>
      </g>
     </g>
     <g id="text_8">
      <!-- 0.0 -->
      <g transform="translate(39.248125 383.318906)scale(0.14 -0.14)">
       <defs>
        <path id="DejaVuSans-30" d="M 2034 4250 
Q 1547 4250 1301 3770 
Q 1056 3291 1056 2328 
Q 1056 1369 1301 889 
Q 1547 409 2034 409 
Q 2525 409 2770 889 
Q 3016 1369 3016 2328 
Q 3016 3291 2770 3770 
Q 2525 4250 2034 4250 
z
M 2034 4750 
Q 2819 4750 3233 4129 
Q 3647 3509 3647 2328 
Q 3647 1150 3233 529 
Q 2819 -91 2034 -91 
Q 1250 -91 836 529 
Q 422 1150 422 2328 
Q 422 3509 836 4129 
Q 1250 4750 2034 4750 
z
" transform="scale(0.015625)"/>
        <path id="DejaVuSans-2e" d="M 684 794 
L 1344 794 
L 1344 0 
L 684 0 
L 684 794 
z
" transform="scale(0.015625)"/>
       </defs>
       <use xlink:href="#DejaVuSans-30"/>
       <use xlink:href="#DejaVuSans-2e" x="63.623047"/>
       <use xlink:href="#DejaVuSans-30" x="95.410156"/>
      </g>
     </g>
    </g>
    <g id="ytick_2">
     <g id="line2d_2">
      <g>
       <use xlink:href="#m2e20224953" x="68.5125" y="337.23" style="stroke: #000000; stroke-width: 0.8"/>
      </g>
     </g>
     <g id="text_9">
      <!-- 0.1 -->
      <g transform="translate(39.248125 342.548906)scale(0.14 -0.14)">
       <use xlink:href="#DejaVuSans-30"/>
       <use xlink:href="#DejaVuSans-2e" x="63.623047"/>
       <use xlink:href="#DejaVuSans-31" x="95.410156"/>
      </g>
     </g>
    </g>
    <g id="ytick_3">
     <g id="line2d_3">
      <g>
       <use xlink:href="#m2e20224953" x="68.5125" y="296.46" style="stroke: #000000; stroke-width: 0.8"/>
      </g>
     </g>
     <g id="text_10">
      <!-- 0.2 -->
      <g transform="translate(39.248125 301.778906)scale(0.14 -0.14)">
       <defs>
        <path id="DejaVuSans-32" d="M 1228 531 
L 3431 531 
L 3431 0 
L 469 0 
L 469 531 
Q 828 903 1448 1529 
Q 2069 2156 2228 2338 
Q 2531 2678 2651 2914 
Q 2772 3150 2772 3378 
Q 2772 3750 2511 3984 
Q 2250 4219 1831 4219 
Q 1534 4219 1204 4116 
Q 875 4013 500 3803 
L 500 4441 
Q 881 4594 1212 4672 
Q 1544 4750 1819 4750 
Q 2544 4750 2975 4387 
Q 3406 4025 3406 3419 
Q 3406 3131 3298 2873 
Q 3191 2616 2906 2266 
Q 2828 2175 2409 1742 
Q 1991 1309 1228 531 
z
" transform="scale(0.015625)"/>
       </defs>
       <use xlink:href="#DejaVuSans-30"/>
       <use xlink:href="#DejaVuSans-2e" x="63.623047"/>
       <use xlink:href="#DejaVuSans-32" x="95.410156"/>
      </g>
     </g>
    </g>
    <g id="ytick_4">
     <g id="line2d_4">
      <g>
       <use xlink:href="#m2e20224953" x="68.5125" y="255.69" style="stroke: #000000; stroke-width: 0.8"/>
      </g>
     </g>
     <g id="text_11">
      <!-- 0.3 -->
      <g transform="translate(39.248125 261.008906)scale(0.14 -0.14)">
       <defs>
        <path id="DejaVuSans-33" d="M 2597 2516 
Q 3050 2419 3304 2112 
Q 3559 1806 3559 1356 
Q 3559 666 3084 287 
Q 2609 -91 1734 -91 
Q 1441 -91 1130 -33 
Q 819 25 488 141 
L 488 750 
Q 750 597 1062 519 
Q 1375 441 1716 441 
Q 2309 441 2620 675 
Q 2931 909 2931 1356 
Q 2931 1769 2642 2001 
Q 2353 2234 1838 2234 
L 1294 2234 
L 1294 2753 
L 1863 2753 
Q 2328 2753 2575 2939 
Q 2822 3125 2822 3475 
Q 2822 3834 2567 4026 
Q 2313 4219 1838 4219 
Q 1578 4219 1281 4162 
Q 984 4106 628 3988 
L 628 4550 
Q 988 4650 1302 4700 
Q 1616 4750 1894 4750 
Q 2613 4750 3031 4423 
Q 3450 4097 3450 3541 
Q 3450 3153 3228 2886 
Q 3006 2619 2597 2516 
z
" transform="scale(0.015625)"/>
       </defs>
       <use xlink:href="#DejaVuSans-30"/>
       <use xlink:href="#DejaVuSans-2e" x="63.623047"/>
       <use xlink:href="#DejaVuSans-33" x="95.410156"/>
      </g>
     </g>
    </g>
    <g id="ytick_5">
     <g id="line2d_5">
      <g>
       <use xlink:href="#m2e20224953" x="68.5125" y="214.92" style="stroke: #000000; stroke-width: 0.8"/>
      </g>
     </g>
     <g id="text_12">
      <!-- 0.4 -->
      <g transform="translate(39.248125 220.238906)scale(0.14 -0.14)">
       <defs>
        <path id="DejaVuSans-34" d="M 2419 4116 
L 825 1625 
L 2419 1625 
L 2419 4116 
z
M 2253 4666 
L 3047 4666 
L 3047 1625 
L 3713 1625 
L 3713 1100 
L 3047 1100 
L 3047 0 
L 2419 0 
L 2419 1100 
L 313 1100 
L 313 1709 
L 2253 4666 
z
" transform="scale(0.015625)"/>
       </defs>
       <use xlink:href="#DejaVuSans-30"/>
       <use xlink:href="#DejaVuSans-2e" x="63.623047"/>
       <use xlink:href="#DejaVuSans-34" x="95.410156"/>
      </g>
     </g>
    </g>
    <g id="ytick_6">
     <g id="line2d_6">
      <g>
       <use xlink:href="#m2e20224953" x="68.5125" y="174.15" style="stroke: #000000; stroke-width: 0.8"/>
      </g>
     </g>
     <g id="text_13">
      <!-- 0.5 -->
      <g transform="translate(39.248125 179.468906)scale(0.14 -0.14)">
       <defs>
        <path id="DejaVuSans-35" d="M 691 4666 
L 3169 4666 
L 3169 4134 
L 1269 4134 
L 1269 2991 
Q 1406 3038 1543 3061 
Q 1681 3084 1819 3084 
Q 2600 3084 3056 2656 
Q 3513 2228 3513 1497 
Q 3513 744 3044 326 
Q 2575 -91 1722 -91 
Q 1428 -91 1123 -41 
Q 819 9 494 109 
L 494 744 
Q 775 591 1075 516 
Q 1375 441 1709 441 
Q 2250 441 2565 725 
Q 2881 1009 2881 1497 
Q 2881 1984 2565 2268 
Q 2250 2553 1709 2553 
Q 1456 2553 1204 2497 
Q 953 2441 691 2322 
L 691 4666 
z
" transform="scale(0.015625)"/>
       </defs>
       <use xlink:href="#DejaVuSans-30"/>
       <use xlink:href="#DejaVuSans-2e" x="63.623047"/>
       <use xlink:href="#DejaVuSans-35" x="95.410156"/>
      </g>
     </g>
    </g>
    <g id="ytick_7">
     <g id="line2d_7">
      <g>
       <use xlink:href="#m2e20224953" x="68.5125" y="133.38" style="stroke: #000000; stroke-width: 0.8"/>
      </g>
     </g>
     <g id="text_14">
      <!-- 0.6 -->
      <g transform="translate(39.248125 138.698906)scale(0.14 -0.14)">
       <defs>
        <path id="DejaVuSans-36" d="M 2113 2584 
Q 1688 2584 1439 2293 
Q 1191 2003 1191 1497 
Q 1191 994 1439 701 
Q 1688 409 2113 409 
Q 2538 409 2786 701 
Q 3034 994 3034 1497 
Q 3034 2003 2786 2293 
Q 2538 2584 2113 2584 
z
M 3366 4563 
L 3366 3988 
Q 3128 4100 2886 4159 
Q 2644 4219 2406 4219 
Q 1781 4219 1451 3797 
Q 1122 3375 1075 2522 
Q 1259 2794 1537 2939 
Q 1816 3084 2150 3084 
Q 2853 3084 3261 2657 
Q 3669 2231 3669 1497 
Q 3669 778 3244 343 
Q 2819 -91 2113 -91 
Q 1303 -91 875 529 
Q 447 1150 447 2328 
Q 447 3434 972 4092 
Q 1497 4750 2381 4750 
Q 2619 4750 2861 4703 
Q 3103 4656 3366 4563 
z
" transform="scale(0.015625)"/>
       </defs>
       <use xlink:href="#DejaVuSans-30"/>
       <use xlink:href="#DejaVuSans-2e" x="63.623047"/>
       <use xlink:href="#DejaVuSans-36" x="95.410156"/>
      </g>
     </g>
    </g>
    <g id="ytick_8">
     <g id="line2d_8">
      <g>
       <use xlink:href="#m2e20224953" x="68.5125" y="92.61" style="stroke: #000000; stroke-width: 0.8"/>
      </g>
     </g>
     <g id="text_15">
      <!-- 0.7 -->
      <g transform="translate(39.248125 97.928906)scale(0.14 -0.14)">
       <defs>
        <path id="DejaVuSans-37" d="M 525 4666 
L 3525 4666 
L 3525 4397 
L 1831 0 
L 1172 0 
L 2766 4134 
L 525 4134 
L 525 4666 
z
" transform="scale(0.015625)"/>
       </defs>
       <use xlink:href="#DejaVuSans-30"/>
       <use xlink:href="#DejaVuSans-2e" x="63.623047"/>
       <use xlink:href="#DejaVuSans-37" x="95.410156"/>
      </g>
     </g>
    </g>
    <g id="ytick_9">
     <g id="line2d_9">
      <g>
       <use xlink:href="#m2e20224953" x="68.5125" y="51.84" style="stroke: #000000; stroke-width: 0.8"/>
      </g>
     </g>
     <g id="text_16">
      <!-- 0.8 -->
      <g transform="translate(39.248125 57.158906)scale(0.14 -0.14)">
       <defs>
        <path id="DejaVuSans-38" d="M 2034 2216 
Q 1584 2216 1326 1975 
Q 1069 1734 1069 1313 
Q 1069 891 1326 650 
Q 1584 409 2034 409 
Q 2484 409 2743 651 
Q 3003 894 3003 1313 
Q 3003 1734 2745 1975 
Q 2488 2216 2034 2216 
z
M 1403 2484 
Q 997 2584 770 2862 
Q 544 3141 544 3541 
Q 544 4100 942 4425 
Q 1341 4750 2034 4750 
Q 2731 4750 3128 4425 
Q 3525 4100 3525 3541 
Q 3525 3141 3298 2862 
Q 3072 2584 2669 2484 
Q 3125 2378 3379 2068 
Q 3634 1759 3634 1313 
Q 3634 634 3220 271 
Q 2806 -91 2034 -91 
Q 1263 -91 848 271 
Q 434 634 434 1313 
Q 434 1759 690 2068 
Q 947 2378 1403 2484 
z
M 1172 3481 
Q 1172 3119 1398 2916 
Q 1625 2713 2034 2713 
Q 2441 2713 2670 2916 
Q 2900 3119 2900 3481 
Q 2900 3844 2670 4047 
Q 2441 4250 2034 4250 
Q 1625 4250 1398 4047 
Q 1172 3844 1172 3481 
z
" transform="scale(0.015625)"/>
       </defs>
       <use xlink:href="#DejaVuSans-30"/>
       <use xlink:href="#DejaVuSans-2e" x="63.623047"/>
       <use xlink:href="#DejaVuSans-38" x="95.410156"/>
      </g>
     </g>
    </g>
    <g id="text_17">
     <!-- Synapse density (synapses/m) -->
     <g transform="translate(31.920625 342.32375)rotate(-90)scale(0.16 -0.16)">
      <defs>
       <path id="DejaVuSans-79" d="M 2059 -325 
Q 1816 -950 1584 -1140 
Q 1353 -1331 966 -1331 
L 506 -1331 
L 506 -850 
L 844 -850 
Q 1081 -850 1212 -737 
Q 1344 -625 1503 -206 
L 1606 56 
L 191 3500 
L 800 3500 
L 1894 763 
L 2988 3500 
L 3597 3500 
L 2059 -325 
z
" transform="scale(0.015625)"/>
       <path id="DejaVuSans-70" d="M 1159 525 
L 1159 -1331 
L 581 -1331 
L 581 3500 
L 1159 3500 
L 1159 2969 
Q 1341 3281 1617 3432 
Q 1894 3584 2278 3584 
Q 2916 3584 3314 3078 
Q 3713 2572 3713 1747 
Q 3713 922 3314 415 
Q 2916 -91 2278 -91 
Q 1894 -91 1617 61 
Q 1341 213 1159 525 
z
M 3116 1747 
Q 3116 2381 2855 2742 
Q 2594 3103 2138 3103 
Q 1681 3103 1420 2742 
Q 1159 2381 1159 1747 
Q 1159 1113 1420 752 
Q 1681 391 2138 391 
Q 2594 391 2855 752 
Q 3116 1113 3116 1747 
z
" transform="scale(0.015625)"/>
       <path id="DejaVuSans-64" d="M 2906 2969 
L 2906 4863 
L 3481 4863 
L 3481 0 
L 2906 0 
L 2906 525 
Q 2725 213 2448 61 
Q 2172 -91 1784 -91 
Q 1150 -91 751 415 
Q 353 922 353 1747 
Q 353 2572 751 3078 
Q 1150 3584 1784 3584 
Q 2172 3584 2448 3432 
Q 2725 3281 2906 2969 
z
M 947 1747 
Q 947 1113 1208 752 
Q 1469 391 1925 391 
Q 2381 391 2643 752 
Q 2906 1113 2906 1747 
Q 2906 2381 2643 2742 
Q 2381 3103 1925 3103 
Q 1469 3103 1208 2742 
Q 947 2381 947 1747 
z
" transform="scale(0.015625)"/>
       <path id="DejaVuSans-28" d="M 1984 4856 
Q 1566 4138 1362 3434 
Q 1159 2731 1159 2009 
Q 1159 1288 1364 580 
Q 1569 -128 1984 -844 
L 1484 -844 
Q 1016 -109 783 600 
Q 550 1309 550 2009 
Q 550 2706 781 3412 
Q 1013 4119 1484 4856 
L 1984 4856 
z
" transform="scale(0.015625)"/>
       <path id="DejaVuSans-2f" d="M 1625 4666 
L 2156 4666 
L 531 -594 
L 0 -594 
L 1625 4666 
z
" transform="scale(0.015625)"/>
       <path id="DejaVuSans-b5" d="M 544 -1331 
L 544 3500 
L 1119 3500 
L 1119 1325 
Q 1119 872 1334 640 
Q 1550 409 1972 409 
Q 2434 409 2667 671 
Q 2900 934 2900 1459 
L 2900 3500 
L 3475 3500 
L 3475 806 
Q 3475 619 3529 530 
Q 3584 441 3700 441 
Q 3728 441 3778 458 
Q 3828 475 3916 513 
L 3916 50 
Q 3788 -22 3673 -56 
Q 3559 -91 3450 -91 
Q 3234 -91 3106 31 
Q 2978 153 2931 403 
Q 2775 156 2548 32 
Q 2322 -91 2016 -91 
Q 1697 -91 1473 31 
Q 1250 153 1119 397 
L 1119 -1331 
L 544 -1331 
z
" transform="scale(0.015625)"/>
       <path id="DejaVuSans-29" d="M 513 4856 
L 1013 4856 
Q 1481 4119 1714 3412 
Q 1947 2706 1947 2009 
Q 1947 1309 1714 600 
Q 1481 -109 1013 -844 
L 513 -844 
Q 928 -128 1133 580 
Q 1338 1288 1338 2009 
Q 1338 2731 1133 3434 
Q 928 4138 513 4856 
z
" transform="scale(0.015625)"/>
      </defs>
      <use xlink:href="#DejaVuSans-53"/>
      <use xlink:href="#DejaVuSans-79" x="63.476562"/>
      <use xlink:href="#DejaVuSans-6e" x="122.65625"/>
      <use xlink:href="#DejaVuSans-61" x="186.035156"/>
      <use xlink:href="#DejaVuSans-70" x="247.314453"/>
      <use xlink:href="#DejaVuSans-73" x="310.791016"/>
      <use xlink:href="#DejaVuSans-65" x="362.890625"/>
      <use xlink:href="#DejaVuSans-20" x="424.414062"/>
      <use xlink:href="#DejaVuSans-64" x="456.201172"/>
      <use xlink:href="#DejaVuSans-65" x="519.677734"/>
      <use xlink:href="#DejaVuSans-6e" x="581.201172"/>
      <use xlink:href="#DejaVuSans-73" x="644.580078"/>
      <use xlink:href="#DejaVuSans-69" x="696.679688"/>
      <use xlink:href="#DejaVuSans-74" x="724.462891"/>
      <use xlink:href="#DejaVuSans-79" x="763.671875"/>
      <use xlink:href="#DejaVuSans-20" x="822.851562"/>
      <use xlink:href="#DejaVuSans-28" x="854.638672"/>
      <use xlink:href="#DejaVuSans-73" x="893.652344"/>
      <use xlink:href="#DejaVuSans-79" x="945.751953"/>
      <use xlink:href="#DejaVuSans-6e" x="1004.931641"/>
      <use xlink:href="#DejaVuSans-61" x="1068.310547"/>
      <use xlink:href="#DejaVuSans-70" x="1129.589844"/>
      <use xlink:href="#DejaVuSans-73" x="1193.066406"/>
      <use xlink:href="#DejaVuSans-65" x="1245.166016"/>
      <use xlink:href="#DejaVuSans-73" x="1306.689453"/>
      <use xlink:href="#DejaVuSans-2f" x="1358.789062"/>
      <use xlink:href="#DejaVuSans-b5" x="1392.480469"/>
      <use xlink:href="#DejaVuSans-6d" x="1456.103516"/>
      <use xlink:href="#DejaVuSans-29" x="1553.515625"/>
     </g>
    </g>
   </g>
   <g id="line2d_10">
    <path d="M 86.67221 318.339964 
L 101.31529 318.339964 
" clip-path="url(#pfd9e455d27)" style="fill: none; stroke: #000000; stroke-width: 1.5; stroke-linecap: square"/>
   </g>
   <g id="line2d_11">
    <path d="M 139.099249 324.361334 
L 150.813251 324.361334 
" clip-path="url(#pfd9e455d27)" style="fill: none; stroke: #000000; stroke-width: 1.5; stroke-linecap: square"/>
   </g>
   <g id="line2d_12">
    <path d="M 177.464046 364.646827 
L 214.373454 364.646827 
" clip-path="url(#pfd9e455d27)" style="fill: none; stroke: #000000; stroke-width: 1.5; stroke-linecap: square"/>
   </g>
   <g id="line2d_13">
    <path d="M 243.743669 251.348125 
L 250.018831 251.348125 
" clip-path="url(#pfd9e455d27)" style="fill: none; stroke: #000000; stroke-width: 1.5; stroke-linecap: square"/>
   </g>
   <g id="line2d_14">
    <path d="M 294.113892 179.63493 
L 301.573608 179.63493 
" clip-path="url(#pfd9e455d27)" style="fill: none; stroke: #000000; stroke-width: 1.5; stroke-linecap: square"/>
   </g>
   <g id="line2d_15">
    <path d="M 342.498203 250.645382 
L 355.114297 250.645382 
" clip-path="url(#pfd9e455d27)" style="fill: none; stroke: #000000; stroke-width: 1.5; stroke-linecap: square"/>
   </g>
   <g id="patch_3">
    <path d="M 68.5125 378 
L 68.5125 51.84 
" style="fill: none; stroke: #000000; stroke-width: 0.8; stroke-linejoin: miter; stroke-linecap: square"/>
   </g>
   <g id="PathCollection_1">
    <defs>
     <path id="C0_0_d197fb503a" d="M 0 2.5 
C 0.663008 2.5 1.29895 2.236584 1.767767 1.767767 
C 2.236584 1.29895 2.5 0.663008 2.5 -0 
C 2.5 -0.663008 2.236584 -1.29895 1.767767 -1.767767 
C 1.29895 -2.236584 0.663008 -2.5 0 -2.5 
C -0.663008 -2.5 -1.29895 -2.236584 -1.767767 -1.767767 
C -2.236584 -1.29895 -2.5 -0.663008 -2.5 0 
C -2.5 0.663008 -2.236584 1.29895 -1.767767 1.767767 
C -1.29895 2.236584 -0.663008 2.5 0 2.5 
z
"/>
    </defs>
    <g clip-path="url(#pfd9e455d27)">
     <use xlink:href="#C0_0_d197fb503a" x="93.427044" y="288.867027" style="fill: #8a2be2"/>
    </g>
    <g clip-path="url(#pfd9e455d27)">
     <use xlink:href="#C0_0_d197fb503a" x="89.714405" y="325.823501" style="fill: #8a2be2"/>
    </g>
    <g clip-path="url(#pfd9e455d27)">
     <use xlink:href="#C0_0_d197fb503a" x="90.122316" y="306.300154" style="fill: #8a2be2"/>
    </g>
    <g clip-path="url(#pfd9e455d27)">
     <use xlink:href="#C0_0_d197fb503a" x="97.114577" y="341.376589" style="fill: #8a2be2"/>
    </g>
    <g clip-path="url(#pfd9e455d27)">
     <use xlink:href="#C0_0_d197fb503a" x="92.510773" y="288.669309" style="fill: #8a2be2"/>
    </g>
    <g clip-path="url(#pfd9e455d27)">
     <use xlink:href="#C0_0_d197fb503a" x="90.217539" y="273.787657" style="fill: #8a2be2"/>
    </g>
    <g clip-path="url(#pfd9e455d27)">
     <use xlink:href="#C0_0_d197fb503a" x="89.727582" y="236.370869" style="fill: #8a2be2"/>
    </g>
    <g clip-path="url(#pfd9e455d27)">
     <use xlink:href="#C0_0_d197fb503a" x="90.737905" y="277.228365" style="fill: #8a2be2"/>
    </g>
    <g clip-path="url(#pfd9e455d27)">
     <use xlink:href="#C0_0_d197fb503a" x="98.670486" y="301.714512" style="fill: #8a2be2"/>
    </g>
    <g clip-path="url(#pfd9e455d27)">
     <use xlink:href="#C0_0_d197fb503a" x="90.268814" y="287.373787" style="fill: #8a2be2"/>
    </g>
    <g clip-path="url(#pfd9e455d27)">
     <use xlink:href="#C0_0_d197fb503a" x="92.430381" y="345.035203" style="fill: #8a2be2"/>
    </g>
    <g clip-path="url(#pfd9e455d27)">
     <use xlink:href="#C0_0_d197fb503a" x="91.015498" y="365.847701" style="fill: #8a2be2"/>
    </g>
    <g clip-path="url(#pfd9e455d27)">
     <use xlink:href="#C0_0_d197fb503a" x="95.895433" y="374.602829" style="fill: #8a2be2"/>
    </g>
    <g clip-path="url(#pfd9e455d27)">
     <use xlink:href="#C0_0_d197fb503a" x="93.655385" y="358.072072" style="fill: #8a2be2"/>
    </g>
    <g clip-path="url(#pfd9e455d27)">
     <use xlink:href="#C0_0_d197fb503a" x="89.300138" y="326.037968" style="fill: #8a2be2"/>
    </g>
    <g clip-path="url(#pfd9e455d27)">
     <use xlink:href="#C0_0_d197fb503a" x="94.087338" y="346.635937" style="fill: #8a2be2"/>
    </g>
    <g clip-path="url(#pfd9e455d27)">
     <use xlink:href="#C0_0_d197fb503a" x="91.525319" y="348.765446" style="fill: #8a2be2"/>
    </g>
    <g clip-path="url(#pfd9e455d27)">
     <use xlink:href="#C0_0_d197fb503a" x="95.808456" y="303.719024" style="fill: #8a2be2"/>
    </g>
    <g clip-path="url(#pfd9e455d27)">
     <use xlink:href="#C0_0_d197fb503a" x="97.523805" y="298.85294" style="fill: #8a2be2"/>
    </g>
    <g clip-path="url(#pfd9e455d27)">
     <use xlink:href="#C0_0_d197fb503a" x="94.876375" y="294.9285" style="fill: #8a2be2"/>
    </g>
    <g clip-path="url(#pfd9e455d27)">
     <use xlink:href="#C0_0_d197fb503a" x="99.011527" y="316.136393" style="fill: #8a2be2"/>
    </g>
    <g clip-path="url(#pfd9e455d27)">
     <use xlink:href="#C0_0_d197fb503a" x="94.651686" y="306.300154" style="fill: #8a2be2"/>
    </g>
    <g clip-path="url(#pfd9e455d27)">
     <use xlink:href="#C0_0_d197fb503a" x="97.860946" y="292.407835" style="fill: #8a2be2"/>
    </g>
    <g clip-path="url(#pfd9e455d27)">
     <use xlink:href="#C0_0_d197fb503a" x="97.373868" y="336.581415" style="fill: #8a2be2"/>
    </g>
    <g clip-path="url(#pfd9e455d27)">
     <use xlink:href="#C0_0_d197fb503a" x="89.491676" y="325.659148" style="fill: #8a2be2"/>
    </g>
    <g clip-path="url(#pfd9e455d27)">
     <use xlink:href="#C0_0_d197fb503a" x="98.552758" y="328.33957" style="fill: #8a2be2"/>
    </g>
    <g clip-path="url(#pfd9e455d27)">
     <use xlink:href="#C0_0_d197fb503a" x="89.444789" y="310.555211" style="fill: #8a2be2"/>
    </g>
    <g clip-path="url(#pfd9e455d27)">
     <use xlink:href="#C0_0_d197fb503a" x="98.873362" y="325.135381" style="fill: #8a2be2"/>
    </g>
    <g clip-path="url(#pfd9e455d27)">
     <use xlink:href="#C0_0_d197fb503a" x="89.399106" y="307.273368" style="fill: #8a2be2"/>
    </g>
    <g clip-path="url(#pfd9e455d27)">
     <use xlink:href="#C0_0_d197fb503a" x="92.272298" y="334.115598" style="fill: #8a2be2"/>
    </g>
    <g clip-path="url(#pfd9e455d27)">
     <use xlink:href="#C0_0_d197fb503a" x="89.381871" y="319.473157" style="fill: #8a2be2"/>
    </g>
    <g clip-path="url(#pfd9e455d27)">
     <use xlink:href="#C0_0_d197fb503a" x="94.809034" y="334.240302" style="fill: #8a2be2"/>
    </g>
    <g clip-path="url(#pfd9e455d27)">
     <use xlink:href="#C0_0_d197fb503a" x="90.284901" y="333.738878" style="fill: #8a2be2"/>
    </g>
    <g clip-path="url(#pfd9e455d27)">
     <use xlink:href="#C0_0_d197fb503a" x="90.587058" y="363.59297" style="fill: #8a2be2"/>
    </g>
   </g>
   <g id="PathCollection_2">
    <defs>
     <path id="C1_0_c273e2449b" d="M 0 2.5 
C 0.663008 2.5 1.29895 2.236584 1.767767 1.767767 
C 2.236584 1.29895 2.5 0.663008 2.5 -0 
C 2.5 -0.663008 2.236584 -1.29895 1.767767 -1.767767 
C 1.29895 -2.236584 0.663008 -2.5 0 -2.5 
C -0.663008 -2.5 -1.29895 -2.236584 -1.767767 -1.767767 
C -2.236584 -1.29895 -2.5 -0.663008 -2.5 0 
C -2.5 0.663008 -2.236584 1.29895 -1.767767 1.767767 
C -1.29895 2.236584 -0.663008 2.5 0 2.5 
z
"/>
    </defs>
    <g clip-path="url(#pfd9e455d27)">
     <use xlink:href="#C1_0_c273e2449b" x="148.190274" y="267.55262" style="fill: #800080"/>
    </g>
    <g clip-path="url(#pfd9e455d27)">
     <use xlink:href="#C1_0_c273e2449b" x="149.555945" y="300.778781" style="fill: #800080"/>
    </g>
    <g clip-path="url(#pfd9e455d27)">
     <use xlink:href="#C1_0_c273e2449b" x="140.753334" y="291.091095" style="fill: #800080"/>
    </g>
    <g clip-path="url(#pfd9e455d27)">
     <use xlink:href="#C1_0_c273e2449b" x="144.268534" y="352.941877" style="fill: #800080"/>
    </g>
    <g clip-path="url(#pfd9e455d27)">
     <use xlink:href="#C1_0_c273e2449b" x="142.18733" y="309.443889" style="fill: #800080"/>
    </g>
    <g clip-path="url(#pfd9e455d27)">
     <use xlink:href="#C1_0_c273e2449b" x="148.081796" y="277.874416" style="fill: #800080"/>
    </g>
    <g clip-path="url(#pfd9e455d27)">
     <use xlink:href="#C1_0_c273e2449b" x="145.355973" y="288.076742" style="fill: #800080"/>
    </g>
    <g clip-path="url(#pfd9e455d27)">
     <use xlink:href="#C1_0_c273e2449b" x="148.274253" y="291.289523" style="fill: #800080"/>
    </g>
    <g clip-path="url(#pfd9e455d27)">
     <use xlink:href="#C1_0_c273e2449b" x="147.744102" y="301.714512" style="fill: #800080"/>
    </g>
    <g clip-path="url(#pfd9e455d27)">
     <use xlink:href="#C1_0_c273e2449b" x="144.705001" y="314.149714" style="fill: #800080"/>
    </g>
    <g clip-path="url(#pfd9e455d27)">
     <use xlink:href="#C1_0_c273e2449b" x="146.804413" y="364.120086" style="fill: #800080"/>
    </g>
    <g clip-path="url(#pfd9e455d27)">
     <use xlink:href="#C1_0_c273e2449b" x="147.253135" y="371.92385" style="fill: #800080"/>
    </g>
    <g clip-path="url(#pfd9e455d27)">
     <use xlink:href="#C1_0_c273e2449b" x="146.788494" y="376.301414" style="fill: #800080"/>
    </g>
    <g clip-path="url(#pfd9e455d27)">
     <use xlink:href="#C1_0_c273e2449b" x="140.832941" y="360.286286" style="fill: #800080"/>
    </g>
    <g clip-path="url(#pfd9e455d27)">
     <use xlink:href="#C1_0_c273e2449b" x="145.651856" y="346.370937" style="fill: #800080"/>
    </g>
    <g clip-path="url(#pfd9e455d27)">
     <use xlink:href="#C1_0_c273e2449b" x="142.446277" y="313.31162" style="fill: #800080"/>
    </g>
    <g clip-path="url(#pfd9e455d27)">
     <use xlink:href="#C1_0_c273e2449b" x="140.755894" y="357.118176" style="fill: #800080"/>
    </g>
    <g clip-path="url(#pfd9e455d27)">
     <use xlink:href="#C1_0_c273e2449b" x="140.357717" y="298.005103" style="fill: #800080"/>
    </g>
    <g clip-path="url(#pfd9e455d27)">
     <use xlink:href="#C1_0_c273e2449b" x="141.663438" y="288.157392" style="fill: #800080"/>
    </g>
    <g clip-path="url(#pfd9e455d27)">
     <use xlink:href="#C1_0_c273e2449b" x="147.578357" y="290.181557" style="fill: #800080"/>
    </g>
    <g clip-path="url(#pfd9e455d27)">
     <use xlink:href="#C1_0_c273e2449b" x="141.881728" y="349.130317" style="fill: #800080"/>
    </g>
    <g clip-path="url(#pfd9e455d27)">
     <use xlink:href="#C1_0_c273e2449b" x="143.843757" y="291.091095" style="fill: #800080"/>
    </g>
    <g clip-path="url(#pfd9e455d27)">
     <use xlink:href="#C1_0_c273e2449b" x="141.840143" y="305.57586" style="fill: #800080"/>
    </g>
    <g clip-path="url(#pfd9e455d27)">
     <use xlink:href="#C1_0_c273e2449b" x="149.444968" y="344.865132" style="fill: #800080"/>
    </g>
    <g clip-path="url(#pfd9e455d27)">
     <use xlink:href="#C1_0_c273e2449b" x="147.325381" y="325.659148" style="fill: #800080"/>
    </g>
    <g clip-path="url(#pfd9e455d27)">
     <use xlink:href="#C1_0_c273e2449b" x="143.984158" y="335.69667" style="fill: #800080"/>
    </g>
    <g clip-path="url(#pfd9e455d27)">
     <use xlink:href="#C1_0_c273e2449b" x="145.301683" y="335.230134" style="fill: #800080"/>
    </g>
    <g clip-path="url(#pfd9e455d27)">
     <use xlink:href="#C1_0_c273e2449b" x="148.836329" y="329.540766" style="fill: #800080"/>
    </g>
    <g clip-path="url(#pfd9e455d27)">
     <use xlink:href="#C1_0_c273e2449b" x="143.203531" y="327.480977" style="fill: #800080"/>
    </g>
    <g clip-path="url(#pfd9e455d27)">
     <use xlink:href="#C1_0_c273e2449b" x="147.109775" y="339.839651" style="fill: #800080"/>
    </g>
    <g clip-path="url(#pfd9e455d27)">
     <use xlink:href="#C1_0_c273e2449b" x="143.352194" y="337.481417" style="fill: #800080"/>
    </g>
    <g clip-path="url(#pfd9e455d27)">
     <use xlink:href="#C1_0_c273e2449b" x="145.408106" y="325.488363" style="fill: #800080"/>
    </g>
    <g clip-path="url(#pfd9e455d27)">
     <use xlink:href="#C1_0_c273e2449b" x="141.932229" y="356.923275" style="fill: #800080"/>
    </g>
    <g clip-path="url(#pfd9e455d27)">
     <use xlink:href="#C1_0_c273e2449b" x="148.179656" y="363.59297" style="fill: #800080"/>
    </g>
   </g>
   <g id="PathCollection_3">
    <defs>
     <path id="C2_0_0015506f21" d="M 0 2.5 
C 0.663008 2.5 1.29895 2.236584 1.767767 1.767767 
C 2.236584 1.29895 2.5 0.663008 2.5 -0 
C 2.5 -0.663008 2.236584 -1.29895 1.767767 -1.767767 
C 1.29895 -2.236584 0.663008 -2.5 0 -2.5 
C -0.663008 -2.5 -1.29895 -2.236584 -1.767767 -1.767767 
C -2.236584 -1.29895 -2.5 -0.663008 -2.5 0 
C -2.5 0.663008 -2.236584 1.29895 -1.767767 1.767767 
C -1.29895 2.236584 -0.663008 2.5 0 2.5 
z
"/>
    </defs>
    <g clip-path="url(#pfd9e455d27)">
     <use xlink:href="#C2_0_0015506f21" x="192.834166" y="354.74792" style="fill: #4b0082"/>
    </g>
    <g clip-path="url(#pfd9e455d27)">
     <use xlink:href="#C2_0_0015506f21" x="196.728774" y="375.91294" style="fill: #4b0082"/>
    </g>
    <g clip-path="url(#pfd9e455d27)">
     <use xlink:href="#C2_0_0015506f21" x="191.198214" y="358.445496" style="fill: #4b0082"/>
    </g>
    <g clip-path="url(#pfd9e455d27)">
     <use xlink:href="#C2_0_0015506f21" x="200.126879" y="374.144904" style="fill: #4b0082"/>
    </g>
    <g clip-path="url(#pfd9e455d27)">
     <use xlink:href="#C2_0_0015506f21" x="198.736905" y="334.373384" style="fill: #4b0082"/>
    </g>
    <g clip-path="url(#pfd9e455d27)">
     <use xlink:href="#C2_0_0015506f21" x="197.654651" y="345.305932" style="fill: #4b0082"/>
    </g>
    <g clip-path="url(#pfd9e455d27)">
     <use xlink:href="#C2_0_0015506f21" x="197.645844" y="353.271104" style="fill: #4b0082"/>
    </g>
    <g clip-path="url(#pfd9e455d27)">
     <use xlink:href="#C2_0_0015506f21" x="193.675338" y="363.938842" style="fill: #4b0082"/>
    </g>
    <g clip-path="url(#pfd9e455d27)">
     <use xlink:href="#C2_0_0015506f21" x="196.355446" y="359.932385" style="fill: #4b0082"/>
    </g>
    <g clip-path="url(#pfd9e455d27)">
     <use xlink:href="#C2_0_0015506f21" x="195.624904" y="373.880627" style="fill: #4b0082"/>
    </g>
    <g clip-path="url(#pfd9e455d27)">
     <use xlink:href="#C2_0_0015506f21" x="195.245223" y="372.795032" style="fill: #4b0082"/>
    </g>
    <g clip-path="url(#pfd9e455d27)">
     <use xlink:href="#C2_0_0015506f21" x="191.816194" y="375.974617" style="fill: #4b0082"/>
    </g>
    <g clip-path="url(#pfd9e455d27)">
     <use xlink:href="#C2_0_0015506f21" x="199.413344" y="376.301414" style="fill: #4b0082"/>
    </g>
    <g clip-path="url(#pfd9e455d27)">
     <use xlink:href="#C2_0_0015506f21" x="196.354851" y="378" style="fill: #4b0082"/>
    </g>
    <g clip-path="url(#pfd9e455d27)">
     <use xlink:href="#C2_0_0015506f21" x="195.919286" y="378" style="fill: #4b0082"/>
    </g>
    <g clip-path="url(#pfd9e455d27)">
     <use xlink:href="#C2_0_0015506f21" x="195.424062" y="370.158984" style="fill: #4b0082"/>
    </g>
    <g clip-path="url(#pfd9e455d27)">
     <use xlink:href="#C2_0_0015506f21" x="196.891488" y="375.911818" style="fill: #4b0082"/>
    </g>
    <g clip-path="url(#pfd9e455d27)">
     <use xlink:href="#C2_0_0015506f21" x="200.643132" y="362.762877" style="fill: #4b0082"/>
    </g>
    <g clip-path="url(#pfd9e455d27)">
     <use xlink:href="#C2_0_0015506f21" x="194.19183" y="356.608903" style="fill: #4b0082"/>
    </g>
    <g clip-path="url(#pfd9e455d27)">
     <use xlink:href="#C2_0_0015506f21" x="192.743901" y="347.144871" style="fill: #4b0082"/>
    </g>
    <g clip-path="url(#pfd9e455d27)">
     <use xlink:href="#C2_0_0015506f21" x="194.669984" y="367.689399" style="fill: #4b0082"/>
    </g>
    <g clip-path="url(#pfd9e455d27)">
     <use xlink:href="#C2_0_0015506f21" x="195.514275" y="358.445496" style="fill: #4b0082"/>
    </g>
    <g clip-path="url(#pfd9e455d27)">
     <use xlink:href="#C2_0_0015506f21" x="199.166629" y="360.442633" style="fill: #4b0082"/>
    </g>
    <g clip-path="url(#pfd9e455d27)">
     <use xlink:href="#C2_0_0015506f21" x="193.246067" y="356.462336" style="fill: #4b0082"/>
    </g>
    <g clip-path="url(#pfd9e455d27)">
     <use xlink:href="#C2_0_0015506f21" x="191.729431" y="366.3687" style="fill: #4b0082"/>
    </g>
    <g clip-path="url(#pfd9e455d27)">
     <use xlink:href="#C2_0_0015506f21" x="199.199245" y="374.32145" style="fill: #4b0082"/>
    </g>
    <g clip-path="url(#pfd9e455d27)">
     <use xlink:href="#C2_0_0015506f21" x="191.307734" y="371.420021" style="fill: #4b0082"/>
    </g>
    <g clip-path="url(#pfd9e455d27)">
     <use xlink:href="#C2_0_0015506f21" x="200.177561" y="360.37846" style="fill: #4b0082"/>
    </g>
    <g clip-path="url(#pfd9e455d27)">
     <use xlink:href="#C2_0_0015506f21" x="200.265044" y="369.916956" style="fill: #4b0082"/>
    </g>
    <g clip-path="url(#pfd9e455d27)">
     <use xlink:href="#C2_0_0015506f21" x="191.870323" y="362.73586" style="fill: #4b0082"/>
    </g>
    <g clip-path="url(#pfd9e455d27)">
     <use xlink:href="#C2_0_0015506f21" x="196.019492" y="362.242773" style="fill: #4b0082"/>
    </g>
    <g clip-path="url(#pfd9e455d27)">
     <use xlink:href="#C2_0_0015506f21" x="193.605602" y="369.24806" style="fill: #4b0082"/>
    </g>
    <g clip-path="url(#pfd9e455d27)">
     <use xlink:href="#C2_0_0015506f21" x="197.409726" y="352.70793" style="fill: #4b0082"/>
    </g>
    <g clip-path="url(#pfd9e455d27)">
     <use xlink:href="#C2_0_0015506f21" x="194.105502" y="378" style="fill: #4b0082"/>
    </g>
   </g>
   <g id="PathCollection_4">
    <defs>
     <path id="C3_0_7542a9c036" d="M 0 2.5 
C 0.663008 2.5 1.29895 2.236584 1.767767 1.767767 
C 2.236584 1.29895 2.5 0.663008 2.5 -0 
C 2.5 -0.663008 2.236584 -1.29895 1.767767 -1.767767 
C 1.29895 -2.236584 0.663008 -2.5 0 -2.5 
C -0.663008 -2.5 -1.29895 -2.236584 -1.767767 -1.767767 
C -2.236584 -1.29895 -2.5 -0.663008 -2.5 0 
C -2.5 0.663008 -2.236584 1.29895 -1.767767 1.767767 
C -1.29895 2.236584 -0.663008 2.5 0 2.5 
z
"/>
    </defs>
    <g clip-path="url(#pfd9e455d27)">
     <use xlink:href="#C3_0_7542a9c036" x="247.871385" y="155.167567" style="fill: #6a5acd"/>
    </g>
    <g clip-path="url(#pfd9e455d27)">
     <use xlink:href="#C3_0_7542a9c036" x="242.762086" y="246.515222" style="fill: #6a5acd"/>
    </g>
    <g clip-path="url(#pfd9e455d27)">
     <use xlink:href="#C3_0_7542a9c036" x="246.851231" y="199.836745" style="fill: #6a5acd"/>
    </g>
    <g clip-path="url(#pfd9e455d27)">
     <use xlink:href="#C3_0_7542a9c036" x="247.793456" y="312.46337" style="fill: #6a5acd"/>
    </g>
    <g clip-path="url(#pfd9e455d27)">
     <use xlink:href="#C3_0_7542a9c036" x="247.785375" y="176.486582" style="fill: #6a5acd"/>
    </g>
    <g clip-path="url(#pfd9e455d27)">
     <use xlink:href="#C3_0_7542a9c036" x="251.429787" y="140.968004" style="fill: #6a5acd"/>
    </g>
    <g clip-path="url(#pfd9e455d27)">
     <use xlink:href="#C3_0_7542a9c036" x="247.21622" y="121.718716" style="fill: #6a5acd"/>
    </g>
    <g clip-path="url(#pfd9e455d27)">
     <use xlink:href="#C3_0_7542a9c036" x="251.079993" y="176.45673" style="fill: #6a5acd"/>
    </g>
    <g clip-path="url(#pfd9e455d27)">
     <use xlink:href="#C3_0_7542a9c036" x="242.653442" y="207.361409" style="fill: #6a5acd"/>
    </g>
    <g clip-path="url(#pfd9e455d27)">
     <use xlink:href="#C3_0_7542a9c036" x="242.205733" y="219.404127" style="fill: #6a5acd"/>
    </g>
    <g clip-path="url(#pfd9e455d27)">
     <use xlink:href="#C3_0_7542a9c036" x="251.112694" y="325.950321" style="fill: #6a5acd"/>
    </g>
    <g clip-path="url(#pfd9e455d27)">
     <use xlink:href="#C3_0_7542a9c036" x="243.506268" y="357.746168" style="fill: #6a5acd"/>
    </g>
    <g clip-path="url(#pfd9e455d27)">
     <use xlink:href="#C3_0_7542a9c036" x="248.474812" y="371.205658" style="fill: #6a5acd"/>
    </g>
    <g clip-path="url(#pfd9e455d27)">
     <use xlink:href="#C3_0_7542a9c036" x="251.341445" y="340.358359" style="fill: #6a5acd"/>
    </g>
    <g clip-path="url(#pfd9e455d27)">
     <use xlink:href="#C3_0_7542a9c036" x="251.724411" y="294.408906" style="fill: #6a5acd"/>
    </g>
    <g clip-path="url(#pfd9e455d27)">
     <use xlink:href="#C3_0_7542a9c036" x="243.758809" y="274.106541" style="fill: #6a5acd"/>
    </g>
    <g clip-path="url(#pfd9e455d27)">
     <use xlink:href="#C3_0_7542a9c036" x="248.699102" y="325.79544" style="fill: #6a5acd"/>
    </g>
    <g clip-path="url(#pfd9e455d27)">
     <use xlink:href="#C3_0_7542a9c036" x="251.230225" y="208.487004" style="fill: #6a5acd"/>
    </g>
    <g clip-path="url(#pfd9e455d27)">
     <use xlink:href="#C3_0_7542a9c036" x="247.974391" y="187.619235" style="fill: #6a5acd"/>
    </g>
    <g clip-path="url(#pfd9e455d27)">
     <use xlink:href="#C3_0_7542a9c036" x="249.173582" y="176.254928" style="fill: #6a5acd"/>
    </g>
    <g clip-path="url(#pfd9e455d27)">
     <use xlink:href="#C3_0_7542a9c036" x="241.834576" y="276.956108" style="fill: #6a5acd"/>
    </g>
    <g clip-path="url(#pfd9e455d27)">
     <use xlink:href="#C3_0_7542a9c036" x="249.763689" y="199.836745" style="fill: #6a5acd"/>
    </g>
    <g clip-path="url(#pfd9e455d27)">
     <use xlink:href="#C3_0_7542a9c036" x="244.894885" y="202.426328" style="fill: #6a5acd"/>
    </g>
    <g clip-path="url(#pfd9e455d27)">
     <use xlink:href="#C3_0_7542a9c036" x="248.912441" y="281.908882" style="fill: #6a5acd"/>
    </g>
    <g clip-path="url(#pfd9e455d27)">
     <use xlink:href="#C3_0_7542a9c036" x="247.482402" y="261.686995" style="fill: #6a5acd"/>
    </g>
    <g clip-path="url(#pfd9e455d27)">
     <use xlink:href="#C3_0_7542a9c036" x="251.080633" y="282.35769" style="fill: #6a5acd"/>
    </g>
    <g clip-path="url(#pfd9e455d27)">
     <use xlink:href="#C3_0_7542a9c036" x="250.902021" y="261.205366" style="fill: #6a5acd"/>
    </g>
    <g clip-path="url(#pfd9e455d27)">
     <use xlink:href="#C3_0_7542a9c036" x="249.243243" y="259.054608" style="fill: #6a5acd"/>
    </g>
    <g clip-path="url(#pfd9e455d27)">
     <use xlink:href="#C3_0_7542a9c036" x="246.837769" y="248.671302" style="fill: #6a5acd"/>
    </g>
    <g clip-path="url(#pfd9e455d27)">
     <use xlink:href="#C3_0_7542a9c036" x="248.214548" y="280.691109" style="fill: #6a5acd"/>
    </g>
    <g clip-path="url(#pfd9e455d27)">
     <use xlink:href="#C3_0_7542a9c036" x="243.807437" y="263.197347" style="fill: #6a5acd"/>
    </g>
    <g clip-path="url(#pfd9e455d27)">
     <use xlink:href="#C3_0_7542a9c036" x="251.349095" y="272.976726" style="fill: #6a5acd"/>
    </g>
    <g clip-path="url(#pfd9e455d27)">
     <use xlink:href="#C3_0_7542a9c036" x="244.620902" y="287.370083" style="fill: #6a5acd"/>
    </g>
    <g clip-path="url(#pfd9e455d27)">
     <use xlink:href="#C3_0_7542a9c036" x="247.182978" y="349.18594" style="fill: #6a5acd"/>
    </g>
   </g>
   <g id="PathCollection_5">
    <defs>
     <path id="C4_0_37cb22f0b8" d="M 0 2.5 
C 0.663008 2.5 1.29895 2.236584 1.767767 1.767767 
C 2.236584 1.29895 2.5 0.663008 2.5 -0 
C 2.5 -0.663008 2.236584 -1.29895 1.767767 -1.767767 
C 1.29895 -2.236584 0.663008 -2.5 0 -2.5 
C -0.663008 -2.5 -1.29895 -2.236584 -1.767767 -1.767767 
C -2.236584 -1.29895 -2.5 -0.663008 -2.5 0 
C -2.5 0.663008 -2.236584 1.29895 -1.767767 1.767767 
C -1.29895 2.236584 -0.663008 2.5 0 2.5 
z
"/>
    </defs>
    <g clip-path="url(#pfd9e455d27)">
     <use xlink:href="#C4_0_37cb22f0b8" x="299.772984" y="134.350374" style="fill: #ff8c00"/>
    </g>
    <g clip-path="url(#pfd9e455d27)">
     <use xlink:href="#C4_0_37cb22f0b8" x="293.168366" y="218.296634" style="fill: #ff8c00"/>
    </g>
    <g clip-path="url(#pfd9e455d27)">
     <use xlink:href="#C4_0_37cb22f0b8" x="293.426819" y="115.010513" style="fill: #ff8c00"/>
    </g>
    <g clip-path="url(#pfd9e455d27)">
     <use xlink:href="#C4_0_37cb22f0b8" x="302.828869" y="142.233999" style="fill: #ff8c00"/>
    </g>
    <g clip-path="url(#pfd9e455d27)">
     <use xlink:href="#C4_0_37cb22f0b8" x="297.706238" y="150.73202" style="fill: #ff8c00"/>
    </g>
    <g clip-path="url(#pfd9e455d27)">
     <use xlink:href="#C4_0_37cb22f0b8" x="300.107072" y="150.73202" style="fill: #ff8c00"/>
    </g>
    <g clip-path="url(#pfd9e455d27)">
     <use xlink:href="#C4_0_37cb22f0b8" x="301.441763" y="157.724941" style="fill: #ff8c00"/>
    </g>
    <g clip-path="url(#pfd9e455d27)">
     <use xlink:href="#C4_0_37cb22f0b8" x="298.996341" y="194.341647" style="fill: #ff8c00"/>
    </g>
    <g clip-path="url(#pfd9e455d27)">
     <use xlink:href="#C4_0_37cb22f0b8" x="300.748716" y="204.135016" style="fill: #ff8c00"/>
    </g>
    <g clip-path="url(#pfd9e455d27)">
     <use xlink:href="#C4_0_37cb22f0b8" x="296.558057" y="85.5231" style="fill: #ff8c00"/>
    </g>
    <g clip-path="url(#pfd9e455d27)">
     <use xlink:href="#C4_0_37cb22f0b8" x="302.397506" y="178.037926" style="fill: #ff8c00"/>
    </g>
    <g clip-path="url(#pfd9e455d27)">
     <use xlink:href="#C4_0_37cb22f0b8" x="298.397852" y="148.047384" style="fill: #ff8c00"/>
    </g>
    <g clip-path="url(#pfd9e455d27)">
     <use xlink:href="#C4_0_37cb22f0b8" x="293.692717" y="241.64401" style="fill: #ff8c00"/>
    </g>
    <g clip-path="url(#pfd9e455d27)">
     <use xlink:href="#C4_0_37cb22f0b8" x="302.462736" y="215.677854" style="fill: #ff8c00"/>
    </g>
    <g clip-path="url(#pfd9e455d27)">
     <use xlink:href="#C4_0_37cb22f0b8" x="297.389976" y="196.719453" style="fill: #ff8c00"/>
    </g>
    <g clip-path="url(#pfd9e455d27)">
     <use xlink:href="#C4_0_37cb22f0b8" x="293.888816" y="241.799419" style="fill: #ff8c00"/>
    </g>
    <g clip-path="url(#pfd9e455d27)">
     <use xlink:href="#C4_0_37cb22f0b8" x="294.613186" y="129.640172" style="fill: #ff8c00"/>
    </g>
    <g clip-path="url(#pfd9e455d27)">
     <use xlink:href="#C4_0_37cb22f0b8" x="298.68654" y="177.871906" style="fill: #ff8c00"/>
    </g>
    <g clip-path="url(#pfd9e455d27)">
     <use xlink:href="#C4_0_37cb22f0b8" x="299.441053" y="190.789254" style="fill: #ff8c00"/>
    </g>
    <g clip-path="url(#pfd9e455d27)">
     <use xlink:href="#C4_0_37cb22f0b8" x="295.71893" y="145.814461" style="fill: #ff8c00"/>
    </g>
    <g clip-path="url(#pfd9e455d27)">
     <use xlink:href="#C4_0_37cb22f0b8" x="295.207853" y="140.460073" style="fill: #ff8c00"/>
    </g>
    <g clip-path="url(#pfd9e455d27)">
     <use xlink:href="#C4_0_37cb22f0b8" x="300.844047" y="227.337055" style="fill: #ff8c00"/>
    </g>
    <g clip-path="url(#pfd9e455d27)">
     <use xlink:href="#C4_0_37cb22f0b8" x="301.16717" y="130.41694" style="fill: #ff8c00"/>
    </g>
    <g clip-path="url(#pfd9e455d27)">
     <use xlink:href="#C4_0_37cb22f0b8" x="296.33502" y="258.429117" style="fill: #ff8c00"/>
    </g>
    <g clip-path="url(#pfd9e455d27)">
     <use xlink:href="#C4_0_37cb22f0b8" x="294.890576" y="196.774273" style="fill: #ff8c00"/>
    </g>
    <g clip-path="url(#pfd9e455d27)">
     <use xlink:href="#C4_0_37cb22f0b8" x="301.155622" y="232.608678" style="fill: #ff8c00"/>
    </g>
    <g clip-path="url(#pfd9e455d27)">
     <use xlink:href="#C4_0_37cb22f0b8" x="297.641383" y="147.105497" style="fill: #ff8c00"/>
    </g>
    <g clip-path="url(#pfd9e455d27)">
     <use xlink:href="#C4_0_37cb22f0b8" x="298.982646" y="218.296634" style="fill: #ff8c00"/>
    </g>
    <g clip-path="url(#pfd9e455d27)">
     <use xlink:href="#C4_0_37cb22f0b8" x="302.609263" y="219.70092" style="fill: #ff8c00"/>
    </g>
    <g clip-path="url(#pfd9e455d27)">
     <use xlink:href="#C4_0_37cb22f0b8" x="292.764299" y="246.115124" style="fill: #ff8c00"/>
    </g>
    <g clip-path="url(#pfd9e455d27)">
     <use xlink:href="#C4_0_37cb22f0b8" x="301.279111" y="196.774273" style="fill: #ff8c00"/>
    </g>
    <g clip-path="url(#pfd9e455d27)">
     <use xlink:href="#C4_0_37cb22f0b8" x="298.462895" y="232.608678" style="fill: #ff8c00"/>
    </g>
    <g clip-path="url(#pfd9e455d27)">
     <use xlink:href="#C4_0_37cb22f0b8" x="299.134954" y="85.5231" style="fill: #ff8c00"/>
    </g>
    <g clip-path="url(#pfd9e455d27)">
     <use xlink:href="#C4_0_37cb22f0b8" x="301.207924" y="166.243912" style="fill: #ff8c00"/>
    </g>
    <g clip-path="url(#pfd9e455d27)">
     <use xlink:href="#C4_0_37cb22f0b8" x="300.151523" y="219.70092" style="fill: #ff8c00"/>
    </g>
    <g clip-path="url(#pfd9e455d27)">
     <use xlink:href="#C4_0_37cb22f0b8" x="300.923814" y="129.640172" style="fill: #ff8c00"/>
    </g>
   </g>
   <g id="PathCollection_6">
    <defs>
     <path id="C5_0_38e937589b" d="M 0 2.5 
C 0.663008 2.5 1.29895 2.236584 1.767767 1.767767 
C 2.236584 1.29895 2.5 0.663008 2.5 -0 
C 2.5 -0.663008 2.236584 -1.29895 1.767767 -1.767767 
C 1.29895 -2.236584 0.663008 -2.5 0 -2.5 
C -0.663008 -2.5 -1.29895 -2.236584 -1.767767 -1.767767 
C -2.236584 -1.29895 -2.5 -0.663008 -2.5 0 
C -2.5 0.663008 -2.236584 1.29895 -1.767767 1.767767 
C -1.29895 2.236584 -0.663008 2.5 0 2.5 
z
"/>
    </defs>
    <g clip-path="url(#pfd9e455d27)">
     <use xlink:href="#C5_0_38e937589b" x="350.526474" y="234.215974" style="fill: #ee82ee"/>
    </g>
    <g clip-path="url(#pfd9e455d27)">
     <use xlink:href="#C5_0_38e937589b" x="351.670618" y="219.643363" style="fill: #ee82ee"/>
    </g>
    <g clip-path="url(#pfd9e455d27)">
     <use xlink:href="#C5_0_38e937589b" x="349.770236" y="297.096862" style="fill: #ee82ee"/>
    </g>
    <g clip-path="url(#pfd9e455d27)">
     <use xlink:href="#C5_0_38e937589b" x="346.36864" y="272.836655" style="fill: #ee82ee"/>
    </g>
    <g clip-path="url(#pfd9e455d27)">
     <use xlink:href="#C5_0_38e937589b" x="351.896597" y="253.143491" style="fill: #ee82ee"/>
    </g>
    <g clip-path="url(#pfd9e455d27)">
     <use xlink:href="#C5_0_38e937589b" x="353.099647" y="226.912806" style="fill: #ee82ee"/>
    </g>
    <g clip-path="url(#pfd9e455d27)">
     <use xlink:href="#C5_0_38e937589b" x="350.042949" y="197.712325" style="fill: #ee82ee"/>
    </g>
    <g clip-path="url(#pfd9e455d27)">
     <use xlink:href="#C5_0_38e937589b" x="353.607066" y="261.816218" style="fill: #ee82ee"/>
    </g>
    <g clip-path="url(#pfd9e455d27)">
     <use xlink:href="#C5_0_38e937589b" x="348.775125" y="250.553643" style="fill: #ee82ee"/>
    </g>
    <g clip-path="url(#pfd9e455d27)">
     <use xlink:href="#C5_0_38e937589b" x="343.936981" y="292.522481" style="fill: #ee82ee"/>
    </g>
   </g>
  </g>
 </g>
 <defs>
  <clipPath id="pfd9e455d27">
   <rect x="68.5125" y="51.84" width="305.775" height="326.16"/>
  </clipPath>
 </defs>
</svg>
